<svg width="1360" height="665" viewBox="0 0 1360 665" fill="none" xmlns="http://www.w3.org/2000/svg">
<g clip-path="url(#clip0)">
<g clip-path="url(#clip1)" filter="url(#filter0_d)">
<path d="M-415.942 576.404L-378.49 595.151C-341.16 613.481 -266.072 651.6 -202.671 649.798C-139.086 648.622 -87.1891 607.525 -38.2516 556.317C10.5029 504.483 56.2974 442.539 114.816 424.06C173.518 406.207 244.944 431.818 303.646 413.964C362.165 395.485 407.96 333.542 468.096 320.587C528.232 307.632 603.32 345.751 673.22 366.151C743.121 386.551 808.444 391.315 870.198 383.885C932.073 376.872 990.683 358.705 1041.15 312.709C1091.73 267.13 1133.86 192.678 1186.07 152.623C1238.27 112.568 1299.93 104.825 1353.75 70.2938C1407.39 35.1376 1453.18 -26.8062 1513.32 -39.7609C1573.45 -52.7156 1648.54 -14.5965 1685.87 3.73344L1723.33 22.4803L1654.97 -211L1625.67 -201.917C1596.36 -192.834 1537.75 -174.667 1479.14 -156.501C1420.53 -138.335 1361.92 -120.169 1303.31 -102.002C1244.7 -83.8359 1186.09 -65.6696 1127.48 -47.5033C1068.87 -29.337 1010.26 -11.1707 951.649 6.99563C893.039 25.1619 834.429 43.3283 775.818 61.4945C717.208 79.6609 658.597 97.8272 599.987 115.993C541.377 134.16 482.766 152.326 424.156 170.492C365.546 188.659 306.935 206.825 248.325 224.991C189.714 243.158 131.104 261.324 72.4936 279.49C13.8831 297.657 -44.7272 315.823 -103.338 333.989C-161.948 352.155 -220.558 370.322 -279.169 388.488C-337.779 406.654 -396.39 424.821 -425.695 433.904L-455 442.987L-415.942 576.404Z" fill="#F9FBFF"/>
</g>
<g clip-path="url(#clip2)">
<path d="M-415.942 557.404L-378.49 576.151C-341.16 594.481 -266.072 632.6 -202.671 630.798C-139.086 629.622 -87.1891 588.525 -38.2516 537.317C10.5029 485.483 56.2974 423.539 114.816 405.06C173.518 387.207 244.944 412.818 303.646 394.964C362.165 376.485 407.96 314.542 468.096 301.587C528.232 288.632 603.32 326.751 673.22 347.151C743.121 367.551 808.444 372.315 870.198 364.885C932.073 357.872 990.683 339.705 1041.15 293.709C1091.73 248.13 1133.86 173.678 1186.07 133.623C1238.27 93.5676 1299.93 85.8246 1353.75 51.2938C1407.39 16.1376 1453.18 -45.8062 1513.32 -58.7609C1573.45 -71.7156 1648.54 -33.5965 1685.87 -15.2666L1723.33 3.48029L1654.97 -230L1625.67 -220.917C1596.36 -211.834 1537.75 -193.667 1479.14 -175.501C1420.53 -157.335 1361.92 -139.169 1303.31 -121.002C1244.7 -102.836 1186.09 -84.6696 1127.48 -66.5033C1068.87 -48.337 1010.26 -30.1707 951.649 -12.0044C893.039 6.16195 834.429 24.3283 775.818 42.4945C717.208 60.6609 658.597 78.8272 599.987 96.9934C541.377 115.16 482.766 133.326 424.156 151.492C365.546 169.659 306.935 187.825 248.325 205.991C189.714 224.158 131.104 242.324 72.4936 260.49C13.8831 278.657 -44.7272 296.823 -103.338 314.989C-161.948 333.155 -220.558 351.322 -279.169 369.488C-337.779 387.654 -396.39 405.821 -425.695 414.904L-455 423.987L-415.942 557.404Z" fill="#133166"/>
</g>
<rect width="1689.39" height="483.927" transform="matrix(0.948435 -0.316973 0.288966 0.957339 -402 -6.50806)" fill="#133166"/>
</g>
<defs>
<filter id="filter0_d" x="-458" y="-212" width="2219.62" height="999.53" filterUnits="userSpaceOnUse" color-interpolation-filters="sRGB">
<feFlood flood-opacity="0" result="BackgroundImageFix"/>
<feColorMatrix in="SourceAlpha" type="matrix" values="0 0 0 0 0 0 0 0 0 0 0 0 0 0 0 0 0 0 127 0"/>
<feOffset dx="3" dy="5"/>
<feGaussianBlur stdDeviation="3"/>
<feColorMatrix type="matrix" values="0 0 0 0 0 0 0 0 0 0 0 0 0 0 0 0 0 0 0.25 0"/>
<feBlend mode="normal" in2="BackgroundImageFix" result="effect1_dropShadow"/>
<feBlend mode="normal" in="SourceGraphic" in2="effect1_dropShadow" result="shape"/>
</filter>
<clipPath id="clip0">
<rect width="1360" height="665" fill="white"/>
</clipPath>
<clipPath id="clip1">
<rect width="2209" height="347.542" fill="white" transform="matrix(0.955171 -0.296055 0.280957 0.95972 -455 442.987)"/>
</clipPath>
<clipPath id="clip2">
<rect width="2209" height="347.542" fill="white" transform="matrix(0.955171 -0.296055 0.280957 0.95972 -455 423.987)"/>
</clipPath>
</defs>
</svg>
