<svg width="768" height="1045" viewBox="0 0 768 1045" fill="none" xmlns="http://www.w3.org/2000/svg">
<g clip-path="url(#clip0)">
<path fill-rule="evenodd" clip-rule="evenodd" d="M0 39.3133L21.3333 28.2635C42.6667 17.2136 85.3333 -4.50503 128 0.829384C150.408 3.6309 172.815 14.1042 195.223 24.5776C215.482 34.0466 235.741 43.5157 256 47.315C288.248 53.6507 320.496 45.8382 352.744 38.0257C363.163 35.5017 373.581 32.9776 384 30.9307C426.667 22.9291 469.333 22.9291 512 36.6462C527.208 41.5354 542.416 48.1673 557.624 54.7993C585.083 66.7737 612.541 78.748 640 80.4645C681.428 83.0543 722.856 62.2943 744.755 51.3205L744.815 51.2904C745.449 50.9728 746.066 50.6635 746.667 50.3632L768 39.3133V138V924L768 953L768 1024.65L749.867 1019.98C748.84 1019.72 747.76 1019.45 746.63 1019.17C727.209 1014.28 692.909 1005.65 658.133 1005.65C640 1005.65 621.733 1008.07 603.467 1010.48C585.2 1012.9 566.933 1015.31 548.8 1015.31C533.943 1015.31 519.086 1013.74 504.263 1012.17C482.372 1009.85 460.558 1007.53 438.933 1010.32C418.884 1013.04 398.994 1019.92 379.089 1026.8C362.458 1032.55 345.818 1038.31 329.067 1041.64C292.8 1048.64 256 1043.98 219.2 1034.31C209.202 1031.65 199.164 1028.63 189.107 1025.6L189.106 1025.6C162.684 1017.66 136.135 1009.67 109.867 1007.98C74.7329 1005.76 40.0852 1014.46 20.7755 1019.32L20.7679 1019.32C19.8549 1019.55 18.9762 1019.77 18.1333 1019.98L0 1024.65V953V924V138V39.3133Z" fill="#133166"/>
<path opacity="0.73" fill-rule="evenodd" clip-rule="evenodd" d="M786.991 622.255C790.644 678.879 842.975 672.897 826.962 705.017C813.765 731.49 725.025 854.485 686.212 800.413C666.725 773.265 680.788 748.421 677.695 715.07C674.048 675.744 622.086 631.214 650.419 603.889C680.192 575.177 784.318 580.835 786.991 622.255Z" fill="#274B8A"/>
<g opacity="0.3">
<mask id="mask0" mask-type="alpha" maskUnits="userSpaceOnUse" x="-99" y="138" width="458" height="344">
<path d="M-99 138H359V482H-99V138Z" fill="white"/>
</mask>
<g mask="url(#mask0)">
<path d="M230.188 328.06C190.823 328.06 158.911 296.102 158.911 256.68C158.911 217.258 190.823 185.3 230.188 185.3C269.552 185.3 301.464 217.258 301.464 256.68C301.464 296.102 269.552 328.06 230.188 328.06Z" fill="#C6DAFE"/>
<path d="M-59.3195 172.333L86.377 256.864L74.8752 276.746L-70.8213 192.215L-59.3195 172.333Z" fill="#4366A5"/>
<path fill-rule="evenodd" clip-rule="evenodd" d="M109.041 394.948L167.982 322.286L182.187 331.734L123.211 406.258L109.041 394.948Z" fill="#86A6DF"/>
<path fill-rule="evenodd" clip-rule="evenodd" d="M309.987 419.877L240.374 368.945L246.769 359.73L317.331 405.431L309.987 419.877Z" fill="#EAE8E4"/>
<path d="M157.858 414.359L183.837 375.647L189.826 379.678L163.847 418.39L157.858 414.359Z" fill="#33538C"/>
<path fill-rule="evenodd" clip-rule="evenodd" d="M122.384 336.373L149.462 303.353L160.991 310L134.606 346.092L122.384 336.373Z" fill="#3A8EAA"/>
<path fill-rule="evenodd" clip-rule="evenodd" d="M-68.2402 88.6033L212.58 285.32L198.736 303.438L-92.4054 118.659L-68.2402 88.6033Z" fill="#A4BEEE"/>
<path fill-rule="evenodd" clip-rule="evenodd" d="M194.871 306.956L97.6966 253.737L90.6978 266.36L186.713 319.057L194.871 306.956Z" fill="#678AC9"/>
<path d="M243.023 385.393L326.367 455.533L317.092 466.587L233.747 396.447L243.023 385.393Z" fill="#EAE8E4"/>
<path fill-rule="evenodd" clip-rule="evenodd" d="M268.589 398.721L233.841 370.931L227.237 378.21L261.984 406L268.589 398.721Z" fill="#678AC9"/>
<path d="M39.449 267.75L-56.9325 214.759L-60.6375 222.014L35.7439 275.005L39.449 267.75Z" fill="#28203D"/>
<path fill-rule="evenodd" clip-rule="evenodd" d="M31.2362 207.112L-61.8749 150.894L-66.0763 157.873L27.0348 214.091L31.2362 207.112Z" fill="#BFCBBA"/>
<path d="M-42.1464 240.645L54.6747 290.233L53.7382 292.067L-43.0829 242.479L-42.1464 240.645Z" fill="#849C9B"/>
<path d="M121.858 414.441L290.623 201.64L295.417 205.453L126.651 418.254L121.858 414.441Z" fill="#28203D"/>
<path fill-rule="evenodd" clip-rule="evenodd" d="M180.192 359.616L293.658 221.812L311.423 233.393L199.767 374.332L180.192 359.616Z" fill="#678AC9"/>
<path d="M72.3518 355.894C66.3166 354.445 62.5913 348.396 64.0311 342.385C65.471 336.373 71.5307 332.675 77.566 334.125C83.6012 335.575 87.3265 341.623 85.8867 347.635C84.4468 353.646 78.3871 357.344 72.3518 355.894Z" fill="#849C9B"/>
<path d="M305.313 353.931C294.444 351.321 287.736 340.428 290.328 329.602C292.921 318.776 303.834 312.116 314.703 314.727C325.572 317.338 332.28 328.231 329.687 339.057C327.095 349.883 316.182 356.542 305.313 353.931Z" fill="#EAE8E4"/>
<path d="M217.86 267.766C213.131 266.63 210.213 261.891 211.341 257.181C212.469 252.471 217.217 249.574 221.945 250.71C226.674 251.846 229.592 256.585 228.464 261.295C227.336 266.005 222.588 268.902 217.86 267.766Z" fill="#195BD0"/>
<path d="M265.682 353.533C260.976 352.402 258.072 347.686 259.194 342.999C260.317 338.312 265.042 335.429 269.747 336.559C274.453 337.69 277.357 342.406 276.235 347.093C275.112 351.78 270.387 354.663 265.682 353.533Z" fill="#BFCBBA"/>
<path d="M213.549 277.08L133.454 221.695L134.133 220.711L214.228 276.095L213.549 277.08Z" fill="#28203D"/>
<path d="M51.1848 399.318L9.76005 447.956L8.23553 446.654L49.6602 398.016L51.1848 399.318Z" fill="#28203D"/>
<path d="M311.949 158.243L270.502 210.075L269.569 209.327L311.016 157.495L311.949 158.243Z" fill="#28203D"/>
<path d="M283.969 409.13L336.623 451.767L335.872 452.698L283.218 410.061L283.969 409.13Z" fill="#28203D"/>
<path fill-rule="evenodd" clip-rule="evenodd" d="M14.1851 357.188L25.2905 344.394L24.2974 343.53L13.192 356.323L0.416681 345.202L-0.446641 346.196L12.3287 357.318L1.22325 370.112L2.2164 370.977L13.3218 358.183L26.0971 369.304L26.9605 368.31L14.1851 357.188Z" fill="#DC4618"/>
<path fill-rule="evenodd" clip-rule="evenodd" d="M310.349 333.081L316.067 326.492L315.556 326.047L309.837 332.635L303.258 326.908L302.814 327.42L309.393 333.148L303.674 339.736L304.185 340.181L309.904 333.593L316.483 339.32L316.927 338.808L310.349 333.081Z" fill="#DC4618"/>
</g>
</g>
</g>
<defs>
<clipPath id="clip0">
<rect width="768" height="1045" fill="white"/>
</clipPath>
</defs>
</svg>
