<svg width="768" height="907" viewBox="0 0 768 907" fill="none" xmlns="http://www.w3.org/2000/svg">
<g clip-path="url(#clip0)">
<g opacity="0.3">
<mask id="mask0" mask-type="alpha" maskUnits="userSpaceOnUse" x="-130" y="95" width="708" height="532">
<path d="M-130 95H578V627H-130V95Z" fill="white"/>
</mask>
<g mask="url(#mask0)">
<path d="M378.875 388.93C318.023 388.93 268.693 339.507 268.693 278.54C268.693 217.573 318.023 168.15 378.875 168.15C439.727 168.15 489.057 217.573 489.057 278.54C489.057 339.507 439.727 388.93 378.875 388.93Z" fill="#C6DAFE"/>
<path d="M-68.6599 148.096L156.565 278.825L138.785 309.573L-86.44 178.844L-68.6599 148.096Z" fill="#4366A5"/>
<path fill-rule="evenodd" clip-rule="evenodd" d="M191.601 492.374L282.714 380L304.673 394.612L213.505 509.865L191.601 492.374Z" fill="#86A6DF"/>
<path fill-rule="evenodd" clip-rule="evenodd" d="M502.234 530.927L394.622 452.159L404.507 437.907L513.585 508.585L502.234 530.927Z" fill="#EAE8E4"/>
<path d="M267.064 522.393L307.223 462.523L316.483 468.758L276.323 528.627L267.064 522.393Z" fill="#33538C"/>
<path fill-rule="evenodd" clip-rule="evenodd" d="M212.228 401.787L254.085 350.72L271.908 361L231.12 416.817L212.228 401.787Z" fill="#3A8EAA"/>
<path fill-rule="evenodd" clip-rule="evenodd" d="M-82.4499 18.6074L351.657 322.832L330.255 350.852L-119.806 65.0887L-82.4499 18.6074Z" fill="#A4BEEE"/>
<path fill-rule="evenodd" clip-rule="evenodd" d="M324.282 356.293L174.064 273.989L163.245 293.51L311.67 375.007L324.282 356.293Z" fill="#678AC9"/>
<path d="M398.716 477.597L527.555 586.069L513.217 603.163L384.378 494.691L398.716 477.597Z" fill="#EAE8E4"/>
<path fill-rule="evenodd" clip-rule="evenodd" d="M438.237 498.208L384.523 455.231L374.314 466.488L428.027 509.465L438.237 498.208Z" fill="#678AC9"/>
<path d="M84.0216 295.66L-64.9699 213.709L-70.6974 224.929L78.2941 306.88L84.0216 295.66Z" fill="#28203D"/>
<path fill-rule="evenodd" clip-rule="evenodd" d="M71.3258 201.883L-72.6101 114.941L-79.1049 125.734L64.8311 212.676L71.3258 201.883Z" fill="#BFCBBA"/>
<path d="M-42.1128 253.742L107.558 330.43L106.111 333.266L-43.5605 256.578L-42.1128 253.742Z" fill="#849C9B"/>
<path d="M211.413 522.52L472.3 193.42L479.71 199.317L218.824 528.417L211.413 522.52Z" fill="#28203D"/>
<path fill-rule="evenodd" clip-rule="evenodd" d="M301.59 437.732L476.991 224.617L504.453 242.526L331.849 460.49L301.59 437.732Z" fill="#678AC9"/>
<path d="M134.885 431.976C125.555 429.734 119.796 420.38 122.022 411.083C124.248 401.787 133.615 396.068 142.945 398.31C152.274 400.552 158.033 409.906 155.807 419.203C153.582 428.499 144.214 434.218 134.885 431.976Z" fill="#849C9B"/>
<path d="M495.008 428.94C478.206 424.903 467.836 408.057 471.844 391.315C475.852 374.572 492.722 364.273 509.523 368.311C526.325 372.348 536.696 389.194 532.687 405.936C528.679 422.679 511.809 432.978 495.008 428.94Z" fill="#EAE8E4"/>
<path d="M359.818 295.685C352.509 293.928 347.997 286.599 349.741 279.315C351.485 272.031 358.824 267.551 366.134 269.307C373.443 271.064 377.955 278.393 376.211 285.677C374.467 292.961 367.128 297.441 359.818 295.685Z" fill="#195BD0"/>
<path d="M433.744 428.324C426.47 426.576 421.98 419.282 423.715 412.034C425.451 404.785 432.754 400.326 440.028 402.074C447.303 403.822 451.793 411.116 450.057 418.364C448.322 425.613 441.018 430.072 433.744 428.324Z" fill="#BFCBBA"/>
<path d="M353.154 310.089L229.339 224.436L230.389 222.913L354.203 308.566L353.154 310.089Z" fill="#28203D"/>
<path d="M102.163 499.132L38.1269 574.351L35.7702 572.337L99.8067 497.118L102.163 499.132Z" fill="#28203D"/>
<path d="M505.266 126.305L441.195 206.465L439.753 205.308L503.824 125.149L505.266 126.305Z" fill="#28203D"/>
<path d="M462.013 514.306L543.409 580.245L542.248 581.684L460.852 515.745L462.013 514.306Z" fill="#28203D"/>
<path fill-rule="evenodd" clip-rule="evenodd" d="M44.9674 433.977L62.1347 414.191L60.5995 412.854L43.4322 432.64L23.6834 415.44L22.3489 416.978L42.0976 434.178L24.9303 453.964L26.4655 455.301L43.6329 435.515L63.3816 452.715L64.7162 451.176L44.9674 433.977Z" fill="#DC4618"/>
<path fill-rule="evenodd" clip-rule="evenodd" d="M502.792 396.695L511.633 386.506L510.842 385.817L502.002 396.006L491.832 387.149L491.145 387.941L501.314 396.798L492.474 406.987L493.264 407.676L502.105 397.487L512.275 406.344L512.962 405.552L502.792 396.695Z" fill="#DC4618"/>
</g>
</g>
</g>
<defs>
<clipPath id="clip0">
<rect width="768" height="907" fill="white"/>
</clipPath>
</defs>
</svg>
