<svg width="785" height="594" viewBox="0 0 785 594" fill="none" xmlns="http://www.w3.org/2000/svg">
<g clip-path="url(#clip0)">
<g filter="url(#filter0_d)">
<path fill-rule="evenodd" clip-rule="evenodd" d="M0 443.774L43.6111 469.049C87.2222 493.451 174.444 544 261.667 544C348.889 544 436.111 493.451 523.333 481.25C610.556 469.049 697.778 493.451 741.389 506.524L785 518.726V293H741.389C697.778 293 610.556 293 523.333 293C436.111 293 348.889 293 261.667 293C174.444 293 87.2222 293 43.6111 293H0V443.774Z" fill="url(#paint0_linear)"/>
</g>
<g filter="url(#filter1_d)">
<path fill-rule="evenodd" clip-rule="evenodd" d="M0 50.6704L18.5347 47.6134C37.6146 44.5565 74.684 38.0058 112.299 50.6704C149.368 63.335 186.983 94.7782 224.052 94.7782C261.667 94.7782 299.281 63.335 336.351 44.5565C373.965 25.3412 411.035 19.2272 448.649 34.9488C485.719 50.6704 523.333 88.2276 560.948 97.8352C598.017 107.443 635.632 88.2276 672.701 75.9997C710.316 63.335 747.385 56.7844 766.465 53.7274L785 50.6704V145H766.465C747.385 145 710.316 145 672.701 145C635.632 145 598.017 145 560.948 145C523.333 145 485.719 145 448.649 145C411.035 145 373.965 145 336.351 145C299.281 145 261.667 145 224.052 145C186.983 145 149.368 145 112.299 145C74.684 145 37.6146 145 18.5347 145H0V50.6704Z" fill="url(#paint1_linear)"/>
</g>
<path fill-rule="evenodd" clip-rule="evenodd" d="M18.5347 59.6134L0 62.6704V138V157V281V306V431.774L43.6111 457.049C45.0139 457.834 46.4618 458.646 47.9534 459.482L47.9753 459.494C92.8609 484.666 177.264 532 261.667 532C311.264 532 360.86 515.656 410.457 499.312L410.458 499.311C448.083 486.912 485.708 474.513 523.333 469.25C610.556 457.049 697.778 481.451 741.389 494.524L785 506.726V306V281V157V138V62.6704L766.465 65.7274C747.385 68.7844 710.316 75.335 672.701 87.9997C665.595 90.3437 658.469 92.9445 651.331 95.5498C621.231 106.535 590.911 117.601 560.948 109.835C539.674 104.401 518.399 90.0265 497.223 75.7184C480.959 64.7288 464.753 53.7785 448.649 46.9488C411.035 31.2272 373.965 37.3412 336.351 56.5565C325.905 61.8483 315.415 68.1458 304.895 74.4619C278.082 90.5595 251.067 106.778 224.052 106.778C200.789 106.778 177.312 94.3954 153.889 82.0415C139.987 74.7093 126.105 67.3874 112.299 62.6704C75.8081 50.3843 39.8307 56.1821 20.293 59.3306C19.6912 59.4276 19.1049 59.5221 18.5347 59.6134Z" fill="#133166"/>
<path d="M799.716 255.293C801.037 308.76 772.483 362.396 723.134 382.966C673.985 403.595 603.64 391.041 579.622 354.856C555.403 318.612 577.311 258.679 611.191 211.389C644.812 164.24 690.406 129.735 728.772 139.231C767.196 148.528 798.394 201.826 799.716 255.293Z" fill="#183975"/>
<path d="M793.304 255.978C794.547 306.276 767.685 356.732 721.261 376.083C675.026 395.489 608.851 383.679 586.257 349.639C563.474 315.544 584.083 259.163 615.955 214.676C647.583 170.323 690.473 137.863 726.565 146.796C762.712 155.542 792.06 205.68 793.304 255.978Z" fill="#1B3F7D"/>
<path d="M786.467 256.709C787.627 303.627 762.57 350.693 719.265 368.744C676.136 386.846 614.407 375.83 593.331 344.077C572.079 312.273 591.304 259.68 621.034 218.182C650.537 176.809 690.545 146.53 724.212 154.863C757.931 163.021 785.307 209.791 786.467 256.709Z" fill="#1F4486"/>
<path d="M779.576 257.445C780.651 300.957 757.414 344.607 717.253 361.347C677.255 378.135 620.007 367.919 600.461 338.471C580.752 308.975 598.581 260.201 626.153 221.716C653.514 183.346 690.618 155.265 721.841 162.993C753.111 170.559 778.5 213.933 779.576 257.445Z" fill="#224A91"/>
<path d="M772.149 258.239C773.134 298.08 751.857 338.047 715.084 353.374C678.461 368.746 626.044 359.391 608.147 332.428C590.1 305.421 606.425 260.762 631.671 225.524C656.723 190.391 690.697 164.68 719.285 171.756C747.917 178.683 771.164 218.398 772.149 258.239Z" fill="#28519A"/>
<path d="M764.844 259.02C765.74 295.25 746.391 331.594 712.951 345.533C679.648 359.511 631.981 351.004 615.706 326.485C599.295 301.926 614.14 261.314 637.098 229.27C659.88 197.322 690.774 173.94 716.772 180.375C742.809 186.675 763.949 222.79 764.844 259.02Z" fill="#2C57A3"/>
<path d="M757.573 259.797C758.379 292.433 740.95 325.171 710.828 337.727C680.828 350.319 637.891 342.656 623.231 320.569C608.448 298.446 621.82 261.864 642.5 232.999C663.022 204.22 690.851 183.158 714.269 188.955C737.723 194.629 756.766 227.162 757.573 259.797Z" fill="#3260AF"/>
<path d="M196.047 241.44C197.58 303.474 164.451 365.704 107.194 389.57C50.1709 413.504 -31.445 398.938 -59.3112 356.956C-87.4101 314.905 -61.992 245.369 -22.6835 190.502C16.3243 135.799 69.2225 95.765 113.736 106.783C158.317 117.569 194.513 179.407 196.047 241.44Z" fill="#183975"/>
<path d="M188.607 242.235C190.05 300.592 158.884 359.133 105.022 381.584C51.3786 404.1 -25.3992 390.397 -51.6136 350.903C-78.0468 311.345 -54.1355 245.931 -17.1571 194.316C19.5384 142.856 69.3009 105.195 111.175 115.56C153.114 125.707 187.165 183.879 188.607 242.235Z" fill="#1B3F7D"/>
<path d="M180.675 243.083C182.021 297.519 152.949 352.126 102.706 373.069C52.6668 394.072 -18.9523 381.29 -43.4054 344.45C-68.0626 307.55 -45.7578 246.531 -11.264 198.384C22.966 150.381 69.385 115.251 108.446 124.92C147.567 134.384 179.329 188.648 180.675 243.083Z" fill="#1F4486"/>
<path d="M172.68 243.938C173.928 294.421 146.967 345.065 100.371 364.487C53.9648 383.965 -12.4551 372.111 -35.1329 337.945C-58.0001 303.724 -37.3146 247.135 -5.32485 202.483C26.4201 157.965 69.4693 125.385 105.695 134.352C141.975 143.13 171.432 193.454 172.68 243.938Z" fill="#224A91"/>
<path d="M164.063 244.859C165.206 291.083 140.52 337.453 97.8552 355.237C55.3642 373.072 -5.45155 362.218 -26.216 330.935C-47.1538 299.601 -28.2136 247.786 1.07705 206.902C30.1436 166.14 69.5605 136.309 102.729 144.519C135.949 152.556 162.92 198.635 164.063 244.859Z" fill="#28519A"/>
<path d="M155.588 245.765C156.627 287.799 134.178 329.967 95.3808 346.139C56.7409 362.357 1.43703 352.487 -17.4455 324.039C-36.4856 295.545 -19.262 248.427 7.37392 211.248C33.8061 174.181 69.6505 147.053 99.8132 154.519C130.022 161.828 154.549 203.73 155.588 245.765Z" fill="#2C57A3"/>
<path d="M147.151 246.666C148.087 284.531 127.866 322.515 92.9172 337.082C58.1109 351.691 8.29377 342.801 -8.71537 317.175C-25.8665 291.508 -10.3517 249.064 13.6416 215.574C37.4514 182.184 69.7397 157.748 96.9099 164.474C124.122 171.057 146.215 208.802 147.151 246.666Z" fill="#3260AF"/>
</g>
<defs>
<filter id="filter0_d" x="-5" y="292" width="795" height="261" filterUnits="userSpaceOnUse" color-interpolation-filters="sRGB">
<feFlood flood-opacity="0" result="BackgroundImageFix"/>
<feColorMatrix in="SourceAlpha" type="matrix" values="0 0 0 0 0 0 0 0 0 0 0 0 0 0 0 0 0 0 127 0"/>
<feOffset dy="4"/>
<feGaussianBlur stdDeviation="2.5"/>
<feColorMatrix type="matrix" values="0 0 0 0 0.0901961 0 0 0 0 0.2 0 0 0 0 0.396078 0 0 0 0.3 0"/>
<feBlend mode="normal" in2="BackgroundImageFix" result="effect1_dropShadow"/>
<feBlend mode="normal" in="SourceGraphic" in2="effect1_dropShadow" result="shape"/>
</filter>
<filter id="filter1_d" x="-6" y="17" width="797" height="131" filterUnits="userSpaceOnUse" color-interpolation-filters="sRGB">
<feFlood flood-opacity="0" result="BackgroundImageFix"/>
<feColorMatrix in="SourceAlpha" type="matrix" values="0 0 0 0 0 0 0 0 0 0 0 0 0 0 0 0 0 0 127 0"/>
<feOffset dy="-3"/>
<feGaussianBlur stdDeviation="3"/>
<feColorMatrix type="matrix" values="0 0 0 0 0.0907118 0 0 0 0 0.200997 0 0 0 0 0.395833 0 0 0 0.3 0"/>
<feBlend mode="normal" in2="BackgroundImageFix" result="effect1_dropShadow"/>
<feBlend mode="normal" in="SourceGraphic" in2="effect1_dropShadow" result="shape"/>
</filter>
<linearGradient id="paint0_linear" x1="308.549" y1="293" x2="480.092" y2="445.417" gradientUnits="userSpaceOnUse">
<stop stop-color="#2E5396"/>
<stop offset="1" stop-color="#0A2350"/>
</linearGradient>
<linearGradient id="paint1_linear" x1="299.826" y1="-35.9999" x2="577.568" y2="77.9542" gradientUnits="userSpaceOnUse">
<stop stop-color="#2E5396"/>
<stop offset="1" stop-color="#0A2350"/>
</linearGradient>
<clipPath id="clip0">
<rect width="785" height="594" fill="white"/>
</clipPath>
</defs>
</svg>
