<svg width="500" height="500" viewBox="0 0 500 500" fill="none" xmlns="http://www.w3.org/2000/svg">
<path d="M104.56 101.63C132.47 42.1799 231.61 50.56 269.87 92.37C308.13 134.18 320.57 160.97 355.08 145.37C389.59 129.77 433.6 133.93 436.08 183.54C438.56 233.15 398.21 291.78 334 309.13C269.79 326.48 269.84 387.89 184.9 375.5C138.59 368.74 137.54 318.64 144.08 277.2C150.62 235.76 72.18 170.57 104.56 101.63Z" fill="#120F5D"/>
<path opacity="0.9" d="M104.56 101.63C132.47 42.1799 231.61 50.56 269.87 92.37C308.13 134.18 320.57 160.97 355.08 145.37C389.59 129.77 433.6 133.93 436.08 183.54C438.56 233.15 398.21 291.78 334 309.13C269.79 326.48 269.84 387.89 184.9 375.5C138.59 368.74 137.54 318.64 144.08 277.2C150.62 235.76 72.18 170.57 104.56 101.63Z" fill="white"/>
<path d="M250 427.56C357.082 427.56 443.89 422.492 443.89 416.24C443.89 409.988 357.082 404.92 250 404.92C142.917 404.92 56.11 409.988 56.11 416.24C56.11 422.492 142.917 427.56 250 427.56Z" fill="#F5F5F5"/>
<path d="M327.62 118.37V414.84C327.621 415.415 327.508 415.984 327.288 416.514C327.067 417.045 326.743 417.526 326.334 417.93C325.926 418.334 325.441 418.652 324.908 418.867C324.375 419.082 323.805 419.188 323.23 419.18H185.23C184.719 419.188 184.212 419.094 183.738 418.903C183.264 418.713 182.833 418.429 182.47 418.07C182.094 417.694 181.797 417.246 181.596 416.753C181.395 416.26 181.294 415.732 181.3 415.2V118C181.265 117.073 181.599 116.17 182.229 115.49C182.859 114.809 183.733 114.406 184.66 114.37H223.85C224.397 114.38 224.929 114.553 225.378 114.867C225.826 115.18 226.172 115.62 226.37 116.13L228 120.13C228.199 120.639 228.544 121.077 228.993 121.389C229.442 121.701 229.974 121.872 230.52 121.88H278.52C279.064 121.877 279.594 121.711 280.043 121.405C280.492 121.098 280.839 120.665 281.04 120.16L282.67 116.16C282.867 115.648 283.211 115.206 283.66 114.891C284.109 114.576 284.642 114.401 285.19 114.39H323.81C324.834 114.439 325.8 114.879 326.509 115.619C327.218 116.36 327.616 117.345 327.62 118.37Z" fill="#120F5D"/>
<path opacity="0.6" d="M199.51 126.32H201.55V123.6H199.51V126.32Z" fill="white"/>
<path opacity="0.6" d="M196.18 126.32H198.22V122.7H196.18V126.32Z" fill="white"/>
<path opacity="0.6" d="M192.87 126.32H194.91V121.79H192.87V126.32Z" fill="white"/>
<path opacity="0.6" d="M189.54 126.32H191.58V120.88H189.54V126.32Z" fill="white"/>
<path opacity="0.6" d="M308.94 122.61H307.73V125.33H308.94V122.61Z" fill="white"/>
<path opacity="0.6" d="M309.78 126.32H319.41V121.62H309.78V126.32Z" fill="white"/>
<g opacity="0.1">
<path opacity="0.1" d="M247.14 121.88L205 279.64L204.53 281.42L203.77 284.27L203.29 286.04L181.29 368.42V268.72L222.5 114.36H223.84C224.388 114.369 224.92 114.541 225.369 114.855C225.818 115.169 226.163 115.609 226.36 116.12L227.99 120.12C228.188 120.63 228.533 121.069 228.982 121.381C229.431 121.693 229.963 121.863 230.51 121.87L247.14 121.88Z" fill="white"/>
<path opacity="0.1" d="M327.62 202.45V302.15L301.36 400.55L300.72 402.94L296.38 419.18H269.77L274.1 402.95L274.8 400.35L278.27 387.31L278.97 384.7L280.37 379.49L281.06 376.88L282.45 371.67L283.14 369.06L305.04 287.04V287.03L306.05 283.25V283.24L327.62 202.45Z" fill="white"/>
<path opacity="0.1" d="M261.56 121.88L219.71 278.66L219.45 279.6L217.16 288.19L216.91 289.13L182.49 418.07C182.114 417.693 181.817 417.246 181.616 416.753C181.415 416.26 181.314 415.732 181.32 415.2V400L210.93 289.09L211.18 288.15L213.47 279.56L213.72 278.62L255.58 121.84L261.56 121.88Z" fill="white"/>
</g>
<path opacity="0.3" d="M327.62 133.7H181.32V406.05H327.62V133.7Z" fill="white"/>
<path d="M299.47 253.38C300.823 253.38 302.12 252.843 303.076 251.886C304.033 250.93 304.57 249.633 304.57 248.28V167.83C304.567 166.479 304.029 165.184 303.073 164.23C302.117 163.276 300.821 162.74 299.47 162.74V162.74C298.119 162.74 296.823 163.276 295.867 164.23C294.911 165.184 294.373 166.479 294.37 167.83V248.28C294.37 249.633 294.907 250.93 295.864 251.886C296.82 252.843 298.117 253.38 299.47 253.38V253.38Z" fill="#120F5D"/>
<path opacity="0.3" d="M299.47 251.38C298.648 251.38 297.859 251.053 297.278 250.472C296.697 249.891 296.37 249.102 296.37 248.28V167.83C296.37 167.008 296.697 166.219 297.278 165.638C297.859 165.057 298.648 164.73 299.47 164.73C300.292 164.73 301.081 165.057 301.662 165.638C302.243 166.219 302.57 167.008 302.57 167.83V248.28C302.57 249.102 302.243 249.891 301.662 250.472C301.081 251.053 300.292 251.38 299.47 251.38V251.38Z" fill="black"/>
<path d="M306.777 176.954C307.431 172.926 304.695 169.13 300.666 168.476C296.638 167.822 292.842 170.558 292.188 174.586C291.534 178.615 294.269 182.411 298.298 183.065C302.327 183.719 306.123 180.983 306.777 176.954Z" fill="#120F5D"/>
<path d="M269.47 253.38C270.14 253.38 270.803 253.248 271.422 252.992C272.04 252.735 272.603 252.36 273.076 251.886C273.55 251.413 273.925 250.85 274.182 250.232C274.438 249.613 274.57 248.95 274.57 248.28V167.83C274.567 166.479 274.029 165.184 273.073 164.23C272.117 163.276 270.821 162.74 269.47 162.74V162.74C268.119 162.74 266.823 163.276 265.867 164.23C264.911 165.184 264.373 166.479 264.37 167.83V248.28C264.37 249.633 264.907 250.93 265.864 251.886C266.82 252.843 268.117 253.38 269.47 253.38V253.38Z" fill="#120F5D"/>
<path opacity="0.3" d="M269.47 251.38C268.648 251.38 267.859 251.053 267.278 250.472C266.697 249.891 266.37 249.102 266.37 248.28V167.83C266.37 167.008 266.697 166.219 267.278 165.638C267.859 165.057 268.648 164.73 269.47 164.73C270.292 164.73 271.081 165.057 271.662 165.638C272.243 166.219 272.57 167.008 272.57 167.83V248.28C272.57 249.102 272.243 249.891 271.662 250.472C271.081 251.053 270.292 251.38 269.47 251.38V251.38Z" fill="black"/>
<path d="M276.775 236.95C277.429 232.922 274.693 229.126 270.664 228.472C266.636 227.818 262.84 230.554 262.186 234.582C261.532 238.611 264.267 242.407 268.296 243.061C272.325 243.715 276.121 240.979 276.775 236.95Z" fill="#120F5D"/>
<path d="M239.47 253.38C240.823 253.38 242.12 252.843 243.076 251.886C244.033 250.93 244.57 249.633 244.57 248.28V167.83C244.567 166.479 244.029 165.184 243.073 164.23C242.117 163.276 240.821 162.74 239.47 162.74V162.74C238.119 162.74 236.823 163.276 235.867 164.23C234.911 165.184 234.373 166.479 234.37 167.83V248.28C234.37 249.633 234.907 250.93 235.864 251.886C236.82 252.843 238.117 253.38 239.47 253.38V253.38Z" fill="#120F5D"/>
<path opacity="0.3" d="M239.47 251.38C238.648 251.38 237.859 251.053 237.278 250.472C236.697 249.891 236.37 249.102 236.37 248.28V167.83C236.37 167.008 236.697 166.219 237.278 165.638C237.859 165.057 238.648 164.73 239.47 164.73C240.292 164.73 241.081 165.057 241.662 165.638C242.243 166.219 242.57 167.008 242.57 167.83V248.28C242.57 249.102 242.243 249.891 241.662 250.472C241.081 251.053 240.292 251.38 239.47 251.38V251.38Z" fill="black"/>
<path d="M246.775 196.954C247.429 192.925 244.693 189.129 240.664 188.475C236.636 187.821 232.84 190.557 232.186 194.586C231.532 198.614 234.267 202.41 238.296 203.064C242.325 203.718 246.121 200.982 246.775 196.954Z" fill="#120F5D"/>
<path d="M209.47 253.38C210.823 253.38 212.12 252.843 213.076 251.886C214.033 250.93 214.57 249.633 214.57 248.28V167.83C214.567 166.479 214.029 165.184 213.073 164.23C212.117 163.276 210.821 162.74 209.47 162.74C208.119 162.74 206.823 163.276 205.867 164.23C204.911 165.184 204.373 166.479 204.37 167.83V248.28C204.37 249.633 204.907 250.93 205.864 251.886C206.82 252.843 208.117 253.38 209.47 253.38V253.38Z" fill="#120F5D"/>
<path opacity="0.3" d="M209.47 251.38C208.648 251.38 207.859 251.053 207.278 250.472C206.697 249.891 206.37 249.102 206.37 248.28V167.83C206.37 167.008 206.697 166.219 207.278 165.638C207.859 165.057 208.648 164.73 209.47 164.73C210.292 164.73 211.081 165.057 211.662 165.638C212.243 166.219 212.57 167.008 212.57 167.83V248.28C212.57 249.102 212.243 249.891 211.662 250.472C211.081 251.053 210.292 251.38 209.47 251.38V251.38Z" fill="black"/>
<path d="M216.77 226.953C217.424 222.924 214.689 219.128 210.66 218.474C206.631 217.82 202.835 220.556 202.181 224.585C201.527 228.613 204.263 232.409 208.292 233.063C212.32 233.717 216.116 230.982 216.77 226.953Z" fill="#120F5D"/>
<path opacity="0.6" d="M306.777 176.954C307.431 172.926 304.695 169.13 300.666 168.476C296.638 167.822 292.842 170.558 292.188 174.586C291.534 178.615 294.269 182.411 298.298 183.065C302.327 183.719 306.123 180.983 306.777 176.954Z" fill="white"/>
<path opacity="0.6" d="M299.47 181.15C298.404 181.15 297.362 180.834 296.476 180.242C295.589 179.649 294.898 178.808 294.49 177.823C294.082 176.838 293.976 175.754 294.184 174.708C294.392 173.663 294.905 172.702 295.659 171.949C296.413 171.195 297.373 170.682 298.419 170.474C299.464 170.266 300.548 170.372 301.533 170.78C302.518 171.188 303.359 171.879 303.952 172.765C304.544 173.652 304.86 174.694 304.86 175.76C304.857 177.189 304.289 178.558 303.278 179.568C302.268 180.579 300.899 181.147 299.47 181.15V181.15Z" fill="white"/>
<path opacity="0.6" d="M276.775 236.95C277.429 232.922 274.693 229.126 270.664 228.472C266.636 227.818 262.84 230.554 262.186 234.582C261.532 238.611 264.267 242.407 268.296 243.061C272.325 243.715 276.121 240.979 276.775 236.95Z" fill="white"/>
<path opacity="0.6" d="M269.47 241.15C268.404 241.15 267.362 240.834 266.476 240.242C265.589 239.649 264.898 238.808 264.49 237.823C264.082 236.838 263.976 235.754 264.184 234.708C264.392 233.663 264.905 232.702 265.659 231.949C266.413 231.195 267.373 230.682 268.419 230.474C269.464 230.266 270.548 230.372 271.533 230.78C272.518 231.188 273.359 231.879 273.952 232.765C274.544 233.652 274.86 234.694 274.86 235.76C274.857 237.189 274.289 238.558 273.278 239.568C272.268 240.579 270.899 241.147 269.47 241.15Z" fill="white"/>
<path opacity="0.6" d="M246.775 196.954C247.429 192.925 244.693 189.129 240.664 188.475C236.636 187.821 232.84 190.557 232.186 194.586C231.532 198.614 234.267 202.41 238.296 203.064C242.325 203.718 246.121 200.982 246.775 196.954Z" fill="white"/>
<path opacity="0.6" d="M239.47 201.15C238.404 201.15 237.362 200.834 236.476 200.242C235.589 199.649 234.898 198.808 234.49 197.823C234.082 196.838 233.976 195.754 234.184 194.708C234.392 193.663 234.905 192.702 235.659 191.949C236.413 191.195 237.373 190.682 238.419 190.474C239.464 190.266 240.548 190.372 241.533 190.78C242.518 191.188 243.359 191.879 243.952 192.765C244.544 193.652 244.86 194.694 244.86 195.76C244.857 197.189 244.289 198.558 243.278 199.568C242.268 200.579 240.899 201.147 239.47 201.15V201.15Z" fill="white"/>
<path opacity="0.6" d="M216.77 226.953C217.424 222.924 214.689 219.128 210.66 218.474C206.631 217.82 202.835 220.556 202.181 224.585C201.527 228.613 204.263 232.409 208.292 233.063C212.32 233.717 216.116 230.982 216.77 226.953Z" fill="white"/>
<path opacity="0.6" d="M209.47 231.15C208.404 231.15 207.362 230.834 206.476 230.242C205.589 229.649 204.898 228.808 204.49 227.823C204.082 226.838 203.976 225.754 204.184 224.708C204.392 223.663 204.905 222.702 205.659 221.949C206.413 221.195 207.373 220.682 208.419 220.474C209.464 220.266 210.548 220.372 211.533 220.78C212.518 221.188 213.359 221.879 213.952 222.765C214.544 223.652 214.86 224.694 214.86 225.76C214.857 227.189 214.289 228.558 213.278 229.568C212.268 230.579 210.899 231.147 209.47 231.15V231.15Z" fill="white"/>
<path d="M317.8 271.56H191.14C189.621 271.56 188.39 272.791 188.39 274.31V392.61C188.39 394.129 189.621 395.36 191.14 395.36H317.8C319.319 395.36 320.55 394.129 320.55 392.61V274.31C320.55 272.791 319.319 271.56 317.8 271.56Z" fill="#120F5D"/>
<path opacity="0.3" d="M317.8 271.56H191.14C189.621 271.56 188.39 272.791 188.39 274.31V392.61C188.39 394.129 189.621 395.36 191.14 395.36H317.8C319.319 395.36 320.55 394.129 320.55 392.61V274.31C320.55 272.791 319.319 271.56 317.8 271.56Z" fill="black"/>
<path opacity="0.6" d="M242.55 351.81V362.45L248 363C248.726 366.502 250.111 369.834 252.08 372.82L248.56 377.08L256.09 384.6L260.34 381.08C263.328 383.054 266.664 384.442 270.17 385.17L270.68 390.65H281.33L281.84 385.17C285.346 384.442 288.682 383.054 291.67 381.08L295.92 384.6L303.45 377.08L300 372.79C301.968 369.803 303.356 366.471 304.09 362.97L309.57 362.45V351.81L304.09 351.29C303.356 347.786 301.969 344.451 300 341.46L303.52 337.21L296 329.68L291.75 333.2C288.76 331.233 285.424 329.849 281.92 329.12L281.41 323.64H270.71L270.2 329.12C266.696 329.849 263.36 331.233 260.37 333.2L256.12 329.68L248.59 337.21L252.11 341.46C250.142 344.451 248.754 347.786 248.02 351.29L242.55 351.81ZM276 342.72C278.85 342.72 281.636 343.565 284.006 345.149C286.376 346.732 288.222 348.982 289.313 351.616C290.404 354.249 290.689 357.146 290.133 359.941C289.577 362.737 288.205 365.304 286.189 367.319C284.174 369.335 281.607 370.707 278.811 371.263C276.016 371.819 273.119 371.534 270.486 370.443C267.852 369.352 265.602 367.505 264.019 365.136C262.435 362.766 261.59 359.98 261.59 357.13C261.59 355.238 261.963 353.364 262.687 351.616C263.411 349.867 264.473 348.279 265.811 346.941C267.149 345.602 268.737 344.541 270.486 343.817C272.234 343.093 274.108 342.72 276 342.72Z" fill="white"/>
<path opacity="0.4" d="M199.41 321.25V329.59L203.71 329.99C204.278 332.737 205.364 335.35 206.91 337.69L204.15 341L210.05 346.89L213.38 344.13C215.721 345.676 218.334 346.765 221.08 347.34L221.49 351.63H229.83L230.23 347.34C232.977 346.767 235.59 345.678 237.93 344.13L241.26 346.89L247.16 341L244.4 337.66C245.95 335.321 247.039 332.707 247.61 329.96L251.9 329.56V321.22L247.61 320.81C247.035 318.064 245.946 315.451 244.4 313.11L247.16 309.78L241.26 303.88L237.93 306.64C235.587 305.099 232.975 304.014 230.23 303.44L229.83 299.14H221.49L221.08 303.44C218.336 304.016 215.724 305.101 213.38 306.64L210.05 303.88L204.15 309.78L206.91 313.11C205.367 315.452 204.281 318.064 203.71 320.81L199.41 321.25ZM225.66 314.13C227.893 314.13 230.076 314.792 231.932 316.033C233.789 317.273 235.236 319.037 236.091 321.1C236.945 323.162 237.169 325.433 236.733 327.623C236.297 329.813 235.222 331.824 233.643 333.403C232.064 334.982 230.053 336.057 227.863 336.493C225.673 336.929 223.403 336.705 221.34 335.851C219.277 334.996 217.513 333.549 216.273 331.692C215.032 329.836 214.37 327.653 214.37 325.42C214.37 322.426 215.56 319.554 217.677 317.437C219.794 315.319 222.666 314.13 225.66 314.13V314.13Z" fill="white"/>
<path opacity="0.2" d="M245.92 295.5V302.5L249.53 302.84C250.015 305.146 250.928 307.34 252.22 309.31L249.9 312.1L254.9 317.1L257.69 314.78C259.66 316.072 261.854 316.985 264.16 317.47L264.5 321.08H271.5L271.84 317.47C274.146 316.986 276.341 316.074 278.31 314.78L281.11 317.1L286.06 312.1L283.74 309.31C285.032 307.34 285.945 305.146 286.43 302.84L290.04 302.5V295.5L286.43 295.16C285.947 292.854 285.034 290.659 283.74 288.69L286.06 285.89L281.11 280.94L278.31 283.26C276.345 281.958 274.149 281.045 271.84 280.57L271.5 276.96H264.5L264.16 280.57C261.852 281.047 259.656 281.96 257.69 283.26L254.9 280.94L249.9 285.89L252.22 288.69C250.926 290.659 250.014 292.854 249.53 295.16L245.92 295.5ZM267.97 289.5C269.847 289.5 271.683 290.057 273.243 291.1C274.804 292.143 276.021 293.626 276.739 295.361C277.457 297.095 277.644 299.004 277.277 300.845C276.91 302.686 276.005 304.377 274.677 305.704C273.349 307.031 271.657 307.934 269.815 308.299C267.974 308.664 266.065 308.475 264.331 307.755C262.598 307.035 261.116 305.817 260.075 304.255C259.033 302.693 258.478 300.857 258.48 298.98C258.484 297.734 258.733 296.5 259.214 295.351C259.694 294.201 260.397 293.157 261.281 292.278C262.165 291.4 263.213 290.704 264.366 290.231C265.519 289.758 266.754 289.516 268 289.52L267.97 289.5Z" fill="white"/>
<path opacity="0.6" d="M233.69 323.26L227.81 317.38L219.78 319.54L217.62 327.57L223.5 333.45L231.54 331.3L233.69 323.26Z" fill="white"/>
<path opacity="0.8" d="M277.33 346.91L267.83 350.89L266.54 361.11L274.74 367.35L284.24 363.36L285.54 353.14L277.33 346.91Z" fill="white"/>
<path opacity="0.4" d="M273.87 302.41V295.59L267.97 292.18L262.06 295.59V302.41L267.97 305.82L273.87 302.41Z" fill="white"/>
<path d="M411.19 237.61L421.83 246.25C421.83 246.25 424.43 246.31 425.25 247.17C426.07 248.03 429.25 254.41 428.76 255.28C428.27 256.15 423.07 257.87 421.96 256.84C420.85 255.81 418.96 249.9 418.96 249.27L405.36 240.15L411.19 237.61Z" fill="#B97964"/>
<path d="M417.09 241.41L414.71 246.6C414.71 246.6 400.08 239.75 396.91 235.76C396.1 234.76 394.98 233.09 393.77 231.22C391.77 228.13 389.53 224.41 387.97 221.8C386.81 219.8 386.03 218.52 386.03 218.52L394.31 205.46C396.12 206.85 401.66 229.17 402.65 230.37C403.64 231.57 417.09 241.41 417.09 241.41Z" fill="#263238"/>
<path opacity="0.2" d="M393.77 231.22C391.77 228.13 389.53 224.41 387.97 221.8L391.82 212.3C391.82 212.3 393.91 223.2 393.77 231.22Z" fill="black"/>
<path d="M326.33 188.05L315.11 180.05C315.11 180.05 313.77 177.82 312.62 177.53C311.47 177.24 304.37 177.68 303.83 178.53C303.29 179.38 304.4 184.76 305.83 185.21C307.26 185.66 313.36 184.41 313.89 184.07L325.28 191.94L326.33 188.05Z" fill="#B97964"/>
<path d="M414.85 411.79L408.57 412.9L406 404.34L403.65 396.49L410.89 393.96L412.99 403.4L414.85 411.79Z" fill="#B97964"/>
<path opacity="0.2" d="M413.02 403.59L406.03 404.51L403.66 396.57L410.89 394L413.02 403.59Z" fill="black"/>
<path d="M372.94 411.95H366.57L365.52 403.4L364.57 395.42L372.14 394.26L372.57 403.64L372.94 411.95Z" fill="#B97964"/>
<path opacity="0.2" d="M372.57 404.21L365.52 403.9L364.57 395.66L372.14 394.39L372.57 404.21Z" fill="black"/>
<path d="M413.61 396.73L403.29 398.55C392.88 372.6 385.47 350.94 380.24 332.97C377.42 323.27 375.19 314.65 373.51 306.97L373.94 335.21V399H363.53C338.04 278 356.11 249.87 356.11 249.87L386.6 244.77C387.808 250.421 388.663 256.142 389.16 261.9L390.53 272L402.46 333.57L413.61 396.73Z" fill="#120F5D"/>
<path d="M401.68 397.27L414.48 393.03L414.3 398.47L403.72 401.85L401.68 397.27Z" fill="#120F5D"/>
<path opacity="0.6" d="M401.68 397.27L414.48 393.03L414.3 398.47L403.72 401.85L401.68 397.27Z" fill="white"/>
<path d="M362.17 397.86L375.51 395.91L374.39 401.24L363.38 402.73L362.17 397.86Z" fill="#120F5D"/>
<path opacity="0.6" d="M362.17 397.86L375.51 395.91L374.39 401.24L363.38 402.73L362.17 397.86Z" fill="white"/>
<path opacity="0.2" d="M381.65 337.72C381.17 336.11 380.65 334.53 380.2 332.97C377.65 324.17 375.94 316.25 373.94 309.15L372.94 296.07C372.94 296.07 379.46 281.7 377.02 271.58C377.25 272.16 381.56 283.18 379.87 294.18C379.475 308.717 380.069 323.264 381.65 337.72V337.72Z" fill="black"/>
<path d="M382.52 192.33C382.439 192.39 382.352 192.44 382.26 192.48C380.976 193.21 379.564 193.685 378.1 193.88C373.85 194.29 371.1 193.36 369.5 191.25C367.29 188.11 367.29 183.06 368.43 177.12C368.803 174.74 369.553 172.435 370.65 170.29C370.65 170.29 370.65 170.21 370.65 170.19C370.65 170.17 370.73 170.02 370.78 169.95C371.452 168.749 372.413 167.735 373.576 167C374.739 166.265 376.067 165.832 377.44 165.74C378.635 165.632 379.839 165.652 381.03 165.8C392.76 167.2 392.35 186.82 382.52 192.33Z" fill="#B97964"/>
<path opacity="0.2" d="M382.26 192.48C380.973 193.158 379.567 193.579 378.12 193.72C373.87 194.13 371.12 193.06 369.54 190.93C371.932 191.861 374.562 191.984 377.03 191.28C377.936 191.07 378.877 191.068 379.784 191.276C380.69 191.484 381.537 191.896 382.26 192.48V192.48Z" fill="black"/>
<path d="M383.13 202C384.18 205.27 379.99 207.05 379.99 207.05C372.62 204.73 370.94 201.05 370.94 201.05C376.54 197.39 373.94 188.85 373.94 188.85L375.2 189.33L383.78 190.15C383.78 190.15 381.89 194.86 381.68 195.92C380.65 201.54 383.13 202 383.13 202Z" fill="#B97964"/>
<path d="M370.65 170.21C370.65 170.21 368.94 178.32 376.24 182.85C376.24 182.85 378.47 191.79 383.36 192.55C390.03 193.55 397.17 184.84 396.11 174.84C394.74 161.87 375.82 158.37 370.65 170.21Z" fill="#263238"/>
<path d="M372.62 180C372.79 178.72 374.09 176.71 376.04 177.26C377.99 177.81 378.54 183.04 373.34 183.52C372.59 183.58 372.26 182.65 372.62 180Z" fill="#B97964"/>
<path d="M365.89 410.74H373C373.147 410.743 373.288 410.795 373.402 410.887C373.517 410.979 373.597 411.107 373.63 411.25L375.09 417.85C375.149 418.132 375.094 418.427 374.937 418.669C374.779 418.911 374.532 419.08 374.25 419.14C374.17 419.15 374.09 419.15 374.01 419.14C371.09 419.09 370.86 418.91 367.2 418.91C364.95 418.91 358.2 419.15 355.05 419.15C351.9 419.15 351.53 416.08 352.8 415.79C358.51 414.55 362.8 412.79 364.64 411.18C364.984 410.878 365.432 410.72 365.89 410.74Z" fill="#263238"/>
<path d="M363.44 412C362.938 412.04 362.438 411.909 362.02 411.63C361.879 411.519 361.77 411.373 361.705 411.206C361.64 411.039 361.621 410.857 361.65 410.68C361.649 410.578 361.676 410.478 361.729 410.392C361.782 410.305 361.859 410.235 361.95 410.19C362.77 409.77 365.17 411.19 365.43 411.41C365.46 411.426 365.485 411.451 365.501 411.481C365.517 411.511 365.524 411.546 365.52 411.58C365.513 411.616 365.497 411.649 365.472 411.676C365.447 411.702 365.415 411.721 365.38 411.73C364.745 411.89 364.095 411.981 363.44 412V412ZM362.34 410.47C362.265 410.45 362.185 410.45 362.11 410.47C362.11 410.47 362.01 410.54 362 410.68C361.985 410.797 362 410.915 362.042 411.025C362.083 411.135 362.152 411.233 362.24 411.31C363.07 411.69 364.014 411.74 364.88 411.45C364.101 410.978 363.239 410.659 362.34 410.51V410.47Z" fill="#120F5D"/>
<path d="M365.34 411.78H365.25C364.49 411.37 363.01 409.78 363.16 408.95C363.186 408.819 363.257 408.7 363.361 408.616C363.466 408.532 363.596 408.487 363.73 408.49C363.862 408.477 363.996 408.491 364.123 408.53C364.25 408.57 364.368 408.634 364.47 408.72C365.33 409.41 365.47 411.54 365.47 411.65C365.467 411.682 365.458 411.712 365.442 411.74C365.427 411.767 365.406 411.791 365.38 411.81C365.365 411.802 365.351 411.792 365.34 411.78V411.78ZM363.85 408.78H363.76C363.54 408.78 363.52 408.92 363.51 408.96C363.41 409.44 364.36 410.68 365.12 411.25C365.067 410.406 364.76 409.597 364.24 408.93C364.132 408.833 363.995 408.777 363.85 408.77V408.78Z" fill="#120F5D"/>
<path d="M408.33 410.74H415.44C415.588 410.739 415.731 410.79 415.846 410.883C415.961 410.976 416.04 411.105 416.07 411.25L417.54 417.85C417.569 417.991 417.57 418.135 417.543 418.276C417.516 418.417 417.462 418.552 417.383 418.672C417.304 418.791 417.202 418.895 417.083 418.975C416.964 419.055 416.831 419.111 416.69 419.14C416.61 419.15 416.53 419.15 416.45 419.14C413.54 419.09 413.3 418.91 409.65 418.91C407.4 418.91 400.65 419.15 397.49 419.15C394.33 419.15 393.98 416.08 395.25 415.79C400.96 414.55 405.25 412.79 407.08 411.18C407.425 410.88 407.872 410.722 408.33 410.74V410.74Z" fill="#263238"/>
<path d="M405.88 412C405.378 412.041 404.878 411.911 404.46 411.63C404.319 411.519 404.21 411.373 404.145 411.206C404.08 411.039 404.061 410.857 404.09 410.68C404.088 410.578 404.115 410.478 404.168 410.391C404.221 410.304 404.298 410.234 404.39 410.19C405.21 409.77 407.6 411.19 407.87 411.41C407.9 411.426 407.923 411.451 407.938 411.482C407.952 411.513 407.956 411.547 407.95 411.58C407.945 411.615 407.931 411.648 407.908 411.675C407.884 411.701 407.854 411.721 407.82 411.73C407.185 411.889 406.534 411.98 405.88 412ZM404.78 410.47C404.705 410.45 404.625 410.45 404.55 410.47C404.5 410.47 404.45 410.54 404.44 410.68C404.423 410.796 404.436 410.914 404.476 411.024C404.516 411.134 404.583 411.232 404.67 411.31C405.5 411.69 406.444 411.74 407.31 411.45C406.535 410.977 405.676 410.658 404.78 410.51V410.47Z" fill="#120F5D"/>
<path d="M407.77 411.78H407.69C406.92 411.37 405.44 409.78 405.6 408.95C405.626 408.82 405.695 408.704 405.797 408.62C405.9 408.536 406.028 408.49 406.16 408.49C406.294 408.476 406.43 408.489 406.559 408.528C406.687 408.568 406.807 408.633 406.91 408.72C407.76 409.41 407.91 411.54 407.91 411.65C407.909 411.681 407.902 411.711 407.888 411.739C407.874 411.767 407.854 411.791 407.83 411.81C407.808 411.804 407.788 411.794 407.77 411.78V411.78ZM406.28 408.78H406.2C405.97 408.78 405.95 408.92 405.94 408.96C405.85 409.44 406.79 410.68 407.56 411.25C407.507 410.406 407.2 409.597 406.68 408.93C406.569 408.832 406.428 408.776 406.28 408.77V408.78Z" fill="#120F5D"/>
<path d="M356.11 249.93C356.11 249.93 350.29 214.49 360.29 198.59C360.29 198.59 380.29 197.35 394.29 205.46C394.29 205.46 388.48 221.24 387.62 249.93H356.11Z" fill="#263238"/>
<path opacity="0.2" d="M354.29 222.81C353.86 218 355.29 213.37 355.49 209.29C357.991 207.081 360.199 204.56 362.06 201.79C362.06 201.79 363.88 216.15 354.29 222.81Z" fill="black"/>
<path d="M362.76 198.52C362.76 198.52 343 196.21 340 195C338.14 194.21 323.59 184.71 323.59 184.71L320.18 189.79C320.18 189.79 335.07 201.79 337.58 203.19C343.48 206.43 356.75 211 356.75 211C356.75 211 364.75 205.39 362.76 198.52Z" fill="#263238"/>
<path d="M391.82 168.45C391.82 168.45 398.61 162.67 405.35 166.3C412.09 169.93 404.24 183.92 406.21 188.21C408.18 192.5 412.45 192.21 407.06 195C401.67 197.79 406.89 200.16 406.89 200.16C406.89 200.16 402.07 201.8 401.67 197.82C401.27 193.84 399.53 190.57 397.97 189.89C396.41 189.21 400.62 181.67 399.16 177.94C397.7 174.21 393.47 174.52 393.47 174.52L391.82 168.45Z" fill="#263238"/>
<path d="M381.06 165.8C381.06 165.8 372.5 160.44 368.47 164.25C362.25 170.14 371.12 178.6 380.47 182.61L381.06 165.8Z" fill="#263238"/>
<path d="M199.53 274.19L129.39 196.09C130.701 193.243 131.203 190.091 130.842 186.978C130.481 183.864 129.27 180.911 127.342 178.44C125.414 175.969 122.844 174.076 119.912 172.968C116.98 171.861 113.8 171.581 110.72 172.16C110.506 172.195 110.305 172.287 110.138 172.426C109.972 172.566 109.847 172.748 109.776 172.953C109.705 173.159 109.692 173.379 109.736 173.592C109.781 173.804 109.882 174.001 110.03 174.16L119.23 184.41C119.407 184.606 119.529 184.845 119.584 185.103C119.638 185.361 119.623 185.63 119.54 185.88L117.54 191.99C117.457 192.24 117.31 192.464 117.113 192.639C116.917 192.815 116.678 192.936 116.42 192.99L110.13 194.32C109.871 194.374 109.603 194.358 109.352 194.276C109.101 194.193 108.876 194.047 108.7 193.85L99.5 183.61C99.3549 183.462 99.174 183.355 98.975 183.298C98.776 183.241 98.5656 183.236 98.3643 183.284C98.163 183.333 97.9776 183.432 97.8261 183.574C97.6747 183.715 97.5623 183.893 97.5 184.09C96.5946 187.09 96.5322 190.28 97.3196 193.313C98.107 196.346 99.7139 199.103 101.964 201.283C104.215 203.463 107.021 204.982 110.077 205.673C113.133 206.364 116.321 206.2 119.29 205.2L189.43 283.3C188.12 286.146 187.618 289.297 187.979 292.409C188.34 295.521 189.549 298.474 191.476 300.945C193.402 303.416 195.971 305.309 198.902 306.417C201.832 307.526 205.011 307.807 208.09 307.23C208.305 307.197 208.507 307.106 208.675 306.967C208.842 306.828 208.969 306.646 209.041 306.44C209.113 306.235 209.127 306.014 209.083 305.8C209.039 305.587 208.938 305.39 208.79 305.23L199.56 295C199.383 294.802 199.261 294.561 199.206 294.302C199.152 294.042 199.167 293.772 199.25 293.52L201.25 287.42C201.331 287.169 201.478 286.944 201.675 286.769C201.872 286.593 202.111 286.473 202.37 286.42L208.65 285.09C208.909 285.035 209.177 285.05 209.428 285.133C209.679 285.215 209.904 285.363 210.08 285.56L219.29 295.8C219.434 295.951 219.615 296.061 219.814 296.119C220.014 296.178 220.226 296.184 220.428 296.135C220.63 296.086 220.817 295.986 220.968 295.843C221.119 295.7 221.23 295.519 221.29 295.32C222.192 292.321 222.251 289.132 221.462 286.101C220.674 283.07 219.067 280.315 216.818 278.136C214.568 275.957 211.763 274.438 208.709 273.745C205.655 273.053 202.469 273.214 199.5 274.21L199.53 274.19Z" fill="#120F5D"/>
<path opacity="0.7" d="M199.53 274.19L129.39 196.09C130.701 193.243 131.203 190.091 130.842 186.978C130.481 183.864 129.27 180.911 127.342 178.44C125.414 175.969 122.844 174.076 119.912 172.968C116.98 171.861 113.8 171.581 110.72 172.16C110.506 172.195 110.305 172.287 110.138 172.426C109.972 172.566 109.847 172.748 109.776 172.953C109.705 173.159 109.692 173.379 109.736 173.592C109.781 173.804 109.882 174.001 110.03 174.16L119.23 184.41C119.407 184.606 119.529 184.845 119.584 185.103C119.638 185.361 119.623 185.63 119.54 185.88L117.54 191.99C117.457 192.24 117.31 192.464 117.113 192.639C116.917 192.815 116.678 192.936 116.42 192.99L110.13 194.32C109.871 194.374 109.603 194.358 109.352 194.276C109.101 194.193 108.876 194.047 108.7 193.85L99.5 183.61C99.3549 183.462 99.174 183.355 98.975 183.298C98.776 183.241 98.5656 183.236 98.3643 183.284C98.163 183.333 97.9776 183.432 97.8261 183.574C97.6747 183.715 97.5623 183.893 97.5 184.09C96.5946 187.09 96.5322 190.28 97.3196 193.313C98.107 196.346 99.7139 199.103 101.964 201.283C104.215 203.463 107.021 204.982 110.077 205.673C113.133 206.364 116.321 206.2 119.29 205.2L189.43 283.3C188.12 286.146 187.618 289.297 187.979 292.409C188.34 295.521 189.549 298.474 191.476 300.945C193.402 303.416 195.971 305.309 198.902 306.417C201.832 307.526 205.011 307.807 208.09 307.23C208.305 307.197 208.507 307.106 208.675 306.967C208.842 306.828 208.969 306.646 209.041 306.44C209.113 306.235 209.127 306.014 209.083 305.8C209.039 305.587 208.938 305.39 208.79 305.23L199.56 295C199.383 294.802 199.261 294.561 199.206 294.302C199.152 294.042 199.167 293.772 199.25 293.52L201.25 287.42C201.331 287.169 201.478 286.944 201.675 286.769C201.872 286.593 202.111 286.473 202.37 286.42L208.65 285.09C208.909 285.035 209.177 285.05 209.428 285.133C209.679 285.215 209.904 285.363 210.08 285.56L219.29 295.8C219.434 295.951 219.615 296.061 219.814 296.119C220.014 296.178 220.226 296.184 220.428 296.135C220.63 296.086 220.817 295.986 220.968 295.843C221.119 295.7 221.23 295.519 221.29 295.32C222.192 292.321 222.251 289.132 221.462 286.101C220.674 283.07 219.067 280.315 216.818 278.136C214.568 275.957 211.763 274.438 208.709 273.745C205.655 273.053 202.469 273.214 199.5 274.21L199.53 274.19Z" fill="white"/>
<path d="M120.29 182.16C120.29 182.16 99.46 184.89 96.76 188.6C94.06 192.31 93.91 195.76 106.22 199.3L109.83 196.67C109.83 196.67 104.72 194.72 105.32 193.52C105.92 192.32 120.32 192.77 120.32 192.77L120.29 182.16Z" fill="#E4897B"/>
<path d="M128.11 181.89L125.21 192L120.34 192.74L110.14 194.29L109.84 190.21L109.25 182.15C109.25 182.15 119.27 180.14 128.11 181.89Z" fill="#120F5D"/>
<path opacity="0.2" d="M123 186.17L120.37 192.75L110.17 194.3L109.87 190.22C115 186.19 123 186.17 123 186.17Z" fill="black"/>
<path d="M120.97 411.73L129.07 412.58L129.49 407.88L130.59 395.09L122.48 394.23L121.25 408.36L120.97 411.73Z" fill="#E4897B"/>
<path d="M80.48 410.7H88.34L88.42 408.92V408.7L88.83 397.3V397.07L89 392.7H81.13L80.48 410.7Z" fill="#E4897B"/>
<path opacity="0.2" d="M122.48 394.23L121.25 408.36L129.49 407.88L130.59 395.09L122.48 394.23Z" fill="black"/>
<path opacity="0.2" d="M80.53 409.7H80.55L88.42 408.7L88.83 397.7L80.94 398.33L80.55 409.36L80.53 409.7Z" fill="black"/>
<path d="M89.43 410.23H79.88C79.7232 410.229 79.5708 410.282 79.4487 410.381C79.3266 410.479 79.2423 410.617 79.21 410.77L77.66 417.77C77.5979 418.071 77.6579 418.384 77.8266 418.641C77.9953 418.898 78.2591 419.077 78.56 419.14C78.6431 419.15 78.727 419.15 78.81 419.14C81.9 419.09 84.15 418.9 88.03 418.9C90.42 418.9 97.63 419.15 100.93 419.15C104.23 419.15 104.66 415.89 103.31 415.59C97.25 414.27 92.69 412.44 90.75 410.7C90.387 410.379 89.9141 410.211 89.43 410.23V410.23Z" fill="#263238"/>
<path d="M129.93 410H120.38C120.223 409.999 120.071 410.052 119.949 410.151C119.827 410.249 119.742 410.387 119.71 410.54L118.16 417.54C118.098 417.841 118.158 418.154 118.327 418.411C118.495 418.668 118.759 418.847 119.06 418.91C119.143 418.92 119.227 418.92 119.31 418.91C122.4 418.86 124.65 418.67 128.53 418.67C130.92 418.67 138.13 418.92 141.43 418.92C144.73 418.92 145.16 415.66 143.81 415.36C137.75 414.04 133.19 412.21 131.25 410.47C130.887 410.149 130.414 409.981 129.93 410V410Z" fill="#263238"/>
<path d="M131.34 406.7H119.81C119.81 406.7 116.5 307 104 273.5C105.53 335.83 90.84 407.7 90.84 407.7H79.48C79.48 407.7 84.69 351.43 84.69 326.82C84.69 283.21 72.69 261.92 84.37 233.7H126.09C136.31 295.25 140.24 338.7 131.34 406.7Z" fill="#263238"/>
<path d="M132.63 403.45L132.07 406.7H118.44V403.7L132.63 403.45Z" fill="#120F5D"/>
<path d="M92.1801 404.7L90.8701 407.7H79.4401L78.6901 404.7H92.1801Z" fill="#120F5D"/>
<path d="M162 185.55C161.69 185.8 161.38 186.03 161.06 186.24C159.227 187.475 157.06 188.121 154.85 188.09C154.291 188.084 153.733 188.037 153.18 187.95C151.054 187.631 149.089 186.628 147.585 185.092C146.08 183.556 145.116 181.572 144.84 179.44C144.05 173.9 146.84 170.27 151.14 163.76C152.112 162.222 153.462 160.959 155.061 160.09C156.66 159.221 158.454 158.776 160.274 158.797C162.093 158.818 163.877 159.305 165.455 160.21C167.033 161.116 168.353 162.41 169.29 163.97C173.6 171 167.55 180.93 162 185.55Z" fill="#E4897B"/>
<path opacity="0.2" d="M154.88 188.09C154.321 188.084 153.763 188.037 153.21 187.95C151.752 187.731 150.362 187.189 149.141 186.363C147.919 185.538 146.897 184.451 146.15 183.18C146.984 182.636 147.885 182.203 148.83 181.89C151.4 183.333 153.5 185.486 154.88 188.09V188.09Z" fill="black"/>
<path d="M136.31 186.87C137.31 191.95 145.62 196.5 145.62 196.5C145.62 196.5 151.28 198.7 151.38 196.5C148.94 193.99 148.56 191.7 149.23 189.63C149.691 188.381 150.395 187.236 151.3 186.26C151.78 185.699 152.294 185.168 152.84 184.67L148.64 170.86C146.48 176.32 141.77 185.81 136.31 186.87Z" fill="#E4897B"/>
<path d="M172.79 164.92C171.94 160.18 169.54 159.92 169.54 159.92C169.31 156.14 160.39 152.32 154.54 153.55C148.69 154.78 144.72 159.93 143.12 164.67C140.8 171.58 142.2 180.15 142.2 180.15C146.93 183.75 151.85 184.41 153.34 181.75C154.83 179.09 158.53 178.17 158.53 178.17C160.78 180.12 164.34 178.17 164.34 178.17C164.34 178.17 168.34 176.78 169.07 172.84C169.8 168.9 173.5 168.92 172.79 164.92Z" fill="#263238"/>
<path d="M158.37 176C158.047 176.674 157.879 177.412 157.879 178.16C157.879 178.908 158.047 179.646 158.37 180.32C159.24 181.8 161.37 180.63 162.61 178.61C163.67 176.82 164.55 173.84 162.96 173.14C161.37 172.44 159.17 174 158.37 176Z" fill="#E4897B"/>
<path d="M159.39 153.54C168.16 150.93 175.22 165.32 174.88 172.95C174.59 179.15 168.08 178.4 168.08 178.4C168.08 178.4 171.68 178.16 171.33 173.81C171.33 173.81 169.77 179.14 166.28 175.64C162.79 172.14 166.93 163.8 166.93 163.8L159.39 153.54Z" fill="#263238"/>
<path opacity="0.2" d="M103.07 314.25C102.092 304.588 100.62 294.982 98.66 285.47C86.85 270.63 93.3 256.93 93.3 256.93C94.88 266.46 104 273.5 104 273.5C104.36 286.91 103.94 300.76 103.07 314.25Z" fill="black"/>
<path d="M136.29 184.59C136.29 184.59 138.82 182.71 143.51 185.48C146.445 187.38 148.64 190.228 149.73 193.55L136.29 184.59Z" fill="#120F5D"/>
<path d="M130.59 253.38C130.59 253.38 130.59 229.05 156.03 199.6C156.03 199.6 144.61 183.66 128.11 181.89C128.11 181.89 97.6501 192.34 81.0601 236.89L130.59 253.38Z" fill="#120F5D"/>
<path opacity="0.6" d="M156 199.6C153.333 202.72 150.917 205.773 148.75 208.76C144.955 213.984 141.61 219.521 138.75 225.31C130.57 241.97 130.57 253.38 130.57 253.38L81.03 236.88C97.62 192.34 128.08 181.88 128.08 181.88C144.61 183.66 156 199.6 156 199.6Z" fill="white"/>
<path d="M130.9 249.89C130.79 250.71 130.72 251.39 130.68 251.89L81.73 235.12C81.97 234.49 82.22 233.87 82.47 233.26L130.9 249.89Z" fill="#120F5D"/>
<path d="M131.76 244.94C131.61 245.65 131.47 246.31 131.36 246.94C114.36 240.39 95.09 233.08 84.16 229.3C84.43 228.68 84.71 228.08 84.99 227.48C97.18 231.67 118.28 239.73 131.76 244.94Z" fill="#120F5D"/>
<path d="M133.05 239.92C132.85 240.59 132.67 241.24 132.5 241.86C119 236 98.75 227.49 86.89 223.57C87.2 222.96 87.51 222.37 87.82 221.78C99.9 225.8 119.74 234.15 133.05 239.92Z" fill="#120F5D"/>
<path d="M134.72 234.79C134.49 235.45 134.26 236.09 134.05 236.71C120.91 230.37 102.05 221.71 89.9301 218C90.2701 217.4 90.6201 216.81 90.9301 216.24C103.31 220.06 121.75 228.53 134.72 234.79Z" fill="#120F5D"/>
<path d="M136.79 229.62C136.51 230.25 136.25 230.87 136.01 231.49C123.44 224.77 106.01 216.13 93.29 212.58C93.68 211.99 94.08 211.4 94.48 210.83C107.35 214.54 124.41 223 136.79 229.62Z" fill="#120F5D"/>
<path d="M139.23 224.39C138.92 225.01 138.62 225.63 138.33 226.24C126.51 219.24 110.43 210.78 97.04 207.3C97.48 206.71 97.92 206.14 98.37 205.57C111.86 209.23 127.59 217.52 139.23 224.39Z" fill="#120F5D"/>
<path d="M142 219.17C141.65 219.78 141.32 220.38 141 220.97C130 213.89 115.22 205.65 101.21 202.13C101.71 201.55 102.21 200.99 102.73 200.44C116.78 204.13 131.25 212.18 142 219.17Z" fill="#120F5D"/>
<path d="M145.16 214.06C144.79 214.62 144.44 215.18 144.09 215.74C134.01 208.65 120.39 200.74 105.96 197.11C106.53 196.55 107.09 196.01 107.65 195.49C121.88 199.29 135.22 207.08 145.16 214.06Z" fill="#120F5D"/>
<path d="M148.64 209L147.49 210.62C138.34 203.62 125.86 196.05 111.33 192.29C111.99 191.75 112.63 191.23 113.26 190.74C127.45 194.64 139.63 202.07 148.64 209Z" fill="#120F5D"/>
<path d="M152.45 203.92C152.03 204.45 151.62 204.97 151.22 205.5C141.364 197.233 129.879 191.134 117.51 187.6C118.28 187.08 119.02 186.6 119.73 186.17C131.709 189.851 142.833 195.885 152.45 203.92V203.92Z" fill="#120F5D"/>
<path d="M156 199.6L155.21 200.53C146.424 192.678 136.048 186.811 124.79 183.33C126.02 182.72 126.95 182.33 127.5 182.11C136.81 185.258 145.492 190.02 153.15 196.18V196.18C154.162 197.267 155.113 198.409 156 199.6V199.6Z" fill="#120F5D"/>
<path opacity="0.2" d="M148.78 208.76C144.985 213.984 141.64 219.521 138.78 225.31C138.717 221.525 139.514 217.776 141.111 214.344C142.708 210.913 145.064 207.889 148 205.5L148.78 208.76Z" fill="black"/>
<path d="M156 207.12V238L168 259.42L172.91 264.89C172.91 264.89 167.17 268.43 165.59 266.16C164.313 264.025 163.254 261.767 162.43 259.42C162.43 259.42 150.57 243.49 148.71 239.69C146.85 235.89 146.18 212.88 146.18 212.88L156 207.12Z" fill="#E4897B"/>
<path d="M156 199.6C157.88 204.8 157.87 222.52 157.87 222.52L144.54 223.69L143.48 216.69C143.799 212.142 145.386 207.773 148.06 204.08C148.992 202.815 150.182 201.762 151.55 200.99C152.919 200.218 154.435 199.744 156 199.6Z" fill="#120F5D"/>
</svg>
