<svg width="784" height="945" viewBox="0 0 784 945" fill="none" xmlns="http://www.w3.org/2000/svg">
<g clip-path="url(#clip0)">
<g filter="url(#filter0_d)">
<path fill-rule="evenodd" clip-rule="evenodd" d="M-29.9139 943.677L-13.5145 918.079C2.71177 891.591 35.3374 839.506 71.5991 806.099C108.034 773.583 148.105 759.746 191.812 764.589C235.692 770.321 283.208 794.733 320.855 768.443C358.329 741.264 385.933 663.382 428.601 662.888C471.096 661.504 528.655 737.508 571.15 736.125C613.818 735.63 641.423 657.749 672.663 598.547C704.077 540.234 739.126 500.602 783.007 506.334C826.714 511.177 879.251 561.385 905.52 586.489L931.788 611.593L886.944 381.21L866.908 388.128C846.873 395.047 806.802 408.883 766.731 422.72C726.66 436.557 686.589 450.394 646.518 464.231C606.447 478.068 566.376 491.904 526.305 505.741C486.234 519.578 446.163 533.415 406.092 547.252C366.022 561.089 325.951 574.925 285.88 588.762C245.809 602.599 205.738 616.436 165.667 630.273C125.596 644.11 85.525 657.946 45.4541 671.783C5.38316 685.62 -34.6878 699.457 -54.7232 706.375L-74.7587 713.294L-29.9139 943.677Z" fill="url(#paint0_linear)"/>
</g>
<path fill-rule="evenodd" clip-rule="evenodd" d="M756.029 -292.93L-205.673 39.1543L-77.0096 700.143L-69.5643 738.392L-32.1648 930.526L-15.7654 904.928C0.460846 878.44 33.0865 826.354 69.3482 792.948C105.783 760.432 145.854 746.595 189.561 751.438C201.375 752.981 213.452 755.878 225.53 758.776C258.311 766.64 291.093 774.504 318.604 755.292C333.438 744.534 346.725 725.831 360.012 707.128C380.292 678.582 400.572 650.035 426.35 649.737C447.598 649.045 472.611 667.7 497.625 686.355C522.638 705.01 547.652 723.665 568.899 722.973C603.271 722.575 627.867 671.959 652.463 621.343C658.401 609.125 664.338 596.907 670.412 585.396C701.826 527.083 736.875 487.451 780.756 493.183C824.463 498.026 877 548.234 903.269 573.338L929.537 598.442L892.138 406.307L884.693 368.058L756.029 -292.93Z" fill="#133166"/>
<path d="M174.885 225.607C189.437 315.629 153.556 412.821 74.9251 458.942C-3.35333 505.117 -125.086 500.116 -173.999 444.52C-223.264 388.87 -200.063 282.571 -153.722 194.874C-107.787 107.475 -38.7123 38.6766 28.291 45.8802C95.3473 52.7318 160.333 135.585 174.885 225.607Z" fill="#183975"/>
<path d="M164.211 228.242C177.9 312.928 144.146 404.358 70.1763 447.746C-3.46202 491.183 -117.979 486.479 -163.992 434.178C-210.337 381.827 -188.511 281.83 -144.917 199.33C-101.705 117.112 -36.725 52.3925 26.3065 59.169C89.3879 65.6144 150.521 143.556 164.211 228.242Z" fill="#1B3F7D"/>
<path d="M152.829 231.052C165.598 310.048 134.112 395.335 65.1124 435.807C-3.57817 476.327 -110.4 471.938 -153.322 423.151C-196.554 374.318 -176.194 281.039 -135.529 204.083C-95.2199 127.389 -34.6062 67.0178 24.1903 73.339C83.0332 79.3514 140.059 152.056 152.829 231.052Z" fill="#1F4486"/>
<path d="M141.357 233.884C153.2 307.145 123.999 386.24 60.0087 423.775C-3.69523 461.352 -102.763 457.283 -142.569 412.038C-182.661 366.749 -163.779 280.242 -126.067 208.873C-88.6841 137.746 -32.4707 81.7579 22.0573 87.6202C76.6285 93.1961 129.514 160.623 141.357 233.884Z" fill="#224A91"/>
<path d="M128.993 236.936C139.836 304.016 113.1 376.438 54.5082 410.805C-3.82075 445.212 -94.5295 441.486 -130.977 400.058C-167.687 358.591 -150.398 279.383 -115.867 214.035C-81.6388 148.91 -30.1684 97.6455 19.759 103.013C69.7257 108.119 118.149 169.856 128.993 236.936Z" fill="#28519A"/>
<path d="M116.832 239.938C126.693 300.938 102.379 366.796 49.0983 398.049C-3.94409 429.338 -86.4316 425.949 -119.576 388.276C-152.959 350.567 -137.237 278.538 -105.836 219.113C-74.7093 159.89 -27.9037 113.272 17.4985 118.153C62.9367 122.796 106.971 178.938 116.832 239.938Z" fill="#2C57A3"/>
<path d="M104.727 242.927C113.609 297.875 91.7078 357.199 43.7127 385.351C-4.0673 413.536 -78.3711 410.483 -108.227 376.548C-138.298 342.58 -124.136 277.697 -95.8501 224.168C-67.8118 170.821 -25.6499 128.827 15.2479 133.224C56.1781 137.406 95.8442 187.979 104.727 242.927Z" fill="#3260AF"/>
<path d="M641.047 128.715C574.99 160.332 491.979 154.719 438.622 104.595C385.304 54.7537 361.563 -40.1654 393.309 -90.4515C425.015 -141.021 512.169 -147.241 590.238 -131.418C667.984 -115.839 736.645 -78.2175 746.284 -24.9638C756.205 28.2509 707.103 97.0977 641.047 128.715Z" fill="#183975"/>
<path d="M636.597 121.088C574.456 150.831 496.365 145.551 446.171 98.398C396.014 51.5116 373.681 -37.7809 403.544 -85.0862C433.371 -132.658 515.359 -138.509 588.8 -123.624C661.938 -108.969 726.529 -73.5774 735.596 -23.4804C744.929 26.5799 698.738 91.3456 636.597 121.088Z" fill="#1B3F7D"/>
<path d="M631.852 112.956C573.887 140.701 501.043 135.775 454.221 91.7905C407.434 48.0544 386.601 -35.2386 414.458 -79.3654C442.281 -123.741 518.76 -129.199 587.267 -115.314C655.49 -101.643 715.741 -68.6299 724.199 -21.899C732.905 24.7978 689.818 85.212 631.852 112.956Z" fill="#1F4486"/>
<path d="M627.07 104.76C573.313 130.491 505.757 125.923 462.335 85.131C418.944 44.5699 399.623 -32.6763 425.458 -73.5997C451.261 -114.754 522.188 -119.816 585.722 -106.939C648.992 -94.2605 704.869 -63.6435 712.713 -20.3051C720.787 23.0017 680.828 79.03 627.07 104.76Z" fill="#224A91"/>
<path d="M621.916 95.9265C572.694 119.486 510.838 115.303 471.08 77.9535C431.35 40.8147 413.66 -29.914 437.315 -67.3846C460.941 -105.066 525.883 -109.701 584.056 -97.9105C641.989 -86.3021 693.151 -58.2684 700.333 -18.5866C707.726 21.0662 671.138 72.3672 621.916 95.9265Z" fill="#28519A"/>
<path d="M616.847 87.2382C572.086 108.662 515.836 104.859 479.681 70.8941C443.552 37.1213 427.465 -27.197 448.976 -61.2715C470.461 -95.538 529.518 -99.7526 582.418 -89.0307C635.1 -78.4744 681.625 -52.9816 688.156 -16.8962C694.879 19.1627 661.607 65.8142 616.847 87.2382Z" fill="#2C57A3"/>
<path d="M611.8 78.5893C571.48 97.8878 520.811 94.4618 488.243 63.8667C455.699 33.4445 441.207 -24.4927 460.585 -55.1866C479.938 -86.0535 533.135 -89.85 580.787 -80.1918C628.243 -70.6828 670.152 -47.7191 676.035 -15.2139C682.091 17.2676 652.12 59.2907 611.8 78.5893Z" fill="#3260AF"/>
<g filter="url(#filter1_d)">
<path d="M561.133 507.743C503.187 486.55 452.967 431.307 438.287 377.94C423.843 324.72 444.839 273.538 486.963 266.931C528.986 260.485 592.274 298.921 639.604 345.631C686.834 392.503 718.342 447.796 701.142 481.797C684.179 515.946 618.843 528.789 561.133 507.743Z" fill="#133167"/>
</g>
<path fill-rule="evenodd" clip-rule="evenodd" d="M633.052 511.394C633.726 510.418 635.467 510.452 636.445 511.127C637.422 511.801 637.667 513.14 636.994 514.116C636.32 515.092 634.552 515.957 633.575 515.282C632.598 514.607 632.378 512.37 633.052 511.394Z" fill="#1B3D79"/>
<path fill-rule="evenodd" clip-rule="evenodd" d="M624.897 505.763C625.571 504.787 627.313 504.821 628.29 505.495C629.267 506.17 629.513 507.509 628.839 508.485C628.165 509.46 626.397 510.326 625.42 509.651C624.443 508.976 624.224 506.739 624.897 505.763Z" fill="#1B3D79"/>
<path fill-rule="evenodd" clip-rule="evenodd" d="M616.744 500.132C617.418 499.156 619.159 499.19 620.136 499.865C621.113 500.54 621.359 501.878 620.685 502.854C620.011 503.83 618.244 504.695 617.267 504.02C616.29 503.346 616.07 501.108 616.744 500.132Z" fill="#1B3D79"/>
<path fill-rule="evenodd" clip-rule="evenodd" d="M608.59 494.501C609.264 493.525 611.005 493.559 611.982 494.234C612.959 494.908 613.205 496.247 612.531 497.223C611.857 498.199 610.09 499.064 609.112 498.389C608.135 497.714 607.916 495.477 608.59 494.501Z" fill="#1B3D79"/>
<path fill-rule="evenodd" clip-rule="evenodd" d="M600.436 488.87C601.109 487.894 602.851 487.928 603.828 488.602C604.805 489.277 605.051 490.616 604.377 491.592C603.703 492.567 601.935 493.433 600.958 492.758C599.981 492.083 599.762 489.846 600.436 488.87Z" fill="#1B3D79"/>
<path fill-rule="evenodd" clip-rule="evenodd" d="M592.283 483.24C592.957 482.264 594.693 482.294 595.674 482.971C596.651 483.646 596.897 484.985 596.223 485.96C595.549 486.936 593.781 487.802 592.804 487.127C591.823 486.45 591.609 484.216 592.283 483.24Z" fill="#1B3D79"/>
<path fill-rule="evenodd" clip-rule="evenodd" d="M584.124 477.605C584.798 476.629 586.542 476.665 587.521 477.341C588.5 478.017 588.738 479.35 588.064 480.326C587.39 481.302 585.63 482.173 584.651 481.497C583.673 480.821 583.45 478.581 584.124 477.605Z" fill="#1B3D79"/>
<path fill-rule="evenodd" clip-rule="evenodd" d="M575.973 471.976C576.647 471 578.391 471.036 579.37 471.712C580.34 472.383 580.587 473.722 579.913 474.697C579.239 475.673 577.471 476.538 576.5 475.868C575.522 475.192 575.299 472.952 575.973 471.976Z" fill="#1B3D79"/>
<path fill-rule="evenodd" clip-rule="evenodd" d="M567.822 466.347C568.496 465.372 570.232 465.402 571.211 466.078C572.19 466.754 572.436 468.093 571.762 469.069C571.088 470.045 569.32 470.909 568.341 470.233C567.362 469.557 567.148 467.323 567.822 466.347Z" fill="#1B3D79"/>
<path fill-rule="evenodd" clip-rule="evenodd" d="M559.663 460.713C560.337 459.737 562.081 459.773 563.06 460.449C564.039 461.125 564.277 462.458 563.603 463.434C562.929 464.41 561.169 465.28 560.19 464.604C559.211 463.928 558.989 461.689 559.663 460.713Z" fill="#1B3D79"/>
<path fill-rule="evenodd" clip-rule="evenodd" d="M551.512 455.084C552.186 454.108 553.93 454.144 554.901 454.814C555.879 455.49 556.126 456.829 555.452 457.805C554.778 458.781 553.01 459.646 552.031 458.97C551.061 458.3 550.838 456.06 551.512 455.084Z" fill="#1B3D79"/>
<path fill-rule="evenodd" clip-rule="evenodd" d="M543.361 449.455C544.035 448.479 545.771 448.51 546.75 449.185C547.729 449.861 547.975 451.2 547.301 452.176C546.627 453.152 544.859 454.017 543.88 453.341C542.901 452.665 542.687 450.431 543.361 449.455Z" fill="#1B3D79"/>
<path fill-rule="evenodd" clip-rule="evenodd" d="M535.201 443.82C535.875 442.844 537.62 442.881 538.599 443.557C539.569 444.227 539.816 445.566 539.142 446.542C538.468 447.517 536.699 448.382 535.729 447.712C534.75 447.036 534.528 444.796 535.201 443.82Z" fill="#1B3D79"/>
<path fill-rule="evenodd" clip-rule="evenodd" d="M527.051 438.192C527.724 437.216 529.461 437.246 530.439 437.922C531.418 438.598 531.665 439.937 530.991 440.913C530.317 441.889 528.549 442.753 527.57 442.077C526.591 441.401 526.377 439.167 527.051 438.192Z" fill="#1B3D79"/>
<path fill-rule="evenodd" clip-rule="evenodd" d="M518.891 432.557C519.565 431.581 521.31 431.617 522.289 432.293C523.267 432.969 523.506 434.302 522.832 435.278C522.158 436.254 520.398 437.124 519.419 436.449C518.44 435.773 518.217 433.533 518.891 432.557Z" fill="#1B3D79"/>
<path fill-rule="evenodd" clip-rule="evenodd" d="M510.74 426.928C511.414 425.952 513.159 425.988 514.129 426.658C515.108 427.334 515.355 428.673 514.681 429.649C514.007 430.625 512.238 431.49 511.26 430.814C510.289 430.144 510.066 427.904 510.74 426.928Z" fill="#1B3D79"/>
<path fill-rule="evenodd" clip-rule="evenodd" d="M502.589 421.299C503.263 420.323 505 420.354 505.978 421.03C506.957 421.705 507.204 423.045 506.53 424.02C505.856 424.996 504.087 425.861 503.109 425.185C502.13 424.509 501.916 422.275 502.589 421.299Z" fill="#1B3D79"/>
<path fill-rule="evenodd" clip-rule="evenodd" d="M494.43 415.664C495.104 414.689 496.849 414.725 497.827 415.401C498.798 416.071 499.045 417.41 498.371 418.386C497.697 419.362 495.928 420.226 494.958 419.556C493.979 418.88 493.756 416.64 494.43 415.664Z" fill="#1B3D79"/>
<path fill-rule="evenodd" clip-rule="evenodd" d="M469.969 398.772C470.643 397.796 472.388 397.832 473.358 398.502C474.337 399.178 474.583 400.517 473.909 401.493C473.236 402.469 471.467 403.334 470.488 402.658C469.518 401.988 469.295 399.748 469.969 398.772Z" fill="#1B3D79"/>
<path fill-rule="evenodd" clip-rule="evenodd" d="M461.818 393.143C462.492 392.167 464.228 392.198 465.207 392.874C466.186 393.55 466.432 394.889 465.759 395.864C465.085 396.84 463.316 397.705 462.337 397.029C461.359 396.353 461.144 394.119 461.818 393.143Z" fill="#1B3D79"/>
<path fill-rule="evenodd" clip-rule="evenodd" d="M453.659 387.509C454.333 386.533 456.077 386.569 457.056 387.245C458.035 387.921 458.273 389.254 457.599 390.23C456.925 391.206 455.165 392.076 454.186 391.4C453.208 390.724 452.985 388.484 453.659 387.509Z" fill="#1B3D79"/>
<path fill-rule="evenodd" clip-rule="evenodd" d="M445.508 381.88C446.182 380.904 447.926 380.94 448.897 381.61C449.876 382.286 450.122 383.625 449.448 384.601C448.774 385.577 447.006 386.441 446.027 385.766C445.057 385.095 444.834 382.856 445.508 381.88Z" fill="#1B3D79"/>
<path fill-rule="evenodd" clip-rule="evenodd" d="M437.349 376.245C438.023 375.269 439.767 375.305 440.746 375.981C441.725 376.657 441.971 377.996 441.297 378.972C440.624 379.948 438.855 380.813 437.876 380.137C436.897 379.461 436.675 377.221 437.349 376.245Z" fill="#1B3D79"/>
<path fill-rule="evenodd" clip-rule="evenodd" d="M429.198 370.616C429.872 369.64 431.616 369.676 432.595 370.352C433.565 371.022 433.812 372.362 433.138 373.337C432.464 374.313 430.696 375.178 429.725 374.508C428.747 373.832 428.524 371.592 429.198 370.616Z" fill="#1B3D79"/>
<path fill-rule="evenodd" clip-rule="evenodd" d="M421.047 364.987C421.721 364.012 423.457 364.042 424.436 364.718C425.415 365.394 425.661 366.733 424.987 367.709C424.313 368.685 422.545 369.549 421.566 368.873C420.587 368.197 420.373 365.963 421.047 364.987Z" fill="#1B3D79"/>
<path fill-rule="evenodd" clip-rule="evenodd" d="M638.218 503.915C638.892 502.939 640.633 502.972 641.61 503.647C642.588 504.322 642.833 505.66 642.159 506.636C641.486 507.612 639.718 508.477 638.741 507.803C637.764 507.128 637.544 504.89 638.218 503.915Z" fill="#1B3D79"/>
<path fill-rule="evenodd" clip-rule="evenodd" d="M630.063 498.283C630.737 497.307 632.478 497.341 633.455 498.015C634.432 498.69 634.678 500.029 634.004 501.005C633.33 501.98 631.563 502.846 630.586 502.171C629.609 501.496 629.389 499.259 630.063 498.283Z" fill="#1B3D79"/>
<path fill-rule="evenodd" clip-rule="evenodd" d="M621.91 492.652C622.584 491.676 624.325 491.71 625.302 492.385C626.279 493.06 626.525 494.398 625.851 495.374C625.177 496.35 623.409 497.215 622.432 496.54C621.455 495.866 621.236 493.628 621.91 492.652Z" fill="#1B3D79"/>
<path fill-rule="evenodd" clip-rule="evenodd" d="M613.755 487.021C614.429 486.045 616.171 486.079 617.148 486.754C618.125 487.428 618.371 488.767 617.697 489.743C617.023 490.719 615.255 491.584 614.278 490.909C613.301 490.234 613.081 487.997 613.755 487.021Z" fill="#1B3D79"/>
<path fill-rule="evenodd" clip-rule="evenodd" d="M605.601 481.39C606.275 480.414 608.016 480.448 608.993 481.122C609.971 481.797 610.216 483.136 609.542 484.112C608.869 485.087 607.101 485.953 606.124 485.278C605.147 484.603 604.927 482.366 605.601 481.39Z" fill="#1B3D79"/>
<path fill-rule="evenodd" clip-rule="evenodd" d="M597.449 475.76C598.122 474.784 599.859 474.814 600.839 475.491C601.816 476.166 602.062 477.505 601.388 478.48C600.714 479.456 598.947 480.322 597.969 479.647C596.989 478.97 596.775 476.736 597.449 475.76Z" fill="#1B3D79"/>
<path fill-rule="evenodd" clip-rule="evenodd" d="M589.289 470.125C589.963 469.149 591.708 469.185 592.687 469.861C593.665 470.537 593.904 471.87 593.23 472.846C592.556 473.822 590.796 474.693 589.817 474.017C588.838 473.341 588.615 471.101 589.289 470.125Z" fill="#1B3D79"/>
<path fill-rule="evenodd" clip-rule="evenodd" d="M581.138 464.496C581.812 463.52 583.557 463.557 584.536 464.232C585.506 464.903 585.753 466.242 585.079 467.217C584.405 468.193 582.636 469.058 581.666 468.388C580.687 467.712 580.464 465.472 581.138 464.496Z" fill="#1B3D79"/>
<path fill-rule="evenodd" clip-rule="evenodd" d="M572.987 458.867C573.661 457.892 575.398 457.922 576.376 458.598C577.355 459.274 577.602 460.613 576.928 461.589C576.254 462.564 574.485 463.429 573.507 462.753C572.528 462.077 572.314 459.843 572.987 458.867Z" fill="#1B3D79"/>
<path fill-rule="evenodd" clip-rule="evenodd" d="M564.828 453.233C565.502 452.257 567.247 452.293 568.225 452.969C569.204 453.645 569.442 454.978 568.769 455.954C568.095 456.93 566.335 457.8 565.356 457.124C564.377 456.448 564.154 454.209 564.828 453.233Z" fill="#1B3D79"/>
<path fill-rule="evenodd" clip-rule="evenodd" d="M556.677 447.604C557.351 446.628 559.096 446.664 560.066 447.334C561.045 448.01 561.292 449.349 560.618 450.325C559.944 451.301 558.175 452.166 557.196 451.49C556.226 450.82 556.003 448.58 556.677 447.604Z" fill="#1B3D79"/>
<path fill-rule="evenodd" clip-rule="evenodd" d="M548.526 441.975C549.2 440.999 550.936 441.029 551.915 441.705C552.894 442.381 553.141 443.72 552.467 444.696C551.793 445.672 550.024 446.537 549.046 445.861C548.067 445.185 547.852 442.951 548.526 441.975Z" fill="#1B3D79"/>
<path fill-rule="evenodd" clip-rule="evenodd" d="M540.367 436.34C541.041 435.364 542.786 435.401 543.764 436.077C544.735 436.747 544.981 438.086 544.307 439.062C543.634 440.037 541.865 440.902 540.895 440.232C539.916 439.556 539.693 437.316 540.367 436.34Z" fill="#1B3D79"/>
<path fill-rule="evenodd" clip-rule="evenodd" d="M532.216 430.711C532.89 429.736 534.626 429.766 535.605 430.442C536.584 431.118 536.83 432.457 536.157 433.433C535.483 434.409 533.714 435.273 532.735 434.597C531.757 433.921 531.542 431.687 532.216 430.711Z" fill="#1B3D79"/>
<path fill-rule="evenodd" clip-rule="evenodd" d="M524.057 425.077C524.731 424.101 526.475 424.137 527.454 424.813C528.433 425.489 528.671 426.822 527.997 427.798C527.323 428.774 525.563 429.644 524.584 428.968C523.606 428.293 523.383 426.053 524.057 425.077Z" fill="#1B3D79"/>
<path fill-rule="evenodd" clip-rule="evenodd" d="M515.906 419.448C516.58 418.472 518.324 418.508 519.295 419.178C520.274 419.854 520.52 421.193 519.846 422.169C519.172 423.145 517.404 424.01 516.425 423.334C515.455 422.664 515.232 420.424 515.906 419.448Z" fill="#1B3D79"/>
<path fill-rule="evenodd" clip-rule="evenodd" d="M499.596 408.184C500.27 407.209 502.014 407.245 502.993 407.921C503.963 408.591 504.21 409.93 503.536 410.906C502.862 411.882 501.094 412.746 500.123 412.076C499.145 411.4 498.922 409.16 499.596 408.184Z" fill="#1B3D79"/>
<path fill-rule="evenodd" clip-rule="evenodd" d="M491.445 402.556C492.119 401.58 493.855 401.61 494.834 402.286C495.813 402.962 496.059 404.301 495.385 405.277C494.711 406.253 492.943 407.117 491.964 406.441C490.985 405.766 490.771 403.531 491.445 402.556Z" fill="#1B3D79"/>
<path fill-rule="evenodd" clip-rule="evenodd" d="M483.286 396.921C483.959 395.945 485.704 395.981 486.683 396.657C487.662 397.333 487.908 398.672 487.234 399.648C486.56 400.624 484.792 401.489 483.813 400.813C482.834 400.137 482.612 397.897 483.286 396.921Z" fill="#1B3D79"/>
<path fill-rule="evenodd" clip-rule="evenodd" d="M475.135 391.292C475.809 390.316 477.553 390.352 478.524 391.022C479.502 391.698 479.749 393.037 479.075 394.013C478.401 394.989 476.633 395.854 475.654 395.178C474.684 394.508 474.461 392.268 475.135 391.292Z" fill="#1B3D79"/>
<path fill-rule="evenodd" clip-rule="evenodd" d="M466.984 385.663C467.658 384.687 469.394 384.718 470.373 385.394C471.351 386.07 471.598 387.409 470.924 388.384C470.25 389.36 468.482 390.225 467.503 389.549C466.524 388.873 466.31 386.639 466.984 385.663Z" fill="#1B3D79"/>
<path fill-rule="evenodd" clip-rule="evenodd" d="M458.824 380.029C459.498 379.053 461.243 379.089 462.222 379.765C463.2 380.441 463.439 381.774 462.765 382.75C462.091 383.726 460.331 384.596 459.352 383.92C458.373 383.244 458.15 381.004 458.824 380.029Z" fill="#1B3D79"/>
<path fill-rule="evenodd" clip-rule="evenodd" d="M450.674 374.4C451.347 373.424 453.092 373.46 454.062 374.13C455.041 374.806 455.288 376.145 454.614 377.121C453.94 378.097 452.172 378.961 451.193 378.286C450.222 377.615 450 375.376 450.674 374.4Z" fill="#1B3D79"/>
<path fill-rule="evenodd" clip-rule="evenodd" d="M442.514 368.765C443.188 367.789 444.933 367.825 445.912 368.501C446.89 369.177 447.137 370.516 446.463 371.492C445.789 372.468 444.021 373.333 443.042 372.657C442.063 371.981 441.84 369.741 442.514 368.765Z" fill="#1B3D79"/>
<path fill-rule="evenodd" clip-rule="evenodd" d="M434.363 363.136C435.037 362.16 436.782 362.196 437.761 362.872C438.731 363.542 438.978 364.882 438.304 365.857C437.63 366.833 435.861 367.698 434.891 367.028C433.912 366.352 433.689 364.112 434.363 363.136Z" fill="#1B3D79"/>
<path fill-rule="evenodd" clip-rule="evenodd" d="M426.212 357.507C426.886 356.532 428.623 356.562 429.601 357.238C430.58 357.914 430.827 359.253 430.153 360.229C429.479 361.205 427.71 362.069 426.732 361.393C425.753 360.717 425.539 358.483 426.212 357.507Z" fill="#1B3D79"/>
<path fill-rule="evenodd" clip-rule="evenodd" d="M643.384 496.434C644.058 495.459 645.799 495.492 646.776 496.167C647.753 496.842 647.999 498.18 647.325 499.156C646.651 500.132 644.883 500.997 643.906 500.323C642.929 499.648 642.71 497.41 643.384 496.434Z" fill="#1B3D79"/>
<path fill-rule="evenodd" clip-rule="evenodd" d="M635.229 490.803C635.903 489.827 637.644 489.861 638.621 490.535C639.598 491.21 639.844 492.549 639.17 493.525C638.496 494.5 636.728 495.366 635.751 494.691C634.774 494.016 634.555 491.779 635.229 490.803Z" fill="#1B3D79"/>
<path fill-rule="evenodd" clip-rule="evenodd" d="M627.075 485.172C627.749 484.196 629.49 484.23 630.467 484.905C631.445 485.58 631.69 486.918 631.017 487.894C630.343 488.87 628.575 489.735 627.598 489.06C626.621 488.386 626.401 486.148 627.075 485.172Z" fill="#1B3D79"/>
<path fill-rule="evenodd" clip-rule="evenodd" d="M618.921 479.541C619.595 478.565 621.336 478.599 622.313 479.274C623.29 479.948 623.536 481.287 622.862 482.263C622.188 483.239 620.421 484.104 619.444 483.429C618.466 482.754 618.247 480.517 618.921 479.541Z" fill="#1B3D79"/>
<path fill-rule="evenodd" clip-rule="evenodd" d="M610.767 473.91C611.441 472.934 613.182 472.968 614.159 473.642C615.136 474.317 615.382 475.656 614.708 476.632C614.034 477.607 612.266 478.473 611.289 477.798C610.312 477.123 610.093 474.886 610.767 473.91Z" fill="#1B3D79"/>
<path fill-rule="evenodd" clip-rule="evenodd" d="M602.614 468.28C603.288 467.304 605.024 467.334 606.005 468.011C606.982 468.686 607.228 470.024 606.554 471C605.88 471.976 604.112 472.841 603.135 472.167C602.155 471.49 601.94 469.256 602.614 468.28Z" fill="#1B3D79"/>
<path fill-rule="evenodd" clip-rule="evenodd" d="M594.455 462.645C595.129 461.669 596.873 461.705 597.852 462.381C598.831 463.057 599.069 464.39 598.395 465.366C597.721 466.342 595.961 467.213 594.982 466.537C594.004 465.861 593.781 463.621 594.455 462.645Z" fill="#1B3D79"/>
<path fill-rule="evenodd" clip-rule="evenodd" d="M586.304 457.016C586.978 456.04 588.722 456.077 589.701 456.752C590.672 457.423 590.918 458.762 590.244 459.737C589.57 460.713 587.802 461.578 586.832 460.908C585.853 460.232 585.63 457.992 586.304 457.016Z" fill="#1B3D79"/>
<path fill-rule="evenodd" clip-rule="evenodd" d="M578.153 451.387C578.827 450.412 580.563 450.442 581.542 451.118C582.521 451.794 582.767 453.133 582.093 454.109C581.42 455.084 579.651 455.949 578.672 455.273C577.693 454.597 577.479 452.363 578.153 451.387Z" fill="#1B3D79"/>
<path fill-rule="evenodd" clip-rule="evenodd" d="M569.994 445.753C570.668 444.777 572.412 444.813 573.391 445.489C574.37 446.165 574.608 447.498 573.934 448.474C573.26 449.45 571.5 450.32 570.521 449.644C569.543 448.968 569.32 446.729 569.994 445.753Z" fill="#1B3D79"/>
<path fill-rule="evenodd" clip-rule="evenodd" d="M561.843 440.124C562.517 439.148 564.261 439.184 565.232 439.854C566.21 440.53 566.457 441.869 565.783 442.845C565.109 443.821 563.341 444.686 562.362 444.01C561.392 443.34 561.169 441.1 561.843 440.124Z" fill="#1B3D79"/>
<path fill-rule="evenodd" clip-rule="evenodd" d="M553.692 434.495C554.366 433.519 556.102 433.549 557.081 434.225C558.06 434.901 558.306 436.24 557.632 437.216C556.958 438.192 555.19 439.057 554.211 438.381C553.232 437.705 553.018 435.471 553.692 434.495Z" fill="#1B3D79"/>
<path fill-rule="evenodd" clip-rule="evenodd" d="M545.533 428.86C546.207 427.884 547.951 427.921 548.93 428.597C549.9 429.267 550.147 430.606 549.473 431.582C548.799 432.557 547.031 433.422 546.06 432.752C545.081 432.076 544.859 429.836 545.533 428.86Z" fill="#1B3D79"/>
<path fill-rule="evenodd" clip-rule="evenodd" d="M537.382 423.231C538.056 422.256 539.792 422.286 540.771 422.962C541.749 423.638 541.996 424.977 541.322 425.953C540.648 426.929 538.88 427.793 537.901 427.117C536.922 426.441 536.708 424.207 537.382 423.231Z" fill="#1B3D79"/>
<path fill-rule="evenodd" clip-rule="evenodd" d="M529.222 417.597C529.896 416.621 531.641 416.657 532.62 417.333C533.598 418.009 533.837 419.342 533.163 420.318C532.489 421.294 530.729 422.164 529.75 421.488C528.771 420.812 528.548 418.573 529.222 417.597Z" fill="#1B3D79"/>
<path fill-rule="evenodd" clip-rule="evenodd" d="M512.921 406.339C513.594 405.363 515.331 405.394 516.309 406.069C517.288 406.745 517.535 408.084 516.861 409.06C516.187 410.036 514.419 410.901 513.44 410.225C512.461 409.549 512.247 407.315 512.921 406.339Z" fill="#1B3D79"/>
<path fill-rule="evenodd" clip-rule="evenodd" d="M504.761 400.704C505.435 399.729 507.18 399.765 508.159 400.441C509.129 401.111 509.376 402.45 508.702 403.426C508.028 404.402 506.259 405.266 505.289 404.596C504.31 403.92 504.087 401.68 504.761 400.704Z" fill="#1B3D79"/>
<path fill-rule="evenodd" clip-rule="evenodd" d="M496.61 395.076C497.284 394.1 499.021 394.13 499.999 394.806C500.978 395.482 501.225 396.821 500.551 397.797C499.877 398.773 498.108 399.637 497.13 398.961C496.151 398.286 495.936 396.051 496.61 395.076Z" fill="#1B3D79"/>
<path fill-rule="evenodd" clip-rule="evenodd" d="M488.451 389.441C489.125 388.465 490.87 388.501 491.848 389.177C492.827 389.853 493.074 391.192 492.4 392.168C491.726 393.144 489.957 394.008 488.979 393.333C488 392.657 487.777 390.417 488.451 389.441Z" fill="#1B3D79"/>
<path fill-rule="evenodd" clip-rule="evenodd" d="M480.3 383.812C480.974 382.836 482.719 382.872 483.689 383.542C484.668 384.218 484.915 385.557 484.241 386.533C483.567 387.509 481.798 388.374 480.819 387.698C479.849 387.028 479.626 384.788 480.3 383.812Z" fill="#1B3D79"/>
<path fill-rule="evenodd" clip-rule="evenodd" d="M463.99 372.549C464.664 371.573 466.408 371.609 467.387 372.285C468.366 372.961 468.604 374.294 467.93 375.27C467.256 376.246 465.496 377.116 464.518 376.44C463.539 375.764 463.316 373.524 463.99 372.549Z" fill="#1B3D79"/>
<path fill-rule="evenodd" clip-rule="evenodd" d="M455.839 366.92C456.513 365.944 458.258 365.98 459.228 366.65C460.207 367.326 460.453 368.665 459.779 369.641C459.106 370.617 457.337 371.481 456.358 370.805C455.388 370.135 455.165 367.896 455.839 366.92Z" fill="#1B3D79"/>
<path fill-rule="evenodd" clip-rule="evenodd" d="M447.68 361.285C448.354 360.309 450.098 360.345 451.077 361.021C452.056 361.697 452.302 363.036 451.629 364.012C450.955 364.988 449.186 365.853 448.207 365.177C447.229 364.501 447.006 362.261 447.68 361.285Z" fill="#1B3D79"/>
<path fill-rule="evenodd" clip-rule="evenodd" d="M439.529 355.656C440.203 354.68 441.947 354.716 442.926 355.392C443.897 356.062 444.143 357.401 443.469 358.377C442.795 359.353 441.027 360.218 440.056 359.548C439.078 358.872 438.855 356.632 439.529 355.656Z" fill="#1B3D79"/>
<path fill-rule="evenodd" clip-rule="evenodd" d="M431.378 350.027C432.052 349.052 433.788 349.082 434.767 349.758C435.746 350.434 435.992 351.773 435.318 352.749C434.645 353.724 432.876 354.589 431.897 353.913C430.918 353.237 430.704 351.003 431.378 350.027Z" fill="#1B3D79"/>
<path fill-rule="evenodd" clip-rule="evenodd" d="M648.549 488.954C649.223 487.979 650.964 488.012 651.942 488.687C652.919 489.362 653.164 490.7 652.491 491.676C651.817 492.652 650.049 493.517 649.072 492.843C648.095 492.168 647.875 489.93 648.549 488.954Z" fill="#1B3D79"/>
<path fill-rule="evenodd" clip-rule="evenodd" d="M640.394 483.323C641.068 482.347 642.809 482.381 643.786 483.055C644.764 483.73 645.009 485.069 644.335 486.044C643.662 487.02 641.894 487.886 640.917 487.211C639.94 486.536 639.72 484.299 640.394 483.323Z" fill="#1B3D79"/>
<path fill-rule="evenodd" clip-rule="evenodd" d="M632.241 477.692C632.915 476.716 634.656 476.75 635.633 477.425C636.61 478.1 636.856 479.438 636.182 480.414C635.508 481.39 633.74 482.255 632.763 481.58C631.786 480.906 631.567 478.668 632.241 477.692Z" fill="#1B3D79"/>
<path fill-rule="evenodd" clip-rule="evenodd" d="M624.087 472.061C624.76 471.085 626.502 471.119 627.479 471.794C628.456 472.468 628.702 473.807 628.028 474.783C627.354 475.759 625.586 476.624 624.609 475.949C623.632 475.274 623.413 473.037 624.087 472.061Z" fill="#1B3D79"/>
<path fill-rule="evenodd" clip-rule="evenodd" d="M615.932 466.43C616.606 465.454 618.347 465.488 619.324 466.162C620.302 466.837 620.547 468.176 619.873 469.152C619.2 470.127 617.432 470.993 616.455 470.318C615.478 469.643 615.258 467.406 615.932 466.43Z" fill="#1B3D79"/>
<path fill-rule="evenodd" clip-rule="evenodd" d="M607.78 460.8C608.454 459.824 610.19 459.854 611.17 460.531C612.147 461.206 612.393 462.544 611.719 463.52C611.045 464.496 609.278 465.361 608.301 464.687C607.32 464.01 607.106 461.776 607.78 460.8Z" fill="#1B3D79"/>
<path fill-rule="evenodd" clip-rule="evenodd" d="M599.62 455.165C600.294 454.189 602.039 454.225 603.018 454.901C603.996 455.577 604.235 456.91 603.561 457.886C602.887 458.862 601.127 459.733 600.148 459.057C599.169 458.381 598.946 456.141 599.62 455.165Z" fill="#1B3D79"/>
<path fill-rule="evenodd" clip-rule="evenodd" d="M591.469 449.536C592.143 448.56 593.888 448.597 594.867 449.272C595.837 449.943 596.084 451.282 595.41 452.257C594.736 453.233 592.967 454.098 591.997 453.428C591.018 452.752 590.796 450.512 591.469 449.536Z" fill="#1B3D79"/>
<path fill-rule="evenodd" clip-rule="evenodd" d="M583.319 443.907C583.992 442.931 585.729 442.962 586.707 443.638C587.686 444.314 587.933 445.653 587.259 446.629C586.585 447.604 584.817 448.469 583.838 447.793C582.859 447.117 582.645 444.883 583.319 443.907Z" fill="#1B3D79"/>
<path fill-rule="evenodd" clip-rule="evenodd" d="M575.159 438.273C575.833 437.297 577.578 437.333 578.557 438.009C579.535 438.685 579.774 440.018 579.1 440.994C578.426 441.97 576.666 442.84 575.687 442.164C574.708 441.488 574.485 439.249 575.159 438.273Z" fill="#1B3D79"/>
<path fill-rule="evenodd" clip-rule="evenodd" d="M567.008 432.644C567.682 431.668 569.427 431.704 570.397 432.374C571.376 433.05 571.623 434.389 570.949 435.365C570.275 436.341 568.506 437.206 567.528 436.53C566.557 435.86 566.334 433.62 567.008 432.644Z" fill="#1B3D79"/>
<path fill-rule="evenodd" clip-rule="evenodd" d="M558.857 427.015C559.531 426.039 561.268 426.069 562.246 426.745C563.225 427.421 563.472 428.76 562.798 429.736C562.124 430.712 560.355 431.577 559.377 430.901C558.398 430.225 558.184 427.991 558.857 427.015Z" fill="#1B3D79"/>
<path fill-rule="evenodd" clip-rule="evenodd" d="M550.698 421.38C551.372 420.404 553.117 420.441 554.095 421.117C555.066 421.787 555.312 423.126 554.639 424.102C553.965 425.077 552.196 425.942 551.226 425.272C550.247 424.596 550.024 422.356 550.698 421.38Z" fill="#1B3D79"/>
<path fill-rule="evenodd" clip-rule="evenodd" d="M542.547 415.751C543.221 414.776 544.957 414.806 545.936 415.482C546.915 416.158 547.162 417.497 546.488 418.473C545.814 419.449 544.045 420.313 543.066 419.637C542.088 418.961 541.873 416.727 542.547 415.751Z" fill="#1B3D79"/>
<path fill-rule="evenodd" clip-rule="evenodd" d="M534.388 410.117C535.062 409.141 536.806 409.177 537.785 409.853C538.764 410.529 539.002 411.862 538.328 412.838C537.654 413.814 535.894 414.684 534.916 414.008C533.937 413.333 533.714 411.093 534.388 410.117Z" fill="#1B3D79"/>
<path fill-rule="evenodd" clip-rule="evenodd" d="M526.237 404.488C526.911 403.512 528.656 403.548 529.626 404.218C530.605 404.894 530.851 406.233 530.177 407.209C529.504 408.185 527.735 409.05 526.756 408.374C525.786 407.704 525.563 405.464 526.237 404.488Z" fill="#1B3D79"/>
<path fill-rule="evenodd" clip-rule="evenodd" d="M518.086 398.859C518.76 397.883 520.496 397.914 521.475 398.589C522.454 399.265 522.701 400.604 522.027 401.58C521.353 402.556 519.584 403.421 518.605 402.745C517.627 402.069 517.412 399.835 518.086 398.859Z" fill="#1B3D79"/>
<path fill-rule="evenodd" clip-rule="evenodd" d="M509.927 393.224C510.601 392.249 512.345 392.285 513.324 392.961C514.295 393.631 514.541 394.97 513.867 395.946C513.193 396.921 511.425 397.786 510.454 397.116C509.476 396.44 509.253 394.2 509.927 393.224Z" fill="#1B3D79"/>
<path fill-rule="evenodd" clip-rule="evenodd" d="M501.776 387.596C502.45 386.62 504.186 386.65 505.165 387.326C506.144 388.002 506.39 389.341 505.716 390.317C505.042 391.293 503.274 392.157 502.295 391.481C501.316 390.805 501.102 388.571 501.776 387.596Z" fill="#1B3D79"/>
<path fill-rule="evenodd" clip-rule="evenodd" d="M493.617 381.961C494.291 380.985 496.035 381.021 497.014 381.697C497.993 382.373 498.239 383.712 497.565 384.688C496.892 385.664 495.123 386.528 494.144 385.853C493.165 385.177 492.943 382.937 493.617 381.961Z" fill="#1B3D79"/>
<path fill-rule="evenodd" clip-rule="evenodd" d="M485.466 376.332C486.14 375.356 487.884 375.392 488.855 376.062C489.833 376.738 490.08 378.077 489.406 379.053C488.732 380.029 486.964 380.894 485.985 380.218C485.015 379.548 484.792 377.308 485.466 376.332Z" fill="#1B3D79"/>
<path fill-rule="evenodd" clip-rule="evenodd" d="M477.315 370.703C477.989 369.727 479.725 369.758 480.704 370.434C481.682 371.109 481.929 372.449 481.255 373.424C480.581 374.4 478.813 375.265 477.834 374.589C476.855 373.913 476.641 371.679 477.315 370.703Z" fill="#1B3D79"/>
<path fill-rule="evenodd" clip-rule="evenodd" d="M469.156 365.069C469.829 364.093 471.574 364.129 472.553 364.805C473.532 365.481 473.77 366.814 473.096 367.79C472.422 368.766 470.662 369.636 469.683 368.96C468.704 368.284 468.482 366.044 469.156 365.069Z" fill="#1B3D79"/>
<path fill-rule="evenodd" clip-rule="evenodd" d="M461.005 359.44C461.678 358.464 463.423 358.5 464.393 359.17C465.372 359.846 465.619 361.185 464.945 362.161C464.271 363.137 462.503 364.001 461.524 363.325C460.553 362.655 460.331 360.416 461.005 359.44Z" fill="#1B3D79"/>
<path fill-rule="evenodd" clip-rule="evenodd" d="M452.845 353.805C453.519 352.829 455.264 352.865 456.243 353.541C457.221 354.217 457.468 355.556 456.794 356.532C456.12 357.508 454.352 358.373 453.373 357.697C452.394 357.021 452.171 354.781 452.845 353.805Z" fill="#1B3D79"/>
<path fill-rule="evenodd" clip-rule="evenodd" d="M444.694 348.176C445.368 347.2 447.113 347.236 448.092 347.912C449.062 348.582 449.309 349.922 448.635 350.897C447.961 351.873 446.192 352.738 445.222 352.068C444.243 351.392 444.021 349.152 444.694 348.176Z" fill="#1B3D79"/>
<path fill-rule="evenodd" clip-rule="evenodd" d="M436.544 342.547C437.217 341.571 438.954 341.602 439.932 342.278C440.911 342.954 441.158 344.293 440.484 345.269C439.81 346.244 438.042 347.109 437.063 346.433C436.084 345.757 435.87 343.523 436.544 342.547Z" fill="#1B3D79"/>
<path fill-rule="evenodd" clip-rule="evenodd" d="M653.715 481.474C654.389 480.499 656.13 480.532 657.107 481.207C658.084 481.882 658.33 483.22 657.656 484.196C656.982 485.172 655.215 486.037 654.237 485.363C653.26 484.688 653.041 482.45 653.715 481.474Z" fill="#1B3D79"/>
<path fill-rule="evenodd" clip-rule="evenodd" d="M645.56 475.843C646.234 474.867 647.975 474.901 648.952 475.575C649.929 476.25 650.175 477.589 649.501 478.564C648.827 479.54 647.059 480.406 646.082 479.731C645.105 479.056 644.886 476.819 645.56 475.843Z" fill="#1B3D79"/>
<path fill-rule="evenodd" clip-rule="evenodd" d="M637.406 470.212C638.08 469.236 639.821 469.27 640.799 469.945C641.776 470.62 642.021 471.958 641.348 472.934C640.674 473.91 638.906 474.775 637.929 474.1C636.952 473.425 636.732 471.188 637.406 470.212Z" fill="#1B3D79"/>
<path fill-rule="evenodd" clip-rule="evenodd" d="M629.252 464.581C629.926 463.605 631.667 463.639 632.644 464.314C633.621 464.988 633.867 466.327 633.193 467.303C632.519 468.279 630.752 469.144 629.775 468.469C628.798 467.794 628.578 465.557 629.252 464.581Z" fill="#1B3D79"/>
<path fill-rule="evenodd" clip-rule="evenodd" d="M621.098 458.95C621.772 457.974 623.513 458.008 624.49 458.682C625.467 459.357 625.713 460.696 625.039 461.672C624.365 462.647 622.597 463.513 621.62 462.838C620.643 462.163 620.424 459.926 621.098 458.95Z" fill="#1B3D79"/>
<path fill-rule="evenodd" clip-rule="evenodd" d="M612.945 453.32C613.619 452.344 615.355 452.374 616.336 453.051C617.313 453.726 617.559 455.064 616.885 456.04C616.211 457.016 614.443 457.881 613.466 457.207C612.486 456.53 612.271 454.296 612.945 453.32Z" fill="#1B3D79"/>
<path fill-rule="evenodd" clip-rule="evenodd" d="M604.786 447.685C605.46 446.709 607.204 446.745 608.183 447.421C609.162 448.097 609.4 449.43 608.726 450.406C608.052 451.382 606.292 452.253 605.314 451.577C604.335 450.901 604.112 448.661 604.786 447.685Z" fill="#1B3D79"/>
<path fill-rule="evenodd" clip-rule="evenodd" d="M596.635 442.056C597.309 441.08 599.054 441.116 600.032 441.792C601.003 442.462 601.249 443.802 600.575 444.777C599.902 445.753 598.133 446.618 597.163 445.948C596.184 445.272 595.961 443.032 596.635 442.056Z" fill="#1B3D79"/>
<path fill-rule="evenodd" clip-rule="evenodd" d="M588.484 436.427C589.158 435.451 590.894 435.482 591.873 436.158C592.852 436.834 593.098 438.173 592.425 439.149C591.751 440.124 589.982 440.989 589.003 440.313C588.025 439.637 587.81 437.403 588.484 436.427Z" fill="#1B3D79"/>
<path fill-rule="evenodd" clip-rule="evenodd" d="M580.325 430.793C580.999 429.817 582.743 429.853 583.722 430.529C584.701 431.205 584.939 432.538 584.265 433.514C583.591 434.49 581.831 435.36 580.852 434.684C579.874 434.008 579.651 431.769 580.325 430.793Z" fill="#1B3D79"/>
<path fill-rule="evenodd" clip-rule="evenodd" d="M572.174 425.164C572.848 424.188 574.592 424.224 575.563 424.894C576.542 425.57 576.788 426.909 576.114 427.885C575.44 428.861 573.672 429.726 572.693 429.05C571.723 428.38 571.5 426.14 572.174 425.164Z" fill="#1B3D79"/>
<path fill-rule="evenodd" clip-rule="evenodd" d="M564.023 419.535C564.697 418.559 566.433 418.589 567.412 419.265C568.391 419.941 568.637 421.28 567.963 422.256C567.29 423.232 565.521 424.097 564.542 423.421C563.563 422.745 563.349 420.511 564.023 419.535Z" fill="#1B3D79"/>
<path fill-rule="evenodd" clip-rule="evenodd" d="M555.864 413.9C556.538 412.924 558.282 412.961 559.261 413.636C560.231 414.307 560.478 415.646 559.804 416.621C559.13 417.597 557.362 418.462 556.391 417.792C555.413 417.116 555.19 414.876 555.864 413.9Z" fill="#1B3D79"/>
<path fill-rule="evenodd" clip-rule="evenodd" d="M547.713 408.271C548.387 407.296 550.123 407.326 551.102 408.002C552.08 408.678 552.327 410.017 551.653 410.993C550.979 411.969 549.211 412.833 548.232 412.157C547.253 411.481 547.039 409.247 547.713 408.271Z" fill="#1B3D79"/>
<path fill-rule="evenodd" clip-rule="evenodd" d="M539.553 402.637C540.227 401.661 541.972 401.697 542.951 402.373C543.93 403.049 544.168 404.382 543.494 405.358C542.82 406.334 541.06 407.204 540.081 406.528C539.102 405.852 538.88 403.613 539.553 402.637Z" fill="#1B3D79"/>
<path fill-rule="evenodd" clip-rule="evenodd" d="M531.403 397.008C532.077 396.032 533.821 396.068 534.791 396.738C535.77 397.414 536.017 398.753 535.343 399.729C534.669 400.705 532.901 401.57 531.922 400.894C530.951 400.224 530.729 397.984 531.403 397.008Z" fill="#1B3D79"/>
<path fill-rule="evenodd" clip-rule="evenodd" d="M523.252 391.379C523.926 390.403 525.662 390.433 526.641 391.109C527.619 391.785 527.866 393.124 527.192 394.1C526.518 395.076 524.75 395.941 523.771 395.265C522.792 394.589 522.578 392.355 523.252 391.379Z" fill="#1B3D79"/>
<path fill-rule="evenodd" clip-rule="evenodd" d="M515.092 385.744C515.766 384.769 517.511 384.805 518.49 385.481C519.46 386.151 519.707 387.49 519.033 388.466C518.359 389.441 516.59 390.306 515.62 389.636C514.641 388.96 514.418 386.72 515.092 385.744Z" fill="#1B3D79"/>
<path fill-rule="evenodd" clip-rule="evenodd" d="M506.941 380.116C507.615 379.14 509.352 379.17 510.33 379.846C511.309 380.522 511.556 381.861 510.882 382.837C510.208 383.813 508.439 384.677 507.461 384.001C506.482 383.325 506.268 381.091 506.941 380.116Z" fill="#1B3D79"/>
<path fill-rule="evenodd" clip-rule="evenodd" d="M498.782 374.481C499.456 373.505 501.201 373.541 502.179 374.217C503.158 374.893 503.405 376.232 502.731 377.208C502.057 378.184 500.289 379.048 499.31 378.372C498.331 377.697 498.108 375.457 498.782 374.481Z" fill="#1B3D79"/>
<path fill-rule="evenodd" clip-rule="evenodd" d="M490.631 368.852C491.305 367.876 493.05 367.912 494.02 368.582C494.999 369.258 495.246 370.597 494.572 371.573C493.898 372.549 492.129 373.414 491.15 372.738C490.18 372.068 489.957 369.828 490.631 368.852Z" fill="#1B3D79"/>
<path fill-rule="evenodd" clip-rule="evenodd" d="M482.48 363.223C483.154 362.247 484.89 362.278 485.869 362.954C486.848 363.629 487.095 364.969 486.421 365.944C485.747 366.92 483.978 367.785 483 367.109C482.021 366.433 481.806 364.199 482.48 363.223Z" fill="#1B3D79"/>
<path fill-rule="evenodd" clip-rule="evenodd" d="M466.17 351.96C466.844 350.984 468.589 351.02 469.559 351.69C470.538 352.366 470.785 353.705 470.111 354.681C469.437 355.657 467.668 356.521 466.689 355.846C465.719 355.175 465.496 352.936 466.17 351.96Z" fill="#1B3D79"/>
<path fill-rule="evenodd" clip-rule="evenodd" d="M458.011 346.325C458.685 345.349 460.429 345.385 461.408 346.061C462.387 346.737 462.634 348.076 461.96 349.052C461.286 350.028 459.517 350.893 458.538 350.217C457.56 349.541 457.337 347.301 458.011 346.325Z" fill="#1B3D79"/>
<path fill-rule="evenodd" clip-rule="evenodd" d="M449.86 340.696C450.534 339.72 452.279 339.756 453.257 340.432C454.228 341.102 454.474 342.441 453.8 343.417C453.126 344.393 451.358 345.258 450.388 344.588C449.409 343.912 449.186 341.672 449.86 340.696Z" fill="#1B3D79"/>
<path fill-rule="evenodd" clip-rule="evenodd" d="M441.709 335.067C442.383 334.091 444.119 334.122 445.098 334.798C446.077 335.474 446.323 336.813 445.65 337.789C444.976 338.764 443.207 339.629 442.228 338.953C441.25 338.277 441.035 336.043 441.709 335.067Z" fill="#1B3D79"/>
<path fill-rule="evenodd" clip-rule="evenodd" d="M658.88 473.994C659.554 473.019 661.296 473.052 662.273 473.727C663.25 474.402 663.496 475.74 662.822 476.716C662.148 477.692 660.38 478.557 659.403 477.883C658.426 477.208 658.206 474.97 658.88 473.994Z" fill="#1B3D79"/>
<path fill-rule="evenodd" clip-rule="evenodd" d="M650.725 468.363C651.399 467.387 653.14 467.421 654.118 468.095C655.095 468.77 655.34 470.109 654.667 471.084C653.993 472.06 652.225 472.926 651.248 472.251C650.271 471.576 650.051 469.339 650.725 468.363Z" fill="#1B3D79"/>
<path fill-rule="evenodd" clip-rule="evenodd" d="M642.572 462.732C643.246 461.756 644.987 461.79 645.964 462.465C646.941 463.14 647.187 464.478 646.513 465.454C645.839 466.43 644.072 467.295 643.094 466.62C642.117 465.946 641.898 463.708 642.572 462.732Z" fill="#1B3D79"/>
<path fill-rule="evenodd" clip-rule="evenodd" d="M634.418 457.101C635.091 456.125 636.833 456.159 637.81 456.834C638.787 457.508 639.033 458.847 638.359 459.823C637.685 460.799 635.917 461.664 634.94 460.989C633.963 460.314 633.744 458.077 634.418 457.101Z" fill="#1B3D79"/>
<path fill-rule="evenodd" clip-rule="evenodd" d="M626.263 451.47C626.937 450.494 628.679 450.528 629.656 451.202C630.633 451.877 630.879 453.216 630.205 454.192C629.531 455.167 627.763 456.033 626.786 455.358C625.809 454.683 625.589 452.446 626.263 451.47Z" fill="#1B3D79"/>
<path fill-rule="evenodd" clip-rule="evenodd" d="M618.111 445.84C618.785 444.864 620.521 444.894 621.501 445.571C622.478 446.246 622.724 447.584 622.05 448.56C621.376 449.536 619.609 450.401 618.632 449.727C617.651 449.05 617.437 446.816 618.111 445.84Z" fill="#1B3D79"/>
<path fill-rule="evenodd" clip-rule="evenodd" d="M609.951 440.205C610.625 439.229 612.37 439.265 613.349 439.941C614.328 440.617 614.566 441.95 613.892 442.926C613.218 443.902 611.458 444.773 610.479 444.097C609.5 443.421 609.278 441.181 609.951 440.205Z" fill="#1B3D79"/>
<path fill-rule="evenodd" clip-rule="evenodd" d="M601.801 434.576C602.475 433.6 604.219 433.636 605.198 434.312C606.168 434.982 606.415 436.322 605.741 437.297C605.067 438.273 603.299 439.138 602.328 438.468C601.349 437.792 601.127 435.552 601.801 434.576Z" fill="#1B3D79"/>
<path fill-rule="evenodd" clip-rule="evenodd" d="M593.65 428.947C594.324 427.971 596.06 428.002 597.039 428.678C598.017 429.354 598.264 430.693 597.59 431.669C596.916 432.644 595.148 433.509 594.169 432.833C593.19 432.157 592.976 429.923 593.65 428.947Z" fill="#1B3D79"/>
<path fill-rule="evenodd" clip-rule="evenodd" d="M585.49 423.313C586.164 422.337 587.909 422.373 588.888 423.049C589.866 423.725 590.105 425.058 589.431 426.034C588.757 427.01 586.997 427.88 586.018 427.204C585.039 426.528 584.816 424.289 585.49 423.313Z" fill="#1B3D79"/>
<path fill-rule="evenodd" clip-rule="evenodd" d="M577.339 417.684C578.013 416.708 579.758 416.744 580.728 417.414C581.707 418.09 581.954 419.429 581.28 420.405C580.606 421.381 578.837 422.246 577.859 421.57C576.888 420.9 576.666 418.66 577.339 417.684Z" fill="#1B3D79"/>
<path fill-rule="evenodd" clip-rule="evenodd" d="M569.189 412.055C569.862 411.079 571.599 411.109 572.577 411.785C573.556 412.461 573.803 413.8 573.129 414.776C572.455 415.752 570.687 416.617 569.708 415.941C568.729 415.265 568.515 413.031 569.189 412.055Z" fill="#1B3D79"/>
<path fill-rule="evenodd" clip-rule="evenodd" d="M561.029 406.42C561.703 405.444 563.448 405.481 564.427 406.156C565.397 406.827 565.644 408.166 564.97 409.141C564.296 410.117 562.527 410.982 561.557 410.312C560.578 409.636 560.355 407.396 561.029 406.42Z" fill="#1B3D79"/>
<path fill-rule="evenodd" clip-rule="evenodd" d="M544.719 395.157C545.393 394.181 547.138 394.217 548.116 394.893C549.095 395.569 549.333 396.902 548.659 397.878C547.986 398.854 546.225 399.724 545.247 399.048C544.268 398.373 544.045 396.133 544.719 395.157Z" fill="#1B3D79"/>
<path fill-rule="evenodd" clip-rule="evenodd" d="M536.568 389.528C537.242 388.552 538.987 388.588 539.957 389.258C540.936 389.934 541.182 391.273 540.509 392.249C539.835 393.225 538.066 394.09 537.087 393.414C536.117 392.744 535.894 390.504 536.568 389.528Z" fill="#1B3D79"/>
<path fill-rule="evenodd" clip-rule="evenodd" d="M528.417 383.899C529.091 382.923 530.827 382.953 531.806 383.629C532.785 384.305 533.032 385.644 532.358 386.62C531.684 387.596 529.915 388.461 528.936 387.785C527.958 387.109 527.743 384.875 528.417 383.899Z" fill="#1B3D79"/>
<path fill-rule="evenodd" clip-rule="evenodd" d="M520.258 378.264C520.932 377.289 522.676 377.325 523.655 378.001C524.626 378.671 524.872 380.01 524.198 380.986C523.524 381.962 521.756 382.826 520.786 382.156C519.807 381.48 519.584 379.24 520.258 378.264Z" fill="#1B3D79"/>
<path fill-rule="evenodd" clip-rule="evenodd" d="M512.107 372.636C512.781 371.66 514.517 371.69 515.496 372.366C516.475 373.042 516.721 374.381 516.047 375.357C515.374 376.333 513.605 377.197 512.626 376.521C511.647 375.845 511.433 373.611 512.107 372.636Z" fill="#1B3D79"/>
<path fill-rule="evenodd" clip-rule="evenodd" d="M503.948 367.001C504.622 366.025 506.366 366.061 507.345 366.737C508.324 367.413 508.57 368.752 507.897 369.728C507.223 370.704 505.454 371.568 504.475 370.892C503.497 370.217 503.274 367.977 503.948 367.001Z" fill="#1B3D79"/>
<path fill-rule="evenodd" clip-rule="evenodd" d="M495.797 361.372C496.471 360.396 498.215 360.432 499.186 361.102C500.165 361.778 500.411 363.117 499.737 364.093C499.063 365.069 497.295 365.934 496.316 365.258C495.346 364.588 495.123 362.348 495.797 361.372Z" fill="#1B3D79"/>
<path fill-rule="evenodd" clip-rule="evenodd" d="M487.646 355.743C488.32 354.767 490.056 354.798 491.035 355.474C492.014 356.149 492.26 357.488 491.586 358.464C490.912 359.44 489.144 360.305 488.165 359.629C487.186 358.953 486.972 356.719 487.646 355.743Z" fill="#1B3D79"/>
<path fill-rule="evenodd" clip-rule="evenodd" d="M479.487 350.108C480.16 349.133 481.905 349.169 482.884 349.845C483.863 350.521 484.101 351.854 483.427 352.83C482.753 353.806 480.993 354.676 480.014 354C479.035 353.324 478.813 351.084 479.487 350.108Z" fill="#1B3D79"/>
<path fill-rule="evenodd" clip-rule="evenodd" d="M471.336 344.48C472.01 343.504 473.754 343.54 474.725 344.21C475.703 344.886 475.95 346.225 475.276 347.201C474.602 348.177 472.834 349.041 471.855 348.365C470.885 347.695 470.662 345.456 471.336 344.48Z" fill="#1B3D79"/>
<path fill-rule="evenodd" clip-rule="evenodd" d="M463.176 338.845C463.85 337.869 465.595 337.905 466.574 338.581C467.553 339.257 467.799 340.596 467.125 341.572C466.451 342.548 464.683 343.413 463.704 342.737C462.725 342.061 462.502 339.821 463.176 338.845Z" fill="#1B3D79"/>
<path fill-rule="evenodd" clip-rule="evenodd" d="M455.026 333.216C455.699 332.24 457.444 332.276 458.423 332.952C459.393 333.622 459.64 334.961 458.966 335.937C458.292 336.913 456.523 337.778 455.553 337.108C454.574 336.432 454.352 334.192 455.026 333.216Z" fill="#1B3D79"/>
<path fill-rule="evenodd" clip-rule="evenodd" d="M446.875 327.587C447.549 326.611 449.285 326.642 450.264 327.318C451.242 327.994 451.489 329.333 450.815 330.309C450.141 331.284 448.373 332.149 447.394 331.473C446.415 330.797 446.201 328.563 446.875 327.587Z" fill="#1B3D79"/>
<path fill-rule="evenodd" clip-rule="evenodd" d="M664.046 466.514C664.72 465.539 666.461 465.572 667.438 466.247C668.415 466.922 668.661 468.26 667.987 469.236C667.313 470.212 665.546 471.077 664.569 470.403C663.591 469.728 663.372 467.49 664.046 466.514Z" fill="#1B3D79"/>
<path fill-rule="evenodd" clip-rule="evenodd" d="M655.891 460.883C656.565 459.907 658.306 459.941 659.283 460.615C660.26 461.29 660.506 462.629 659.832 463.604C659.158 464.58 657.391 465.446 656.413 464.771C655.436 464.096 655.217 461.859 655.891 460.883Z" fill="#1B3D79"/>
<path fill-rule="evenodd" clip-rule="evenodd" d="M647.737 455.252C648.411 454.276 650.153 454.31 651.13 454.985C652.107 455.659 652.353 456.998 651.679 457.974C651.005 458.95 649.237 459.815 648.26 459.14C647.283 458.465 647.064 456.228 647.737 455.252Z" fill="#1B3D79"/>
<path fill-rule="evenodd" clip-rule="evenodd" d="M639.583 449.621C640.257 448.645 641.998 448.679 642.975 449.354C643.953 450.028 644.198 451.367 643.524 452.343C642.851 453.318 641.083 454.184 640.106 453.509C639.129 452.834 638.909 450.597 639.583 449.621Z" fill="#1B3D79"/>
<path fill-rule="evenodd" clip-rule="evenodd" d="M631.429 443.99C632.103 443.014 633.844 443.048 634.821 443.722C635.798 444.397 636.044 445.736 635.37 446.711C634.696 447.687 632.929 448.553 631.951 447.878C630.974 447.203 630.755 444.966 631.429 443.99Z" fill="#1B3D79"/>
<path fill-rule="evenodd" clip-rule="evenodd" d="M623.276 438.36C623.95 437.384 625.686 437.414 626.667 438.091C627.644 438.766 627.89 440.104 627.216 441.08C626.542 442.056 624.774 442.921 623.797 442.247C622.817 441.57 622.602 439.336 623.276 438.36Z" fill="#1B3D79"/>
<path fill-rule="evenodd" clip-rule="evenodd" d="M615.117 432.725C615.791 431.749 617.536 431.785 618.514 432.461C619.493 433.137 619.731 434.47 619.057 435.446C618.384 436.422 616.623 437.293 615.645 436.617C614.666 435.941 614.443 433.701 615.117 432.725Z" fill="#1B3D79"/>
<path fill-rule="evenodd" clip-rule="evenodd" d="M606.966 427.096C607.64 426.12 609.385 426.156 610.364 426.832C611.334 427.502 611.581 428.842 610.907 429.817C610.233 430.793 608.464 431.658 607.494 430.988C606.515 430.312 606.292 428.072 606.966 427.096Z" fill="#1B3D79"/>
<path fill-rule="evenodd" clip-rule="evenodd" d="M598.815 421.467C599.489 420.491 601.225 420.522 602.204 421.198C603.183 421.874 603.43 423.213 602.756 424.188C602.082 425.164 600.313 426.029 599.334 425.353C598.356 424.677 598.141 422.443 598.815 421.467Z" fill="#1B3D79"/>
<path fill-rule="evenodd" clip-rule="evenodd" d="M590.656 415.833C591.33 414.857 593.074 414.893 594.053 415.569C595.032 416.245 595.27 417.578 594.596 418.554C593.922 419.53 592.162 420.4 591.184 419.724C590.205 419.048 589.982 416.809 590.656 415.833Z" fill="#1B3D79"/>
<path fill-rule="evenodd" clip-rule="evenodd" d="M582.505 410.204C583.179 409.228 584.924 409.264 585.894 409.934C586.873 410.61 587.119 411.949 586.445 412.925C585.772 413.901 584.003 414.766 583.024 414.09C582.054 413.42 581.831 411.18 582.505 410.204Z" fill="#1B3D79"/>
<path fill-rule="evenodd" clip-rule="evenodd" d="M574.354 404.575C575.028 403.599 576.764 403.629 577.743 404.305C578.722 404.981 578.969 406.32 578.295 407.296C577.621 408.272 575.852 409.137 574.873 408.461C573.895 407.785 573.68 405.551 574.354 404.575Z" fill="#1B3D79"/>
<path fill-rule="evenodd" clip-rule="evenodd" d="M566.195 398.94C566.869 397.964 568.613 398.001 569.592 398.676C570.562 399.347 570.809 400.686 570.135 401.661C569.461 402.637 567.693 403.502 566.722 402.832C565.744 402.156 565.521 399.916 566.195 398.94Z" fill="#1B3D79"/>
<path fill-rule="evenodd" clip-rule="evenodd" d="M558.044 393.311C558.718 392.336 560.454 392.366 561.433 393.042C562.412 393.718 562.658 395.057 561.984 396.033C561.31 397.008 559.542 397.873 558.563 397.197C557.584 396.521 557.37 394.287 558.044 393.311Z" fill="#1B3D79"/>
<path fill-rule="evenodd" clip-rule="evenodd" d="M549.885 387.677C550.558 386.701 552.303 386.737 553.282 387.413C554.261 388.089 554.499 389.422 553.825 390.398C553.151 391.374 551.391 392.244 550.412 391.568C549.433 390.892 549.211 388.653 549.885 387.677Z" fill="#1B3D79"/>
<path fill-rule="evenodd" clip-rule="evenodd" d="M541.734 382.048C542.408 381.072 544.152 381.108 545.123 381.778C546.101 382.454 546.348 383.793 545.674 384.769C545 385.745 543.232 386.61 542.253 385.934C541.283 385.264 541.06 383.024 541.734 382.048Z" fill="#1B3D79"/>
<path fill-rule="evenodd" clip-rule="evenodd" d="M533.583 376.419C534.257 375.443 535.993 375.474 536.972 376.149C537.951 376.825 538.197 378.164 537.523 379.14C536.849 380.116 535.081 380.981 534.102 380.305C533.123 379.629 532.909 377.395 533.583 376.419Z" fill="#1B3D79"/>
<path fill-rule="evenodd" clip-rule="evenodd" d="M525.423 370.784C526.097 369.809 527.842 369.845 528.821 370.521C529.791 371.191 530.038 372.53 529.364 373.506C528.69 374.481 526.921 375.346 525.951 374.676C524.972 374 524.75 371.76 525.423 370.784Z" fill="#1B3D79"/>
<path fill-rule="evenodd" clip-rule="evenodd" d="M517.273 365.156C517.947 364.18 519.683 364.21 520.662 364.886C521.64 365.562 521.887 366.901 521.213 367.877C520.539 368.853 518.771 369.717 517.792 369.041C516.813 368.365 516.599 366.131 517.273 365.156Z" fill="#1B3D79"/>
<path fill-rule="evenodd" clip-rule="evenodd" d="M509.113 359.521C509.787 358.545 511.532 358.581 512.511 359.257C513.489 359.933 513.736 361.272 513.062 362.248C512.388 363.224 510.62 364.088 509.641 363.412C508.662 362.737 508.439 360.497 509.113 359.521Z" fill="#1B3D79"/>
<path fill-rule="evenodd" clip-rule="evenodd" d="M500.962 353.892C501.636 352.916 503.381 352.952 504.351 353.622C505.33 354.298 505.577 355.637 504.903 356.613C504.229 357.589 502.46 358.454 501.482 357.778C500.511 357.108 500.288 354.868 500.962 353.892Z" fill="#1B3D79"/>
<path fill-rule="evenodd" clip-rule="evenodd" d="M492.811 348.263C493.485 347.287 495.222 347.318 496.2 347.994C497.179 348.669 497.426 350.008 496.752 350.984C496.078 351.96 494.309 352.825 493.331 352.149C492.352 351.473 492.138 349.239 492.811 348.263Z" fill="#1B3D79"/>
<path fill-rule="evenodd" clip-rule="evenodd" d="M484.652 342.628C485.326 341.653 487.071 341.689 488.05 342.365C489.028 343.041 489.267 344.374 488.593 345.35C487.919 346.326 486.159 347.196 485.18 346.52C484.201 345.844 483.978 343.604 484.652 342.628Z" fill="#1B3D79"/>
<path fill-rule="evenodd" clip-rule="evenodd" d="M468.342 331.365C469.016 330.389 470.761 330.425 471.739 331.101C472.718 331.777 472.965 333.116 472.291 334.092C471.617 335.068 469.848 335.933 468.87 335.257C467.891 334.581 467.668 332.341 468.342 331.365Z" fill="#1B3D79"/>
<path fill-rule="evenodd" clip-rule="evenodd" d="M460.191 325.736C460.865 324.76 462.61 324.796 463.588 325.472C464.559 326.142 464.805 327.481 464.132 328.457C463.458 329.433 461.689 330.298 460.719 329.628C459.74 328.952 459.517 326.712 460.191 325.736Z" fill="#1B3D79"/>
<path fill-rule="evenodd" clip-rule="evenodd" d="M452.04 320.107C452.714 319.131 454.45 319.162 455.429 319.838C456.408 320.514 456.655 321.853 455.981 322.829C455.307 323.804 453.538 324.669 452.559 323.993C451.581 323.317 451.366 321.083 452.04 320.107Z" fill="#1B3D79"/>
<path fill-rule="evenodd" clip-rule="evenodd" d="M669.211 459.034C669.885 458.059 671.627 458.092 672.604 458.767C673.581 459.442 673.827 460.78 673.153 461.756C672.479 462.732 670.711 463.597 669.734 462.923C668.757 462.248 668.538 460.01 669.211 459.034Z" fill="#1B3D79"/>
<path fill-rule="evenodd" clip-rule="evenodd" d="M661.056 453.403C661.73 452.427 663.472 452.461 664.449 453.135C665.426 453.81 665.672 455.149 664.998 456.124C664.324 457.1 662.556 457.966 661.579 457.291C660.602 456.616 660.382 454.378 661.056 453.403Z" fill="#1B3D79"/>
<path fill-rule="evenodd" clip-rule="evenodd" d="M652.903 447.772C653.577 446.796 655.318 446.83 656.295 447.505C657.272 448.179 657.518 449.518 656.844 450.494C656.17 451.47 654.403 452.335 653.426 451.66C652.448 450.985 652.229 448.748 652.903 447.772Z" fill="#1B3D79"/>
<path fill-rule="evenodd" clip-rule="evenodd" d="M644.749 442.141C645.423 441.165 647.164 441.199 648.141 441.874C649.118 442.548 649.364 443.887 648.69 444.863C648.016 445.839 646.248 446.704 645.271 446.029C644.294 445.354 644.075 443.117 644.749 442.141Z" fill="#1B3D79"/>
<path fill-rule="evenodd" clip-rule="evenodd" d="M636.594 436.51C637.268 435.534 639.01 435.568 639.987 436.242C640.964 436.917 641.21 438.256 640.536 439.231C639.862 440.207 638.094 441.073 637.117 440.398C636.14 439.723 635.921 437.486 636.594 436.51Z" fill="#1B3D79"/>
<path fill-rule="evenodd" clip-rule="evenodd" d="M628.442 430.88C629.116 429.904 630.852 429.934 631.832 430.611C632.81 431.286 633.055 432.624 632.382 433.6C631.708 434.576 629.94 435.441 628.963 434.767C627.982 434.09 627.768 431.856 628.442 430.88Z" fill="#1B3D79"/>
<path fill-rule="evenodd" clip-rule="evenodd" d="M620.283 425.245C620.956 424.269 622.701 424.305 623.68 424.981C624.659 425.657 624.897 426.99 624.223 427.966C623.549 428.942 621.789 429.813 620.81 429.137C619.831 428.461 619.609 426.221 620.283 425.245Z" fill="#1B3D79"/>
<path fill-rule="evenodd" clip-rule="evenodd" d="M612.132 419.616C612.806 418.64 614.55 418.676 615.529 419.352C616.499 420.022 616.746 421.361 616.072 422.337C615.398 423.313 613.63 424.178 612.659 423.508C611.681 422.832 611.458 420.592 612.132 419.616Z" fill="#1B3D79"/>
<path fill-rule="evenodd" clip-rule="evenodd" d="M603.981 413.987C604.655 413.011 606.391 413.042 607.37 413.718C608.348 414.394 608.595 415.733 607.921 416.709C607.247 417.684 605.479 418.549 604.5 417.873C603.521 417.197 603.307 414.963 603.981 413.987Z" fill="#1B3D79"/>
<path fill-rule="evenodd" clip-rule="evenodd" d="M595.821 408.353C596.495 407.377 598.24 407.413 599.219 408.089C600.198 408.765 600.436 410.098 599.762 411.074C599.088 412.05 597.328 412.92 596.349 412.244C595.37 411.568 595.148 409.328 595.821 408.353Z" fill="#1B3D79"/>
<path fill-rule="evenodd" clip-rule="evenodd" d="M601.199 400.566C601.873 399.59 603.617 399.626 604.596 400.302C605.575 400.978 605.813 402.311 605.139 403.287C604.465 404.263 602.705 405.133 601.726 404.458C600.748 403.782 600.525 401.542 601.199 400.566Z" fill="#1B3D79"/>
<path fill-rule="evenodd" clip-rule="evenodd" d="M587.671 402.724C588.344 401.748 590.089 401.784 591.059 402.454C592.038 403.13 592.285 404.469 591.611 405.445C590.937 406.421 589.169 407.286 588.19 406.61C587.219 405.94 586.997 403.7 587.671 402.724Z" fill="#1B3D79"/>
<path fill-rule="evenodd" clip-rule="evenodd" d="M579.52 397.095C580.194 396.119 581.93 396.149 582.909 396.825C583.887 397.501 584.134 398.84 583.46 399.816C582.786 400.792 581.018 401.657 580.039 400.981C579.06 400.305 578.846 398.071 579.52 397.095Z" fill="#1B3D79"/>
<path fill-rule="evenodd" clip-rule="evenodd" d="M571.36 391.46C572.034 390.484 573.779 390.52 574.758 391.196C575.728 391.866 575.975 393.206 575.301 394.181C574.627 395.157 572.858 396.022 571.888 395.352C570.909 394.676 570.686 392.436 571.36 391.46Z" fill="#1B3D79"/>
<path fill-rule="evenodd" clip-rule="evenodd" d="M563.209 385.831C563.883 384.856 565.62 384.886 566.598 385.562C567.577 386.238 567.824 387.577 567.15 388.553C566.476 389.528 564.707 390.393 563.729 389.717C562.75 389.041 562.536 386.807 563.209 385.831Z" fill="#1B3D79"/>
<path fill-rule="evenodd" clip-rule="evenodd" d="M555.05 380.197C555.724 379.221 557.469 379.257 558.447 379.933C559.426 380.609 559.665 381.942 558.991 382.918C558.317 383.894 556.557 384.764 555.578 384.088C554.599 383.412 554.376 381.173 555.05 380.197Z" fill="#1B3D79"/>
<path fill-rule="evenodd" clip-rule="evenodd" d="M546.899 374.568C547.573 373.592 549.318 373.628 550.288 374.298C551.267 374.974 551.514 376.313 550.84 377.289C550.166 378.265 548.397 379.13 547.418 378.454C546.448 377.784 546.225 375.544 546.899 374.568Z" fill="#1B3D79"/>
<path fill-rule="evenodd" clip-rule="evenodd" d="M538.748 368.939C539.422 367.963 541.159 367.993 542.137 368.669C543.116 369.345 543.363 370.684 542.689 371.66C542.015 372.636 540.246 373.501 539.268 372.825C538.289 372.149 538.074 369.915 538.748 368.939Z" fill="#1B3D79"/>
<path fill-rule="evenodd" clip-rule="evenodd" d="M530.589 363.304C531.263 362.329 533.008 362.365 533.986 363.041C534.957 363.711 535.203 365.05 534.53 366.026C533.856 367.001 532.087 367.866 531.117 367.196C530.138 366.52 529.915 364.28 530.589 363.304Z" fill="#1B3D79"/>
<path fill-rule="evenodd" clip-rule="evenodd" d="M522.438 357.676C523.112 356.7 524.848 356.73 525.827 357.406C526.806 358.082 527.053 359.421 526.379 360.397C525.705 361.373 523.936 362.237 522.957 361.561C521.979 360.885 521.764 358.651 522.438 357.676Z" fill="#1B3D79"/>
<path fill-rule="evenodd" clip-rule="evenodd" d="M514.279 352.041C514.953 351.065 516.697 351.101 517.676 351.777C518.655 352.453 518.902 353.792 518.228 354.768C517.554 355.744 515.785 356.608 514.806 355.932C513.828 355.257 513.605 353.017 514.279 352.041Z" fill="#1B3D79"/>
<path fill-rule="evenodd" clip-rule="evenodd" d="M506.128 346.412C506.802 345.436 508.547 345.472 509.517 346.142C510.496 346.818 510.742 348.157 510.068 349.133C509.394 350.109 507.626 350.974 506.647 350.298C505.677 349.628 505.454 347.388 506.128 346.412Z" fill="#1B3D79"/>
<path fill-rule="evenodd" clip-rule="evenodd" d="M497.977 340.783C498.651 339.807 500.387 339.838 501.366 340.513C502.345 341.189 502.591 342.528 501.917 343.504C501.244 344.48 499.475 345.345 498.496 344.669C497.517 343.993 497.303 341.759 497.977 340.783Z" fill="#1B3D79"/>
<path fill-rule="evenodd" clip-rule="evenodd" d="M489.818 335.148C490.492 334.173 492.236 334.209 493.215 334.885C494.194 335.561 494.432 336.894 493.758 337.87C493.084 338.846 491.324 339.716 490.345 339.04C489.367 338.364 489.144 336.124 489.818 335.148Z" fill="#1B3D79"/>
<path fill-rule="evenodd" clip-rule="evenodd" d="M481.667 329.52C482.341 328.544 484.085 328.58 485.056 329.25C486.035 329.926 486.281 331.265 485.607 332.241C484.933 333.217 483.165 334.081 482.186 333.405C481.216 332.735 480.993 330.496 481.667 329.52Z" fill="#1B3D79"/>
<path fill-rule="evenodd" clip-rule="evenodd" d="M465.357 318.256C466.031 317.28 467.775 317.316 468.754 317.992C469.724 318.662 469.971 320.001 469.297 320.977C468.623 321.953 466.855 322.818 465.884 322.148C464.906 321.472 464.683 319.232 465.357 318.256Z" fill="#1B3D79"/>
<path fill-rule="evenodd" clip-rule="evenodd" d="M457.206 312.627C457.88 311.652 459.616 311.682 460.595 312.358C461.574 313.034 461.82 314.373 461.146 315.349C460.472 316.324 458.704 317.189 457.725 316.513C456.746 315.837 456.532 313.603 457.206 312.627Z" fill="#1B3D79"/>
<path fill-rule="evenodd" clip-rule="evenodd" d="M674.377 451.554C675.051 450.579 676.792 450.612 677.769 451.287C678.746 451.962 678.992 453.3 678.318 454.276C677.644 455.252 675.877 456.117 674.9 455.443C673.923 454.768 673.703 452.53 674.377 451.554Z" fill="#1B3D79"/>
<path fill-rule="evenodd" clip-rule="evenodd" d="M666.222 445.923C666.896 444.947 668.637 444.981 669.614 445.655C670.591 446.33 670.837 447.669 670.163 448.644C669.489 449.62 667.722 450.486 666.745 449.811C665.767 449.136 665.548 446.898 666.222 445.923Z" fill="#1B3D79"/>
<path fill-rule="evenodd" clip-rule="evenodd" d="M658.069 440.292C658.742 439.316 660.484 439.35 661.461 440.025C662.438 440.699 662.684 442.038 662.01 443.014C661.336 443.99 659.568 444.855 658.591 444.18C657.614 443.505 657.395 441.268 658.069 440.292Z" fill="#1B3D79"/>
<path fill-rule="evenodd" clip-rule="evenodd" d="M649.914 434.661C650.588 433.685 652.329 433.719 653.307 434.394C654.284 435.068 654.53 436.407 653.856 437.383C653.182 438.359 651.414 439.224 650.437 438.549C649.46 437.874 649.24 435.637 649.914 434.661Z" fill="#1B3D79"/>
<path fill-rule="evenodd" clip-rule="evenodd" d="M641.76 429.03C642.434 428.054 644.175 428.088 645.152 428.762C646.129 429.437 646.375 430.776 645.701 431.751C645.027 432.727 643.26 433.593 642.283 432.918C641.306 432.243 641.086 430.006 641.76 429.03Z" fill="#1B3D79"/>
<path fill-rule="evenodd" clip-rule="evenodd" d="M633.607 423.4C634.281 422.424 636.018 422.454 636.998 423.131C637.975 423.806 638.221 425.144 637.547 426.12C636.873 427.096 635.105 427.961 634.128 427.287C633.148 426.61 632.934 424.376 633.607 423.4Z" fill="#1B3D79"/>
<path fill-rule="evenodd" clip-rule="evenodd" d="M625.448 417.765C626.122 416.789 627.867 416.825 628.845 417.501C629.824 418.177 630.062 419.51 629.389 420.486C628.715 421.462 626.955 422.333 625.976 421.657C624.997 420.981 624.774 418.741 625.448 417.765Z" fill="#1B3D79"/>
<path fill-rule="evenodd" clip-rule="evenodd" d="M617.297 412.136C617.971 411.16 619.716 411.196 620.695 411.872C621.665 412.542 621.912 413.881 621.238 414.857C620.564 415.833 618.795 416.698 617.825 416.028C616.846 415.352 616.623 413.112 617.297 412.136Z" fill="#1B3D79"/>
<path fill-rule="evenodd" clip-rule="evenodd" d="M592.836 395.244C593.51 394.268 595.255 394.304 596.225 394.974C597.204 395.65 597.451 396.989 596.777 397.965C596.103 398.941 594.334 399.806 593.355 399.13C592.385 398.46 592.162 396.22 592.836 395.244Z" fill="#1B3D79"/>
<path fill-rule="evenodd" clip-rule="evenodd" d="M576.526 383.98C577.2 383.004 578.944 383.041 579.923 383.716C580.894 384.387 581.14 385.726 580.466 386.701C579.792 387.677 578.024 388.542 577.054 387.872C576.075 387.196 575.852 384.956 576.526 383.98Z" fill="#1B3D79"/>
<path fill-rule="evenodd" clip-rule="evenodd" d="M568.375 378.351C569.049 377.375 570.785 377.406 571.764 378.082C572.743 378.758 572.989 380.097 572.315 381.073C571.642 382.048 569.873 382.913 568.894 382.237C567.915 381.561 567.701 379.327 568.375 378.351Z" fill="#1B3D79"/>
<path fill-rule="evenodd" clip-rule="evenodd" d="M543.914 361.459C544.588 360.483 546.324 360.513 547.303 361.189C548.282 361.865 548.528 363.204 547.854 364.18C547.18 365.156 545.412 366.021 544.433 365.345C543.454 364.669 543.24 362.435 543.914 361.459Z" fill="#1B3D79"/>
<path fill-rule="evenodd" clip-rule="evenodd" d="M535.755 355.824C536.429 354.849 538.173 354.885 539.152 355.561C540.122 356.231 540.369 357.57 539.695 358.546C539.021 359.521 537.253 360.386 536.282 359.716C535.304 359.04 535.081 356.8 535.755 355.824Z" fill="#1B3D79"/>
<path fill-rule="evenodd" clip-rule="evenodd" d="M527.604 350.196C528.278 349.22 530.014 349.25 530.993 349.926C531.971 350.602 532.218 351.941 531.544 352.917C530.87 353.893 529.102 354.757 528.123 354.081C527.144 353.405 526.93 351.171 527.604 350.196Z" fill="#1B3D79"/>
<path fill-rule="evenodd" clip-rule="evenodd" d="M519.444 344.561C520.118 343.585 521.863 343.621 522.842 344.297C523.82 344.973 524.067 346.312 523.393 347.288C522.719 348.264 520.951 349.128 519.972 348.452C518.993 347.777 518.77 345.537 519.444 344.561Z" fill="#1B3D79"/>
<path fill-rule="evenodd" clip-rule="evenodd" d="M511.294 338.932C511.967 337.956 513.712 337.992 514.682 338.662C515.661 339.338 515.908 340.677 515.234 341.653C514.56 342.629 512.792 343.494 511.813 342.818C510.842 342.148 510.62 339.908 511.294 338.932Z" fill="#1B3D79"/>
<path fill-rule="evenodd" clip-rule="evenodd" d="M503.143 333.303C503.817 332.327 505.553 332.358 506.532 333.033C507.51 333.709 507.757 335.048 507.083 336.024C506.409 337 504.641 337.865 503.662 337.189C502.683 336.513 502.469 334.279 503.143 333.303Z" fill="#1B3D79"/>
<path fill-rule="evenodd" clip-rule="evenodd" d="M494.983 327.668C495.657 326.693 497.402 326.729 498.381 327.405C499.359 328.081 499.598 329.414 498.924 330.39C498.25 331.366 496.49 332.236 495.511 331.56C494.532 330.884 494.309 328.644 494.983 327.668Z" fill="#1B3D79"/>
<path fill-rule="evenodd" clip-rule="evenodd" d="M486.832 322.04C487.506 321.064 489.251 321.1 490.221 321.77C491.2 322.446 491.447 323.785 490.773 324.761C490.099 325.737 488.33 326.601 487.352 325.925C486.381 325.255 486.159 323.015 486.832 322.04Z" fill="#1B3D79"/>
<path fill-rule="evenodd" clip-rule="evenodd" d="M478.673 316.405C479.347 315.429 481.092 315.465 482.07 316.141C483.049 316.817 483.296 318.156 482.622 319.132C481.948 320.108 480.18 320.973 479.201 320.297C478.222 319.621 477.999 317.381 478.673 316.405Z" fill="#1B3D79"/>
<path fill-rule="evenodd" clip-rule="evenodd" d="M470.522 310.776C471.196 309.8 472.941 309.836 473.92 310.512C474.89 311.182 475.137 312.521 474.463 313.497C473.789 314.473 472.02 315.338 471.05 314.668C470.071 313.992 469.848 311.752 470.522 310.776Z" fill="#1B3D79"/>
<path fill-rule="evenodd" clip-rule="evenodd" d="M462.371 305.147C463.045 304.171 464.781 304.202 465.76 304.878C466.739 305.554 466.986 306.893 466.312 307.869C465.638 308.844 463.869 309.709 462.891 309.033C461.912 308.357 461.697 306.123 462.371 305.147Z" fill="#1B3D79"/>
<path fill-rule="evenodd" clip-rule="evenodd" d="M679.543 444.074C680.217 443.098 681.958 443.132 682.935 443.807C683.912 444.482 684.158 445.82 683.484 446.796C682.81 447.772 681.042 448.637 680.065 447.963C679.088 447.288 678.869 445.05 679.543 444.074Z" fill="#1B3D79"/>
<path fill-rule="evenodd" clip-rule="evenodd" d="M671.388 438.443C672.061 437.467 673.803 437.501 674.78 438.175C675.757 438.85 676.003 440.189 675.329 441.164C674.655 442.14 672.887 443.006 671.91 442.331C670.933 441.656 670.714 439.419 671.388 438.443Z" fill="#1B3D79"/>
<path fill-rule="evenodd" clip-rule="evenodd" d="M663.234 432.812C663.908 431.836 665.649 431.87 666.626 432.545C667.603 433.219 667.849 434.558 667.175 435.534C666.501 436.51 664.734 437.375 663.757 436.7C662.78 436.025 662.56 433.788 663.234 432.812Z" fill="#1B3D79"/>
<path fill-rule="evenodd" clip-rule="evenodd" d="M655.08 427.181C655.754 426.205 657.495 426.239 658.472 426.913C659.449 427.588 659.695 428.927 659.021 429.903C658.347 430.878 656.58 431.744 655.602 431.069C654.625 430.394 654.406 428.157 655.08 427.181Z" fill="#1B3D79"/>
<path fill-rule="evenodd" clip-rule="evenodd" d="M646.926 421.55C647.599 420.574 649.341 420.608 650.318 421.282C651.295 421.957 651.541 423.296 650.867 424.271C650.193 425.247 648.425 426.113 647.448 425.438C646.471 424.763 646.252 422.526 646.926 421.55Z" fill="#1B3D79"/>
<path fill-rule="evenodd" clip-rule="evenodd" d="M638.773 415.92C639.447 414.944 641.183 414.974 642.164 415.651C643.141 416.326 643.387 417.664 642.713 418.64C642.039 419.616 640.271 420.481 639.294 419.807C638.313 419.13 638.099 416.896 638.773 415.92Z" fill="#1B3D79"/>
<path fill-rule="evenodd" clip-rule="evenodd" d="M630.614 410.285C631.288 409.309 633.032 409.345 634.011 410.021C634.99 410.697 635.228 412.03 634.554 413.006C633.88 413.982 632.12 414.853 631.141 414.177C630.163 413.501 629.94 411.261 630.614 410.285Z" fill="#1B3D79"/>
<path fill-rule="evenodd" clip-rule="evenodd" d="M614.312 399.027C614.986 398.051 616.722 398.082 617.701 398.758C618.68 399.434 618.926 400.773 618.252 401.748C617.578 402.724 615.81 403.589 614.831 402.913C613.852 402.237 613.638 400.003 614.312 399.027Z" fill="#1B3D79"/>
<path fill-rule="evenodd" clip-rule="evenodd" d="M598.002 387.764C598.676 386.788 600.42 386.824 601.391 387.494C602.369 388.17 602.616 389.509 601.942 390.485C601.268 391.461 599.5 392.326 598.521 391.65C597.551 390.979 597.328 388.74 598.002 387.764Z" fill="#1B3D79"/>
<path fill-rule="evenodd" clip-rule="evenodd" d="M589.851 382.135C590.525 381.159 592.261 381.189 593.24 381.865C594.218 382.541 594.465 383.88 593.791 384.856C593.117 385.832 591.349 386.697 590.37 386.021C589.391 385.345 589.177 383.111 589.851 382.135Z" fill="#1B3D79"/>
<path fill-rule="evenodd" clip-rule="evenodd" d="M581.691 376.5C582.365 375.524 584.11 375.56 585.089 376.236C586.059 376.906 586.306 378.246 585.632 379.221C584.958 380.197 583.189 381.062 582.219 380.392C581.24 379.716 581.018 377.476 581.691 376.5Z" fill="#1B3D79"/>
<path fill-rule="evenodd" clip-rule="evenodd" d="M573.541 370.871C574.214 369.895 575.951 369.926 576.929 370.602C577.908 371.278 578.155 372.617 577.481 373.593C576.807 374.568 575.039 375.433 574.06 374.757C573.081 374.081 572.867 371.847 573.541 370.871Z" fill="#1B3D79"/>
<path fill-rule="evenodd" clip-rule="evenodd" d="M565.381 365.237C566.055 364.261 567.8 364.297 568.779 364.973C569.757 365.649 569.996 366.982 569.322 367.958C568.648 368.934 566.888 369.804 565.909 369.128C564.93 368.452 564.707 366.213 565.381 365.237Z" fill="#1B3D79"/>
<path fill-rule="evenodd" clip-rule="evenodd" d="M557.23 359.608C557.904 358.632 559.649 358.668 560.619 359.338C561.598 360.014 561.845 361.353 561.171 362.329C560.497 363.305 558.728 364.17 557.75 363.494C556.779 362.824 556.557 360.584 557.23 359.608Z" fill="#1B3D79"/>
<path fill-rule="evenodd" clip-rule="evenodd" d="M549.079 353.979C549.753 353.003 551.49 353.033 552.468 353.709C553.447 354.385 553.694 355.724 553.02 356.7C552.346 357.676 550.577 358.541 549.599 357.865C548.62 357.189 548.406 354.955 549.079 353.979Z" fill="#1B3D79"/>
<path fill-rule="evenodd" clip-rule="evenodd" d="M524.61 337.081C525.284 336.105 527.028 336.141 528.007 336.817C528.986 337.493 529.233 338.832 528.559 339.808C527.885 340.784 526.116 341.648 525.138 340.972C524.159 340.297 523.936 338.057 524.61 337.081Z" fill="#1B3D79"/>
<path fill-rule="evenodd" clip-rule="evenodd" d="M516.459 331.452C517.133 330.476 518.878 330.512 519.848 331.182C520.827 331.858 521.073 333.197 520.4 334.173C519.726 335.149 517.957 336.014 516.978 335.338C516.008 334.668 515.785 332.428 516.459 331.452Z" fill="#1B3D79"/>
<path fill-rule="evenodd" clip-rule="evenodd" d="M508.308 325.823C508.982 324.847 510.718 324.877 511.697 325.553C512.676 326.229 512.922 327.568 512.249 328.544C511.575 329.52 509.806 330.385 508.827 329.709C507.849 329.033 507.634 326.799 508.308 325.823Z" fill="#1B3D79"/>
<path fill-rule="evenodd" clip-rule="evenodd" d="M500.149 320.188C500.823 319.213 502.567 319.249 503.546 319.925C504.525 320.601 504.763 321.934 504.089 322.91C503.415 323.885 501.655 324.756 500.676 324.08C499.698 323.404 499.475 321.164 500.149 320.188Z" fill="#1B3D79"/>
<path fill-rule="evenodd" clip-rule="evenodd" d="M491.998 314.56C492.672 313.584 494.417 313.62 495.387 314.29C496.366 314.966 496.612 316.305 495.938 317.281C495.265 318.257 493.496 319.121 492.517 318.445C491.547 317.775 491.324 315.535 491.998 314.56Z" fill="#1B3D79"/>
<path fill-rule="evenodd" clip-rule="evenodd" d="M483.839 308.925C484.513 307.949 486.257 307.985 487.236 308.661C488.215 309.337 488.461 310.676 487.788 311.652C487.114 312.628 485.345 313.493 484.366 312.817C483.387 312.141 483.165 309.901 483.839 308.925Z" fill="#1B3D79"/>
<path fill-rule="evenodd" clip-rule="evenodd" d="M475.688 303.296C476.362 302.32 478.106 302.356 479.085 303.032C480.055 303.702 480.302 305.041 479.628 306.017C478.954 306.993 477.186 307.858 476.215 307.188C475.237 306.512 475.014 304.272 475.688 303.296Z" fill="#1B3D79"/>
<path fill-rule="evenodd" clip-rule="evenodd" d="M467.537 297.667C468.211 296.691 469.947 296.722 470.926 297.398C471.905 298.074 472.151 299.413 471.477 300.388C470.803 301.364 469.035 302.229 468.056 301.553C467.077 300.877 466.863 298.643 467.537 297.667Z" fill="#1B3D79"/>
<path fill-rule="evenodd" clip-rule="evenodd" d="M684.708 436.595C685.381 435.619 687.123 435.653 688.1 436.328C689.077 437.003 689.323 438.341 688.649 439.317C687.975 440.293 686.207 441.158 685.23 440.483C684.253 439.809 684.034 437.571 684.708 436.595Z" fill="#1B3D79"/>
<path fill-rule="evenodd" clip-rule="evenodd" d="M676.552 430.963C677.226 429.988 678.968 430.021 679.945 430.696C680.922 431.371 681.168 432.709 680.494 433.685C679.82 434.661 678.052 435.526 677.075 434.852C676.098 434.177 675.879 431.939 676.552 430.963Z" fill="#1B3D79"/>
<path fill-rule="evenodd" clip-rule="evenodd" d="M668.399 425.333C669.073 424.357 670.814 424.391 671.791 425.065C672.768 425.74 673.014 427.079 672.34 428.055C671.666 429.03 669.899 429.896 668.922 429.221C667.945 428.546 667.725 426.309 668.399 425.333Z" fill="#1B3D79"/>
<path fill-rule="evenodd" clip-rule="evenodd" d="M660.245 419.702C660.919 418.726 662.66 418.76 663.637 419.434C664.614 420.109 664.86 421.448 664.186 422.423C663.512 423.399 661.744 424.265 660.767 423.59C659.79 422.915 659.571 420.678 660.245 419.702Z" fill="#1B3D79"/>
<path fill-rule="evenodd" clip-rule="evenodd" d="M652.091 414.071C652.764 413.095 654.506 413.128 655.483 413.803C656.46 414.478 656.706 415.816 656.032 416.792C655.358 417.768 653.59 418.633 652.613 417.959C651.636 417.284 651.417 415.046 652.091 414.071Z" fill="#1B3D79"/>
<path fill-rule="evenodd" clip-rule="evenodd" d="M643.938 408.44C644.612 407.465 646.348 407.495 647.329 408.172C648.306 408.847 648.551 410.185 647.878 411.161C647.204 412.137 645.436 413.002 644.459 412.327C643.478 411.65 643.264 409.416 643.938 408.44Z" fill="#1B3D79"/>
<path fill-rule="evenodd" clip-rule="evenodd" d="M627.628 397.177C628.302 396.201 630.046 396.237 631.025 396.913C631.995 397.583 632.242 398.922 631.568 399.898C630.894 400.874 629.126 401.739 628.155 401.069C627.177 400.393 626.954 398.153 627.628 397.177Z" fill="#1B3D79"/>
<path fill-rule="evenodd" clip-rule="evenodd" d="M619.477 391.548C620.151 390.572 621.887 390.603 622.866 391.278C623.845 391.954 624.091 393.293 623.417 394.269C622.743 395.245 620.975 396.11 619.996 395.434C619.017 394.758 618.803 392.524 619.477 391.548Z" fill="#1B3D79"/>
<path fill-rule="evenodd" clip-rule="evenodd" d="M611.318 385.913C611.991 384.938 613.736 384.974 614.715 385.65C615.694 386.326 615.932 387.659 615.258 388.635C614.584 389.611 612.824 390.481 611.845 389.805C610.866 389.129 610.644 386.889 611.318 385.913Z" fill="#1B3D79"/>
<path fill-rule="evenodd" clip-rule="evenodd" d="M603.167 380.285C603.841 379.309 605.585 379.345 606.556 380.015C607.534 380.691 607.781 382.03 607.107 383.006C606.433 383.982 604.665 384.846 603.686 384.17C602.716 383.5 602.493 381.26 603.167 380.285Z" fill="#1B3D79"/>
<path fill-rule="evenodd" clip-rule="evenodd" d="M595.016 374.656C595.69 373.68 597.426 373.71 598.405 374.386C599.383 375.062 599.63 376.401 598.956 377.377C598.282 378.353 596.514 379.218 595.535 378.542C594.556 377.866 594.342 375.632 595.016 374.656Z" fill="#1B3D79"/>
<path fill-rule="evenodd" clip-rule="evenodd" d="M586.856 369.021C587.53 368.045 589.275 368.081 590.254 368.757C591.224 369.427 591.471 370.766 590.797 371.742C590.123 372.718 588.354 373.583 587.384 372.913C586.405 372.237 586.183 369.997 586.856 369.021Z" fill="#1B3D79"/>
<path fill-rule="evenodd" clip-rule="evenodd" d="M578.706 363.392C579.379 362.416 581.116 362.447 582.094 363.123C583.073 363.798 583.32 365.138 582.646 366.113C581.972 367.089 580.204 367.954 579.225 367.278C578.246 366.602 578.032 364.368 578.706 363.392Z" fill="#1B3D79"/>
<path fill-rule="evenodd" clip-rule="evenodd" d="M570.546 357.758C571.22 356.782 572.965 356.818 573.944 357.494C574.922 358.17 575.161 359.503 574.487 360.479C573.813 361.455 572.053 362.325 571.074 361.649C570.095 360.973 569.872 358.733 570.546 357.758Z" fill="#1B3D79"/>
<path fill-rule="evenodd" clip-rule="evenodd" d="M562.395 352.129C563.069 351.153 564.814 351.189 565.784 351.859C566.763 352.535 567.01 353.874 566.336 354.85C565.662 355.826 563.893 356.69 562.915 356.015C561.944 355.344 561.721 353.105 562.395 352.129Z" fill="#1B3D79"/>
<path fill-rule="evenodd" clip-rule="evenodd" d="M554.244 346.5C554.918 345.524 556.655 345.554 557.633 346.23C558.612 346.906 558.859 348.245 558.185 349.221C557.511 350.197 555.742 351.062 554.764 350.386C553.785 349.71 553.571 347.476 554.244 346.5Z" fill="#1B3D79"/>
<path fill-rule="evenodd" clip-rule="evenodd" d="M546.085 340.865C546.759 339.889 548.504 339.925 549.482 340.601C550.453 341.271 550.699 342.61 550.026 343.586C549.352 344.562 547.583 345.427 546.613 344.757C545.634 344.081 545.411 341.841 546.085 340.865Z" fill="#1B3D79"/>
<path fill-rule="evenodd" clip-rule="evenodd" d="M537.934 335.236C538.608 334.26 540.344 334.291 541.323 334.967C542.302 335.643 542.549 336.982 541.875 337.958C541.201 338.933 539.432 339.798 538.453 339.122C537.475 338.446 537.26 336.212 537.934 335.236Z" fill="#1B3D79"/>
<path fill-rule="evenodd" clip-rule="evenodd" d="M521.624 323.973C522.298 322.997 524.043 323.033 525.013 323.703C525.992 324.379 526.238 325.718 525.564 326.694C524.891 327.67 523.122 328.535 522.143 327.859C521.173 327.188 520.95 324.949 521.624 323.973Z" fill="#1B3D79"/>
<path fill-rule="evenodd" clip-rule="evenodd" d="M513.473 318.344C514.147 317.368 515.883 317.398 516.862 318.074C517.841 318.75 518.088 320.089 517.414 321.065C516.74 322.041 514.971 322.906 513.992 322.23C513.014 321.554 512.799 319.32 513.473 318.344Z" fill="#1B3D79"/>
<path fill-rule="evenodd" clip-rule="evenodd" d="M505.314 312.709C505.988 311.733 507.732 311.769 508.711 312.445C509.69 313.121 509.928 314.455 509.254 315.43C508.58 316.406 506.82 317.277 505.841 316.601C504.863 315.925 504.64 313.685 505.314 312.709Z" fill="#1B3D79"/>
<path fill-rule="evenodd" clip-rule="evenodd" d="M497.163 307.08C497.837 306.105 499.582 306.141 500.552 306.811C501.531 307.487 501.777 308.826 501.103 309.802C500.429 310.778 498.661 311.642 497.682 310.966C496.712 310.296 496.489 308.056 497.163 307.08Z" fill="#1B3D79"/>
<path fill-rule="evenodd" clip-rule="evenodd" d="M489.004 301.446C489.678 300.47 491.422 300.506 492.401 301.182C493.38 301.858 493.626 303.197 492.953 304.173C492.279 305.149 490.51 306.013 489.531 305.337C488.553 304.661 488.33 302.422 489.004 301.446Z" fill="#1B3D79"/>
<path fill-rule="evenodd" clip-rule="evenodd" d="M480.853 295.817C481.527 294.841 483.271 294.877 484.25 295.553C485.22 296.223 485.467 297.562 484.793 298.538C484.119 299.514 482.351 300.379 481.38 299.709C480.402 299.033 480.179 296.793 480.853 295.817Z" fill="#1B3D79"/>
<path fill-rule="evenodd" clip-rule="evenodd" d="M689.874 429.114C690.548 428.138 692.289 428.172 693.266 428.847C694.243 429.522 694.489 430.86 693.815 431.836C693.141 432.812 691.373 433.677 690.396 433.002C689.419 432.328 689.2 430.09 689.874 429.114Z" fill="#1B3D79"/>
<path fill-rule="evenodd" clip-rule="evenodd" d="M681.719 423.483C682.393 422.507 684.134 422.541 685.111 423.215C686.088 423.89 686.334 425.229 685.66 426.204C684.986 427.18 683.218 428.046 682.241 427.371C681.264 426.696 681.045 424.458 681.719 423.483Z" fill="#1B3D79"/>
<path fill-rule="evenodd" clip-rule="evenodd" d="M673.565 417.852C674.239 416.876 675.98 416.91 676.957 417.585C677.935 418.259 678.18 419.598 677.506 420.574C676.833 421.55 675.065 422.415 674.088 421.74C673.111 421.065 672.891 418.828 673.565 417.852Z" fill="#1B3D79"/>
<path fill-rule="evenodd" clip-rule="evenodd" d="M657.257 406.59C657.931 405.614 659.672 405.647 660.649 406.322C661.626 406.997 661.872 408.335 661.198 409.311C660.524 410.287 658.756 411.152 657.779 410.478C656.802 409.803 656.583 407.565 657.257 406.59Z" fill="#1B3D79"/>
<path fill-rule="evenodd" clip-rule="evenodd" d="M649.104 400.96C649.778 399.984 651.514 400.014 652.495 400.691C653.472 401.366 653.718 402.704 653.044 403.68C652.37 404.656 650.602 405.521 649.625 404.847C648.645 404.17 648.43 401.936 649.104 400.96Z" fill="#1B3D79"/>
<path fill-rule="evenodd" clip-rule="evenodd" d="M609.358 406.201C610.032 405.225 611.768 405.255 612.747 405.931C613.726 406.607 613.972 407.946 613.299 408.922C612.625 409.898 610.856 410.762 609.877 410.086C608.899 409.41 608.684 407.176 609.358 406.201Z" fill="#1B3D79"/>
<path fill-rule="evenodd" clip-rule="evenodd" d="M622.675 404.349C623.349 403.374 625.093 403.41 626.072 404.086C627.042 404.756 627.289 406.095 626.615 407.071C625.941 408.047 624.173 408.911 623.202 408.241C622.224 407.565 622.001 405.325 622.675 404.349Z" fill="#1B3D79"/>
<path fill-rule="evenodd" clip-rule="evenodd" d="M640.945 395.325C641.619 394.349 643.363 394.385 644.342 395.061C645.321 395.737 645.559 397.07 644.885 398.046C644.211 399.022 642.451 399.892 641.472 399.217C640.494 398.541 640.271 396.301 640.945 395.325Z" fill="#1B3D79"/>
<path fill-rule="evenodd" clip-rule="evenodd" d="M632.794 389.696C633.468 388.72 635.212 388.756 636.191 389.432C637.162 390.102 637.408 391.441 636.734 392.417C636.06 393.393 634.292 394.258 633.322 393.588C632.343 392.912 632.12 390.672 632.794 389.696Z" fill="#1B3D79"/>
<path fill-rule="evenodd" clip-rule="evenodd" d="M624.643 384.067C625.317 383.091 627.053 383.122 628.032 383.798C629.011 384.474 629.257 385.813 628.583 386.788C627.91 387.764 626.141 388.629 625.162 387.953C624.183 387.277 623.969 385.043 624.643 384.067Z" fill="#1B3D79"/>
<path fill-rule="evenodd" clip-rule="evenodd" d="M616.484 378.433C617.158 377.457 618.902 377.493 619.881 378.169C620.86 378.845 621.098 380.178 620.424 381.154C619.75 382.13 617.99 383 617.011 382.324C616.033 381.648 615.81 379.408 616.484 378.433Z" fill="#1B3D79"/>
<path fill-rule="evenodd" clip-rule="evenodd" d="M608.333 372.804C609.007 371.828 610.751 371.864 611.722 372.534C612.701 373.21 612.947 374.549 612.273 375.525C611.599 376.501 609.831 377.365 608.852 376.69C607.882 376.019 607.659 373.78 608.333 372.804Z" fill="#1B3D79"/>
<path fill-rule="evenodd" clip-rule="evenodd" d="M600.182 367.175C600.856 366.199 602.592 366.229 603.571 366.905C604.55 367.581 604.796 368.92 604.122 369.896C603.448 370.872 601.68 371.737 600.701 371.061C599.722 370.385 599.508 368.151 600.182 367.175Z" fill="#1B3D79"/>
<path fill-rule="evenodd" clip-rule="evenodd" d="M592.023 361.54C592.697 360.564 594.441 360.6 595.42 361.276C596.39 361.946 596.637 363.286 595.963 364.261C595.289 365.237 593.521 366.102 592.55 365.432C591.571 364.756 591.349 362.516 592.023 361.54Z" fill="#1B3D79"/>
<path fill-rule="evenodd" clip-rule="evenodd" d="M583.872 355.911C584.546 354.935 586.282 354.966 587.261 355.642C588.239 356.318 588.486 357.657 587.812 358.633C587.138 359.608 585.37 360.473 584.391 359.797C583.412 359.121 583.198 356.887 583.872 355.911Z" fill="#1B3D79"/>
<path fill-rule="evenodd" clip-rule="evenodd" d="M575.712 350.277C576.386 349.301 578.131 349.337 579.11 350.013C580.088 350.689 580.327 352.022 579.653 352.998C578.979 353.974 577.219 354.844 576.24 354.168C575.261 353.492 575.038 351.253 575.712 350.277Z" fill="#1B3D79"/>
<path fill-rule="evenodd" clip-rule="evenodd" d="M567.561 344.648C568.235 343.672 569.98 343.708 570.95 344.378C571.929 345.054 572.176 346.393 571.502 347.369C570.828 348.345 569.059 349.21 568.081 348.534C567.11 347.863 566.888 345.624 567.561 344.648Z" fill="#1B3D79"/>
<path fill-rule="evenodd" clip-rule="evenodd" d="M559.411 339.019C560.085 338.043 561.821 338.073 562.799 338.749C563.778 339.425 564.025 340.764 563.351 341.74C562.677 342.716 560.909 343.581 559.93 342.905C558.951 342.229 558.737 339.995 559.411 339.019Z" fill="#1B3D79"/>
<path fill-rule="evenodd" clip-rule="evenodd" d="M551.251 333.384C551.925 332.408 553.67 332.445 554.649 333.121C555.619 333.791 555.866 335.13 555.192 336.106C554.518 337.081 552.749 337.946 551.779 337.276C550.8 336.6 550.577 334.36 551.251 333.384Z" fill="#1B3D79"/>
<path fill-rule="evenodd" clip-rule="evenodd" d="M543.1 327.756C543.774 326.78 545.511 326.81 546.489 327.486C547.468 328.162 547.715 329.501 547.041 330.477C546.367 331.453 544.598 332.317 543.62 331.641C542.641 330.965 542.426 328.731 543.1 327.756Z" fill="#1B3D79"/>
<path fill-rule="evenodd" clip-rule="evenodd" d="M534.941 322.121C535.615 321.145 537.36 321.181 538.338 321.857C539.317 322.533 539.564 323.872 538.89 324.848C538.216 325.824 536.447 326.688 535.469 326.012C534.49 325.337 534.267 323.097 534.941 322.121Z" fill="#1B3D79"/>
<path fill-rule="evenodd" clip-rule="evenodd" d="M526.79 316.492C527.464 315.516 529.209 315.552 530.179 316.222C531.158 316.898 531.405 318.237 530.731 319.213C530.057 320.189 528.288 321.054 527.309 320.378C526.339 319.708 526.116 317.468 526.79 316.492Z" fill="#1B3D79"/>
<path fill-rule="evenodd" clip-rule="evenodd" d="M510.48 305.228C511.154 304.253 512.899 304.289 513.877 304.965C514.856 305.641 515.094 306.974 514.42 307.95C513.746 308.925 511.986 309.796 511.008 309.12C510.029 308.444 509.806 306.204 510.48 305.228Z" fill="#1B3D79"/>
<path fill-rule="evenodd" clip-rule="evenodd" d="M560.428 372.41C561.101 371.434 562.846 371.47 563.825 372.146C564.804 372.822 565.042 374.155 564.368 375.131C563.694 376.107 561.934 376.978 560.955 376.302C559.976 375.626 559.754 373.386 560.428 372.41Z" fill="#1B3D79"/>
<path fill-rule="evenodd" clip-rule="evenodd" d="M552.277 366.781C552.951 365.805 554.695 365.841 555.666 366.511C556.644 367.187 556.891 368.526 556.217 369.502C555.543 370.478 553.775 371.343 552.796 370.667C551.825 369.997 551.603 367.757 552.277 366.781Z" fill="#1B3D79"/>
<path fill-rule="evenodd" clip-rule="evenodd" d="M541.132 348.038C541.806 347.062 543.551 347.098 544.529 347.774C545.5 348.444 545.746 349.783 545.072 350.759C544.399 351.735 542.63 352.599 541.66 351.929C540.681 351.253 540.458 349.013 541.132 348.038Z" fill="#1B3D79"/>
<path fill-rule="evenodd" clip-rule="evenodd" d="M532.981 342.409C533.655 341.433 535.391 341.463 536.37 342.139C537.349 342.815 537.595 344.154 536.922 345.13C536.248 346.106 534.479 346.971 533.5 346.295C532.522 345.619 532.307 343.385 532.981 342.409Z" fill="#1B3D79"/>
<path fill-rule="evenodd" clip-rule="evenodd" d="M529.987 329.294C530.661 328.318 532.406 328.354 533.385 329.03C534.363 329.706 534.61 331.045 533.936 332.021C533.262 332.997 531.494 333.862 530.515 333.186C529.536 332.51 529.313 330.27 529.987 329.294Z" fill="#1B3D79"/>
<path fill-rule="evenodd" clip-rule="evenodd" d="M518.851 310.557C519.524 309.581 521.261 309.612 522.239 310.288C523.218 310.963 523.465 312.303 522.791 313.278C522.117 314.254 520.349 315.119 519.37 314.443C518.391 313.767 518.177 311.533 518.851 310.557Z" fill="#1B3D79"/>
<path fill-rule="evenodd" clip-rule="evenodd" d="M502.329 299.6C503.003 298.624 504.748 298.66 505.718 299.33C506.697 300.006 506.943 301.345 506.27 302.321C505.596 303.297 503.827 304.161 502.848 303.485C501.878 302.815 501.655 300.575 502.329 299.6Z" fill="#1B3D79"/>
<path fill-rule="evenodd" clip-rule="evenodd" d="M494.17 293.965C494.844 292.989 496.588 293.025 497.567 293.701C498.546 294.377 498.793 295.716 498.119 296.692C497.445 297.668 495.676 298.532 494.697 297.857C493.719 297.181 493.496 294.941 494.17 293.965Z" fill="#1B3D79"/>
<path fill-rule="evenodd" clip-rule="evenodd" d="M486.019 288.336C486.693 287.36 488.437 287.396 489.416 288.072C490.387 288.742 490.633 290.081 489.959 291.057C489.285 292.033 487.517 292.898 486.546 292.228C485.568 291.552 485.345 289.312 486.019 288.336Z" fill="#1B3D79"/>
<path fill-rule="evenodd" clip-rule="evenodd" d="M695.039 421.634C695.713 420.658 697.454 420.692 698.432 421.367C699.409 422.042 699.655 423.38 698.981 424.356C698.307 425.332 696.539 426.197 695.562 425.522C694.585 424.848 694.365 422.61 695.039 421.634Z" fill="#1B3D79"/>
<path fill-rule="evenodd" clip-rule="evenodd" d="M678.731 410.372C679.405 409.396 681.146 409.43 682.123 410.105C683.1 410.779 683.346 412.118 682.672 413.094C681.998 414.07 680.23 414.935 679.253 414.26C678.276 413.585 678.057 411.348 678.731 410.372Z" fill="#1B3D79"/>
<path fill-rule="evenodd" clip-rule="evenodd" d="M670.577 404.741C671.25 403.765 672.992 403.799 673.969 404.473C674.946 405.148 675.192 406.487 674.518 407.463C673.844 408.438 672.076 409.304 671.099 408.629C670.122 407.954 669.903 405.717 670.577 404.741Z" fill="#1B3D79"/>
<path fill-rule="evenodd" clip-rule="evenodd" d="M662.422 399.11C663.096 398.134 664.837 398.168 665.815 398.842C666.792 399.517 667.037 400.856 666.364 401.831C665.69 402.807 663.922 403.673 662.945 402.998C661.968 402.323 661.748 400.086 662.422 399.11Z" fill="#1B3D79"/>
<path fill-rule="evenodd" clip-rule="evenodd" d="M646.11 387.845C646.784 386.869 648.529 386.905 649.508 387.581C650.486 388.257 650.725 389.59 650.051 390.566C649.377 391.542 647.617 392.413 646.638 391.737C645.659 391.061 645.436 388.821 646.11 387.845Z" fill="#1B3D79"/>
<path fill-rule="evenodd" clip-rule="evenodd" d="M637.959 382.216C638.633 381.24 640.378 381.276 641.357 381.952C642.327 382.622 642.574 383.961 641.9 384.937C641.226 385.913 639.457 386.778 638.487 386.108C637.508 385.432 637.286 383.192 637.959 382.216Z" fill="#1B3D79"/>
<path fill-rule="evenodd" clip-rule="evenodd" d="M629.809 376.587C630.483 375.611 632.219 375.642 633.197 376.318C634.176 376.993 634.423 378.333 633.749 379.308C633.075 380.284 631.307 381.149 630.328 380.473C629.349 379.797 629.135 377.563 629.809 376.587Z" fill="#1B3D79"/>
<path fill-rule="evenodd" clip-rule="evenodd" d="M621.649 370.953C622.323 369.977 624.068 370.013 625.047 370.689C626.025 371.365 626.264 372.698 625.59 373.674C624.916 374.65 623.156 375.52 622.177 374.844C621.198 374.168 620.975 371.928 621.649 370.953Z" fill="#1B3D79"/>
<path fill-rule="evenodd" clip-rule="evenodd" d="M613.498 365.324C614.172 364.348 615.917 364.384 616.887 365.054C617.866 365.73 618.113 367.069 617.439 368.045C616.765 369.021 614.996 369.885 614.018 369.209C613.047 368.539 612.824 366.3 613.498 365.324Z" fill="#1B3D79"/>
<path fill-rule="evenodd" clip-rule="evenodd" d="M605.347 359.695C606.021 358.719 607.758 358.749 608.736 359.425C609.715 360.101 609.962 361.44 609.288 362.416C608.614 363.392 606.845 364.257 605.867 363.581C604.888 362.905 604.674 360.671 605.347 359.695Z" fill="#1B3D79"/>
<path fill-rule="evenodd" clip-rule="evenodd" d="M597.188 354.06C597.862 353.084 599.607 353.12 600.585 353.796C601.556 354.466 601.802 355.806 601.129 356.781C600.455 357.757 598.686 358.622 597.716 357.952C596.737 357.276 596.514 355.036 597.188 354.06Z" fill="#1B3D79"/>
<path fill-rule="evenodd" clip-rule="evenodd" d="M589.037 348.431C589.711 347.455 591.447 347.486 592.426 348.162C593.405 348.838 593.652 350.177 592.978 351.152C592.304 352.128 590.535 352.993 589.556 352.317C588.578 351.641 588.363 349.407 589.037 348.431Z" fill="#1B3D79"/>
<path fill-rule="evenodd" clip-rule="evenodd" d="M580.878 342.797C581.552 341.821 583.296 341.857 584.275 342.533C585.254 343.209 585.492 344.542 584.818 345.518C584.144 346.494 582.384 347.364 581.406 346.688C580.427 346.012 580.204 343.773 580.878 342.797Z" fill="#1B3D79"/>
<path fill-rule="evenodd" clip-rule="evenodd" d="M572.727 337.168C573.401 336.192 575.146 336.228 576.116 336.898C577.095 337.574 577.341 338.913 576.667 339.889C575.994 340.865 574.225 341.73 573.246 341.054C572.276 340.384 572.053 338.144 572.727 337.168Z" fill="#1B3D79"/>
<path fill-rule="evenodd" clip-rule="evenodd" d="M564.576 331.539C565.25 330.563 566.986 330.593 567.965 331.269C568.944 331.945 569.191 333.284 568.517 334.26C567.843 335.236 566.074 336.101 565.095 335.425C564.117 334.749 563.902 332.515 564.576 331.539Z" fill="#1B3D79"/>
<path fill-rule="evenodd" clip-rule="evenodd" d="M556.417 325.904C557.091 324.928 558.835 324.965 559.814 325.64C560.785 326.311 561.031 327.65 560.357 328.625C559.683 329.601 557.915 330.466 556.944 329.796C555.966 329.12 555.743 326.88 556.417 325.904Z" fill="#1B3D79"/>
<path fill-rule="evenodd" clip-rule="evenodd" d="M548.266 320.275C548.94 319.3 550.676 319.33 551.655 320.006C552.634 320.682 552.88 322.021 552.206 322.997C551.532 323.973 549.764 324.837 548.785 324.161C547.806 323.485 547.592 321.251 548.266 320.275Z" fill="#1B3D79"/>
<path fill-rule="evenodd" clip-rule="evenodd" d="M540.107 314.641C540.781 313.665 542.525 313.701 543.504 314.377C544.483 315.053 544.729 316.392 544.055 317.368C543.382 318.344 541.613 319.208 540.634 318.532C539.655 317.856 539.433 315.617 540.107 314.641Z" fill="#1B3D79"/>
<path fill-rule="evenodd" clip-rule="evenodd" d="M531.956 309.012C532.63 308.036 534.374 308.072 535.345 308.742C536.323 309.418 536.57 310.757 535.896 311.733C535.222 312.709 533.454 313.574 532.475 312.898C531.505 312.228 531.282 309.988 531.956 309.012Z" fill="#1B3D79"/>
<path fill-rule="evenodd" clip-rule="evenodd" d="M523.805 303.383C524.479 302.407 526.215 302.437 527.194 303.113C528.173 303.789 528.419 305.128 527.745 306.104C527.071 307.08 525.303 307.945 524.324 307.269C523.345 306.593 523.131 304.359 523.805 303.383Z" fill="#1B3D79"/>
<path fill-rule="evenodd" clip-rule="evenodd" d="M507.495 292.12C508.169 291.144 509.913 291.18 510.883 291.85C511.862 292.526 512.109 293.865 511.435 294.841C510.761 295.817 508.993 296.681 508.014 296.005C507.043 295.335 506.821 293.095 507.495 292.12Z" fill="#1B3D79"/>
<path fill-rule="evenodd" clip-rule="evenodd" d="M499.335 286.485C500.009 285.509 501.754 285.545 502.733 286.221C503.711 286.897 503.958 288.236 503.284 289.212C502.61 290.188 500.842 291.052 499.863 290.376C498.884 289.701 498.661 287.461 499.335 286.485Z" fill="#1B3D79"/>
<path fill-rule="evenodd" clip-rule="evenodd" d="M491.184 280.856C491.858 279.88 493.603 279.916 494.582 280.592C495.552 281.262 495.799 282.601 495.125 283.577C494.451 284.553 492.682 285.418 491.712 284.748C490.733 284.072 490.51 281.832 491.184 280.856Z" fill="#1B3D79"/>
<path fill-rule="evenodd" clip-rule="evenodd" d="M483.034 275.227C483.708 274.251 485.444 274.282 486.422 274.958C487.401 275.634 487.648 276.973 486.974 277.948C486.3 278.924 484.532 279.789 483.553 279.113C482.574 278.437 482.36 276.203 483.034 275.227Z" fill="#1B3D79"/>
</g>
<defs>
<filter id="filter0_d" x="-78.7587" y="381.21" width="1014.55" height="571.467" filterUnits="userSpaceOnUse" color-interpolation-filters="sRGB">
<feFlood flood-opacity="0" result="BackgroundImageFix"/>
<feColorMatrix in="SourceAlpha" type="matrix" values="0 0 0 0 0 0 0 0 0 0 0 0 0 0 0 0 0 0 127 0"/>
<feOffset dy="5"/>
<feGaussianBlur stdDeviation="2"/>
<feColorMatrix type="matrix" values="0 0 0 0 0.0745098 0 0 0 0 0.192157 0 0 0 0 0.4 0 0 0 0.15 0"/>
<feBlend mode="normal" in2="BackgroundImageFix" result="effect1_dropShadow"/>
<feBlend mode="normal" in="SourceGraphic" in2="effect1_dropShadow" result="shape"/>
</filter>
<filter id="filter1_d" x="372.132" y="236.912" width="387.078" height="348.632" filterUnits="userSpaceOnUse" color-interpolation-filters="sRGB">
<feFlood flood-opacity="0" result="BackgroundImageFix"/>
<feColorMatrix in="SourceAlpha" type="matrix" values="0 0 0 0 0 0 0 0 0 0 0 0 0 0 0 0 0 0 127 0"/>
<feOffset dy="10"/>
<feGaussianBlur stdDeviation="4.5"/>
<feColorMatrix type="matrix" values="0 0 0 0 0.0237674 0 0 0 0 0.0706098 0 0 0 0 0.154167 0 0 0 0.14 0"/>
<feBlend mode="normal" in2="BackgroundImageFix" result="effect1_dropShadow"/>
<feBlend mode="normal" in="SourceGraphic" in2="effect1_dropShadow" result="shape"/>
</filter>
<linearGradient id="paint0_linear" x1="252.71" y1="557.498" x2="494.955" y2="710.112" gradientUnits="userSpaceOnUse">
<stop stop-color="#2E5396"/>
<stop offset="1" stop-color="#224584"/>
</linearGradient>
<clipPath id="clip0">
<rect width="784" height="945" fill="white"/>
</clipPath>
</defs>
</svg>
