<svg width="784" height="853" viewBox="0 0 784 853" fill="none" xmlns="http://www.w3.org/2000/svg">
<g clip-path="url(#clip0)">
<g filter="url(#filter0_d)">
<path fill-rule="evenodd" clip-rule="evenodd" d="M-69.2312 848.549L-52.8318 822.95C-36.6055 796.463 -3.9799 744.377 32.2818 710.971C68.7167 678.454 108.788 664.617 152.495 669.46C196.375 675.193 243.891 699.605 281.538 673.315C319.012 646.135 346.616 568.254 389.284 567.76C431.779 566.376 489.338 642.38 531.833 640.996C574.501 640.502 602.105 562.62 633.346 503.418C664.759 445.106 699.809 405.473 743.689 411.206C787.396 416.049 839.934 466.256 866.202 491.36L892.471 516.464L847.626 286.081L827.591 293C807.555 299.918 767.484 313.755 727.413 327.592C687.343 341.428 647.272 355.265 607.201 369.102C567.13 382.939 527.059 396.776 486.988 410.613C446.917 424.449 406.846 438.286 366.775 452.123C326.704 465.96 286.633 479.797 246.562 493.634C206.491 507.471 166.42 521.307 126.35 535.144C86.2786 548.981 46.2077 562.818 6.13676 576.655C-33.9342 590.492 -74.0051 604.328 -94.0406 611.247L-114.076 618.165L-69.2312 848.549Z" fill="url(#paint0_linear)"/>
</g>
<path fill-rule="evenodd" clip-rule="evenodd" d="M741.702 -257L-220 75.0841L-104.922 666.281L-104.434 666.112L-71.4821 835.397L-55.0827 809.799C-38.8565 783.312 -6.23085 731.226 30.0309 697.82C66.4657 665.303 106.537 651.466 150.244 656.309C162.058 657.852 174.135 660.75 186.212 663.647C218.994 671.511 251.776 679.376 279.287 660.164C294.12 649.405 307.407 630.702 320.694 612C340.974 583.453 361.255 554.907 387.033 554.608C408.281 553.916 433.294 572.571 458.307 591.226C483.321 609.882 508.334 628.537 529.582 627.845C563.953 627.447 588.55 576.83 613.146 526.214C619.083 513.996 625.02 501.778 631.095 490.267C662.508 431.955 697.558 392.322 741.438 398.054C785.145 402.897 837.682 453.104 863.951 478.209L863.951 478.209L890.22 503.313L845.375 272.93L844.888 273.098L741.702 -257Z" fill="#133166"/>
<path d="M174.885 225.607C189.437 315.629 153.556 412.821 74.9251 458.942C-3.35333 505.117 -125.086 500.116 -173.999 444.52C-223.264 388.87 -200.063 282.571 -153.722 194.874C-107.787 107.475 -38.7123 38.6766 28.291 45.8802C95.3473 52.7318 160.333 135.585 174.885 225.607Z" fill="#183975"/>
<path d="M164.211 228.242C177.9 312.928 144.146 404.358 70.1763 447.746C-3.46202 491.183 -117.979 486.479 -163.992 434.178C-210.337 381.827 -188.511 281.83 -144.917 199.33C-101.705 117.112 -36.725 52.3925 26.3065 59.169C89.3879 65.6144 150.521 143.556 164.211 228.242Z" fill="#1B3F7D"/>
<path d="M152.829 231.052C165.598 310.048 134.112 395.335 65.1124 435.807C-3.57817 476.327 -110.4 471.938 -153.322 423.151C-196.554 374.318 -176.194 281.039 -135.529 204.083C-95.2199 127.389 -34.6062 67.0178 24.1903 73.339C83.0332 79.3514 140.059 152.056 152.829 231.052Z" fill="#1F4486"/>
<path d="M141.357 233.884C153.2 307.145 123.999 386.24 60.0087 423.775C-3.69523 461.352 -102.763 457.283 -142.569 412.038C-182.661 366.749 -163.779 280.242 -126.067 208.873C-88.6841 137.746 -32.4707 81.7579 22.0573 87.6202C76.6285 93.1961 129.514 160.623 141.357 233.884Z" fill="#224A91"/>
<path d="M128.993 236.936C139.836 304.016 113.1 376.438 54.5082 410.805C-3.82075 445.212 -94.5295 441.486 -130.977 400.058C-167.687 358.591 -150.398 279.383 -115.867 214.035C-81.6388 148.91 -30.1684 97.6455 19.759 103.013C69.7257 108.119 118.149 169.856 128.993 236.936Z" fill="#28519A"/>
<path d="M116.832 239.938C126.693 300.938 102.379 366.796 49.0983 398.049C-3.94409 429.338 -86.4316 425.949 -119.576 388.276C-152.959 350.567 -137.237 278.538 -105.836 219.113C-74.7093 159.89 -27.9037 113.272 17.4985 118.153C62.9367 122.796 106.971 178.938 116.832 239.938Z" fill="#2C57A3"/>
<path d="M104.727 242.927C113.609 297.875 91.7078 357.199 43.7127 385.351C-4.0673 413.536 -78.3711 410.483 -108.227 376.548C-138.298 342.58 -124.136 277.697 -95.8501 224.168C-67.8118 170.821 -25.6499 128.827 15.2479 133.224C56.1781 137.406 95.8442 187.979 104.727 242.927Z" fill="#3260AF"/>
<path d="M641.047 128.715C574.99 160.332 491.979 154.719 438.622 104.595C385.304 54.7537 361.563 -40.1654 393.309 -90.4515C425.015 -141.021 512.169 -147.241 590.238 -131.418C667.984 -115.839 736.645 -78.2175 746.284 -24.9638C756.205 28.2509 707.103 97.0977 641.047 128.715Z" fill="#183975"/>
<path d="M636.597 121.088C574.456 150.831 496.365 145.551 446.171 98.398C396.014 51.5116 373.681 -37.7809 403.544 -85.0862C433.371 -132.658 515.359 -138.509 588.8 -123.624C661.938 -108.969 726.529 -73.5774 735.596 -23.4804C744.929 26.5799 698.738 91.3456 636.597 121.088Z" fill="#1B3F7D"/>
<path d="M631.852 112.956C573.887 140.701 501.043 135.775 454.221 91.7905C407.434 48.0544 386.601 -35.2386 414.458 -79.3654C442.281 -123.741 518.76 -129.199 587.267 -115.314C655.49 -101.643 715.741 -68.6299 724.199 -21.899C732.905 24.7978 689.818 85.212 631.852 112.956Z" fill="#1F4486"/>
<path d="M627.07 104.76C573.313 130.491 505.757 125.923 462.335 85.131C418.944 44.5699 399.623 -32.6763 425.458 -73.5997C451.261 -114.754 522.188 -119.816 585.722 -106.939C648.992 -94.2605 704.869 -63.6435 712.713 -20.3051C720.787 23.0017 680.828 79.03 627.07 104.76Z" fill="#224A91"/>
<path d="M621.916 95.9265C572.694 119.486 510.838 115.303 471.08 77.9535C431.35 40.8147 413.66 -29.914 437.315 -67.3846C460.941 -105.066 525.883 -109.701 584.056 -97.9105C641.989 -86.3021 693.151 -58.2684 700.333 -18.5866C707.726 21.0662 671.138 72.3672 621.916 95.9265Z" fill="#28519A"/>
<path d="M616.847 87.2382C572.086 108.662 515.836 104.859 479.681 70.8941C443.552 37.1213 427.465 -27.197 448.976 -61.2715C470.461 -95.538 529.518 -99.7526 582.418 -89.0307C635.1 -78.4744 681.625 -52.9816 688.156 -16.8962C694.879 19.1627 661.607 65.8142 616.847 87.2382Z" fill="#2C57A3"/>
<path d="M611.8 78.5893C571.48 97.8878 520.811 94.4618 488.243 63.8667C455.699 33.4445 441.207 -24.4927 460.585 -55.1866C479.938 -86.0535 533.135 -89.85 580.787 -80.1918C628.243 -70.6828 670.152 -47.7191 676.035 -15.2139C682.091 17.2676 652.12 59.2907 611.8 78.5893Z" fill="#3260AF"/>
<g filter="url(#filter1_d)">
<path d="M449.689 466.407C388.032 468.704 320.649 436.557 286.876 392.706C253.377 348.902 253.457 293.581 289.953 271.533C326.417 249.673 399.541 261.319 461.021 286.659C522.47 312.188 572.55 351.456 569.486 389.437C566.698 427.465 511.072 464.064 449.689 466.407Z" fill="#133167"/>
</g>
<path fill-rule="evenodd" clip-rule="evenodd" d="M517.647 442.588C517.902 441.429 519.527 440.802 520.687 441.057C521.846 441.312 522.58 442.458 522.325 443.617C522.07 444.775 520.761 446.244 519.602 445.989C518.442 445.734 517.393 443.746 517.647 442.588Z" fill="#1B3D79"/>
<path fill-rule="evenodd" clip-rule="evenodd" d="M507.969 440.459C508.223 439.301 509.848 438.673 511.008 438.928C512.167 439.183 512.901 440.33 512.646 441.488C512.392 442.646 511.083 444.116 509.923 443.86C508.763 443.605 507.714 441.617 507.969 440.459Z" fill="#1B3D79"/>
<path fill-rule="evenodd" clip-rule="evenodd" d="M498.291 438.33C498.546 437.172 500.171 436.544 501.33 436.8C502.49 437.055 503.224 438.201 502.969 439.359C502.714 440.517 501.405 441.987 500.246 441.732C499.086 441.477 498.036 439.488 498.291 438.33Z" fill="#1B3D79"/>
<path fill-rule="evenodd" clip-rule="evenodd" d="M488.613 436.201C488.868 435.043 490.492 434.415 491.652 434.671C492.812 434.926 493.546 436.072 493.291 437.23C493.036 438.388 491.727 439.858 490.567 439.603C489.408 439.348 488.358 437.359 488.613 436.201Z" fill="#1B3D79"/>
<path fill-rule="evenodd" clip-rule="evenodd" d="M478.935 434.072C479.189 432.914 480.814 432.287 481.974 432.542C483.134 432.797 483.867 433.943 483.613 435.101C483.358 436.259 482.049 437.729 480.889 437.474C479.729 437.219 478.68 435.23 478.935 434.072Z" fill="#1B3D79"/>
<path fill-rule="evenodd" clip-rule="evenodd" d="M469.258 431.944C469.513 430.785 471.132 430.157 472.296 430.413C473.455 430.668 474.189 431.814 473.934 432.972C473.679 434.13 472.37 435.6 471.211 435.345C470.047 435.089 469.004 433.102 469.258 431.944Z" fill="#1B3D79"/>
<path fill-rule="evenodd" clip-rule="evenodd" d="M459.574 429.813C459.829 428.655 461.458 428.029 462.619 428.284C463.781 428.54 464.506 429.684 464.251 430.842C463.996 432 462.696 433.472 461.534 433.216C460.373 432.961 459.319 430.971 459.574 429.813Z" fill="#1B3D79"/>
<path fill-rule="evenodd" clip-rule="evenodd" d="M449.9 427.685C450.155 426.527 451.783 425.9 452.945 426.156C454.097 426.409 454.831 427.556 454.577 428.714C454.322 429.872 453.012 431.341 451.86 431.088C450.698 430.833 449.645 428.843 449.9 427.685Z" fill="#1B3D79"/>
<path fill-rule="evenodd" clip-rule="evenodd" d="M440.225 425.557C440.48 424.399 442.099 423.77 443.261 424.026C444.422 424.281 445.157 425.428 444.902 426.586C444.648 427.744 443.337 429.213 442.176 428.958C441.014 428.702 439.971 426.715 440.225 425.557Z" fill="#1B3D79"/>
<path fill-rule="evenodd" clip-rule="evenodd" d="M430.541 423.427C430.796 422.268 432.425 421.642 433.586 421.898C434.748 422.153 435.473 423.297 435.218 424.456C434.963 425.614 433.663 427.085 432.501 426.83C431.34 426.574 430.286 424.585 430.541 423.427Z" fill="#1B3D79"/>
<path fill-rule="evenodd" clip-rule="evenodd" d="M420.867 421.299C421.122 420.14 422.75 419.514 423.902 419.767C425.064 420.023 425.798 421.169 425.544 422.327C425.289 423.486 423.979 424.955 422.817 424.699C421.665 424.446 420.612 422.457 420.867 421.299Z" fill="#1B3D79"/>
<path fill-rule="evenodd" clip-rule="evenodd" d="M411.193 419.171C411.447 418.012 413.066 417.384 414.228 417.639C415.389 417.895 416.124 419.041 415.869 420.199C415.615 421.358 414.305 422.827 413.143 422.571C411.981 422.316 410.938 420.329 411.193 419.171Z" fill="#1B3D79"/>
<path fill-rule="evenodd" clip-rule="evenodd" d="M401.508 417.04C401.763 415.882 403.392 415.256 404.553 415.511C405.705 415.764 406.44 416.911 406.185 418.069C405.93 419.227 404.62 420.697 403.468 420.443C402.307 420.188 401.253 418.198 401.508 417.04Z" fill="#1B3D79"/>
<path fill-rule="evenodd" clip-rule="evenodd" d="M391.834 414.912C392.089 413.754 393.707 413.125 394.869 413.381C396.031 413.636 396.766 414.783 396.511 415.941C396.256 417.099 394.946 418.568 393.784 418.313C392.622 418.057 391.579 416.07 391.834 414.912Z" fill="#1B3D79"/>
<path fill-rule="evenodd" clip-rule="evenodd" d="M382.15 412.782C382.404 411.624 384.033 410.997 385.195 411.253C386.357 411.508 387.081 412.652 386.827 413.811C386.572 414.969 385.272 416.44 384.11 416.185C382.948 415.929 381.895 413.94 382.15 412.782Z" fill="#1B3D79"/>
<path fill-rule="evenodd" clip-rule="evenodd" d="M372.475 410.654C372.73 409.495 374.359 408.869 375.51 409.122C376.672 409.378 377.407 410.524 377.152 411.683C376.897 412.841 375.587 414.31 374.426 414.055C373.274 413.801 372.221 411.812 372.475 410.654Z" fill="#1B3D79"/>
<path fill-rule="evenodd" clip-rule="evenodd" d="M362.801 408.526C363.056 407.367 364.674 406.739 365.836 406.994C366.998 407.25 367.733 408.396 367.478 409.554C367.223 410.713 365.913 412.182 364.751 411.926C363.59 411.671 362.546 409.684 362.801 408.526Z" fill="#1B3D79"/>
<path fill-rule="evenodd" clip-rule="evenodd" d="M353.117 406.395C353.371 405.237 355 404.611 356.162 404.866C357.314 405.12 358.048 406.266 357.794 407.424C357.539 408.582 356.229 410.052 355.077 409.798C353.915 409.543 352.862 407.554 353.117 406.395Z" fill="#1B3D79"/>
<path fill-rule="evenodd" clip-rule="evenodd" d="M324.084 400.009C324.339 398.851 325.967 398.224 327.119 398.477C328.281 398.733 329.015 399.879 328.761 401.038C328.506 402.196 327.196 403.665 326.034 403.41C324.882 403.156 323.829 401.167 324.084 400.009Z" fill="#1B3D79"/>
<path fill-rule="evenodd" clip-rule="evenodd" d="M314.409 397.881C314.664 396.722 316.283 396.094 317.445 396.349C318.606 396.605 319.341 397.751 319.086 398.91C318.832 400.068 317.521 401.537 316.36 401.282C315.198 401.026 314.155 399.039 314.409 397.881Z" fill="#1B3D79"/>
<path fill-rule="evenodd" clip-rule="evenodd" d="M304.725 395.75C304.98 394.592 306.609 393.966 307.77 394.221C308.932 394.477 309.657 395.621 309.402 396.779C309.147 397.937 307.847 399.409 306.685 399.153C305.524 398.898 304.47 396.909 304.725 395.75Z" fill="#1B3D79"/>
<path fill-rule="evenodd" clip-rule="evenodd" d="M295.051 393.622C295.306 392.464 296.934 391.838 298.086 392.091C299.248 392.347 299.982 393.493 299.728 394.651C299.473 395.809 298.163 397.279 297.001 397.023C295.849 396.77 294.796 394.781 295.051 393.622Z" fill="#1B3D79"/>
<path fill-rule="evenodd" clip-rule="evenodd" d="M285.366 391.492C285.621 390.334 287.25 389.707 288.412 389.963C289.573 390.218 290.308 391.365 290.053 392.523C289.799 393.681 288.488 395.151 287.327 394.895C286.165 394.639 285.112 392.65 285.366 391.492Z" fill="#1B3D79"/>
<path fill-rule="evenodd" clip-rule="evenodd" d="M275.692 389.364C275.947 388.206 277.576 387.579 278.737 387.835C279.889 388.088 280.624 389.234 280.369 390.393C280.114 391.551 278.804 393.02 277.652 392.767C276.491 392.511 275.437 390.522 275.692 389.364Z" fill="#1B3D79"/>
<path fill-rule="evenodd" clip-rule="evenodd" d="M266.018 387.236C266.273 386.078 267.892 385.449 269.053 385.705C270.215 385.96 270.95 387.106 270.695 388.265C270.44 389.423 269.13 390.892 267.968 390.637C266.807 390.381 265.763 388.394 266.018 387.236Z" fill="#1B3D79"/>
<path fill-rule="evenodd" clip-rule="evenodd" d="M519.601 433.71C519.856 432.552 521.48 431.924 522.64 432.18C523.8 432.435 524.534 433.581 524.279 434.739C524.024 435.897 522.715 437.367 521.555 437.112C520.395 436.857 519.346 434.868 519.601 433.71Z" fill="#1B3D79"/>
<path fill-rule="evenodd" clip-rule="evenodd" d="M509.921 431.581C510.176 430.422 511.801 429.795 512.961 430.05C514.12 430.305 514.854 431.452 514.599 432.61C514.345 433.768 513.035 435.238 511.876 434.982C510.716 434.727 509.667 432.739 509.921 431.581Z" fill="#1B3D79"/>
<path fill-rule="evenodd" clip-rule="evenodd" d="M500.244 429.452C500.499 428.294 502.124 427.666 503.283 427.922C504.443 428.177 505.177 429.323 504.922 430.481C504.667 431.639 503.358 433.109 502.198 432.854C501.039 432.599 499.989 430.61 500.244 429.452Z" fill="#1B3D79"/>
<path fill-rule="evenodd" clip-rule="evenodd" d="M490.566 427.323C490.821 426.165 492.445 425.537 493.605 425.793C494.765 426.048 495.499 427.194 495.244 428.352C494.989 429.51 493.68 430.98 492.52 430.725C491.36 430.47 490.311 428.481 490.566 427.323Z" fill="#1B3D79"/>
<path fill-rule="evenodd" clip-rule="evenodd" d="M480.888 425.194C481.142 424.036 482.767 423.408 483.927 423.664C485.087 423.919 485.82 425.065 485.566 426.223C485.311 427.381 484.002 428.851 482.842 428.596C481.682 428.341 480.633 426.352 480.888 425.194Z" fill="#1B3D79"/>
<path fill-rule="evenodd" clip-rule="evenodd" d="M471.211 423.065C471.466 421.907 473.085 421.279 474.249 421.535C475.408 421.79 476.142 422.936 475.887 424.094C475.632 425.252 474.323 426.722 473.164 426.467C472 426.211 470.957 424.224 471.211 423.065Z" fill="#1B3D79"/>
<path fill-rule="evenodd" clip-rule="evenodd" d="M461.527 420.935C461.782 419.777 463.41 419.151 464.572 419.406C465.734 419.662 466.459 420.806 466.204 421.964C465.949 423.122 464.649 424.594 463.487 424.338C462.326 424.083 461.272 422.093 461.527 420.935Z" fill="#1B3D79"/>
<path fill-rule="evenodd" clip-rule="evenodd" d="M451.853 418.807C452.107 417.649 453.736 417.022 454.898 417.278C456.05 417.531 456.784 418.678 456.53 419.836C456.275 420.994 454.965 422.463 453.813 422.21C452.651 421.955 451.598 419.965 451.853 418.807Z" fill="#1B3D79"/>
<path fill-rule="evenodd" clip-rule="evenodd" d="M442.178 416.679C442.433 415.521 444.052 414.892 445.214 415.148C446.375 415.403 447.11 416.55 446.855 417.708C446.6 418.866 445.29 420.335 444.129 420.08C442.967 419.824 441.924 417.837 442.178 416.679Z" fill="#1B3D79"/>
<path fill-rule="evenodd" clip-rule="evenodd" d="M432.494 414.549C432.749 413.39 434.378 412.764 435.539 413.02C436.701 413.275 437.426 414.419 437.171 415.577C436.916 416.736 435.616 418.207 434.454 417.952C433.293 417.696 432.239 415.707 432.494 414.549Z" fill="#1B3D79"/>
<path fill-rule="evenodd" clip-rule="evenodd" d="M422.82 412.421C423.075 411.262 424.703 410.636 425.855 410.889C427.017 411.145 427.751 412.291 427.497 413.449C427.242 414.608 425.932 416.077 424.77 415.821C423.618 415.568 422.565 413.579 422.82 412.421Z" fill="#1B3D79"/>
<path fill-rule="evenodd" clip-rule="evenodd" d="M413.145 410.292C413.4 409.134 415.019 408.506 416.181 408.761C417.342 409.017 418.077 410.163 417.822 411.321C417.568 412.48 416.257 413.949 415.096 413.693C413.934 413.438 412.891 411.451 413.145 410.292Z" fill="#1B3D79"/>
<path fill-rule="evenodd" clip-rule="evenodd" d="M403.461 408.162C403.716 407.004 405.345 406.378 406.506 406.633C407.658 406.886 408.393 408.033 408.138 409.191C407.883 410.349 406.573 411.819 405.421 411.565C404.26 411.31 403.206 409.32 403.461 408.162Z" fill="#1B3D79"/>
<path fill-rule="evenodd" clip-rule="evenodd" d="M393.787 406.034C394.042 404.876 395.66 404.247 396.822 404.503C397.984 404.758 398.719 405.905 398.464 407.063C398.209 408.221 396.899 409.69 395.737 409.435C394.575 409.179 393.532 407.192 393.787 406.034Z" fill="#1B3D79"/>
<path fill-rule="evenodd" clip-rule="evenodd" d="M384.103 403.904C384.357 402.745 385.986 402.119 387.148 402.375C388.309 402.63 389.034 403.774 388.779 404.933C388.525 406.091 387.224 407.562 386.063 407.307C384.901 407.051 383.848 405.062 384.103 403.904Z" fill="#1B3D79"/>
<path fill-rule="evenodd" clip-rule="evenodd" d="M374.428 401.776C374.683 400.617 376.312 399.991 377.463 400.244C378.625 400.5 379.36 401.646 379.105 402.804C378.85 403.963 377.54 405.432 376.378 405.176C375.227 404.923 374.173 402.934 374.428 401.776Z" fill="#1B3D79"/>
<path fill-rule="evenodd" clip-rule="evenodd" d="M355.07 397.517C355.324 396.359 356.953 395.733 358.115 395.988C359.267 396.242 360.001 397.388 359.747 398.546C359.492 399.704 358.182 401.174 357.03 400.92C355.868 400.665 354.815 398.676 355.07 397.517Z" fill="#1B3D79"/>
<path fill-rule="evenodd" clip-rule="evenodd" d="M345.395 395.389C345.65 394.231 347.269 393.602 348.431 393.858C349.592 394.113 350.327 395.26 350.072 396.418C349.817 397.576 348.507 399.046 347.346 398.79C346.184 398.534 345.141 396.547 345.395 395.389Z" fill="#1B3D79"/>
<path fill-rule="evenodd" clip-rule="evenodd" d="M335.711 393.259C335.966 392.101 337.595 391.474 338.756 391.73C339.918 391.985 340.653 393.132 340.398 394.29C340.143 395.448 338.833 396.917 337.671 396.662C336.51 396.406 335.456 394.417 335.711 393.259Z" fill="#1B3D79"/>
<path fill-rule="evenodd" clip-rule="evenodd" d="M326.037 391.131C326.292 389.973 327.92 389.346 329.072 389.599C330.234 389.855 330.968 391.001 330.714 392.16C330.459 393.318 329.149 394.787 327.987 394.532C326.835 394.278 325.782 392.289 326.037 391.131Z" fill="#1B3D79"/>
<path fill-rule="evenodd" clip-rule="evenodd" d="M316.362 389.003C316.617 387.844 318.236 387.216 319.398 387.471C320.559 387.727 321.294 388.873 321.039 390.031C320.785 391.19 319.474 392.659 318.313 392.404C317.151 392.148 316.108 390.161 316.362 389.003Z" fill="#1B3D79"/>
<path fill-rule="evenodd" clip-rule="evenodd" d="M306.678 386.872C306.933 385.714 308.562 385.088 309.723 385.343C310.885 385.599 311.61 386.743 311.355 387.901C311.1 389.059 309.8 390.531 308.638 390.275C307.477 390.02 306.423 388.031 306.678 386.872Z" fill="#1B3D79"/>
<path fill-rule="evenodd" clip-rule="evenodd" d="M297.004 384.744C297.259 383.586 298.887 382.96 300.039 383.213C301.201 383.469 301.936 384.615 301.681 385.773C301.426 386.931 300.116 388.401 298.954 388.145C297.802 387.892 296.749 385.903 297.004 384.744Z" fill="#1B3D79"/>
<path fill-rule="evenodd" clip-rule="evenodd" d="M287.32 382.614C287.574 381.456 289.203 380.829 290.365 381.085C291.526 381.34 292.261 382.487 292.006 383.645C291.752 384.803 290.441 386.273 289.28 386.017C288.118 385.761 287.065 383.772 287.32 382.614Z" fill="#1B3D79"/>
<path fill-rule="evenodd" clip-rule="evenodd" d="M277.645 380.486C277.9 379.328 279.529 378.701 280.69 378.957C281.842 379.21 282.577 380.356 282.322 381.515C282.067 382.673 280.757 384.142 279.605 383.889C278.444 383.633 277.39 381.644 277.645 380.486Z" fill="#1B3D79"/>
<path fill-rule="evenodd" clip-rule="evenodd" d="M267.971 378.358C268.226 377.2 269.844 376.571 271.006 376.827C272.168 377.082 272.903 378.228 272.648 379.387C272.393 380.545 271.083 382.014 269.921 381.759C268.76 381.503 267.716 379.516 267.971 378.358Z" fill="#1B3D79"/>
<path fill-rule="evenodd" clip-rule="evenodd" d="M521.554 424.832C521.808 423.674 523.433 423.046 524.593 423.301C525.753 423.557 526.486 424.703 526.232 425.861C525.977 427.019 524.668 428.489 523.508 428.234C522.348 427.978 521.299 425.99 521.554 424.832Z" fill="#1B3D79"/>
<path fill-rule="evenodd" clip-rule="evenodd" d="M511.874 422.703C512.129 421.544 513.754 420.917 514.914 421.172C516.073 421.427 516.807 422.573 516.552 423.732C516.298 424.89 514.988 426.36 513.829 426.104C512.669 425.849 511.62 423.861 511.874 422.703Z" fill="#1B3D79"/>
<path fill-rule="evenodd" clip-rule="evenodd" d="M502.197 420.574C502.452 419.416 504.077 418.788 505.236 419.044C506.396 419.299 507.13 420.445 506.875 421.603C506.62 422.761 505.311 424.231 504.151 423.976C502.992 423.721 501.942 421.732 502.197 420.574Z" fill="#1B3D79"/>
<path fill-rule="evenodd" clip-rule="evenodd" d="M492.519 418.445C492.774 417.287 494.398 416.659 495.558 416.915C496.718 417.17 497.452 418.316 497.197 419.474C496.942 420.632 495.633 422.102 494.473 421.847C493.313 421.592 492.264 419.603 492.519 418.445Z" fill="#1B3D79"/>
<path fill-rule="evenodd" clip-rule="evenodd" d="M482.841 416.316C483.095 415.158 484.72 414.53 485.88 414.786C487.039 415.041 487.773 416.187 487.518 417.345C487.264 418.503 485.955 419.973 484.795 419.718C483.635 419.463 482.586 417.474 482.841 416.316Z" fill="#1B3D79"/>
<path fill-rule="evenodd" clip-rule="evenodd" d="M473.164 414.187C473.419 413.029 475.038 412.401 476.201 412.657C477.361 412.912 478.095 414.058 477.84 415.216C477.585 416.374 476.276 417.844 475.116 417.589C473.953 417.333 472.909 415.346 473.164 414.187Z" fill="#1B3D79"/>
<path fill-rule="evenodd" clip-rule="evenodd" d="M463.48 412.057C463.735 410.899 465.363 410.272 466.525 410.528C467.687 410.784 468.412 411.928 468.157 413.086C467.902 414.244 466.602 415.716 465.44 415.46C464.278 415.205 463.225 413.215 463.48 412.057Z" fill="#1B3D79"/>
<path fill-rule="evenodd" clip-rule="evenodd" d="M453.806 409.929C454.06 408.771 455.689 408.144 456.851 408.4C458.003 408.653 458.737 409.8 458.483 410.958C458.228 412.116 456.918 413.585 455.766 413.332C454.604 413.077 453.551 411.087 453.806 409.929Z" fill="#1B3D79"/>
<path fill-rule="evenodd" clip-rule="evenodd" d="M444.131 407.801C444.386 406.643 446.005 406.014 447.167 406.27C448.328 406.525 449.063 407.671 448.808 408.83C448.553 409.988 447.243 411.457 446.082 411.202C444.92 410.946 443.877 408.959 444.131 407.801Z" fill="#1B3D79"/>
<path fill-rule="evenodd" clip-rule="evenodd" d="M434.447 405.671C434.702 404.512 436.33 403.886 437.492 404.142C438.654 404.397 439.379 405.541 439.124 406.699C438.869 407.858 437.569 409.329 436.407 409.074C435.246 408.818 434.192 406.829 434.447 405.671Z" fill="#1B3D79"/>
<path fill-rule="evenodd" clip-rule="evenodd" d="M424.773 403.543C425.027 402.384 426.656 401.758 427.808 402.011C428.97 402.267 429.704 403.413 429.45 404.571C429.195 405.73 427.885 407.199 426.723 406.943C425.571 406.69 424.518 404.701 424.773 403.543Z" fill="#1B3D79"/>
<path fill-rule="evenodd" clip-rule="evenodd" d="M415.098 401.414C415.353 400.256 416.972 399.628 418.134 399.883C419.295 400.139 420.03 401.285 419.775 402.443C419.521 403.601 418.21 405.071 417.049 404.815C415.887 404.56 414.844 402.573 415.098 401.414Z" fill="#1B3D79"/>
<path fill-rule="evenodd" clip-rule="evenodd" d="M405.414 399.284C405.669 398.126 407.298 397.499 408.459 397.755C409.611 398.008 410.346 399.155 410.091 400.313C409.836 401.471 408.526 402.941 407.374 402.687C406.213 402.432 405.159 400.442 405.414 399.284Z" fill="#1B3D79"/>
<path fill-rule="evenodd" clip-rule="evenodd" d="M395.74 397.156C395.995 395.998 397.613 395.369 398.775 395.625C399.937 395.88 400.671 397.027 400.417 398.185C400.162 399.343 398.852 400.812 397.69 400.557C396.528 400.301 395.485 398.314 395.74 397.156Z" fill="#1B3D79"/>
<path fill-rule="evenodd" clip-rule="evenodd" d="M386.055 395.026C386.31 393.867 387.939 393.241 389.101 393.497C390.262 393.752 390.987 394.896 390.732 396.055C390.478 397.213 389.177 398.684 388.016 398.429C386.854 398.173 385.801 396.184 386.055 395.026Z" fill="#1B3D79"/>
<path fill-rule="evenodd" clip-rule="evenodd" d="M366.707 390.77C366.962 389.611 368.58 388.983 369.742 389.238C370.904 389.494 371.639 390.64 371.384 391.798C371.129 392.957 369.819 394.426 368.657 394.17C367.495 393.915 366.452 391.928 366.707 390.77Z" fill="#1B3D79"/>
<path fill-rule="evenodd" clip-rule="evenodd" d="M357.023 388.639C357.277 387.481 358.906 386.855 360.068 387.11C361.219 387.363 361.954 388.51 361.699 389.668C361.445 390.826 360.135 392.296 358.983 392.042C357.821 391.787 356.768 389.797 357.023 388.639Z" fill="#1B3D79"/>
<path fill-rule="evenodd" clip-rule="evenodd" d="M347.348 386.511C347.603 385.353 349.222 384.724 350.383 384.98C351.545 385.235 352.28 386.382 352.025 387.54C351.77 388.698 350.46 390.168 349.299 389.912C348.137 389.656 347.093 387.669 347.348 386.511Z" fill="#1B3D79"/>
<path fill-rule="evenodd" clip-rule="evenodd" d="M337.664 384.381C337.919 383.223 339.547 382.596 340.709 382.852C341.871 383.107 342.606 384.254 342.351 385.412C342.096 386.57 340.786 388.039 339.624 387.784C338.462 387.528 337.409 385.539 337.664 384.381Z" fill="#1B3D79"/>
<path fill-rule="evenodd" clip-rule="evenodd" d="M327.99 382.253C328.244 381.094 329.873 380.468 331.025 380.721C332.187 380.977 332.921 382.123 332.667 383.282C332.412 384.44 331.102 385.909 329.94 385.654C328.788 385.4 327.735 383.411 327.99 382.253Z" fill="#1B3D79"/>
<path fill-rule="evenodd" clip-rule="evenodd" d="M308.631 377.994C308.886 376.836 310.514 376.21 311.676 376.465C312.838 376.721 313.563 377.865 313.308 379.023C313.053 380.181 311.753 381.653 310.591 381.397C309.429 381.142 308.376 379.153 308.631 377.994Z" fill="#1B3D79"/>
<path fill-rule="evenodd" clip-rule="evenodd" d="M298.957 375.866C299.211 374.708 300.84 374.082 301.992 374.335C303.154 374.59 303.888 375.737 303.634 376.895C303.379 378.053 302.069 379.523 300.907 379.267C299.755 379.014 298.702 377.025 298.957 375.866Z" fill="#1B3D79"/>
<path fill-rule="evenodd" clip-rule="evenodd" d="M289.272 373.736C289.527 372.578 291.156 371.951 292.318 372.207C293.479 372.462 294.214 373.609 293.959 374.767C293.704 375.925 292.394 377.394 291.233 377.139C290.071 376.883 289.018 374.894 289.272 373.736Z" fill="#1B3D79"/>
<path fill-rule="evenodd" clip-rule="evenodd" d="M279.598 371.608C279.853 370.45 281.482 369.823 282.643 370.079C283.795 370.332 284.53 371.478 284.275 372.637C284.02 373.795 282.71 375.264 281.558 375.011C280.397 374.755 279.343 372.766 279.598 371.608Z" fill="#1B3D79"/>
<path fill-rule="evenodd" clip-rule="evenodd" d="M269.924 369.48C270.179 368.322 271.797 367.693 272.959 367.948C274.121 368.204 274.856 369.35 274.601 370.509C274.346 371.667 273.036 373.136 271.874 372.881C270.712 372.625 269.669 370.638 269.924 369.48Z" fill="#1B3D79"/>
<path fill-rule="evenodd" clip-rule="evenodd" d="M523.507 415.954C523.761 414.796 525.386 414.168 526.546 414.423C527.706 414.679 528.439 415.825 528.185 416.983C527.93 418.141 526.621 419.611 525.461 419.356C524.301 419.1 523.252 417.112 523.507 415.954Z" fill="#1B3D79"/>
<path fill-rule="evenodd" clip-rule="evenodd" d="M513.827 413.825C514.082 412.666 515.707 412.039 516.867 412.294C518.026 412.549 518.76 413.695 518.505 414.854C518.25 416.012 516.941 417.481 515.782 417.226C514.622 416.971 513.573 414.983 513.827 413.825Z" fill="#1B3D79"/>
<path fill-rule="evenodd" clip-rule="evenodd" d="M504.15 411.696C504.405 410.538 506.03 409.91 507.189 410.165C508.349 410.421 509.083 411.567 508.828 412.725C508.573 413.883 507.264 415.353 506.104 415.098C504.945 414.843 503.895 412.854 504.15 411.696Z" fill="#1B3D79"/>
<path fill-rule="evenodd" clip-rule="evenodd" d="M494.472 409.567C494.727 408.409 496.351 407.781 497.511 408.037C498.671 408.292 499.405 409.438 499.15 410.596C498.895 411.754 497.586 413.224 496.426 412.969C495.266 412.714 494.217 410.725 494.472 409.567Z" fill="#1B3D79"/>
<path fill-rule="evenodd" clip-rule="evenodd" d="M484.793 407.438C485.048 406.28 486.673 405.652 487.833 405.908C488.992 406.163 489.726 407.309 489.471 408.467C489.217 409.625 487.907 411.095 486.748 410.84C485.588 410.585 484.539 408.596 484.793 407.438Z" fill="#1B3D79"/>
<path fill-rule="evenodd" clip-rule="evenodd" d="M475.117 405.309C475.372 404.151 476.991 403.523 478.154 403.779C479.314 404.034 480.048 405.18 479.793 406.338C479.538 407.496 478.229 408.966 477.069 408.711C475.906 408.455 474.862 406.468 475.117 405.309Z" fill="#1B3D79"/>
<path fill-rule="evenodd" clip-rule="evenodd" d="M465.433 403.179C465.688 402.021 467.316 401.394 468.478 401.65C469.64 401.906 470.365 403.05 470.11 404.208C469.855 405.366 468.555 406.838 467.393 406.582C466.231 406.327 465.178 404.337 465.433 403.179Z" fill="#1B3D79"/>
<path fill-rule="evenodd" clip-rule="evenodd" d="M455.759 401.051C456.013 399.893 457.642 399.266 458.804 399.522C459.956 399.775 460.69 400.922 460.436 402.08C460.181 403.238 458.871 404.707 457.719 404.454C456.557 404.198 455.504 402.209 455.759 401.051Z" fill="#1B3D79"/>
<path fill-rule="evenodd" clip-rule="evenodd" d="M446.084 398.923C446.339 397.765 447.958 397.136 449.119 397.392C450.281 397.647 451.016 398.793 450.761 399.952C450.506 401.11 449.196 402.579 448.034 402.324C446.873 402.068 445.829 400.081 446.084 398.923Z" fill="#1B3D79"/>
<path fill-rule="evenodd" clip-rule="evenodd" d="M436.4 396.793C436.655 395.634 438.283 395.008 439.445 395.263C440.607 395.519 441.332 396.663 441.077 397.821C440.822 398.98 439.522 400.451 438.36 400.196C437.199 399.94 436.145 397.951 436.4 396.793Z" fill="#1B3D79"/>
<path fill-rule="evenodd" clip-rule="evenodd" d="M426.726 394.665C426.98 393.506 428.609 392.88 429.761 393.133C430.923 393.389 431.657 394.535 431.403 395.693C431.148 396.852 429.838 398.321 428.676 398.065C427.524 397.812 426.471 395.823 426.726 394.665Z" fill="#1B3D79"/>
<path fill-rule="evenodd" clip-rule="evenodd" d="M417.051 392.536C417.306 391.378 418.925 390.75 420.086 391.005C421.248 391.261 421.983 392.407 421.728 393.565C421.473 394.723 420.163 396.193 419.002 395.937C417.84 395.682 416.797 393.695 417.051 392.536Z" fill="#1B3D79"/>
<path fill-rule="evenodd" clip-rule="evenodd" d="M407.367 390.406C407.622 389.248 409.251 388.621 410.412 388.877C411.564 389.13 412.299 390.277 412.044 391.435C411.789 392.593 410.479 394.062 409.327 393.809C408.166 393.554 407.112 391.564 407.367 390.406Z" fill="#1B3D79"/>
<path fill-rule="evenodd" clip-rule="evenodd" d="M397.693 388.278C397.948 387.12 399.566 386.491 400.728 386.747C401.89 387.002 402.624 388.149 402.37 389.307C402.115 390.465 400.805 391.934 399.643 391.679C398.481 391.423 397.438 389.436 397.693 388.278Z" fill="#1B3D79"/>
<path fill-rule="evenodd" clip-rule="evenodd" d="M388.008 386.148C388.263 384.989 389.892 384.363 391.054 384.619C392.215 384.874 392.94 386.018 392.685 387.176C392.43 388.335 391.13 389.806 389.969 389.551C388.807 389.295 387.754 387.306 388.008 386.148Z" fill="#1B3D79"/>
<path fill-rule="evenodd" clip-rule="evenodd" d="M378.334 384.02C378.589 382.861 380.218 382.235 381.369 382.488C382.531 382.744 383.266 383.89 383.011 385.048C382.756 386.207 381.446 387.676 380.284 387.42C379.133 387.167 378.079 385.178 378.334 384.02Z" fill="#1B3D79"/>
<path fill-rule="evenodd" clip-rule="evenodd" d="M368.66 381.892C368.915 380.733 370.533 380.105 371.695 380.36C372.857 380.616 373.592 381.762 373.337 382.92C373.082 384.079 371.772 385.548 370.61 385.292C369.448 385.037 368.405 383.05 368.66 381.892Z" fill="#1B3D79"/>
<path fill-rule="evenodd" clip-rule="evenodd" d="M358.975 379.761C359.23 378.603 360.859 377.977 362.021 378.232C363.172 378.485 363.907 379.632 363.652 380.79C363.398 381.948 362.087 383.418 360.936 383.164C359.774 382.909 358.721 380.919 358.975 379.761Z" fill="#1B3D79"/>
<path fill-rule="evenodd" clip-rule="evenodd" d="M349.301 377.633C349.556 376.475 351.175 375.846 352.336 376.102C353.498 376.357 354.233 377.504 353.978 378.662C353.723 379.82 352.413 381.289 351.251 381.034C350.09 380.778 349.046 378.791 349.301 377.633Z" fill="#1B3D79"/>
<path fill-rule="evenodd" clip-rule="evenodd" d="M339.617 375.503C339.872 374.345 341.5 373.718 342.662 373.974C343.824 374.229 344.559 375.376 344.304 376.534C344.049 377.692 342.739 379.161 341.577 378.906C340.415 378.65 339.362 376.661 339.617 375.503Z" fill="#1B3D79"/>
<path fill-rule="evenodd" clip-rule="evenodd" d="M329.943 373.375C330.197 372.216 331.826 371.59 332.978 371.843C334.14 372.099 334.874 373.245 334.62 374.403C334.365 375.562 333.055 377.031 331.893 376.776C330.741 376.522 329.688 374.533 329.943 373.375Z" fill="#1B3D79"/>
<path fill-rule="evenodd" clip-rule="evenodd" d="M320.268 371.247C320.523 370.088 322.142 369.46 323.303 369.715C324.465 369.971 325.2 371.117 324.945 372.275C324.69 373.434 323.38 374.903 322.219 374.647C321.057 374.392 320.013 372.405 320.268 371.247Z" fill="#1B3D79"/>
<path fill-rule="evenodd" clip-rule="evenodd" d="M310.584 369.116C310.839 367.958 312.467 367.332 313.629 367.587C314.791 367.843 315.516 368.987 315.261 370.145C315.006 371.303 313.706 372.775 312.544 372.519C311.382 372.264 310.329 370.275 310.584 369.116Z" fill="#1B3D79"/>
<path fill-rule="evenodd" clip-rule="evenodd" d="M300.91 366.988C301.164 365.83 302.793 365.204 303.945 365.457C305.106 365.712 305.841 366.859 305.587 368.017C305.332 369.175 304.022 370.645 302.86 370.389C301.708 370.136 300.655 368.146 300.91 366.988Z" fill="#1B3D79"/>
<path fill-rule="evenodd" clip-rule="evenodd" d="M291.225 364.858C291.48 363.7 293.109 363.073 294.271 363.329C295.432 363.584 296.167 364.731 295.912 365.889C295.657 367.047 294.347 368.516 293.186 368.261C292.024 368.005 290.971 366.016 291.225 364.858Z" fill="#1B3D79"/>
<path fill-rule="evenodd" clip-rule="evenodd" d="M281.551 362.73C281.806 361.572 283.435 360.945 284.596 361.201C285.748 361.454 286.483 362.6 286.228 363.759C285.973 364.917 284.663 366.386 283.511 366.133C282.35 365.877 281.296 363.888 281.551 362.73Z" fill="#1B3D79"/>
<path fill-rule="evenodd" clip-rule="evenodd" d="M271.877 360.602C272.132 359.443 273.75 358.815 274.912 359.07C276.074 359.326 276.808 360.472 276.554 361.631C276.299 362.789 274.989 364.258 273.827 364.003C272.665 363.747 271.622 361.76 271.877 360.602Z" fill="#1B3D79"/>
<path fill-rule="evenodd" clip-rule="evenodd" d="M525.46 407.076C525.714 405.918 527.339 405.29 528.499 405.545C529.659 405.8 530.392 406.947 530.138 408.105C529.883 409.263 528.574 410.733 527.414 410.478C526.254 410.222 525.205 408.234 525.46 407.076Z" fill="#1B3D79"/>
<path fill-rule="evenodd" clip-rule="evenodd" d="M515.78 404.947C516.035 403.788 517.66 403.161 518.82 403.416C519.979 403.671 520.713 404.817 520.458 405.976C520.203 407.134 518.894 408.603 517.735 408.348C516.575 408.093 515.526 406.105 515.78 404.947Z" fill="#1B3D79"/>
<path fill-rule="evenodd" clip-rule="evenodd" d="M506.103 402.818C506.358 401.66 507.983 401.032 509.142 401.287C510.302 401.543 511.036 402.689 510.781 403.847C510.526 405.005 509.217 406.475 508.057 406.22C506.898 405.964 505.848 403.976 506.103 402.818Z" fill="#1B3D79"/>
<path fill-rule="evenodd" clip-rule="evenodd" d="M496.425 400.689C496.679 399.531 498.304 398.903 499.464 399.158C500.624 399.414 501.357 400.56 501.103 401.718C500.848 402.876 499.539 404.346 498.379 404.091C497.219 403.835 496.17 401.847 496.425 400.689Z" fill="#1B3D79"/>
<path fill-rule="evenodd" clip-rule="evenodd" d="M486.746 398.56C487.001 397.402 488.626 396.774 489.786 397.029C490.945 397.285 491.679 398.431 491.424 399.589C491.17 400.747 489.86 402.217 488.701 401.962C487.541 401.706 486.492 399.718 486.746 398.56Z" fill="#1B3D79"/>
<path fill-rule="evenodd" clip-rule="evenodd" d="M477.07 396.431C477.325 395.273 478.944 394.644 480.107 394.9C481.267 395.156 482.001 396.302 481.746 397.46C481.491 398.618 480.182 400.088 479.022 399.833C477.859 399.577 476.815 397.59 477.07 396.431Z" fill="#1B3D79"/>
<path fill-rule="evenodd" clip-rule="evenodd" d="M467.386 394.301C467.641 393.143 469.269 392.516 470.431 392.772C471.593 393.028 472.317 394.172 472.063 395.33C471.808 396.488 470.508 397.96 469.346 397.704C468.184 397.449 467.131 395.459 467.386 394.301Z" fill="#1B3D79"/>
<path fill-rule="evenodd" clip-rule="evenodd" d="M457.712 392.173C457.966 391.015 459.595 390.388 460.757 390.644C461.908 390.897 462.643 392.044 462.388 393.202C462.134 394.36 460.823 395.829 459.672 395.576C458.51 395.32 457.457 393.331 457.712 392.173Z" fill="#1B3D79"/>
<path fill-rule="evenodd" clip-rule="evenodd" d="M448.037 390.045C448.292 388.887 449.911 388.258 451.072 388.514C452.234 388.769 452.969 389.915 452.714 391.074C452.459 392.232 451.149 393.701 449.987 393.446C448.826 393.19 447.782 391.203 448.037 390.045Z" fill="#1B3D79"/>
<path fill-rule="evenodd" clip-rule="evenodd" d="M438.353 387.915C438.608 386.756 440.236 386.13 441.398 386.385C442.56 386.641 443.285 387.785 443.03 388.943C442.775 390.102 441.475 391.573 440.313 391.318C439.151 391.062 438.098 389.073 438.353 387.915Z" fill="#1B3D79"/>
<path fill-rule="evenodd" clip-rule="evenodd" d="M428.679 385.786C428.933 384.628 430.562 384.002 431.714 384.255C432.875 384.511 433.61 385.657 433.355 386.815C433.101 387.974 431.791 389.443 430.629 389.187C429.477 388.934 428.424 386.945 428.679 385.786Z" fill="#1B3D79"/>
<path fill-rule="evenodd" clip-rule="evenodd" d="M419.004 383.658C419.259 382.5 420.878 381.871 422.04 382.127C423.201 382.383 423.936 383.529 423.681 384.687C423.426 385.845 422.116 387.315 420.955 387.059C419.793 386.804 418.75 384.817 419.004 383.658Z" fill="#1B3D79"/>
<path fill-rule="evenodd" clip-rule="evenodd" d="M409.32 381.528C409.575 380.37 411.203 379.743 412.365 379.999C413.517 380.252 414.252 381.399 413.997 382.557C413.742 383.715 412.432 385.184 411.28 384.931C410.118 384.676 409.065 382.686 409.32 381.528Z" fill="#1B3D79"/>
<path fill-rule="evenodd" clip-rule="evenodd" d="M399.646 379.4C399.9 378.242 401.519 377.613 402.681 377.869C403.843 378.124 404.577 379.27 404.323 380.429C404.068 381.587 402.758 383.056 401.596 382.801C400.434 382.545 399.391 380.558 399.646 379.4Z" fill="#1B3D79"/>
<path fill-rule="evenodd" clip-rule="evenodd" d="M389.961 377.27C390.216 376.111 391.845 375.485 393.007 375.741C394.168 375.996 394.893 377.14 394.638 378.298C394.383 379.457 393.083 380.928 391.922 380.673C390.76 380.417 389.707 378.428 389.961 377.27Z" fill="#1B3D79"/>
<path fill-rule="evenodd" clip-rule="evenodd" d="M380.287 375.142C380.542 373.983 382.171 373.357 383.322 373.61C384.484 373.866 385.219 375.012 384.964 376.17C384.709 377.329 383.399 378.798 382.237 378.542C381.086 378.289 380.032 376.3 380.287 375.142Z" fill="#1B3D79"/>
<path fill-rule="evenodd" clip-rule="evenodd" d="M370.613 373.013C370.867 371.855 372.486 371.227 373.648 371.482C374.81 371.738 375.544 372.884 375.29 374.042C375.035 375.201 373.725 376.67 372.563 376.414C371.401 376.159 370.358 374.172 370.613 373.013Z" fill="#1B3D79"/>
<path fill-rule="evenodd" clip-rule="evenodd" d="M360.928 370.883C361.183 369.725 362.812 369.098 363.974 369.354C365.125 369.607 365.86 370.754 365.605 371.912C365.351 373.07 364.04 374.54 362.889 374.286C361.727 374.031 360.674 372.041 360.928 370.883Z" fill="#1B3D79"/>
<path fill-rule="evenodd" clip-rule="evenodd" d="M351.254 368.755C351.509 367.597 353.128 366.968 354.289 367.224C355.451 367.479 356.186 368.626 355.931 369.784C355.676 370.942 354.366 372.411 353.204 372.156C352.043 371.9 350.999 369.913 351.254 368.755Z" fill="#1B3D79"/>
<path fill-rule="evenodd" clip-rule="evenodd" d="M341.57 366.625C341.825 365.466 343.453 364.84 344.615 365.096C345.777 365.351 346.512 366.497 346.257 367.656C346.002 368.814 344.692 370.283 343.53 370.028C342.368 369.772 341.315 367.783 341.57 366.625Z" fill="#1B3D79"/>
<path fill-rule="evenodd" clip-rule="evenodd" d="M331.896 364.497C332.15 363.338 333.779 362.712 334.931 362.965C336.092 363.221 336.827 364.367 336.572 365.525C336.318 366.684 335.007 368.153 333.846 367.897C332.694 367.644 331.641 365.655 331.896 364.497Z" fill="#1B3D79"/>
<path fill-rule="evenodd" clip-rule="evenodd" d="M322.221 362.369C322.476 361.21 324.095 360.582 325.256 360.837C326.418 361.093 327.153 362.239 326.898 363.397C326.643 364.556 325.333 366.025 324.171 365.769C323.01 365.514 321.966 363.527 322.221 362.369Z" fill="#1B3D79"/>
<path fill-rule="evenodd" clip-rule="evenodd" d="M302.863 358.11C303.117 356.952 304.746 356.326 305.898 356.579C307.06 356.834 307.794 357.981 307.54 359.139C307.285 360.297 305.975 361.767 304.813 361.511C303.661 361.258 302.608 359.268 302.863 358.11Z" fill="#1B3D79"/>
<path fill-rule="evenodd" clip-rule="evenodd" d="M293.178 355.98C293.433 354.822 295.062 354.195 296.223 354.451C297.385 354.706 298.12 355.853 297.865 357.011C297.61 358.169 296.3 359.638 295.139 359.383C293.977 359.127 292.923 357.138 293.178 355.98Z" fill="#1B3D79"/>
<path fill-rule="evenodd" clip-rule="evenodd" d="M283.504 353.852C283.759 352.694 285.387 352.067 286.549 352.323C287.701 352.576 288.436 353.722 288.181 354.881C287.926 356.039 286.616 357.508 285.464 357.255C284.303 356.999 283.249 355.01 283.504 353.852Z" fill="#1B3D79"/>
<path fill-rule="evenodd" clip-rule="evenodd" d="M273.83 351.724C274.085 350.565 275.703 349.937 276.865 350.192C278.027 350.448 278.761 351.594 278.507 352.752C278.252 353.911 276.942 355.38 275.78 355.124C274.618 354.869 273.575 352.882 273.83 351.724Z" fill="#1B3D79"/>
<path fill-rule="evenodd" clip-rule="evenodd" d="M527.413 398.198C527.667 397.04 529.292 396.412 530.452 396.667C531.611 396.922 532.345 398.069 532.09 399.227C531.836 400.385 530.527 401.855 529.367 401.599C528.207 401.344 527.158 399.356 527.413 398.198Z" fill="#1B3D79"/>
<path fill-rule="evenodd" clip-rule="evenodd" d="M517.733 396.069C517.988 394.91 519.613 394.283 520.772 394.538C521.932 394.793 522.666 395.939 522.411 397.098C522.156 398.256 520.847 399.725 519.688 399.47C518.528 399.215 517.478 397.227 517.733 396.069Z" fill="#1B3D79"/>
<path fill-rule="evenodd" clip-rule="evenodd" d="M508.056 393.94C508.311 392.782 509.936 392.154 511.095 392.409C512.255 392.665 512.989 393.811 512.734 394.969C512.479 396.127 511.17 397.597 510.01 397.342C508.851 397.086 507.801 395.098 508.056 393.94Z" fill="#1B3D79"/>
<path fill-rule="evenodd" clip-rule="evenodd" d="M498.378 391.811C498.632 390.653 500.257 390.025 501.417 390.28C502.577 390.536 503.31 391.682 503.056 392.84C502.801 393.998 501.492 395.468 500.332 395.213C499.172 394.957 498.123 392.969 498.378 391.811Z" fill="#1B3D79"/>
<path fill-rule="evenodd" clip-rule="evenodd" d="M488.699 389.682C488.954 388.524 490.579 387.896 491.739 388.151C492.898 388.407 493.632 389.553 493.377 390.711C493.122 391.869 491.813 393.339 490.654 393.084C489.494 392.828 488.445 390.84 488.699 389.682Z" fill="#1B3D79"/>
<path fill-rule="evenodd" clip-rule="evenodd" d="M479.023 387.553C479.278 386.395 480.897 385.766 482.06 386.022C483.22 386.278 483.954 387.424 483.699 388.582C483.444 389.74 482.135 391.21 480.975 390.955C479.812 390.699 478.768 388.712 479.023 387.553Z" fill="#1B3D79"/>
<path fill-rule="evenodd" clip-rule="evenodd" d="M469.339 385.423C469.594 384.265 471.222 383.638 472.384 383.894C473.546 384.149 474.27 385.294 474.016 386.452C473.761 387.61 472.461 389.082 471.299 388.826C470.137 388.57 469.084 386.581 469.339 385.423Z" fill="#1B3D79"/>
<path fill-rule="evenodd" clip-rule="evenodd" d="M459.665 383.295C459.919 382.137 461.548 381.51 462.71 381.766C463.861 382.019 464.596 383.165 464.341 384.324C464.087 385.482 462.776 386.951 461.625 386.698C460.463 386.442 459.41 384.453 459.665 383.295Z" fill="#1B3D79"/>
<path fill-rule="evenodd" clip-rule="evenodd" d="M449.99 381.167C450.245 380.009 451.864 379.38 453.025 379.635C454.187 379.891 454.922 381.037 454.667 382.196C454.412 383.354 453.102 384.823 451.94 384.568C450.779 384.312 449.735 382.325 449.99 381.167Z" fill="#1B3D79"/>
<path fill-rule="evenodd" clip-rule="evenodd" d="M440.306 379.036C440.561 377.878 442.189 377.252 443.351 377.507C444.513 377.763 445.237 378.907 444.983 380.065C444.728 381.224 443.428 382.695 442.266 382.44C441.104 382.184 440.051 380.195 440.306 379.036Z" fill="#1B3D79"/>
<path fill-rule="evenodd" clip-rule="evenodd" d="M430.632 376.908C430.886 375.75 432.515 375.124 433.667 375.377C434.828 375.633 435.563 376.779 435.308 377.937C435.054 379.096 433.743 380.565 432.582 380.309C431.43 380.056 430.377 378.067 430.632 376.908Z" fill="#1B3D79"/>
<path fill-rule="evenodd" clip-rule="evenodd" d="M420.957 374.78C421.212 373.622 422.831 372.993 423.992 373.249C425.154 373.505 425.889 374.651 425.634 375.809C425.379 376.967 424.069 378.437 422.907 378.181C421.746 377.926 420.702 375.939 420.957 374.78Z" fill="#1B3D79"/>
<path fill-rule="evenodd" clip-rule="evenodd" d="M411.273 372.65C411.528 371.492 413.156 370.865 414.318 371.121C415.47 371.374 416.205 372.521 415.95 373.679C415.695 374.837 414.385 376.306 413.233 376.053C412.071 375.797 411.018 373.808 411.273 372.65Z" fill="#1B3D79"/>
<path fill-rule="evenodd" clip-rule="evenodd" d="M391.914 368.392C392.169 367.233 393.798 366.607 394.96 366.863C396.121 367.118 396.846 368.262 396.591 369.42C396.336 370.579 395.036 372.05 393.875 371.795C392.713 371.539 391.66 369.55 391.914 368.392Z" fill="#1B3D79"/>
<path fill-rule="evenodd" clip-rule="evenodd" d="M382.24 366.264C382.495 365.105 384.123 364.479 385.275 364.732C386.437 364.988 387.172 366.134 386.917 367.292C386.662 368.451 385.352 369.92 384.19 369.664C383.038 369.411 381.985 367.422 382.24 366.264Z" fill="#1B3D79"/>
<path fill-rule="evenodd" clip-rule="evenodd" d="M372.566 364.135C372.82 362.977 374.439 362.349 375.601 362.604C376.763 362.86 377.497 364.006 377.243 365.164C376.988 366.322 375.678 367.792 374.516 367.536C373.354 367.281 372.311 365.294 372.566 364.135Z" fill="#1B3D79"/>
<path fill-rule="evenodd" clip-rule="evenodd" d="M362.881 362.005C363.136 360.847 364.765 360.22 365.927 360.476C367.078 360.729 367.813 361.876 367.558 363.034C367.304 364.192 365.993 365.661 364.842 365.408C363.68 365.153 362.627 363.163 362.881 362.005Z" fill="#1B3D79"/>
<path fill-rule="evenodd" clip-rule="evenodd" d="M353.207 359.877C353.462 358.719 355.081 358.09 356.242 358.346C357.404 358.601 358.139 359.748 357.884 360.906C357.629 362.064 356.319 363.533 355.157 363.278C353.996 363.022 352.952 361.035 353.207 359.877Z" fill="#1B3D79"/>
<path fill-rule="evenodd" clip-rule="evenodd" d="M343.523 357.747C343.777 356.588 345.406 355.962 346.568 356.218C347.73 356.473 348.464 357.619 348.21 358.778C347.955 359.936 346.645 361.405 345.483 361.15C344.321 360.894 343.268 358.905 343.523 357.747Z" fill="#1B3D79"/>
<path fill-rule="evenodd" clip-rule="evenodd" d="M333.848 355.619C334.103 354.46 335.732 353.834 336.884 354.087C338.045 354.343 338.78 355.489 338.525 356.647C338.271 357.806 336.96 359.275 335.799 359.019C334.647 358.766 333.594 356.777 333.848 355.619Z" fill="#1B3D79"/>
<path fill-rule="evenodd" clip-rule="evenodd" d="M324.174 353.49C324.429 352.332 326.048 351.704 327.209 351.959C328.371 352.215 329.106 353.361 328.851 354.519C328.596 355.678 327.286 357.147 326.124 356.891C324.963 356.636 323.919 354.649 324.174 353.49Z" fill="#1B3D79"/>
<path fill-rule="evenodd" clip-rule="evenodd" d="M314.49 351.36C314.745 350.202 316.373 349.576 317.535 349.831C318.697 350.087 319.421 351.231 319.167 352.389C318.912 353.547 317.612 355.019 316.45 354.763C315.288 354.508 314.235 352.518 314.49 351.36Z" fill="#1B3D79"/>
<path fill-rule="evenodd" clip-rule="evenodd" d="M304.816 349.232C305.07 348.074 306.699 347.447 307.851 347.701C309.012 347.956 309.747 349.103 309.492 350.261C309.238 351.419 307.928 352.888 306.766 352.633C305.614 352.38 304.561 350.39 304.816 349.232Z" fill="#1B3D79"/>
<path fill-rule="evenodd" clip-rule="evenodd" d="M295.131 347.102C295.386 345.944 297.015 345.317 298.176 345.573C299.338 345.828 300.073 346.975 299.818 348.133C299.563 349.291 298.253 350.76 297.091 350.505C295.93 350.249 294.876 348.26 295.131 347.102Z" fill="#1B3D79"/>
<path fill-rule="evenodd" clip-rule="evenodd" d="M285.457 344.974C285.712 343.815 287.34 343.189 288.502 343.445C289.654 343.698 290.389 344.844 290.134 346.002C289.879 347.161 288.569 348.63 287.417 348.377C286.255 348.121 285.202 346.132 285.457 344.974Z" fill="#1B3D79"/>
<path fill-rule="evenodd" clip-rule="evenodd" d="M275.783 342.846C276.037 341.687 277.656 341.059 278.818 341.314C279.98 341.57 280.714 342.716 280.46 343.874C280.205 345.033 278.895 346.502 277.733 346.246C276.571 345.991 275.528 344.004 275.783 342.846Z" fill="#1B3D79"/>
<path fill-rule="evenodd" clip-rule="evenodd" d="M529.366 389.32C529.62 388.162 531.245 387.534 532.405 387.789C533.564 388.044 534.298 389.191 534.043 390.349C533.789 391.507 532.48 392.977 531.32 392.721C530.16 392.466 529.111 390.478 529.366 389.32Z" fill="#1B3D79"/>
<path fill-rule="evenodd" clip-rule="evenodd" d="M519.686 387.191C519.941 386.032 521.566 385.405 522.725 385.66C523.885 385.915 524.619 387.061 524.364 388.22C524.109 389.378 522.8 390.847 521.64 390.592C520.481 390.337 519.431 388.349 519.686 387.191Z" fill="#1B3D79"/>
<path fill-rule="evenodd" clip-rule="evenodd" d="M510.009 385.062C510.264 383.903 511.888 383.276 513.048 383.531C514.208 383.786 514.942 384.933 514.687 386.091C514.432 387.249 513.123 388.719 511.963 388.463C510.803 388.208 509.754 386.22 510.009 385.062Z" fill="#1B3D79"/>
<path fill-rule="evenodd" clip-rule="evenodd" d="M500.331 382.933C500.585 381.774 502.21 381.147 503.37 381.402C504.529 381.657 505.263 382.804 505.008 383.962C504.754 385.12 503.445 386.59 502.285 386.334C501.125 386.079 500.076 384.091 500.331 382.933Z" fill="#1B3D79"/>
<path fill-rule="evenodd" clip-rule="evenodd" d="M490.652 380.804C490.907 379.646 492.532 379.018 493.692 379.273C494.851 379.528 495.585 380.675 495.33 381.833C495.075 382.991 493.766 384.461 492.607 384.206C491.447 383.95 490.398 381.962 490.652 380.804Z" fill="#1B3D79"/>
<path fill-rule="evenodd" clip-rule="evenodd" d="M480.976 378.675C481.231 377.517 482.849 376.888 484.013 377.144C485.173 377.4 485.907 378.546 485.652 379.704C485.397 380.862 484.088 382.332 482.928 382.077C481.765 381.821 480.721 379.834 480.976 378.675Z" fill="#1B3D79"/>
<path fill-rule="evenodd" clip-rule="evenodd" d="M471.292 376.545C471.546 375.387 473.175 374.76 474.337 375.016C475.499 375.271 476.223 376.415 475.969 377.574C475.714 378.732 474.414 380.204 473.252 379.948C472.09 379.692 471.037 377.703 471.292 376.545Z" fill="#1B3D79"/>
<path fill-rule="evenodd" clip-rule="evenodd" d="M461.617 374.417C461.872 373.259 463.501 372.632 464.663 372.888C465.814 373.141 466.549 374.287 466.294 375.446C466.04 376.604 464.729 378.073 463.578 377.82C462.416 377.564 461.363 375.575 461.617 374.417Z" fill="#1B3D79"/>
<path fill-rule="evenodd" clip-rule="evenodd" d="M451.943 372.289C452.198 371.13 453.817 370.502 454.978 370.757C456.14 371.013 456.875 372.159 456.62 373.318C456.365 374.476 455.055 375.945 453.893 375.69C452.732 375.434 451.688 373.447 451.943 372.289Z" fill="#1B3D79"/>
<path fill-rule="evenodd" clip-rule="evenodd" d="M442.259 370.158C442.514 369 444.142 368.374 445.304 368.629C446.466 368.885 447.19 370.029 446.936 371.187C446.681 372.346 445.381 373.817 444.219 373.562C443.057 373.306 442.004 371.317 442.259 370.158Z" fill="#1B3D79"/>
<path fill-rule="evenodd" clip-rule="evenodd" d="M432.584 368.03C432.839 366.872 434.468 366.246 435.62 366.499C436.781 366.755 437.516 367.901 437.261 369.059C437.007 370.217 435.696 371.687 434.535 371.431C433.383 371.178 432.33 369.189 432.584 368.03Z" fill="#1B3D79"/>
<path fill-rule="evenodd" clip-rule="evenodd" d="M422.91 365.902C423.165 364.744 424.784 364.115 425.945 364.371C427.107 364.627 427.842 365.773 427.587 366.931C427.332 368.089 426.022 369.559 424.86 369.303C423.699 369.048 422.655 367.061 422.91 365.902Z" fill="#1B3D79"/>
<path fill-rule="evenodd" clip-rule="evenodd" d="M413.226 363.772C413.481 362.614 415.109 361.987 416.271 362.243C417.423 362.496 418.158 363.643 417.903 364.801C417.648 365.959 416.338 367.428 415.186 367.175C414.024 366.919 412.971 364.93 413.226 363.772Z" fill="#1B3D79"/>
<path fill-rule="evenodd" clip-rule="evenodd" d="M403.552 361.644C403.806 360.486 405.425 359.857 406.587 360.113C407.748 360.368 408.483 361.514 408.228 362.673C407.974 363.831 406.663 365.3 405.502 365.045C404.34 364.789 403.297 362.802 403.552 361.644Z" fill="#1B3D79"/>
<path fill-rule="evenodd" clip-rule="evenodd" d="M393.867 359.514C394.122 358.355 395.751 357.729 396.912 357.984C398.074 358.24 398.799 359.384 398.544 360.542C398.289 361.701 396.989 363.172 395.827 362.917C394.666 362.661 393.612 360.672 393.867 359.514Z" fill="#1B3D79"/>
<path fill-rule="evenodd" clip-rule="evenodd" d="M384.193 357.385C384.448 356.227 386.076 355.601 387.228 355.854C388.39 356.11 389.125 357.256 388.87 358.414C388.615 359.573 387.305 361.042 386.143 360.786C384.991 360.533 383.938 358.544 384.193 357.385Z" fill="#1B3D79"/>
<path fill-rule="evenodd" clip-rule="evenodd" d="M374.519 355.257C374.773 354.099 376.392 353.471 377.554 353.726C378.716 353.982 379.45 355.128 379.196 356.286C378.941 357.444 377.631 358.914 376.469 358.658C375.307 358.403 374.264 356.416 374.519 355.257Z" fill="#1B3D79"/>
<path fill-rule="evenodd" clip-rule="evenodd" d="M364.834 353.127C365.089 351.969 366.718 351.342 367.88 351.598C369.031 351.851 369.766 352.998 369.511 354.156C369.256 355.314 367.946 356.783 366.795 356.53C365.633 356.275 364.58 354.285 364.834 353.127Z" fill="#1B3D79"/>
<path fill-rule="evenodd" clip-rule="evenodd" d="M355.16 350.999C355.415 349.841 357.034 349.212 358.195 349.468C359.357 349.723 360.092 350.87 359.837 352.028C359.582 353.186 358.272 354.655 357.11 354.4C355.949 354.144 354.905 352.157 355.16 350.999Z" fill="#1B3D79"/>
<path fill-rule="evenodd" clip-rule="evenodd" d="M345.476 348.869C345.73 347.71 347.359 347.084 348.521 347.34C349.683 347.595 350.417 348.741 350.163 349.9C349.908 351.058 348.598 352.527 347.436 352.272C346.274 352.016 345.221 350.027 345.476 348.869Z" fill="#1B3D79"/>
<path fill-rule="evenodd" clip-rule="evenodd" d="M335.801 346.741C336.056 345.582 337.685 344.956 338.837 345.209C339.998 345.465 340.733 346.611 340.478 347.769C340.224 348.928 338.913 350.397 337.752 350.141C336.6 349.888 335.547 347.899 335.801 346.741Z" fill="#1B3D79"/>
<path fill-rule="evenodd" clip-rule="evenodd" d="M326.127 344.612C326.382 343.454 328.001 342.826 329.162 343.081C330.324 343.337 331.059 344.483 330.804 345.641C330.549 346.8 329.239 348.269 328.077 348.013C326.916 347.758 325.872 345.771 326.127 344.612Z" fill="#1B3D79"/>
<path fill-rule="evenodd" clip-rule="evenodd" d="M316.443 342.482C316.698 341.324 318.326 340.698 319.488 340.953C320.65 341.209 321.374 342.353 321.12 343.511C320.865 344.669 319.565 346.141 318.403 345.885C317.241 345.63 316.188 343.64 316.443 342.482Z" fill="#1B3D79"/>
<path fill-rule="evenodd" clip-rule="evenodd" d="M297.084 338.224C297.339 337.066 298.968 336.439 300.129 336.695C301.291 336.95 302.026 338.097 301.771 339.255C301.516 340.413 300.206 341.882 299.044 341.627C297.883 341.371 296.829 339.382 297.084 338.224Z" fill="#1B3D79"/>
<path fill-rule="evenodd" clip-rule="evenodd" d="M287.41 336.096C287.665 334.937 289.293 334.311 290.455 334.567C291.607 334.82 292.342 335.966 292.087 337.124C291.832 338.283 290.522 339.752 289.37 339.499C288.208 339.243 287.155 337.254 287.41 336.096Z" fill="#1B3D79"/>
<path fill-rule="evenodd" clip-rule="evenodd" d="M277.736 333.968C277.99 332.809 279.609 332.181 280.771 332.436C281.933 332.692 282.667 333.838 282.413 334.996C282.158 336.155 280.848 337.624 279.686 337.368C278.524 337.113 277.481 335.126 277.736 333.968Z" fill="#1B3D79"/>
<path fill-rule="evenodd" clip-rule="evenodd" d="M531.318 380.442C531.573 379.283 533.198 378.656 534.358 378.911C535.517 379.166 536.251 380.312 535.996 381.471C535.742 382.629 534.432 384.098 533.273 383.843C532.113 383.588 531.064 381.6 531.318 380.442Z" fill="#1B3D79"/>
<path fill-rule="evenodd" clip-rule="evenodd" d="M521.639 378.312C521.894 377.154 523.519 376.527 524.678 376.782C525.838 377.037 526.572 378.183 526.317 379.341C526.062 380.5 524.753 381.969 523.593 381.714C522.434 381.459 521.384 379.471 521.639 378.312Z" fill="#1B3D79"/>
<path fill-rule="evenodd" clip-rule="evenodd" d="M511.962 376.184C512.217 375.025 513.841 374.398 515.001 374.653C516.161 374.908 516.895 376.054 516.64 377.213C516.385 378.371 515.076 379.841 513.916 379.585C512.756 379.33 511.707 377.342 511.962 376.184Z" fill="#1B3D79"/>
<path fill-rule="evenodd" clip-rule="evenodd" d="M502.284 374.055C502.538 372.896 504.163 372.269 505.323 372.524C506.482 372.779 507.216 373.925 506.961 375.084C506.707 376.242 505.397 377.712 504.238 377.456C503.078 377.201 502.029 375.213 502.284 374.055Z" fill="#1B3D79"/>
<path fill-rule="evenodd" clip-rule="evenodd" d="M492.605 371.926C492.86 370.767 494.485 370.14 495.644 370.395C496.804 370.65 497.538 371.797 497.283 372.955C497.028 374.113 495.719 375.583 494.56 375.327C493.4 375.072 492.35 373.084 492.605 371.926Z" fill="#1B3D79"/>
<path fill-rule="evenodd" clip-rule="evenodd" d="M482.929 369.797C483.184 368.639 484.802 368.01 485.966 368.266C487.126 368.521 487.86 369.668 487.605 370.826C487.35 371.984 486.041 373.454 484.881 373.199C483.718 372.943 482.674 370.956 482.929 369.797Z" fill="#1B3D79"/>
<path fill-rule="evenodd" clip-rule="evenodd" d="M473.245 367.667C473.499 366.509 475.128 365.882 476.29 366.138C477.452 366.393 478.176 367.537 477.922 368.696C477.667 369.854 476.367 371.326 475.205 371.07C474.043 370.814 472.99 368.825 473.245 367.667Z" fill="#1B3D79"/>
<path fill-rule="evenodd" clip-rule="evenodd" d="M463.57 365.539C463.825 364.381 465.454 363.754 466.616 364.01C467.767 364.263 468.502 365.409 468.247 366.568C467.992 367.726 466.682 369.195 465.531 368.942C464.369 368.686 463.316 366.697 463.57 365.539Z" fill="#1B3D79"/>
<path fill-rule="evenodd" clip-rule="evenodd" d="M453.896 363.411C454.151 362.252 455.77 361.624 456.931 361.879C458.093 362.135 458.828 363.281 458.573 364.44C458.318 365.598 457.008 367.067 455.846 366.812C454.685 366.556 453.641 364.569 453.896 363.411Z" fill="#1B3D79"/>
<path fill-rule="evenodd" clip-rule="evenodd" d="M444.212 361.28C444.467 360.122 446.095 359.496 447.257 359.751C448.419 360.007 449.143 361.151 448.889 362.309C448.634 363.467 447.334 364.939 446.172 364.683C445.01 364.428 443.957 362.439 444.212 361.28Z" fill="#1B3D79"/>
<path fill-rule="evenodd" clip-rule="evenodd" d="M446.245 352.038C446.499 350.88 448.128 350.254 449.29 350.509C450.452 350.765 451.176 351.909 450.922 353.067C450.667 354.225 449.367 355.697 448.205 355.441C447.043 355.186 445.99 353.197 446.245 352.038Z" fill="#1B3D79"/>
<path fill-rule="evenodd" clip-rule="evenodd" d="M434.537 359.152C434.792 357.994 436.421 357.368 437.573 357.621C438.734 357.877 439.469 359.023 439.214 360.181C438.96 361.339 437.649 362.809 436.488 362.553C435.336 362.3 434.283 360.311 434.537 359.152Z" fill="#1B3D79"/>
<path fill-rule="evenodd" clip-rule="evenodd" d="M424.863 357.024C425.118 355.866 426.737 355.237 427.898 355.493C429.06 355.748 429.795 356.895 429.54 358.053C429.285 359.211 427.975 360.681 426.813 360.425C425.652 360.17 424.608 358.183 424.863 357.024Z" fill="#1B3D79"/>
<path fill-rule="evenodd" clip-rule="evenodd" d="M415.179 354.894C415.434 353.736 417.062 353.109 418.224 353.365C419.376 353.618 420.11 354.764 419.856 355.923C419.601 357.081 418.291 358.55 417.139 358.297C415.977 358.041 414.924 356.052 415.179 354.894Z" fill="#1B3D79"/>
<path fill-rule="evenodd" clip-rule="evenodd" d="M405.504 352.766C405.759 351.608 407.378 350.979 408.54 351.235C409.701 351.49 410.436 352.636 410.181 353.795C409.927 354.953 408.616 356.422 407.455 356.167C406.293 355.911 405.25 353.924 405.504 352.766Z" fill="#1B3D79"/>
<path fill-rule="evenodd" clip-rule="evenodd" d="M395.82 350.636C396.075 349.477 397.704 348.851 398.865 349.106C400.027 349.362 400.752 350.506 400.497 351.664C400.242 352.823 398.942 354.294 397.78 354.039C396.619 353.783 395.565 351.794 395.82 350.636Z" fill="#1B3D79"/>
<path fill-rule="evenodd" clip-rule="evenodd" d="M386.146 348.507C386.401 347.349 388.029 346.723 389.181 346.976C390.343 347.232 391.078 348.378 390.823 349.536C390.568 350.695 389.258 352.164 388.096 351.908C386.944 351.655 385.891 349.666 386.146 348.507Z" fill="#1B3D79"/>
<path fill-rule="evenodd" clip-rule="evenodd" d="M376.472 346.379C376.726 345.221 378.345 344.592 379.507 344.848C380.669 345.104 381.403 346.25 381.149 347.408C380.894 348.566 379.584 350.036 378.422 349.78C377.26 349.525 376.217 347.538 376.472 346.379Z" fill="#1B3D79"/>
<path fill-rule="evenodd" clip-rule="evenodd" d="M366.787 344.249C367.042 343.091 368.671 342.464 369.833 342.72C370.984 342.973 371.719 344.12 371.464 345.278C371.209 346.436 369.899 347.905 368.748 347.652C367.586 347.397 366.533 345.407 366.787 344.249Z" fill="#1B3D79"/>
<path fill-rule="evenodd" clip-rule="evenodd" d="M357.113 342.121C357.368 340.963 358.986 340.334 360.148 340.59C361.31 340.845 362.045 341.991 361.79 343.15C361.535 344.308 360.225 345.777 359.063 345.522C357.901 345.266 356.858 343.279 357.113 342.121Z" fill="#1B3D79"/>
<path fill-rule="evenodd" clip-rule="evenodd" d="M347.429 339.991C347.683 338.832 349.312 338.206 350.474 338.462C351.636 338.717 352.37 339.863 352.116 341.022C351.861 342.18 350.551 343.649 349.389 343.394C348.227 343.138 347.174 341.149 347.429 339.991Z" fill="#1B3D79"/>
<path fill-rule="evenodd" clip-rule="evenodd" d="M337.754 337.863C338.009 336.704 339.638 336.078 340.79 336.331C341.951 336.587 342.686 337.733 342.431 338.891C342.176 340.05 340.866 341.519 339.705 341.263C338.553 341.01 337.5 339.021 337.754 337.863Z" fill="#1B3D79"/>
<path fill-rule="evenodd" clip-rule="evenodd" d="M328.08 335.734C328.335 334.576 329.953 333.948 331.115 334.203C332.277 334.459 333.012 335.605 332.757 336.763C332.502 337.921 331.192 339.391 330.03 339.135C328.869 338.88 327.825 336.893 328.08 335.734Z" fill="#1B3D79"/>
<path fill-rule="evenodd" clip-rule="evenodd" d="M318.396 333.604C318.651 332.446 320.279 331.819 321.441 332.075C322.603 332.331 323.327 333.475 323.073 334.633C322.818 335.791 321.518 337.263 320.356 337.007C319.194 336.752 318.141 334.762 318.396 333.604Z" fill="#1B3D79"/>
<path fill-rule="evenodd" clip-rule="evenodd" d="M308.721 331.476C308.976 330.318 310.605 329.691 311.757 329.945C312.918 330.2 313.653 331.347 313.398 332.505C313.144 333.663 311.833 335.132 310.672 334.877C309.52 334.624 308.467 332.634 308.721 331.476Z" fill="#1B3D79"/>
<path fill-rule="evenodd" clip-rule="evenodd" d="M289.363 327.218C289.618 326.059 291.246 325.433 292.408 325.689C293.56 325.942 294.295 327.088 294.04 328.246C293.785 329.405 292.475 330.874 291.323 330.621C290.161 330.365 289.108 328.376 289.363 327.218Z" fill="#1B3D79"/>
<path fill-rule="evenodd" clip-rule="evenodd" d="M279.689 325.09C279.943 323.931 281.562 323.303 282.724 323.558C283.886 323.814 284.62 324.96 284.366 326.118C284.111 327.277 282.801 328.746 281.639 328.49C280.477 328.235 279.434 326.248 279.689 325.09Z" fill="#1B3D79"/>
<path fill-rule="evenodd" clip-rule="evenodd" d="M533.271 371.564C533.526 370.405 535.151 369.778 536.311 370.033C537.47 370.288 538.204 371.434 537.949 372.593C537.695 373.751 536.385 375.22 535.226 374.965C534.066 374.71 533.017 372.722 533.271 371.564Z" fill="#1B3D79"/>
<path fill-rule="evenodd" clip-rule="evenodd" d="M523.592 369.434C523.847 368.276 525.472 367.649 526.631 367.904C527.791 368.159 528.525 369.305 528.27 370.463C528.015 371.622 526.706 373.091 525.546 372.836C524.387 372.581 523.337 370.593 523.592 369.434Z" fill="#1B3D79"/>
<path fill-rule="evenodd" clip-rule="evenodd" d="M513.915 367.306C514.17 366.147 515.794 365.52 516.954 365.775C518.114 366.03 518.847 367.176 518.593 368.335C518.338 369.493 517.029 370.962 515.869 370.707C514.709 370.452 513.66 368.464 513.915 367.306Z" fill="#1B3D79"/>
<path fill-rule="evenodd" clip-rule="evenodd" d="M504.237 365.177C504.491 364.018 506.116 363.391 507.276 363.646C508.435 363.901 509.169 365.047 508.914 366.206C508.66 367.364 507.35 368.834 506.191 368.578C505.031 368.323 503.982 366.335 504.237 365.177Z" fill="#1B3D79"/>
<path fill-rule="evenodd" clip-rule="evenodd" d="M494.558 363.048C494.813 361.889 496.438 361.262 497.597 361.517C498.757 361.772 499.491 362.918 499.236 364.077C498.981 365.235 497.672 366.705 496.512 366.449C495.353 366.194 494.303 364.206 494.558 363.048Z" fill="#1B3D79"/>
<path fill-rule="evenodd" clip-rule="evenodd" d="M484.882 360.919C485.137 359.761 486.755 359.132 487.919 359.388C489.079 359.643 489.813 360.789 489.558 361.948C489.303 363.106 487.994 364.576 486.834 364.32C485.67 364.064 484.627 362.077 484.882 360.919Z" fill="#1B3D79"/>
<path fill-rule="evenodd" clip-rule="evenodd" d="M475.198 358.789C475.452 357.631 477.081 357.004 478.243 357.26C479.405 357.515 480.129 358.659 479.874 359.818C479.62 360.976 478.32 362.447 477.158 362.192C475.996 361.936 474.943 359.947 475.198 358.789Z" fill="#1B3D79"/>
<path fill-rule="evenodd" clip-rule="evenodd" d="M465.523 356.661C465.778 355.503 467.407 354.876 468.569 355.132C469.72 355.385 470.455 356.531 470.2 357.69C469.945 358.848 468.635 360.317 467.484 360.064C466.322 359.808 465.269 357.819 465.523 356.661Z" fill="#1B3D79"/>
<path fill-rule="evenodd" clip-rule="evenodd" d="M436.49 350.274C436.745 349.116 438.374 348.49 439.526 348.743C440.687 348.999 441.422 350.145 441.167 351.303C440.912 352.461 439.602 353.931 438.441 353.675C437.289 353.422 436.236 351.433 436.49 350.274Z" fill="#1B3D79"/>
<path fill-rule="evenodd" clip-rule="evenodd" d="M417.132 346.016C417.387 344.858 419.015 344.231 420.177 344.487C421.329 344.74 422.063 345.886 421.809 347.045C421.554 348.203 420.244 349.672 419.092 349.419C417.93 349.163 416.877 347.174 417.132 346.016Z" fill="#1B3D79"/>
<path fill-rule="evenodd" clip-rule="evenodd" d="M407.457 343.888C407.712 342.729 409.331 342.101 410.493 342.356C411.654 342.612 412.389 343.758 412.134 344.917C411.88 346.075 410.569 347.544 409.408 347.289C408.246 347.033 407.203 345.046 407.457 343.888Z" fill="#1B3D79"/>
<path fill-rule="evenodd" clip-rule="evenodd" d="M378.425 337.501C378.679 336.343 380.298 335.714 381.46 335.97C382.621 336.225 383.356 337.372 383.101 338.53C382.847 339.688 381.536 341.158 380.375 340.902C379.213 340.647 378.17 338.66 378.425 337.501Z" fill="#1B3D79"/>
<path fill-rule="evenodd" clip-rule="evenodd" d="M368.74 335.371C368.995 334.213 370.624 333.586 371.785 333.842C372.937 334.095 373.672 335.242 373.417 336.4C373.162 337.558 371.852 339.027 370.701 338.774C369.539 338.518 368.485 336.529 368.74 335.371Z" fill="#1B3D79"/>
<path fill-rule="evenodd" clip-rule="evenodd" d="M359.066 333.243C359.321 332.085 360.939 331.456 362.101 331.712C363.263 331.967 363.998 333.113 363.743 334.272C363.488 335.43 362.178 336.899 361.016 336.644C359.854 336.388 358.811 334.401 359.066 333.243Z" fill="#1B3D79"/>
<path fill-rule="evenodd" clip-rule="evenodd" d="M349.382 331.113C349.636 329.954 351.265 329.328 352.427 329.583C353.588 329.839 354.323 330.985 354.068 332.144C353.814 333.302 352.504 334.771 351.342 334.516C350.18 334.26 349.127 332.271 349.382 331.113Z" fill="#1B3D79"/>
<path fill-rule="evenodd" clip-rule="evenodd" d="M339.707 328.984C339.962 327.826 341.591 327.2 342.743 327.453C343.904 327.709 344.639 328.855 344.384 330.013C344.129 331.172 342.819 332.641 341.658 332.385C340.506 332.132 339.453 330.143 339.707 328.984Z" fill="#1B3D79"/>
<path fill-rule="evenodd" clip-rule="evenodd" d="M330.033 326.856C330.288 325.698 331.907 325.07 333.068 325.325C334.23 325.581 334.965 326.727 334.71 327.885C334.455 329.043 333.145 330.513 331.983 330.257C330.822 330.002 329.778 328.015 330.033 326.856Z" fill="#1B3D79"/>
<path fill-rule="evenodd" clip-rule="evenodd" d="M320.349 324.726C320.604 323.568 322.232 322.941 323.394 323.197C324.556 323.453 325.28 324.597 325.026 325.755C324.771 326.913 323.471 328.385 322.309 328.129C321.147 327.874 320.094 325.884 320.349 324.726Z" fill="#1B3D79"/>
<path fill-rule="evenodd" clip-rule="evenodd" d="M310.674 322.598C310.929 321.44 312.558 320.813 313.71 321.067C314.871 321.322 315.606 322.469 315.351 323.627C315.097 324.785 313.786 326.254 312.625 325.999C311.473 325.745 310.42 323.756 310.674 322.598Z" fill="#1B3D79"/>
<path fill-rule="evenodd" clip-rule="evenodd" d="M300.99 320.468C301.245 319.309 302.874 318.683 304.035 318.939C305.197 319.194 305.932 320.34 305.677 321.499C305.422 322.657 304.112 324.126 302.95 323.871C301.789 323.615 300.735 321.626 300.99 320.468Z" fill="#1B3D79"/>
<path fill-rule="evenodd" clip-rule="evenodd" d="M291.316 318.34C291.571 317.181 293.199 316.555 294.361 316.81C295.513 317.064 296.247 318.21 295.993 319.368C295.738 320.527 294.428 321.996 293.276 321.743C292.114 321.487 291.061 319.498 291.316 318.34Z" fill="#1B3D79"/>
<path fill-rule="evenodd" clip-rule="evenodd" d="M281.642 316.212C281.896 315.053 283.515 314.425 284.677 314.68C285.838 314.936 286.573 316.082 286.318 317.24C286.064 318.399 284.753 319.868 283.592 319.612C282.43 319.357 281.387 317.37 281.642 316.212Z" fill="#1B3D79"/>
<path fill-rule="evenodd" clip-rule="evenodd" d="M535.224 362.686C535.479 361.527 537.104 360.9 538.264 361.155C539.423 361.41 540.157 362.556 539.902 363.715C539.647 364.873 538.338 366.342 537.179 366.087C536.019 365.832 534.97 363.844 535.224 362.686Z" fill="#1B3D79"/>
<path fill-rule="evenodd" clip-rule="evenodd" d="M525.545 360.556C525.8 359.398 527.425 358.771 528.584 359.026C529.744 359.281 530.478 360.427 530.223 361.585C529.968 362.744 528.659 364.213 527.499 363.958C526.34 363.703 525.29 361.715 525.545 360.556Z" fill="#1B3D79"/>
<path fill-rule="evenodd" clip-rule="evenodd" d="M515.868 358.428C516.123 357.269 517.747 356.642 518.907 356.897C520.067 357.152 520.8 358.298 520.546 359.457C520.291 360.615 518.982 362.084 517.822 361.829C516.662 361.574 515.613 359.586 515.868 358.428Z" fill="#1B3D79"/>
<path fill-rule="evenodd" clip-rule="evenodd" d="M506.189 356.299C506.444 355.14 508.069 354.513 509.229 354.768C510.388 355.023 511.122 356.169 510.867 357.328C510.613 358.486 509.303 359.955 508.144 359.7C506.984 359.445 505.935 357.457 506.189 356.299Z" fill="#1B3D79"/>
<path fill-rule="evenodd" clip-rule="evenodd" d="M496.511 354.17C496.766 353.011 498.391 352.384 499.55 352.639C500.71 352.894 501.444 354.04 501.189 355.199C500.934 356.357 499.625 357.826 498.465 357.571C497.306 357.316 496.256 355.328 496.511 354.17Z" fill="#1B3D79"/>
<path fill-rule="evenodd" clip-rule="evenodd" d="M486.835 352.041C487.09 350.883 488.708 350.254 489.872 350.51C491.032 350.765 491.766 351.911 491.511 353.07C491.256 354.228 489.947 355.698 488.787 355.442C487.623 355.186 486.58 353.199 486.835 352.041Z" fill="#1B3D79"/>
<path fill-rule="evenodd" clip-rule="evenodd" d="M477.15 349.911C477.405 348.753 479.034 348.126 480.196 348.382C481.357 348.637 482.082 349.781 481.827 350.94C481.573 352.098 480.272 353.569 479.111 353.314C477.949 353.058 476.896 351.069 477.15 349.911Z" fill="#1B3D79"/>
<path fill-rule="evenodd" clip-rule="evenodd" d="M457.802 345.655C458.057 344.496 459.675 343.868 460.837 344.123C461.999 344.379 462.734 345.525 462.479 346.683C462.224 347.842 460.914 349.311 459.752 349.055C458.59 348.8 457.547 346.813 457.802 345.655Z" fill="#1B3D79"/>
<path fill-rule="evenodd" clip-rule="evenodd" d="M438.443 341.396C438.698 340.238 440.327 339.612 441.478 339.865C442.64 340.12 443.375 341.267 443.12 342.425C442.865 343.583 441.555 345.053 440.394 344.797C439.242 344.544 438.189 342.555 438.443 341.396Z" fill="#1B3D79"/>
<path fill-rule="evenodd" clip-rule="evenodd" d="M428.769 339.268C429.024 338.11 430.642 337.481 431.804 337.737C432.966 337.992 433.701 339.139 433.446 340.297C433.191 341.455 431.881 342.925 430.719 342.669C429.558 342.413 428.514 340.426 428.769 339.268Z" fill="#1B3D79"/>
<path fill-rule="evenodd" clip-rule="evenodd" d="M419.085 337.138C419.339 335.98 420.968 335.353 422.13 335.609C423.282 335.862 424.016 337.008 423.762 338.167C423.507 339.325 422.197 340.794 421.045 340.541C419.883 340.285 418.83 338.296 419.085 337.138Z" fill="#1B3D79"/>
<path fill-rule="evenodd" clip-rule="evenodd" d="M409.41 335.01C409.665 333.851 411.284 333.223 412.446 333.478C413.607 333.734 414.342 334.88 414.087 336.039C413.832 337.197 412.522 338.666 411.361 338.411C410.199 338.155 409.156 336.168 409.41 335.01Z" fill="#1B3D79"/>
<path fill-rule="evenodd" clip-rule="evenodd" d="M399.726 332.879C399.981 331.721 401.61 331.095 402.771 331.35C403.933 331.606 404.658 332.75 404.403 333.908C404.148 335.066 402.848 336.538 401.686 336.282C400.525 336.027 399.471 334.038 399.726 332.879Z" fill="#1B3D79"/>
<path fill-rule="evenodd" clip-rule="evenodd" d="M390.052 330.751C390.307 329.593 391.935 328.967 393.087 329.22C394.249 329.476 394.984 330.622 394.729 331.78C394.474 332.938 393.164 334.408 392.002 334.152C390.85 333.899 389.797 331.91 390.052 330.751Z" fill="#1B3D79"/>
<path fill-rule="evenodd" clip-rule="evenodd" d="M380.377 328.623C380.632 327.465 382.251 326.836 383.413 327.092C384.574 327.348 385.309 328.494 385.054 329.652C384.8 330.81 383.489 332.28 382.328 332.024C381.166 331.769 380.123 329.782 380.377 328.623Z" fill="#1B3D79"/>
<path fill-rule="evenodd" clip-rule="evenodd" d="M351.334 322.235C351.589 321.076 353.218 320.45 354.38 320.705C355.541 320.961 356.276 322.107 356.021 323.266C355.767 324.424 354.456 325.893 353.295 325.638C352.133 325.382 351.08 323.393 351.334 322.235Z" fill="#1B3D79"/>
<path fill-rule="evenodd" clip-rule="evenodd" d="M341.66 320.106C341.915 318.948 343.544 318.322 344.695 318.575C345.857 318.831 346.592 319.977 346.337 321.135C346.082 322.294 344.772 323.763 343.611 323.507C342.459 323.254 341.405 321.265 341.66 320.106Z" fill="#1B3D79"/>
<path fill-rule="evenodd" clip-rule="evenodd" d="M331.986 317.978C332.241 316.82 333.859 316.191 335.021 316.447C336.183 316.703 336.918 317.849 336.663 319.007C336.408 320.165 335.098 321.635 333.936 321.379C332.774 321.124 331.731 319.137 331.986 317.978Z" fill="#1B3D79"/>
<path fill-rule="evenodd" clip-rule="evenodd" d="M322.302 315.848C322.556 314.69 324.185 314.063 325.347 314.319C326.509 314.574 327.233 315.719 326.978 316.877C326.724 318.035 325.424 319.507 324.262 319.251C323.1 318.995 322.047 317.006 322.302 315.848Z" fill="#1B3D79"/>
<path fill-rule="evenodd" clip-rule="evenodd" d="M312.627 313.72C312.882 312.562 314.511 311.935 315.663 312.189C316.824 312.444 317.559 313.59 317.304 314.749C317.049 315.907 315.739 317.376 314.578 317.121C313.426 316.867 312.373 314.878 312.627 313.72Z" fill="#1B3D79"/>
<path fill-rule="evenodd" clip-rule="evenodd" d="M302.943 311.59C303.198 310.431 304.826 309.805 305.988 310.061C307.15 310.316 307.885 311.462 307.63 312.621C307.375 313.779 306.065 315.248 304.903 314.993C303.742 314.737 302.688 312.748 302.943 311.59Z" fill="#1B3D79"/>
<path fill-rule="evenodd" clip-rule="evenodd" d="M293.269 309.462C293.523 308.303 295.152 307.677 296.314 307.932C297.466 308.186 298.2 309.332 297.946 310.49C297.691 311.649 296.381 313.118 295.229 312.865C294.067 312.609 293.014 310.62 293.269 309.462Z" fill="#1B3D79"/>
<path fill-rule="evenodd" clip-rule="evenodd" d="M283.594 307.333C283.849 306.175 285.468 305.547 286.63 305.802C287.791 306.058 288.526 307.204 288.271 308.362C288.017 309.521 286.706 310.99 285.545 310.734C284.383 310.479 283.34 308.492 283.594 307.333Z" fill="#1B3D79"/>
<path fill-rule="evenodd" clip-rule="evenodd" d="M537.177 353.809C537.432 352.65 539.057 352.023 540.216 352.278C541.376 352.533 542.11 353.679 541.855 354.838C541.6 355.996 540.291 357.465 539.131 357.21C537.972 356.955 536.922 354.967 537.177 353.809Z" fill="#1B3D79"/>
<path fill-rule="evenodd" clip-rule="evenodd" d="M527.498 351.679C527.753 350.521 529.377 349.894 530.537 350.149C531.697 350.404 532.43 351.55 532.176 352.708C531.921 353.867 530.612 355.336 529.452 355.081C528.292 354.826 527.243 352.838 527.498 351.679Z" fill="#1B3D79"/>
<path fill-rule="evenodd" clip-rule="evenodd" d="M517.82 349.551C518.075 348.392 519.7 347.765 520.86 348.02C522.019 348.275 522.753 349.421 522.498 350.58C522.244 351.738 520.934 353.207 519.775 352.952C518.615 352.697 517.566 350.709 517.82 349.551Z" fill="#1B3D79"/>
<path fill-rule="evenodd" clip-rule="evenodd" d="M508.142 347.422C508.397 346.263 510.022 345.636 511.181 345.891C512.341 346.146 513.075 347.292 512.82 348.451C512.565 349.609 511.256 351.078 510.096 350.823C508.937 350.568 507.887 348.58 508.142 347.422Z" fill="#1B3D79"/>
<path fill-rule="evenodd" clip-rule="evenodd" d="M498.464 345.293C498.719 344.134 500.343 343.507 501.503 343.762C502.663 344.017 503.397 345.163 503.142 346.322C502.887 347.48 501.578 348.949 500.418 348.694C499.258 348.439 498.209 346.451 498.464 345.293Z" fill="#1B3D79"/>
<path fill-rule="evenodd" clip-rule="evenodd" d="M488.788 343.164C489.042 342.006 490.661 341.377 491.825 341.633C492.984 341.888 493.718 343.034 493.463 344.193C493.209 345.351 491.9 346.82 490.74 346.565C489.576 346.309 488.533 344.322 488.788 343.164Z" fill="#1B3D79"/>
<path fill-rule="evenodd" clip-rule="evenodd" d="M469.429 338.906C469.684 337.747 471.313 337.121 472.474 337.377C473.626 337.63 474.361 338.776 474.106 339.935C473.851 341.093 472.541 342.562 471.389 342.309C470.228 342.053 469.174 340.064 469.429 338.906Z" fill="#1B3D79"/>
<path fill-rule="evenodd" clip-rule="evenodd" d="M459.755 336.778C460.009 335.619 461.628 334.991 462.79 335.246C463.952 335.502 464.686 336.648 464.432 337.806C464.177 338.965 462.867 340.434 461.705 340.178C460.543 339.923 459.5 337.936 459.755 336.778Z" fill="#1B3D79"/>
<path fill-rule="evenodd" clip-rule="evenodd" d="M450.07 334.647C450.325 333.489 451.954 332.863 453.116 333.118C454.277 333.374 455.002 334.518 454.747 335.676C454.492 336.834 453.192 338.306 452.031 338.05C450.869 337.795 449.816 335.806 450.07 334.647Z" fill="#1B3D79"/>
<path fill-rule="evenodd" clip-rule="evenodd" d="M440.396 332.519C440.651 331.361 442.28 330.735 443.431 330.988C444.593 331.243 445.328 332.39 445.073 333.548C444.818 334.706 443.508 336.176 442.346 335.92C441.195 335.667 440.141 333.678 440.396 332.519Z" fill="#1B3D79"/>
<path fill-rule="evenodd" clip-rule="evenodd" d="M430.722 330.391C430.977 329.233 432.595 328.604 433.757 328.86C434.919 329.115 435.653 330.262 435.399 331.42C435.144 332.578 433.834 334.048 432.672 333.792C431.51 333.536 430.467 331.549 430.722 330.391Z" fill="#1B3D79"/>
<path fill-rule="evenodd" clip-rule="evenodd" d="M421.037 328.261C421.292 327.103 422.921 326.476 424.083 326.732C425.234 326.985 425.969 328.131 425.714 329.29C425.46 330.448 424.149 331.917 422.998 331.664C421.836 331.408 420.783 329.419 421.037 328.261Z" fill="#1B3D79"/>
<path fill-rule="evenodd" clip-rule="evenodd" d="M411.363 326.133C411.618 324.974 413.237 324.346 414.398 324.601C415.56 324.857 416.295 326.003 416.04 327.162C415.785 328.32 414.475 329.789 413.313 329.534C412.152 329.278 411.108 327.291 411.363 326.133Z" fill="#1B3D79"/>
<path fill-rule="evenodd" clip-rule="evenodd" d="M401.679 324.002C401.934 322.844 403.562 322.218 404.724 322.473C405.886 322.729 406.61 323.873 406.356 325.031C406.101 326.189 404.801 327.661 403.639 327.405C402.477 327.15 401.424 325.161 401.679 324.002Z" fill="#1B3D79"/>
<path fill-rule="evenodd" clip-rule="evenodd" d="M392.005 321.874C392.259 320.716 393.888 320.09 395.04 320.343C396.201 320.599 396.936 321.745 396.681 322.903C396.427 324.061 395.116 325.531 393.955 325.275C392.803 325.022 391.75 323.033 392.005 321.874Z" fill="#1B3D79"/>
<path fill-rule="evenodd" clip-rule="evenodd" d="M382.33 319.746C382.585 318.588 384.204 317.959 385.365 318.215C386.527 318.47 387.262 319.617 387.007 320.775C386.752 321.933 385.442 323.403 384.28 323.147C383.119 322.892 382.075 320.904 382.33 319.746Z" fill="#1B3D79"/>
<path fill-rule="evenodd" clip-rule="evenodd" d="M372.646 317.616C372.901 316.458 374.529 315.831 375.691 316.087C376.843 316.34 377.578 317.486 377.323 318.645C377.068 319.803 375.758 321.272 374.606 321.019C373.444 320.763 372.391 318.774 372.646 317.616Z" fill="#1B3D79"/>
<path fill-rule="evenodd" clip-rule="evenodd" d="M362.972 315.488C363.226 314.33 364.845 313.701 366.007 313.957C367.168 314.212 367.903 315.358 367.649 316.517C367.394 317.675 366.084 319.144 364.922 318.889C363.76 318.633 362.717 316.646 362.972 315.488Z" fill="#1B3D79"/>
<path fill-rule="evenodd" clip-rule="evenodd" d="M343.613 311.229C343.868 310.071 345.496 309.445 346.648 309.698C347.81 309.954 348.545 311.1 348.29 312.258C348.035 313.416 346.725 314.886 345.563 314.63C344.411 314.377 343.358 312.388 343.613 311.229Z" fill="#1B3D79"/>
<path fill-rule="evenodd" clip-rule="evenodd" d="M333.939 309.101C334.193 307.943 335.812 307.314 336.974 307.57C338.136 307.826 338.87 308.972 338.616 310.13C338.361 311.288 337.051 312.758 335.889 312.502C334.727 312.247 333.684 310.26 333.939 309.101Z" fill="#1B3D79"/>
<path fill-rule="evenodd" clip-rule="evenodd" d="M324.254 306.971C324.509 305.813 326.138 305.186 327.299 305.442C328.461 305.697 329.186 306.842 328.931 308C328.676 309.158 327.376 310.63 326.215 310.374C325.053 310.118 323.999 308.129 324.254 306.971Z" fill="#1B3D79"/>
<path fill-rule="evenodd" clip-rule="evenodd" d="M314.58 304.843C314.835 303.685 316.464 303.058 317.615 303.312C318.777 303.567 319.512 304.713 319.257 305.872C319.002 307.03 317.692 308.499 316.53 308.244C315.379 307.99 314.325 306.001 314.58 304.843Z" fill="#1B3D79"/>
<path fill-rule="evenodd" clip-rule="evenodd" d="M304.896 302.713C305.151 301.554 306.779 300.928 307.941 301.183C309.103 301.439 309.837 302.585 309.583 303.744C309.328 304.902 308.018 306.371 306.856 306.116C305.694 305.86 304.641 303.871 304.896 302.713Z" fill="#1B3D79"/>
<path fill-rule="evenodd" clip-rule="evenodd" d="M295.221 300.585C295.476 299.426 297.105 298.8 298.267 299.055C299.418 299.309 300.153 300.455 299.898 301.613C299.644 302.772 298.333 304.241 297.182 303.988C296.02 303.732 294.967 301.743 295.221 300.585Z" fill="#1B3D79"/>
<path fill-rule="evenodd" clip-rule="evenodd" d="M539.13 344.93C539.385 343.771 541.01 343.144 542.169 343.399C543.329 343.654 544.063 344.8 543.808 345.959C543.553 347.117 542.244 348.586 541.084 348.331C539.925 348.076 538.875 346.088 539.13 344.93Z" fill="#1B3D79"/>
<path fill-rule="evenodd" clip-rule="evenodd" d="M529.451 342.8C529.706 341.642 531.33 341.015 532.49 341.27C533.65 341.525 534.384 342.671 534.129 343.829C533.874 344.988 532.565 346.457 531.405 346.202C530.245 345.947 529.196 343.959 529.451 342.8Z" fill="#1B3D79"/>
<path fill-rule="evenodd" clip-rule="evenodd" d="M519.774 340.672C520.028 339.513 521.653 338.886 522.813 339.141C523.973 339.396 524.706 340.542 524.452 341.701C524.197 342.859 522.888 344.328 521.728 344.073C520.568 343.818 519.519 341.83 519.774 340.672Z" fill="#1B3D79"/>
<path fill-rule="evenodd" clip-rule="evenodd" d="M500.417 336.414C500.672 335.255 502.296 334.628 503.456 334.883C504.616 335.138 505.35 336.284 505.095 337.443C504.84 338.601 503.531 340.07 502.371 339.815C501.212 339.56 500.162 337.572 500.417 336.414Z" fill="#1B3D79"/>
<path fill-rule="evenodd" clip-rule="evenodd" d="M490.741 334.285C490.995 333.127 492.614 332.498 493.778 332.754C494.938 333.009 495.671 334.155 495.417 335.314C495.162 336.472 493.853 337.941 492.693 337.686C491.529 337.43 490.486 335.443 490.741 334.285Z" fill="#1B3D79"/>
<path fill-rule="evenodd" clip-rule="evenodd" d="M455.929 354.169C456.184 353.01 457.802 352.382 458.964 352.637C460.126 352.893 460.861 354.039 460.606 355.197C460.351 356.356 459.041 357.825 457.879 357.569C456.718 357.314 455.674 355.327 455.929 354.169Z" fill="#1B3D79"/>
<path fill-rule="evenodd" clip-rule="evenodd" d="M467.556 347.419C467.811 346.26 469.44 345.634 470.602 345.89C471.753 346.143 472.488 347.289 472.233 348.448C471.978 349.606 470.668 351.075 469.517 350.822C468.355 350.566 467.302 348.577 467.556 347.419Z" fill="#1B3D79"/>
<path fill-rule="evenodd" clip-rule="evenodd" d="M481.056 332.155C481.311 330.996 482.94 330.37 484.102 330.626C485.263 330.881 485.988 332.025 485.733 333.184C485.479 334.342 484.178 335.813 483.017 335.558C481.855 335.302 480.802 333.313 481.056 332.155Z" fill="#1B3D79"/>
<path fill-rule="evenodd" clip-rule="evenodd" d="M471.382 330.027C471.637 328.868 473.266 328.242 474.427 328.498C475.579 328.751 476.314 329.897 476.059 331.055C475.804 332.214 474.494 333.683 473.342 333.43C472.181 333.174 471.127 331.185 471.382 330.027Z" fill="#1B3D79"/>
<path fill-rule="evenodd" clip-rule="evenodd" d="M461.708 327.899C461.963 326.74 463.581 326.112 464.743 326.367C465.905 326.623 466.639 327.769 466.385 328.927C466.13 330.086 464.82 331.555 463.658 331.299C462.496 331.044 461.453 329.057 461.708 327.899Z" fill="#1B3D79"/>
<path fill-rule="evenodd" clip-rule="evenodd" d="M452.023 325.768C452.278 324.61 453.907 323.984 455.069 324.239C456.23 324.495 456.955 325.639 456.7 326.797C456.446 327.955 455.145 329.427 453.984 329.171C452.822 328.916 451.769 326.927 452.023 325.768Z" fill="#1B3D79"/>
<path fill-rule="evenodd" clip-rule="evenodd" d="M442.349 323.64C442.604 322.482 444.233 321.855 445.384 322.109C446.546 322.364 447.281 323.511 447.026 324.669C446.771 325.827 445.461 327.297 444.299 327.041C443.148 326.788 442.094 324.798 442.349 323.64Z" fill="#1B3D79"/>
<path fill-rule="evenodd" clip-rule="evenodd" d="M432.675 321.512C432.93 320.354 434.548 319.725 435.71 319.981C436.872 320.236 437.607 321.383 437.352 322.541C437.097 323.699 435.787 325.168 434.625 324.913C433.463 324.657 432.42 322.67 432.675 321.512Z" fill="#1B3D79"/>
<path fill-rule="evenodd" clip-rule="evenodd" d="M422.991 319.382C423.245 318.224 424.874 317.597 426.036 317.853C427.187 318.106 427.922 319.252 427.667 320.411C427.413 321.569 426.103 323.038 424.951 322.785C423.789 322.529 422.736 320.54 422.991 319.382Z" fill="#1B3D79"/>
<path fill-rule="evenodd" clip-rule="evenodd" d="M413.316 317.254C413.571 316.095 415.19 315.467 416.351 315.722C417.513 315.978 418.248 317.124 417.993 318.282C417.738 319.441 416.428 320.91 415.266 320.654C414.105 320.399 413.061 318.412 413.316 317.254Z" fill="#1B3D79"/>
<path fill-rule="evenodd" clip-rule="evenodd" d="M403.632 315.123C403.887 313.965 405.515 313.339 406.677 313.594C407.839 313.85 408.564 314.994 408.309 316.152C408.054 317.31 406.754 318.782 405.592 318.526C404.43 318.271 403.377 316.282 403.632 315.123Z" fill="#1B3D79"/>
<path fill-rule="evenodd" clip-rule="evenodd" d="M393.958 312.995C394.212 311.837 395.841 311.211 396.993 311.464C398.155 311.719 398.889 312.866 398.635 314.024C398.38 315.182 397.07 316.652 395.908 316.396C394.756 316.143 393.703 314.153 393.958 312.995Z" fill="#1B3D79"/>
<path fill-rule="evenodd" clip-rule="evenodd" d="M384.283 310.867C384.538 309.709 386.157 309.08 387.319 309.336C388.48 309.591 389.215 310.738 388.96 311.896C388.705 313.054 387.395 314.524 386.234 314.268C385.072 314.012 384.029 312.025 384.283 310.867Z" fill="#1B3D79"/>
<path fill-rule="evenodd" clip-rule="evenodd" d="M374.599 308.737C374.854 307.579 376.483 306.952 377.644 307.208C378.796 307.461 379.531 308.607 379.276 309.766C379.021 310.924 377.711 312.393 376.559 312.14C375.398 311.884 374.344 309.895 374.599 308.737Z" fill="#1B3D79"/>
<path fill-rule="evenodd" clip-rule="evenodd" d="M364.925 306.609C365.18 305.451 366.798 304.822 367.96 305.077C369.122 305.333 369.856 306.479 369.602 307.638C369.347 308.796 368.037 310.265 366.875 310.01C365.713 309.754 364.67 307.767 364.925 306.609Z" fill="#1B3D79"/>
<path fill-rule="evenodd" clip-rule="evenodd" d="M355.24 304.478C355.495 303.32 357.124 302.694 358.286 302.949C359.447 303.205 360.182 304.351 359.927 305.509C359.673 306.668 358.362 308.137 357.201 307.881C356.039 307.626 354.986 305.637 355.24 304.478Z" fill="#1B3D79"/>
<path fill-rule="evenodd" clip-rule="evenodd" d="M345.566 302.35C345.821 301.192 347.45 300.566 348.601 300.819C349.763 301.075 350.498 302.221 350.243 303.379C349.988 304.537 348.678 306.007 347.516 305.751C346.365 305.498 345.311 303.509 345.566 302.35Z" fill="#1B3D79"/>
<path fill-rule="evenodd" clip-rule="evenodd" d="M326.207 298.092C326.462 296.934 328.091 296.307 329.253 296.563C330.414 296.818 331.139 297.963 330.884 299.121C330.63 300.279 329.329 301.751 328.168 301.495C327.006 301.239 325.953 299.25 326.207 298.092Z" fill="#1B3D79"/>
<path fill-rule="evenodd" clip-rule="evenodd" d="M397.853 341.393C398.108 340.235 399.737 339.609 400.898 339.864C402.06 340.12 402.785 341.264 402.53 342.422C402.275 343.58 400.975 345.052 399.813 344.796C398.652 344.541 397.598 342.552 397.853 341.393Z" fill="#1B3D79"/>
<path fill-rule="evenodd" clip-rule="evenodd" d="M388.179 339.265C388.434 338.107 390.062 337.481 391.214 337.734C392.376 337.99 393.111 339.136 392.856 340.294C392.601 341.452 391.291 342.922 390.129 342.666C388.977 342.413 387.924 340.424 388.179 339.265Z" fill="#1B3D79"/>
<path fill-rule="evenodd" clip-rule="evenodd" d="M370.773 326.129C371.028 324.971 372.657 324.344 373.818 324.6C374.97 324.853 375.705 325.999 375.45 327.158C375.195 328.316 373.885 329.785 372.734 329.532C371.572 329.276 370.518 327.287 370.773 326.129Z" fill="#1B3D79"/>
<path fill-rule="evenodd" clip-rule="evenodd" d="M361.099 324.001C361.354 322.843 362.972 322.214 364.134 322.469C365.296 322.725 366.031 323.871 365.776 325.03C365.521 326.188 364.211 327.657 363.049 327.402C361.887 327.146 360.844 325.159 361.099 324.001Z" fill="#1B3D79"/>
<path fill-rule="evenodd" clip-rule="evenodd" d="M353.368 312.992C353.622 311.834 355.251 311.208 356.413 311.463C357.575 311.719 358.309 312.865 358.055 314.023C357.8 315.182 356.49 316.651 355.328 316.395C354.166 316.14 353.113 314.151 353.368 312.992Z" fill="#1B3D79"/>
<path fill-rule="evenodd" clip-rule="evenodd" d="M335.972 299.859C336.226 298.701 337.845 298.072 339.007 298.328C340.169 298.583 340.903 299.73 340.649 300.888C340.394 302.046 339.084 303.516 337.922 303.26C336.76 303.004 335.717 301.017 335.972 299.859Z" fill="#1B3D79"/>
<path fill-rule="evenodd" clip-rule="evenodd" d="M316.533 295.964C316.788 294.806 318.417 294.179 319.568 294.433C320.73 294.688 321.465 295.834 321.21 296.993C320.955 298.151 319.645 299.62 318.483 299.365C317.332 299.111 316.278 297.122 316.533 295.964Z" fill="#1B3D79"/>
<path fill-rule="evenodd" clip-rule="evenodd" d="M306.849 293.834C307.104 292.675 308.732 292.049 309.894 292.304C311.056 292.56 311.791 293.706 311.536 294.865C311.281 296.023 309.971 297.492 308.809 297.237C307.647 296.981 306.594 294.992 306.849 293.834Z" fill="#1B3D79"/>
<path fill-rule="evenodd" clip-rule="evenodd" d="M297.175 291.705C297.429 290.547 299.058 289.921 300.22 290.176C301.371 290.43 302.106 291.576 301.851 292.734C301.597 293.893 300.287 295.362 299.135 295.108C297.973 294.853 296.92 292.864 297.175 291.705Z" fill="#1B3D79"/>
<path fill-rule="evenodd" clip-rule="evenodd" d="M541.083 336.051C541.338 334.893 542.963 334.266 544.122 334.521C545.282 334.776 546.016 335.922 545.761 337.08C545.506 338.239 544.197 339.708 543.037 339.453C541.878 339.198 540.828 337.21 541.083 336.051Z" fill="#1B3D79"/>
<path fill-rule="evenodd" clip-rule="evenodd" d="M521.727 331.793C521.981 330.635 523.606 330.008 524.766 330.263C525.925 330.518 526.659 331.664 526.404 332.823C526.15 333.981 524.841 335.45 523.681 335.195C522.521 334.94 521.472 332.952 521.727 331.793Z" fill="#1B3D79"/>
<path fill-rule="evenodd" clip-rule="evenodd" d="M512.048 329.665C512.303 328.506 513.928 327.879 515.087 328.134C516.247 328.389 516.981 329.535 516.726 330.694C516.471 331.852 515.162 333.321 514.003 333.066C512.843 332.811 511.793 330.823 512.048 329.665Z" fill="#1B3D79"/>
<path fill-rule="evenodd" clip-rule="evenodd" d="M502.37 327.536C502.625 326.377 504.249 325.75 505.409 326.005C506.569 326.26 507.303 327.406 507.048 328.565C506.793 329.723 505.484 331.192 504.324 330.937C503.165 330.682 502.115 328.694 502.37 327.536Z" fill="#1B3D79"/>
<path fill-rule="evenodd" clip-rule="evenodd" d="M483.009 323.277C483.264 322.118 484.893 321.492 486.055 321.748C487.216 322.003 487.941 323.147 487.686 324.306C487.432 325.464 486.131 326.935 484.97 326.68C483.808 326.424 482.755 324.435 483.009 323.277Z" fill="#1B3D79"/>
<path fill-rule="evenodd" clip-rule="evenodd" d="M473.335 321.149C473.59 319.99 475.219 319.364 476.38 319.62C477.532 319.873 478.267 321.019 478.012 322.177C477.757 323.336 476.447 324.805 475.295 324.552C474.134 324.296 473.08 322.307 473.335 321.149Z" fill="#1B3D79"/>
<path fill-rule="evenodd" clip-rule="evenodd" d="M463.661 319.021C463.916 317.862 465.534 317.234 466.696 317.489C467.858 317.745 468.592 318.891 468.338 320.049C468.083 321.208 466.773 322.677 465.611 322.421C464.449 322.166 463.406 320.179 463.661 319.021Z" fill="#1B3D79"/>
<path fill-rule="evenodd" clip-rule="evenodd" d="M453.976 316.89C454.231 315.732 455.86 315.106 457.022 315.361C458.183 315.617 458.908 316.761 458.653 317.919C458.399 319.077 457.098 320.549 455.937 320.293C454.775 320.038 453.722 318.048 453.976 316.89Z" fill="#1B3D79"/>
<path fill-rule="evenodd" clip-rule="evenodd" d="M444.302 314.762C444.557 313.604 446.186 312.977 447.337 313.231C448.499 313.486 449.234 314.633 448.979 315.791C448.724 316.949 447.414 318.418 446.252 318.163C445.101 317.91 444.047 315.92 444.302 314.762Z" fill="#1B3D79"/>
<path fill-rule="evenodd" clip-rule="evenodd" d="M434.628 312.634C434.883 311.476 436.501 310.847 437.663 311.103C438.825 311.358 439.559 312.505 439.305 313.663C439.05 314.821 437.74 316.29 436.578 316.035C435.416 315.779 434.373 313.792 434.628 312.634Z" fill="#1B3D79"/>
<path fill-rule="evenodd" clip-rule="evenodd" d="M424.944 310.504C425.198 309.345 426.827 308.719 427.989 308.975C429.14 309.228 429.875 310.374 429.62 311.533C429.366 312.691 428.055 314.16 426.904 313.907C425.742 313.651 424.689 311.662 424.944 310.504Z" fill="#1B3D79"/>
<path fill-rule="evenodd" clip-rule="evenodd" d="M415.269 308.376C415.524 307.217 417.143 306.589 418.304 306.844C419.466 307.1 420.201 308.246 419.946 309.404C419.691 310.563 418.381 312.032 417.219 311.776C416.058 311.521 415.014 309.534 415.269 308.376Z" fill="#1B3D79"/>
<path fill-rule="evenodd" clip-rule="evenodd" d="M405.585 306.245C405.84 305.087 407.468 304.461 408.63 304.716C409.792 304.972 410.517 306.116 410.262 307.274C410.007 308.432 408.707 309.904 407.545 309.648C406.383 309.393 405.33 307.404 405.585 306.245Z" fill="#1B3D79"/>
<path fill-rule="evenodd" clip-rule="evenodd" d="M395.911 304.117C396.165 302.959 397.794 302.333 398.946 302.586C400.107 302.841 400.842 303.988 400.587 305.146C400.333 306.304 399.023 307.774 397.861 307.518C396.709 307.265 395.656 305.276 395.911 304.117Z" fill="#1B3D79"/>
<path fill-rule="evenodd" clip-rule="evenodd" d="M386.236 301.989C386.491 300.831 388.11 300.202 389.271 300.458C390.433 300.713 391.168 301.86 390.913 303.018C390.658 304.176 389.348 305.645 388.187 305.39C387.025 305.134 385.981 303.147 386.236 301.989Z" fill="#1B3D79"/>
<path fill-rule="evenodd" clip-rule="evenodd" d="M376.552 299.859C376.807 298.701 378.435 298.074 379.597 298.33C380.749 298.583 381.484 299.729 381.229 300.888C380.974 302.046 379.664 303.515 378.512 303.262C377.351 303.006 376.297 301.017 376.552 299.859Z" fill="#1B3D79"/>
<path fill-rule="evenodd" clip-rule="evenodd" d="M366.878 297.731C367.132 296.572 368.751 295.944 369.913 296.199C371.075 296.455 371.809 297.601 371.555 298.76C371.3 299.918 369.99 301.387 368.828 301.132C367.666 300.876 366.623 298.889 366.878 297.731Z" fill="#1B3D79"/>
<path fill-rule="evenodd" clip-rule="evenodd" d="M357.193 295.6C357.448 294.442 359.077 293.816 360.239 294.071C361.4 294.327 362.135 295.473 361.88 296.631C361.625 297.79 360.315 299.259 359.154 299.003C357.992 298.748 356.939 296.759 357.193 295.6Z" fill="#1B3D79"/>
<path fill-rule="evenodd" clip-rule="evenodd" d="M347.519 293.472C347.774 292.314 349.403 291.688 350.554 291.941C351.716 292.197 352.451 293.343 352.196 294.501C351.941 295.659 350.631 297.129 349.469 296.873C348.318 296.62 347.264 294.631 347.519 293.472Z" fill="#1B3D79"/>
<path fill-rule="evenodd" clip-rule="evenodd" d="M337.845 291.344C338.1 290.186 339.718 289.557 340.88 289.813C342.042 290.068 342.776 291.215 342.522 292.373C342.267 293.531 340.957 295.001 339.795 294.745C338.633 294.489 337.59 292.502 337.845 291.344Z" fill="#1B3D79"/>
<path fill-rule="evenodd" clip-rule="evenodd" d="M318.486 287.086C318.741 285.928 320.37 285.301 321.521 285.555C322.683 285.81 323.418 286.956 323.163 288.115C322.908 289.273 321.598 290.742 320.436 290.487C319.285 290.233 318.231 288.244 318.486 287.086Z" fill="#1B3D79"/>
<path fill-rule="evenodd" clip-rule="evenodd" d="M308.802 284.955C309.057 283.797 310.685 283.171 311.847 283.426C313.009 283.682 313.744 284.828 313.489 285.986C313.234 287.145 311.924 288.614 310.762 288.359C309.6 288.103 308.547 286.114 308.802 284.955Z" fill="#1B3D79"/>
<path fill-rule="evenodd" clip-rule="evenodd" d="M299.128 282.827C299.382 281.669 301.011 281.043 302.173 281.298C303.324 281.552 304.059 282.698 303.804 283.856C303.55 285.015 302.239 286.484 301.088 286.23C299.926 285.975 298.873 283.986 299.128 282.827Z" fill="#1B3D79"/>
<path fill-rule="evenodd" clip-rule="evenodd" d="M289.453 280.699C289.708 279.541 291.327 278.913 292.489 279.168C293.65 279.424 294.385 280.57 294.13 281.728C293.875 282.886 292.565 284.356 291.404 284.1C290.242 283.845 289.199 281.858 289.453 280.699Z" fill="#1B3D79"/>
</g>
<defs>
<filter id="filter0_d" x="-118.076" y="286.081" width="1014.55" height="571.467" filterUnits="userSpaceOnUse" color-interpolation-filters="sRGB">
<feFlood flood-opacity="0" result="BackgroundImageFix"/>
<feColorMatrix in="SourceAlpha" type="matrix" values="0 0 0 0 0 0 0 0 0 0 0 0 0 0 0 0 0 0 127 0"/>
<feOffset dy="5"/>
<feGaussianBlur stdDeviation="2"/>
<feColorMatrix type="matrix" values="0 0 0 0 0.0745098 0 0 0 0 0.192157 0 0 0 0 0.4 0 0 0 0.15 0"/>
<feBlend mode="normal" in2="BackgroundImageFix" result="effect1_dropShadow"/>
<feBlend mode="normal" in="SourceGraphic" in2="effect1_dropShadow" result="shape"/>
</filter>
<filter id="filter1_d" x="233.403" y="245.375" width="360.785" height="261.351" filterUnits="userSpaceOnUse" color-interpolation-filters="sRGB">
<feFlood flood-opacity="0" result="BackgroundImageFix"/>
<feColorMatrix in="SourceAlpha" type="matrix" values="0 0 0 0 0 0 0 0 0 0 0 0 0 0 0 0 0 0 127 0"/>
<feOffset dy="10"/>
<feGaussianBlur stdDeviation="4.5"/>
<feColorMatrix type="matrix" values="0 0 0 0 0.0237674 0 0 0 0 0.0706098 0 0 0 0 0.154167 0 0 0 0.14 0"/>
<feBlend mode="normal" in2="BackgroundImageFix" result="effect1_dropShadow"/>
<feBlend mode="normal" in="SourceGraphic" in2="effect1_dropShadow" result="shape"/>
</filter>
<linearGradient id="paint0_linear" x1="213.393" y1="462.369" x2="455.637" y2="614.984" gradientUnits="userSpaceOnUse">
<stop stop-color="#2E5396"/>
<stop offset="1" stop-color="#224584"/>
</linearGradient>
<clipPath id="clip0">
<rect width="784" height="853" fill="white"/>
</clipPath>
</defs>
</svg>
