<svg width="828" height="1000" viewBox="0 0 828 1000" fill="none" xmlns="http://www.w3.org/2000/svg">
<g clip-path="url(#clip0)">
<rect width="828" height="1000" fill="white"/>
<rect width="828" height="1000" fill="#133166"/>
<g filter="url(#filter0_d)">
<path d="M450.133 501.743C392.187 480.55 341.967 425.307 327.287 371.94C312.843 318.72 333.839 267.538 375.963 260.931C417.986 254.485 481.274 292.921 528.604 339.631C575.834 386.503 607.342 441.796 590.142 475.797C573.179 509.946 507.843 522.789 450.133 501.743Z" fill="#133167"/>
</g>
<path fill-rule="evenodd" clip-rule="evenodd" d="M522.052 505.394C522.726 504.418 524.467 504.452 525.445 505.127C526.422 505.801 526.667 507.14 525.994 508.116C525.32 509.092 523.552 509.957 522.575 509.282C521.598 508.607 521.378 506.37 522.052 505.394Z" fill="#1B3D79"/>
<path fill-rule="evenodd" clip-rule="evenodd" d="M513.897 499.763C514.571 498.787 516.313 498.821 517.29 499.495C518.267 500.17 518.513 501.509 517.839 502.485C517.165 503.46 515.397 504.326 514.42 503.651C513.443 502.976 513.224 500.739 513.897 499.763Z" fill="#1B3D79"/>
<path fill-rule="evenodd" clip-rule="evenodd" d="M505.744 494.132C506.418 493.156 508.159 493.19 509.136 493.865C510.113 494.54 510.359 495.878 509.685 496.854C509.011 497.83 507.244 498.695 506.267 498.02C505.29 497.346 505.07 495.108 505.744 494.132Z" fill="#1B3D79"/>
<path fill-rule="evenodd" clip-rule="evenodd" d="M497.59 488.501C498.264 487.525 500.005 487.559 500.982 488.234C501.959 488.908 502.205 490.247 501.531 491.223C500.857 492.199 499.09 493.064 498.112 492.389C497.135 491.714 496.916 489.477 497.59 488.501Z" fill="#1B3D79"/>
<path fill-rule="evenodd" clip-rule="evenodd" d="M489.436 482.87C490.109 481.894 491.851 481.928 492.828 482.602C493.805 483.277 494.051 484.616 493.377 485.592C492.703 486.567 490.935 487.433 489.958 486.758C488.981 486.083 488.762 483.846 489.436 482.87Z" fill="#1B3D79"/>
<path fill-rule="evenodd" clip-rule="evenodd" d="M481.283 477.24C481.957 476.264 483.693 476.294 484.674 476.971C485.651 477.646 485.896 478.985 485.223 479.96C484.549 480.936 482.781 481.802 481.804 481.127C480.823 480.45 480.609 478.216 481.283 477.24Z" fill="#1B3D79"/>
<path fill-rule="evenodd" clip-rule="evenodd" d="M473.124 471.605C473.798 470.629 475.542 470.665 476.521 471.341C477.5 472.017 477.738 473.35 477.064 474.326C476.39 475.302 474.63 476.173 473.651 475.497C472.673 474.821 472.45 472.581 473.124 471.605Z" fill="#1B3D79"/>
<path fill-rule="evenodd" clip-rule="evenodd" d="M464.973 465.976C465.647 465 467.391 465.036 468.37 465.712C469.34 466.383 469.587 467.722 468.913 468.697C468.239 469.673 466.471 470.538 465.5 469.868C464.522 469.192 464.299 466.952 464.973 465.976Z" fill="#1B3D79"/>
<path fill-rule="evenodd" clip-rule="evenodd" d="M456.822 460.347C457.496 459.372 459.232 459.402 460.211 460.078C461.19 460.754 461.436 462.093 460.762 463.069C460.088 464.045 458.32 464.909 457.341 464.233C456.362 463.557 456.148 461.323 456.822 460.347Z" fill="#1B3D79"/>
<path fill-rule="evenodd" clip-rule="evenodd" d="M448.663 454.713C449.336 453.737 451.081 453.773 452.06 454.449C453.039 455.125 453.277 456.458 452.603 457.434C451.929 458.41 450.169 459.28 449.19 458.604C448.211 457.928 447.989 455.689 448.663 454.713Z" fill="#1B3D79"/>
<path fill-rule="evenodd" clip-rule="evenodd" d="M440.512 449.084C441.186 448.108 442.93 448.144 443.901 448.814C444.879 449.49 445.126 450.829 444.452 451.805C443.778 452.781 442.01 453.646 441.031 452.97C440.061 452.3 439.838 450.06 440.512 449.084Z" fill="#1B3D79"/>
<path fill-rule="evenodd" clip-rule="evenodd" d="M432.361 443.455C433.035 442.479 434.771 442.51 435.75 443.185C436.729 443.861 436.975 445.2 436.301 446.176C435.627 447.152 433.859 448.017 432.88 447.341C431.901 446.665 431.687 444.431 432.361 443.455Z" fill="#1B3D79"/>
<path fill-rule="evenodd" clip-rule="evenodd" d="M424.201 437.82C424.875 436.844 426.62 436.881 427.599 437.557C428.569 438.227 428.816 439.566 428.142 440.542C427.468 441.517 425.699 442.382 424.729 441.712C423.75 441.036 423.528 438.796 424.201 437.82Z" fill="#1B3D79"/>
<path fill-rule="evenodd" clip-rule="evenodd" d="M416.051 432.192C416.724 431.216 418.461 431.246 419.439 431.922C420.418 432.598 420.665 433.937 419.991 434.913C419.317 435.889 417.549 436.753 416.57 436.077C415.591 435.401 415.377 433.167 416.051 432.192Z" fill="#1B3D79"/>
<path fill-rule="evenodd" clip-rule="evenodd" d="M407.891 426.557C408.565 425.581 410.31 425.617 411.289 426.293C412.267 426.969 412.506 428.302 411.832 429.278C411.158 430.254 409.398 431.124 408.419 430.449C407.44 429.773 407.217 427.533 407.891 426.557Z" fill="#1B3D79"/>
<path fill-rule="evenodd" clip-rule="evenodd" d="M399.74 420.928C400.414 419.952 402.159 419.988 403.129 420.658C404.108 421.334 404.355 422.673 403.681 423.649C403.007 424.625 401.238 425.49 400.26 424.814C399.289 424.144 399.066 421.904 399.74 420.928Z" fill="#1B3D79"/>
<path fill-rule="evenodd" clip-rule="evenodd" d="M391.589 415.299C392.263 414.323 394 414.354 394.978 415.03C395.957 415.705 396.204 417.045 395.53 418.02C394.856 418.996 393.087 419.861 392.109 419.185C391.13 418.509 390.916 416.275 391.589 415.299Z" fill="#1B3D79"/>
<path fill-rule="evenodd" clip-rule="evenodd" d="M383.43 409.664C384.104 408.689 385.849 408.725 386.827 409.401C387.798 410.071 388.044 411.41 387.371 412.386C386.697 413.362 384.928 414.226 383.958 413.556C382.979 412.88 382.756 410.64 383.43 409.664Z" fill="#1B3D79"/>
<path fill-rule="evenodd" clip-rule="evenodd" d="M358.969 392.772C359.643 391.796 361.388 391.832 362.358 392.502C363.337 393.178 363.583 394.517 362.909 395.493C362.236 396.469 360.467 397.334 359.488 396.658C358.518 395.988 358.295 393.748 358.969 392.772Z" fill="#1B3D79"/>
<path fill-rule="evenodd" clip-rule="evenodd" d="M350.818 387.143C351.492 386.167 353.228 386.198 354.207 386.874C355.186 387.55 355.432 388.889 354.759 389.864C354.085 390.84 352.316 391.705 351.337 391.029C350.359 390.353 350.144 388.119 350.818 387.143Z" fill="#1B3D79"/>
<path fill-rule="evenodd" clip-rule="evenodd" d="M342.659 381.509C343.333 380.533 345.077 380.569 346.056 381.245C347.035 381.921 347.273 383.254 346.599 384.23C345.925 385.206 344.165 386.076 343.186 385.4C342.208 384.724 341.985 382.484 342.659 381.509Z" fill="#1B3D79"/>
<path fill-rule="evenodd" clip-rule="evenodd" d="M334.508 375.88C335.182 374.904 336.926 374.94 337.897 375.61C338.876 376.286 339.122 377.625 338.448 378.601C337.774 379.577 336.006 380.441 335.027 379.766C334.057 379.095 333.834 376.856 334.508 375.88Z" fill="#1B3D79"/>
<path fill-rule="evenodd" clip-rule="evenodd" d="M326.349 370.245C327.023 369.269 328.767 369.305 329.746 369.981C330.725 370.657 330.971 371.996 330.297 372.972C329.624 373.948 327.855 374.813 326.876 374.137C325.897 373.461 325.675 371.221 326.349 370.245Z" fill="#1B3D79"/>
<path fill-rule="evenodd" clip-rule="evenodd" d="M318.198 364.616C318.872 363.64 320.616 363.676 321.595 364.352C322.565 365.022 322.812 366.361 322.138 367.337C321.464 368.313 319.696 369.178 318.725 368.508C317.747 367.832 317.524 365.592 318.198 364.616Z" fill="#1B3D79"/>
<path fill-rule="evenodd" clip-rule="evenodd" d="M310.047 358.987C310.721 358.012 312.457 358.042 313.436 358.718C314.415 359.394 314.661 360.733 313.987 361.709C313.313 362.685 311.545 363.549 310.566 362.873C309.587 362.197 309.373 359.963 310.047 358.987Z" fill="#1B3D79"/>
<path fill-rule="evenodd" clip-rule="evenodd" d="M527.218 497.915C527.892 496.939 529.633 496.972 530.61 497.647C531.588 498.322 531.833 499.66 531.159 500.636C530.486 501.612 528.718 502.477 527.741 501.803C526.764 501.128 526.544 498.89 527.218 497.915Z" fill="#1B3D79"/>
<path fill-rule="evenodd" clip-rule="evenodd" d="M519.063 492.283C519.737 491.307 521.478 491.341 522.455 492.015C523.432 492.69 523.678 494.029 523.004 495.005C522.33 495.98 520.563 496.846 519.586 496.171C518.609 495.496 518.389 493.259 519.063 492.283Z" fill="#1B3D79"/>
<path fill-rule="evenodd" clip-rule="evenodd" d="M510.91 486.652C511.584 485.676 513.325 485.71 514.302 486.385C515.279 487.06 515.525 488.398 514.851 489.374C514.177 490.35 512.409 491.215 511.432 490.54C510.455 489.866 510.236 487.628 510.91 486.652Z" fill="#1B3D79"/>
<path fill-rule="evenodd" clip-rule="evenodd" d="M502.755 481.021C503.429 480.045 505.171 480.079 506.148 480.754C507.125 481.428 507.371 482.767 506.697 483.743C506.023 484.719 504.255 485.584 503.278 484.909C502.301 484.234 502.081 481.997 502.755 481.021Z" fill="#1B3D79"/>
<path fill-rule="evenodd" clip-rule="evenodd" d="M494.601 475.39C495.275 474.414 497.016 474.448 497.993 475.122C498.97 475.797 499.216 477.136 498.542 478.112C497.868 479.087 496.101 479.953 495.124 479.278C494.147 478.603 493.927 476.366 494.601 475.39Z" fill="#1B3D79"/>
<path fill-rule="evenodd" clip-rule="evenodd" d="M486.449 469.76C487.122 468.784 488.859 468.814 489.839 469.491C490.816 470.166 491.062 471.505 490.388 472.48C489.714 473.456 487.947 474.322 486.969 473.647C485.989 472.97 485.775 470.736 486.449 469.76Z" fill="#1B3D79"/>
<path fill-rule="evenodd" clip-rule="evenodd" d="M478.289 464.125C478.963 463.149 480.708 463.185 481.687 463.861C482.665 464.537 482.904 465.87 482.23 466.846C481.556 467.822 479.796 468.693 478.817 468.017C477.838 467.341 477.615 465.101 478.289 464.125Z" fill="#1B3D79"/>
<path fill-rule="evenodd" clip-rule="evenodd" d="M470.138 458.496C470.812 457.52 472.557 457.557 473.536 458.232C474.506 458.903 474.753 460.242 474.079 461.217C473.405 462.193 471.636 463.058 470.666 462.388C469.687 461.712 469.464 459.472 470.138 458.496Z" fill="#1B3D79"/>
<path fill-rule="evenodd" clip-rule="evenodd" d="M461.987 452.867C462.661 451.892 464.398 451.922 465.376 452.598C466.355 453.274 466.602 454.613 465.928 455.589C465.254 456.564 463.485 457.429 462.507 456.753C461.528 456.077 461.314 453.843 461.987 452.867Z" fill="#1B3D79"/>
<path fill-rule="evenodd" clip-rule="evenodd" d="M453.828 447.233C454.502 446.257 456.247 446.293 457.225 446.969C458.204 447.645 458.442 448.978 457.769 449.954C457.095 450.93 455.335 451.8 454.356 451.124C453.377 450.448 453.154 448.209 453.828 447.233Z" fill="#1B3D79"/>
<path fill-rule="evenodd" clip-rule="evenodd" d="M445.677 441.604C446.351 440.628 448.096 440.664 449.066 441.334C450.045 442.01 450.292 443.349 449.618 444.325C448.944 445.301 447.175 446.166 446.196 445.49C445.226 444.82 445.003 442.58 445.677 441.604Z" fill="#1B3D79"/>
<path fill-rule="evenodd" clip-rule="evenodd" d="M437.526 435.975C438.2 434.999 439.936 435.029 440.915 435.705C441.894 436.381 442.141 437.72 441.467 438.696C440.793 439.672 439.024 440.537 438.046 439.861C437.067 439.185 436.852 436.951 437.526 435.975Z" fill="#1B3D79"/>
<path fill-rule="evenodd" clip-rule="evenodd" d="M429.367 430.34C430.041 429.364 431.786 429.401 432.764 430.077C433.735 430.747 433.981 432.086 433.307 433.062C432.634 434.037 430.865 434.902 429.895 434.232C428.916 433.556 428.693 431.316 429.367 430.34Z" fill="#1B3D79"/>
<path fill-rule="evenodd" clip-rule="evenodd" d="M421.216 424.711C421.89 423.736 423.626 423.766 424.605 424.442C425.584 425.118 425.83 426.457 425.157 427.433C424.483 428.409 422.714 429.273 421.735 428.597C420.757 427.921 420.542 425.687 421.216 424.711Z" fill="#1B3D79"/>
<path fill-rule="evenodd" clip-rule="evenodd" d="M413.057 419.077C413.731 418.101 415.475 418.137 416.454 418.813C417.433 419.489 417.671 420.822 416.997 421.798C416.323 422.774 414.563 423.644 413.584 422.968C412.606 422.293 412.383 420.053 413.057 419.077Z" fill="#1B3D79"/>
<path fill-rule="evenodd" clip-rule="evenodd" d="M404.906 413.448C405.58 412.472 407.324 412.508 408.295 413.178C409.274 413.854 409.52 415.193 408.846 416.169C408.172 417.145 406.404 418.01 405.425 417.334C404.455 416.664 404.232 414.424 404.906 413.448Z" fill="#1B3D79"/>
<path fill-rule="evenodd" clip-rule="evenodd" d="M388.596 402.184C389.27 401.209 391.014 401.245 391.993 401.921C392.963 402.591 393.21 403.93 392.536 404.906C391.862 405.882 390.094 406.746 389.123 406.076C388.145 405.4 387.922 403.16 388.596 402.184Z" fill="#1B3D79"/>
<path fill-rule="evenodd" clip-rule="evenodd" d="M380.445 396.556C381.119 395.58 382.855 395.61 383.834 396.286C384.812 396.962 385.059 398.301 384.385 399.277C383.711 400.253 381.943 401.117 380.964 400.441C379.985 399.766 379.771 397.531 380.445 396.556Z" fill="#1B3D79"/>
<path fill-rule="evenodd" clip-rule="evenodd" d="M372.286 390.921C372.959 389.945 374.704 389.981 375.683 390.657C376.662 391.333 376.908 392.672 376.234 393.648C375.56 394.624 373.792 395.489 372.813 394.813C371.834 394.137 371.612 391.897 372.286 390.921Z" fill="#1B3D79"/>
<path fill-rule="evenodd" clip-rule="evenodd" d="M364.135 385.292C364.809 384.316 366.553 384.352 367.524 385.022C368.502 385.698 368.749 387.037 368.075 388.013C367.401 388.989 365.633 389.854 364.654 389.178C363.684 388.508 363.461 386.268 364.135 385.292Z" fill="#1B3D79"/>
<path fill-rule="evenodd" clip-rule="evenodd" d="M355.984 379.663C356.658 378.687 358.394 378.718 359.373 379.394C360.351 380.07 360.598 381.409 359.924 382.384C359.25 383.36 357.482 384.225 356.503 383.549C355.524 382.873 355.31 380.639 355.984 379.663Z" fill="#1B3D79"/>
<path fill-rule="evenodd" clip-rule="evenodd" d="M347.824 374.029C348.498 373.053 350.243 373.089 351.222 373.765C352.2 374.441 352.439 375.774 351.765 376.75C351.091 377.726 349.331 378.596 348.352 377.92C347.373 377.244 347.15 375.004 347.824 374.029Z" fill="#1B3D79"/>
<path fill-rule="evenodd" clip-rule="evenodd" d="M339.674 368.4C340.347 367.424 342.092 367.46 343.062 368.13C344.041 368.806 344.288 370.145 343.614 371.121C342.94 372.097 341.172 372.961 340.193 372.286C339.222 371.615 339 369.376 339.674 368.4Z" fill="#1B3D79"/>
<path fill-rule="evenodd" clip-rule="evenodd" d="M331.514 362.765C332.188 361.789 333.933 361.825 334.912 362.501C335.89 363.177 336.137 364.516 335.463 365.492C334.789 366.468 333.021 367.333 332.042 366.657C331.063 365.981 330.84 363.741 331.514 362.765Z" fill="#1B3D79"/>
<path fill-rule="evenodd" clip-rule="evenodd" d="M323.363 357.136C324.037 356.16 325.782 356.196 326.761 356.872C327.731 357.542 327.978 358.882 327.304 359.857C326.63 360.833 324.861 361.698 323.891 361.028C322.912 360.352 322.689 358.112 323.363 357.136Z" fill="#1B3D79"/>
<path fill-rule="evenodd" clip-rule="evenodd" d="M315.212 351.507C315.886 350.532 317.623 350.562 318.601 351.238C319.58 351.914 319.827 353.253 319.153 354.229C318.479 355.205 316.71 356.069 315.732 355.393C314.753 354.717 314.539 352.483 315.212 351.507Z" fill="#1B3D79"/>
<path fill-rule="evenodd" clip-rule="evenodd" d="M532.384 490.434C533.058 489.459 534.799 489.492 535.776 490.167C536.753 490.842 536.999 492.18 536.325 493.156C535.651 494.132 533.883 494.997 532.906 494.323C531.929 493.648 531.71 491.41 532.384 490.434Z" fill="#1B3D79"/>
<path fill-rule="evenodd" clip-rule="evenodd" d="M524.229 484.803C524.903 483.827 526.644 483.861 527.621 484.535C528.598 485.21 528.844 486.549 528.17 487.525C527.496 488.5 525.728 489.366 524.751 488.691C523.774 488.016 523.555 485.779 524.229 484.803Z" fill="#1B3D79"/>
<path fill-rule="evenodd" clip-rule="evenodd" d="M516.075 479.172C516.749 478.196 518.49 478.23 519.467 478.905C520.445 479.58 520.69 480.918 520.016 481.894C519.343 482.87 517.575 483.735 516.598 483.06C515.621 482.386 515.401 480.148 516.075 479.172Z" fill="#1B3D79"/>
<path fill-rule="evenodd" clip-rule="evenodd" d="M507.921 473.541C508.595 472.565 510.336 472.599 511.313 473.274C512.29 473.948 512.536 475.287 511.862 476.263C511.188 477.239 509.421 478.104 508.444 477.429C507.466 476.754 507.247 474.517 507.921 473.541Z" fill="#1B3D79"/>
<path fill-rule="evenodd" clip-rule="evenodd" d="M499.767 467.91C500.441 466.934 502.182 466.968 503.159 467.642C504.136 468.317 504.382 469.656 503.708 470.632C503.034 471.607 501.266 472.473 500.289 471.798C499.312 471.123 499.093 468.886 499.767 467.91Z" fill="#1B3D79"/>
<path fill-rule="evenodd" clip-rule="evenodd" d="M491.614 462.28C492.288 461.304 494.024 461.334 495.005 462.011C495.982 462.686 496.228 464.024 495.554 465C494.88 465.976 493.112 466.841 492.135 466.167C491.155 465.49 490.94 463.256 491.614 462.28Z" fill="#1B3D79"/>
<path fill-rule="evenodd" clip-rule="evenodd" d="M483.455 456.645C484.129 455.669 485.873 455.705 486.852 456.381C487.831 457.057 488.069 458.39 487.395 459.366C486.721 460.342 484.961 461.213 483.982 460.537C483.004 459.861 482.781 457.621 483.455 456.645Z" fill="#1B3D79"/>
<path fill-rule="evenodd" clip-rule="evenodd" d="M475.304 451.016C475.978 450.04 477.722 450.077 478.701 450.752C479.672 451.423 479.918 452.762 479.244 453.737C478.57 454.713 476.802 455.578 475.832 454.908C474.853 454.232 474.63 451.992 475.304 451.016Z" fill="#1B3D79"/>
<path fill-rule="evenodd" clip-rule="evenodd" d="M467.153 445.387C467.827 444.412 469.563 444.442 470.542 445.118C471.521 445.794 471.767 447.133 471.093 448.109C470.42 449.084 468.651 449.949 467.672 449.273C466.693 448.597 466.479 446.363 467.153 445.387Z" fill="#1B3D79"/>
<path fill-rule="evenodd" clip-rule="evenodd" d="M458.994 439.753C459.668 438.777 461.412 438.813 462.391 439.489C463.37 440.165 463.608 441.498 462.934 442.474C462.26 443.45 460.5 444.32 459.521 443.644C458.543 442.968 458.32 440.729 458.994 439.753Z" fill="#1B3D79"/>
<path fill-rule="evenodd" clip-rule="evenodd" d="M450.843 434.124C451.517 433.148 453.261 433.184 454.232 433.854C455.21 434.53 455.457 435.869 454.783 436.845C454.109 437.821 452.341 438.686 451.362 438.01C450.392 437.34 450.169 435.1 450.843 434.124Z" fill="#1B3D79"/>
<path fill-rule="evenodd" clip-rule="evenodd" d="M442.692 428.495C443.366 427.519 445.102 427.549 446.081 428.225C447.06 428.901 447.306 430.24 446.632 431.216C445.958 432.192 444.19 433.057 443.211 432.381C442.232 431.705 442.018 429.471 442.692 428.495Z" fill="#1B3D79"/>
<path fill-rule="evenodd" clip-rule="evenodd" d="M434.533 422.86C435.207 421.884 436.951 421.921 437.93 422.597C438.9 423.267 439.147 424.606 438.473 425.582C437.799 426.557 436.031 427.422 435.06 426.752C434.081 426.076 433.859 423.836 434.533 422.86Z" fill="#1B3D79"/>
<path fill-rule="evenodd" clip-rule="evenodd" d="M426.382 417.231C427.056 416.256 428.792 416.286 429.771 416.962C430.749 417.638 430.996 418.977 430.322 419.953C429.648 420.929 427.88 421.793 426.901 421.117C425.922 420.441 425.708 418.207 426.382 417.231Z" fill="#1B3D79"/>
<path fill-rule="evenodd" clip-rule="evenodd" d="M418.222 411.597C418.896 410.621 420.641 410.657 421.62 411.333C422.598 412.009 422.837 413.342 422.163 414.318C421.489 415.294 419.729 416.164 418.75 415.488C417.771 414.812 417.548 412.573 418.222 411.597Z" fill="#1B3D79"/>
<path fill-rule="evenodd" clip-rule="evenodd" d="M401.921 400.339C402.594 399.363 404.331 399.394 405.309 400.069C406.288 400.745 406.535 402.084 405.861 403.06C405.187 404.036 403.419 404.901 402.44 404.225C401.461 403.549 401.247 401.315 401.921 400.339Z" fill="#1B3D79"/>
<path fill-rule="evenodd" clip-rule="evenodd" d="M393.761 394.704C394.435 393.729 396.18 393.765 397.159 394.441C398.129 395.111 398.376 396.45 397.702 397.426C397.028 398.402 395.259 399.266 394.289 398.596C393.31 397.92 393.087 395.68 393.761 394.704Z" fill="#1B3D79"/>
<path fill-rule="evenodd" clip-rule="evenodd" d="M385.61 389.076C386.284 388.1 388.02 388.13 388.999 388.806C389.978 389.482 390.225 390.821 389.551 391.797C388.877 392.773 387.108 393.637 386.13 392.961C385.151 392.285 384.936 390.051 385.61 389.076Z" fill="#1B3D79"/>
<path fill-rule="evenodd" clip-rule="evenodd" d="M377.451 383.441C378.125 382.465 379.87 382.501 380.848 383.177C381.827 383.853 382.074 385.192 381.4 386.168C380.726 387.144 378.957 388.008 377.979 387.333C377 386.657 376.777 384.417 377.451 383.441Z" fill="#1B3D79"/>
<path fill-rule="evenodd" clip-rule="evenodd" d="M369.3 377.812C369.974 376.836 371.719 376.872 372.689 377.542C373.668 378.218 373.915 379.557 373.241 380.533C372.567 381.509 370.798 382.374 369.819 381.698C368.849 381.028 368.626 378.788 369.3 377.812Z" fill="#1B3D79"/>
<path fill-rule="evenodd" clip-rule="evenodd" d="M352.99 366.549C353.664 365.573 355.408 365.609 356.387 366.285C357.366 366.961 357.604 368.294 356.93 369.27C356.256 370.246 354.496 371.116 353.518 370.44C352.539 369.764 352.316 367.524 352.99 366.549Z" fill="#1B3D79"/>
<path fill-rule="evenodd" clip-rule="evenodd" d="M344.839 360.92C345.513 359.944 347.258 359.98 348.228 360.65C349.207 361.326 349.453 362.665 348.779 363.641C348.106 364.617 346.337 365.481 345.358 364.805C344.388 364.135 344.165 361.896 344.839 360.92Z" fill="#1B3D79"/>
<path fill-rule="evenodd" clip-rule="evenodd" d="M336.68 355.285C337.354 354.309 339.098 354.345 340.077 355.021C341.056 355.697 341.302 357.036 340.629 358.012C339.955 358.988 338.186 359.853 337.207 359.177C336.229 358.501 336.006 356.261 336.68 355.285Z" fill="#1B3D79"/>
<path fill-rule="evenodd" clip-rule="evenodd" d="M328.529 349.656C329.203 348.68 330.947 348.716 331.926 349.392C332.896 350.062 333.143 351.401 332.469 352.377C331.795 353.353 330.027 354.218 329.056 353.548C328.078 352.872 327.855 350.632 328.529 349.656Z" fill="#1B3D79"/>
<path fill-rule="evenodd" clip-rule="evenodd" d="M320.378 344.027C321.052 343.052 322.788 343.082 323.767 343.758C324.746 344.434 324.992 345.773 324.318 346.749C323.645 347.724 321.876 348.589 320.897 347.913C319.918 347.237 319.704 345.003 320.378 344.027Z" fill="#1B3D79"/>
<path fill-rule="evenodd" clip-rule="evenodd" d="M537.549 482.954C538.223 481.979 539.964 482.012 540.942 482.687C541.919 483.362 542.164 484.7 541.491 485.676C540.817 486.652 539.049 487.517 538.072 486.843C537.095 486.168 536.875 483.93 537.549 482.954Z" fill="#1B3D79"/>
<path fill-rule="evenodd" clip-rule="evenodd" d="M529.394 477.323C530.068 476.347 531.809 476.381 532.786 477.055C533.763 477.73 534.009 479.069 533.335 480.044C532.661 481.02 530.894 481.886 529.917 481.211C528.94 480.536 528.72 478.299 529.394 477.323Z" fill="#1B3D79"/>
<path fill-rule="evenodd" clip-rule="evenodd" d="M521.241 471.692C521.915 470.716 523.656 470.75 524.633 471.425C525.61 472.1 525.856 473.438 525.182 474.414C524.508 475.39 522.74 476.255 521.763 475.58C520.786 474.906 520.567 472.668 521.241 471.692Z" fill="#1B3D79"/>
<path fill-rule="evenodd" clip-rule="evenodd" d="M513.087 466.061C513.76 465.085 515.502 465.119 516.479 465.794C517.456 466.468 517.702 467.807 517.028 468.783C516.354 469.759 514.586 470.624 513.609 469.949C512.632 469.274 512.413 467.037 513.087 466.061Z" fill="#1B3D79"/>
<path fill-rule="evenodd" clip-rule="evenodd" d="M504.932 460.43C505.606 459.454 507.347 459.488 508.324 460.162C509.302 460.837 509.547 462.176 508.873 463.152C508.2 464.127 506.432 464.993 505.455 464.318C504.478 463.643 504.258 461.406 504.932 460.43Z" fill="#1B3D79"/>
<path fill-rule="evenodd" clip-rule="evenodd" d="M496.78 454.8C497.454 453.824 499.19 453.854 500.17 454.531C501.147 455.206 501.393 456.544 500.719 457.52C500.045 458.496 498.278 459.361 497.301 458.687C496.32 458.01 496.106 455.776 496.78 454.8Z" fill="#1B3D79"/>
<path fill-rule="evenodd" clip-rule="evenodd" d="M488.62 449.165C489.294 448.189 491.039 448.225 492.018 448.901C492.996 449.577 493.235 450.91 492.561 451.886C491.887 452.862 490.127 453.733 489.148 453.057C488.169 452.381 487.946 450.141 488.62 449.165Z" fill="#1B3D79"/>
<path fill-rule="evenodd" clip-rule="evenodd" d="M480.469 443.536C481.143 442.56 482.888 442.597 483.867 443.272C484.837 443.943 485.084 445.282 484.41 446.257C483.736 447.233 481.967 448.098 480.997 447.428C480.018 446.752 479.796 444.512 480.469 443.536Z" fill="#1B3D79"/>
<path fill-rule="evenodd" clip-rule="evenodd" d="M472.319 437.907C472.992 436.931 474.729 436.962 475.707 437.638C476.686 438.314 476.933 439.653 476.259 440.629C475.585 441.604 473.817 442.469 472.838 441.793C471.859 441.117 471.645 438.883 472.319 437.907Z" fill="#1B3D79"/>
<path fill-rule="evenodd" clip-rule="evenodd" d="M464.159 432.273C464.833 431.297 466.578 431.333 467.557 432.009C468.535 432.685 468.774 434.018 468.1 434.994C467.426 435.97 465.666 436.84 464.687 436.164C463.708 435.488 463.485 433.249 464.159 432.273Z" fill="#1B3D79"/>
<path fill-rule="evenodd" clip-rule="evenodd" d="M456.008 426.644C456.682 425.668 458.427 425.704 459.397 426.374C460.376 427.05 460.623 428.389 459.949 429.365C459.275 430.341 457.506 431.206 456.528 430.53C455.557 429.86 455.334 427.62 456.008 426.644Z" fill="#1B3D79"/>
<path fill-rule="evenodd" clip-rule="evenodd" d="M447.857 421.015C448.531 420.039 450.268 420.069 451.246 420.745C452.225 421.421 452.472 422.76 451.798 423.736C451.124 424.712 449.355 425.577 448.377 424.901C447.398 424.225 447.183 421.991 447.857 421.015Z" fill="#1B3D79"/>
<path fill-rule="evenodd" clip-rule="evenodd" d="M439.698 415.38C440.372 414.404 442.117 414.441 443.095 415.117C444.066 415.787 444.312 417.126 443.639 418.102C442.965 419.077 441.196 419.942 440.226 419.272C439.247 418.596 439.024 416.356 439.698 415.38Z" fill="#1B3D79"/>
<path fill-rule="evenodd" clip-rule="evenodd" d="M431.547 409.751C432.221 408.776 433.957 408.806 434.936 409.482C435.915 410.158 436.162 411.497 435.488 412.473C434.814 413.449 433.045 414.313 432.066 413.637C431.088 412.961 430.873 410.727 431.547 409.751Z" fill="#1B3D79"/>
<path fill-rule="evenodd" clip-rule="evenodd" d="M423.388 404.117C424.062 403.141 425.806 403.177 426.785 403.853C427.764 404.529 428.002 405.862 427.328 406.838C426.654 407.814 424.894 408.684 423.916 408.008C422.937 407.332 422.714 405.093 423.388 404.117Z" fill="#1B3D79"/>
<path fill-rule="evenodd" clip-rule="evenodd" d="M415.237 398.488C415.911 397.512 417.656 397.548 418.626 398.218C419.605 398.894 419.851 400.233 419.177 401.209C418.504 402.185 416.735 403.05 415.756 402.374C414.786 401.704 414.563 399.464 415.237 398.488Z" fill="#1B3D79"/>
<path fill-rule="evenodd" clip-rule="evenodd" d="M407.086 392.859C407.76 391.883 409.496 391.914 410.475 392.589C411.454 393.265 411.7 394.604 411.027 395.58C410.353 396.556 408.584 397.421 407.605 396.745C406.627 396.069 406.412 393.835 407.086 392.859Z" fill="#1B3D79"/>
<path fill-rule="evenodd" clip-rule="evenodd" d="M398.927 387.224C399.601 386.249 401.345 386.285 402.324 386.961C403.294 387.631 403.541 388.97 402.867 389.946C402.193 390.921 400.425 391.786 399.454 391.116C398.476 390.44 398.253 388.2 398.927 387.224Z" fill="#1B3D79"/>
<path fill-rule="evenodd" clip-rule="evenodd" d="M390.776 381.596C391.45 380.62 393.186 380.65 394.165 381.326C395.144 382.002 395.39 383.341 394.716 384.317C394.042 385.293 392.274 386.157 391.295 385.481C390.316 384.805 390.102 382.571 390.776 381.596Z" fill="#1B3D79"/>
<path fill-rule="evenodd" clip-rule="evenodd" d="M382.617 375.961C383.29 374.985 385.035 375.021 386.014 375.697C386.993 376.373 387.239 377.712 386.565 378.688C385.892 379.664 384.123 380.528 383.144 379.853C382.165 379.177 381.943 376.937 382.617 375.961Z" fill="#1B3D79"/>
<path fill-rule="evenodd" clip-rule="evenodd" d="M374.466 370.332C375.14 369.356 376.884 369.392 377.855 370.062C378.833 370.738 379.08 372.077 378.406 373.053C377.732 374.029 375.964 374.894 374.985 374.218C374.015 373.548 373.792 371.308 374.466 370.332Z" fill="#1B3D79"/>
<path fill-rule="evenodd" clip-rule="evenodd" d="M366.315 364.703C366.989 363.727 368.725 363.758 369.704 364.434C370.682 365.109 370.929 366.449 370.255 367.424C369.581 368.4 367.813 369.265 366.834 368.589C365.855 367.913 365.641 365.679 366.315 364.703Z" fill="#1B3D79"/>
<path fill-rule="evenodd" clip-rule="evenodd" d="M358.155 359.069C358.829 358.093 360.574 358.129 361.553 358.805C362.532 359.481 362.77 360.814 362.096 361.79C361.422 362.766 359.662 363.636 358.683 362.96C357.704 362.284 357.482 360.044 358.155 359.069Z" fill="#1B3D79"/>
<path fill-rule="evenodd" clip-rule="evenodd" d="M350.005 353.44C350.678 352.464 352.423 352.5 353.393 353.17C354.372 353.846 354.619 355.185 353.945 356.161C353.271 357.137 351.503 358.001 350.524 357.325C349.553 356.655 349.331 354.416 350.005 353.44Z" fill="#1B3D79"/>
<path fill-rule="evenodd" clip-rule="evenodd" d="M341.845 347.805C342.519 346.829 344.264 346.865 345.243 347.541C346.221 348.217 346.468 349.556 345.794 350.532C345.12 351.508 343.352 352.373 342.373 351.697C341.394 351.021 341.171 348.781 341.845 347.805Z" fill="#1B3D79"/>
<path fill-rule="evenodd" clip-rule="evenodd" d="M333.694 342.176C334.368 341.2 336.113 341.236 337.092 341.912C338.062 342.582 338.309 343.922 337.635 344.897C336.961 345.873 335.192 346.738 334.222 346.068C333.243 345.392 333.02 343.152 333.694 342.176Z" fill="#1B3D79"/>
<path fill-rule="evenodd" clip-rule="evenodd" d="M325.544 336.547C326.217 335.572 327.954 335.602 328.932 336.278C329.911 336.954 330.158 338.293 329.484 339.269C328.81 340.244 327.042 341.109 326.063 340.433C325.084 339.757 324.87 337.523 325.544 336.547Z" fill="#1B3D79"/>
<path fill-rule="evenodd" clip-rule="evenodd" d="M542.715 475.474C543.389 474.499 545.13 474.532 546.107 475.207C547.084 475.882 547.33 477.22 546.656 478.196C545.982 479.172 544.215 480.037 543.237 479.363C542.26 478.688 542.041 476.45 542.715 475.474Z" fill="#1B3D79"/>
<path fill-rule="evenodd" clip-rule="evenodd" d="M534.56 469.843C535.234 468.867 536.975 468.901 537.952 469.575C538.929 470.25 539.175 471.589 538.501 472.564C537.827 473.54 536.059 474.406 535.082 473.731C534.105 473.056 533.886 470.819 534.56 469.843Z" fill="#1B3D79"/>
<path fill-rule="evenodd" clip-rule="evenodd" d="M526.406 464.212C527.08 463.236 528.821 463.27 529.799 463.945C530.776 464.62 531.021 465.958 530.348 466.934C529.674 467.91 527.906 468.775 526.929 468.1C525.952 467.425 525.732 465.188 526.406 464.212Z" fill="#1B3D79"/>
<path fill-rule="evenodd" clip-rule="evenodd" d="M518.252 458.581C518.926 457.605 520.667 457.639 521.644 458.314C522.621 458.988 522.867 460.327 522.193 461.303C521.519 462.279 519.752 463.144 518.775 462.469C517.798 461.794 517.578 459.557 518.252 458.581Z" fill="#1B3D79"/>
<path fill-rule="evenodd" clip-rule="evenodd" d="M510.098 452.95C510.772 451.974 512.513 452.008 513.49 452.682C514.467 453.357 514.713 454.696 514.039 455.672C513.365 456.647 511.597 457.513 510.62 456.838C509.643 456.163 509.424 453.926 510.098 452.95Z" fill="#1B3D79"/>
<path fill-rule="evenodd" clip-rule="evenodd" d="M501.945 447.32C502.619 446.344 504.355 446.374 505.336 447.051C506.313 447.726 506.559 449.064 505.885 450.04C505.211 451.016 503.443 451.881 502.466 451.207C501.486 450.53 501.271 448.296 501.945 447.32Z" fill="#1B3D79"/>
<path fill-rule="evenodd" clip-rule="evenodd" d="M493.786 441.685C494.46 440.709 496.204 440.745 497.183 441.421C498.162 442.097 498.4 443.43 497.726 444.406C497.052 445.382 495.292 446.253 494.314 445.577C493.335 444.901 493.112 442.661 493.786 441.685Z" fill="#1B3D79"/>
<path fill-rule="evenodd" clip-rule="evenodd" d="M485.635 436.056C486.309 435.08 488.054 435.116 489.032 435.792C490.003 436.462 490.249 437.802 489.575 438.777C488.902 439.753 487.133 440.618 486.163 439.948C485.184 439.272 484.961 437.032 485.635 436.056Z" fill="#1B3D79"/>
<path fill-rule="evenodd" clip-rule="evenodd" d="M477.484 430.427C478.158 429.451 479.894 429.482 480.873 430.158C481.852 430.834 482.098 432.173 481.425 433.149C480.751 434.124 478.982 434.989 478.003 434.313C477.025 433.637 476.81 431.403 477.484 430.427Z" fill="#1B3D79"/>
<path fill-rule="evenodd" clip-rule="evenodd" d="M469.325 424.793C469.999 423.817 471.743 423.853 472.722 424.529C473.701 425.205 473.939 426.538 473.265 427.514C472.591 428.49 470.831 429.36 469.852 428.684C468.874 428.008 468.651 425.769 469.325 424.793Z" fill="#1B3D79"/>
<path fill-rule="evenodd" clip-rule="evenodd" d="M461.174 419.164C461.848 418.188 463.592 418.224 464.563 418.894C465.542 419.57 465.788 420.909 465.114 421.885C464.44 422.861 462.672 423.726 461.693 423.05C460.723 422.38 460.5 420.14 461.174 419.164Z" fill="#1B3D79"/>
<path fill-rule="evenodd" clip-rule="evenodd" d="M453.023 413.535C453.697 412.559 455.433 412.589 456.412 413.265C457.391 413.941 457.637 415.28 456.963 416.256C456.29 417.232 454.521 418.097 453.542 417.421C452.563 416.745 452.349 414.511 453.023 413.535Z" fill="#1B3D79"/>
<path fill-rule="evenodd" clip-rule="evenodd" d="M444.864 407.9C445.538 406.924 447.282 406.961 448.261 407.636C449.231 408.307 449.478 409.646 448.804 410.621C448.13 411.597 446.362 412.462 445.391 411.792C444.413 411.116 444.19 408.876 444.864 407.9Z" fill="#1B3D79"/>
<path fill-rule="evenodd" clip-rule="evenodd" d="M436.713 402.271C437.387 401.296 439.123 401.326 440.102 402.002C441.08 402.678 441.327 404.017 440.653 404.993C439.979 405.969 438.211 406.833 437.232 406.157C436.253 405.481 436.039 403.247 436.713 402.271Z" fill="#1B3D79"/>
<path fill-rule="evenodd" clip-rule="evenodd" d="M428.553 396.637C429.227 395.661 430.972 395.697 431.951 396.373C432.93 397.049 433.168 398.382 432.494 399.358C431.82 400.334 430.06 401.204 429.081 400.528C428.102 399.852 427.88 397.613 428.553 396.637Z" fill="#1B3D79"/>
<path fill-rule="evenodd" clip-rule="evenodd" d="M420.403 391.008C421.076 390.032 422.821 390.068 423.791 390.738C424.77 391.414 425.017 392.753 424.343 393.729C423.669 394.705 421.901 395.57 420.922 394.894C419.951 394.224 419.729 391.984 420.403 391.008Z" fill="#1B3D79"/>
<path fill-rule="evenodd" clip-rule="evenodd" d="M412.252 385.379C412.926 384.403 414.662 384.433 415.641 385.109C416.619 385.785 416.866 387.124 416.192 388.1C415.518 389.076 413.75 389.941 412.771 389.265C411.792 388.589 411.578 386.355 412.252 385.379Z" fill="#1B3D79"/>
<path fill-rule="evenodd" clip-rule="evenodd" d="M404.092 379.744C404.766 378.769 406.511 378.805 407.49 379.481C408.46 380.151 408.707 381.49 408.033 382.466C407.359 383.441 405.59 384.306 404.62 383.636C403.641 382.96 403.418 380.72 404.092 379.744Z" fill="#1B3D79"/>
<path fill-rule="evenodd" clip-rule="evenodd" d="M395.941 374.116C396.615 373.14 398.352 373.17 399.33 373.846C400.309 374.522 400.556 375.861 399.882 376.837C399.208 377.813 397.439 378.677 396.461 378.001C395.482 377.325 395.268 375.091 395.941 374.116Z" fill="#1B3D79"/>
<path fill-rule="evenodd" clip-rule="evenodd" d="M387.782 368.481C388.456 367.505 390.201 367.541 391.179 368.217C392.158 368.893 392.405 370.232 391.731 371.208C391.057 372.184 389.289 373.048 388.31 372.372C387.331 371.697 387.108 369.457 387.782 368.481Z" fill="#1B3D79"/>
<path fill-rule="evenodd" clip-rule="evenodd" d="M379.631 362.852C380.305 361.876 382.05 361.912 383.02 362.582C383.999 363.258 384.246 364.597 383.572 365.573C382.898 366.549 381.129 367.414 380.15 366.738C379.18 366.068 378.957 363.828 379.631 362.852Z" fill="#1B3D79"/>
<path fill-rule="evenodd" clip-rule="evenodd" d="M371.48 357.223C372.154 356.247 373.89 356.278 374.869 356.954C375.848 357.629 376.095 358.969 375.421 359.944C374.747 360.92 372.978 361.785 372 361.109C371.021 360.433 370.806 358.199 371.48 357.223Z" fill="#1B3D79"/>
<path fill-rule="evenodd" clip-rule="evenodd" d="M355.17 345.96C355.844 344.984 357.589 345.02 358.559 345.69C359.538 346.366 359.785 347.705 359.111 348.681C358.437 349.657 356.668 350.521 355.689 349.846C354.719 349.175 354.496 346.936 355.17 345.96Z" fill="#1B3D79"/>
<path fill-rule="evenodd" clip-rule="evenodd" d="M347.011 340.325C347.685 339.349 349.429 339.385 350.408 340.061C351.387 340.737 351.634 342.076 350.96 343.052C350.286 344.028 348.517 344.893 347.538 344.217C346.56 343.541 346.337 341.301 347.011 340.325Z" fill="#1B3D79"/>
<path fill-rule="evenodd" clip-rule="evenodd" d="M338.86 334.696C339.534 333.72 341.278 333.756 342.257 334.432C343.228 335.102 343.474 336.441 342.8 337.417C342.126 338.393 340.358 339.258 339.388 338.588C338.409 337.912 338.186 335.672 338.86 334.696Z" fill="#1B3D79"/>
<path fill-rule="evenodd" clip-rule="evenodd" d="M330.709 329.067C331.383 328.091 333.119 328.122 334.098 328.798C335.077 329.474 335.323 330.813 334.65 331.789C333.976 332.764 332.207 333.629 331.228 332.953C330.25 332.277 330.035 330.043 330.709 329.067Z" fill="#1B3D79"/>
<path fill-rule="evenodd" clip-rule="evenodd" d="M547.88 467.994C548.554 467.019 550.296 467.052 551.273 467.727C552.25 468.402 552.496 469.74 551.822 470.716C551.148 471.692 549.38 472.557 548.403 471.883C547.426 471.208 547.206 468.97 547.88 467.994Z" fill="#1B3D79"/>
<path fill-rule="evenodd" clip-rule="evenodd" d="M539.725 462.363C540.399 461.387 542.14 461.421 543.118 462.095C544.095 462.77 544.34 464.109 543.667 465.084C542.993 466.06 541.225 466.926 540.248 466.251C539.271 465.576 539.051 463.339 539.725 462.363Z" fill="#1B3D79"/>
<path fill-rule="evenodd" clip-rule="evenodd" d="M531.572 456.732C532.246 455.756 533.987 455.79 534.964 456.465C535.941 457.14 536.187 458.478 535.513 459.454C534.839 460.43 533.072 461.295 532.094 460.62C531.117 459.946 530.898 457.708 531.572 456.732Z" fill="#1B3D79"/>
<path fill-rule="evenodd" clip-rule="evenodd" d="M523.418 451.101C524.091 450.125 525.833 450.159 526.81 450.834C527.787 451.508 528.033 452.847 527.359 453.823C526.685 454.799 524.917 455.664 523.94 454.989C522.963 454.314 522.744 452.077 523.418 451.101Z" fill="#1B3D79"/>
<path fill-rule="evenodd" clip-rule="evenodd" d="M515.263 445.47C515.937 444.494 517.678 444.528 518.656 445.202C519.633 445.877 519.879 447.216 519.205 448.192C518.531 449.167 516.763 450.033 515.786 449.358C514.809 448.683 514.589 446.446 515.263 445.47Z" fill="#1B3D79"/>
<path fill-rule="evenodd" clip-rule="evenodd" d="M507.111 439.84C507.785 438.864 509.521 438.894 510.501 439.571C511.478 440.246 511.724 441.584 511.05 442.56C510.376 443.536 508.609 444.401 507.632 443.727C506.651 443.05 506.437 440.816 507.111 439.84Z" fill="#1B3D79"/>
<path fill-rule="evenodd" clip-rule="evenodd" d="M498.951 434.205C499.625 433.229 501.37 433.265 502.349 433.941C503.328 434.617 503.566 435.95 502.892 436.926C502.218 437.902 500.458 438.773 499.479 438.097C498.5 437.421 498.278 435.181 498.951 434.205Z" fill="#1B3D79"/>
<path fill-rule="evenodd" clip-rule="evenodd" d="M490.801 428.576C491.475 427.6 493.219 427.636 494.198 428.312C495.168 428.982 495.415 430.322 494.741 431.297C494.067 432.273 492.299 433.138 491.328 432.468C490.349 431.792 490.127 429.552 490.801 428.576Z" fill="#1B3D79"/>
<path fill-rule="evenodd" clip-rule="evenodd" d="M482.65 422.947C483.324 421.971 485.06 422.002 486.039 422.678C487.017 423.354 487.264 424.693 486.59 425.669C485.916 426.644 484.148 427.509 483.169 426.833C482.19 426.157 481.976 423.923 482.65 422.947Z" fill="#1B3D79"/>
<path fill-rule="evenodd" clip-rule="evenodd" d="M474.49 417.313C475.164 416.337 476.909 416.373 477.888 417.049C478.866 417.725 479.105 419.058 478.431 420.034C477.757 421.01 475.997 421.88 475.018 421.204C474.039 420.528 473.816 418.289 474.49 417.313Z" fill="#1B3D79"/>
<path fill-rule="evenodd" clip-rule="evenodd" d="M466.339 411.684C467.013 410.708 468.758 410.744 469.728 411.414C470.707 412.09 470.954 413.429 470.28 414.405C469.606 415.381 467.837 416.246 466.859 415.57C465.888 414.9 465.666 412.66 466.339 411.684Z" fill="#1B3D79"/>
<path fill-rule="evenodd" clip-rule="evenodd" d="M458.189 406.055C458.862 405.079 460.599 405.109 461.577 405.785C462.556 406.461 462.803 407.8 462.129 408.776C461.455 409.752 459.687 410.617 458.708 409.941C457.729 409.265 457.515 407.031 458.189 406.055Z" fill="#1B3D79"/>
<path fill-rule="evenodd" clip-rule="evenodd" d="M450.029 400.42C450.703 399.444 452.448 399.48 453.427 400.156C454.397 400.827 454.644 402.166 453.97 403.141C453.296 404.117 451.527 404.982 450.557 404.312C449.578 403.636 449.355 401.396 450.029 400.42Z" fill="#1B3D79"/>
<path fill-rule="evenodd" clip-rule="evenodd" d="M433.719 389.157C434.393 388.181 436.138 388.217 437.116 388.893C438.095 389.569 438.333 390.902 437.659 391.878C436.986 392.854 435.225 393.724 434.247 393.048C433.268 392.373 433.045 390.133 433.719 389.157Z" fill="#1B3D79"/>
<path fill-rule="evenodd" clip-rule="evenodd" d="M425.568 383.528C426.242 382.552 427.987 382.588 428.957 383.258C429.936 383.934 430.182 385.273 429.509 386.249C428.835 387.225 427.066 388.09 426.087 387.414C425.117 386.744 424.894 384.504 425.568 383.528Z" fill="#1B3D79"/>
<path fill-rule="evenodd" clip-rule="evenodd" d="M417.417 377.899C418.091 376.923 419.827 376.953 420.806 377.629C421.785 378.305 422.032 379.644 421.358 380.62C420.684 381.596 418.915 382.461 417.936 381.785C416.958 381.109 416.743 378.875 417.417 377.899Z" fill="#1B3D79"/>
<path fill-rule="evenodd" clip-rule="evenodd" d="M409.258 372.264C409.932 371.289 411.676 371.325 412.655 372.001C413.626 372.671 413.872 374.01 413.198 374.986C412.524 375.962 410.756 376.826 409.786 376.156C408.807 375.48 408.584 373.24 409.258 372.264Z" fill="#1B3D79"/>
<path fill-rule="evenodd" clip-rule="evenodd" d="M401.107 366.636C401.781 365.66 403.517 365.69 404.496 366.366C405.475 367.042 405.721 368.381 405.047 369.357C404.374 370.333 402.605 371.197 401.626 370.521C400.647 369.845 400.433 367.611 401.107 366.636Z" fill="#1B3D79"/>
<path fill-rule="evenodd" clip-rule="evenodd" d="M392.948 361.001C393.622 360.025 395.366 360.061 396.345 360.737C397.324 361.413 397.57 362.752 396.897 363.728C396.223 364.704 394.454 365.568 393.475 364.892C392.497 364.217 392.274 361.977 392.948 361.001Z" fill="#1B3D79"/>
<path fill-rule="evenodd" clip-rule="evenodd" d="M384.797 355.372C385.471 354.396 387.215 354.432 388.186 355.102C389.165 355.778 389.411 357.117 388.737 358.093C388.063 359.069 386.295 359.934 385.316 359.258C384.346 358.588 384.123 356.348 384.797 355.372Z" fill="#1B3D79"/>
<path fill-rule="evenodd" clip-rule="evenodd" d="M376.646 349.743C377.32 348.767 379.056 348.798 380.035 349.474C381.014 350.149 381.26 351.488 380.586 352.464C379.912 353.44 378.144 354.305 377.165 353.629C376.186 352.953 375.972 350.719 376.646 349.743Z" fill="#1B3D79"/>
<path fill-rule="evenodd" clip-rule="evenodd" d="M368.487 344.108C369.16 343.133 370.905 343.169 371.884 343.845C372.863 344.521 373.101 345.854 372.427 346.83C371.753 347.806 369.993 348.676 369.014 348C368.035 347.324 367.813 345.084 368.487 344.108Z" fill="#1B3D79"/>
<path fill-rule="evenodd" clip-rule="evenodd" d="M360.336 338.48C361.01 337.504 362.754 337.54 363.725 338.21C364.703 338.886 364.95 340.225 364.276 341.201C363.602 342.177 361.834 343.041 360.855 342.365C359.885 341.695 359.662 339.456 360.336 338.48Z" fill="#1B3D79"/>
<path fill-rule="evenodd" clip-rule="evenodd" d="M352.176 332.845C352.85 331.869 354.595 331.905 355.574 332.581C356.553 333.257 356.799 334.596 356.125 335.572C355.451 336.548 353.683 337.413 352.704 336.737C351.725 336.061 351.502 333.821 352.176 332.845Z" fill="#1B3D79"/>
<path fill-rule="evenodd" clip-rule="evenodd" d="M344.025 327.216C344.699 326.24 346.444 326.276 347.423 326.952C348.393 327.622 348.64 328.961 347.966 329.937C347.292 330.913 345.523 331.778 344.553 331.108C343.574 330.432 343.352 328.192 344.025 327.216Z" fill="#1B3D79"/>
<path fill-rule="evenodd" clip-rule="evenodd" d="M335.875 321.587C336.549 320.611 338.285 320.642 339.264 321.318C340.242 321.994 340.489 323.333 339.815 324.309C339.141 325.284 337.373 326.149 336.394 325.473C335.415 324.797 335.201 322.563 335.875 321.587Z" fill="#1B3D79"/>
<path fill-rule="evenodd" clip-rule="evenodd" d="M553.046 460.514C553.72 459.539 555.461 459.572 556.438 460.247C557.415 460.922 557.661 462.26 556.987 463.236C556.313 464.212 554.546 465.077 553.569 464.403C552.591 463.728 552.372 461.49 553.046 460.514Z" fill="#1B3D79"/>
<path fill-rule="evenodd" clip-rule="evenodd" d="M544.891 454.883C545.565 453.907 547.306 453.941 548.283 454.615C549.26 455.29 549.506 456.629 548.832 457.604C548.158 458.58 546.391 459.446 545.413 458.771C544.436 458.096 544.217 455.859 544.891 454.883Z" fill="#1B3D79"/>
<path fill-rule="evenodd" clip-rule="evenodd" d="M536.737 449.252C537.411 448.276 539.153 448.31 540.13 448.985C541.107 449.66 541.353 450.998 540.679 451.974C540.005 452.95 538.237 453.815 537.26 453.14C536.283 452.465 536.064 450.228 536.737 449.252Z" fill="#1B3D79"/>
<path fill-rule="evenodd" clip-rule="evenodd" d="M528.583 443.621C529.257 442.645 530.998 442.679 531.975 443.354C532.952 444.028 533.198 445.367 532.524 446.343C531.85 447.318 530.083 448.184 529.106 447.509C528.129 446.834 527.909 444.597 528.583 443.621Z" fill="#1B3D79"/>
<path fill-rule="evenodd" clip-rule="evenodd" d="M520.429 437.99C521.103 437.014 522.844 437.048 523.821 437.722C524.798 438.397 525.044 439.736 524.37 440.711C523.696 441.687 521.929 442.553 520.951 441.878C519.974 441.203 519.755 438.966 520.429 437.99Z" fill="#1B3D79"/>
<path fill-rule="evenodd" clip-rule="evenodd" d="M512.276 432.36C512.95 431.384 514.686 431.414 515.667 432.091C516.644 432.766 516.89 434.104 516.216 435.08C515.542 436.056 513.774 436.921 512.797 436.247C511.817 435.57 511.602 433.336 512.276 432.36Z" fill="#1B3D79"/>
<path fill-rule="evenodd" clip-rule="evenodd" d="M504.117 426.725C504.791 425.749 506.536 425.785 507.514 426.461C508.493 427.137 508.731 428.47 508.057 429.446C507.384 430.422 505.623 431.293 504.645 430.617C503.666 429.941 503.443 427.701 504.117 426.725Z" fill="#1B3D79"/>
<path fill-rule="evenodd" clip-rule="evenodd" d="M495.966 421.096C496.64 420.12 498.385 420.156 499.363 420.832C500.334 421.502 500.581 422.842 499.907 423.817C499.233 424.793 497.464 425.658 496.494 424.988C495.515 424.312 495.292 422.072 495.966 421.096Z" fill="#1B3D79"/>
<path fill-rule="evenodd" clip-rule="evenodd" d="M487.815 415.467C488.489 414.491 490.225 414.522 491.204 415.198C492.183 415.874 492.43 417.213 491.756 418.188C491.082 419.164 489.313 420.029 488.334 419.353C487.356 418.677 487.141 416.443 487.815 415.467Z" fill="#1B3D79"/>
<path fill-rule="evenodd" clip-rule="evenodd" d="M479.656 409.833C480.33 408.857 482.074 408.893 483.053 409.569C484.032 410.245 484.27 411.578 483.596 412.554C482.922 413.53 481.162 414.4 480.184 413.724C479.205 413.048 478.982 410.809 479.656 409.833Z" fill="#1B3D79"/>
<path fill-rule="evenodd" clip-rule="evenodd" d="M471.505 404.204C472.179 403.228 473.924 403.264 474.894 403.934C475.873 404.61 476.119 405.949 475.445 406.925C474.772 407.901 473.003 408.766 472.024 408.09C471.054 407.42 470.831 405.18 471.505 404.204Z" fill="#1B3D79"/>
<path fill-rule="evenodd" clip-rule="evenodd" d="M463.354 398.575C464.028 397.599 465.764 397.629 466.743 398.305C467.722 398.981 467.969 400.32 467.295 401.296C466.621 402.272 464.852 403.137 463.873 402.461C462.895 401.785 462.68 399.551 463.354 398.575Z" fill="#1B3D79"/>
<path fill-rule="evenodd" clip-rule="evenodd" d="M455.195 392.94C455.869 391.964 457.613 392.001 458.592 392.676C459.562 393.347 459.809 394.686 459.135 395.661C458.461 396.637 456.693 397.502 455.722 396.832C454.744 396.156 454.521 393.916 455.195 392.94Z" fill="#1B3D79"/>
<path fill-rule="evenodd" clip-rule="evenodd" d="M447.044 387.311C447.718 386.336 449.454 386.366 450.433 387.042C451.412 387.718 451.658 389.057 450.984 390.033C450.31 391.008 448.542 391.873 447.563 391.197C446.584 390.521 446.37 388.287 447.044 387.311Z" fill="#1B3D79"/>
<path fill-rule="evenodd" clip-rule="evenodd" d="M438.885 381.677C439.558 380.701 441.303 380.737 442.282 381.413C443.261 382.089 443.499 383.422 442.825 384.398C442.151 385.374 440.391 386.244 439.412 385.568C438.433 384.892 438.211 382.653 438.885 381.677Z" fill="#1B3D79"/>
<path fill-rule="evenodd" clip-rule="evenodd" d="M430.734 376.048C431.408 375.072 433.152 375.108 434.123 375.778C435.101 376.454 435.348 377.793 434.674 378.769C434 379.745 432.232 380.61 431.253 379.934C430.283 379.264 430.06 377.024 430.734 376.048Z" fill="#1B3D79"/>
<path fill-rule="evenodd" clip-rule="evenodd" d="M422.583 370.419C423.257 369.443 424.993 369.474 425.972 370.149C426.95 370.825 427.197 372.164 426.523 373.14C425.849 374.116 424.081 374.981 423.102 374.305C422.123 373.629 421.909 371.395 422.583 370.419Z" fill="#1B3D79"/>
<path fill-rule="evenodd" clip-rule="evenodd" d="M414.423 364.784C415.097 363.809 416.842 363.845 417.821 364.521C418.791 365.191 419.038 366.53 418.364 367.506C417.69 368.481 415.921 369.346 414.951 368.676C413.972 368 413.75 365.76 414.423 364.784Z" fill="#1B3D79"/>
<path fill-rule="evenodd" clip-rule="evenodd" d="M406.273 359.156C406.947 358.18 408.683 358.21 409.662 358.886C410.64 359.562 410.887 360.901 410.213 361.877C409.539 362.853 407.771 363.717 406.792 363.041C405.813 362.365 405.599 360.131 406.273 359.156Z" fill="#1B3D79"/>
<path fill-rule="evenodd" clip-rule="evenodd" d="M398.113 353.521C398.787 352.545 400.532 352.581 401.511 353.257C402.489 353.933 402.736 355.272 402.062 356.248C401.388 357.224 399.62 358.088 398.641 357.412C397.662 356.737 397.439 354.497 398.113 353.521Z" fill="#1B3D79"/>
<path fill-rule="evenodd" clip-rule="evenodd" d="M389.962 347.892C390.636 346.916 392.381 346.952 393.351 347.622C394.33 348.298 394.577 349.637 393.903 350.613C393.229 351.589 391.46 352.454 390.482 351.778C389.511 351.108 389.288 348.868 389.962 347.892Z" fill="#1B3D79"/>
<path fill-rule="evenodd" clip-rule="evenodd" d="M381.811 342.263C382.485 341.287 384.222 341.318 385.2 341.994C386.179 342.669 386.426 344.008 385.752 344.984C385.078 345.96 383.309 346.825 382.331 346.149C381.352 345.473 381.138 343.239 381.811 342.263Z" fill="#1B3D79"/>
<path fill-rule="evenodd" clip-rule="evenodd" d="M373.652 336.628C374.326 335.653 376.071 335.689 377.049 336.365C378.028 337.041 378.267 338.374 377.593 339.35C376.919 340.326 375.159 341.196 374.18 340.52C373.201 339.844 372.978 337.604 373.652 336.628Z" fill="#1B3D79"/>
<path fill-rule="evenodd" clip-rule="evenodd" d="M357.342 325.365C358.016 324.389 359.761 324.425 360.739 325.101C361.718 325.777 361.965 327.116 361.291 328.092C360.617 329.068 358.848 329.933 357.87 329.257C356.891 328.581 356.668 326.341 357.342 325.365Z" fill="#1B3D79"/>
<path fill-rule="evenodd" clip-rule="evenodd" d="M349.191 319.736C349.865 318.76 351.61 318.796 352.588 319.472C353.559 320.142 353.805 321.481 353.132 322.457C352.458 323.433 350.689 324.298 349.719 323.628C348.74 322.952 348.517 320.712 349.191 319.736Z" fill="#1B3D79"/>
<path fill-rule="evenodd" clip-rule="evenodd" d="M341.04 314.107C341.714 313.131 343.45 313.162 344.429 313.838C345.408 314.514 345.655 315.853 344.981 316.829C344.307 317.804 342.538 318.669 341.559 317.993C340.581 317.317 340.366 315.083 341.04 314.107Z" fill="#1B3D79"/>
<path fill-rule="evenodd" clip-rule="evenodd" d="M558.211 453.034C558.885 452.059 560.627 452.092 561.604 452.767C562.581 453.442 562.827 454.78 562.153 455.756C561.479 456.732 559.711 457.597 558.734 456.923C557.757 456.248 557.538 454.01 558.211 453.034Z" fill="#1B3D79"/>
<path fill-rule="evenodd" clip-rule="evenodd" d="M550.056 447.403C550.73 446.427 552.472 446.461 553.449 447.135C554.426 447.81 554.672 449.149 553.998 450.124C553.324 451.1 551.556 451.966 550.579 451.291C549.602 450.616 549.382 448.378 550.056 447.403Z" fill="#1B3D79"/>
<path fill-rule="evenodd" clip-rule="evenodd" d="M541.903 441.772C542.577 440.796 544.318 440.83 545.295 441.505C546.272 442.179 546.518 443.518 545.844 444.494C545.17 445.47 543.403 446.335 542.426 445.66C541.448 444.985 541.229 442.748 541.903 441.772Z" fill="#1B3D79"/>
<path fill-rule="evenodd" clip-rule="evenodd" d="M533.749 436.141C534.423 435.165 536.164 435.199 537.141 435.874C538.118 436.548 538.364 437.887 537.69 438.863C537.016 439.839 535.248 440.704 534.271 440.029C533.294 439.354 533.075 437.117 533.749 436.141Z" fill="#1B3D79"/>
<path fill-rule="evenodd" clip-rule="evenodd" d="M525.594 430.51C526.268 429.534 528.01 429.568 528.987 430.242C529.964 430.917 530.21 432.256 529.536 433.231C528.862 434.207 527.094 435.073 526.117 434.398C525.14 433.723 524.921 431.486 525.594 430.51Z" fill="#1B3D79"/>
<path fill-rule="evenodd" clip-rule="evenodd" d="M517.442 424.88C518.116 423.904 519.852 423.934 520.832 424.611C521.81 425.286 522.055 426.624 521.381 427.6C520.708 428.576 518.94 429.441 517.963 428.767C516.982 428.09 516.768 425.856 517.442 424.88Z" fill="#1B3D79"/>
<path fill-rule="evenodd" clip-rule="evenodd" d="M509.283 419.245C509.956 418.269 511.701 418.305 512.68 418.981C513.659 419.657 513.897 420.99 513.223 421.966C512.549 422.942 510.789 423.813 509.81 423.137C508.831 422.461 508.609 420.221 509.283 419.245Z" fill="#1B3D79"/>
<path fill-rule="evenodd" clip-rule="evenodd" d="M501.132 413.616C501.806 412.64 503.55 412.676 504.529 413.352C505.499 414.022 505.746 415.361 505.072 416.337C504.398 417.313 502.63 418.178 501.659 417.508C500.681 416.832 500.458 414.592 501.132 413.616Z" fill="#1B3D79"/>
<path fill-rule="evenodd" clip-rule="evenodd" d="M492.981 407.987C493.655 407.011 495.391 407.042 496.37 407.718C497.348 408.394 497.595 409.733 496.921 410.709C496.247 411.684 494.479 412.549 493.5 411.873C492.521 411.197 492.307 408.963 492.981 407.987Z" fill="#1B3D79"/>
<path fill-rule="evenodd" clip-rule="evenodd" d="M484.821 402.353C485.495 401.377 487.24 401.413 488.219 402.089C489.198 402.765 489.436 404.098 488.762 405.074C488.088 406.05 486.328 406.92 485.349 406.244C484.37 405.568 484.148 403.328 484.821 402.353Z" fill="#1B3D79"/>
<path fill-rule="evenodd" clip-rule="evenodd" d="M490.199 394.566C490.873 393.59 492.617 393.626 493.596 394.302C494.575 394.978 494.813 396.311 494.139 397.287C493.465 398.263 491.705 399.133 490.726 398.458C489.748 397.782 489.525 395.542 490.199 394.566Z" fill="#1B3D79"/>
<path fill-rule="evenodd" clip-rule="evenodd" d="M476.671 396.724C477.344 395.748 479.089 395.784 480.059 396.454C481.038 397.13 481.285 398.469 480.611 399.445C479.937 400.421 478.169 401.286 477.19 400.61C476.219 399.94 475.997 397.7 476.671 396.724Z" fill="#1B3D79"/>
<path fill-rule="evenodd" clip-rule="evenodd" d="M468.52 391.095C469.194 390.119 470.93 390.149 471.909 390.825C472.887 391.501 473.134 392.84 472.46 393.816C471.786 394.792 470.018 395.657 469.039 394.981C468.06 394.305 467.846 392.071 468.52 391.095Z" fill="#1B3D79"/>
<path fill-rule="evenodd" clip-rule="evenodd" d="M460.36 385.46C461.034 384.484 462.779 384.52 463.758 385.196C464.728 385.866 464.975 387.206 464.301 388.181C463.627 389.157 461.858 390.022 460.888 389.352C459.909 388.676 459.686 386.436 460.36 385.46Z" fill="#1B3D79"/>
<path fill-rule="evenodd" clip-rule="evenodd" d="M452.209 379.831C452.883 378.856 454.62 378.886 455.598 379.562C456.577 380.238 456.824 381.577 456.15 382.553C455.476 383.528 453.707 384.393 452.729 383.717C451.75 383.041 451.536 380.807 452.209 379.831Z" fill="#1B3D79"/>
<path fill-rule="evenodd" clip-rule="evenodd" d="M444.05 374.197C444.724 373.221 446.469 373.257 447.447 373.933C448.426 374.609 448.664 375.942 447.991 376.918C447.317 377.894 445.557 378.764 444.578 378.088C443.599 377.412 443.376 375.173 444.05 374.197Z" fill="#1B3D79"/>
<path fill-rule="evenodd" clip-rule="evenodd" d="M435.899 368.568C436.573 367.592 438.318 367.628 439.288 368.298C440.267 368.974 440.514 370.313 439.84 371.289C439.166 372.265 437.397 373.13 436.418 372.454C435.448 371.784 435.225 369.544 435.899 368.568Z" fill="#1B3D79"/>
<path fill-rule="evenodd" clip-rule="evenodd" d="M427.748 362.939C428.422 361.963 430.158 361.993 431.137 362.669C432.116 363.345 432.363 364.684 431.689 365.66C431.015 366.636 429.246 367.501 428.268 366.825C427.289 366.149 427.074 363.915 427.748 362.939Z" fill="#1B3D79"/>
<path fill-rule="evenodd" clip-rule="evenodd" d="M419.589 357.304C420.263 356.329 422.008 356.365 422.986 357.041C423.957 357.711 424.203 359.05 423.53 360.026C422.856 361.001 421.087 361.866 420.117 361.196C419.138 360.52 418.915 358.28 419.589 357.304Z" fill="#1B3D79"/>
<path fill-rule="evenodd" clip-rule="evenodd" d="M411.438 351.676C412.112 350.7 413.848 350.73 414.827 351.406C415.806 352.082 416.053 353.421 415.379 354.397C414.705 355.373 412.936 356.237 411.957 355.561C410.979 354.885 410.764 352.651 411.438 351.676Z" fill="#1B3D79"/>
<path fill-rule="evenodd" clip-rule="evenodd" d="M403.279 346.041C403.953 345.065 405.697 345.101 406.676 345.777C407.655 346.453 407.902 347.792 407.228 348.768C406.554 349.744 404.785 350.608 403.806 349.932C402.828 349.257 402.605 347.017 403.279 346.041Z" fill="#1B3D79"/>
<path fill-rule="evenodd" clip-rule="evenodd" d="M395.128 340.412C395.802 339.436 397.547 339.472 398.517 340.142C399.496 340.818 399.742 342.157 399.068 343.133C398.394 344.109 396.626 344.974 395.647 344.298C394.677 343.628 394.454 341.388 395.128 340.412Z" fill="#1B3D79"/>
<path fill-rule="evenodd" clip-rule="evenodd" d="M386.977 334.783C387.651 333.807 389.387 333.838 390.366 334.513C391.345 335.189 391.591 336.528 390.917 337.504C390.244 338.48 388.475 339.345 387.496 338.669C386.517 337.993 386.303 335.759 386.977 334.783Z" fill="#1B3D79"/>
<path fill-rule="evenodd" clip-rule="evenodd" d="M378.818 329.148C379.492 328.173 381.236 328.209 382.215 328.885C383.194 329.561 383.432 330.894 382.758 331.87C382.084 332.846 380.324 333.716 379.345 333.04C378.367 332.364 378.144 330.124 378.818 329.148Z" fill="#1B3D79"/>
<path fill-rule="evenodd" clip-rule="evenodd" d="M370.667 323.52C371.341 322.544 373.085 322.58 374.056 323.25C375.035 323.926 375.281 325.265 374.607 326.241C373.933 327.217 372.165 328.081 371.186 327.405C370.216 326.735 369.993 324.496 370.667 323.52Z" fill="#1B3D79"/>
<path fill-rule="evenodd" clip-rule="evenodd" d="M354.357 312.256C355.031 311.28 356.775 311.316 357.754 311.992C358.724 312.662 358.971 314.001 358.297 314.977C357.623 315.953 355.855 316.818 354.884 316.148C353.905 315.472 353.683 313.232 354.357 312.256Z" fill="#1B3D79"/>
<path fill-rule="evenodd" clip-rule="evenodd" d="M346.206 306.627C346.88 305.652 348.616 305.682 349.595 306.358C350.573 307.034 350.82 308.373 350.146 309.349C349.472 310.324 347.704 311.189 346.725 310.513C345.746 309.837 345.532 307.603 346.206 306.627Z" fill="#1B3D79"/>
<path fill-rule="evenodd" clip-rule="evenodd" d="M563.377 445.554C564.051 444.579 565.792 444.612 566.769 445.287C567.746 445.962 567.992 447.3 567.318 448.276C566.644 449.252 564.877 450.117 563.9 449.443C562.923 448.768 562.703 446.53 563.377 445.554Z" fill="#1B3D79"/>
<path fill-rule="evenodd" clip-rule="evenodd" d="M555.222 439.923C555.896 438.947 557.637 438.981 558.614 439.655C559.591 440.33 559.837 441.669 559.163 442.644C558.489 443.62 556.722 444.486 555.744 443.811C554.767 443.136 554.548 440.898 555.222 439.923Z" fill="#1B3D79"/>
<path fill-rule="evenodd" clip-rule="evenodd" d="M547.068 434.292C547.742 433.316 549.484 433.35 550.461 434.025C551.438 434.699 551.684 436.038 551.01 437.014C550.336 437.99 548.568 438.855 547.591 438.18C546.614 437.505 546.395 435.268 547.068 434.292Z" fill="#1B3D79"/>
<path fill-rule="evenodd" clip-rule="evenodd" d="M538.914 428.661C539.588 427.685 541.329 427.719 542.307 428.394C543.284 429.068 543.529 430.407 542.856 431.383C542.182 432.359 540.414 433.224 539.437 432.549C538.46 431.874 538.24 429.637 538.914 428.661Z" fill="#1B3D79"/>
<path fill-rule="evenodd" clip-rule="evenodd" d="M530.76 423.03C531.434 422.054 533.175 422.088 534.152 422.762C535.129 423.437 535.375 424.776 534.701 425.751C534.027 426.727 532.26 427.593 531.283 426.918C530.305 426.243 530.086 424.006 530.76 423.03Z" fill="#1B3D79"/>
<path fill-rule="evenodd" clip-rule="evenodd" d="M522.607 417.4C523.281 416.424 525.018 416.454 525.998 417.131C526.975 417.806 527.221 419.144 526.547 420.12C525.873 421.096 524.105 421.961 523.128 421.287C522.148 420.61 521.934 418.376 522.607 417.4Z" fill="#1B3D79"/>
<path fill-rule="evenodd" clip-rule="evenodd" d="M514.448 411.765C515.122 410.789 516.867 410.825 517.845 411.501C518.824 412.177 519.062 413.51 518.389 414.486C517.715 415.462 515.955 416.333 514.976 415.657C513.997 414.981 513.774 412.741 514.448 411.765Z" fill="#1B3D79"/>
<path fill-rule="evenodd" clip-rule="evenodd" d="M506.297 406.136C506.971 405.16 508.716 405.196 509.695 405.872C510.665 406.542 510.912 407.881 510.238 408.857C509.564 409.833 507.795 410.698 506.825 410.028C505.846 409.352 505.623 407.112 506.297 406.136Z" fill="#1B3D79"/>
<path fill-rule="evenodd" clip-rule="evenodd" d="M481.836 389.244C482.51 388.268 484.255 388.304 485.225 388.974C486.204 389.65 486.45 390.989 485.777 391.965C485.103 392.941 483.334 393.806 482.355 393.13C481.385 392.46 481.162 390.22 481.836 389.244Z" fill="#1B3D79"/>
<path fill-rule="evenodd" clip-rule="evenodd" d="M465.526 377.98C466.2 377.004 467.944 377.041 468.923 377.716C469.894 378.387 470.14 379.726 469.466 380.701C468.792 381.677 467.024 382.542 466.054 381.872C465.075 381.196 464.852 378.956 465.526 377.98Z" fill="#1B3D79"/>
<path fill-rule="evenodd" clip-rule="evenodd" d="M457.375 372.351C458.049 371.375 459.785 371.406 460.764 372.082C461.743 372.758 461.989 374.097 461.315 375.073C460.642 376.048 458.873 376.913 457.894 376.237C456.915 375.561 456.701 373.327 457.375 372.351Z" fill="#1B3D79"/>
<path fill-rule="evenodd" clip-rule="evenodd" d="M432.914 355.459C433.588 354.483 435.324 354.513 436.303 355.189C437.282 355.865 437.528 357.204 436.854 358.18C436.18 359.156 434.412 360.021 433.433 359.345C432.454 358.669 432.24 356.435 432.914 355.459Z" fill="#1B3D79"/>
<path fill-rule="evenodd" clip-rule="evenodd" d="M424.755 349.824C425.429 348.849 427.173 348.885 428.152 349.561C429.122 350.231 429.369 351.57 428.695 352.546C428.021 353.521 426.253 354.386 425.282 353.716C424.303 353.04 424.081 350.8 424.755 349.824Z" fill="#1B3D79"/>
<path fill-rule="evenodd" clip-rule="evenodd" d="M416.604 344.196C417.278 343.22 419.014 343.25 419.993 343.926C420.971 344.602 421.218 345.941 420.544 346.917C419.87 347.893 418.102 348.757 417.123 348.081C416.144 347.405 415.93 345.171 416.604 344.196Z" fill="#1B3D79"/>
<path fill-rule="evenodd" clip-rule="evenodd" d="M408.444 338.561C409.118 337.585 410.863 337.621 411.842 338.297C412.82 338.973 413.067 340.312 412.393 341.288C411.719 342.264 409.951 343.128 408.972 342.452C407.993 341.777 407.77 339.537 408.444 338.561Z" fill="#1B3D79"/>
<path fill-rule="evenodd" clip-rule="evenodd" d="M400.294 332.932C400.967 331.956 402.712 331.992 403.682 332.662C404.661 333.338 404.908 334.677 404.234 335.653C403.56 336.629 401.792 337.494 400.813 336.818C399.842 336.148 399.62 333.908 400.294 332.932Z" fill="#1B3D79"/>
<path fill-rule="evenodd" clip-rule="evenodd" d="M392.143 327.303C392.817 326.327 394.553 326.358 395.532 327.033C396.51 327.709 396.757 329.048 396.083 330.024C395.409 331 393.641 331.865 392.662 331.189C391.683 330.513 391.469 328.279 392.143 327.303Z" fill="#1B3D79"/>
<path fill-rule="evenodd" clip-rule="evenodd" d="M383.983 321.668C384.657 320.693 386.402 320.729 387.381 321.405C388.359 322.081 388.598 323.414 387.924 324.39C387.25 325.366 385.49 326.236 384.511 325.56C383.532 324.884 383.309 322.644 383.983 321.668Z" fill="#1B3D79"/>
<path fill-rule="evenodd" clip-rule="evenodd" d="M375.832 316.04C376.506 315.064 378.251 315.1 379.221 315.77C380.2 316.446 380.447 317.785 379.773 318.761C379.099 319.737 377.33 320.601 376.352 319.925C375.381 319.255 375.159 317.015 375.832 316.04Z" fill="#1B3D79"/>
<path fill-rule="evenodd" clip-rule="evenodd" d="M367.673 310.405C368.347 309.429 370.092 309.465 371.07 310.141C372.049 310.817 372.296 312.156 371.622 313.132C370.948 314.108 369.18 314.973 368.201 314.297C367.222 313.621 366.999 311.381 367.673 310.405Z" fill="#1B3D79"/>
<path fill-rule="evenodd" clip-rule="evenodd" d="M359.522 304.776C360.196 303.8 361.941 303.836 362.92 304.512C363.89 305.182 364.137 306.521 363.463 307.497C362.789 308.473 361.02 309.338 360.05 308.668C359.071 307.992 358.848 305.752 359.522 304.776Z" fill="#1B3D79"/>
<path fill-rule="evenodd" clip-rule="evenodd" d="M351.371 299.147C352.045 298.171 353.781 298.202 354.76 298.878C355.739 299.554 355.986 300.893 355.312 301.869C354.638 302.844 352.869 303.709 351.891 303.033C350.912 302.357 350.697 300.123 351.371 299.147Z" fill="#1B3D79"/>
<path fill-rule="evenodd" clip-rule="evenodd" d="M568.543 438.074C569.217 437.098 570.958 437.132 571.935 437.807C572.912 438.482 573.158 439.82 572.484 440.796C571.81 441.772 570.042 442.637 569.065 441.963C568.088 441.288 567.869 439.05 568.543 438.074Z" fill="#1B3D79"/>
<path fill-rule="evenodd" clip-rule="evenodd" d="M560.388 432.443C561.061 431.467 562.803 431.501 563.78 432.175C564.757 432.85 565.003 434.189 564.329 435.164C563.655 436.14 561.887 437.006 560.91 436.331C559.933 435.656 559.714 433.419 560.388 432.443Z" fill="#1B3D79"/>
<path fill-rule="evenodd" clip-rule="evenodd" d="M552.234 426.812C552.908 425.836 554.649 425.87 555.626 426.545C556.603 427.219 556.849 428.558 556.175 429.534C555.501 430.51 553.734 431.375 552.757 430.7C551.78 430.025 551.56 427.788 552.234 426.812Z" fill="#1B3D79"/>
<path fill-rule="evenodd" clip-rule="evenodd" d="M544.08 421.181C544.754 420.205 546.495 420.239 547.472 420.913C548.449 421.588 548.695 422.927 548.021 423.903C547.347 424.878 545.579 425.744 544.602 425.069C543.625 424.394 543.406 422.157 544.08 421.181Z" fill="#1B3D79"/>
<path fill-rule="evenodd" clip-rule="evenodd" d="M535.926 415.55C536.599 414.574 538.341 414.608 539.318 415.282C540.295 415.957 540.541 417.296 539.867 418.271C539.193 419.247 537.425 420.113 536.448 419.438C535.471 418.763 535.252 416.526 535.926 415.55Z" fill="#1B3D79"/>
<path fill-rule="evenodd" clip-rule="evenodd" d="M527.773 409.92C528.447 408.944 530.183 408.974 531.164 409.651C532.141 410.326 532.387 411.664 531.713 412.64C531.039 413.616 529.271 414.481 528.294 413.807C527.313 413.13 527.099 410.896 527.773 409.92Z" fill="#1B3D79"/>
<path fill-rule="evenodd" clip-rule="evenodd" d="M519.614 404.285C520.288 403.309 522.032 403.345 523.011 404.021C523.99 404.697 524.228 406.03 523.554 407.006C522.88 407.982 521.12 408.853 520.141 408.177C519.163 407.501 518.94 405.261 519.614 404.285Z" fill="#1B3D79"/>
<path fill-rule="evenodd" clip-rule="evenodd" d="M503.312 393.027C503.986 392.051 505.722 392.082 506.701 392.758C507.68 393.434 507.926 394.773 507.252 395.748C506.578 396.724 504.81 397.589 503.831 396.913C502.852 396.237 502.638 394.003 503.312 393.027Z" fill="#1B3D79"/>
<path fill-rule="evenodd" clip-rule="evenodd" d="M487.002 381.764C487.676 380.788 489.42 380.824 490.391 381.494C491.369 382.17 491.616 383.509 490.942 384.485C490.268 385.461 488.5 386.326 487.521 385.65C486.551 384.979 486.328 382.74 487.002 381.764Z" fill="#1B3D79"/>
<path fill-rule="evenodd" clip-rule="evenodd" d="M478.851 376.135C479.525 375.159 481.261 375.189 482.24 375.865C483.218 376.541 483.465 377.88 482.791 378.856C482.117 379.832 480.349 380.697 479.37 380.021C478.391 379.345 478.177 377.111 478.851 376.135Z" fill="#1B3D79"/>
<path fill-rule="evenodd" clip-rule="evenodd" d="M470.691 370.5C471.365 369.524 473.11 369.56 474.089 370.236C475.059 370.906 475.306 372.246 474.632 373.221C473.958 374.197 472.189 375.062 471.219 374.392C470.24 373.716 470.018 371.476 470.691 370.5Z" fill="#1B3D79"/>
<path fill-rule="evenodd" clip-rule="evenodd" d="M462.541 364.871C463.214 363.895 464.951 363.926 465.929 364.602C466.908 365.278 467.155 366.617 466.481 367.593C465.807 368.568 464.039 369.433 463.06 368.757C462.081 368.081 461.867 365.847 462.541 364.871Z" fill="#1B3D79"/>
<path fill-rule="evenodd" clip-rule="evenodd" d="M454.381 359.237C455.055 358.261 456.8 358.297 457.779 358.973C458.757 359.649 458.996 360.982 458.322 361.958C457.648 362.934 455.888 363.804 454.909 363.128C453.93 362.452 453.707 360.213 454.381 359.237Z" fill="#1B3D79"/>
<path fill-rule="evenodd" clip-rule="evenodd" d="M446.23 353.608C446.904 352.632 448.649 352.668 449.619 353.338C450.598 354.014 450.845 355.353 450.171 356.329C449.497 357.305 447.728 358.17 446.75 357.494C445.779 356.824 445.557 354.584 446.23 353.608Z" fill="#1B3D79"/>
<path fill-rule="evenodd" clip-rule="evenodd" d="M438.079 347.979C438.753 347.003 440.49 347.033 441.468 347.709C442.447 348.385 442.694 349.724 442.02 350.7C441.346 351.676 439.577 352.541 438.599 351.865C437.62 351.189 437.406 348.955 438.079 347.979Z" fill="#1B3D79"/>
<path fill-rule="evenodd" clip-rule="evenodd" d="M413.61 331.081C414.284 330.105 416.028 330.141 417.007 330.817C417.986 331.493 418.233 332.832 417.559 333.808C416.885 334.784 415.116 335.648 414.138 334.972C413.159 334.297 412.936 332.057 413.61 331.081Z" fill="#1B3D79"/>
<path fill-rule="evenodd" clip-rule="evenodd" d="M405.459 325.452C406.133 324.476 407.878 324.512 408.848 325.182C409.827 325.858 410.073 327.197 409.4 328.173C408.726 329.149 406.957 330.014 405.978 329.338C405.008 328.668 404.785 326.428 405.459 325.452Z" fill="#1B3D79"/>
<path fill-rule="evenodd" clip-rule="evenodd" d="M397.308 319.823C397.982 318.847 399.718 318.877 400.697 319.553C401.676 320.229 401.922 321.568 401.249 322.544C400.575 323.52 398.806 324.385 397.827 323.709C396.849 323.033 396.634 320.799 397.308 319.823Z" fill="#1B3D79"/>
<path fill-rule="evenodd" clip-rule="evenodd" d="M389.149 314.188C389.823 313.213 391.567 313.249 392.546 313.925C393.525 314.601 393.763 315.934 393.089 316.91C392.415 317.885 390.655 318.756 389.676 318.08C388.698 317.404 388.475 315.164 389.149 314.188Z" fill="#1B3D79"/>
<path fill-rule="evenodd" clip-rule="evenodd" d="M380.998 308.56C381.672 307.584 383.417 307.62 384.387 308.29C385.366 308.966 385.612 310.305 384.938 311.281C384.264 312.257 382.496 313.121 381.517 312.445C380.547 311.775 380.324 309.535 380.998 308.56Z" fill="#1B3D79"/>
<path fill-rule="evenodd" clip-rule="evenodd" d="M372.839 302.925C373.513 301.949 375.257 301.985 376.236 302.661C377.215 303.337 377.461 304.676 376.788 305.652C376.114 306.628 374.345 307.493 373.366 306.817C372.387 306.141 372.165 303.901 372.839 302.925Z" fill="#1B3D79"/>
<path fill-rule="evenodd" clip-rule="evenodd" d="M364.688 297.296C365.362 296.32 367.106 296.356 368.085 297.032C369.055 297.702 369.302 299.041 368.628 300.017C367.954 300.993 366.186 301.858 365.215 301.188C364.237 300.512 364.014 298.272 364.688 297.296Z" fill="#1B3D79"/>
<path fill-rule="evenodd" clip-rule="evenodd" d="M356.537 291.667C357.211 290.691 358.947 290.722 359.926 291.398C360.905 292.074 361.151 293.413 360.477 294.388C359.803 295.364 358.035 296.229 357.056 295.553C356.077 294.877 355.863 292.643 356.537 291.667Z" fill="#1B3D79"/>
<path fill-rule="evenodd" clip-rule="evenodd" d="M573.708 430.595C574.381 429.619 576.123 429.653 577.1 430.328C578.077 431.003 578.323 432.341 577.649 433.317C576.975 434.293 575.207 435.158 574.23 434.483C573.253 433.809 573.034 431.571 573.708 430.595Z" fill="#1B3D79"/>
<path fill-rule="evenodd" clip-rule="evenodd" d="M565.552 424.963C566.226 423.988 567.968 424.021 568.945 424.696C569.922 425.371 570.168 426.709 569.494 427.685C568.82 428.661 567.052 429.526 566.075 428.852C565.098 428.177 564.879 425.939 565.552 424.963Z" fill="#1B3D79"/>
<path fill-rule="evenodd" clip-rule="evenodd" d="M557.399 419.333C558.073 418.357 559.814 418.391 560.791 419.065C561.768 419.74 562.014 421.079 561.34 422.055C560.666 423.03 558.899 423.896 557.922 423.221C556.945 422.546 556.725 420.309 557.399 419.333Z" fill="#1B3D79"/>
<path fill-rule="evenodd" clip-rule="evenodd" d="M549.245 413.702C549.919 412.726 551.66 412.76 552.637 413.434C553.614 414.109 553.86 415.448 553.186 416.423C552.512 417.399 550.744 418.265 549.767 417.59C548.79 416.915 548.571 414.678 549.245 413.702Z" fill="#1B3D79"/>
<path fill-rule="evenodd" clip-rule="evenodd" d="M541.091 408.071C541.764 407.095 543.506 407.128 544.483 407.803C545.46 408.478 545.706 409.816 545.032 410.792C544.358 411.768 542.59 412.633 541.613 411.959C540.636 411.284 540.417 409.046 541.091 408.071Z" fill="#1B3D79"/>
<path fill-rule="evenodd" clip-rule="evenodd" d="M532.938 402.44C533.612 401.465 535.348 401.495 536.329 402.172C537.306 402.847 537.551 404.185 536.878 405.161C536.204 406.137 534.436 407.002 533.459 406.327C532.478 405.65 532.264 403.416 532.938 402.44Z" fill="#1B3D79"/>
<path fill-rule="evenodd" clip-rule="evenodd" d="M516.628 391.177C517.302 390.201 519.046 390.237 520.025 390.913C520.995 391.583 521.242 392.922 520.568 393.898C519.894 394.874 518.126 395.739 517.155 395.069C516.177 394.393 515.954 392.153 516.628 391.177Z" fill="#1B3D79"/>
<path fill-rule="evenodd" clip-rule="evenodd" d="M508.477 385.548C509.151 384.572 510.887 384.603 511.866 385.278C512.845 385.954 513.091 387.293 512.417 388.269C511.743 389.245 509.975 390.11 508.996 389.434C508.017 388.758 507.803 386.524 508.477 385.548Z" fill="#1B3D79"/>
<path fill-rule="evenodd" clip-rule="evenodd" d="M500.318 379.913C500.991 378.938 502.736 378.974 503.715 379.65C504.694 380.326 504.932 381.659 504.258 382.635C503.584 383.611 501.824 384.481 500.845 383.805C499.866 383.129 499.644 380.889 500.318 379.913Z" fill="#1B3D79"/>
<path fill-rule="evenodd" clip-rule="evenodd" d="M492.167 374.285C492.841 373.309 494.585 373.345 495.556 374.015C496.534 374.691 496.781 376.03 496.107 377.006C495.433 377.982 493.665 378.846 492.686 378.17C491.716 377.5 491.493 375.26 492.167 374.285Z" fill="#1B3D79"/>
<path fill-rule="evenodd" clip-rule="evenodd" d="M484.016 368.656C484.69 367.68 486.426 367.71 487.405 368.386C488.383 369.062 488.63 370.401 487.956 371.377C487.282 372.353 485.514 373.218 484.535 372.542C483.556 371.866 483.342 369.632 484.016 368.656Z" fill="#1B3D79"/>
<path fill-rule="evenodd" clip-rule="evenodd" d="M475.856 363.021C476.53 362.045 478.275 362.081 479.254 362.757C480.224 363.427 480.471 364.766 479.797 365.742C479.123 366.718 477.354 367.583 476.384 366.913C475.405 366.237 475.183 363.997 475.856 363.021Z" fill="#1B3D79"/>
<path fill-rule="evenodd" clip-rule="evenodd" d="M467.706 357.392C468.379 356.416 470.116 356.447 471.094 357.123C472.073 357.798 472.32 359.138 471.646 360.113C470.972 361.089 469.204 361.954 468.225 361.278C467.246 360.602 467.032 358.368 467.706 357.392Z" fill="#1B3D79"/>
<path fill-rule="evenodd" clip-rule="evenodd" d="M459.546 351.758C460.22 350.782 461.965 350.818 462.944 351.494C463.922 352.17 464.161 353.503 463.487 354.479C462.813 355.455 461.053 356.325 460.074 355.649C459.095 354.973 458.872 352.733 459.546 351.758Z" fill="#1B3D79"/>
<path fill-rule="evenodd" clip-rule="evenodd" d="M451.395 346.129C452.069 345.153 453.814 345.189 454.784 345.859C455.763 346.535 456.01 347.874 455.336 348.85C454.662 349.826 452.893 350.69 451.915 350.015C450.944 349.344 450.721 347.105 451.395 346.129Z" fill="#1B3D79"/>
<path fill-rule="evenodd" clip-rule="evenodd" d="M443.244 340.5C443.918 339.524 445.655 339.554 446.633 340.23C447.612 340.906 447.859 342.245 447.185 343.221C446.511 344.197 444.742 345.062 443.764 344.386C442.785 343.71 442.571 341.476 443.244 340.5Z" fill="#1B3D79"/>
<path fill-rule="evenodd" clip-rule="evenodd" d="M435.085 334.865C435.759 333.889 437.504 333.925 438.482 334.601C439.453 335.271 439.699 336.61 439.026 337.586C438.352 338.562 436.583 339.427 435.613 338.757C434.634 338.081 434.411 335.841 435.085 334.865Z" fill="#1B3D79"/>
<path fill-rule="evenodd" clip-rule="evenodd" d="M426.934 329.236C427.608 328.26 429.344 328.291 430.323 328.967C431.302 329.643 431.549 330.982 430.875 331.958C430.201 332.933 428.432 333.798 427.453 333.122C426.475 332.446 426.26 330.212 426.934 329.236Z" fill="#1B3D79"/>
<path fill-rule="evenodd" clip-rule="evenodd" d="M410.624 317.973C411.298 316.997 413.043 317.033 414.013 317.703C414.992 318.379 415.238 319.718 414.564 320.694C413.891 321.67 412.122 322.535 411.143 321.859C410.173 321.188 409.95 318.949 410.624 317.973Z" fill="#1B3D79"/>
<path fill-rule="evenodd" clip-rule="evenodd" d="M402.473 312.344C403.147 311.368 404.883 311.398 405.862 312.074C406.841 312.75 407.087 314.089 406.414 315.065C405.74 316.041 403.971 316.906 402.992 316.23C402.014 315.554 401.799 313.32 402.473 312.344Z" fill="#1B3D79"/>
<path fill-rule="evenodd" clip-rule="evenodd" d="M394.314 306.709C394.988 305.733 396.732 305.769 397.711 306.445C398.69 307.121 398.928 308.455 398.254 309.43C397.58 310.406 395.82 311.277 394.841 310.601C393.863 309.925 393.64 307.685 394.314 306.709Z" fill="#1B3D79"/>
<path fill-rule="evenodd" clip-rule="evenodd" d="M386.163 301.08C386.837 300.105 388.581 300.141 389.552 300.811C390.531 301.487 390.777 302.826 390.103 303.802C389.429 304.778 387.661 305.642 386.682 304.966C385.712 304.296 385.489 302.056 386.163 301.08Z" fill="#1B3D79"/>
<path fill-rule="evenodd" clip-rule="evenodd" d="M378.004 295.446C378.678 294.47 380.422 294.506 381.401 295.182C382.38 295.858 382.626 297.197 381.953 298.173C381.279 299.149 379.51 300.013 378.531 299.337C377.552 298.661 377.33 296.422 378.004 295.446Z" fill="#1B3D79"/>
<path fill-rule="evenodd" clip-rule="evenodd" d="M369.853 289.817C370.527 288.841 372.271 288.877 373.25 289.553C374.22 290.223 374.467 291.562 373.793 292.538C373.119 293.514 371.351 294.379 370.38 293.709C369.402 293.033 369.179 290.793 369.853 289.817Z" fill="#1B3D79"/>
<path fill-rule="evenodd" clip-rule="evenodd" d="M578.874 423.114C579.548 422.138 581.289 422.172 582.266 422.847C583.243 423.522 583.489 424.86 582.815 425.836C582.141 426.812 580.373 427.677 579.396 427.002C578.419 426.328 578.2 424.09 578.874 423.114Z" fill="#1B3D79"/>
<path fill-rule="evenodd" clip-rule="evenodd" d="M570.719 417.483C571.393 416.507 573.134 416.541 574.111 417.215C575.088 417.89 575.334 419.229 574.66 420.204C573.986 421.18 572.218 422.046 571.241 421.371C570.264 420.696 570.045 418.458 570.719 417.483Z" fill="#1B3D79"/>
<path fill-rule="evenodd" clip-rule="evenodd" d="M562.565 411.852C563.239 410.876 564.98 410.91 565.957 411.585C566.935 412.259 567.18 413.598 566.506 414.574C565.833 415.55 564.065 416.415 563.088 415.74C562.111 415.065 561.891 412.828 562.565 411.852Z" fill="#1B3D79"/>
<path fill-rule="evenodd" clip-rule="evenodd" d="M546.257 400.59C546.931 399.614 548.672 399.647 549.649 400.322C550.626 400.997 550.872 402.335 550.198 403.311C549.524 404.287 547.756 405.152 546.779 404.478C545.802 403.803 545.583 401.565 546.257 400.59Z" fill="#1B3D79"/>
<path fill-rule="evenodd" clip-rule="evenodd" d="M538.104 394.96C538.778 393.984 540.514 394.014 541.495 394.691C542.472 395.366 542.718 396.704 542.044 397.68C541.37 398.656 539.602 399.521 538.625 398.847C537.645 398.17 537.43 395.936 538.104 394.96Z" fill="#1B3D79"/>
<path fill-rule="evenodd" clip-rule="evenodd" d="M498.358 400.201C499.032 399.225 500.768 399.255 501.747 399.931C502.726 400.607 502.972 401.946 502.299 402.922C501.625 403.898 499.856 404.762 498.877 404.086C497.899 403.41 497.684 401.176 498.358 400.201Z" fill="#1B3D79"/>
<path fill-rule="evenodd" clip-rule="evenodd" d="M511.675 398.349C512.349 397.374 514.093 397.41 515.072 398.086C516.042 398.756 516.289 400.095 515.615 401.071C514.941 402.047 513.173 402.911 512.202 402.241C511.224 401.565 511.001 399.325 511.675 398.349Z" fill="#1B3D79"/>
<path fill-rule="evenodd" clip-rule="evenodd" d="M529.945 389.325C530.619 388.349 532.363 388.385 533.342 389.061C534.321 389.737 534.559 391.07 533.885 392.046C533.211 393.022 531.451 393.892 530.472 393.217C529.494 392.541 529.271 390.301 529.945 389.325Z" fill="#1B3D79"/>
<path fill-rule="evenodd" clip-rule="evenodd" d="M521.794 383.696C522.468 382.72 524.212 382.756 525.191 383.432C526.162 384.102 526.408 385.441 525.734 386.417C525.06 387.393 523.292 388.258 522.322 387.588C521.343 386.912 521.12 384.672 521.794 383.696Z" fill="#1B3D79"/>
<path fill-rule="evenodd" clip-rule="evenodd" d="M513.643 378.067C514.317 377.091 516.053 377.122 517.032 377.798C518.011 378.473 518.257 379.813 517.583 380.788C516.91 381.764 515.141 382.629 514.162 381.953C513.183 381.277 512.969 379.043 513.643 378.067Z" fill="#1B3D79"/>
<path fill-rule="evenodd" clip-rule="evenodd" d="M505.484 372.433C506.158 371.457 507.902 371.493 508.881 372.169C509.86 372.845 510.098 374.178 509.424 375.154C508.75 376.13 506.99 377 506.011 376.324C505.032 375.648 504.81 373.408 505.484 372.433Z" fill="#1B3D79"/>
<path fill-rule="evenodd" clip-rule="evenodd" d="M497.333 366.804C498.007 365.828 499.751 365.864 500.722 366.534C501.7 367.21 501.947 368.549 501.273 369.525C500.599 370.501 498.831 371.365 497.852 370.69C496.882 370.019 496.659 367.78 497.333 366.804Z" fill="#1B3D79"/>
<path fill-rule="evenodd" clip-rule="evenodd" d="M489.182 361.175C489.856 360.199 491.592 360.229 492.571 360.905C493.55 361.581 493.796 362.92 493.122 363.896C492.448 364.872 490.68 365.737 489.701 365.061C488.722 364.385 488.508 362.151 489.182 361.175Z" fill="#1B3D79"/>
<path fill-rule="evenodd" clip-rule="evenodd" d="M481.023 355.54C481.697 354.564 483.441 354.6 484.42 355.276C485.39 355.946 485.637 357.286 484.963 358.261C484.289 359.237 482.521 360.102 481.55 359.432C480.571 358.756 480.349 356.516 481.023 355.54Z" fill="#1B3D79"/>
<path fill-rule="evenodd" clip-rule="evenodd" d="M472.872 349.911C473.546 348.935 475.282 348.966 476.261 349.642C477.239 350.318 477.486 351.657 476.812 352.633C476.138 353.608 474.37 354.473 473.391 353.797C472.412 353.121 472.198 350.887 472.872 349.911Z" fill="#1B3D79"/>
<path fill-rule="evenodd" clip-rule="evenodd" d="M464.712 344.277C465.386 343.301 467.131 343.337 468.11 344.013C469.088 344.689 469.327 346.022 468.653 346.998C467.979 347.974 466.219 348.844 465.24 348.168C464.261 347.492 464.038 345.253 464.712 344.277Z" fill="#1B3D79"/>
<path fill-rule="evenodd" clip-rule="evenodd" d="M456.561 338.648C457.235 337.672 458.98 337.708 459.95 338.378C460.929 339.054 461.176 340.393 460.502 341.369C459.828 342.345 458.059 343.21 457.081 342.534C456.11 341.863 455.888 339.624 456.561 338.648Z" fill="#1B3D79"/>
<path fill-rule="evenodd" clip-rule="evenodd" d="M448.411 333.019C449.084 332.043 450.821 332.073 451.799 332.749C452.778 333.425 453.025 334.764 452.351 335.74C451.677 336.716 449.909 337.581 448.93 336.905C447.951 336.229 447.737 333.995 448.411 333.019Z" fill="#1B3D79"/>
<path fill-rule="evenodd" clip-rule="evenodd" d="M440.251 327.384C440.925 326.408 442.67 326.445 443.649 327.121C444.619 327.791 444.866 329.13 444.192 330.106C443.518 331.081 441.749 331.946 440.779 331.276C439.8 330.6 439.577 328.36 440.251 327.384Z" fill="#1B3D79"/>
<path fill-rule="evenodd" clip-rule="evenodd" d="M432.1 321.756C432.774 320.78 434.511 320.81 435.489 321.486C436.468 322.162 436.715 323.501 436.041 324.477C435.367 325.453 433.598 326.317 432.62 325.641C431.641 324.965 431.426 322.731 432.1 321.756Z" fill="#1B3D79"/>
<path fill-rule="evenodd" clip-rule="evenodd" d="M423.941 316.121C424.615 315.145 426.36 315.181 427.338 315.857C428.317 316.533 428.564 317.872 427.89 318.848C427.216 319.824 425.447 320.688 424.469 320.012C423.49 319.337 423.267 317.097 423.941 316.121Z" fill="#1B3D79"/>
<path fill-rule="evenodd" clip-rule="evenodd" d="M415.79 310.492C416.464 309.516 418.209 309.552 419.179 310.222C420.158 310.898 420.405 312.237 419.731 313.213C419.057 314.189 417.288 315.054 416.309 314.378C415.339 313.708 415.116 311.468 415.79 310.492Z" fill="#1B3D79"/>
<path fill-rule="evenodd" clip-rule="evenodd" d="M399.48 299.228C400.154 298.253 401.898 298.289 402.877 298.965C403.856 299.641 404.094 300.974 403.42 301.95C402.746 302.925 400.986 303.796 400.008 303.12C399.029 302.444 398.806 300.204 399.48 299.228Z" fill="#1B3D79"/>
<path fill-rule="evenodd" clip-rule="evenodd" d="M449.428 366.41C450.101 365.434 451.846 365.47 452.825 366.146C453.804 366.822 454.042 368.155 453.368 369.131C452.694 370.107 450.934 370.978 449.955 370.302C448.976 369.626 448.754 367.386 449.428 366.41Z" fill="#1B3D79"/>
<path fill-rule="evenodd" clip-rule="evenodd" d="M441.277 360.781C441.951 359.805 443.695 359.841 444.665 360.511C445.644 361.187 445.891 362.526 445.217 363.502C444.543 364.478 442.775 365.343 441.796 364.667C440.825 363.997 440.603 361.757 441.277 360.781Z" fill="#1B3D79"/>
<path fill-rule="evenodd" clip-rule="evenodd" d="M430.132 342.038C430.806 341.062 432.551 341.098 433.529 341.774C434.5 342.444 434.746 343.783 434.072 344.759C433.399 345.735 431.63 346.599 430.66 345.929C429.681 345.253 429.458 343.013 430.132 342.038Z" fill="#1B3D79"/>
<path fill-rule="evenodd" clip-rule="evenodd" d="M421.981 336.409C422.655 335.433 424.391 335.463 425.37 336.139C426.349 336.815 426.595 338.154 425.922 339.13C425.248 340.106 423.479 340.971 422.5 340.295C421.522 339.619 421.307 337.385 421.981 336.409Z" fill="#1B3D79"/>
<path fill-rule="evenodd" clip-rule="evenodd" d="M418.987 323.294C419.661 322.318 421.406 322.354 422.385 323.03C423.363 323.706 423.61 325.045 422.936 326.021C422.262 326.997 420.494 327.862 419.515 327.186C418.536 326.51 418.313 324.27 418.987 323.294Z" fill="#1B3D79"/>
<path fill-rule="evenodd" clip-rule="evenodd" d="M407.85 304.557C408.524 303.581 410.261 303.612 411.239 304.288C412.218 304.963 412.465 306.303 411.791 307.278C411.117 308.254 409.348 309.119 408.37 308.443C407.391 307.767 407.177 305.533 407.85 304.557Z" fill="#1B3D79"/>
<path fill-rule="evenodd" clip-rule="evenodd" d="M391.329 293.6C392.003 292.624 393.748 292.66 394.718 293.33C395.697 294.006 395.943 295.345 395.269 296.321C394.596 297.297 392.827 298.161 391.848 297.485C390.878 296.815 390.655 294.575 391.329 293.6Z" fill="#1B3D79"/>
<path fill-rule="evenodd" clip-rule="evenodd" d="M383.17 287.965C383.844 286.989 385.588 287.025 386.567 287.701C387.546 288.377 387.793 289.716 387.119 290.692C386.445 291.668 384.676 292.532 383.697 291.857C382.719 291.181 382.496 288.941 383.17 287.965Z" fill="#1B3D79"/>
<path fill-rule="evenodd" clip-rule="evenodd" d="M375.019 282.336C375.693 281.36 377.437 281.396 378.416 282.072C379.387 282.742 379.633 284.081 378.959 285.057C378.285 286.033 376.517 286.898 375.546 286.228C374.568 285.552 374.345 283.312 375.019 282.336Z" fill="#1B3D79"/>
<path fill-rule="evenodd" clip-rule="evenodd" d="M584.039 415.634C584.713 414.658 586.454 414.692 587.432 415.367C588.409 416.042 588.655 417.38 587.981 418.356C587.307 419.332 585.539 420.197 584.562 419.522C583.585 418.848 583.365 416.61 584.039 415.634Z" fill="#1B3D79"/>
<path fill-rule="evenodd" clip-rule="evenodd" d="M567.731 404.372C568.405 403.396 570.146 403.43 571.123 404.105C572.1 404.779 572.346 406.118 571.672 407.094C570.998 408.07 569.23 408.935 568.253 408.26C567.276 407.585 567.057 405.348 567.731 404.372Z" fill="#1B3D79"/>
<path fill-rule="evenodd" clip-rule="evenodd" d="M559.577 398.741C560.25 397.765 561.992 397.799 562.969 398.473C563.946 399.148 564.192 400.487 563.518 401.463C562.844 402.438 561.076 403.304 560.099 402.629C559.122 401.954 558.903 399.717 559.577 398.741Z" fill="#1B3D79"/>
<path fill-rule="evenodd" clip-rule="evenodd" d="M551.422 393.11C552.096 392.134 553.837 392.168 554.815 392.842C555.792 393.517 556.037 394.856 555.364 395.831C554.69 396.807 552.922 397.673 551.945 396.998C550.968 396.323 550.748 394.086 551.422 393.11Z" fill="#1B3D79"/>
<path fill-rule="evenodd" clip-rule="evenodd" d="M535.11 381.845C535.784 380.869 537.529 380.905 538.508 381.581C539.486 382.257 539.725 383.59 539.051 384.566C538.377 385.542 536.617 386.413 535.638 385.737C534.659 385.061 534.436 382.821 535.11 381.845Z" fill="#1B3D79"/>
<path fill-rule="evenodd" clip-rule="evenodd" d="M526.959 376.216C527.633 375.24 529.378 375.276 530.357 375.952C531.327 376.622 531.574 377.961 530.9 378.937C530.226 379.913 528.457 380.778 527.487 380.108C526.508 379.432 526.286 377.192 526.959 376.216Z" fill="#1B3D79"/>
<path fill-rule="evenodd" clip-rule="evenodd" d="M518.809 370.587C519.483 369.611 521.219 369.642 522.197 370.318C523.176 370.993 523.423 372.333 522.749 373.308C522.075 374.284 520.307 375.149 519.328 374.473C518.349 373.797 518.135 371.563 518.809 370.587Z" fill="#1B3D79"/>
<path fill-rule="evenodd" clip-rule="evenodd" d="M510.649 364.953C511.323 363.977 513.068 364.013 514.047 364.689C515.025 365.365 515.264 366.698 514.59 367.674C513.916 368.65 512.156 369.52 511.177 368.844C510.198 368.168 509.975 365.928 510.649 364.953Z" fill="#1B3D79"/>
<path fill-rule="evenodd" clip-rule="evenodd" d="M502.498 359.324C503.172 358.348 504.917 358.384 505.887 359.054C506.866 359.73 507.113 361.069 506.439 362.045C505.765 363.021 503.996 363.885 503.018 363.209C502.047 362.539 501.824 360.3 502.498 359.324Z" fill="#1B3D79"/>
<path fill-rule="evenodd" clip-rule="evenodd" d="M494.347 353.695C495.021 352.719 496.758 352.749 497.736 353.425C498.715 354.101 498.962 355.44 498.288 356.416C497.614 357.392 495.845 358.257 494.867 357.581C493.888 356.905 493.674 354.671 494.347 353.695Z" fill="#1B3D79"/>
<path fill-rule="evenodd" clip-rule="evenodd" d="M486.188 348.06C486.862 347.084 488.607 347.12 489.585 347.796C490.556 348.466 490.802 349.806 490.129 350.781C489.455 351.757 487.686 352.622 486.716 351.952C485.737 351.276 485.514 349.036 486.188 348.06Z" fill="#1B3D79"/>
<path fill-rule="evenodd" clip-rule="evenodd" d="M478.037 342.431C478.711 341.455 480.447 341.486 481.426 342.162C482.405 342.838 482.652 344.177 481.978 345.152C481.304 346.128 479.535 346.993 478.556 346.317C477.578 345.641 477.363 343.407 478.037 342.431Z" fill="#1B3D79"/>
<path fill-rule="evenodd" clip-rule="evenodd" d="M469.878 336.797C470.552 335.821 472.296 335.857 473.275 336.533C474.254 337.209 474.492 338.542 473.818 339.518C473.144 340.494 471.384 341.364 470.406 340.688C469.427 340.012 469.204 337.773 469.878 336.797Z" fill="#1B3D79"/>
<path fill-rule="evenodd" clip-rule="evenodd" d="M461.727 331.168C462.401 330.192 464.146 330.228 465.116 330.898C466.095 331.574 466.341 332.913 465.667 333.889C464.994 334.865 463.225 335.73 462.246 335.054C461.276 334.384 461.053 332.144 461.727 331.168Z" fill="#1B3D79"/>
<path fill-rule="evenodd" clip-rule="evenodd" d="M453.576 325.539C454.25 324.563 455.986 324.593 456.965 325.269C457.944 325.945 458.191 327.284 457.517 328.26C456.843 329.236 455.074 330.101 454.095 329.425C453.117 328.749 452.902 326.515 453.576 325.539Z" fill="#1B3D79"/>
<path fill-rule="evenodd" clip-rule="evenodd" d="M445.417 319.904C446.091 318.928 447.835 318.965 448.814 319.64C449.785 320.311 450.031 321.65 449.357 322.625C448.683 323.601 446.915 324.466 445.944 323.796C444.966 323.12 444.743 320.88 445.417 319.904Z" fill="#1B3D79"/>
<path fill-rule="evenodd" clip-rule="evenodd" d="M437.266 314.275C437.94 313.3 439.676 313.33 440.655 314.006C441.634 314.682 441.88 316.021 441.206 316.997C440.532 317.973 438.764 318.837 437.785 318.161C436.806 317.485 436.592 315.251 437.266 314.275Z" fill="#1B3D79"/>
<path fill-rule="evenodd" clip-rule="evenodd" d="M429.107 308.641C429.781 307.665 431.525 307.701 432.504 308.377C433.483 309.053 433.729 310.392 433.055 311.368C432.382 312.344 430.613 313.208 429.634 312.532C428.655 311.856 428.433 309.617 429.107 308.641Z" fill="#1B3D79"/>
<path fill-rule="evenodd" clip-rule="evenodd" d="M420.956 303.012C421.63 302.036 423.374 302.072 424.345 302.742C425.323 303.418 425.57 304.757 424.896 305.733C424.222 306.709 422.454 307.574 421.475 306.898C420.505 306.228 420.282 303.988 420.956 303.012Z" fill="#1B3D79"/>
<path fill-rule="evenodd" clip-rule="evenodd" d="M412.805 297.383C413.479 296.407 415.215 296.437 416.194 297.113C417.173 297.789 417.419 299.128 416.745 300.104C416.071 301.08 414.303 301.945 413.324 301.269C412.345 300.593 412.131 298.359 412.805 297.383Z" fill="#1B3D79"/>
<path fill-rule="evenodd" clip-rule="evenodd" d="M396.495 286.12C397.168 285.144 398.913 285.18 399.883 285.85C400.862 286.526 401.109 287.865 400.435 288.841C399.761 289.817 397.993 290.681 397.014 290.005C396.043 289.335 395.821 287.095 396.495 286.12Z" fill="#1B3D79"/>
<path fill-rule="evenodd" clip-rule="evenodd" d="M388.335 280.485C389.009 279.509 390.754 279.545 391.733 280.221C392.711 280.897 392.958 282.236 392.284 283.212C391.61 284.188 389.842 285.052 388.863 284.376C387.884 283.701 387.661 281.461 388.335 280.485Z" fill="#1B3D79"/>
<path fill-rule="evenodd" clip-rule="evenodd" d="M380.184 274.856C380.858 273.88 382.603 273.916 383.582 274.592C384.552 275.262 384.799 276.601 384.125 277.577C383.451 278.553 381.682 279.418 380.712 278.748C379.733 278.072 379.51 275.832 380.184 274.856Z" fill="#1B3D79"/>
<path fill-rule="evenodd" clip-rule="evenodd" d="M372.034 269.227C372.707 268.251 374.444 268.282 375.422 268.958C376.401 269.634 376.648 270.973 375.974 271.948C375.3 272.924 373.532 273.789 372.553 273.113C371.574 272.437 371.36 270.203 372.034 269.227Z" fill="#1B3D79"/>
<path d="M153.135 219.638C207.237 320.477 204.443 450.46 130.037 537.352C56.0697 624.162 -90.3896 668.045 -171.167 622.107C-252.384 576.249 -268.359 440.651 -249.272 317.65C-230.544 195.17 -176.753 85.2879 -94.3187 66.4145C-11.9652 47.1019 99.0327 118.798 153.135 219.638Z" fill="#183975"/>
<path d="M141.55 227.132C192.445 321.994 189.817 444.271 119.821 526.012C50.2388 607.677 -87.5387 648.959 -163.528 605.743C-239.931 562.604 -254.958 435.044 -237.003 319.334C-219.385 204.115 -168.783 100.746 -91.2349 82.9913C-13.7631 64.8235 90.6552 132.27 141.55 227.132Z" fill="#1B3F7D"/>
<path d="M129.198 235.123C176.673 323.611 174.222 437.673 108.929 513.922C44.0214 590.1 -84.499 628.608 -155.382 588.296C-226.652 548.055 -240.67 429.066 -223.921 321.131C-207.486 213.653 -160.285 117.229 -87.9468 100.667C-15.6803 83.7202 81.7221 146.635 129.198 235.123Z" fill="#1F4486"/>
<path d="M116.748 243.177C160.777 325.241 158.503 431.022 97.95 501.736C37.7548 572.384 -81.4355 608.096 -147.173 570.711C-213.268 533.391 -226.269 423.04 -210.736 322.941C-195.494 223.265 -151.719 133.841 -84.633 118.482C-17.6128 102.765 72.7186 161.113 116.748 243.177Z" fill="#224A91"/>
<path d="M103.329 251.858C143.643 326.998 141.561 423.854 86.1173 488.601C31.001 553.288 -78.1327 585.987 -138.324 551.756C-198.842 517.585 -210.746 416.545 -196.524 324.891C-182.568 233.626 -142.486 151.747 -81.0605 137.684C-19.695 123.293 63.0148 176.717 103.329 251.858Z" fill="#28519A"/>
<path d="M90.1311 260.395C126.791 328.725 124.898 416.803 74.4795 475.682C24.3585 534.506 -74.8841 564.242 -129.62 533.113C-184.654 502.039 -195.478 410.156 -182.545 326.81C-169.854 243.816 -133.405 169.358 -77.5465 156.569C-21.7428 143.483 53.4708 192.065 90.1311 260.395Z" fill="#2C57A3"/>
<path d="M76.9931 268.895C110.016 330.445 108.311 409.785 62.8943 462.822C17.7459 515.81 -71.6508 542.596 -120.956 514.555C-170.53 486.565 -180.281 403.798 -168.63 328.72C-157.199 253.96 -124.366 186.889 -74.049 175.369C-23.7817 163.581 43.9699 207.344 76.9931 268.895Z" fill="#3260AF"/>
<path d="M1079.33 920.196C992.494 994.728 864.955 1019.97 764.089 966.001C663.396 912.445 589.027 778.859 616.51 690.089C643.818 600.907 772.802 556.13 897.029 548.304C1020.67 540.24 1139.55 569.127 1175.72 645.57C1212.3 721.839 1166.17 845.664 1079.33 920.196Z" fill="#183975"/>
<path d="M1069.52 910.495C987.831 980.609 867.852 1004.35 772.964 953.585C678.241 903.204 608.28 777.536 634.133 694.028C659.823 610.133 781.162 568.01 898.024 560.648C1014.34 553.062 1126.17 580.237 1160.2 652.148C1194.61 723.896 1151.21 840.381 1069.52 910.495Z" fill="#1B3F7D"/>
<path d="M1059.06 900.151C982.857 965.555 870.94 987.703 782.428 940.346C694.068 893.35 628.809 776.125 652.925 698.228C676.888 619.97 790.074 580.678 899.085 573.81C1007.58 566.734 1111.9 592.083 1143.64 659.163C1175.74 726.09 1135.26 834.748 1059.06 900.151Z" fill="#1F4486"/>
<path d="M1048.51 889.726C977.845 950.381 874.052 970.922 791.966 927.002C710.021 883.418 649.499 774.704 671.864 702.462C694.088 629.885 799.057 593.445 900.154 587.076C1000.77 580.513 1097.52 604.022 1126.96 666.232C1156.73 728.3 1119.18 829.071 1048.51 889.726Z" fill="#224A91"/>
<path d="M1037.15 878.489C972.443 934.027 877.408 952.834 802.247 912.62C727.216 872.714 671.801 773.172 692.279 707.025C712.628 640.572 808.74 607.206 901.307 601.375C993.438 595.366 1082.02 616.891 1108.97 673.852C1136.23 730.684 1101.85 822.952 1037.15 878.489Z" fill="#28519A"/>
<path d="M1025.97 867.438C967.13 917.942 880.708 935.044 812.36 898.475C744.129 862.185 693.736 771.666 712.358 711.514C730.863 651.083 818.264 620.742 902.442 615.439C986.222 609.975 1066.78 629.549 1091.29 681.348C1116.07 733.028 1084.81 816.934 1025.97 867.438Z" fill="#2C57A3"/>
<path d="M1014.84 856.436C961.841 901.93 883.993 917.336 822.425 884.395C760.964 851.705 715.571 770.166 732.345 715.982C749.014 661.547 827.744 634.215 903.57 629.438C979.039 624.516 1051.6 642.149 1073.68 688.808C1096.01 735.362 1067.85 810.943 1014.84 856.436Z" fill="#3260AF"/>
</g>
<defs>
<filter id="filter0_d" x="261.132" y="230.912" width="387.078" height="348.632" filterUnits="userSpaceOnUse" color-interpolation-filters="sRGB">
<feFlood flood-opacity="0" result="BackgroundImageFix"/>
<feColorMatrix in="SourceAlpha" type="matrix" values="0 0 0 0 0 0 0 0 0 0 0 0 0 0 0 0 0 0 127 0"/>
<feOffset dy="10"/>
<feGaussianBlur stdDeviation="4.5"/>
<feColorMatrix type="matrix" values="0 0 0 0 0.0237674 0 0 0 0 0.0706098 0 0 0 0 0.154167 0 0 0 0.14 0"/>
<feBlend mode="normal" in2="BackgroundImageFix" result="effect1_dropShadow"/>
<feBlend mode="normal" in="SourceGraphic" in2="effect1_dropShadow" result="shape"/>
</filter>
<clipPath id="clip0">
<rect width="828" height="1000" fill="white"/>
</clipPath>
</defs>
</svg>
