<svg width="1208" height="759" viewBox="0 0 1208 759" fill="none" xmlns="http://www.w3.org/2000/svg">
<g clip-path="url(#clip0)">
<rect width="1208" height="759" fill="white"/>
<rect width="1208" height="759" fill="#133166"/>
<path d="M293.135 211.638C347.237 312.477 344.443 442.46 270.037 529.352C196.07 616.162 49.6104 660.045 -31.1671 614.107C-112.384 568.249 -128.359 432.651 -109.272 309.65C-90.5435 187.17 -36.7534 77.2879 45.6813 58.4145C128.035 39.1019 239.033 110.798 293.135 211.638Z" fill="#183975"/>
<path d="M281.55 219.132C332.445 313.994 329.817 436.271 259.821 518.012C190.239 599.677 52.4613 640.959 -23.5279 597.743C-99.9306 554.604 -114.958 427.044 -97.0029 311.334C-79.3846 196.115 -28.783 92.7459 48.7651 74.9913C126.237 56.8235 230.655 124.27 281.55 219.132Z" fill="#1B3F7D"/>
<path d="M269.198 227.123C316.673 315.611 314.222 429.673 248.929 505.922C184.021 582.1 55.501 620.608 -15.3824 580.296C-86.6517 540.055 -100.67 421.066 -83.9207 313.131C-67.4862 205.653 -20.2845 109.229 52.0532 92.6673C124.32 75.7202 221.722 138.635 269.198 227.123Z" fill="#1F4486"/>
<path d="M256.748 235.177C300.777 317.241 298.503 423.022 237.95 493.736C177.755 564.384 58.5645 600.096 -7.17309 562.711C-73.2684 525.391 -86.2689 415.04 -70.7358 314.941C-55.4943 215.265 -11.7193 125.841 55.367 110.482C122.387 94.7653 212.719 153.113 256.748 235.177Z" fill="#224A91"/>
<path d="M243.329 243.858C283.643 318.998 281.561 415.854 226.117 480.601C171.001 545.288 61.8673 577.987 1.67617 543.756C-58.8425 509.585 -70.746 408.545 -56.5235 316.891C-42.568 225.626 -2.48645 143.747 58.9395 129.684C120.305 115.293 203.015 168.717 243.329 243.858Z" fill="#28519A"/>
<path d="M230.131 252.395C266.791 320.725 264.898 408.803 214.479 467.682C164.358 526.506 65.1159 556.242 10.3801 525.113C-44.6535 494.039 -55.4782 402.156 -42.5447 318.81C-29.8541 235.816 6.59478 161.358 62.4535 148.569C118.257 135.483 193.471 184.065 230.131 252.395Z" fill="#2C57A3"/>
<path d="M216.993 260.895C250.016 322.445 248.311 401.785 202.894 454.822C157.746 507.81 68.3492 534.596 19.0439 506.555C-30.5299 478.565 -40.2806 395.798 -28.6303 320.72C-17.1987 245.96 15.6341 178.889 65.951 167.369C116.218 155.581 183.97 199.344 216.993 260.895Z" fill="#3260AF"/>
<g filter="url(#filter0_d)">
<path d="M870.133 485.743C812.187 464.55 761.967 409.307 747.287 355.94C732.843 302.72 753.839 251.538 795.963 244.931C837.986 238.485 901.274 276.921 948.604 323.631C995.834 370.503 1027.34 425.796 1010.14 459.797C993.179 493.946 927.843 506.789 870.133 485.743Z" fill="#133167"/>
</g>
<path fill-rule="evenodd" clip-rule="evenodd" d="M942.052 489.394C942.726 488.418 944.467 488.452 945.445 489.127C946.422 489.801 946.667 491.14 945.994 492.116C945.32 493.092 943.552 493.957 942.575 493.282C941.598 492.607 941.378 490.37 942.052 489.394Z" fill="#1B3D79"/>
<path fill-rule="evenodd" clip-rule="evenodd" d="M933.898 483.763C934.571 482.787 936.313 482.821 937.29 483.495C938.267 484.17 938.513 485.509 937.839 486.485C937.165 487.46 935.397 488.326 934.42 487.651C933.443 486.976 933.224 484.739 933.898 483.763Z" fill="#1B3D79"/>
<path fill-rule="evenodd" clip-rule="evenodd" d="M925.744 478.132C926.418 477.156 928.159 477.19 929.136 477.865C930.113 478.54 930.359 479.878 929.685 480.854C929.011 481.83 927.244 482.695 926.267 482.02C925.29 481.346 925.07 479.108 925.744 478.132Z" fill="#1B3D79"/>
<path fill-rule="evenodd" clip-rule="evenodd" d="M917.59 472.501C918.264 471.525 920.005 471.559 920.982 472.234C921.959 472.908 922.205 474.247 921.531 475.223C920.857 476.199 919.09 477.064 918.112 476.389C917.135 475.714 916.916 473.477 917.59 472.501Z" fill="#1B3D79"/>
<path fill-rule="evenodd" clip-rule="evenodd" d="M909.436 466.87C910.11 465.894 911.851 465.928 912.828 466.602C913.805 467.277 914.051 468.616 913.377 469.592C912.703 470.567 910.935 471.433 909.958 470.758C908.981 470.083 908.762 467.846 909.436 466.87Z" fill="#1B3D79"/>
<path fill-rule="evenodd" clip-rule="evenodd" d="M901.283 461.24C901.957 460.264 903.693 460.294 904.674 460.971C905.651 461.646 905.897 462.985 905.223 463.96C904.549 464.936 902.781 465.802 901.804 465.127C900.823 464.45 900.609 462.216 901.283 461.24Z" fill="#1B3D79"/>
<path fill-rule="evenodd" clip-rule="evenodd" d="M893.124 455.605C893.798 454.629 895.542 454.665 896.521 455.341C897.5 456.017 897.738 457.35 897.064 458.326C896.39 459.302 894.63 460.173 893.651 459.497C892.673 458.821 892.45 456.581 893.124 455.605Z" fill="#1B3D79"/>
<path fill-rule="evenodd" clip-rule="evenodd" d="M884.973 449.976C885.647 449 887.391 449.036 888.37 449.712C889.34 450.383 889.587 451.722 888.913 452.697C888.239 453.673 886.471 454.538 885.5 453.868C884.522 453.192 884.299 450.952 884.973 449.976Z" fill="#1B3D79"/>
<path fill-rule="evenodd" clip-rule="evenodd" d="M876.822 444.347C877.496 443.372 879.232 443.402 880.211 444.078C881.19 444.754 881.436 446.093 880.762 447.069C880.088 448.045 878.32 448.909 877.341 448.233C876.362 447.557 876.148 445.323 876.822 444.347Z" fill="#1B3D79"/>
<path fill-rule="evenodd" clip-rule="evenodd" d="M868.663 438.713C869.337 437.737 871.081 437.773 872.06 438.449C873.039 439.125 873.277 440.458 872.603 441.434C871.929 442.41 870.169 443.28 869.19 442.604C868.211 441.928 867.989 439.689 868.663 438.713Z" fill="#1B3D79"/>
<path fill-rule="evenodd" clip-rule="evenodd" d="M860.512 433.084C861.186 432.108 862.93 432.144 863.901 432.814C864.879 433.49 865.126 434.829 864.452 435.805C863.778 436.781 862.01 437.646 861.031 436.97C860.061 436.3 859.838 434.06 860.512 433.084Z" fill="#1B3D79"/>
<path fill-rule="evenodd" clip-rule="evenodd" d="M852.361 427.455C853.035 426.479 854.771 426.51 855.75 427.185C856.729 427.861 856.975 429.2 856.301 430.176C855.627 431.152 853.859 432.017 852.88 431.341C851.901 430.665 851.687 428.431 852.361 427.455Z" fill="#1B3D79"/>
<path fill-rule="evenodd" clip-rule="evenodd" d="M844.201 421.82C844.875 420.844 846.62 420.881 847.599 421.557C848.569 422.227 848.816 423.566 848.142 424.542C847.468 425.517 845.699 426.382 844.729 425.712C843.75 425.036 843.528 422.796 844.201 421.82Z" fill="#1B3D79"/>
<path fill-rule="evenodd" clip-rule="evenodd" d="M836.051 416.192C836.724 415.216 838.461 415.246 839.439 415.922C840.418 416.598 840.665 417.937 839.991 418.913C839.317 419.889 837.549 420.753 836.57 420.077C835.591 419.401 835.377 417.167 836.051 416.192Z" fill="#1B3D79"/>
<path fill-rule="evenodd" clip-rule="evenodd" d="M827.891 410.557C828.565 409.581 830.31 409.617 831.289 410.293C832.267 410.969 832.506 412.302 831.832 413.278C831.158 414.254 829.398 415.124 828.419 414.449C827.44 413.773 827.217 411.533 827.891 410.557Z" fill="#1B3D79"/>
<path fill-rule="evenodd" clip-rule="evenodd" d="M819.74 404.928C820.414 403.952 822.159 403.988 823.129 404.658C824.108 405.334 824.355 406.673 823.681 407.649C823.007 408.625 821.238 409.49 820.26 408.814C819.289 408.144 819.066 405.904 819.74 404.928Z" fill="#1B3D79"/>
<path fill-rule="evenodd" clip-rule="evenodd" d="M811.589 399.299C812.263 398.323 814 398.354 814.978 399.03C815.957 399.705 816.204 401.045 815.53 402.02C814.856 402.996 813.087 403.861 812.109 403.185C811.13 402.509 810.916 400.275 811.589 399.299Z" fill="#1B3D79"/>
<path fill-rule="evenodd" clip-rule="evenodd" d="M803.43 393.664C804.104 392.689 805.849 392.725 806.827 393.401C807.798 394.071 808.045 395.41 807.371 396.386C806.697 397.362 804.928 398.226 803.958 397.556C802.979 396.88 802.756 394.64 803.43 393.664Z" fill="#1B3D79"/>
<path fill-rule="evenodd" clip-rule="evenodd" d="M778.969 376.772C779.643 375.796 781.388 375.832 782.358 376.502C783.337 377.178 783.583 378.517 782.909 379.493C782.236 380.469 780.467 381.334 779.488 380.658C778.518 379.988 778.295 377.748 778.969 376.772Z" fill="#1B3D79"/>
<path fill-rule="evenodd" clip-rule="evenodd" d="M770.818 371.143C771.492 370.167 773.228 370.198 774.207 370.874C775.186 371.55 775.432 372.889 774.759 373.864C774.085 374.84 772.316 375.705 771.337 375.029C770.359 374.353 770.144 372.119 770.818 371.143Z" fill="#1B3D79"/>
<path fill-rule="evenodd" clip-rule="evenodd" d="M762.659 365.509C763.333 364.533 765.077 364.569 766.056 365.245C767.035 365.921 767.273 367.254 766.599 368.23C765.925 369.206 764.165 370.076 763.186 369.4C762.208 368.724 761.985 366.484 762.659 365.509Z" fill="#1B3D79"/>
<path fill-rule="evenodd" clip-rule="evenodd" d="M754.508 359.88C755.182 358.904 756.926 358.94 757.897 359.61C758.876 360.286 759.122 361.625 758.448 362.601C757.774 363.577 756.006 364.441 755.027 363.766C754.057 363.095 753.834 360.856 754.508 359.88Z" fill="#1B3D79"/>
<path fill-rule="evenodd" clip-rule="evenodd" d="M746.349 354.245C747.023 353.269 748.767 353.305 749.746 353.981C750.725 354.657 750.971 355.996 750.297 356.972C749.624 357.948 747.855 358.813 746.876 358.137C745.897 357.461 745.675 355.221 746.349 354.245Z" fill="#1B3D79"/>
<path fill-rule="evenodd" clip-rule="evenodd" d="M738.198 348.616C738.872 347.64 740.616 347.676 741.595 348.352C742.565 349.022 742.812 350.362 742.138 351.337C741.464 352.313 739.696 353.178 738.725 352.508C737.747 351.832 737.524 349.592 738.198 348.616Z" fill="#1B3D79"/>
<path fill-rule="evenodd" clip-rule="evenodd" d="M730.047 342.987C730.721 342.012 732.457 342.042 733.436 342.718C734.415 343.394 734.661 344.733 733.987 345.709C733.313 346.685 731.545 347.549 730.566 346.873C729.587 346.197 729.373 343.963 730.047 342.987Z" fill="#1B3D79"/>
<path fill-rule="evenodd" clip-rule="evenodd" d="M947.218 481.915C947.892 480.939 949.633 480.972 950.61 481.647C951.588 482.322 951.833 483.66 951.159 484.636C950.486 485.612 948.718 486.477 947.741 485.803C946.764 485.128 946.544 482.89 947.218 481.915Z" fill="#1B3D79"/>
<path fill-rule="evenodd" clip-rule="evenodd" d="M939.063 476.283C939.737 475.307 941.478 475.341 942.455 476.015C943.432 476.69 943.678 478.029 943.004 479.005C942.33 479.98 940.563 480.846 939.586 480.171C938.609 479.496 938.389 477.259 939.063 476.283Z" fill="#1B3D79"/>
<path fill-rule="evenodd" clip-rule="evenodd" d="M930.91 470.652C931.584 469.676 933.325 469.71 934.302 470.385C935.279 471.06 935.525 472.398 934.851 473.374C934.177 474.35 932.409 475.215 931.432 474.54C930.455 473.866 930.236 471.628 930.91 470.652Z" fill="#1B3D79"/>
<path fill-rule="evenodd" clip-rule="evenodd" d="M922.755 465.021C923.429 464.045 925.171 464.079 926.148 464.754C927.125 465.428 927.371 466.767 926.697 467.743C926.023 468.719 924.255 469.584 923.278 468.909C922.301 468.234 922.081 465.997 922.755 465.021Z" fill="#1B3D79"/>
<path fill-rule="evenodd" clip-rule="evenodd" d="M914.601 459.39C915.275 458.414 917.016 458.448 917.993 459.122C918.971 459.797 919.216 461.136 918.542 462.112C917.869 463.087 916.101 463.953 915.124 463.278C914.147 462.603 913.927 460.366 914.601 459.39Z" fill="#1B3D79"/>
<path fill-rule="evenodd" clip-rule="evenodd" d="M906.449 453.76C907.122 452.784 908.859 452.814 909.839 453.491C910.816 454.166 911.062 455.505 910.388 456.48C909.714 457.456 907.947 458.322 906.969 457.647C905.989 456.97 905.775 454.736 906.449 453.76Z" fill="#1B3D79"/>
<path fill-rule="evenodd" clip-rule="evenodd" d="M898.289 448.125C898.963 447.149 900.708 447.185 901.687 447.861C902.665 448.537 902.904 449.87 902.23 450.846C901.556 451.822 899.796 452.693 898.817 452.017C897.838 451.341 897.615 449.101 898.289 448.125Z" fill="#1B3D79"/>
<path fill-rule="evenodd" clip-rule="evenodd" d="M890.138 442.496C890.812 441.52 892.557 441.557 893.536 442.232C894.506 442.903 894.753 444.242 894.079 445.217C893.405 446.193 891.636 447.058 890.666 446.388C889.687 445.712 889.464 443.472 890.138 442.496Z" fill="#1B3D79"/>
<path fill-rule="evenodd" clip-rule="evenodd" d="M881.987 436.867C882.661 435.892 884.398 435.922 885.376 436.598C886.355 437.274 886.602 438.613 885.928 439.589C885.254 440.564 883.485 441.429 882.507 440.753C881.528 440.077 881.314 437.843 881.987 436.867Z" fill="#1B3D79"/>
<path fill-rule="evenodd" clip-rule="evenodd" d="M873.828 431.233C874.502 430.257 876.247 430.293 877.225 430.969C878.204 431.645 878.442 432.978 877.769 433.954C877.095 434.93 875.335 435.8 874.356 435.124C873.377 434.448 873.154 432.209 873.828 431.233Z" fill="#1B3D79"/>
<path fill-rule="evenodd" clip-rule="evenodd" d="M865.677 425.604C866.351 424.628 868.096 424.664 869.066 425.334C870.045 426.01 870.292 427.349 869.618 428.325C868.944 429.301 867.175 430.166 866.196 429.49C865.226 428.82 865.003 426.58 865.677 425.604Z" fill="#1B3D79"/>
<path fill-rule="evenodd" clip-rule="evenodd" d="M857.526 419.975C858.2 418.999 859.936 419.029 860.915 419.705C861.894 420.381 862.141 421.72 861.467 422.696C860.793 423.672 859.024 424.537 858.046 423.861C857.067 423.185 856.852 420.951 857.526 419.975Z" fill="#1B3D79"/>
<path fill-rule="evenodd" clip-rule="evenodd" d="M849.367 414.34C850.041 413.364 851.786 413.401 852.764 414.077C853.735 414.747 853.981 416.086 853.307 417.062C852.634 418.037 850.865 418.902 849.895 418.232C848.916 417.556 848.693 415.316 849.367 414.34Z" fill="#1B3D79"/>
<path fill-rule="evenodd" clip-rule="evenodd" d="M841.216 408.711C841.89 407.736 843.626 407.766 844.605 408.442C845.584 409.118 845.83 410.457 845.157 411.433C844.483 412.409 842.714 413.273 841.735 412.597C840.757 411.921 840.542 409.687 841.216 408.711Z" fill="#1B3D79"/>
<path fill-rule="evenodd" clip-rule="evenodd" d="M833.057 403.077C833.731 402.101 835.475 402.137 836.454 402.813C837.433 403.489 837.671 404.822 836.997 405.798C836.323 406.774 834.563 407.644 833.584 406.968C832.606 406.293 832.383 404.053 833.057 403.077Z" fill="#1B3D79"/>
<path fill-rule="evenodd" clip-rule="evenodd" d="M824.906 397.448C825.58 396.472 827.324 396.508 828.295 397.178C829.274 397.854 829.52 399.193 828.846 400.169C828.172 401.145 826.404 402.01 825.425 401.334C824.455 400.664 824.232 398.424 824.906 397.448Z" fill="#1B3D79"/>
<path fill-rule="evenodd" clip-rule="evenodd" d="M808.596 386.184C809.27 385.209 811.014 385.245 811.993 385.921C812.963 386.591 813.21 387.93 812.536 388.906C811.862 389.882 810.094 390.746 809.123 390.076C808.145 389.4 807.922 387.16 808.596 386.184Z" fill="#1B3D79"/>
<path fill-rule="evenodd" clip-rule="evenodd" d="M800.445 380.556C801.119 379.58 802.855 379.61 803.834 380.286C804.813 380.962 805.059 382.301 804.385 383.277C803.711 384.253 801.943 385.117 800.964 384.441C799.985 383.766 799.771 381.531 800.445 380.556Z" fill="#1B3D79"/>
<path fill-rule="evenodd" clip-rule="evenodd" d="M792.286 374.921C792.959 373.945 794.704 373.981 795.683 374.657C796.662 375.333 796.908 376.672 796.234 377.648C795.56 378.624 793.792 379.489 792.813 378.813C791.834 378.137 791.612 375.897 792.286 374.921Z" fill="#1B3D79"/>
<path fill-rule="evenodd" clip-rule="evenodd" d="M784.135 369.292C784.809 368.316 786.553 368.352 787.524 369.022C788.502 369.698 788.749 371.037 788.075 372.013C787.401 372.989 785.633 373.854 784.654 373.178C783.684 372.508 783.461 370.268 784.135 369.292Z" fill="#1B3D79"/>
<path fill-rule="evenodd" clip-rule="evenodd" d="M775.984 363.663C776.658 362.687 778.394 362.718 779.373 363.394C780.351 364.07 780.598 365.409 779.924 366.384C779.25 367.36 777.482 368.225 776.503 367.549C775.524 366.873 775.31 364.639 775.984 363.663Z" fill="#1B3D79"/>
<path fill-rule="evenodd" clip-rule="evenodd" d="M767.824 358.029C768.498 357.053 770.243 357.089 771.222 357.765C772.2 358.441 772.439 359.774 771.765 360.75C771.091 361.726 769.331 362.596 768.352 361.92C767.373 361.244 767.15 359.004 767.824 358.029Z" fill="#1B3D79"/>
<path fill-rule="evenodd" clip-rule="evenodd" d="M759.674 352.4C760.347 351.424 762.092 351.46 763.062 352.13C764.041 352.806 764.288 354.145 763.614 355.121C762.94 356.097 761.172 356.961 760.193 356.286C759.222 355.615 759 353.376 759.674 352.4Z" fill="#1B3D79"/>
<path fill-rule="evenodd" clip-rule="evenodd" d="M751.514 346.765C752.188 345.789 753.933 345.825 754.912 346.501C755.89 347.177 756.137 348.516 755.463 349.492C754.789 350.468 753.021 351.333 752.042 350.657C751.063 349.981 750.84 347.741 751.514 346.765Z" fill="#1B3D79"/>
<path fill-rule="evenodd" clip-rule="evenodd" d="M743.363 341.136C744.037 340.16 745.782 340.196 746.761 340.872C747.731 341.542 747.978 342.882 747.304 343.857C746.63 344.833 744.861 345.698 743.891 345.028C742.912 344.352 742.689 342.112 743.363 341.136Z" fill="#1B3D79"/>
<path fill-rule="evenodd" clip-rule="evenodd" d="M735.213 335.507C735.886 334.532 737.623 334.562 738.601 335.238C739.58 335.914 739.827 337.253 739.153 338.229C738.479 339.205 736.71 340.069 735.732 339.393C734.753 338.717 734.539 336.483 735.213 335.507Z" fill="#1B3D79"/>
<path fill-rule="evenodd" clip-rule="evenodd" d="M952.384 474.434C953.058 473.459 954.799 473.492 955.776 474.167C956.753 474.842 956.999 476.18 956.325 477.156C955.651 478.132 953.883 478.997 952.906 478.323C951.929 477.648 951.71 475.41 952.384 474.434Z" fill="#1B3D79"/>
<path fill-rule="evenodd" clip-rule="evenodd" d="M944.229 468.803C944.903 467.827 946.644 467.861 947.621 468.535C948.598 469.21 948.844 470.549 948.17 471.525C947.496 472.5 945.728 473.366 944.751 472.691C943.774 472.016 943.555 469.779 944.229 468.803Z" fill="#1B3D79"/>
<path fill-rule="evenodd" clip-rule="evenodd" d="M936.075 463.172C936.749 462.196 938.49 462.23 939.467 462.905C940.445 463.58 940.69 464.918 940.016 465.894C939.343 466.87 937.575 467.735 936.598 467.06C935.621 466.386 935.401 464.148 936.075 463.172Z" fill="#1B3D79"/>
<path fill-rule="evenodd" clip-rule="evenodd" d="M927.921 457.541C928.595 456.565 930.336 456.599 931.313 457.274C932.29 457.948 932.536 459.287 931.862 460.263C931.188 461.239 929.421 462.104 928.444 461.429C927.466 460.754 927.247 458.517 927.921 457.541Z" fill="#1B3D79"/>
<path fill-rule="evenodd" clip-rule="evenodd" d="M919.767 451.91C920.441 450.934 922.182 450.968 923.159 451.642C924.136 452.317 924.382 453.656 923.708 454.632C923.034 455.607 921.266 456.473 920.289 455.798C919.312 455.123 919.093 452.886 919.767 451.91Z" fill="#1B3D79"/>
<path fill-rule="evenodd" clip-rule="evenodd" d="M911.614 446.28C912.288 445.304 914.024 445.334 915.005 446.011C915.982 446.686 916.228 448.024 915.554 449C914.88 449.976 913.112 450.841 912.135 450.167C911.155 449.49 910.94 447.256 911.614 446.28Z" fill="#1B3D79"/>
<path fill-rule="evenodd" clip-rule="evenodd" d="M903.455 440.645C904.129 439.669 905.873 439.705 906.852 440.381C907.831 441.057 908.069 442.39 907.395 443.366C906.721 444.342 904.961 445.213 903.982 444.537C903.004 443.861 902.781 441.621 903.455 440.645Z" fill="#1B3D79"/>
<path fill-rule="evenodd" clip-rule="evenodd" d="M895.304 435.016C895.978 434.04 897.723 434.077 898.701 434.752C899.672 435.423 899.918 436.762 899.244 437.737C898.57 438.713 896.802 439.578 895.832 438.908C894.853 438.232 894.63 435.992 895.304 435.016Z" fill="#1B3D79"/>
<path fill-rule="evenodd" clip-rule="evenodd" d="M887.153 429.387C887.827 428.412 889.563 428.442 890.542 429.118C891.521 429.794 891.767 431.133 891.093 432.109C890.42 433.084 888.651 433.949 887.672 433.273C886.693 432.597 886.479 430.363 887.153 429.387Z" fill="#1B3D79"/>
<path fill-rule="evenodd" clip-rule="evenodd" d="M878.994 423.753C879.668 422.777 881.412 422.813 882.391 423.489C883.37 424.165 883.608 425.498 882.934 426.474C882.26 427.45 880.5 428.32 879.521 427.644C878.543 426.968 878.32 424.729 878.994 423.753Z" fill="#1B3D79"/>
<path fill-rule="evenodd" clip-rule="evenodd" d="M870.843 418.124C871.517 417.148 873.261 417.184 874.232 417.854C875.21 418.53 875.457 419.869 874.783 420.845C874.109 421.821 872.341 422.686 871.362 422.01C870.392 421.34 870.169 419.1 870.843 418.124Z" fill="#1B3D79"/>
<path fill-rule="evenodd" clip-rule="evenodd" d="M862.692 412.495C863.366 411.519 865.102 411.549 866.081 412.225C867.06 412.901 867.306 414.24 866.632 415.216C865.958 416.192 864.19 417.057 863.211 416.381C862.232 415.705 862.018 413.471 862.692 412.495Z" fill="#1B3D79"/>
<path fill-rule="evenodd" clip-rule="evenodd" d="M854.533 406.86C855.207 405.884 856.951 405.921 857.93 406.597C858.9 407.267 859.147 408.606 858.473 409.582C857.799 410.557 856.031 411.422 855.06 410.752C854.081 410.076 853.859 407.836 854.533 406.86Z" fill="#1B3D79"/>
<path fill-rule="evenodd" clip-rule="evenodd" d="M846.382 401.231C847.056 400.256 848.792 400.286 849.771 400.962C850.749 401.638 850.996 402.977 850.322 403.953C849.648 404.929 847.88 405.793 846.901 405.117C845.922 404.441 845.708 402.207 846.382 401.231Z" fill="#1B3D79"/>
<path fill-rule="evenodd" clip-rule="evenodd" d="M838.222 395.597C838.896 394.621 840.641 394.657 841.62 395.333C842.598 396.009 842.837 397.342 842.163 398.318C841.489 399.294 839.729 400.164 838.75 399.488C837.771 398.812 837.548 396.573 838.222 395.597Z" fill="#1B3D79"/>
<path fill-rule="evenodd" clip-rule="evenodd" d="M821.921 384.339C822.594 383.363 824.331 383.394 825.309 384.069C826.288 384.745 826.535 386.084 825.861 387.06C825.187 388.036 823.419 388.901 822.44 388.225C821.461 387.549 821.247 385.315 821.921 384.339Z" fill="#1B3D79"/>
<path fill-rule="evenodd" clip-rule="evenodd" d="M813.761 378.704C814.435 377.729 816.18 377.765 817.159 378.441C818.129 379.111 818.376 380.45 817.702 381.426C817.028 382.402 815.259 383.266 814.289 382.596C813.31 381.92 813.087 379.68 813.761 378.704Z" fill="#1B3D79"/>
<path fill-rule="evenodd" clip-rule="evenodd" d="M805.61 373.076C806.284 372.1 808.02 372.13 808.999 372.806C809.978 373.482 810.225 374.821 809.551 375.797C808.877 376.773 807.108 377.637 806.13 376.961C805.151 376.285 804.936 374.051 805.61 373.076Z" fill="#1B3D79"/>
<path fill-rule="evenodd" clip-rule="evenodd" d="M797.451 367.441C798.125 366.465 799.87 366.501 800.848 367.177C801.827 367.853 802.074 369.192 801.4 370.168C800.726 371.144 798.957 372.008 797.979 371.333C797 370.657 796.777 368.417 797.451 367.441Z" fill="#1B3D79"/>
<path fill-rule="evenodd" clip-rule="evenodd" d="M789.3 361.812C789.974 360.836 791.719 360.872 792.689 361.542C793.668 362.218 793.915 363.557 793.241 364.533C792.567 365.509 790.798 366.374 789.819 365.698C788.849 365.028 788.626 362.788 789.3 361.812Z" fill="#1B3D79"/>
<path fill-rule="evenodd" clip-rule="evenodd" d="M772.99 350.549C773.664 349.573 775.408 349.609 776.387 350.285C777.366 350.961 777.604 352.294 776.93 353.27C776.256 354.246 774.496 355.116 773.518 354.44C772.539 353.764 772.316 351.524 772.99 350.549Z" fill="#1B3D79"/>
<path fill-rule="evenodd" clip-rule="evenodd" d="M764.839 344.92C765.513 343.944 767.258 343.98 768.228 344.65C769.207 345.326 769.453 346.665 768.779 347.641C768.106 348.617 766.337 349.481 765.358 348.805C764.388 348.135 764.165 345.896 764.839 344.92Z" fill="#1B3D79"/>
<path fill-rule="evenodd" clip-rule="evenodd" d="M756.68 339.285C757.354 338.309 759.098 338.345 760.077 339.021C761.056 339.697 761.302 341.036 760.629 342.012C759.955 342.988 758.186 343.853 757.207 343.177C756.229 342.501 756.006 340.261 756.68 339.285Z" fill="#1B3D79"/>
<path fill-rule="evenodd" clip-rule="evenodd" d="M748.529 333.656C749.203 332.68 750.947 332.716 751.926 333.392C752.897 334.062 753.143 335.401 752.469 336.377C751.795 337.353 750.027 338.218 749.056 337.548C748.078 336.872 747.855 334.632 748.529 333.656Z" fill="#1B3D79"/>
<path fill-rule="evenodd" clip-rule="evenodd" d="M740.378 328.027C741.052 327.052 742.788 327.082 743.767 327.758C744.746 328.434 744.992 329.773 744.318 330.749C743.645 331.724 741.876 332.589 740.897 331.913C739.918 331.237 739.704 329.003 740.378 328.027Z" fill="#1B3D79"/>
<path fill-rule="evenodd" clip-rule="evenodd" d="M957.549 466.954C958.223 465.979 959.964 466.012 960.942 466.687C961.919 467.362 962.164 468.7 961.491 469.676C960.817 470.652 959.049 471.517 958.072 470.843C957.095 470.168 956.875 467.93 957.549 466.954Z" fill="#1B3D79"/>
<path fill-rule="evenodd" clip-rule="evenodd" d="M949.394 461.323C950.068 460.347 951.809 460.381 952.786 461.055C953.764 461.73 954.009 463.069 953.335 464.044C952.662 465.02 950.894 465.886 949.917 465.211C948.94 464.536 948.72 462.299 949.394 461.323Z" fill="#1B3D79"/>
<path fill-rule="evenodd" clip-rule="evenodd" d="M941.241 455.692C941.915 454.716 943.656 454.75 944.633 455.425C945.61 456.1 945.856 457.438 945.182 458.414C944.508 459.39 942.74 460.255 941.763 459.58C940.786 458.906 940.567 456.668 941.241 455.692Z" fill="#1B3D79"/>
<path fill-rule="evenodd" clip-rule="evenodd" d="M933.087 450.061C933.76 449.085 935.502 449.119 936.479 449.794C937.456 450.468 937.702 451.807 937.028 452.783C936.354 453.759 934.586 454.624 933.609 453.949C932.632 453.274 932.413 451.037 933.087 450.061Z" fill="#1B3D79"/>
<path fill-rule="evenodd" clip-rule="evenodd" d="M924.932 444.43C925.606 443.454 927.347 443.488 928.324 444.162C929.302 444.837 929.547 446.176 928.873 447.152C928.2 448.127 926.432 448.993 925.455 448.318C924.478 447.643 924.258 445.406 924.932 444.43Z" fill="#1B3D79"/>
<path fill-rule="evenodd" clip-rule="evenodd" d="M916.78 438.8C917.454 437.824 919.19 437.854 920.17 438.531C921.147 439.206 921.393 440.544 920.719 441.52C920.045 442.496 918.278 443.361 917.301 442.687C916.32 442.01 916.106 439.776 916.78 438.8Z" fill="#1B3D79"/>
<path fill-rule="evenodd" clip-rule="evenodd" d="M908.62 433.165C909.294 432.189 911.039 432.225 912.018 432.901C912.996 433.577 913.235 434.91 912.561 435.886C911.887 436.862 910.127 437.733 909.148 437.057C908.169 436.381 907.946 434.141 908.62 433.165Z" fill="#1B3D79"/>
<path fill-rule="evenodd" clip-rule="evenodd" d="M900.469 427.536C901.143 426.56 902.888 426.597 903.867 427.272C904.837 427.943 905.084 429.282 904.41 430.257C903.736 431.233 901.967 432.098 900.997 431.428C900.018 430.752 899.796 428.512 900.469 427.536Z" fill="#1B3D79"/>
<path fill-rule="evenodd" clip-rule="evenodd" d="M892.319 421.907C892.992 420.931 894.729 420.962 895.707 421.638C896.686 422.314 896.933 423.653 896.259 424.629C895.585 425.604 893.817 426.469 892.838 425.793C891.859 425.117 891.645 422.883 892.319 421.907Z" fill="#1B3D79"/>
<path fill-rule="evenodd" clip-rule="evenodd" d="M884.159 416.273C884.833 415.297 886.578 415.333 887.557 416.009C888.535 416.685 888.774 418.018 888.1 418.994C887.426 419.97 885.666 420.84 884.687 420.164C883.708 419.488 883.485 417.249 884.159 416.273Z" fill="#1B3D79"/>
<path fill-rule="evenodd" clip-rule="evenodd" d="M876.008 410.644C876.682 409.668 878.427 409.704 879.397 410.374C880.376 411.05 880.623 412.389 879.949 413.365C879.275 414.341 877.506 415.206 876.528 414.53C875.557 413.86 875.334 411.62 876.008 410.644Z" fill="#1B3D79"/>
<path fill-rule="evenodd" clip-rule="evenodd" d="M867.857 405.015C868.531 404.039 870.268 404.069 871.246 404.745C872.225 405.421 872.472 406.76 871.798 407.736C871.124 408.712 869.355 409.577 868.377 408.901C867.398 408.225 867.184 405.991 867.857 405.015Z" fill="#1B3D79"/>
<path fill-rule="evenodd" clip-rule="evenodd" d="M859.698 399.38C860.372 398.404 862.117 398.441 863.095 399.117C864.066 399.787 864.312 401.126 863.639 402.102C862.965 403.077 861.196 403.942 860.226 403.272C859.247 402.596 859.024 400.356 859.698 399.38Z" fill="#1B3D79"/>
<path fill-rule="evenodd" clip-rule="evenodd" d="M851.547 393.751C852.221 392.776 853.957 392.806 854.936 393.482C855.915 394.158 856.162 395.497 855.488 396.473C854.814 397.449 853.045 398.313 852.066 397.637C851.088 396.961 850.873 394.727 851.547 393.751Z" fill="#1B3D79"/>
<path fill-rule="evenodd" clip-rule="evenodd" d="M843.388 388.117C844.062 387.141 845.806 387.177 846.785 387.853C847.764 388.529 848.002 389.862 847.328 390.838C846.654 391.814 844.894 392.684 843.916 392.008C842.937 391.333 842.714 389.093 843.388 388.117Z" fill="#1B3D79"/>
<path fill-rule="evenodd" clip-rule="evenodd" d="M835.237 382.488C835.911 381.512 837.656 381.548 838.626 382.218C839.605 382.894 839.851 384.233 839.177 385.209C838.504 386.185 836.735 387.05 835.756 386.374C834.786 385.704 834.563 383.464 835.237 382.488Z" fill="#1B3D79"/>
<path fill-rule="evenodd" clip-rule="evenodd" d="M827.086 376.859C827.76 375.883 829.496 375.914 830.475 376.589C831.454 377.265 831.701 378.604 831.027 379.58C830.353 380.556 828.584 381.421 827.605 380.745C826.627 380.069 826.412 377.835 827.086 376.859Z" fill="#1B3D79"/>
<path fill-rule="evenodd" clip-rule="evenodd" d="M818.927 371.224C819.601 370.249 821.345 370.285 822.324 370.961C823.295 371.631 823.541 372.97 822.867 373.946C822.193 374.921 820.425 375.786 819.454 375.116C818.476 374.44 818.253 372.2 818.927 371.224Z" fill="#1B3D79"/>
<path fill-rule="evenodd" clip-rule="evenodd" d="M810.776 365.596C811.45 364.62 813.186 364.65 814.165 365.326C815.144 366.002 815.39 367.341 814.716 368.317C814.042 369.293 812.274 370.157 811.295 369.481C810.316 368.805 810.102 366.571 810.776 365.596Z" fill="#1B3D79"/>
<path fill-rule="evenodd" clip-rule="evenodd" d="M802.617 359.961C803.291 358.985 805.035 359.021 806.014 359.697C806.993 360.373 807.239 361.712 806.565 362.688C805.892 363.664 804.123 364.528 803.144 363.853C802.165 363.177 801.943 360.937 802.617 359.961Z" fill="#1B3D79"/>
<path fill-rule="evenodd" clip-rule="evenodd" d="M794.466 354.332C795.14 353.356 796.884 353.392 797.855 354.062C798.833 354.738 799.08 356.077 798.406 357.053C797.732 358.029 795.964 358.894 794.985 358.218C794.015 357.548 793.792 355.308 794.466 354.332Z" fill="#1B3D79"/>
<path fill-rule="evenodd" clip-rule="evenodd" d="M786.315 348.703C786.989 347.727 788.725 347.758 789.704 348.434C790.682 349.109 790.929 350.449 790.255 351.424C789.581 352.4 787.813 353.265 786.834 352.589C785.855 351.913 785.641 349.679 786.315 348.703Z" fill="#1B3D79"/>
<path fill-rule="evenodd" clip-rule="evenodd" d="M778.156 343.069C778.829 342.093 780.574 342.129 781.553 342.805C782.532 343.481 782.77 344.814 782.096 345.79C781.422 346.766 779.662 347.636 778.683 346.96C777.704 346.284 777.482 344.044 778.156 343.069Z" fill="#1B3D79"/>
<path fill-rule="evenodd" clip-rule="evenodd" d="M770.005 337.44C770.678 336.464 772.423 336.5 773.393 337.17C774.372 337.846 774.619 339.185 773.945 340.161C773.271 341.137 771.503 342.001 770.524 341.325C769.553 340.655 769.331 338.416 770.005 337.44Z" fill="#1B3D79"/>
<path fill-rule="evenodd" clip-rule="evenodd" d="M761.845 331.805C762.519 330.829 764.264 330.865 765.243 331.541C766.221 332.217 766.468 333.556 765.794 334.532C765.12 335.508 763.352 336.373 762.373 335.697C761.394 335.021 761.171 332.781 761.845 331.805Z" fill="#1B3D79"/>
<path fill-rule="evenodd" clip-rule="evenodd" d="M753.694 326.176C754.368 325.2 756.113 325.236 757.092 325.912C758.062 326.582 758.309 327.922 757.635 328.897C756.961 329.873 755.192 330.738 754.222 330.068C753.243 329.392 753.021 327.152 753.694 326.176Z" fill="#1B3D79"/>
<path fill-rule="evenodd" clip-rule="evenodd" d="M745.544 320.547C746.217 319.571 747.954 319.602 748.932 320.278C749.911 320.954 750.158 322.293 749.484 323.269C748.81 324.244 747.042 325.109 746.063 324.433C745.084 323.757 744.87 321.523 745.544 320.547Z" fill="#1B3D79"/>
<path fill-rule="evenodd" clip-rule="evenodd" d="M962.715 459.474C963.389 458.499 965.13 458.532 966.107 459.207C967.084 459.882 967.33 461.22 966.656 462.196C965.982 463.172 964.215 464.037 963.237 463.363C962.26 462.688 962.041 460.45 962.715 459.474Z" fill="#1B3D79"/>
<path fill-rule="evenodd" clip-rule="evenodd" d="M954.56 453.843C955.234 452.867 956.975 452.901 957.952 453.575C958.929 454.25 959.175 455.589 958.501 456.564C957.827 457.54 956.059 458.406 955.082 457.731C954.105 457.056 953.886 454.819 954.56 453.843Z" fill="#1B3D79"/>
<path fill-rule="evenodd" clip-rule="evenodd" d="M946.406 448.212C947.08 447.236 948.821 447.27 949.799 447.945C950.776 448.62 951.021 449.958 950.348 450.934C949.674 451.91 947.906 452.775 946.929 452.1C945.952 451.425 945.732 449.188 946.406 448.212Z" fill="#1B3D79"/>
<path fill-rule="evenodd" clip-rule="evenodd" d="M938.252 442.581C938.926 441.605 940.667 441.639 941.644 442.314C942.621 442.988 942.867 444.327 942.193 445.303C941.519 446.279 939.752 447.144 938.775 446.469C937.798 445.794 937.578 443.557 938.252 442.581Z" fill="#1B3D79"/>
<path fill-rule="evenodd" clip-rule="evenodd" d="M930.098 436.95C930.772 435.974 932.513 436.008 933.49 436.682C934.467 437.357 934.713 438.696 934.039 439.672C933.365 440.647 931.597 441.513 930.62 440.838C929.643 440.163 929.424 437.926 930.098 436.95Z" fill="#1B3D79"/>
<path fill-rule="evenodd" clip-rule="evenodd" d="M921.945 431.32C922.619 430.344 924.355 430.374 925.336 431.051C926.313 431.726 926.559 433.064 925.885 434.04C925.211 435.016 923.443 435.881 922.466 435.207C921.486 434.53 921.271 432.296 921.945 431.32Z" fill="#1B3D79"/>
<path fill-rule="evenodd" clip-rule="evenodd" d="M913.786 425.685C914.46 424.709 916.204 424.745 917.183 425.421C918.162 426.097 918.4 427.43 917.726 428.406C917.052 429.382 915.292 430.253 914.314 429.577C913.335 428.901 913.112 426.661 913.786 425.685Z" fill="#1B3D79"/>
<path fill-rule="evenodd" clip-rule="evenodd" d="M905.635 420.056C906.309 419.08 908.054 419.116 909.032 419.792C910.003 420.462 910.249 421.802 909.575 422.777C908.902 423.753 907.133 424.618 906.163 423.948C905.184 423.272 904.961 421.032 905.635 420.056Z" fill="#1B3D79"/>
<path fill-rule="evenodd" clip-rule="evenodd" d="M897.484 414.427C898.158 413.451 899.894 413.482 900.873 414.158C901.852 414.834 902.098 416.173 901.425 417.149C900.751 418.124 898.982 418.989 898.003 418.313C897.025 417.637 896.81 415.403 897.484 414.427Z" fill="#1B3D79"/>
<path fill-rule="evenodd" clip-rule="evenodd" d="M889.325 408.793C889.999 407.817 891.743 407.853 892.722 408.529C893.701 409.205 893.939 410.538 893.265 411.514C892.591 412.49 890.831 413.36 889.852 412.684C888.874 412.008 888.651 409.769 889.325 408.793Z" fill="#1B3D79"/>
<path fill-rule="evenodd" clip-rule="evenodd" d="M881.174 403.164C881.848 402.188 883.592 402.224 884.563 402.894C885.542 403.57 885.788 404.909 885.114 405.885C884.44 406.861 882.672 407.726 881.693 407.05C880.723 406.38 880.5 404.14 881.174 403.164Z" fill="#1B3D79"/>
<path fill-rule="evenodd" clip-rule="evenodd" d="M873.023 397.535C873.697 396.559 875.433 396.589 876.412 397.265C877.391 397.941 877.637 399.28 876.963 400.256C876.29 401.232 874.521 402.097 873.542 401.421C872.563 400.745 872.349 398.511 873.023 397.535Z" fill="#1B3D79"/>
<path fill-rule="evenodd" clip-rule="evenodd" d="M864.864 391.9C865.538 390.924 867.282 390.961 868.261 391.636C869.231 392.307 869.478 393.646 868.804 394.621C868.13 395.597 866.362 396.462 865.391 395.792C864.413 395.116 864.19 392.876 864.864 391.9Z" fill="#1B3D79"/>
<path fill-rule="evenodd" clip-rule="evenodd" d="M856.713 386.271C857.387 385.296 859.123 385.326 860.102 386.002C861.08 386.678 861.327 388.017 860.653 388.993C859.979 389.969 858.211 390.833 857.232 390.157C856.253 389.481 856.039 387.247 856.713 386.271Z" fill="#1B3D79"/>
<path fill-rule="evenodd" clip-rule="evenodd" d="M848.553 380.637C849.227 379.661 850.972 379.697 851.951 380.373C852.93 381.049 853.168 382.382 852.494 383.358C851.82 384.334 850.06 385.204 849.081 384.528C848.102 383.852 847.88 381.613 848.553 380.637Z" fill="#1B3D79"/>
<path fill-rule="evenodd" clip-rule="evenodd" d="M840.403 375.008C841.077 374.032 842.821 374.068 843.791 374.738C844.77 375.414 845.017 376.753 844.343 377.729C843.669 378.705 841.901 379.57 840.922 378.894C839.951 378.224 839.729 375.984 840.403 375.008Z" fill="#1B3D79"/>
<path fill-rule="evenodd" clip-rule="evenodd" d="M832.252 369.379C832.926 368.403 834.662 368.433 835.641 369.109C836.619 369.785 836.866 371.124 836.192 372.1C835.518 373.076 833.75 373.941 832.771 373.265C831.792 372.589 831.578 370.355 832.252 369.379Z" fill="#1B3D79"/>
<path fill-rule="evenodd" clip-rule="evenodd" d="M824.092 363.744C824.766 362.769 826.511 362.805 827.49 363.481C828.46 364.151 828.707 365.49 828.033 366.466C827.359 367.441 825.59 368.306 824.62 367.636C823.641 366.96 823.418 364.72 824.092 363.744Z" fill="#1B3D79"/>
<path fill-rule="evenodd" clip-rule="evenodd" d="M815.941 358.116C816.615 357.14 818.352 357.17 819.33 357.846C820.309 358.522 820.556 359.861 819.882 360.837C819.208 361.813 817.439 362.677 816.461 362.001C815.482 361.325 815.268 359.091 815.941 358.116Z" fill="#1B3D79"/>
<path fill-rule="evenodd" clip-rule="evenodd" d="M807.782 352.481C808.456 351.505 810.201 351.541 811.179 352.217C812.158 352.893 812.405 354.232 811.731 355.208C811.057 356.184 809.289 357.048 808.31 356.372C807.331 355.697 807.108 353.457 807.782 352.481Z" fill="#1B3D79"/>
<path fill-rule="evenodd" clip-rule="evenodd" d="M799.631 346.852C800.305 345.876 802.05 345.912 803.02 346.582C803.999 347.258 804.246 348.597 803.572 349.573C802.898 350.549 801.129 351.414 800.15 350.738C799.18 350.068 798.957 347.828 799.631 346.852Z" fill="#1B3D79"/>
<path fill-rule="evenodd" clip-rule="evenodd" d="M791.48 341.223C792.154 340.247 793.89 340.278 794.869 340.954C795.848 341.629 796.095 342.969 795.421 343.944C794.747 344.92 792.978 345.785 792 345.109C791.021 344.433 790.806 342.199 791.48 341.223Z" fill="#1B3D79"/>
<path fill-rule="evenodd" clip-rule="evenodd" d="M775.17 329.96C775.844 328.984 777.589 329.02 778.559 329.69C779.538 330.366 779.785 331.705 779.111 332.681C778.437 333.657 776.668 334.521 775.689 333.846C774.719 333.175 774.496 330.936 775.17 329.96Z" fill="#1B3D79"/>
<path fill-rule="evenodd" clip-rule="evenodd" d="M767.011 324.325C767.685 323.349 769.429 323.385 770.408 324.061C771.387 324.737 771.634 326.076 770.96 327.052C770.286 328.028 768.517 328.893 767.538 328.217C766.56 327.541 766.337 325.301 767.011 324.325Z" fill="#1B3D79"/>
<path fill-rule="evenodd" clip-rule="evenodd" d="M758.86 318.696C759.534 317.72 761.279 317.756 762.257 318.432C763.228 319.102 763.474 320.441 762.8 321.417C762.126 322.393 760.358 323.258 759.388 322.588C758.409 321.912 758.186 319.672 758.86 318.696Z" fill="#1B3D79"/>
<path fill-rule="evenodd" clip-rule="evenodd" d="M750.709 313.067C751.383 312.091 753.119 312.122 754.098 312.798C755.077 313.474 755.323 314.813 754.65 315.789C753.976 316.764 752.207 317.629 751.228 316.953C750.25 316.277 750.035 314.043 750.709 313.067Z" fill="#1B3D79"/>
<path fill-rule="evenodd" clip-rule="evenodd" d="M967.88 451.994C968.554 451.019 970.296 451.052 971.273 451.727C972.25 452.402 972.496 453.74 971.822 454.716C971.148 455.692 969.38 456.557 968.403 455.883C967.426 455.208 967.206 452.97 967.88 451.994Z" fill="#1B3D79"/>
<path fill-rule="evenodd" clip-rule="evenodd" d="M959.725 446.363C960.399 445.387 962.14 445.421 963.118 446.095C964.095 446.77 964.34 448.109 963.667 449.084C962.993 450.06 961.225 450.926 960.248 450.251C959.271 449.576 959.051 447.339 959.725 446.363Z" fill="#1B3D79"/>
<path fill-rule="evenodd" clip-rule="evenodd" d="M951.572 440.732C952.246 439.756 953.987 439.79 954.964 440.465C955.941 441.14 956.187 442.478 955.513 443.454C954.839 444.43 953.072 445.295 952.094 444.62C951.117 443.946 950.898 441.708 951.572 440.732Z" fill="#1B3D79"/>
<path fill-rule="evenodd" clip-rule="evenodd" d="M943.418 435.101C944.091 434.125 945.833 434.159 946.81 434.834C947.787 435.508 948.033 436.847 947.359 437.823C946.685 438.799 944.917 439.664 943.94 438.989C942.963 438.314 942.744 436.077 943.418 435.101Z" fill="#1B3D79"/>
<path fill-rule="evenodd" clip-rule="evenodd" d="M935.263 429.47C935.937 428.494 937.678 428.528 938.656 429.202C939.633 429.877 939.879 431.216 939.205 432.192C938.531 433.167 936.763 434.033 935.786 433.358C934.809 432.683 934.589 430.446 935.263 429.47Z" fill="#1B3D79"/>
<path fill-rule="evenodd" clip-rule="evenodd" d="M927.111 423.84C927.785 422.864 929.521 422.894 930.501 423.571C931.478 424.246 931.724 425.584 931.05 426.56C930.376 427.536 928.609 428.401 927.632 427.727C926.651 427.05 926.437 424.816 927.111 423.84Z" fill="#1B3D79"/>
<path fill-rule="evenodd" clip-rule="evenodd" d="M918.951 418.205C919.625 417.229 921.37 417.265 922.349 417.941C923.328 418.617 923.566 419.95 922.892 420.926C922.218 421.902 920.458 422.773 919.479 422.097C918.5 421.421 918.278 419.181 918.951 418.205Z" fill="#1B3D79"/>
<path fill-rule="evenodd" clip-rule="evenodd" d="M910.801 412.576C911.475 411.6 913.219 411.636 914.198 412.312C915.168 412.982 915.415 414.322 914.741 415.297C914.067 416.273 912.299 417.138 911.328 416.468C910.349 415.792 910.127 413.552 910.801 412.576Z" fill="#1B3D79"/>
<path fill-rule="evenodd" clip-rule="evenodd" d="M902.65 406.947C903.324 405.971 905.06 406.002 906.039 406.678C907.017 407.354 907.264 408.693 906.59 409.669C905.916 410.644 904.148 411.509 903.169 410.833C902.19 410.157 901.976 407.923 902.65 406.947Z" fill="#1B3D79"/>
<path fill-rule="evenodd" clip-rule="evenodd" d="M894.49 401.313C895.164 400.337 896.909 400.373 897.888 401.049C898.866 401.725 899.105 403.058 898.431 404.034C897.757 405.01 895.997 405.88 895.018 405.204C894.039 404.528 893.816 402.289 894.49 401.313Z" fill="#1B3D79"/>
<path fill-rule="evenodd" clip-rule="evenodd" d="M886.339 395.684C887.013 394.708 888.758 394.744 889.728 395.414C890.707 396.09 890.954 397.429 890.28 398.405C889.606 399.381 887.837 400.246 886.859 399.57C885.888 398.9 885.666 396.66 886.339 395.684Z" fill="#1B3D79"/>
<path fill-rule="evenodd" clip-rule="evenodd" d="M878.189 390.055C878.862 389.079 880.599 389.109 881.577 389.785C882.556 390.461 882.803 391.8 882.129 392.776C881.455 393.752 879.687 394.617 878.708 393.941C877.729 393.265 877.515 391.031 878.189 390.055Z" fill="#1B3D79"/>
<path fill-rule="evenodd" clip-rule="evenodd" d="M870.029 384.42C870.703 383.444 872.448 383.481 873.427 384.156C874.397 384.827 874.644 386.166 873.97 387.141C873.296 388.117 871.527 388.982 870.557 388.312C869.578 387.636 869.355 385.396 870.029 384.42Z" fill="#1B3D79"/>
<path fill-rule="evenodd" clip-rule="evenodd" d="M853.719 373.157C854.393 372.181 856.138 372.217 857.116 372.893C858.095 373.569 858.333 374.902 857.659 375.878C856.986 376.854 855.225 377.724 854.247 377.048C853.268 376.373 853.045 374.133 853.719 373.157Z" fill="#1B3D79"/>
<path fill-rule="evenodd" clip-rule="evenodd" d="M845.568 367.528C846.242 366.552 847.987 366.588 848.957 367.258C849.936 367.934 850.182 369.273 849.509 370.249C848.835 371.225 847.066 372.09 846.087 371.414C845.117 370.744 844.894 368.504 845.568 367.528Z" fill="#1B3D79"/>
<path fill-rule="evenodd" clip-rule="evenodd" d="M837.417 361.899C838.091 360.923 839.827 360.953 840.806 361.629C841.785 362.305 842.032 363.644 841.358 364.62C840.684 365.596 838.915 366.461 837.936 365.785C836.958 365.109 836.743 362.875 837.417 361.899Z" fill="#1B3D79"/>
<path fill-rule="evenodd" clip-rule="evenodd" d="M829.258 356.264C829.932 355.289 831.676 355.325 832.655 356.001C833.626 356.671 833.872 358.01 833.198 358.986C832.524 359.961 830.756 360.826 829.786 360.156C828.807 359.48 828.584 357.24 829.258 356.264Z" fill="#1B3D79"/>
<path fill-rule="evenodd" clip-rule="evenodd" d="M821.107 350.636C821.781 349.66 823.517 349.69 824.496 350.366C825.475 351.042 825.721 352.381 825.047 353.357C824.374 354.333 822.605 355.197 821.626 354.521C820.647 353.845 820.433 351.611 821.107 350.636Z" fill="#1B3D79"/>
<path fill-rule="evenodd" clip-rule="evenodd" d="M812.948 345.001C813.622 344.025 815.366 344.061 816.345 344.737C817.324 345.413 817.57 346.752 816.897 347.728C816.223 348.704 814.454 349.568 813.475 348.892C812.497 348.217 812.274 345.977 812.948 345.001Z" fill="#1B3D79"/>
<path fill-rule="evenodd" clip-rule="evenodd" d="M804.797 339.372C805.471 338.396 807.215 338.432 808.186 339.102C809.165 339.778 809.411 341.117 808.737 342.093C808.063 343.069 806.295 343.934 805.316 343.258C804.346 342.588 804.123 340.348 804.797 339.372Z" fill="#1B3D79"/>
<path fill-rule="evenodd" clip-rule="evenodd" d="M796.646 333.743C797.32 332.767 799.056 332.798 800.035 333.474C801.014 334.149 801.26 335.488 800.586 336.464C799.912 337.44 798.144 338.305 797.165 337.629C796.186 336.953 795.972 334.719 796.646 333.743Z" fill="#1B3D79"/>
<path fill-rule="evenodd" clip-rule="evenodd" d="M788.487 328.108C789.16 327.133 790.905 327.169 791.884 327.845C792.863 328.521 793.101 329.854 792.427 330.83C791.753 331.806 789.993 332.676 789.014 332C788.035 331.324 787.813 329.084 788.487 328.108Z" fill="#1B3D79"/>
<path fill-rule="evenodd" clip-rule="evenodd" d="M780.336 322.48C781.01 321.504 782.754 321.54 783.725 322.21C784.703 322.886 784.95 324.225 784.276 325.201C783.602 326.177 781.834 327.041 780.855 326.365C779.885 325.695 779.662 323.456 780.336 322.48Z" fill="#1B3D79"/>
<path fill-rule="evenodd" clip-rule="evenodd" d="M772.176 316.845C772.85 315.869 774.595 315.905 775.574 316.581C776.553 317.257 776.799 318.596 776.125 319.572C775.451 320.548 773.683 321.413 772.704 320.737C771.725 320.061 771.503 317.821 772.176 316.845Z" fill="#1B3D79"/>
<path fill-rule="evenodd" clip-rule="evenodd" d="M764.026 311.216C764.699 310.24 766.444 310.276 767.423 310.952C768.393 311.622 768.64 312.961 767.966 313.937C767.292 314.913 765.523 315.778 764.553 315.108C763.574 314.432 763.352 312.192 764.026 311.216Z" fill="#1B3D79"/>
<path fill-rule="evenodd" clip-rule="evenodd" d="M755.875 305.587C756.549 304.611 758.285 304.642 759.264 305.318C760.242 305.994 760.489 307.333 759.815 308.309C759.141 309.284 757.373 310.149 756.394 309.473C755.415 308.797 755.201 306.563 755.875 305.587Z" fill="#1B3D79"/>
<path fill-rule="evenodd" clip-rule="evenodd" d="M973.046 444.514C973.72 443.539 975.461 443.572 976.438 444.247C977.415 444.922 977.661 446.26 976.987 447.236C976.313 448.212 974.546 449.077 973.569 448.403C972.591 447.728 972.372 445.49 973.046 444.514Z" fill="#1B3D79"/>
<path fill-rule="evenodd" clip-rule="evenodd" d="M964.891 438.883C965.565 437.907 967.306 437.941 968.283 438.615C969.26 439.29 969.506 440.629 968.832 441.604C968.158 442.58 966.391 443.446 965.413 442.771C964.436 442.096 964.217 439.859 964.891 438.883Z" fill="#1B3D79"/>
<path fill-rule="evenodd" clip-rule="evenodd" d="M956.737 433.252C957.411 432.276 959.153 432.31 960.13 432.985C961.107 433.66 961.353 434.998 960.679 435.974C960.005 436.95 958.237 437.815 957.26 437.14C956.283 436.465 956.064 434.228 956.737 433.252Z" fill="#1B3D79"/>
<path fill-rule="evenodd" clip-rule="evenodd" d="M948.583 427.621C949.257 426.645 950.998 426.679 951.975 427.354C952.953 428.028 953.198 429.367 952.524 430.343C951.851 431.318 950.083 432.184 949.106 431.509C948.129 430.834 947.909 428.597 948.583 427.621Z" fill="#1B3D79"/>
<path fill-rule="evenodd" clip-rule="evenodd" d="M940.429 421.99C941.103 421.014 942.844 421.048 943.821 421.722C944.798 422.397 945.044 423.736 944.37 424.711C943.696 425.687 941.929 426.553 940.951 425.878C939.974 425.203 939.755 422.966 940.429 421.99Z" fill="#1B3D79"/>
<path fill-rule="evenodd" clip-rule="evenodd" d="M932.276 416.36C932.95 415.384 934.686 415.414 935.667 416.091C936.644 416.766 936.89 418.104 936.216 419.08C935.542 420.056 933.774 420.921 932.797 420.247C931.817 419.57 931.602 417.336 932.276 416.36Z" fill="#1B3D79"/>
<path fill-rule="evenodd" clip-rule="evenodd" d="M924.117 410.725C924.791 409.749 926.536 409.785 927.514 410.461C928.493 411.137 928.731 412.47 928.057 413.446C927.384 414.422 925.623 415.293 924.645 414.617C923.666 413.941 923.443 411.701 924.117 410.725Z" fill="#1B3D79"/>
<path fill-rule="evenodd" clip-rule="evenodd" d="M915.966 405.096C916.64 404.12 918.385 404.156 919.364 404.832C920.334 405.502 920.581 406.842 919.907 407.817C919.233 408.793 917.464 409.658 916.494 408.988C915.515 408.312 915.292 406.072 915.966 405.096Z" fill="#1B3D79"/>
<path fill-rule="evenodd" clip-rule="evenodd" d="M907.815 399.467C908.489 398.491 910.225 398.522 911.204 399.198C912.183 399.874 912.43 401.213 911.756 402.188C911.082 403.164 909.313 404.029 908.334 403.353C907.356 402.677 907.141 400.443 907.815 399.467Z" fill="#1B3D79"/>
<path fill-rule="evenodd" clip-rule="evenodd" d="M899.656 393.833C900.33 392.857 902.074 392.893 903.053 393.569C904.032 394.245 904.27 395.578 903.596 396.554C902.922 397.53 901.162 398.4 900.184 397.724C899.205 397.048 898.982 394.809 899.656 393.833Z" fill="#1B3D79"/>
<path fill-rule="evenodd" clip-rule="evenodd" d="M891.505 388.204C892.179 387.228 893.924 387.264 894.894 387.934C895.873 388.61 896.119 389.949 895.445 390.925C894.772 391.901 893.003 392.766 892.024 392.09C891.054 391.42 890.831 389.18 891.505 388.204Z" fill="#1B3D79"/>
<path fill-rule="evenodd" clip-rule="evenodd" d="M883.354 382.575C884.028 381.599 885.764 381.629 886.743 382.305C887.722 382.981 887.969 384.32 887.295 385.296C886.621 386.272 884.852 387.137 883.873 386.461C882.895 385.785 882.68 383.551 883.354 382.575Z" fill="#1B3D79"/>
<path fill-rule="evenodd" clip-rule="evenodd" d="M875.195 376.94C875.869 375.964 877.613 376.001 878.592 376.676C879.562 377.347 879.809 378.686 879.135 379.661C878.461 380.637 876.693 381.502 875.722 380.832C874.744 380.156 874.521 377.916 875.195 376.94Z" fill="#1B3D79"/>
<path fill-rule="evenodd" clip-rule="evenodd" d="M867.044 371.311C867.718 370.336 869.454 370.366 870.433 371.042C871.412 371.718 871.658 373.057 870.984 374.033C870.31 375.008 868.542 375.873 867.563 375.197C866.584 374.521 866.37 372.287 867.044 371.311Z" fill="#1B3D79"/>
<path fill-rule="evenodd" clip-rule="evenodd" d="M858.885 365.677C859.558 364.701 861.303 364.737 862.282 365.413C863.261 366.089 863.499 367.422 862.825 368.398C862.151 369.374 860.391 370.244 859.412 369.568C858.433 368.892 858.211 366.653 858.885 365.677Z" fill="#1B3D79"/>
<path fill-rule="evenodd" clip-rule="evenodd" d="M850.734 360.048C851.408 359.072 853.152 359.108 854.123 359.778C855.101 360.454 855.348 361.793 854.674 362.769C854 363.745 852.232 364.61 851.253 363.934C850.283 363.264 850.06 361.024 850.734 360.048Z" fill="#1B3D79"/>
<path fill-rule="evenodd" clip-rule="evenodd" d="M842.583 354.419C843.257 353.443 844.993 353.474 845.972 354.149C846.951 354.825 847.197 356.164 846.523 357.14C845.849 358.116 844.081 358.981 843.102 358.305C842.123 357.629 841.909 355.395 842.583 354.419Z" fill="#1B3D79"/>
<path fill-rule="evenodd" clip-rule="evenodd" d="M834.423 348.784C835.097 347.809 836.842 347.845 837.821 348.521C838.791 349.191 839.038 350.53 838.364 351.506C837.69 352.481 835.921 353.346 834.951 352.676C833.972 352 833.75 349.76 834.423 348.784Z" fill="#1B3D79"/>
<path fill-rule="evenodd" clip-rule="evenodd" d="M826.273 343.156C826.947 342.18 828.683 342.21 829.662 342.886C830.64 343.562 830.887 344.901 830.213 345.877C829.539 346.853 827.771 347.717 826.792 347.041C825.813 346.365 825.599 344.131 826.273 343.156Z" fill="#1B3D79"/>
<path fill-rule="evenodd" clip-rule="evenodd" d="M818.113 337.521C818.787 336.545 820.532 336.581 821.511 337.257C822.489 337.933 822.736 339.272 822.062 340.248C821.388 341.224 819.62 342.088 818.641 341.412C817.662 340.737 817.439 338.497 818.113 337.521Z" fill="#1B3D79"/>
<path fill-rule="evenodd" clip-rule="evenodd" d="M809.962 331.892C810.636 330.916 812.381 330.952 813.351 331.622C814.33 332.298 814.577 333.637 813.903 334.613C813.229 335.589 811.46 336.454 810.482 335.778C809.511 335.108 809.288 332.868 809.962 331.892Z" fill="#1B3D79"/>
<path fill-rule="evenodd" clip-rule="evenodd" d="M801.812 326.263C802.485 325.287 804.222 325.318 805.2 325.994C806.179 326.669 806.426 328.008 805.752 328.984C805.078 329.96 803.309 330.825 802.331 330.149C801.352 329.473 801.138 327.239 801.812 326.263Z" fill="#1B3D79"/>
<path fill-rule="evenodd" clip-rule="evenodd" d="M793.652 320.628C794.326 319.653 796.071 319.689 797.05 320.365C798.028 321.041 798.267 322.374 797.593 323.35C796.919 324.326 795.159 325.196 794.18 324.52C793.201 323.844 792.978 321.604 793.652 320.628Z" fill="#1B3D79"/>
<path fill-rule="evenodd" clip-rule="evenodd" d="M777.342 309.365C778.016 308.389 779.761 308.425 780.739 309.101C781.718 309.777 781.965 311.116 781.291 312.092C780.617 313.068 778.848 313.933 777.87 313.257C776.891 312.581 776.668 310.341 777.342 309.365Z" fill="#1B3D79"/>
<path fill-rule="evenodd" clip-rule="evenodd" d="M769.191 303.736C769.865 302.76 771.61 302.796 772.588 303.472C773.559 304.142 773.805 305.481 773.132 306.457C772.458 307.433 770.689 308.298 769.719 307.628C768.74 306.952 768.517 304.712 769.191 303.736Z" fill="#1B3D79"/>
<path fill-rule="evenodd" clip-rule="evenodd" d="M761.04 298.107C761.714 297.131 763.45 297.162 764.429 297.838C765.408 298.514 765.655 299.853 764.981 300.829C764.307 301.804 762.538 302.669 761.559 301.993C760.581 301.317 760.366 299.083 761.04 298.107Z" fill="#1B3D79"/>
<path fill-rule="evenodd" clip-rule="evenodd" d="M978.211 437.034C978.885 436.059 980.627 436.092 981.604 436.767C982.581 437.442 982.827 438.78 982.153 439.756C981.479 440.732 979.711 441.597 978.734 440.923C977.757 440.248 977.538 438.01 978.211 437.034Z" fill="#1B3D79"/>
<path fill-rule="evenodd" clip-rule="evenodd" d="M970.056 431.403C970.73 430.427 972.472 430.461 973.449 431.135C974.426 431.81 974.672 433.149 973.998 434.124C973.324 435.1 971.556 435.966 970.579 435.291C969.602 434.616 969.382 432.378 970.056 431.403Z" fill="#1B3D79"/>
<path fill-rule="evenodd" clip-rule="evenodd" d="M961.903 425.772C962.577 424.796 964.318 424.83 965.295 425.505C966.272 426.179 966.518 427.518 965.844 428.494C965.17 429.47 963.403 430.335 962.426 429.66C961.448 428.985 961.229 426.748 961.903 425.772Z" fill="#1B3D79"/>
<path fill-rule="evenodd" clip-rule="evenodd" d="M953.749 420.141C954.423 419.165 956.164 419.199 957.141 419.874C958.118 420.548 958.364 421.887 957.69 422.863C957.016 423.839 955.248 424.704 954.271 424.029C953.294 423.354 953.075 421.117 953.749 420.141Z" fill="#1B3D79"/>
<path fill-rule="evenodd" clip-rule="evenodd" d="M945.594 414.51C946.268 413.534 948.01 413.568 948.987 414.242C949.964 414.917 950.21 416.256 949.536 417.231C948.862 418.207 947.094 419.073 946.117 418.398C945.14 417.723 944.921 415.486 945.594 414.51Z" fill="#1B3D79"/>
<path fill-rule="evenodd" clip-rule="evenodd" d="M937.442 408.88C938.116 407.904 939.852 407.934 940.832 408.611C941.81 409.286 942.055 410.624 941.382 411.6C940.708 412.576 938.94 413.441 937.963 412.767C936.982 412.09 936.768 409.856 937.442 408.88Z" fill="#1B3D79"/>
<path fill-rule="evenodd" clip-rule="evenodd" d="M929.283 403.245C929.956 402.269 931.701 402.305 932.68 402.981C933.659 403.657 933.897 404.99 933.223 405.966C932.549 406.942 930.789 407.813 929.81 407.137C928.831 406.461 928.609 404.221 929.283 403.245Z" fill="#1B3D79"/>
<path fill-rule="evenodd" clip-rule="evenodd" d="M921.132 397.616C921.806 396.64 923.55 396.676 924.529 397.352C925.499 398.022 925.746 399.361 925.072 400.337C924.398 401.313 922.63 402.178 921.659 401.508C920.681 400.832 920.458 398.592 921.132 397.616Z" fill="#1B3D79"/>
<path fill-rule="evenodd" clip-rule="evenodd" d="M912.981 391.987C913.655 391.011 915.391 391.042 916.37 391.718C917.348 392.394 917.595 393.733 916.921 394.709C916.247 395.684 914.479 396.549 913.5 395.873C912.521 395.197 912.307 392.963 912.981 391.987Z" fill="#1B3D79"/>
<path fill-rule="evenodd" clip-rule="evenodd" d="M904.821 386.353C905.495 385.377 907.24 385.413 908.219 386.089C909.198 386.765 909.436 388.098 908.762 389.074C908.088 390.05 906.328 390.92 905.349 390.244C904.37 389.568 904.148 387.328 904.821 386.353Z" fill="#1B3D79"/>
<path fill-rule="evenodd" clip-rule="evenodd" d="M910.199 378.566C910.873 377.59 912.617 377.626 913.596 378.302C914.575 378.978 914.813 380.311 914.139 381.287C913.465 382.263 911.705 383.133 910.726 382.458C909.748 381.782 909.525 379.542 910.199 378.566Z" fill="#1B3D79"/>
<path fill-rule="evenodd" clip-rule="evenodd" d="M896.671 380.724C897.344 379.748 899.089 379.784 900.059 380.454C901.038 381.13 901.285 382.469 900.611 383.445C899.937 384.421 898.169 385.286 897.19 384.61C896.219 383.94 895.997 381.7 896.671 380.724Z" fill="#1B3D79"/>
<path fill-rule="evenodd" clip-rule="evenodd" d="M888.52 375.095C889.194 374.119 890.93 374.149 891.909 374.825C892.887 375.501 893.134 376.84 892.46 377.816C891.786 378.792 890.018 379.657 889.039 378.981C888.06 378.305 887.846 376.071 888.52 375.095Z" fill="#1B3D79"/>
<path fill-rule="evenodd" clip-rule="evenodd" d="M880.36 369.46C881.034 368.484 882.779 368.52 883.758 369.196C884.728 369.866 884.975 371.206 884.301 372.181C883.627 373.157 881.858 374.022 880.888 373.352C879.909 372.676 879.686 370.436 880.36 369.46Z" fill="#1B3D79"/>
<path fill-rule="evenodd" clip-rule="evenodd" d="M872.209 363.831C872.883 362.856 874.62 362.886 875.598 363.562C876.577 364.238 876.824 365.577 876.15 366.553C875.476 367.528 873.707 368.393 872.729 367.717C871.75 367.041 871.536 364.807 872.209 363.831Z" fill="#1B3D79"/>
<path fill-rule="evenodd" clip-rule="evenodd" d="M864.05 358.197C864.724 357.221 866.469 357.257 867.447 357.933C868.426 358.609 868.665 359.942 867.991 360.918C867.317 361.894 865.557 362.764 864.578 362.088C863.599 361.412 863.376 359.173 864.05 358.197Z" fill="#1B3D79"/>
<path fill-rule="evenodd" clip-rule="evenodd" d="M855.899 352.568C856.573 351.592 858.318 351.628 859.288 352.298C860.267 352.974 860.514 354.313 859.84 355.289C859.166 356.265 857.397 357.13 856.418 356.454C855.448 355.784 855.225 353.544 855.899 352.568Z" fill="#1B3D79"/>
<path fill-rule="evenodd" clip-rule="evenodd" d="M847.748 346.939C848.422 345.963 850.159 345.993 851.137 346.669C852.116 347.345 852.363 348.684 851.689 349.66C851.015 350.636 849.246 351.501 848.268 350.825C847.289 350.149 847.074 347.915 847.748 346.939Z" fill="#1B3D79"/>
<path fill-rule="evenodd" clip-rule="evenodd" d="M839.589 341.304C840.263 340.329 842.008 340.365 842.986 341.041C843.957 341.711 844.203 343.05 843.53 344.026C842.856 345.001 841.087 345.866 840.117 345.196C839.138 344.52 838.915 342.28 839.589 341.304Z" fill="#1B3D79"/>
<path fill-rule="evenodd" clip-rule="evenodd" d="M831.438 335.676C832.112 334.7 833.848 334.73 834.827 335.406C835.806 336.082 836.053 337.421 835.379 338.397C834.705 339.373 832.936 340.237 831.957 339.561C830.979 338.885 830.764 336.651 831.438 335.676Z" fill="#1B3D79"/>
<path fill-rule="evenodd" clip-rule="evenodd" d="M823.279 330.041C823.953 329.065 825.697 329.101 826.676 329.777C827.655 330.453 827.902 331.792 827.228 332.768C826.554 333.744 824.785 334.608 823.806 333.932C822.828 333.257 822.605 331.017 823.279 330.041Z" fill="#1B3D79"/>
<path fill-rule="evenodd" clip-rule="evenodd" d="M815.128 324.412C815.802 323.436 817.547 323.472 818.517 324.142C819.496 324.818 819.742 326.157 819.068 327.133C818.394 328.109 816.626 328.974 815.647 328.298C814.677 327.628 814.454 325.388 815.128 324.412Z" fill="#1B3D79"/>
<path fill-rule="evenodd" clip-rule="evenodd" d="M806.977 318.783C807.651 317.807 809.387 317.838 810.366 318.513C811.345 319.189 811.591 320.528 810.917 321.504C810.244 322.48 808.475 323.345 807.496 322.669C806.517 321.993 806.303 319.759 806.977 318.783Z" fill="#1B3D79"/>
<path fill-rule="evenodd" clip-rule="evenodd" d="M798.818 313.148C799.492 312.173 801.236 312.209 802.215 312.885C803.194 313.561 803.432 314.894 802.758 315.87C802.084 316.846 800.324 317.716 799.345 317.04C798.367 316.364 798.144 314.124 798.818 313.148Z" fill="#1B3D79"/>
<path fill-rule="evenodd" clip-rule="evenodd" d="M790.667 307.52C791.341 306.544 793.085 306.58 794.056 307.25C795.035 307.926 795.281 309.265 794.607 310.241C793.933 311.217 792.165 312.081 791.186 311.405C790.216 310.735 789.993 308.496 790.667 307.52Z" fill="#1B3D79"/>
<path fill-rule="evenodd" clip-rule="evenodd" d="M774.357 296.256C775.031 295.28 776.775 295.316 777.754 295.992C778.724 296.662 778.971 298.001 778.297 298.977C777.623 299.953 775.855 300.818 774.884 300.148C773.906 299.472 773.683 297.232 774.357 296.256Z" fill="#1B3D79"/>
<path fill-rule="evenodd" clip-rule="evenodd" d="M766.206 290.627C766.88 289.652 768.616 289.682 769.595 290.358C770.574 291.034 770.82 292.373 770.146 293.349C769.472 294.324 767.704 295.189 766.725 294.513C765.746 293.837 765.532 291.603 766.206 290.627Z" fill="#1B3D79"/>
<path fill-rule="evenodd" clip-rule="evenodd" d="M983.377 429.554C984.051 428.579 985.792 428.612 986.769 429.287C987.746 429.962 987.992 431.3 987.318 432.276C986.644 433.252 984.877 434.117 983.9 433.443C982.923 432.768 982.703 430.53 983.377 429.554Z" fill="#1B3D79"/>
<path fill-rule="evenodd" clip-rule="evenodd" d="M975.222 423.923C975.896 422.947 977.637 422.981 978.614 423.655C979.591 424.33 979.837 425.669 979.163 426.644C978.489 427.62 976.722 428.486 975.745 427.811C974.767 427.136 974.548 424.898 975.222 423.923Z" fill="#1B3D79"/>
<path fill-rule="evenodd" clip-rule="evenodd" d="M967.069 418.292C967.742 417.316 969.484 417.35 970.461 418.025C971.438 418.699 971.684 420.038 971.01 421.014C970.336 421.99 968.568 422.855 967.591 422.18C966.614 421.505 966.395 419.268 967.069 418.292Z" fill="#1B3D79"/>
<path fill-rule="evenodd" clip-rule="evenodd" d="M958.914 412.661C959.588 411.685 961.329 411.719 962.307 412.394C963.284 413.068 963.53 414.407 962.856 415.383C962.182 416.359 960.414 417.224 959.437 416.549C958.46 415.874 958.24 413.637 958.914 412.661Z" fill="#1B3D79"/>
<path fill-rule="evenodd" clip-rule="evenodd" d="M950.76 407.03C951.434 406.054 953.175 406.088 954.152 406.762C955.129 407.437 955.375 408.776 954.701 409.751C954.027 410.727 952.26 411.593 951.283 410.918C950.306 410.243 950.086 408.006 950.76 407.03Z" fill="#1B3D79"/>
<path fill-rule="evenodd" clip-rule="evenodd" d="M942.607 401.4C943.281 400.424 945.018 400.454 945.998 401.131C946.975 401.806 947.221 403.144 946.547 404.12C945.873 405.096 944.105 405.961 943.128 405.287C942.148 404.61 941.934 402.376 942.607 401.4Z" fill="#1B3D79"/>
<path fill-rule="evenodd" clip-rule="evenodd" d="M934.448 395.765C935.122 394.789 936.867 394.825 937.845 395.501C938.824 396.177 939.062 397.51 938.389 398.486C937.715 399.462 935.955 400.333 934.976 399.657C933.997 398.981 933.774 396.741 934.448 395.765Z" fill="#1B3D79"/>
<path fill-rule="evenodd" clip-rule="evenodd" d="M926.297 390.136C926.971 389.16 928.716 389.196 929.695 389.872C930.665 390.542 930.912 391.881 930.238 392.857C929.564 393.833 927.795 394.698 926.825 394.028C925.846 393.352 925.623 391.112 926.297 390.136Z" fill="#1B3D79"/>
<path fill-rule="evenodd" clip-rule="evenodd" d="M901.836 373.244C902.51 372.268 904.255 372.304 905.225 372.974C906.204 373.65 906.451 374.989 905.777 375.965C905.103 376.941 903.334 377.806 902.355 377.13C901.385 376.46 901.162 374.22 901.836 373.244Z" fill="#1B3D79"/>
<path fill-rule="evenodd" clip-rule="evenodd" d="M885.526 361.98C886.2 361.004 887.944 361.041 888.923 361.716C889.894 362.387 890.14 363.726 889.466 364.701C888.792 365.677 887.024 366.542 886.054 365.872C885.075 365.196 884.852 362.956 885.526 361.98Z" fill="#1B3D79"/>
<path fill-rule="evenodd" clip-rule="evenodd" d="M877.375 356.351C878.049 355.375 879.785 355.406 880.764 356.082C881.743 356.758 881.989 358.097 881.315 359.073C880.642 360.048 878.873 360.913 877.894 360.237C876.915 359.561 876.701 357.327 877.375 356.351Z" fill="#1B3D79"/>
<path fill-rule="evenodd" clip-rule="evenodd" d="M852.914 339.459C853.588 338.483 855.324 338.513 856.303 339.189C857.282 339.865 857.528 341.204 856.854 342.18C856.18 343.156 854.412 344.021 853.433 343.345C852.454 342.669 852.24 340.435 852.914 339.459Z" fill="#1B3D79"/>
<path fill-rule="evenodd" clip-rule="evenodd" d="M844.755 333.824C845.429 332.849 847.173 332.885 848.152 333.561C849.122 334.231 849.369 335.57 848.695 336.546C848.021 337.521 846.253 338.386 845.282 337.716C844.304 337.04 844.081 334.8 844.755 333.824Z" fill="#1B3D79"/>
<path fill-rule="evenodd" clip-rule="evenodd" d="M836.604 328.196C837.278 327.22 839.014 327.25 839.993 327.926C840.971 328.602 841.218 329.941 840.544 330.917C839.87 331.893 838.102 332.757 837.123 332.081C836.144 331.405 835.93 329.171 836.604 328.196Z" fill="#1B3D79"/>
<path fill-rule="evenodd" clip-rule="evenodd" d="M828.444 322.561C829.118 321.585 830.863 321.621 831.842 322.297C832.82 322.973 833.067 324.312 832.393 325.288C831.719 326.264 829.951 327.128 828.972 326.452C827.993 325.777 827.77 323.537 828.444 322.561Z" fill="#1B3D79"/>
<path fill-rule="evenodd" clip-rule="evenodd" d="M820.294 316.932C820.967 315.956 822.712 315.992 823.682 316.662C824.661 317.338 824.908 318.677 824.234 319.653C823.56 320.629 821.792 321.494 820.813 320.818C819.842 320.148 819.62 317.908 820.294 316.932Z" fill="#1B3D79"/>
<path fill-rule="evenodd" clip-rule="evenodd" d="M812.143 311.303C812.817 310.327 814.553 310.358 815.532 311.033C816.51 311.709 816.757 313.048 816.083 314.024C815.409 315 813.641 315.865 812.662 315.189C811.683 314.513 811.469 312.279 812.143 311.303Z" fill="#1B3D79"/>
<path fill-rule="evenodd" clip-rule="evenodd" d="M803.983 305.668C804.657 304.693 806.402 304.729 807.381 305.405C808.359 306.081 808.598 307.414 807.924 308.39C807.25 309.366 805.49 310.236 804.511 309.56C803.532 308.884 803.309 306.644 803.983 305.668Z" fill="#1B3D79"/>
<path fill-rule="evenodd" clip-rule="evenodd" d="M795.832 300.04C796.506 299.064 798.251 299.1 799.221 299.77C800.2 300.446 800.447 301.785 799.773 302.761C799.099 303.737 797.33 304.601 796.352 303.925C795.381 303.255 795.159 301.015 795.832 300.04Z" fill="#1B3D79"/>
<path fill-rule="evenodd" clip-rule="evenodd" d="M787.673 294.405C788.347 293.429 790.092 293.465 791.07 294.141C792.049 294.817 792.296 296.156 791.622 297.132C790.948 298.108 789.18 298.973 788.201 298.297C787.222 297.621 786.999 295.381 787.673 294.405Z" fill="#1B3D79"/>
<path fill-rule="evenodd" clip-rule="evenodd" d="M779.522 288.776C780.196 287.8 781.941 287.836 782.92 288.512C783.89 289.182 784.137 290.521 783.463 291.497C782.789 292.473 781.02 293.338 780.05 292.668C779.071 291.992 778.848 289.752 779.522 288.776Z" fill="#1B3D79"/>
<path fill-rule="evenodd" clip-rule="evenodd" d="M771.371 283.147C772.045 282.171 773.781 282.202 774.76 282.878C775.739 283.554 775.986 284.893 775.312 285.869C774.638 286.844 772.869 287.709 771.891 287.033C770.912 286.357 770.697 284.123 771.371 283.147Z" fill="#1B3D79"/>
<path fill-rule="evenodd" clip-rule="evenodd" d="M988.543 422.074C989.217 421.098 990.958 421.132 991.935 421.807C992.912 422.482 993.158 423.82 992.484 424.796C991.81 425.772 990.042 426.637 989.065 425.963C988.088 425.288 987.869 423.05 988.543 422.074Z" fill="#1B3D79"/>
<path fill-rule="evenodd" clip-rule="evenodd" d="M980.388 416.443C981.061 415.467 982.803 415.501 983.78 416.175C984.757 416.85 985.003 418.189 984.329 419.164C983.655 420.14 981.887 421.006 980.91 420.331C979.933 419.656 979.714 417.419 980.388 416.443Z" fill="#1B3D79"/>
<path fill-rule="evenodd" clip-rule="evenodd" d="M972.234 410.812C972.908 409.836 974.649 409.87 975.626 410.545C976.603 411.219 976.849 412.558 976.175 413.534C975.501 414.51 973.734 415.375 972.757 414.7C971.78 414.025 971.56 411.788 972.234 410.812Z" fill="#1B3D79"/>
<path fill-rule="evenodd" clip-rule="evenodd" d="M964.08 405.181C964.754 404.205 966.495 404.239 967.472 404.913C968.449 405.588 968.695 406.927 968.021 407.903C967.347 408.878 965.58 409.744 964.602 409.069C963.625 408.394 963.406 406.157 964.08 405.181Z" fill="#1B3D79"/>
<path fill-rule="evenodd" clip-rule="evenodd" d="M955.926 399.55C956.599 398.574 958.341 398.608 959.318 399.282C960.295 399.957 960.541 401.296 959.867 402.271C959.193 403.247 957.425 404.113 956.448 403.438C955.471 402.763 955.252 400.526 955.926 399.55Z" fill="#1B3D79"/>
<path fill-rule="evenodd" clip-rule="evenodd" d="M947.773 393.92C948.447 392.944 950.183 392.974 951.164 393.651C952.141 394.326 952.387 395.664 951.713 396.64C951.039 397.616 949.271 398.481 948.294 397.807C947.313 397.13 947.099 394.896 947.773 393.92Z" fill="#1B3D79"/>
<path fill-rule="evenodd" clip-rule="evenodd" d="M939.614 388.285C940.288 387.309 942.032 387.345 943.011 388.021C943.99 388.697 944.228 390.03 943.554 391.006C942.88 391.982 941.12 392.853 940.141 392.177C939.163 391.501 938.94 389.261 939.614 388.285Z" fill="#1B3D79"/>
<path fill-rule="evenodd" clip-rule="evenodd" d="M923.312 377.027C923.986 376.051 925.722 376.082 926.701 376.758C927.68 377.434 927.926 378.773 927.252 379.748C926.578 380.724 924.81 381.589 923.831 380.913C922.852 380.237 922.638 378.003 923.312 377.027Z" fill="#1B3D79"/>
<path fill-rule="evenodd" clip-rule="evenodd" d="M907.002 365.764C907.676 364.788 909.42 364.824 910.391 365.494C911.369 366.17 911.616 367.509 910.942 368.485C910.268 369.461 908.5 370.326 907.521 369.65C906.551 368.979 906.328 366.74 907.002 365.764Z" fill="#1B3D79"/>
<path fill-rule="evenodd" clip-rule="evenodd" d="M898.851 360.135C899.525 359.159 901.261 359.189 902.24 359.865C903.218 360.541 903.465 361.88 902.791 362.856C902.117 363.832 900.349 364.697 899.37 364.021C898.391 363.345 898.177 361.111 898.851 360.135Z" fill="#1B3D79"/>
<path fill-rule="evenodd" clip-rule="evenodd" d="M890.691 354.5C891.365 353.524 893.11 353.56 894.089 354.236C895.059 354.906 895.306 356.246 894.632 357.221C893.958 358.197 892.189 359.062 891.219 358.392C890.24 357.716 890.018 355.476 890.691 354.5Z" fill="#1B3D79"/>
<path fill-rule="evenodd" clip-rule="evenodd" d="M882.541 348.871C883.214 347.895 884.951 347.926 885.929 348.602C886.908 349.278 887.155 350.617 886.481 351.593C885.807 352.568 884.039 353.433 883.06 352.757C882.081 352.081 881.867 349.847 882.541 348.871Z" fill="#1B3D79"/>
<path fill-rule="evenodd" clip-rule="evenodd" d="M874.381 343.237C875.055 342.261 876.8 342.297 877.779 342.973C878.757 343.649 878.996 344.982 878.322 345.958C877.648 346.934 875.888 347.804 874.909 347.128C873.93 346.452 873.707 344.213 874.381 343.237Z" fill="#1B3D79"/>
<path fill-rule="evenodd" clip-rule="evenodd" d="M866.23 337.608C866.904 336.632 868.649 336.668 869.619 337.338C870.598 338.014 870.845 339.353 870.171 340.329C869.497 341.305 867.728 342.17 866.75 341.494C865.779 340.824 865.557 338.584 866.23 337.608Z" fill="#1B3D79"/>
<path fill-rule="evenodd" clip-rule="evenodd" d="M858.079 331.979C858.753 331.003 860.49 331.033 861.468 331.709C862.447 332.385 862.694 333.724 862.02 334.7C861.346 335.676 859.577 336.541 858.599 335.865C857.62 335.189 857.406 332.955 858.079 331.979Z" fill="#1B3D79"/>
<path fill-rule="evenodd" clip-rule="evenodd" d="M833.61 315.081C834.284 314.105 836.028 314.141 837.007 314.817C837.986 315.493 838.233 316.832 837.559 317.808C836.885 318.784 835.116 319.648 834.138 318.972C833.159 318.297 832.936 316.057 833.61 315.081Z" fill="#1B3D79"/>
<path fill-rule="evenodd" clip-rule="evenodd" d="M825.459 309.452C826.133 308.476 827.878 308.512 828.848 309.182C829.827 309.858 830.073 311.197 829.4 312.173C828.726 313.149 826.957 314.014 825.978 313.338C825.008 312.668 824.785 310.428 825.459 309.452Z" fill="#1B3D79"/>
<path fill-rule="evenodd" clip-rule="evenodd" d="M817.308 303.823C817.982 302.847 819.718 302.877 820.697 303.553C821.676 304.229 821.922 305.568 821.249 306.544C820.575 307.52 818.806 308.385 817.827 307.709C816.849 307.033 816.634 304.799 817.308 303.823Z" fill="#1B3D79"/>
<path fill-rule="evenodd" clip-rule="evenodd" d="M809.149 298.188C809.823 297.213 811.567 297.249 812.546 297.925C813.525 298.601 813.763 299.934 813.089 300.91C812.415 301.885 810.655 302.756 809.676 302.08C808.698 301.404 808.475 299.164 809.149 298.188Z" fill="#1B3D79"/>
<path fill-rule="evenodd" clip-rule="evenodd" d="M800.998 292.56C801.672 291.584 803.417 291.62 804.387 292.29C805.366 292.966 805.612 294.305 804.938 295.281C804.265 296.257 802.496 297.121 801.517 296.445C800.547 295.775 800.324 293.535 800.998 292.56Z" fill="#1B3D79"/>
<path fill-rule="evenodd" clip-rule="evenodd" d="M792.839 286.925C793.513 285.949 795.257 285.985 796.236 286.661C797.215 287.337 797.461 288.676 796.788 289.652C796.114 290.628 794.345 291.493 793.366 290.817C792.387 290.141 792.165 287.901 792.839 286.925Z" fill="#1B3D79"/>
<path fill-rule="evenodd" clip-rule="evenodd" d="M784.688 281.296C785.362 280.32 787.106 280.356 788.085 281.032C789.055 281.702 789.302 283.041 788.628 284.017C787.954 284.993 786.186 285.858 785.215 285.188C784.237 284.512 784.014 282.272 784.688 281.296Z" fill="#1B3D79"/>
<path fill-rule="evenodd" clip-rule="evenodd" d="M776.537 275.667C777.211 274.691 778.947 274.722 779.926 275.398C780.905 276.074 781.151 277.413 780.477 278.388C779.803 279.364 778.035 280.229 777.056 279.553C776.077 278.877 775.863 276.643 776.537 275.667Z" fill="#1B3D79"/>
<path fill-rule="evenodd" clip-rule="evenodd" d="M993.708 414.595C994.381 413.619 996.123 413.653 997.1 414.328C998.077 415.003 998.323 416.341 997.649 417.317C996.975 418.293 995.207 419.158 994.23 418.483C993.253 417.809 993.034 415.571 993.708 414.595Z" fill="#1B3D79"/>
<path fill-rule="evenodd" clip-rule="evenodd" d="M985.552 408.963C986.226 407.988 987.968 408.021 988.945 408.696C989.922 409.371 990.168 410.709 989.494 411.685C988.82 412.661 987.052 413.526 986.075 412.852C985.098 412.177 984.879 409.939 985.552 408.963Z" fill="#1B3D79"/>
<path fill-rule="evenodd" clip-rule="evenodd" d="M977.399 403.333C978.073 402.357 979.814 402.391 980.791 403.065C981.768 403.74 982.014 405.079 981.34 406.055C980.666 407.03 978.899 407.896 977.922 407.221C976.945 406.546 976.725 404.309 977.399 403.333Z" fill="#1B3D79"/>
<path fill-rule="evenodd" clip-rule="evenodd" d="M969.245 397.702C969.919 396.726 971.66 396.76 972.637 397.434C973.614 398.109 973.86 399.448 973.186 400.423C972.512 401.399 970.744 402.265 969.767 401.59C968.79 400.915 968.571 398.678 969.245 397.702Z" fill="#1B3D79"/>
<path fill-rule="evenodd" clip-rule="evenodd" d="M961.091 392.071C961.764 391.095 963.506 391.128 964.483 391.803C965.46 392.478 965.706 393.816 965.032 394.792C964.358 395.768 962.59 396.633 961.613 395.959C960.636 395.284 960.417 393.046 961.091 392.071Z" fill="#1B3D79"/>
<path fill-rule="evenodd" clip-rule="evenodd" d="M952.938 386.44C953.612 385.465 955.348 385.495 956.329 386.172C957.306 386.847 957.551 388.185 956.878 389.161C956.204 390.137 954.436 391.002 953.459 390.327C952.478 389.65 952.264 387.416 952.938 386.44Z" fill="#1B3D79"/>
<path fill-rule="evenodd" clip-rule="evenodd" d="M936.628 375.177C937.302 374.201 939.046 374.237 940.025 374.913C940.996 375.583 941.242 376.922 940.568 377.898C939.894 378.874 938.126 379.739 937.155 379.069C936.177 378.393 935.954 376.153 936.628 375.177Z" fill="#1B3D79"/>
<path fill-rule="evenodd" clip-rule="evenodd" d="M928.477 369.548C929.151 368.572 930.887 368.603 931.866 369.278C932.845 369.954 933.091 371.293 932.417 372.269C931.743 373.245 929.975 374.11 928.996 373.434C928.017 372.758 927.803 370.524 928.477 369.548Z" fill="#1B3D79"/>
<path fill-rule="evenodd" clip-rule="evenodd" d="M920.318 363.913C920.991 362.938 922.736 362.974 923.715 363.65C924.694 364.326 924.932 365.659 924.258 366.635C923.584 367.611 921.824 368.481 920.845 367.805C919.866 367.129 919.644 364.889 920.318 363.913Z" fill="#1B3D79"/>
<path fill-rule="evenodd" clip-rule="evenodd" d="M912.167 358.285C912.841 357.309 914.585 357.345 915.556 358.015C916.534 358.691 916.781 360.03 916.107 361.006C915.433 361.982 913.665 362.846 912.686 362.17C911.716 361.5 911.493 359.261 912.167 358.285Z" fill="#1B3D79"/>
<path fill-rule="evenodd" clip-rule="evenodd" d="M904.016 352.656C904.69 351.68 906.426 351.71 907.405 352.386C908.383 353.062 908.63 354.401 907.956 355.377C907.282 356.353 905.514 357.218 904.535 356.542C903.556 355.866 903.342 353.632 904.016 352.656Z" fill="#1B3D79"/>
<path fill-rule="evenodd" clip-rule="evenodd" d="M895.856 347.021C896.53 346.045 898.275 346.081 899.254 346.757C900.224 347.427 900.471 348.766 899.797 349.742C899.123 350.718 897.354 351.583 896.384 350.913C895.405 350.237 895.183 347.997 895.856 347.021Z" fill="#1B3D79"/>
<path fill-rule="evenodd" clip-rule="evenodd" d="M887.706 341.392C888.379 340.416 890.116 340.447 891.094 341.123C892.073 341.798 892.32 343.138 891.646 344.113C890.972 345.089 889.204 345.954 888.225 345.278C887.246 344.602 887.032 342.368 887.706 341.392Z" fill="#1B3D79"/>
<path fill-rule="evenodd" clip-rule="evenodd" d="M879.546 335.758C880.22 334.782 881.965 334.818 882.944 335.494C883.922 336.17 884.161 337.503 883.487 338.479C882.813 339.455 881.053 340.325 880.074 339.649C879.095 338.973 878.872 336.733 879.546 335.758Z" fill="#1B3D79"/>
<path fill-rule="evenodd" clip-rule="evenodd" d="M871.395 330.129C872.069 329.153 873.814 329.189 874.784 329.859C875.763 330.535 876.01 331.874 875.336 332.85C874.662 333.826 872.893 334.69 871.915 334.015C870.944 333.344 870.721 331.105 871.395 330.129Z" fill="#1B3D79"/>
<path fill-rule="evenodd" clip-rule="evenodd" d="M863.244 324.5C863.918 323.524 865.655 323.554 866.633 324.23C867.612 324.906 867.859 326.245 867.185 327.221C866.511 328.197 864.742 329.062 863.764 328.386C862.785 327.71 862.571 325.476 863.244 324.5Z" fill="#1B3D79"/>
<path fill-rule="evenodd" clip-rule="evenodd" d="M855.085 318.865C855.759 317.889 857.504 317.925 858.482 318.601C859.453 319.271 859.699 320.61 859.026 321.586C858.352 322.562 856.583 323.427 855.613 322.757C854.634 322.081 854.411 319.841 855.085 318.865Z" fill="#1B3D79"/>
<path fill-rule="evenodd" clip-rule="evenodd" d="M846.934 313.236C847.608 312.26 849.344 312.291 850.323 312.967C851.302 313.643 851.549 314.982 850.875 315.958C850.201 316.933 848.432 317.798 847.453 317.122C846.475 316.446 846.26 314.212 846.934 313.236Z" fill="#1B3D79"/>
<path fill-rule="evenodd" clip-rule="evenodd" d="M830.624 301.973C831.298 300.997 833.043 301.033 834.013 301.703C834.992 302.379 835.238 303.718 834.564 304.694C833.891 305.67 832.122 306.535 831.143 305.859C830.173 305.188 829.95 302.949 830.624 301.973Z" fill="#1B3D79"/>
<path fill-rule="evenodd" clip-rule="evenodd" d="M822.473 296.344C823.147 295.368 824.883 295.398 825.862 296.074C826.841 296.75 827.088 298.089 826.414 299.065C825.74 300.041 823.971 300.906 822.992 300.23C822.014 299.554 821.799 297.32 822.473 296.344Z" fill="#1B3D79"/>
<path fill-rule="evenodd" clip-rule="evenodd" d="M814.314 290.709C814.988 289.733 816.732 289.769 817.711 290.445C818.69 291.121 818.928 292.455 818.254 293.43C817.58 294.406 815.82 295.277 814.841 294.601C813.863 293.925 813.64 291.685 814.314 290.709Z" fill="#1B3D79"/>
<path fill-rule="evenodd" clip-rule="evenodd" d="M806.163 285.08C806.837 284.105 808.582 284.141 809.552 284.811C810.531 285.487 810.777 286.826 810.103 287.802C809.429 288.778 807.661 289.642 806.682 288.966C805.712 288.296 805.489 286.056 806.163 285.08Z" fill="#1B3D79"/>
<path fill-rule="evenodd" clip-rule="evenodd" d="M798.004 279.446C798.678 278.47 800.422 278.506 801.401 279.182C802.38 279.858 802.626 281.197 801.953 282.173C801.279 283.149 799.51 284.013 798.531 283.337C797.553 282.661 797.33 280.422 798.004 279.446Z" fill="#1B3D79"/>
<path fill-rule="evenodd" clip-rule="evenodd" d="M789.853 273.817C790.527 272.841 792.271 272.877 793.25 273.553C794.22 274.223 794.467 275.562 793.793 276.538C793.119 277.514 791.351 278.379 790.38 277.709C789.402 277.033 789.179 274.793 789.853 273.817Z" fill="#1B3D79"/>
<path fill-rule="evenodd" clip-rule="evenodd" d="M998.874 407.114C999.548 406.138 1001.29 406.172 1002.27 406.847C1003.24 407.522 1003.49 408.86 1002.82 409.836C1002.14 410.812 1000.37 411.677 999.396 411.002C998.419 410.328 998.2 408.09 998.874 407.114Z" fill="#1B3D79"/>
<path fill-rule="evenodd" clip-rule="evenodd" d="M990.719 401.483C991.393 400.507 993.134 400.541 994.111 401.215C995.088 401.89 995.334 403.229 994.66 404.204C993.986 405.18 992.218 406.046 991.241 405.371C990.264 404.696 990.045 402.458 990.719 401.483Z" fill="#1B3D79"/>
<path fill-rule="evenodd" clip-rule="evenodd" d="M982.565 395.852C983.239 394.876 984.98 394.91 985.957 395.585C986.935 396.259 987.18 397.598 986.506 398.574C985.833 399.55 984.065 400.415 983.088 399.74C982.111 399.065 981.891 396.828 982.565 395.852Z" fill="#1B3D79"/>
<path fill-rule="evenodd" clip-rule="evenodd" d="M966.257 384.59C966.931 383.614 968.672 383.647 969.649 384.322C970.626 384.997 970.872 386.335 970.198 387.311C969.524 388.287 967.756 389.152 966.779 388.478C965.802 387.803 965.583 385.565 966.257 384.59Z" fill="#1B3D79"/>
<path fill-rule="evenodd" clip-rule="evenodd" d="M958.104 378.96C958.778 377.984 960.514 378.014 961.495 378.691C962.472 379.366 962.718 380.704 962.044 381.68C961.37 382.656 959.602 383.521 958.625 382.847C957.645 382.17 957.43 379.936 958.104 378.96Z" fill="#1B3D79"/>
<path fill-rule="evenodd" clip-rule="evenodd" d="M918.358 384.201C919.032 383.225 920.768 383.255 921.747 383.931C922.726 384.607 922.973 385.946 922.299 386.922C921.625 387.898 919.856 388.762 918.877 388.086C917.899 387.41 917.684 385.176 918.358 384.201Z" fill="#1B3D79"/>
<path fill-rule="evenodd" clip-rule="evenodd" d="M931.675 382.349C932.349 381.374 934.093 381.41 935.072 382.086C936.042 382.756 936.289 384.095 935.615 385.071C934.941 386.047 933.173 386.911 932.202 386.241C931.224 385.565 931.001 383.325 931.675 382.349Z" fill="#1B3D79"/>
<path fill-rule="evenodd" clip-rule="evenodd" d="M949.945 373.325C950.619 372.349 952.363 372.385 953.342 373.061C954.321 373.737 954.559 375.07 953.885 376.046C953.211 377.022 951.451 377.892 950.472 377.217C949.494 376.541 949.271 374.301 949.945 373.325Z" fill="#1B3D79"/>
<path fill-rule="evenodd" clip-rule="evenodd" d="M941.794 367.696C942.468 366.72 944.212 366.756 945.191 367.432C946.162 368.102 946.408 369.441 945.734 370.417C945.06 371.393 943.292 372.258 942.322 371.588C941.343 370.912 941.12 368.672 941.794 367.696Z" fill="#1B3D79"/>
<path fill-rule="evenodd" clip-rule="evenodd" d="M933.643 362.067C934.317 361.091 936.053 361.122 937.032 361.798C938.011 362.473 938.257 363.813 937.583 364.788C936.91 365.764 935.141 366.629 934.162 365.953C933.183 365.277 932.969 363.043 933.643 362.067Z" fill="#1B3D79"/>
<path fill-rule="evenodd" clip-rule="evenodd" d="M925.484 356.433C926.158 355.457 927.902 355.493 928.881 356.169C929.86 356.845 930.098 358.178 929.424 359.154C928.75 360.13 926.99 361 926.011 360.324C925.033 359.648 924.81 357.408 925.484 356.433Z" fill="#1B3D79"/>
<path fill-rule="evenodd" clip-rule="evenodd" d="M917.333 350.804C918.007 349.828 919.751 349.864 920.722 350.534C921.701 351.21 921.947 352.549 921.273 353.525C920.599 354.501 918.831 355.365 917.852 354.69C916.882 354.019 916.659 351.78 917.333 350.804Z" fill="#1B3D79"/>
<path fill-rule="evenodd" clip-rule="evenodd" d="M909.182 345.175C909.856 344.199 911.592 344.229 912.571 344.905C913.55 345.581 913.796 346.92 913.122 347.896C912.448 348.872 910.68 349.737 909.701 349.061C908.722 348.385 908.508 346.151 909.182 345.175Z" fill="#1B3D79"/>
<path fill-rule="evenodd" clip-rule="evenodd" d="M901.023 339.54C901.697 338.564 903.441 338.6 904.42 339.276C905.39 339.946 905.637 341.286 904.963 342.261C904.289 343.237 902.521 344.102 901.55 343.432C900.571 342.756 900.349 340.516 901.023 339.54Z" fill="#1B3D79"/>
<path fill-rule="evenodd" clip-rule="evenodd" d="M892.872 333.911C893.546 332.935 895.282 332.966 896.261 333.642C897.239 334.318 897.486 335.657 896.812 336.633C896.138 337.608 894.37 338.473 893.391 337.797C892.412 337.121 892.198 334.887 892.872 333.911Z" fill="#1B3D79"/>
<path fill-rule="evenodd" clip-rule="evenodd" d="M884.712 328.277C885.386 327.301 887.131 327.337 888.11 328.013C889.088 328.689 889.327 330.022 888.653 330.998C887.979 331.974 886.219 332.844 885.24 332.168C884.261 331.492 884.038 329.253 884.712 328.277Z" fill="#1B3D79"/>
<path fill-rule="evenodd" clip-rule="evenodd" d="M876.561 322.648C877.235 321.672 878.98 321.708 879.95 322.378C880.929 323.054 881.176 324.393 880.502 325.369C879.828 326.345 878.059 327.21 877.081 326.534C876.11 325.863 875.888 323.624 876.561 322.648Z" fill="#1B3D79"/>
<path fill-rule="evenodd" clip-rule="evenodd" d="M868.411 317.019C869.085 316.043 870.821 316.073 871.799 316.749C872.778 317.425 873.025 318.764 872.351 319.74C871.677 320.716 869.909 321.581 868.93 320.905C867.951 320.229 867.737 317.995 868.411 317.019Z" fill="#1B3D79"/>
<path fill-rule="evenodd" clip-rule="evenodd" d="M860.251 311.384C860.925 310.408 862.67 310.445 863.649 311.121C864.619 311.791 864.866 313.13 864.192 314.106C863.518 315.081 861.749 315.946 860.779 315.276C859.8 314.6 859.577 312.36 860.251 311.384Z" fill="#1B3D79"/>
<path fill-rule="evenodd" clip-rule="evenodd" d="M852.1 305.756C852.774 304.78 854.511 304.81 855.489 305.486C856.468 306.162 856.715 307.501 856.041 308.477C855.367 309.453 853.598 310.317 852.62 309.641C851.641 308.965 851.426 306.731 852.1 305.756Z" fill="#1B3D79"/>
<path fill-rule="evenodd" clip-rule="evenodd" d="M843.941 300.121C844.615 299.145 846.36 299.181 847.338 299.857C848.317 300.533 848.564 301.872 847.89 302.848C847.216 303.824 845.447 304.688 844.469 304.012C843.49 303.337 843.267 301.097 843.941 300.121Z" fill="#1B3D79"/>
<path fill-rule="evenodd" clip-rule="evenodd" d="M835.79 294.492C836.464 293.516 838.209 293.552 839.179 294.222C840.158 294.898 840.405 296.237 839.731 297.213C839.057 298.189 837.288 299.054 836.309 298.378C835.339 297.708 835.116 295.468 835.79 294.492Z" fill="#1B3D79"/>
<path fill-rule="evenodd" clip-rule="evenodd" d="M819.48 283.228C820.154 282.253 821.899 282.289 822.877 282.965C823.856 283.641 824.094 284.974 823.42 285.95C822.746 286.925 820.986 287.796 820.008 287.12C819.029 286.444 818.806 284.204 819.48 283.228Z" fill="#1B3D79"/>
<path fill-rule="evenodd" clip-rule="evenodd" d="M869.428 350.41C870.101 349.434 871.846 349.47 872.825 350.146C873.804 350.822 874.042 352.155 873.368 353.131C872.694 354.107 870.934 354.978 869.955 354.302C868.976 353.626 868.754 351.386 869.428 350.41Z" fill="#1B3D79"/>
<path fill-rule="evenodd" clip-rule="evenodd" d="M861.277 344.781C861.951 343.805 863.695 343.841 864.666 344.511C865.644 345.187 865.891 346.526 865.217 347.502C864.543 348.478 862.775 349.343 861.796 348.667C860.825 347.997 860.603 345.757 861.277 344.781Z" fill="#1B3D79"/>
<path fill-rule="evenodd" clip-rule="evenodd" d="M850.132 326.038C850.806 325.062 852.551 325.098 853.529 325.774C854.5 326.444 854.746 327.783 854.072 328.759C853.399 329.735 851.63 330.599 850.66 329.929C849.681 329.253 849.458 327.013 850.132 326.038Z" fill="#1B3D79"/>
<path fill-rule="evenodd" clip-rule="evenodd" d="M841.981 320.409C842.655 319.433 844.391 319.463 845.37 320.139C846.349 320.815 846.595 322.154 845.922 323.13C845.248 324.106 843.479 324.971 842.5 324.295C841.522 323.619 841.307 321.385 841.981 320.409Z" fill="#1B3D79"/>
<path fill-rule="evenodd" clip-rule="evenodd" d="M838.987 307.294C839.661 306.318 841.406 306.354 842.385 307.03C843.363 307.706 843.61 309.045 842.936 310.021C842.262 310.997 840.494 311.862 839.515 311.186C838.536 310.51 838.313 308.27 838.987 307.294Z" fill="#1B3D79"/>
<path fill-rule="evenodd" clip-rule="evenodd" d="M827.851 288.557C828.524 287.581 830.261 287.612 831.239 288.288C832.218 288.963 832.465 290.303 831.791 291.278C831.117 292.254 829.349 293.119 828.37 292.443C827.391 291.767 827.177 289.533 827.851 288.557Z" fill="#1B3D79"/>
<path fill-rule="evenodd" clip-rule="evenodd" d="M811.329 277.6C812.003 276.624 813.748 276.66 814.718 277.33C815.697 278.006 815.943 279.345 815.27 280.321C814.596 281.297 812.827 282.161 811.848 281.485C810.878 280.815 810.655 278.575 811.329 277.6Z" fill="#1B3D79"/>
<path fill-rule="evenodd" clip-rule="evenodd" d="M803.17 271.965C803.844 270.989 805.588 271.025 806.567 271.701C807.546 272.377 807.793 273.716 807.119 274.692C806.445 275.668 804.676 276.532 803.697 275.857C802.719 275.181 802.496 272.941 803.17 271.965Z" fill="#1B3D79"/>
<path fill-rule="evenodd" clip-rule="evenodd" d="M795.019 266.336C795.693 265.36 797.437 265.396 798.416 266.072C799.387 266.742 799.633 268.081 798.959 269.057C798.285 270.033 796.517 270.898 795.547 270.228C794.568 269.552 794.345 267.312 795.019 266.336Z" fill="#1B3D79"/>
<path fill-rule="evenodd" clip-rule="evenodd" d="M1004.04 399.634C1004.71 398.658 1006.45 398.692 1007.43 399.367C1008.41 400.042 1008.65 401.38 1007.98 402.356C1007.31 403.332 1005.54 404.197 1004.56 403.522C1003.58 402.848 1003.37 400.61 1004.04 399.634Z" fill="#1B3D79"/>
<path fill-rule="evenodd" clip-rule="evenodd" d="M987.731 388.372C988.405 387.396 990.146 387.43 991.123 388.105C992.1 388.779 992.346 390.118 991.672 391.094C990.998 392.07 989.23 392.935 988.253 392.26C987.276 391.585 987.057 389.348 987.731 388.372Z" fill="#1B3D79"/>
<path fill-rule="evenodd" clip-rule="evenodd" d="M979.577 382.741C980.25 381.765 981.992 381.799 982.969 382.473C983.946 383.148 984.192 384.487 983.518 385.463C982.844 386.438 981.076 387.304 980.099 386.629C979.122 385.954 978.903 383.717 979.577 382.741Z" fill="#1B3D79"/>
<path fill-rule="evenodd" clip-rule="evenodd" d="M971.422 377.11C972.096 376.134 973.837 376.168 974.815 376.842C975.792 377.517 976.037 378.856 975.364 379.831C974.69 380.807 972.922 381.673 971.945 380.998C970.968 380.323 970.748 378.086 971.422 377.11Z" fill="#1B3D79"/>
<path fill-rule="evenodd" clip-rule="evenodd" d="M955.11 365.845C955.784 364.869 957.529 364.905 958.508 365.581C959.486 366.257 959.725 367.59 959.051 368.566C958.377 369.542 956.617 370.413 955.638 369.737C954.659 369.061 954.436 366.821 955.11 365.845Z" fill="#1B3D79"/>
<path fill-rule="evenodd" clip-rule="evenodd" d="M946.959 360.216C947.633 359.24 949.378 359.276 950.357 359.952C951.327 360.622 951.574 361.961 950.9 362.937C950.226 363.913 948.457 364.778 947.487 364.108C946.508 363.432 946.286 361.192 946.959 360.216Z" fill="#1B3D79"/>
<path fill-rule="evenodd" clip-rule="evenodd" d="M938.809 354.587C939.483 353.611 941.219 353.642 942.197 354.318C943.176 354.993 943.423 356.333 942.749 357.308C942.075 358.284 940.307 359.149 939.328 358.473C938.349 357.797 938.135 355.563 938.809 354.587Z" fill="#1B3D79"/>
<path fill-rule="evenodd" clip-rule="evenodd" d="M930.649 348.953C931.323 347.977 933.068 348.013 934.047 348.689C935.025 349.365 935.264 350.698 934.59 351.674C933.916 352.65 932.156 353.52 931.177 352.844C930.198 352.168 929.975 349.928 930.649 348.953Z" fill="#1B3D79"/>
<path fill-rule="evenodd" clip-rule="evenodd" d="M922.498 343.324C923.172 342.348 924.917 342.384 925.887 343.054C926.866 343.73 927.113 345.069 926.439 346.045C925.765 347.021 923.996 347.885 923.018 347.209C922.047 346.539 921.824 344.3 922.498 343.324Z" fill="#1B3D79"/>
<path fill-rule="evenodd" clip-rule="evenodd" d="M914.347 337.695C915.021 336.719 916.758 336.749 917.736 337.425C918.715 338.101 918.962 339.44 918.288 340.416C917.614 341.392 915.845 342.257 914.867 341.581C913.888 340.905 913.674 338.671 914.347 337.695Z" fill="#1B3D79"/>
<path fill-rule="evenodd" clip-rule="evenodd" d="M906.188 332.06C906.862 331.084 908.607 331.12 909.585 331.796C910.556 332.466 910.802 333.806 910.129 334.781C909.455 335.757 907.686 336.622 906.716 335.952C905.737 335.276 905.514 333.036 906.188 332.06Z" fill="#1B3D79"/>
<path fill-rule="evenodd" clip-rule="evenodd" d="M898.037 326.431C898.711 325.455 900.447 325.486 901.426 326.162C902.405 326.838 902.652 328.177 901.978 329.152C901.304 330.128 899.535 330.993 898.556 330.317C897.578 329.641 897.363 327.407 898.037 326.431Z" fill="#1B3D79"/>
<path fill-rule="evenodd" clip-rule="evenodd" d="M889.878 320.797C890.552 319.821 892.297 319.857 893.275 320.533C894.254 321.209 894.492 322.542 893.818 323.518C893.144 324.494 891.384 325.364 890.406 324.688C889.427 324.012 889.204 321.773 889.878 320.797Z" fill="#1B3D79"/>
<path fill-rule="evenodd" clip-rule="evenodd" d="M881.727 315.168C882.401 314.192 884.146 314.228 885.116 314.898C886.095 315.574 886.341 316.913 885.667 317.889C884.994 318.865 883.225 319.73 882.246 319.054C881.276 318.384 881.053 316.144 881.727 315.168Z" fill="#1B3D79"/>
<path fill-rule="evenodd" clip-rule="evenodd" d="M873.576 309.539C874.25 308.563 875.986 308.593 876.965 309.269C877.944 309.945 878.191 311.284 877.517 312.26C876.843 313.236 875.074 314.101 874.095 313.425C873.117 312.749 872.902 310.515 873.576 309.539Z" fill="#1B3D79"/>
<path fill-rule="evenodd" clip-rule="evenodd" d="M865.417 303.904C866.091 302.928 867.835 302.965 868.814 303.64C869.785 304.311 870.031 305.65 869.357 306.625C868.683 307.601 866.915 308.466 865.944 307.796C864.966 307.12 864.743 304.88 865.417 303.904Z" fill="#1B3D79"/>
<path fill-rule="evenodd" clip-rule="evenodd" d="M857.266 298.275C857.94 297.3 859.676 297.33 860.655 298.006C861.634 298.682 861.88 300.021 861.206 300.997C860.532 301.973 858.764 302.837 857.785 302.161C856.806 301.485 856.592 299.251 857.266 298.275Z" fill="#1B3D79"/>
<path fill-rule="evenodd" clip-rule="evenodd" d="M849.107 292.641C849.781 291.665 851.525 291.701 852.504 292.377C853.483 293.053 853.729 294.392 853.055 295.368C852.382 296.344 850.613 297.208 849.634 296.532C848.655 295.856 848.433 293.617 849.107 292.641Z" fill="#1B3D79"/>
<path fill-rule="evenodd" clip-rule="evenodd" d="M840.956 287.012C841.63 286.036 843.374 286.072 844.345 286.742C845.323 287.418 845.57 288.757 844.896 289.733C844.222 290.709 842.454 291.574 841.475 290.898C840.505 290.228 840.282 287.988 840.956 287.012Z" fill="#1B3D79"/>
<path fill-rule="evenodd" clip-rule="evenodd" d="M832.805 281.383C833.479 280.407 835.215 280.437 836.194 281.113C837.173 281.789 837.419 283.128 836.745 284.104C836.071 285.08 834.303 285.945 833.324 285.269C832.345 284.593 832.131 282.359 832.805 281.383Z" fill="#1B3D79"/>
<path fill-rule="evenodd" clip-rule="evenodd" d="M816.495 270.12C817.169 269.144 818.913 269.18 819.883 269.85C820.862 270.526 821.109 271.865 820.435 272.841C819.761 273.817 817.993 274.681 817.014 274.005C816.043 273.335 815.821 271.095 816.495 270.12Z" fill="#1B3D79"/>
<path fill-rule="evenodd" clip-rule="evenodd" d="M808.335 264.485C809.009 263.509 810.754 263.545 811.733 264.221C812.711 264.897 812.958 266.236 812.284 267.212C811.61 268.188 809.842 269.052 808.863 268.376C807.884 267.701 807.661 265.461 808.335 264.485Z" fill="#1B3D79"/>
<path fill-rule="evenodd" clip-rule="evenodd" d="M800.184 258.856C800.858 257.88 802.603 257.916 803.582 258.592C804.552 259.262 804.799 260.601 804.125 261.577C803.451 262.553 801.682 263.418 800.712 262.748C799.733 262.072 799.51 259.832 800.184 258.856Z" fill="#1B3D79"/>
<path fill-rule="evenodd" clip-rule="evenodd" d="M792.034 253.227C792.708 252.251 794.444 252.282 795.422 252.958C796.401 253.634 796.648 254.973 795.974 255.948C795.3 256.924 793.532 257.789 792.553 257.113C791.574 256.437 791.36 254.203 792.034 253.227Z" fill="#1B3D79"/>
</g>
<defs>
<filter id="filter0_d" x="681.132" y="214.912" width="387.078" height="348.632" filterUnits="userSpaceOnUse" color-interpolation-filters="sRGB">
<feFlood flood-opacity="0" result="BackgroundImageFix"/>
<feColorMatrix in="SourceAlpha" type="matrix" values="0 0 0 0 0 0 0 0 0 0 0 0 0 0 0 0 0 0 127 0"/>
<feOffset dy="10"/>
<feGaussianBlur stdDeviation="4.5"/>
<feColorMatrix type="matrix" values="0 0 0 0 0.0237674 0 0 0 0 0.0706098 0 0 0 0 0.154167 0 0 0 0.14 0"/>
<feBlend mode="normal" in2="BackgroundImageFix" result="effect1_dropShadow"/>
<feBlend mode="normal" in="SourceGraphic" in2="effect1_dropShadow" result="shape"/>
</filter>
<clipPath id="clip0">
<rect width="1208" height="759" fill="white"/>
</clipPath>
</defs>
</svg>
