<svg width="1440" height="789" viewBox="0 0 1440 789" fill="none" xmlns="http://www.w3.org/2000/svg">
<g clip-path="url(#clip0)">
<rect width="1440" height="789" fill="url(#paint0_linear)"/>
<g opacity="0.36">
<path d="M229.859 253.631C273.313 333.245 272.002 436.301 213.796 505.625C155.937 574.882 40.4907 610.542 -23.6661 574.606C-88.1697 538.738 -101.73 431.342 -87.494 333.724C-73.5374 236.52 -31.7841 149.094 33.2353 133.642C98.1875 117.842 186.406 174.016 229.859 253.631Z" fill="#071E48"/>
<path d="M215.058 263.401C254.323 335.343 253.139 428.467 200.543 491.11C148.26 553.692 43.9399 585.915 -14.0336 553.443C-72.3206 521.031 -84.5742 423.986 -71.71 335.776C-59.0985 247.94 -21.3693 168.94 37.3838 154.977C96.0761 140.699 175.792 191.46 215.058 263.401Z" fill="#092353"/>
<path d="M202.385 271.768C238.064 337.14 236.988 421.759 189.195 478.682C141.687 535.549 46.8933 564.829 -5.78607 535.322C-58.7502 505.87 -69.8848 417.687 -58.1954 337.533C-46.7356 257.718 -12.4518 185.932 40.9359 173.244C94.2684 160.271 166.705 206.395 202.385 271.768Z" fill="#0B285C"/>
<path d="M188.23 281.112C219.905 339.146 218.949 414.267 176.521 464.8C134.345 515.284 50.192 541.278 3.42577 515.083C-43.5933 488.937 -53.4781 410.652 -43.1008 339.495C-32.9273 268.639 -2.49174 204.911 44.9033 193.647C92.2494 182.13 156.555 223.077 188.23 281.112Z" fill="#0F2E67"/>
<path d="M175.158 289.74C203.135 340.999 202.291 407.349 164.817 451.981C127.566 496.571 53.238 519.529 11.9322 496.393C-29.5969 473.3 -38.3275 404.156 -29.1619 341.307C-20.1763 278.724 6.7056 222.437 48.5668 212.488C90.3847 202.316 147.182 238.482 175.158 289.74Z" fill="#113473"/>
<path d="M164.143 297.013C189.002 342.56 188.252 401.518 154.953 441.178C121.852 480.8 55.8054 501.2 19.1016 480.642C-17.8008 460.122 -25.5587 398.681 -17.4142 342.834C-9.42969 287.224 14.4573 237.208 51.6547 228.367C88.8136 219.328 139.283 251.465 164.143 297.013Z" fill="#143879"/>
<path d="M153.504 304.035C175.353 344.068 174.694 395.887 145.427 430.745C116.334 465.569 58.2844 483.5 26.0248 465.431C-6.40934 447.395 -13.2279 393.394 -6.06958 344.309C0.948149 295.432 21.9428 251.472 54.6362 243.702C87.2959 235.757 131.654 264.003 153.504 304.035Z" fill="#183D81"/>
<path d="M142.16 311.524C160.801 345.676 160.238 389.883 135.27 419.621C110.451 449.329 60.9279 464.626 33.4069 449.211C5.73712 433.825 -0.0798705 387.756 6.02697 345.881C12.0139 304.184 29.9246 266.681 57.8156 260.053C85.6779 253.275 123.52 277.372 142.16 311.524Z" fill="#1D4389"/>
</g>
<g opacity="0.36">
<path d="M1452.93 111.583C1432.53 186.467 1370.55 249.188 1293.42 257.307C1216.54 265.59 1124.02 218.943 1105.69 158.666C1087.11 98.2253 1142.48 23.991 1209.22 -27.6966C1275.55 -79.295 1353.25 -108.347 1402.62 -79.2213C1452.14 -50.3501 1473.33 36.6983 1452.93 111.583Z" fill="#231B63"/>
<path d="M1439.94 109.17C1421.25 177.783 1364.46 235.251 1293.79 242.69C1223.35 250.28 1138.57 207.538 1121.78 152.31C1104.75 96.9306 1155.49 28.9131 1216.64 -18.446C1277.41 -65.7232 1348.61 -92.342 1393.84 -65.6557C1439.22 -39.2023 1458.63 40.5563 1439.94 109.17Z" fill="#29206F"/>
<path d="M1424.75 106.347C1408.06 167.627 1357.33 218.952 1294.22 225.596C1231.31 232.375 1155.59 194.202 1140.6 144.877C1125.39 95.4166 1170.7 34.6693 1225.32 -7.62776C1279.59 -49.8517 1343.18 -73.6253 1383.58 -49.7914C1424.11 -26.1655 1441.44 45.0679 1424.75 106.347Z" fill="#2D2477"/>
<path d="M1409.99 103.606C1395.24 157.76 1350.41 203.118 1294.64 208.99C1239.04 214.98 1172.13 181.246 1158.88 137.655C1145.44 93.946 1185.48 40.2617 1233.75 2.88257C1281.71 -34.432 1337.91 -55.4415 1373.6 -34.3787C1409.42 -13.4998 1424.74 49.4513 1409.99 103.606Z" fill="#31287E"/>
<path d="M1394.88 100.798C1382.12 147.657 1343.33 186.905 1295.07 191.985C1246.96 197.168 1189.06 167.979 1177.59 130.261C1165.97 92.4399 1200.61 45.9879 1242.38 13.6444C1283.88 -18.6432 1332.51 -36.8223 1363.4 -18.5971C1394.39 -0.53095 1407.64 53.9395 1394.88 100.798Z" fill="#382F88"/>
<path d="M1380.71 98.1665C1369.81 138.186 1336.69 171.704 1295.47 176.043C1254.38 180.47 1204.94 155.541 1195.14 123.328C1185.21 91.028 1214.8 51.3563 1250.47 23.7337C1285.92 -3.84107 1327.44 -19.3667 1353.82 -3.8017C1380.29 11.6274 1391.61 58.1472 1380.71 98.1665Z" fill="#3E358F"/>
</g>
</g>
<defs>
<linearGradient id="paint0_linear" x1="755" y1="394" x2="1643" y2="974" gradientUnits="userSpaceOnUse">
<stop stop-color="#020E24"/>
<stop offset="1" stop-color="#2A0954"/>
</linearGradient>
<clipPath id="clip0">
<rect width="1440" height="789" fill="white"/>
</clipPath>
</defs>
</svg>
