<svg width="1440" height="789" viewBox="0 0 1440 789" fill="none" xmlns="http://www.w3.org/2000/svg">
<g clip-path="url(#clip0)">
<rect width="1440" height="789" fill="url(#paint0_linear)"/>
<g opacity="0.36">
<path d="M452.834 232.941C509.013 335.871 507.318 469.106 432.067 558.732C357.265 648.271 208.01 694.373 125.065 647.914C41.6714 601.541 24.1398 462.695 42.545 336.489C60.5887 210.82 114.569 97.7911 198.63 77.8137C282.603 57.3866 396.656 130.011 452.834 232.941Z" fill="#071E48"/>
<path d="M433.698 245.573C484.463 338.583 482.931 458.978 414.932 539.965C347.339 620.875 212.469 662.534 137.518 620.552C62.1619 578.649 46.3199 453.184 62.9513 339.142C79.256 225.584 128.034 123.449 203.993 105.397C279.873 86.9383 382.934 152.563 433.698 245.573Z" fill="#092353"/>
<path d="M417.314 256.389C463.442 340.905 462.05 450.306 400.262 523.897C338.841 597.418 216.287 635.273 148.181 597.125C79.7064 559.049 65.311 445.041 80.4237 341.413C95.2394 238.226 139.563 145.417 208.585 129.014C277.536 112.241 371.185 171.873 417.314 256.389Z" fill="#0B285C"/>
<path d="M399.014 268.47C439.965 343.499 438.729 440.62 383.876 505.951C329.349 571.219 220.552 604.824 160.09 570.959C99.3018 537.156 86.5223 435.946 99.9386 343.95C113.091 252.345 152.44 169.954 213.714 155.392C274.926 140.502 358.063 193.44 399.014 268.47Z" fill="#0F2E67"/>
<path d="M382.115 279.625C418.284 345.894 417.193 431.675 368.744 489.378C320.584 547.026 224.49 576.707 171.088 546.796C117.397 516.94 106.11 427.547 117.96 346.293C129.577 265.383 164.331 192.612 218.451 179.75C272.515 166.599 345.945 213.356 382.115 279.625Z" fill="#113473"/>
<path d="M367.873 289.027C400.012 347.913 399.043 424.137 355.992 475.411C313.198 526.636 227.809 553.011 180.357 526.432C132.648 499.903 122.618 420.469 133.147 348.267C143.47 276.372 174.352 211.708 222.443 200.279C270.484 188.593 335.733 230.141 367.873 289.027Z" fill="#143879"/>
<path d="M354.118 298.107C382.367 349.863 381.514 416.857 343.676 461.923C306.063 506.945 231.014 530.127 189.307 506.766C147.375 483.449 138.56 413.633 147.814 350.174C156.887 286.984 184.03 230.15 226.298 220.105C268.522 209.834 325.87 246.351 354.118 298.107Z" fill="#183D81"/>
<path d="M339.453 307.788C363.552 351.941 362.825 409.094 330.545 447.541C298.457 485.95 234.432 505.726 198.851 485.797C163.079 465.905 155.558 406.344 163.453 352.206C171.193 298.299 194.349 249.813 230.408 241.244C266.43 232.481 315.354 263.634 339.453 307.788Z" fill="#1D4389"/>
</g>
<g opacity="0.36">
<path d="M1452.93 111.583C1432.53 186.467 1370.55 249.188 1293.42 257.307C1216.54 265.59 1124.02 218.943 1105.69 158.666C1087.11 98.2253 1142.48 23.991 1209.22 -27.6966C1275.55 -79.295 1353.25 -108.347 1402.62 -79.2213C1452.14 -50.3501 1473.33 36.6983 1452.93 111.583Z" fill="#231B63"/>
<path d="M1439.94 109.17C1421.25 177.783 1364.46 235.251 1293.79 242.69C1223.35 250.28 1138.57 207.538 1121.78 152.31C1104.75 96.9306 1155.49 28.9131 1216.64 -18.446C1277.41 -65.7232 1348.61 -92.342 1393.84 -65.6557C1439.22 -39.2023 1458.63 40.5563 1439.94 109.17Z" fill="#29206F"/>
<path d="M1424.75 106.347C1408.06 167.627 1357.33 218.952 1294.22 225.596C1231.31 232.375 1155.59 194.202 1140.6 144.877C1125.39 95.4166 1170.7 34.6693 1225.32 -7.62776C1279.59 -49.8517 1343.18 -73.6253 1383.58 -49.7914C1424.11 -26.1655 1441.44 45.0679 1424.75 106.347Z" fill="#2D2477"/>
<path d="M1409.99 103.606C1395.24 157.76 1350.41 203.118 1294.64 208.99C1239.04 214.98 1172.13 181.246 1158.88 137.655C1145.44 93.946 1185.48 40.2617 1233.75 2.88257C1281.71 -34.432 1337.91 -55.4415 1373.6 -34.3787C1409.42 -13.4998 1424.74 49.4513 1409.99 103.606Z" fill="#31287E"/>
<path d="M1394.88 100.798C1382.12 147.657 1343.33 186.905 1295.07 191.985C1246.96 197.168 1189.06 167.979 1177.59 130.261C1165.97 92.4399 1200.61 45.9879 1242.38 13.6444C1283.88 -18.6432 1332.51 -36.8223 1363.4 -18.5971C1394.39 -0.53095 1407.64 53.9395 1394.88 100.798Z" fill="#382F88"/>
<path d="M1380.71 98.1665C1369.81 138.186 1336.69 171.704 1295.47 176.043C1254.38 180.47 1204.94 155.541 1195.14 123.328C1185.21 91.028 1214.8 51.3563 1250.47 23.7337C1285.92 -3.84107 1327.44 -19.3667 1353.82 -3.8017C1380.29 11.6274 1391.61 58.1472 1380.71 98.1665Z" fill="#3E358F"/>
</g>
</g>
<defs>
<linearGradient id="paint0_linear" x1="755" y1="394" x2="1643" y2="974" gradientUnits="userSpaceOnUse">
<stop stop-color="#010712"/>
<stop offset="1" stop-color="#110224"/>
</linearGradient>
<clipPath id="clip0">
<rect width="1440" height="789" fill="white"/>
</clipPath>
</defs>
</svg>
