<svg width="1176" height="441" viewBox="0 0 1176 441" fill="none" xmlns="http://www.w3.org/2000/svg">
<g clip-path="url(#clip0)">
<rect width="1176" height="441" fill="white"/>
<rect width="1176" height="441" fill="#133166"/>
<path d="M999.716 208.293C1001.04 261.76 972.483 315.396 923.134 335.966C873.985 356.595 803.64 344.041 779.622 307.856C755.403 271.612 777.311 211.679 811.191 164.389C844.812 117.24 890.406 82.7348 928.772 92.2314C967.196 101.528 998.394 154.826 999.716 208.293Z" fill="#183975"/>
<path d="M993.304 208.978C994.547 259.276 967.685 309.732 921.261 329.083C875.026 348.489 808.851 336.679 786.257 302.639C763.474 268.544 784.083 212.163 815.955 167.676C847.583 123.323 890.473 90.8628 926.565 99.7965C962.712 108.542 992.06 158.68 993.304 208.978Z" fill="#1B3F7D"/>
<path d="M986.467 209.709C987.627 256.627 962.57 303.693 919.265 321.744C876.136 339.846 814.407 328.83 793.331 297.077C772.079 265.273 791.304 212.68 821.034 171.182C850.537 129.809 890.545 99.5298 924.212 107.863C957.931 116.021 985.307 162.791 986.467 209.709Z" fill="#1F4486"/>
<path d="M979.576 210.445C980.651 253.957 957.414 297.607 917.253 314.347C877.255 331.135 820.007 320.919 800.461 291.471C780.752 261.975 798.581 213.201 826.153 174.716C853.514 136.346 890.618 108.265 921.841 115.993C953.111 123.559 978.5 166.933 979.576 210.445Z" fill="#224A91"/>
<path d="M972.149 211.239C973.134 251.08 951.857 291.047 915.084 306.374C878.461 321.746 826.044 312.391 808.147 285.428C790.1 258.421 806.425 213.762 831.671 178.524C856.723 143.391 890.697 117.68 919.285 124.756C947.917 131.683 971.164 171.398 972.149 211.239Z" fill="#28519A"/>
<path d="M964.844 212.02C965.74 248.25 946.391 284.594 912.951 298.533C879.648 312.511 831.981 304.004 815.706 279.485C799.295 254.926 814.14 214.314 837.098 182.27C859.88 150.322 890.774 126.94 916.772 133.375C942.809 139.675 963.949 175.79 964.844 212.02Z" fill="#2C57A3"/>
<path d="M957.573 212.797C958.379 245.433 940.95 278.171 910.828 290.727C880.828 303.319 837.891 295.656 823.231 273.569C808.448 251.446 821.82 214.864 842.5 185.999C863.022 157.22 890.851 136.158 914.269 141.955C937.723 147.629 956.766 180.162 957.573 212.797Z" fill="#3260AF"/>
<path d="M157.716 208.293C159.037 261.76 130.483 315.396 81.1337 335.966C31.9848 356.595 -38.3601 344.041 -62.3781 307.856C-86.5966 271.612 -64.6887 211.679 -30.8086 164.389C2.81238 117.24 48.4055 82.7348 86.7715 92.2314C125.196 101.528 156.394 154.826 157.716 208.293Z" fill="#183975"/>
<path d="M151.304 208.978C152.547 259.276 125.685 309.732 79.2614 329.083C33.026 348.489 -33.149 336.679 -55.7433 302.639C-78.5262 268.544 -57.9169 212.163 -26.0451 167.676C5.58284 123.323 48.4733 90.8628 84.5651 99.7965C120.712 108.542 150.06 158.68 151.304 208.978Z" fill="#1B3F7D"/>
<path d="M144.467 209.709C145.627 256.627 120.57 303.693 77.2649 321.744C34.136 339.846 -27.5927 328.83 -48.6689 297.077C-69.921 265.273 -50.6965 212.68 -20.9661 171.182C8.53676 129.809 48.5454 99.5298 82.2122 107.863C115.931 116.021 143.307 162.791 144.467 209.709Z" fill="#1F4486"/>
<path d="M137.576 210.445C138.651 253.957 115.414 297.607 75.2527 314.347C35.2548 331.135 -21.9927 320.919 -41.5388 291.471C-61.2481 261.975 -43.4192 213.201 -15.8472 174.716C11.5139 136.346 48.6181 108.265 79.8408 115.993C111.111 123.559 136.5 166.933 137.576 210.445Z" fill="#224A91"/>
<path d="M130.149 211.239C131.134 251.08 109.857 291.047 73.0842 306.374C36.4611 321.746 -15.9563 312.391 -33.8532 285.428C-51.8996 258.421 -35.5749 213.762 -10.3293 178.524C14.7233 143.391 48.6969 117.68 77.2852 124.756C105.917 131.683 129.164 171.398 130.149 211.239Z" fill="#28519A"/>
<path d="M122.844 212.02C123.74 248.25 104.391 284.594 70.9514 298.533C37.6475 312.511 -10.019 304.004 -26.2939 279.485C-42.7047 254.926 -27.8596 214.314 -4.90202 182.27C17.8799 150.322 48.7744 126.94 74.7717 133.375C100.809 139.675 121.949 175.79 122.844 212.02Z" fill="#2C57A3"/>
<path d="M115.573 212.797C116.379 245.433 98.9502 278.171 68.8281 290.727C38.8284 303.319 -4.10914 295.656 -18.7694 273.569C-33.552 251.446 -20.1797 214.864 0.500219 185.999C21.0219 157.22 48.8513 136.158 72.2694 141.955C95.7233 147.629 114.766 180.162 115.573 212.797Z" fill="#3260AF"/>
</g>
<defs>
<clipPath id="clip0">
<rect width="1176" height="441" fill="white"/>
</clipPath>
</defs>
</svg>
