<svg width="1116" height="600" viewBox="0 0 1116 600" fill="none" xmlns="http://www.w3.org/2000/svg">
<g clip-path="url(#clip0)">
<rect width="1116" height="600" fill="white"/>
<rect width="1116" height="600" fill="#133166"/>
<path d="M1187.88 226.607C1202.44 316.629 1166.56 413.821 1087.93 459.942C1009.65 506.117 887.914 501.116 839.001 445.52C789.736 389.87 812.937 283.571 859.278 195.874C905.213 108.475 974.288 39.6766 1041.29 46.8802C1108.35 53.7318 1173.33 136.585 1187.88 226.607Z" fill="#183975"/>
<path d="M1177.21 229.242C1190.9 313.928 1157.15 405.358 1083.18 448.746C1009.54 492.183 895.021 487.479 849.008 435.178C802.663 382.827 824.489 282.83 868.083 200.33C911.295 118.112 976.275 53.3925 1039.31 60.169C1102.39 66.6145 1163.52 144.556 1177.21 229.242Z" fill="#1B3F7D"/>
<path d="M1165.83 232.052C1178.6 311.048 1147.11 396.335 1078.11 436.807C1009.42 477.327 902.6 472.938 859.678 424.151C816.446 375.318 836.806 282.039 877.471 205.083C917.78 128.389 978.394 68.0178 1037.19 74.339C1096.03 80.3514 1153.06 153.056 1165.83 232.052Z" fill="#1F4486"/>
<path d="M1154.36 234.884C1166.2 308.145 1137 387.24 1073.01 424.775C1009.3 462.352 910.237 458.283 870.431 413.038C830.339 367.749 849.221 281.242 886.933 209.873C924.316 138.747 980.529 82.7579 1035.06 88.6202C1089.63 94.1961 1142.51 161.623 1154.36 234.884Z" fill="#224A91"/>
<path d="M1141.99 237.936C1152.84 305.016 1126.1 377.438 1067.51 411.805C1009.18 446.212 918.471 442.486 882.023 401.058C845.313 359.591 862.602 280.383 897.133 215.035C931.361 149.91 982.832 98.6455 1032.76 104.013C1082.73 109.119 1131.15 170.856 1141.99 237.936Z" fill="#28519A"/>
<path d="M1129.83 240.938C1139.69 301.938 1115.38 367.796 1062.1 399.049C1009.06 430.338 926.568 426.949 893.424 389.276C860.041 351.567 875.763 279.538 907.164 220.113C938.291 160.89 985.096 114.272 1030.5 119.153C1075.94 123.796 1119.97 179.938 1129.83 240.938Z" fill="#2C57A3"/>
<path d="M1117.73 243.927C1126.61 298.875 1104.71 358.199 1056.71 386.351C1008.93 414.536 934.629 411.483 904.773 377.548C874.702 343.58 888.864 278.697 917.15 225.168C945.188 171.821 987.35 129.827 1028.25 134.224C1069.18 138.406 1108.84 188.979 1117.73 243.927Z" fill="#3260AF"/>
</g>
<defs>
<clipPath id="clip0">
<rect width="1116" height="600" fill="white"/>
</clipPath>
</defs>
</svg>
