<svg width="500" height="500" viewBox="0 0 500 500" fill="none" xmlns="http://www.w3.org/2000/svg">
<path d="M81.2201 219.64C61.8401 179.48 57.8201 131.96 98.4901 110.64C133.29 92.38 164.19 127.27 196.18 135.42C262.56 152.32 395.57 68.07 413.67 175.02C440.06 331 148.68 359.48 81.2201 219.64Z" fill="#2D0A59"/>
<path opacity="0.9" d="M81.2201 219.64C61.8401 179.48 57.8201 131.96 98.4901 110.64C133.29 92.38 164.19 127.27 196.18 135.42C262.56 152.32 395.57 68.07 413.67 175.02C440.06 331 148.68 359.48 81.2201 219.64Z" fill="#AB98C3"/>
<path d="M250 427.56C357.083 427.56 443.89 422.492 443.89 416.24C443.89 409.988 357.083 404.92 250 404.92C142.918 404.92 56.1101 409.988 56.1101 416.24C56.1101 422.492 142.918 427.56 250 427.56Z" fill="#AC9AC3"/>
<path d="M158.6 173C158.43 175.85 158.1 178.47 157.73 181.18C157.36 183.89 156.85 186.54 156.28 189.18C155.167 194.591 153.553 199.887 151.46 205L150.6 206.92L150.38 207.4L150.27 207.64C150.27 207.72 150.21 207.78 150.13 207.95C149.824 208.557 149.445 209.125 149 209.64C147.947 210.85 146.482 211.626 144.89 211.82C143.704 211.949 142.504 211.823 141.37 211.45C139.78 210.91 138.28 210.134 136.92 209.15C135.742 208.306 134.613 207.394 133.54 206.42C129.55 202.697 125.964 198.564 122.84 194.09L126.16 191.28C128.01 193.02 129.95 194.78 131.88 196.46C133.81 198.14 135.8 199.74 137.79 201.17C138.754 201.864 139.756 202.505 140.79 203.09C141.61 203.582 142.496 203.955 143.42 204.2C143.73 204.26 143.93 204.2 143.79 204.2C143.515 204.228 143.258 204.348 143.06 204.54C142.99 204.6 142.98 204.61 142.99 204.54L143.29 203.75L143.94 202.03C145.574 197.285 146.851 192.425 147.76 187.49C148.26 185.01 148.61 182.49 148.99 179.97C149.37 177.45 149.63 174.87 149.85 172.48L158.6 173Z" fill="#EEC1BB"/>
<path d="M152.63 162.56C149.09 163.46 146.63 178.01 146.63 178.01L156.37 184.64C156.37 184.64 165.7 170 163 166.07C160.3 162.14 157.78 161.25 152.63 162.56Z" fill="#2D0A59"/>
<path opacity="0.3" d="M152.63 162.56C149.09 163.46 146.63 178.01 146.63 178.01L156.37 184.64C156.37 184.64 165.7 170 163 166.07C160.3 162.14 157.78 161.25 152.63 162.56Z" fill="black"/>
<path d="M152.94 165.81L150.23 180.48L155.7 184.19L152.94 165.81Z" fill="#2D0A59"/>
<path opacity="0.5" d="M152.94 165.81L150.23 180.48L155.7 184.19L152.94 165.81Z" fill="black"/>
<path d="M126.26 190.71L121.62 183.39L119 191.71C119 191.71 122.8 195.71 126.24 194.71L126.26 190.71Z" fill="#EEC1BB"/>
<path d="M114.83 180.97L113 188.05L118.99 191.71L121.62 183.39L114.83 180.97Z" fill="#EEC1BB"/>
<path d="M171.76 407.48H163.18L162.6 387.61H171.18L171.76 407.48Z" fill="#EEC1BB"/>
<path d="M247.46 367.63L240.92 373.18L225.96 359.82L232.5 354.27L247.46 367.63Z" fill="#EEC1BB"/>
<path d="M239.13 372.52L245.47 365.26C245.576 365.132 245.726 365.047 245.89 365.023C246.054 364.999 246.222 365.037 246.36 365.13L252.83 369.32C252.983 369.431 253.112 369.572 253.208 369.735C253.304 369.898 253.366 370.079 253.388 370.267C253.411 370.455 253.394 370.646 253.339 370.827C253.285 371.008 253.193 371.176 253.07 371.32C250.82 373.81 249.61 374.9 246.82 378.09C245.1 380.09 242.82 383.09 240.43 385.81C238.04 388.53 235.25 386.33 236 384.99C239.33 378.99 238.53 376.86 238.58 373.9C238.603 373.391 238.796 372.905 239.13 372.52V372.52Z" fill="#263238"/>
<path d="M162.88 406.48H172.52C172.687 406.478 172.849 406.537 172.976 406.646C173.102 406.754 173.186 406.905 173.21 407.07L174.3 414.7C174.323 414.892 174.304 415.087 174.245 415.272C174.187 415.457 174.089 415.627 173.96 415.771C173.83 415.915 173.671 416.029 173.493 416.107C173.316 416.184 173.124 416.223 172.93 416.22C169.57 416.16 167.93 415.97 163.71 415.97C161.1 415.97 155.71 416.24 152.11 416.24C148.51 416.24 148.31 412.68 149.81 412.35C156.54 410.91 159.18 408.91 161.45 407.01C161.851 406.673 162.356 406.486 162.88 406.48V406.48Z" fill="#263238"/>
<path d="M162.6 387.62L162.9 397.86H171.48L171.19 387.62H162.6Z" fill="#DB9792"/>
<path d="M232.5 354.27L225.96 359.83L233.68 366.71L240.22 361.15L232.5 354.27Z" fill="#DB9792"/>
<path d="M158.78 123.83C164.57 115.22 178.45 112.36 187.09 120.08C198.09 129.91 191.42 149.18 208.33 144.08C225.24 138.98 241.08 140.2 241.17 148.95C241.26 157.7 251.59 146.59 263.75 155.57C288.37 173.74 269.54 220.47 247.89 202.62C233.69 190.92 228.72 185.9 221.64 194.82C214.56 203.74 189.35 199.53 187.09 188.28C184.83 177.03 168.75 182.5 160 172.67C151.25 162.84 146.43 142.18 158.78 123.83Z" fill="#263238"/>
<path d="M152.63 162.56C152.63 162.56 148.54 164 156.73 214.34H191.57C190.98 200.16 190.97 191.42 197.75 162.34C192.87 161.338 187.923 160.69 182.95 160.4C177.683 160.02 172.396 160.02 167.13 160.4C160.33 161 152.63 162.56 152.63 162.56Z" fill="#2D0A59"/>
<path opacity="0.3" d="M152.63 162.56C152.63 162.56 148.54 164 156.73 214.34H191.57C190.98 200.16 190.97 191.42 197.75 162.34C192.87 161.338 187.923 160.69 182.95 160.4C177.683 160.02 172.396 160.02 167.13 160.4C160.33 161 152.63 162.56 152.63 162.56Z" fill="black"/>
<path d="M181.38 142.55C180.38 147.64 179.38 156.97 182.95 160.37C182.95 160.37 181.56 165.53 172.1 165.53C161.7 165.53 167.1 160.37 167.1 160.37C172.77 159.01 172.63 154.8 171.64 150.84L181.38 142.55Z" fill="#EEC1BB"/>
<path d="M177.42 145.93L171.67 150.84C171.92 151.759 172.084 152.7 172.16 153.65C174.33 153.33 177.31 150.95 177.54 148.65C177.664 147.743 177.623 146.822 177.42 145.93V145.93Z" fill="#DB9792"/>
<path d="M186.75 133.21C184.75 141.49 184.09 145.04 179.1 148.58C171.6 153.92 161.87 149.65 161.35 140.95C160.88 133.11 164.23 120.89 173.01 119.01C174.944 118.586 176.955 118.663 178.851 119.235C180.746 119.807 182.464 120.854 183.841 122.277C185.218 123.7 186.208 125.452 186.718 127.365C187.227 129.279 187.238 131.291 186.75 133.21Z" fill="#EEC1BB"/>
<path d="M156.73 214.34C156.73 214.34 149.96 280.43 150.52 306.59C151.11 333.81 161.08 395.87 161.08 395.87H172.68C172.68 395.87 170.84 335.4 171.87 308.67C172.99 279.54 182.24 214.34 182.24 214.34H156.73Z" fill="#2D0A59"/>
<path opacity="0.5" d="M156.73 214.34C156.73 214.34 149.96 280.43 150.52 306.59C151.11 333.81 161.08 395.87 161.08 395.87H172.68C172.68 395.87 170.84 335.4 171.87 308.67C172.99 279.54 182.24 214.34 182.24 214.34H156.73Z" fill="black"/>
<path d="M173.68 396.29H160.07L159.07 391.95L174.32 391.42L173.68 396.29Z" fill="#2D0A59"/>
<path opacity="0.3" d="M173.68 396.29H160.07L159.07 391.95L174.32 391.42L173.68 396.29Z" fill="white"/>
<path d="M171.75 230.79C163.2 248 170.04 279.41 173.06 291.09C174.62 273.55 177.23 252.09 179.27 236.34C178 227.43 175.7 222.85 171.75 230.79Z" fill="#2D0A59"/>
<path opacity="0.6" d="M171.75 230.79C163.2 248 170.04 279.41 173.06 291.09C174.62 273.55 177.23 252.09 179.27 236.34C178 227.43 175.7 222.85 171.75 230.79Z" fill="black"/>
<path d="M165.93 214.34C165.93 214.34 173.82 283.05 179.78 305.11C186.86 331.3 230.78 366.54 230.78 366.54L239.69 358.97C239.69 358.97 207.83 320.68 202.42 306.89C190.87 277.44 200.76 233.56 191.53 214.34H165.93Z" fill="#2D0A59"/>
<path opacity="0.5" d="M165.93 214.34C165.93 214.34 173.82 283.05 179.78 305.11C186.86 331.3 230.78 366.54 230.78 366.54L239.69 358.97C239.69 358.97 207.83 320.68 202.42 306.89C190.87 277.44 200.76 233.56 191.53 214.34H165.93Z" fill="black"/>
<path d="M241.16 358.56L230.09 367.96L225.96 365.48L238.47 353.84L241.16 358.56Z" fill="#2D0A59"/>
<path opacity="0.3" d="M241.16 358.56L230.09 367.96L225.96 365.48L238.47 353.84L241.16 358.56Z" fill="white"/>
<path d="M173.63 133.284C173.751 132.605 173.487 131.989 173.041 131.91C172.595 131.832 172.136 132.319 172.016 132.998C171.895 133.678 172.159 134.293 172.605 134.372C173.051 134.451 173.51 133.964 173.63 133.284Z" fill="#263238"/>
<path d="M165.94 131.94C165.82 132.62 165.36 133.11 164.94 133.03C164.52 132.95 164.23 132.33 164.35 131.65C164.47 130.97 164.93 130.48 165.35 130.56C165.77 130.64 166.06 131.26 165.94 131.94Z" fill="#263238"/>
<path d="M165.54 130.63L163.99 129.87C163.99 129.87 164.6 131.3 165.54 130.63Z" fill="#263238"/>
<path d="M167.77 133.47C166.887 134.916 165.81 136.235 164.57 137.39C164.875 137.698 165.243 137.936 165.649 138.087C166.054 138.239 166.488 138.302 166.92 138.27L167.77 133.47Z" fill="#D4827D"/>
<path d="M170 141.49C169.611 141.491 169.222 141.454 168.84 141.38C168.789 141.37 168.743 141.341 168.713 141.298C168.683 141.255 168.671 141.202 168.68 141.15C168.69 141.098 168.719 141.051 168.762 141.02C168.804 140.988 168.857 140.974 168.91 140.98C169.755 141.147 170.628 141.114 171.458 140.883C172.288 140.652 173.053 140.23 173.69 139.65C173.727 139.613 173.778 139.593 173.83 139.593C173.882 139.593 173.933 139.613 173.97 139.65C173.99 139.669 174.005 139.691 174.016 139.716C174.027 139.741 174.032 139.768 174.032 139.795C174.032 139.822 174.027 139.849 174.016 139.874C174.005 139.899 173.99 139.921 173.97 139.94C172.9 140.955 171.475 141.511 170 141.49V141.49Z" fill="#263238"/>
<path d="M173.35 118.31C169.52 120.51 178.97 141.31 185.88 138.39C192.79 135.47 190.55 123.86 187.13 120.94C183.71 118.02 178.66 115.27 173.35 118.31Z" fill="#263238"/>
<path d="M171.2 117.33C171.2 117.33 166.59 118 163.51 123.75C160.43 129.5 178.13 118.13 175.63 117.33C174.192 116.85 172.638 116.85 171.2 117.33V117.33Z" fill="#263238"/>
<path d="M187.1 139.45C186.788 140.203 186.329 140.887 185.75 141.462C185.172 142.037 184.485 142.492 183.73 142.8C181.73 143.62 180.46 141.87 180.82 139.8C181.15 137.97 182.59 135.34 184.72 135.39C185.189 135.407 185.646 135.543 186.048 135.783C186.451 136.024 186.786 136.362 187.024 136.767C187.261 137.172 187.392 137.63 187.406 138.099C187.419 138.568 187.314 139.032 187.1 139.45V139.45Z" fill="#EEC1BB"/>
<path d="M175.75 128.82C175.642 128.819 175.538 128.776 175.46 128.7C175.121 128.317 174.696 128.021 174.219 127.837C173.742 127.653 173.228 127.585 172.72 127.64C172.614 127.658 172.506 127.633 172.418 127.571C172.33 127.509 172.27 127.416 172.25 127.31C172.24 127.258 172.24 127.205 172.251 127.153C172.261 127.101 172.282 127.052 172.312 127.008C172.342 126.965 172.38 126.927 172.424 126.898C172.469 126.869 172.518 126.85 172.57 126.84C173.212 126.759 173.864 126.835 174.47 127.062C175.076 127.288 175.618 127.658 176.05 128.14C176.124 128.216 176.165 128.319 176.165 128.425C176.165 128.531 176.124 128.634 176.05 128.71C176.011 128.749 175.964 128.779 175.912 128.798C175.86 128.817 175.805 128.825 175.75 128.82V128.82Z" fill="#263238"/>
<path d="M163.14 127.78C163.088 127.78 163.036 127.769 162.988 127.748C162.94 127.728 162.896 127.698 162.86 127.66C162.786 127.584 162.745 127.481 162.745 127.375C162.745 127.269 162.786 127.166 162.86 127.09C163.293 126.61 163.835 126.242 164.441 126.017C165.047 125.792 165.699 125.718 166.34 125.8C166.435 125.83 166.516 125.894 166.568 125.98C166.619 126.066 166.637 126.168 166.619 126.266C166.601 126.365 166.547 126.453 166.468 126.515C166.389 126.576 166.29 126.606 166.19 126.6C165.683 126.546 165.17 126.613 164.694 126.796C164.218 126.978 163.791 127.271 163.45 127.65C163.41 127.691 163.361 127.724 163.308 127.747C163.255 127.769 163.198 127.78 163.14 127.78V127.78Z" fill="#263238"/>
<path d="M201.51 171.48C203.387 176.054 205.013 180.728 206.38 185.48C207.818 190.293 208.878 195.212 209.55 200.19C209.68 201.48 209.83 202.75 209.87 204.09V205.09C209.916 205.76 209.866 206.434 209.72 207.09C209.584 207.64 209.364 208.166 209.07 208.65C208.728 209.203 208.283 209.685 207.76 210.07C206.963 210.642 206.027 210.987 205.05 211.07C204.457 211.127 203.859 211.111 203.27 211.02C202.824 210.959 202.383 210.869 201.95 210.75C201.222 210.548 200.507 210.3 199.81 210.01C198.585 209.489 197.393 208.895 196.24 208.23C191.948 205.707 187.894 202.798 184.13 199.54L186.59 195.95C190.8 198.08 195.08 200.3 199.27 202.01C200.27 202.44 201.36 202.81 202.32 203.1C202.75 203.23 203.187 203.333 203.63 203.41C203.783 203.423 203.937 203.423 204.09 203.41C204.19 203.41 204.24 203.41 204.09 203.41C203.724 203.448 203.377 203.59 203.09 203.82C202.601 204.192 202.249 204.716 202.09 205.31C201.99 205.64 202.03 205.92 201.99 205.48L201.9 204.67C201.81 203.6 201.61 202.5 201.43 201.4C201.03 199.18 200.55 196.95 199.94 194.72C199.33 192.49 198.72 190.25 198.03 188.02C196.6 183.59 195.03 179.07 193.39 174.79L201.51 171.48Z" fill="#EEC1BB"/>
<path d="M197.75 162.31C201.24 163.38 205.43 175.4 205.43 175.4L191.89 185.08C191.89 185.08 186.95 175.08 188.41 170.53C189.94 165.83 193.76 161.1 197.75 162.31Z" fill="#2D0A59"/>
<path opacity="0.3" d="M197.75 162.31C201.24 163.38 205.43 175.4 205.43 175.4L191.89 185.08C191.89 185.08 186.95 175.08 188.41 170.53C189.94 165.83 193.76 161.1 197.75 162.31Z" fill="black"/>
<path d="M236.79 376.66C236.613 376.654 236.439 376.609 236.282 376.528C236.124 376.447 235.987 376.331 235.88 376.19C235.794 376.102 235.734 375.992 235.706 375.872C235.678 375.752 235.683 375.627 235.72 375.51C236.03 374.46 239.01 373.61 239.35 373.51C239.388 373.501 239.428 373.503 239.465 373.515C239.502 373.527 239.535 373.55 239.56 373.58C239.582 373.613 239.593 373.651 239.593 373.69C239.593 373.729 239.582 373.767 239.56 373.8C239.02 374.8 237.97 376.53 236.88 376.65L236.79 376.66ZM238.99 374.05C237.81 374.42 236.27 375.05 236.11 375.63C236.089 375.682 236.086 375.739 236.1 375.793C236.115 375.847 236.146 375.895 236.19 375.93C236.267 376.037 236.369 376.123 236.488 376.179C236.607 376.235 236.739 376.259 236.87 376.25C237.45 376.18 238.23 375.37 239 374.05H238.99Z" fill="#2D0A59"/>
<path d="M238.05 374.08C237.163 374.168 236.275 373.922 235.56 373.39C235.46 373.263 235.406 373.106 235.406 372.945C235.406 372.784 235.46 372.627 235.56 372.5C235.643 372.367 235.755 372.255 235.889 372.173C236.023 372.092 236.174 372.043 236.33 372.03C237.56 371.86 239.43 373.49 239.51 373.56C239.536 373.584 239.556 373.613 239.568 373.646C239.58 373.68 239.584 373.715 239.58 373.75C239.571 373.785 239.554 373.817 239.53 373.843C239.505 373.87 239.474 373.889 239.44 373.9C238.988 374.028 238.52 374.088 238.05 374.08V374.08ZM236.54 372.42H236.41C236.312 372.432 236.217 372.465 236.132 372.517C236.048 372.568 235.975 372.638 235.92 372.72C235.78 372.93 235.83 373.05 235.92 373.13C236.28 373.61 237.97 373.79 239 373.6C238.302 372.992 237.451 372.584 236.54 372.42V372.42Z" fill="#2D0A59"/>
<path d="M159.66 408C158.928 408.066 158.195 407.883 157.58 407.48C157.443 407.355 157.338 407.199 157.273 407.025C157.209 406.851 157.187 406.664 157.21 406.48C157.216 406.367 157.252 406.258 157.313 406.164C157.375 406.069 157.46 405.992 157.56 405.94C158.61 405.36 162.03 407.11 162.42 407.31C162.458 407.329 162.488 407.36 162.506 407.398C162.524 407.436 162.529 407.479 162.52 407.52C162.514 407.562 162.496 407.6 162.467 407.631C162.439 407.661 162.401 407.682 162.36 407.69C161.471 407.875 160.567 407.979 159.66 408V408ZM158.13 406.23C158 406.224 157.87 406.248 157.75 406.3C157.712 406.323 157.68 406.355 157.657 406.394C157.635 406.432 157.622 406.475 157.62 406.52C157.6 406.639 157.611 406.761 157.651 406.875C157.691 406.989 157.76 407.09 157.85 407.17C158.37 407.64 159.78 407.72 161.69 407.41C160.581 406.809 159.377 406.403 158.13 406.21V406.23Z" fill="#2D0A59"/>
<path d="M162.32 407.68C162.294 407.69 162.266 407.69 162.24 407.68C161.24 407.22 159.19 405.37 159.35 404.4C159.35 404.17 159.55 403.88 160.11 403.83C160.312 403.804 160.518 403.822 160.713 403.883C160.908 403.943 161.087 404.044 161.24 404.18C162.32 405.07 162.52 407.38 162.52 407.48C162.526 407.515 162.521 407.55 162.507 407.582C162.493 407.614 162.469 407.641 162.44 407.66C162.403 407.68 162.361 407.687 162.32 407.68V407.68ZM160.32 404.2H160.2C159.82 404.2 159.8 404.39 159.79 404.43C159.7 405.02 161.07 406.43 162.11 407.11C162.033 406.134 161.651 405.208 161.02 404.46C160.92 404.369 160.804 404.299 160.676 404.254C160.549 404.21 160.414 404.191 160.28 404.2H160.32Z" fill="#2D0A59"/>
<path d="M192.09 212.3L192.98 215.42C193.1 215.66 192.82 215.91 192.41 215.91H156.55C156.24 215.91 155.98 215.75 155.96 215.56L155.64 212.44C155.64 212.22 155.89 212.04 156.24 212.04H191.52C191.629 212.03 191.74 212.049 191.84 212.094C191.94 212.14 192.026 212.211 192.09 212.3V212.3Z" fill="#2D0A59"/>
<path opacity="0.6" d="M192.09 212.3L192.98 215.42C193.1 215.66 192.82 215.91 192.41 215.91H156.55C156.24 215.91 155.98 215.75 155.96 215.56L155.64 212.44C155.64 212.22 155.89 212.04 156.24 212.04H191.52C191.629 212.03 191.74 212.049 191.84 212.094C191.94 212.14 192.026 212.211 192.09 212.3V212.3Z" fill="white"/>
<path d="M187.35 216.24H188.35C188.53 216.24 188.68 216.15 188.67 216.03L188.22 211.98C188.22 211.86 188.04 211.76 187.86 211.76H186.91C186.72 211.76 186.58 211.86 186.59 211.98L187 216C187 216.15 187.16 216.24 187.35 216.24Z" fill="#2D0A59"/>
<path opacity="0.5" d="M187.35 216.24H188.35C188.53 216.24 188.68 216.15 188.67 216.03L188.22 211.98C188.22 211.86 188.04 211.76 187.86 211.76H186.91C186.72 211.76 186.58 211.86 186.59 211.98L187 216C187 216.15 187.16 216.24 187.35 216.24Z" fill="black"/>
<path d="M159.21 216.24H160.15C160.34 216.24 160.49 216.15 160.47 216.03L160 212C160 211.88 159.82 211.78 159.63 211.78H158.69C158.5 211.78 158.36 211.88 158.37 212L158.81 216.05C158.86 216.15 159 216.24 159.21 216.24Z" fill="#2D0A59"/>
<path opacity="0.5" d="M159.21 216.24H160.15C160.34 216.24 160.49 216.15 160.47 216.03L160 212C160 211.88 159.82 211.78 159.63 211.78H158.69C158.5 211.78 158.36 211.88 158.37 212L158.81 216.05C158.86 216.15 159 216.24 159.21 216.24Z" fill="black"/>
<path d="M173.28 216.24H174.23C174.41 216.24 174.56 216.15 174.54 216.03L174.1 212C174.1 211.88 173.92 211.78 173.73 211.78H172.79C172.6 211.78 172.46 211.88 172.47 212L172.91 216.05C172.93 216.15 173.09 216.24 173.28 216.24Z" fill="#2D0A59"/>
<path opacity="0.5" d="M173.28 216.24H174.23C174.41 216.24 174.56 216.15 174.54 216.03L174.1 212C174.1 211.88 173.92 211.78 173.73 211.78H172.79C172.6 211.78 172.46 211.88 172.47 212L172.91 216.05C172.93 216.15 173.09 216.24 173.28 216.24Z" fill="black"/>
<path d="M187.77 196.87L184.89 188.06L180.29 195.48C180.29 195.48 183 200.28 186.56 200.21L187.77 196.87Z" fill="#EEC1BB"/>
<path d="M181.83 178L179.57 207.24C179.509 208.002 179.148 208.708 178.567 209.205C177.986 209.702 177.232 209.948 176.47 209.89L120.81 205.6C120.047 205.539 119.34 205.178 118.841 204.598C118.343 204.017 118.095 203.263 118.15 202.5L120.41 173.26C120.444 172.871 120.558 172.492 120.743 172.149C120.929 171.805 121.183 171.502 121.49 171.26C122.056 170.811 122.768 170.586 123.49 170.63L179.15 174.93C179.914 174.989 180.623 175.348 181.121 175.93C181.62 176.511 181.868 177.266 181.81 178.03L181.83 178Z" fill="#2D0A59"/>
<path opacity="0.8" d="M181.83 178L179.57 207.24C179.509 208.002 179.148 208.708 178.567 209.205C177.986 209.702 177.232 209.948 176.47 209.89L120.81 205.6C120.047 205.539 119.34 205.178 118.841 204.598C118.343 204.017 118.095 203.263 118.15 202.5L120.41 173.26C120.444 172.871 120.558 172.492 120.743 172.149C120.929 171.805 121.183 171.502 121.49 171.26C122.056 170.811 122.768 170.586 123.49 170.63L179.15 174.93C179.914 174.989 180.623 175.348 181.121 175.93C181.62 176.511 181.868 177.266 181.81 178.03L181.83 178Z" fill="white"/>
<path d="M181.07 175.78L157.23 192.09C155.024 193.604 152.367 194.321 149.699 194.123C147.03 193.925 144.509 192.823 142.55 191L121.49 171.23C122.056 170.78 122.768 170.556 123.49 170.6L179.15 174.9C179.877 174.945 180.561 175.259 181.07 175.78Z" fill="#2D0A59"/>
<path opacity="0.6" d="M181.07 175.78L157.23 192.09C155.024 193.604 152.367 194.321 149.699 194.123C147.03 193.925 144.509 192.823 142.55 191L121.49 171.23C122.056 170.78 122.768 170.556 123.49 170.6L179.15 174.9C179.877 174.945 180.561 175.259 181.07 175.78Z" fill="white"/>
<path d="M178.9 184.05L175.39 190.46L181.07 196.65L184.89 188.06L178.9 184.05Z" fill="#EEC1BB"/>
<path d="M173.25 132L171.69 131.24C171.69 131.24 172.31 132.66 173.25 132Z" fill="#263238"/>
<path d="M333.29 250H321.03V416.24H333.29V250Z" fill="#2D0A59"/>
<path opacity="0.6" d="M333.29 250H321.03V416.24H333.29V250Z" fill="white"/>
<path d="M321.03 250H333.29V262.26L321.03 257.75V250Z" fill="#2D0A59"/>
<path opacity="0.4" d="M321.03 250H333.29V262.26L321.03 257.75V250Z" fill="white"/>
<path d="M307.8 210.12C307.872 206.222 307.166 202.349 305.724 198.727C304.283 195.105 302.133 191.806 299.402 189.024C296.671 186.242 293.413 184.032 289.818 182.524C286.223 181.015 282.364 180.238 278.465 180.238C274.566 180.238 270.707 181.015 267.112 182.524C263.517 184.032 260.259 186.242 257.528 189.024C254.797 191.806 252.647 195.105 251.206 198.727C249.764 202.349 249.058 206.222 249.13 210.12V250H307.8V210.12Z" fill="#2D0A59"/>
<path opacity="0.3" d="M307.8 210.12C307.872 206.222 307.166 202.349 305.724 198.727C304.283 195.105 302.133 191.806 299.402 189.024C296.671 186.242 293.413 184.032 289.818 182.524C286.223 181.015 282.364 180.238 278.465 180.238C274.566 180.238 270.707 181.015 267.112 182.524C263.517 184.032 260.259 186.242 257.528 189.024C254.797 191.806 252.647 195.105 251.206 198.727C249.764 202.349 249.058 206.222 249.13 210.12V250H307.8V210.12Z" fill="black"/>
<path d="M243.57 267.11C239.65 283.31 249.57 296.44 265.81 296.44C282.05 296.44 298.32 283.31 302.24 267.11L306.32 250.24C306.377 250.013 306.38 249.776 306.331 249.547C306.282 249.318 306.181 249.103 306.037 248.919C305.892 248.735 305.707 248.586 305.496 248.484C305.286 248.382 305.054 248.329 304.82 248.33H249.33C248.983 248.332 248.647 248.45 248.375 248.666C248.103 248.882 247.911 249.182 247.83 249.52L243.57 267.11Z" fill="#2D0A59"/>
<path opacity="0.4" d="M243.57 267.11C239.65 283.31 249.57 296.44 265.81 296.44C282.05 296.44 298.32 283.31 302.24 267.11L306.32 250.24C306.377 250.013 306.38 249.776 306.331 249.547C306.282 249.318 306.181 249.103 306.037 248.919C305.892 248.735 305.707 248.586 305.496 248.484C305.286 248.382 305.054 248.329 304.82 248.33H249.33C248.983 248.332 248.647 248.45 248.375 248.666C248.103 248.882 247.911 249.182 247.83 249.52L243.57 267.11Z" fill="white"/>
<path d="M241.21 267.11C237.29 283.31 247.21 296.44 263.45 296.44C279.69 296.44 295.96 283.31 299.88 267.11L304 250.24C304.056 250.013 304.06 249.776 304.011 249.547C303.962 249.318 303.861 249.103 303.716 248.919C303.572 248.735 303.387 248.586 303.176 248.484C302.966 248.382 302.734 248.329 302.5 248.33H247C246.653 248.332 246.316 248.45 246.044 248.666C245.772 248.882 245.581 249.182 245.5 249.52L241.21 267.11Z" fill="#2D0A59"/>
<path opacity="0.5" d="M241.21 267.11C237.29 283.31 247.21 296.44 263.45 296.44C279.69 296.44 295.96 283.31 299.88 267.11L304 250.24C304.056 250.013 304.06 249.776 304.011 249.547C303.962 249.318 303.861 249.103 303.716 248.919C303.572 248.735 303.387 248.586 303.176 248.484C302.966 248.382 302.734 248.329 302.5 248.33H247C246.653 248.332 246.316 248.45 246.044 248.666C245.772 248.882 245.581 249.182 245.5 249.52L241.21 267.11Z" fill="white"/>
<path d="M376.84 210.11V250H307.84V210.11C307.838 202.332 304.747 194.873 299.247 189.374C293.747 183.874 286.288 180.783 278.51 180.78H347.56C355.338 180.783 362.797 183.874 368.297 189.374C373.797 194.873 376.888 202.332 376.89 210.11H376.84Z" fill="#2D0A59"/>
<path opacity="0.5" d="M376.84 210.11V250H307.84V210.11C307.838 202.332 304.747 194.873 299.247 189.374C293.747 183.874 286.288 180.783 278.51 180.78H347.56C355.338 180.783 362.797 183.874 368.297 189.374C373.797 194.873 376.888 202.332 376.89 210.11H376.84Z" fill="white"/>
<path d="M376.84 210.11V220.78H307.84V210.11C307.853 203.587 305.677 197.249 301.66 192.11H370.71C374.709 197.255 376.868 203.593 376.84 210.11V210.11Z" fill="#2D0A59"/>
<path opacity="0.7" d="M376.84 210.11V220.78H307.84V210.11C307.853 203.587 305.677 197.249 301.66 192.11H370.71C374.709 197.255 376.868 203.593 376.84 210.11V210.11Z" fill="white"/>
<path d="M317.41 225.92V166.92C317.409 166.394 317.522 165.874 317.743 165.396C317.963 164.919 318.284 164.495 318.685 164.154C319.086 163.813 319.556 163.564 320.063 163.423C320.57 163.283 321.101 163.254 321.62 163.34L335.76 165.68C336.267 165.763 336.728 166.024 337.059 166.417C337.391 166.809 337.572 167.306 337.57 167.82V171.48C337.57 172.056 337.342 172.607 336.935 173.014C336.528 173.421 335.976 173.65 335.4 173.65H321.91V225.9C321.91 226.497 321.673 227.069 321.251 227.491C320.829 227.913 320.257 228.15 319.66 228.15C319.067 228.15 318.498 227.916 318.076 227.498C317.655 227.08 317.415 226.513 317.41 225.92Z" fill="#2D0A59"/>
<path opacity="0.3" d="M317.41 225.92V166.92C317.409 166.394 317.522 165.874 317.743 165.396C317.963 164.919 318.284 164.495 318.685 164.154C319.086 163.813 319.556 163.564 320.063 163.423C320.57 163.283 321.101 163.254 321.62 163.34L335.76 165.68C336.267 165.763 336.728 166.024 337.059 166.417C337.391 166.809 337.572 167.306 337.57 167.82V171.48C337.57 172.056 337.342 172.607 336.935 173.014C336.528 173.421 335.976 173.65 335.4 173.65H321.91V225.9C321.91 226.497 321.673 227.069 321.251 227.491C320.829 227.913 320.257 228.15 319.66 228.15C319.067 228.15 318.498 227.916 318.076 227.498C317.655 227.08 317.415 226.513 317.41 225.92Z" fill="black"/>
<path d="M278.46 188.57V217.89C278.457 218.654 278.154 219.386 277.614 219.927C277.075 220.468 276.344 220.775 275.58 220.78H219.75C218.986 220.775 218.255 220.468 217.716 219.927C217.177 219.386 216.873 218.654 216.87 217.89V188.57C216.873 187.806 217.177 187.074 217.716 186.533C218.255 185.992 218.986 185.685 219.75 185.68H275.58C276.344 185.685 277.075 185.992 277.614 186.533C278.154 187.074 278.457 187.806 278.46 188.57V188.57Z" fill="#2D0A59"/>
<path opacity="0.8" d="M278.46 188.57V217.89C278.457 218.654 278.154 219.386 277.614 219.927C277.075 220.468 276.344 220.775 275.58 220.78H219.75C218.986 220.775 218.255 220.468 217.716 219.927C217.177 219.386 216.873 218.654 216.87 217.89V188.57C216.873 187.806 217.177 187.074 217.716 186.533C218.255 185.992 218.986 185.685 219.75 185.68H275.58C276.344 185.685 277.075 185.992 277.614 186.533C278.154 187.074 278.457 187.806 278.46 188.57V188.57Z" fill="white"/>
<path d="M277.54 186.46L255 204.55C252.91 206.224 250.313 207.136 247.635 207.136C244.957 207.136 242.36 206.224 240.27 204.55L217.76 186.46C218.302 185.953 219.018 185.674 219.76 185.68H275.59C276.315 185.686 277.011 185.965 277.54 186.46V186.46Z" fill="#2D0A59"/>
<path opacity="0.6" d="M277.54 186.46L255 204.55C252.91 206.224 250.313 207.136 247.635 207.136C244.957 207.136 242.36 206.224 240.27 204.55L217.76 186.46C218.302 185.953 219.018 185.674 219.76 185.68H275.59C276.315 185.686 277.011 185.965 277.54 186.46V186.46Z" fill="white"/>
<path d="M235.68 232.6V261.93C235.68 262.695 235.377 263.428 234.837 263.97C234.297 264.512 233.565 264.817 232.8 264.82H177C176.236 264.815 175.505 264.508 174.966 263.967C174.427 263.426 174.123 262.694 174.12 261.93V232.6C174.12 231.836 174.424 231.104 174.964 230.564C175.504 230.023 176.236 229.72 177 229.72H232.8C233.564 229.72 234.296 230.023 234.837 230.564C235.377 231.104 235.68 231.836 235.68 232.6Z" fill="#2D0A59"/>
<path opacity="0.8" d="M235.68 232.6V261.93C235.68 262.695 235.377 263.428 234.837 263.97C234.297 264.512 233.565 264.817 232.8 264.82H177C176.236 264.815 175.505 264.508 174.966 263.967C174.427 263.426 174.123 262.694 174.12 261.93V232.6C174.12 231.836 174.424 231.104 174.964 230.564C175.504 230.023 176.236 229.72 177 229.72H232.8C233.564 229.72 234.296 230.023 234.837 230.564C235.377 231.104 235.68 231.836 235.68 232.6Z" fill="white"/>
<path d="M234.76 230.49L212.25 248.58C210.163 250.259 207.564 251.175 204.885 251.175C202.206 251.175 199.607 250.259 197.52 248.58L175 230.49C175.543 229.986 176.259 229.71 177 229.72H232.8C233.528 229.717 234.229 229.993 234.76 230.49V230.49Z" fill="#2D0A59"/>
<path opacity="0.6" d="M234.76 230.49L212.25 248.58C210.163 250.259 207.564 251.175 204.885 251.175C202.206 251.175 199.607 250.259 197.52 248.58L175 230.49C175.543 229.986 176.259 229.71 177 229.72H232.8C233.528 229.717 234.229 229.993 234.76 230.49V230.49Z" fill="white"/>
<path d="M307.8 210.62V245.72H286.94C286.174 245.717 285.441 245.412 284.899 244.871C284.358 244.329 284.053 243.596 284.05 242.83V213.51C284.055 212.745 284.361 212.013 284.902 211.472C285.443 210.931 286.175 210.625 286.94 210.62H307.8Z" fill="#2D0A59"/>
<path opacity="0.8" d="M307.8 210.62V245.72H286.94C286.174 245.717 285.441 245.412 284.899 244.871C284.358 244.329 284.053 243.596 284.05 242.83V213.51C284.055 212.745 284.361 212.013 284.902 211.472C285.443 210.931 286.175 210.625 286.94 210.62H307.8Z" fill="white"/>
<path d="M307.8 210.62V229.72C307.693 229.649 307.589 229.572 307.49 229.49L285 211.4C285.54 210.889 286.257 210.609 287 210.62H307.8Z" fill="#2D0A59"/>
<path opacity="0.6" d="M307.8 210.62V229.72C307.693 229.649 307.589 229.572 307.49 229.49L285 211.4C285.54 210.889 286.257 210.609 287 210.62H307.8Z" fill="white"/>
<path opacity="0.5" d="M307.79 210.62H303.22V245.72H307.79V210.62Z" fill="#2D0A59"/>
</svg>
