<svg width="694" height="854" viewBox="0 0 694 854" fill="none" xmlns="http://www.w3.org/2000/svg">
<g clip-path="url(#clip0)">
<rect width="694" height="854" fill="url(#paint0_linear)"/>
<g opacity="0.68">
<path d="M195.859 324.631C239.313 404.245 238.002 507.301 179.796 576.625C121.937 645.882 6.49069 681.542 -57.6661 645.606C-122.17 609.738 -135.73 502.342 -121.494 404.724C-107.537 307.52 -65.7841 220.094 -0.764664 204.642C64.1875 188.842 152.406 245.016 195.859 324.631Z" fill="#071E48"/>
<path d="M181.058 334.401C220.323 406.343 219.139 499.467 166.543 562.11C114.26 624.692 9.94 656.915 -48.0335 624.443C-106.32 592.031 -118.574 494.986 -105.71 406.776C-93.0984 318.94 -55.3691 239.94 3.3839 225.977C62.0762 211.699 141.792 262.46 181.058 334.401Z" fill="#092353"/>
<path d="M168.385 342.768C204.064 408.14 202.988 492.759 155.195 549.682C107.687 606.549 12.8933 635.829 -39.7861 606.322C-92.7502 576.87 -103.885 488.687 -92.1954 408.533C-80.7356 328.718 -46.4518 256.932 6.93588 244.244C60.2684 231.271 132.705 277.395 168.385 342.768Z" fill="#0B285C"/>
<path d="M154.23 352.112C185.905 410.146 184.949 485.267 142.521 535.8C100.345 586.284 16.192 612.278 -30.5742 586.083C-77.5933 559.937 -87.4781 481.652 -77.1008 410.495C-66.9273 339.639 -36.4917 275.911 10.9033 264.647C58.2494 253.13 122.555 294.077 154.23 352.112Z" fill="#0F2E67"/>
<path d="M141.159 360.74C169.135 411.999 168.291 478.349 130.817 522.981C93.5657 567.571 19.2381 590.529 -22.0677 567.393C-63.5968 544.3 -72.3274 475.156 -63.1618 412.307C-54.1762 349.724 -27.2943 293.437 14.5669 283.488C56.3849 273.316 113.182 309.482 141.159 360.74Z" fill="#113473"/>
<path d="M130.143 368.013C155.002 413.56 154.252 472.518 120.953 512.178C87.852 551.8 21.8053 572.2 -14.8986 551.642C-51.8009 531.122 -59.5588 469.681 -51.4143 413.834C-43.4298 358.224 -19.5429 308.208 17.6545 299.367C54.8135 290.328 105.283 322.465 130.143 368.013Z" fill="#143879"/>
<path d="M119.504 375.035C141.353 415.068 140.694 466.887 111.427 501.745C82.334 536.569 24.2844 554.5 -7.97525 536.431C-40.4093 518.395 -47.2279 464.394 -40.0696 415.309C-33.0519 366.432 -12.0572 322.472 20.6362 314.702C53.2959 306.757 97.6543 335.003 119.504 375.035Z" fill="#183D81"/>
<path d="M108.16 382.524C126.801 416.676 126.238 460.883 101.27 490.621C76.4505 520.329 26.9279 535.626 -0.593073 520.211C-28.2629 504.825 -34.0799 458.756 -27.973 416.881C-21.9861 375.184 -4.07542 337.681 23.8156 331.053C51.6779 324.275 89.5204 348.372 108.16 382.524Z" fill="#1D4389"/>
</g>
<path d="M758.931 275.583C738.532 350.467 676.548 413.188 599.419 421.307C522.545 429.59 430.016 382.943 411.69 322.666C393.109 262.225 448.476 187.991 515.222 136.303C581.548 84.705 659.253 55.6533 708.616 84.7787C758.143 113.65 779.33 200.698 758.931 275.583Z" fill="#231B63"/>
<path d="M745.941 273.17C727.251 341.783 670.458 399.251 599.788 406.69C529.351 414.28 444.571 371.538 427.78 316.31C410.755 260.931 461.485 192.913 522.641 145.554C583.413 98.2768 654.61 71.658 699.839 98.3443C745.22 124.798 764.632 204.556 745.941 273.17Z" fill="#29206F"/>
<path d="M730.75 270.347C714.057 331.627 663.335 382.952 600.219 389.596C537.31 396.375 461.593 358.202 446.596 308.877C431.391 259.417 476.699 198.669 531.318 156.372C585.594 114.148 649.181 90.3747 689.576 114.209C730.106 137.834 747.443 209.068 730.75 270.347Z" fill="#2D2477"/>
<path d="M715.992 267.606C701.24 321.76 656.415 367.118 600.637 372.99C545.043 378.98 478.129 345.246 464.876 301.655C451.439 257.946 491.479 204.262 539.748 166.883C587.713 129.568 643.907 108.559 679.605 129.621C715.422 150.5 730.744 213.451 715.992 267.606Z" fill="#31287E"/>
<path d="M700.88 264.798C688.115 311.657 649.329 350.905 601.066 355.985C552.962 361.168 495.062 331.979 483.594 294.261C471.967 256.44 506.613 209.988 548.379 177.644C589.883 145.357 638.506 127.178 669.395 145.403C700.387 163.469 713.644 217.939 700.88 264.798Z" fill="#382F88"/>
<path d="M686.713 262.166C675.811 302.186 642.686 335.704 601.468 340.043C560.385 344.47 510.936 319.541 501.142 287.328C491.213 255.028 520.802 215.356 556.471 187.734C591.917 160.159 633.443 144.633 659.823 160.198C686.292 175.627 697.614 222.147 686.713 262.166Z" fill="#3E358F"/>
</g>
<defs>
<linearGradient id="paint0_linear" x1="101.208" y1="176.428" x2="575.612" y2="435.708" gradientUnits="userSpaceOnUse">
<stop stop-color="#020E24"/>
<stop offset="1" stop-color="#2A0954"/>
</linearGradient>
<clipPath id="clip0">
<rect width="694" height="854" fill="white"/>
</clipPath>
</defs>
</svg>
