<svg width="832" height="1098" viewBox="0 0 832 1098" fill="none" xmlns="http://www.w3.org/2000/svg">
<g clip-path="url(#clip0)">
<rect width="832" height="1098" fill="url(#paint0_linear)"/>
<g opacity="0.68">
<path d="M233.859 428.631C277.313 508.245 276.002 611.301 217.796 680.625C159.937 749.882 44.4907 785.542 -19.6661 749.606C-84.1697 713.738 -97.7302 606.342 -83.494 508.724C-69.5374 411.52 -27.7841 324.094 37.2353 308.642C102.188 292.842 190.406 349.016 233.859 428.631Z" fill="#071E48"/>
<path d="M219.058 438.401C258.323 510.343 257.139 603.467 204.543 666.11C152.26 728.692 47.94 760.915 -10.0335 728.443C-68.3205 696.031 -80.5741 598.986 -67.7099 510.776C-55.0984 422.94 -17.3691 343.94 41.3839 329.977C100.076 315.699 179.792 366.46 219.058 438.401Z" fill="#092353"/>
<path d="M206.385 446.768C242.064 512.14 240.988 596.759 193.195 653.682C145.687 710.549 50.8933 739.829 -1.78607 710.322C-54.7502 680.87 -65.8848 592.687 -54.1954 512.533C-42.7356 432.718 -8.45179 360.932 44.9359 348.244C98.2684 335.271 170.705 381.395 206.385 446.768Z" fill="#0B285C"/>
<path d="M192.23 456.112C223.905 514.146 222.949 589.267 180.521 639.8C138.345 690.284 54.192 716.278 7.42577 690.083C-39.5933 663.937 -49.4781 585.652 -39.1008 514.495C-28.9273 443.639 1.50826 379.911 48.9033 368.647C96.2494 357.13 160.555 398.077 192.23 456.112Z" fill="#0F2E67"/>
<path d="M179.159 464.74C207.135 515.999 206.291 582.349 168.817 626.981C131.566 671.571 57.2381 694.529 15.9323 671.393C-25.5968 648.3 -34.3274 579.156 -25.1618 516.307C-16.1762 453.724 10.7057 397.437 52.5669 387.488C94.3849 377.316 151.182 413.482 179.159 464.74Z" fill="#113473"/>
<path d="M168.143 472.013C193.002 517.56 192.252 576.518 158.953 616.178C125.852 655.8 59.8053 676.2 23.1014 655.642C-13.8009 635.122 -21.5588 573.681 -13.4143 517.834C-5.42981 462.224 18.4571 412.208 55.6545 403.367C92.8135 394.328 143.283 426.465 168.143 472.013Z" fill="#143879"/>
<path d="M157.504 479.035C179.353 519.068 178.694 570.887 149.427 605.745C120.334 640.569 62.2844 658.5 30.0248 640.431C-2.40934 622.395 -9.22792 568.394 -2.06958 519.309C4.94815 470.432 25.9428 426.472 58.6362 418.702C91.2959 410.757 135.654 439.003 157.504 479.035Z" fill="#183D81"/>
<path d="M146.16 486.524C164.801 520.676 164.238 564.883 139.27 594.621C114.451 624.329 64.9279 639.626 37.4069 624.211C9.73712 608.825 3.92013 562.756 10.027 520.881C16.0139 479.184 33.9246 441.681 61.8156 435.053C89.6779 428.275 127.52 452.372 146.16 486.524Z" fill="#1D4389"/>
</g>
<path d="M892.931 275.583C872.532 350.467 810.548 413.188 733.419 421.307C656.545 429.59 564.016 382.943 545.69 322.666C527.109 262.225 582.476 187.991 649.222 136.303C715.548 84.705 793.253 55.6533 842.616 84.7787C892.143 113.65 913.33 200.698 892.931 275.583Z" fill="#231B63"/>
<path d="M879.941 273.17C861.251 341.783 804.458 399.251 733.788 406.69C663.351 414.28 578.571 371.538 561.78 316.31C544.755 260.931 595.485 192.913 656.641 145.554C717.413 98.2768 788.61 71.658 833.839 98.3443C879.22 124.798 898.632 204.556 879.941 273.17Z" fill="#29206F"/>
<path d="M864.75 270.347C848.057 331.627 797.335 382.952 734.219 389.596C671.31 396.375 595.593 358.202 580.596 308.877C565.391 259.417 610.699 198.669 665.318 156.372C719.594 114.148 783.181 90.3747 823.576 114.209C864.106 137.834 881.443 209.068 864.75 270.347Z" fill="#2D2477"/>
<path d="M849.992 267.606C835.24 321.76 790.415 367.118 734.637 372.99C679.043 378.98 612.129 345.246 598.876 301.655C585.439 257.946 625.479 204.262 673.748 166.883C721.713 129.568 777.907 108.559 813.605 129.621C849.422 150.5 864.744 213.451 849.992 267.606Z" fill="#31287E"/>
<path d="M834.88 264.798C822.115 311.657 783.329 350.905 735.066 355.985C686.962 361.168 629.062 331.979 617.594 294.261C605.967 256.44 640.613 209.988 682.379 177.644C723.883 145.357 772.506 127.178 803.395 145.403C834.387 163.469 847.644 217.939 834.88 264.798Z" fill="#382F88"/>
<path d="M820.713 262.166C809.811 302.186 776.686 335.704 735.468 340.043C694.385 344.47 644.936 319.541 635.142 287.328C625.213 255.028 654.802 215.356 690.471 187.734C725.917 160.159 767.443 144.633 793.823 160.198C820.292 175.627 831.614 222.147 820.713 262.166Z" fill="#3E358F"/>
</g>
<defs>
<linearGradient id="paint0_linear" x1="121.333" y1="226.837" x2="707.679" y2="525.645" gradientUnits="userSpaceOnUse">
<stop stop-color="#020E24"/>
<stop offset="1" stop-color="#2A0954"/>
</linearGradient>
<clipPath id="clip0">
<rect width="832" height="1098" fill="white"/>
</clipPath>
</defs>
</svg>
