<svg width="810" height="852" viewBox="0 0 810 852" fill="none" xmlns="http://www.w3.org/2000/svg">
<g clip-path="url(#clip0)">
<g filter="url(#filter0_d)">
<path d="M553.675 398.521C440.539 455.757 287.136 453.608 186.428 400.746C86.2716 347.735 38.9124 244.389 88.1126 171.886C137.415 99.7611 283.93 58.7079 420.469 53.2183C557.11 48.1072 684.327 78.411 711.225 151.949C738.675 225.337 666.258 341.433 553.675 398.521Z" fill="#093279" fill-opacity="0.67"/>
</g>
<path fill-rule="evenodd" clip-rule="evenodd" d="M660.091 295.692C659.572 293.311 662.066 290.744 664.45 290.225C666.834 289.705 669.189 291.215 669.708 293.596C670.227 295.977 669.044 299.845 666.66 300.364C664.276 300.884 660.61 298.073 660.091 295.692Z" fill="#6A90D5" fill-opacity="0.43"/>
<path fill-rule="evenodd" clip-rule="evenodd" d="M640.192 300.029C639.673 297.648 642.168 295.082 644.552 294.562C646.936 294.042 649.29 295.552 649.809 297.933C650.328 300.314 649.146 304.182 646.762 304.702C644.378 305.221 640.711 302.41 640.192 300.029Z" fill="#6A90D5" fill-opacity="0.43"/>
<path fill-rule="evenodd" clip-rule="evenodd" d="M620.298 304.365C619.779 301.984 622.273 299.418 624.657 298.898C627.042 298.379 629.396 299.888 629.915 302.269C630.434 304.651 629.252 308.518 626.868 309.038C624.483 309.558 620.817 306.747 620.298 304.365Z" fill="#6A90D5" fill-opacity="0.43"/>
<path fill-rule="evenodd" clip-rule="evenodd" d="M600.401 308.702C599.882 306.321 602.377 303.755 604.761 303.235C607.145 302.715 609.499 304.225 610.018 306.606C610.537 308.987 609.355 312.855 606.971 313.375C604.587 313.894 600.92 311.083 600.401 308.702Z" fill="#6A90D5" fill-opacity="0.43"/>
<path fill-rule="evenodd" clip-rule="evenodd" d="M580.505 313.039C579.986 310.658 582.48 308.092 584.864 307.572C587.248 307.052 589.602 308.562 590.121 310.943C590.64 313.324 589.458 317.192 587.074 317.711C584.69 318.231 581.024 315.42 580.505 313.039Z" fill="#6A90D5" fill-opacity="0.43"/>
<path fill-rule="evenodd" clip-rule="evenodd" d="M560.612 317.375C560.093 314.994 562.575 312.43 564.967 311.909C567.352 311.389 569.706 312.899 570.225 315.28C570.744 317.661 569.562 321.529 567.178 322.048C564.785 322.57 561.131 319.756 560.612 317.375Z" fill="#6A90D5" fill-opacity="0.43"/>
<path fill-rule="evenodd" clip-rule="evenodd" d="M540.703 321.714C540.184 319.333 542.687 316.765 545.075 316.245C547.463 315.724 549.799 317.238 550.318 319.619C550.837 322 549.673 325.864 547.285 326.384C544.897 326.905 541.222 324.096 540.703 321.714Z" fill="#6A90D5" fill-opacity="0.43"/>
<path fill-rule="evenodd" clip-rule="evenodd" d="M520.815 326.049C520.296 323.668 522.798 321.1 525.186 320.58C527.554 320.064 529.91 321.573 530.429 323.954C530.948 326.335 529.764 330.203 527.397 330.719C525.008 331.24 521.334 328.431 520.815 326.049Z" fill="#6A90D5" fill-opacity="0.43"/>
<path fill-rule="evenodd" clip-rule="evenodd" d="M500.926 330.384C500.407 328.003 502.889 325.44 505.278 324.919C507.666 324.399 510.022 325.908 510.541 328.289C511.06 330.67 509.876 334.538 507.488 335.059C505.099 335.579 501.445 332.766 500.926 330.384Z" fill="#6A90D5" fill-opacity="0.43"/>
<path fill-rule="evenodd" clip-rule="evenodd" d="M481.017 334.724C480.498 332.343 483.001 329.775 485.389 329.254C487.777 328.734 490.113 330.247 490.632 332.628C491.151 335.009 489.987 338.873 487.599 339.394C485.211 339.914 481.536 337.105 481.017 334.724Z" fill="#6A90D5" fill-opacity="0.43"/>
<path fill-rule="evenodd" clip-rule="evenodd" d="M461.129 339.059C460.61 336.678 463.112 334.11 465.48 333.594C467.868 333.073 470.224 334.582 470.743 336.963C471.262 339.344 470.078 343.213 467.69 343.733C465.322 344.249 461.648 341.44 461.129 339.059Z" fill="#6A90D5" fill-opacity="0.43"/>
<path fill-rule="evenodd" clip-rule="evenodd" d="M441.24 343.394C440.721 341.013 443.203 338.449 445.592 337.929C447.98 337.408 450.336 338.917 450.855 341.298C451.374 343.679 450.19 347.547 447.802 348.068C445.413 348.589 441.759 345.775 441.24 343.394Z" fill="#6A90D5" fill-opacity="0.43"/>
<path fill-rule="evenodd" clip-rule="evenodd" d="M421.331 347.733C420.812 345.352 423.315 342.784 425.703 342.264C428.071 341.747 430.427 343.256 430.946 345.638C431.465 348.019 430.281 351.887 427.913 352.403C425.525 352.924 421.85 350.115 421.331 347.733Z" fill="#6A90D5" fill-opacity="0.43"/>
<path fill-rule="evenodd" clip-rule="evenodd" d="M401.443 352.068C400.924 349.687 403.406 347.124 405.794 346.603C408.182 346.082 410.539 347.591 411.058 349.973C411.577 352.354 410.392 356.222 408.004 356.743C405.616 357.263 401.962 354.45 401.443 352.068Z" fill="#6A90D5" fill-opacity="0.43"/>
<path fill-rule="evenodd" clip-rule="evenodd" d="M381.534 356.408C381.015 354.027 383.517 351.459 385.906 350.938C388.294 350.417 390.63 351.931 391.149 354.312C391.668 356.693 390.504 360.557 388.116 361.077C385.728 361.598 382.053 358.789 381.534 356.408Z" fill="#6A90D5" fill-opacity="0.43"/>
<path fill-rule="evenodd" clip-rule="evenodd" d="M361.645 360.743C361.126 358.362 363.629 355.794 365.997 355.277C368.385 354.757 370.741 356.266 371.26 358.647C371.779 361.028 370.595 364.896 368.207 365.417C365.839 365.933 362.164 363.124 361.645 360.743Z" fill="#6A90D5" fill-opacity="0.43"/>
<path fill-rule="evenodd" clip-rule="evenodd" d="M341.757 365.078C341.238 362.697 343.72 360.133 346.108 359.612C348.497 359.092 350.853 360.601 351.372 362.982C351.891 365.363 350.707 369.231 348.318 369.752C345.93 370.273 342.276 367.459 341.757 365.078Z" fill="#6A90D5" fill-opacity="0.43"/>
<path fill-rule="evenodd" clip-rule="evenodd" d="M321.848 369.417C321.329 367.036 323.831 364.468 326.22 363.947C328.587 363.431 330.944 364.94 331.463 367.322C331.982 369.703 330.797 373.571 328.43 374.087C326.041 374.608 322.367 371.798 321.848 369.417Z" fill="#6A90D5" fill-opacity="0.43"/>
<path fill-rule="evenodd" clip-rule="evenodd" d="M262.162 382.427C261.643 380.046 264.146 377.477 266.513 376.961C268.902 376.441 271.258 377.95 271.777 380.331C272.296 382.712 271.112 386.58 268.723 387.101C266.356 387.617 262.681 384.808 262.162 382.427Z" fill="#6A90D5" fill-opacity="0.43"/>
<path fill-rule="evenodd" clip-rule="evenodd" d="M242.273 386.762C241.754 384.381 244.237 381.817 246.625 381.296C249.013 380.776 251.369 382.285 251.888 384.666C252.407 387.047 251.223 390.915 248.835 391.436C246.447 391.956 242.792 389.143 242.273 386.762Z" fill="#6A90D5" fill-opacity="0.43"/>
<path fill-rule="evenodd" clip-rule="evenodd" d="M222.364 391.101C221.845 388.72 224.348 386.152 226.736 385.631C229.125 385.111 231.46 386.624 231.979 389.006C232.498 391.387 231.335 395.25 228.946 395.771C226.558 396.291 222.883 393.482 222.364 391.101Z" fill="#6A90D5" fill-opacity="0.43"/>
<path fill-rule="evenodd" clip-rule="evenodd" d="M202.476 395.436C201.957 393.055 204.46 390.487 206.827 389.971C209.215 389.45 211.572 390.959 212.091 393.34C212.61 395.722 211.426 399.59 209.037 400.11C206.67 400.626 202.995 397.817 202.476 395.436Z" fill="#6A90D5" fill-opacity="0.43"/>
<path fill-rule="evenodd" clip-rule="evenodd" d="M182.567 399.776C182.048 397.394 184.551 394.826 186.939 394.306C189.327 393.785 191.683 395.294 192.202 397.675C192.721 400.057 191.537 403.925 189.149 404.445C186.761 404.966 183.086 402.157 182.567 399.776Z" fill="#6A90D5" fill-opacity="0.43"/>
<path fill-rule="evenodd" clip-rule="evenodd" d="M162.678 404.111C162.159 401.73 164.662 399.161 167.05 398.641C169.418 398.125 171.774 399.634 172.293 402.015C172.812 404.396 171.628 408.264 169.26 408.78C166.872 409.301 163.197 406.492 162.678 404.111Z" fill="#6A90D5" fill-opacity="0.43"/>
<path fill-rule="evenodd" clip-rule="evenodd" d="M142.79 408.446C142.271 406.065 144.753 403.501 147.142 402.98C149.53 402.46 151.886 403.969 152.405 406.35C152.924 408.731 151.74 412.599 149.352 413.12C146.964 413.64 143.309 410.827 142.79 408.446Z" fill="#6A90D5" fill-opacity="0.43"/>
<path fill-rule="evenodd" clip-rule="evenodd" d="M656.113 277.44C655.594 275.059 658.089 272.493 660.473 271.973C662.857 271.454 665.211 272.963 665.73 275.344C666.249 277.725 665.067 281.593 662.683 282.113C660.299 282.633 656.632 279.822 656.113 277.44Z" fill="#6A90D5" fill-opacity="0.43"/>
<path fill-rule="evenodd" clip-rule="evenodd" d="M636.214 281.778C635.695 279.397 638.19 276.83 640.574 276.311C642.958 275.791 645.312 277.3 645.831 279.682C646.35 282.063 645.168 285.93 642.784 286.45C640.4 286.97 636.733 284.159 636.214 281.778Z" fill="#6A90D5" fill-opacity="0.43"/>
<path fill-rule="evenodd" clip-rule="evenodd" d="M616.32 286.114C615.801 283.733 618.295 281.167 620.679 280.647C623.064 280.127 625.418 281.637 625.937 284.018C626.456 286.399 625.274 290.267 622.889 290.786C620.505 291.306 616.839 288.495 616.32 286.114Z" fill="#6A90D5" fill-opacity="0.43"/>
<path fill-rule="evenodd" clip-rule="evenodd" d="M596.423 290.451C595.904 288.07 598.399 285.503 600.783 284.984C603.167 284.464 605.521 285.973 606.04 288.355C606.559 290.736 605.377 294.604 602.993 295.123C600.609 295.643 596.942 292.832 596.423 290.451Z" fill="#6A90D5" fill-opacity="0.43"/>
<path fill-rule="evenodd" clip-rule="evenodd" d="M576.526 294.788C576.007 292.406 578.502 289.84 580.886 289.32C583.27 288.801 585.624 290.31 586.143 292.691C586.662 295.073 585.48 298.94 583.096 299.46C580.712 299.98 577.045 297.169 576.526 294.788Z" fill="#6A90D5" fill-opacity="0.43"/>
<path fill-rule="evenodd" clip-rule="evenodd" d="M556.634 299.123C556.115 296.742 558.597 294.179 560.989 293.657C563.373 293.138 565.728 294.647 566.247 297.028C566.766 299.409 565.584 303.277 563.199 303.797C560.807 304.318 557.153 301.505 556.634 299.123Z" fill="#6A90D5" fill-opacity="0.43"/>
<path fill-rule="evenodd" clip-rule="evenodd" d="M536.725 303.463C536.206 301.082 538.709 298.514 541.097 297.993C543.485 297.473 545.821 298.986 546.34 301.367C546.859 303.748 545.695 307.612 543.307 308.133C540.919 308.653 537.244 305.844 536.725 303.463Z" fill="#6A90D5" fill-opacity="0.43"/>
<path fill-rule="evenodd" clip-rule="evenodd" d="M516.836 307.798C516.317 305.417 518.82 302.849 521.208 302.328C523.576 301.812 525.932 303.321 526.451 305.702C526.97 308.083 525.786 311.952 523.418 312.468C521.03 312.988 517.355 310.179 516.836 307.798Z" fill="#6A90D5" fill-opacity="0.43"/>
<path fill-rule="evenodd" clip-rule="evenodd" d="M496.948 312.133C496.429 309.752 498.911 307.188 501.299 306.668C503.688 306.147 506.044 307.656 506.563 310.037C507.082 312.418 505.898 316.287 503.509 316.807C501.121 317.328 497.467 314.514 496.948 312.133Z" fill="#6A90D5" fill-opacity="0.43"/>
<path fill-rule="evenodd" clip-rule="evenodd" d="M477.039 316.472C476.52 314.091 479.023 311.523 481.411 311.003C483.799 310.482 486.135 311.996 486.654 314.377C487.173 316.758 486.009 320.622 483.621 321.142C481.233 321.663 477.558 318.854 477.039 316.472Z" fill="#6A90D5" fill-opacity="0.43"/>
<path fill-rule="evenodd" clip-rule="evenodd" d="M457.15 320.807C456.631 318.426 459.134 315.858 461.502 315.342C463.89 314.822 466.246 316.331 466.765 318.712C467.284 321.093 466.1 324.961 463.712 325.482C461.344 325.998 457.669 323.189 457.15 320.807Z" fill="#6A90D5" fill-opacity="0.43"/>
<path fill-rule="evenodd" clip-rule="evenodd" d="M437.262 325.142C436.743 322.761 439.225 320.198 441.613 319.677C444.002 319.157 446.358 320.666 446.877 323.047C447.396 325.428 446.212 329.296 443.823 329.817C441.435 330.337 437.781 327.524 437.262 325.142Z" fill="#6A90D5" fill-opacity="0.43"/>
<path fill-rule="evenodd" clip-rule="evenodd" d="M417.353 329.482C416.834 327.101 419.337 324.533 421.725 324.012C424.093 323.496 426.449 325.005 426.968 327.386C427.487 329.767 426.303 333.635 423.935 334.152C421.547 334.672 417.872 331.863 417.353 329.482Z" fill="#6A90D5" fill-opacity="0.43"/>
<path fill-rule="evenodd" clip-rule="evenodd" d="M397.464 333.817C396.945 331.436 399.428 328.872 401.816 328.352C404.204 327.831 406.56 329.34 407.079 331.721C407.598 334.102 406.414 337.97 404.026 338.491C401.638 339.012 397.984 336.198 397.464 333.817Z" fill="#6A90D5" fill-opacity="0.43"/>
<path fill-rule="evenodd" clip-rule="evenodd" d="M377.555 338.156C377.036 335.775 379.539 333.207 381.927 332.687C384.316 332.166 386.651 333.679 387.17 336.061C387.689 338.442 386.526 342.305 384.138 342.826C381.749 343.347 378.075 340.538 377.555 338.156Z" fill="#6A90D5" fill-opacity="0.43"/>
<path fill-rule="evenodd" clip-rule="evenodd" d="M357.667 342.491C357.148 340.11 359.651 337.542 362.018 337.026C364.407 336.505 366.763 338.014 367.282 340.396C367.801 342.777 366.617 346.645 364.228 347.165C361.861 347.682 358.186 344.872 357.667 342.491Z" fill="#6A90D5" fill-opacity="0.43"/>
<path fill-rule="evenodd" clip-rule="evenodd" d="M317.87 351.166C317.351 348.785 319.853 346.217 322.242 345.696C324.609 345.18 326.965 346.689 327.484 349.07C328.003 351.451 326.819 355.319 324.452 355.835C322.063 356.356 318.389 353.547 317.87 351.166Z" fill="#6A90D5" fill-opacity="0.43"/>
<path fill-rule="evenodd" clip-rule="evenodd" d="M297.981 355.501C297.462 353.12 299.944 350.556 302.333 350.035C304.721 349.515 307.077 351.024 307.596 353.405C308.115 355.786 306.931 359.654 304.543 360.175C302.154 360.696 298.5 357.882 297.981 355.501Z" fill="#6A90D5" fill-opacity="0.43"/>
<path fill-rule="evenodd" clip-rule="evenodd" d="M278.072 359.84C277.553 357.459 280.056 354.891 282.444 354.37C284.832 353.85 287.189 355.359 287.708 357.74C288.227 360.121 287.042 363.989 284.654 364.51C282.266 365.03 278.591 362.221 278.072 359.84Z" fill="#6A90D5" fill-opacity="0.43"/>
<path fill-rule="evenodd" clip-rule="evenodd" d="M258.184 364.175C257.665 361.794 260.167 359.226 262.535 358.71C264.923 358.189 267.28 359.698 267.799 362.08C268.318 364.461 267.133 368.329 264.745 368.849C262.378 369.365 258.703 366.556 258.184 364.175Z" fill="#6A90D5" fill-opacity="0.43"/>
<path fill-rule="evenodd" clip-rule="evenodd" d="M238.295 368.51C237.776 366.129 240.258 363.565 242.647 363.045C245.035 362.524 247.391 364.033 247.91 366.415C248.429 368.796 247.245 372.664 244.857 373.184C242.468 373.705 238.814 370.891 238.295 368.51Z" fill="#6A90D5" fill-opacity="0.43"/>
<path fill-rule="evenodd" clip-rule="evenodd" d="M218.386 372.85C217.867 370.469 220.37 367.9 222.758 367.38C225.146 366.859 227.482 368.373 228.001 370.754C228.52 373.135 227.356 376.999 224.968 377.519C222.58 378.04 218.905 375.231 218.386 372.85Z" fill="#6A90D5" fill-opacity="0.43"/>
<path fill-rule="evenodd" clip-rule="evenodd" d="M198.498 377.185C197.979 374.804 200.482 372.235 202.849 371.719C205.238 371.199 207.594 372.708 208.113 375.089C208.632 377.47 207.448 381.338 205.059 381.859C202.692 382.375 199.017 379.566 198.498 377.185Z" fill="#6A90D5" fill-opacity="0.43"/>
<path fill-rule="evenodd" clip-rule="evenodd" d="M178.589 381.524C178.07 379.143 180.573 376.575 182.961 376.054C185.349 375.534 187.705 377.043 188.224 379.424C188.743 381.805 187.559 385.673 185.171 386.194C182.783 386.714 179.108 383.905 178.589 381.524Z" fill="#6A90D5" fill-opacity="0.43"/>
<path fill-rule="evenodd" clip-rule="evenodd" d="M158.7 385.859C158.181 383.478 160.684 380.91 163.072 380.389C165.44 379.873 167.796 381.382 168.315 383.763C168.834 386.145 167.65 390.013 165.282 390.529C162.894 391.049 159.219 388.24 158.7 385.859Z" fill="#6A90D5" fill-opacity="0.43"/>
<path fill-rule="evenodd" clip-rule="evenodd" d="M138.812 390.194C138.293 387.813 140.775 385.249 143.163 384.729C145.552 384.208 147.908 385.717 148.427 388.098C148.946 390.48 147.762 394.348 145.374 394.868C142.985 395.389 139.331 392.575 138.812 390.194Z" fill="#6A90D5" fill-opacity="0.43"/>
<path fill-rule="evenodd" clip-rule="evenodd" d="M652.135 259.189C651.616 256.808 654.11 254.242 656.494 253.722C658.879 253.202 661.233 254.712 661.752 257.093C662.271 259.474 661.089 263.342 658.704 263.861C656.32 264.381 652.654 261.57 652.135 259.189Z" fill="#6A90D5" fill-opacity="0.43"/>
<path fill-rule="evenodd" clip-rule="evenodd" d="M632.236 263.526C631.717 261.145 634.212 258.579 636.596 258.059C638.98 257.539 641.334 259.049 641.853 261.43C642.372 263.811 641.19 267.679 638.806 268.199C636.422 268.718 632.755 265.907 632.236 263.526Z" fill="#6A90D5" fill-opacity="0.43"/>
<path fill-rule="evenodd" clip-rule="evenodd" d="M612.342 267.863C611.823 265.481 614.317 262.915 616.701 262.395C619.085 261.876 621.439 263.385 621.958 265.766C622.477 268.148 621.295 272.015 618.911 272.535C616.527 273.055 612.861 270.244 612.342 267.863Z" fill="#6A90D5" fill-opacity="0.43"/>
<path fill-rule="evenodd" clip-rule="evenodd" d="M592.445 272.199C591.926 269.818 594.42 267.252 596.804 266.732C599.189 266.213 601.543 267.722 602.062 270.103C602.581 272.484 601.399 276.352 599.015 276.872C596.63 277.391 592.964 274.58 592.445 272.199Z" fill="#6A90D5" fill-opacity="0.43"/>
<path fill-rule="evenodd" clip-rule="evenodd" d="M572.548 276.536C572.029 274.155 574.524 271.589 576.908 271.069C579.292 270.549 581.646 272.059 582.165 274.44C582.684 276.821 581.502 280.689 579.118 281.208C576.734 281.728 573.067 278.917 572.548 276.536Z" fill="#6A90D5" fill-opacity="0.43"/>
<path fill-rule="evenodd" clip-rule="evenodd" d="M552.656 280.872C552.137 278.491 554.619 275.927 557.011 275.406C559.395 274.886 561.749 276.396 562.268 278.777C562.787 281.158 561.605 285.026 559.221 285.545C556.829 286.067 553.175 283.253 552.656 280.872Z" fill="#6A90D5" fill-opacity="0.43"/>
<path fill-rule="evenodd" clip-rule="evenodd" d="M532.747 285.211C532.228 282.83 534.73 280.262 537.119 279.742C539.507 279.221 541.842 280.735 542.361 283.116C542.88 285.497 541.717 289.361 539.329 289.881C536.94 290.402 533.266 287.593 532.747 285.211Z" fill="#6A90D5" fill-opacity="0.43"/>
<path fill-rule="evenodd" clip-rule="evenodd" d="M512.858 289.546C512.339 287.165 514.842 284.597 517.23 284.077C519.598 283.561 521.954 285.07 522.473 287.451C522.992 289.832 521.808 293.7 519.44 294.216C517.052 294.737 513.377 291.928 512.858 289.546Z" fill="#6A90D5" fill-opacity="0.43"/>
<path fill-rule="evenodd" clip-rule="evenodd" d="M492.97 293.881C492.451 291.5 494.933 288.937 497.321 288.416C499.709 287.896 502.066 289.405 502.585 291.786C503.104 294.167 501.919 298.035 499.531 298.556C497.143 299.076 493.489 296.263 492.97 293.881Z" fill="#6A90D5" fill-opacity="0.43"/>
<path fill-rule="evenodd" clip-rule="evenodd" d="M473.061 298.221C472.542 295.84 475.044 293.272 477.433 292.751C479.821 292.231 482.156 293.744 482.675 296.125C483.195 298.506 482.031 302.37 479.643 302.891C477.254 303.411 473.58 300.602 473.061 298.221Z" fill="#6A90D5" fill-opacity="0.43"/>
<path fill-rule="evenodd" clip-rule="evenodd" d="M453.172 302.556C452.653 300.175 455.156 297.607 457.524 297.091C459.912 296.57 462.268 298.079 462.787 300.46C463.306 302.841 462.122 306.71 459.734 307.23C457.366 307.746 453.691 304.937 453.172 302.556Z" fill="#6A90D5" fill-opacity="0.43"/>
<path fill-rule="evenodd" clip-rule="evenodd" d="M433.284 306.891C432.765 304.51 435.247 301.946 437.635 301.426C440.023 300.905 442.38 302.414 442.899 304.795C443.418 307.176 442.233 311.044 439.845 311.565C437.457 312.086 433.803 309.272 433.284 306.891Z" fill="#6A90D5" fill-opacity="0.43"/>
<path fill-rule="evenodd" clip-rule="evenodd" d="M413.375 311.23C412.856 308.849 415.359 306.281 417.747 305.761C420.114 305.244 422.471 306.753 422.99 309.135C423.509 311.516 422.325 315.384 419.957 315.9C417.569 316.421 413.894 313.612 413.375 311.23Z" fill="#6A90D5" fill-opacity="0.43"/>
<path fill-rule="evenodd" clip-rule="evenodd" d="M393.486 315.565C392.967 313.184 395.449 310.621 397.838 310.1C400.226 309.579 402.582 311.089 403.101 313.47C403.62 315.851 402.436 319.719 400.048 320.24C397.659 320.76 394.005 317.947 393.486 315.565Z" fill="#6A90D5" fill-opacity="0.43"/>
<path fill-rule="evenodd" clip-rule="evenodd" d="M373.577 319.905C373.058 317.524 375.561 314.956 377.949 314.435C380.337 313.914 382.673 315.428 383.192 317.809C383.711 320.19 382.547 324.054 380.159 324.575C377.771 325.095 374.096 322.286 373.577 319.905Z" fill="#6A90D5" fill-opacity="0.43"/>
<path fill-rule="evenodd" clip-rule="evenodd" d="M333.8 328.575C333.281 326.194 335.763 323.63 338.152 323.109C340.54 322.589 342.896 324.098 343.415 326.479C343.934 328.86 342.75 332.728 340.362 333.249C337.974 333.77 334.319 330.956 333.8 328.575Z" fill="#6A90D5" fill-opacity="0.43"/>
<path fill-rule="evenodd" clip-rule="evenodd" d="M313.891 332.914C313.372 330.533 315.875 327.965 318.263 327.444C320.631 326.928 322.987 328.437 323.506 330.819C324.025 333.2 322.841 337.068 320.473 337.584C318.085 338.105 314.41 335.295 313.891 332.914Z" fill="#6A90D5" fill-opacity="0.43"/>
<path fill-rule="evenodd" clip-rule="evenodd" d="M294.003 337.249C293.484 334.868 295.966 332.305 298.354 331.784C300.743 331.263 303.099 332.772 303.618 335.154C304.137 337.535 302.953 341.403 300.564 341.923C298.176 342.444 294.522 339.63 294.003 337.249Z" fill="#6A90D5" fill-opacity="0.43"/>
<path fill-rule="evenodd" clip-rule="evenodd" d="M274.094 341.589C273.575 339.208 276.078 336.639 278.466 336.119C280.854 335.598 283.21 337.107 283.729 339.489C284.248 341.87 283.064 345.738 280.676 346.258C278.288 346.779 274.613 343.97 274.094 341.589Z" fill="#6A90D5" fill-opacity="0.43"/>
<path fill-rule="evenodd" clip-rule="evenodd" d="M254.205 345.924C253.686 343.543 256.189 340.974 258.557 340.458C260.945 339.938 263.301 341.447 263.82 343.828C264.339 346.209 263.155 350.077 260.767 350.598C258.399 351.114 254.724 348.305 254.205 345.924Z" fill="#6A90D5" fill-opacity="0.43"/>
<path fill-rule="evenodd" clip-rule="evenodd" d="M214.408 354.598C213.889 352.217 216.392 349.649 218.78 349.128C221.168 348.608 223.504 350.121 224.023 352.503C224.542 354.884 223.378 358.747 220.99 359.268C218.602 359.788 214.927 356.979 214.408 354.598Z" fill="#6A90D5" fill-opacity="0.43"/>
<path fill-rule="evenodd" clip-rule="evenodd" d="M194.52 358.933C194.001 356.552 196.503 353.984 198.871 353.468C201.259 352.947 203.615 354.456 204.134 356.838C204.653 359.219 203.469 363.087 201.081 363.607C198.713 364.123 195.039 361.314 194.52 358.933Z" fill="#6A90D5" fill-opacity="0.43"/>
<path fill-rule="evenodd" clip-rule="evenodd" d="M174.611 363.273C174.091 360.892 176.594 358.323 178.982 357.803C181.371 357.282 183.727 358.791 184.246 361.173C184.765 363.554 183.581 367.422 181.193 367.942C178.804 368.463 175.13 365.654 174.611 363.273Z" fill="#6A90D5" fill-opacity="0.43"/>
<path fill-rule="evenodd" clip-rule="evenodd" d="M154.722 367.608C154.203 365.227 156.706 362.658 159.094 362.138C161.462 361.622 163.818 363.131 164.337 365.512C164.856 367.893 163.672 371.761 161.304 372.277C158.916 372.798 155.241 369.989 154.722 367.608Z" fill="#6A90D5" fill-opacity="0.43"/>
<path fill-rule="evenodd" clip-rule="evenodd" d="M134.834 371.943C134.315 369.562 136.797 366.998 139.185 366.477C141.574 365.957 143.93 367.466 144.449 369.847C144.968 372.228 143.784 376.096 141.395 376.617C139.007 377.137 135.353 374.324 134.834 371.943Z" fill="#6A90D5" fill-opacity="0.43"/>
<path fill-rule="evenodd" clip-rule="evenodd" d="M648.157 240.937C647.638 238.556 650.132 235.99 652.516 235.47C654.9 234.951 657.255 236.46 657.774 238.841C658.293 241.222 657.11 245.09 654.726 245.61C652.342 246.129 648.676 243.319 648.157 240.937Z" fill="#6A90D5" fill-opacity="0.43"/>
<path fill-rule="evenodd" clip-rule="evenodd" d="M628.258 245.275C627.739 242.894 630.233 240.327 632.617 239.808C635.002 239.288 637.356 240.797 637.875 243.179C638.394 245.56 637.212 249.427 634.828 249.947C632.443 250.467 628.777 247.656 628.258 245.275Z" fill="#6A90D5" fill-opacity="0.43"/>
<path fill-rule="evenodd" clip-rule="evenodd" d="M608.363 249.611C607.844 247.23 610.339 244.664 612.723 244.144C615.107 243.624 617.461 245.134 617.98 247.515C618.499 249.896 617.317 253.764 614.933 254.283C612.549 254.803 608.882 251.992 608.363 249.611Z" fill="#6A90D5" fill-opacity="0.43"/>
<path fill-rule="evenodd" clip-rule="evenodd" d="M588.467 253.948C587.948 251.567 590.442 249 592.826 248.481C595.211 247.961 597.565 249.471 598.084 251.852C598.603 254.233 597.421 258.101 595.036 258.62C592.652 259.14 588.986 256.329 588.467 253.948Z" fill="#6A90D5" fill-opacity="0.43"/>
<path fill-rule="evenodd" clip-rule="evenodd" d="M568.57 258.285C568.051 255.903 570.545 253.337 572.93 252.818C575.314 252.298 577.668 253.807 578.187 256.188C578.706 258.57 577.524 262.437 575.14 262.957C572.755 263.477 569.089 260.666 568.57 258.285Z" fill="#6A90D5" fill-opacity="0.43"/>
<path fill-rule="evenodd" clip-rule="evenodd" d="M548.677 262.62C548.158 260.239 550.641 257.676 553.033 257.154C555.417 256.635 557.771 258.144 558.29 260.525C558.809 262.906 557.627 266.774 555.243 267.294C552.851 267.815 549.196 265.002 548.677 262.62Z" fill="#6A90D5" fill-opacity="0.43"/>
<path fill-rule="evenodd" clip-rule="evenodd" d="M528.768 266.96C528.249 264.579 530.752 262.011 533.14 261.49C535.529 260.97 537.864 262.483 538.383 264.864C538.902 267.245 537.739 271.109 535.35 271.63C532.962 272.15 529.287 269.341 528.768 266.96Z" fill="#6A90D5" fill-opacity="0.43"/>
<path fill-rule="evenodd" clip-rule="evenodd" d="M508.88 271.295C508.361 268.914 510.864 266.346 513.252 265.825C515.62 265.309 517.976 266.818 518.495 269.199C519.014 271.58 517.83 275.449 515.462 275.965C513.074 276.485 509.399 273.676 508.88 271.295Z" fill="#6A90D5" fill-opacity="0.43"/>
<path fill-rule="evenodd" clip-rule="evenodd" d="M488.991 275.63C488.472 273.249 490.955 270.685 493.343 270.165C495.731 269.644 498.087 271.153 498.606 273.534C499.125 275.915 497.941 279.784 495.553 280.304C493.165 280.825 489.51 278.011 488.991 275.63Z" fill="#6A90D5" fill-opacity="0.43"/>
<path fill-rule="evenodd" clip-rule="evenodd" d="M469.083 279.969C468.564 277.588 471.066 275.02 473.455 274.5C475.843 273.979 478.178 275.493 478.697 277.874C479.216 280.255 478.053 284.119 475.665 284.639C473.276 285.16 469.602 282.351 469.083 279.969Z" fill="#6A90D5" fill-opacity="0.43"/>
<path fill-rule="evenodd" clip-rule="evenodd" d="M449.194 284.304C448.675 281.923 451.178 279.355 453.545 278.839C455.934 278.319 458.29 279.828 458.809 282.209C459.328 284.59 458.144 288.458 455.755 288.979C453.388 289.495 449.713 286.686 449.194 284.304Z" fill="#6A90D5" fill-opacity="0.43"/>
<path fill-rule="evenodd" clip-rule="evenodd" d="M429.306 288.639C428.787 286.258 431.269 283.695 433.657 283.174C436.045 282.654 438.401 284.163 438.92 286.544C439.439 288.925 438.255 292.793 435.867 293.314C433.479 293.834 429.825 291.021 429.306 288.639Z" fill="#6A90D5" fill-opacity="0.43"/>
<path fill-rule="evenodd" clip-rule="evenodd" d="M409.397 292.979C408.878 290.598 411.38 288.03 413.769 287.509C416.136 286.993 418.492 288.502 419.011 290.883C419.53 293.264 418.346 297.133 415.979 297.649C413.59 298.169 409.916 295.36 409.397 292.979Z" fill="#6A90D5" fill-opacity="0.43"/>
<path fill-rule="evenodd" clip-rule="evenodd" d="M389.508 297.314C388.989 294.933 391.471 292.369 393.86 291.849C396.248 291.328 398.604 292.837 399.123 295.218C399.642 297.599 398.458 301.468 396.07 301.988C393.681 302.509 390.027 299.695 389.508 297.314Z" fill="#6A90D5" fill-opacity="0.43"/>
<path fill-rule="evenodd" clip-rule="evenodd" d="M369.599 301.653C369.08 299.272 371.583 296.704 373.971 296.184C376.359 295.663 378.695 297.177 379.214 299.558C379.733 301.939 378.569 305.803 376.181 306.323C373.793 306.844 370.118 304.035 369.599 301.653Z" fill="#6A90D5" fill-opacity="0.43"/>
<path fill-rule="evenodd" clip-rule="evenodd" d="M349.711 305.988C349.192 303.607 351.694 301.039 354.062 300.523C356.45 300.002 358.806 301.512 359.325 303.893C359.844 306.274 358.66 310.142 356.272 310.663C353.904 311.179 350.23 308.37 349.711 305.988Z" fill="#6A90D5" fill-opacity="0.43"/>
<path fill-rule="evenodd" clip-rule="evenodd" d="M329.822 310.323C329.303 307.942 331.785 305.379 334.174 304.858C336.562 304.337 338.918 305.846 339.437 308.228C339.956 310.609 338.772 314.477 336.384 314.998C333.995 315.518 330.341 312.705 329.822 310.323Z" fill="#6A90D5" fill-opacity="0.43"/>
<path fill-rule="evenodd" clip-rule="evenodd" d="M309.913 314.663C309.394 312.282 311.897 309.714 314.285 309.193C316.653 308.677 319.009 310.186 319.528 312.567C320.047 314.948 318.863 318.816 316.495 319.333C314.107 319.853 310.432 317.044 309.913 314.663Z" fill="#6A90D5" fill-opacity="0.43"/>
<path fill-rule="evenodd" clip-rule="evenodd" d="M290.025 318.998C289.506 316.617 291.988 314.053 294.376 313.532C296.764 313.012 299.121 314.521 299.64 316.902C300.159 319.283 298.974 323.151 296.586 323.672C294.198 324.193 290.544 321.379 290.025 318.998Z" fill="#6A90D5" fill-opacity="0.43"/>
<path fill-rule="evenodd" clip-rule="evenodd" d="M270.116 323.337C269.597 320.956 272.099 318.388 274.488 317.867C276.876 317.347 279.232 318.856 279.751 321.237C280.27 323.618 279.086 327.486 276.698 328.007C274.309 328.528 270.635 325.718 270.116 323.337Z" fill="#6A90D5" fill-opacity="0.43"/>
<path fill-rule="evenodd" clip-rule="evenodd" d="M250.227 327.672C249.708 325.291 252.211 322.723 254.579 322.207C256.967 321.686 259.323 323.195 259.842 325.577C260.361 327.958 259.177 331.826 256.789 332.346C254.421 332.863 250.746 330.053 250.227 327.672Z" fill="#6A90D5" fill-opacity="0.43"/>
<path fill-rule="evenodd" clip-rule="evenodd" d="M230.339 332.007C229.82 329.626 232.302 327.063 234.69 326.542C237.078 326.021 239.435 327.53 239.954 329.912C240.473 332.293 239.289 336.161 236.9 336.681C234.512 337.202 230.858 334.388 230.339 332.007Z" fill="#6A90D5" fill-opacity="0.43"/>
<path fill-rule="evenodd" clip-rule="evenodd" d="M210.43 336.347C209.911 333.966 212.414 331.397 214.802 330.877C217.19 330.356 219.526 331.87 220.045 334.251C220.564 336.632 219.4 340.496 217.012 341.016C214.624 341.537 210.949 338.728 210.43 336.347Z" fill="#6A90D5" fill-opacity="0.43"/>
<path fill-rule="evenodd" clip-rule="evenodd" d="M190.541 340.682C190.022 338.301 192.525 335.732 194.893 335.216C197.281 334.696 199.637 336.205 200.156 338.586C200.675 340.967 199.491 344.835 197.103 345.356C194.735 345.872 191.06 343.063 190.541 340.682Z" fill="#6A90D5" fill-opacity="0.43"/>
<path fill-rule="evenodd" clip-rule="evenodd" d="M170.632 345.021C170.113 342.64 172.616 340.072 175.004 339.551C177.393 339.031 179.749 340.54 180.268 342.921C180.787 345.302 179.603 349.17 177.214 349.691C174.826 350.211 171.151 347.402 170.632 345.021Z" fill="#6A90D5" fill-opacity="0.43"/>
<path fill-rule="evenodd" clip-rule="evenodd" d="M150.744 349.356C150.225 346.975 152.728 344.407 155.116 343.886C157.484 343.37 159.84 344.879 160.359 347.261C160.878 349.642 159.694 353.51 157.326 354.026C154.938 354.546 151.263 351.737 150.744 349.356Z" fill="#6A90D5" fill-opacity="0.43"/>
<path fill-rule="evenodd" clip-rule="evenodd" d="M130.856 353.691C130.337 351.31 132.819 348.746 135.207 348.226C137.595 347.705 139.951 349.214 140.47 351.596C140.989 353.977 139.805 357.845 137.417 358.365C135.029 358.886 131.375 356.072 130.856 353.691Z" fill="#6A90D5" fill-opacity="0.43"/>
<path fill-rule="evenodd" clip-rule="evenodd" d="M644.179 222.686C643.66 220.305 646.154 217.738 648.538 217.219C650.922 216.699 653.276 218.209 653.795 220.59C654.314 222.971 653.132 226.839 650.748 227.358C648.364 227.878 644.698 225.067 644.179 222.686Z" fill="#6A90D5" fill-opacity="0.43"/>
<path fill-rule="evenodd" clip-rule="evenodd" d="M624.28 227.023C623.761 224.642 626.255 222.076 628.639 221.556C631.024 221.036 633.378 222.546 633.897 224.927C634.416 227.308 633.234 231.176 630.849 231.696C628.465 232.215 624.799 229.404 624.28 227.023Z" fill="#6A90D5" fill-opacity="0.43"/>
<path fill-rule="evenodd" clip-rule="evenodd" d="M604.385 231.36C603.866 228.978 606.361 226.412 608.745 225.892C611.129 225.373 613.483 226.882 614.002 229.263C614.521 231.645 613.339 235.512 610.955 236.032C608.571 236.552 604.904 233.741 604.385 231.36Z" fill="#6A90D5" fill-opacity="0.43"/>
<path fill-rule="evenodd" clip-rule="evenodd" d="M584.488 235.696C583.969 233.315 586.464 230.749 588.848 230.229C591.232 229.71 593.586 231.219 594.105 233.6C594.624 235.981 593.442 239.849 591.058 240.369C588.674 240.888 585.007 238.077 584.488 235.696Z" fill="#6A90D5" fill-opacity="0.43"/>
<path fill-rule="evenodd" clip-rule="evenodd" d="M564.592 240.033C564.073 237.652 566.567 235.086 568.951 234.566C571.336 234.046 573.69 235.556 574.209 237.937C574.728 240.318 573.546 244.186 571.161 244.705C568.777 245.225 565.111 242.414 564.592 240.033Z" fill="#6A90D5" fill-opacity="0.43"/>
<path fill-rule="evenodd" clip-rule="evenodd" d="M544.699 244.369C544.18 241.988 546.662 239.424 549.055 238.903C551.439 238.383 553.793 239.893 554.312 242.274C554.831 244.655 553.649 248.523 551.265 249.042C548.872 249.564 545.218 246.75 544.699 244.369Z" fill="#6A90D5" fill-opacity="0.43"/>
<path fill-rule="evenodd" clip-rule="evenodd" d="M524.79 248.708C524.271 246.327 526.774 243.759 529.162 243.239C531.55 242.718 533.886 244.232 534.405 246.613C534.924 248.994 533.761 252.858 531.372 253.378C528.984 253.899 525.309 251.09 524.79 248.708Z" fill="#6A90D5" fill-opacity="0.43"/>
<path fill-rule="evenodd" clip-rule="evenodd" d="M504.902 253.043C504.383 250.662 506.886 248.094 509.274 247.574C511.641 247.058 513.998 248.567 514.517 250.948C515.036 253.329 513.852 257.197 511.484 257.713C509.096 258.234 505.421 255.425 504.902 253.043Z" fill="#6A90D5" fill-opacity="0.43"/>
<path fill-rule="evenodd" clip-rule="evenodd" d="M485.013 257.378C484.494 254.997 486.976 252.434 489.365 251.913C491.753 251.393 494.109 252.902 494.628 255.283C495.147 257.664 493.963 261.532 491.575 262.053C489.186 262.573 485.532 259.76 485.013 257.378Z" fill="#6A90D5" fill-opacity="0.43"/>
<path fill-rule="evenodd" clip-rule="evenodd" d="M465.104 261.718C464.585 259.337 467.088 256.769 469.476 256.248C471.864 255.728 474.2 257.241 474.719 259.622C475.238 262.003 474.075 265.867 471.686 266.388C469.298 266.908 465.623 264.099 465.104 261.718Z" fill="#6A90D5" fill-opacity="0.43"/>
<path fill-rule="evenodd" clip-rule="evenodd" d="M445.216 266.053C444.697 263.672 447.199 261.104 449.567 260.588C451.955 260.067 454.312 261.576 454.831 263.957C455.35 266.338 454.165 270.207 451.777 270.727C449.409 271.243 445.735 268.434 445.216 266.053Z" fill="#6A90D5" fill-opacity="0.43"/>
<path fill-rule="evenodd" clip-rule="evenodd" d="M425.327 270.388C424.808 268.007 427.291 265.443 429.679 264.923C432.067 264.402 434.423 265.911 434.942 268.292C435.461 270.673 434.277 274.542 431.889 275.062C429.501 275.583 425.846 272.769 425.327 270.388Z" fill="#6A90D5" fill-opacity="0.43"/>
<path fill-rule="evenodd" clip-rule="evenodd" d="M405.418 274.727C404.899 272.346 407.402 269.778 409.79 269.258C412.158 268.742 414.514 270.251 415.033 272.632C415.552 275.013 414.368 278.881 412 279.397C409.612 279.918 405.937 277.109 405.418 274.727Z" fill="#6A90D5" fill-opacity="0.43"/>
<path fill-rule="evenodd" clip-rule="evenodd" d="M385.53 279.062C385.011 276.681 387.493 274.118 389.881 273.597C392.27 273.077 394.626 274.586 395.145 276.967C395.664 279.348 394.48 283.216 392.091 283.737C389.703 284.257 386.049 281.444 385.53 279.062Z" fill="#6A90D5" fill-opacity="0.43"/>
<path fill-rule="evenodd" clip-rule="evenodd" d="M365.621 283.402C365.102 281.021 367.605 278.453 369.993 277.932C372.381 277.412 374.717 278.925 375.236 281.306C375.755 283.687 374.591 287.551 372.203 288.072C369.815 288.592 366.14 285.783 365.621 283.402Z" fill="#6A90D5" fill-opacity="0.43"/>
<path fill-rule="evenodd" clip-rule="evenodd" d="M345.733 287.737C345.213 285.356 347.716 282.788 350.084 282.272C352.472 281.751 354.828 283.26 355.347 285.641C355.866 288.022 354.682 291.891 352.294 292.411C349.926 292.927 346.252 290.118 345.733 287.737Z" fill="#6A90D5" fill-opacity="0.43"/>
<path fill-rule="evenodd" clip-rule="evenodd" d="M325.844 292.072C325.325 289.691 327.807 287.127 330.195 286.607C332.584 286.086 334.94 287.595 335.459 289.976C335.978 292.357 334.794 296.225 332.405 296.746C330.017 297.267 326.363 294.453 325.844 292.072Z" fill="#6A90D5" fill-opacity="0.43"/>
<path fill-rule="evenodd" clip-rule="evenodd" d="M305.935 296.411C305.416 294.03 307.919 291.462 310.307 290.942C312.675 290.425 315.031 291.934 315.55 294.316C316.069 296.697 314.885 300.565 312.517 301.081C310.129 301.602 306.454 298.792 305.935 296.411Z" fill="#6A90D5" fill-opacity="0.43"/>
<path fill-rule="evenodd" clip-rule="evenodd" d="M286.047 300.746C285.528 298.365 288.01 295.802 290.398 295.281C292.786 294.76 295.142 296.269 295.661 298.651C296.18 301.032 294.996 304.9 292.608 305.42C290.22 305.941 286.566 303.127 286.047 300.746Z" fill="#6A90D5" fill-opacity="0.43"/>
<path fill-rule="evenodd" clip-rule="evenodd" d="M266.137 305.086C265.618 302.705 268.121 300.137 270.509 299.616C272.898 299.095 275.254 300.604 275.773 302.986C276.292 305.367 275.108 309.235 272.719 309.755C270.331 310.276 266.656 307.467 266.137 305.086Z" fill="#6A90D5" fill-opacity="0.43"/>
<path fill-rule="evenodd" clip-rule="evenodd" d="M246.249 309.421C245.73 307.04 248.233 304.472 250.6 303.955C252.989 303.435 255.345 304.944 255.864 307.325C256.383 309.706 255.199 313.574 252.811 314.095C250.443 314.611 246.768 311.802 246.249 309.421Z" fill="#6A90D5" fill-opacity="0.43"/>
<path fill-rule="evenodd" clip-rule="evenodd" d="M226.361 313.756C225.842 311.375 228.324 308.811 230.712 308.29C233.1 307.77 235.456 309.279 235.975 311.66C236.494 314.041 235.31 317.909 232.922 318.43C230.534 318.951 226.88 316.137 226.361 313.756Z" fill="#6A90D5" fill-opacity="0.43"/>
<path fill-rule="evenodd" clip-rule="evenodd" d="M186.563 322.43C186.044 320.049 188.547 317.481 190.915 316.965C193.303 316.444 195.659 317.953 196.178 320.335C196.697 322.716 195.513 326.584 193.125 327.104C190.757 327.62 187.082 324.811 186.563 322.43Z" fill="#6A90D5" fill-opacity="0.43"/>
<path fill-rule="evenodd" clip-rule="evenodd" d="M166.654 326.77C166.135 324.389 168.638 321.82 171.026 321.3C173.414 320.779 175.771 322.288 176.29 324.67C176.809 327.051 175.624 330.919 173.236 331.439C170.848 331.96 167.173 329.151 166.654 326.77Z" fill="#6A90D5" fill-opacity="0.43"/>
<path fill-rule="evenodd" clip-rule="evenodd" d="M146.766 331.105C146.247 328.724 148.749 326.156 151.138 325.635C153.505 325.119 155.862 326.628 156.381 329.009C156.9 331.39 155.715 335.258 153.348 335.774C150.96 336.295 147.285 333.486 146.766 331.105Z" fill="#6A90D5" fill-opacity="0.43"/>
<path fill-rule="evenodd" clip-rule="evenodd" d="M126.877 335.44C126.358 333.059 128.841 330.495 131.229 329.974C133.617 329.454 135.973 330.963 136.492 333.344C137.011 335.725 135.827 339.593 133.439 340.114C131.051 340.634 127.396 337.821 126.877 335.44Z" fill="#6A90D5" fill-opacity="0.43"/>
<path fill-rule="evenodd" clip-rule="evenodd" d="M640.2 204.435C639.681 202.053 642.176 199.487 644.56 198.967C646.944 198.448 649.298 199.957 649.817 202.338C650.336 204.72 649.154 208.587 646.77 209.107C644.386 209.627 640.719 206.816 640.2 204.435Z" fill="#6A90D5" fill-opacity="0.43"/>
<path fill-rule="evenodd" clip-rule="evenodd" d="M620.302 208.772C619.783 206.391 622.277 203.824 624.661 203.305C627.045 202.785 629.399 204.294 629.918 206.676C630.437 209.057 629.255 212.924 626.871 213.444C624.487 213.964 620.821 211.153 620.302 208.772Z" fill="#6A90D5" fill-opacity="0.43"/>
<path fill-rule="evenodd" clip-rule="evenodd" d="M600.407 213.108C599.888 210.727 602.383 208.161 604.767 207.641C607.151 207.121 609.505 208.631 610.024 211.012C610.543 213.393 609.361 217.261 606.977 217.78C604.593 218.3 600.926 215.489 600.407 213.108Z" fill="#6A90D5" fill-opacity="0.43"/>
<path fill-rule="evenodd" clip-rule="evenodd" d="M580.51 217.445C579.991 215.064 582.486 212.497 584.87 211.978C587.254 211.458 589.608 212.968 590.127 215.349C590.646 217.73 589.464 221.598 587.08 222.117C584.696 222.637 581.029 219.826 580.51 217.445Z" fill="#6A90D5" fill-opacity="0.43"/>
<path fill-rule="evenodd" clip-rule="evenodd" d="M560.614 221.782C560.095 219.4 562.589 216.834 564.973 216.315C567.357 215.795 569.711 217.304 570.23 219.685C570.749 222.067 569.567 225.934 567.183 226.454C564.799 226.974 561.133 224.163 560.614 221.782Z" fill="#6A90D5" fill-opacity="0.43"/>
<path fill-rule="evenodd" clip-rule="evenodd" d="M540.721 226.117C540.202 223.736 542.684 221.173 545.077 220.651C547.461 220.132 549.815 221.641 550.334 224.022C550.853 226.403 549.671 230.271 547.287 230.791C544.894 231.312 541.24 228.499 540.721 226.117Z" fill="#6A90D5" fill-opacity="0.43"/>
<path fill-rule="evenodd" clip-rule="evenodd" d="M520.812 230.457C520.293 228.076 522.796 225.508 525.184 224.987C527.572 224.467 529.908 225.98 530.427 228.361C530.946 230.742 529.782 234.606 527.394 235.127C525.006 235.647 521.331 232.838 520.812 230.457Z" fill="#6A90D5" fill-opacity="0.43"/>
<path fill-rule="evenodd" clip-rule="evenodd" d="M500.924 234.792C500.405 232.411 502.907 229.843 505.296 229.322C507.663 228.806 510.02 230.315 510.539 232.696C511.058 235.077 509.873 238.946 507.506 239.462C505.117 239.982 501.443 237.173 500.924 234.792Z" fill="#6A90D5" fill-opacity="0.43"/>
<path fill-rule="evenodd" clip-rule="evenodd" d="M481.035 239.127C480.516 236.746 482.998 234.182 485.386 233.662C487.775 233.141 490.131 234.65 490.65 237.031C491.169 239.412 489.985 243.281 487.596 243.801C485.208 244.322 481.554 241.508 481.035 239.127Z" fill="#6A90D5" fill-opacity="0.43"/>
<path fill-rule="evenodd" clip-rule="evenodd" d="M461.126 243.467C460.607 241.085 463.11 238.517 465.498 237.997C467.886 237.476 470.222 238.99 470.741 241.371C471.26 243.752 470.096 247.616 467.708 248.136C465.32 248.657 461.645 245.848 461.126 243.467Z" fill="#6A90D5" fill-opacity="0.43"/>
<path fill-rule="evenodd" clip-rule="evenodd" d="M441.238 247.802C440.719 245.42 443.221 242.852 445.589 242.336C447.977 241.816 450.333 243.325 450.852 245.706C451.371 248.087 450.187 251.955 447.799 252.476C445.431 252.992 441.757 250.183 441.238 247.802Z" fill="#6A90D5" fill-opacity="0.43"/>
<path fill-rule="evenodd" clip-rule="evenodd" d="M421.349 252.136C420.83 249.755 423.312 247.192 425.701 246.671C428.089 246.151 430.445 247.66 430.964 250.041C431.483 252.422 430.299 256.29 427.911 256.811C425.522 257.331 421.868 254.518 421.349 252.136Z" fill="#6A90D5" fill-opacity="0.43"/>
<path fill-rule="evenodd" clip-rule="evenodd" d="M401.44 256.476C400.921 254.095 403.424 251.527 405.812 251.006C408.18 250.49 410.536 251.999 411.055 254.38C411.574 256.761 410.39 260.63 408.022 261.146C405.634 261.666 401.959 258.857 401.44 256.476Z" fill="#6A90D5" fill-opacity="0.43"/>
<path fill-rule="evenodd" clip-rule="evenodd" d="M361.643 265.15C361.124 262.769 363.626 260.201 366.015 259.681C368.403 259.16 370.739 260.674 371.258 263.055C371.777 265.436 370.613 269.3 368.225 269.82C365.837 270.341 362.162 267.532 361.643 265.15Z" fill="#6A90D5" fill-opacity="0.43"/>
<path fill-rule="evenodd" clip-rule="evenodd" d="M341.754 269.485C341.235 267.104 343.738 264.536 346.106 264.02C348.494 263.5 350.85 265.009 351.369 267.39C351.888 269.771 350.704 273.639 348.316 274.16C345.948 274.676 342.273 271.867 341.754 269.485Z" fill="#6A90D5" fill-opacity="0.43"/>
<path fill-rule="evenodd" clip-rule="evenodd" d="M321.866 273.82C321.347 271.439 323.829 268.876 326.217 268.355C328.605 267.834 330.962 269.343 331.481 271.725C332 274.106 330.815 277.974 328.427 278.495C326.039 279.015 322.385 276.202 321.866 273.82Z" fill="#6A90D5" fill-opacity="0.43"/>
<path fill-rule="evenodd" clip-rule="evenodd" d="M301.957 278.16C301.438 275.779 303.941 273.211 306.329 272.69C308.697 272.174 311.053 273.683 311.572 276.064C312.091 278.445 310.907 282.313 308.539 282.83C306.151 283.35 302.476 280.541 301.957 278.16Z" fill="#6A90D5" fill-opacity="0.43"/>
<path fill-rule="evenodd" clip-rule="evenodd" d="M282.068 282.495C281.549 280.114 284.032 277.55 286.42 277.03C288.808 276.509 291.164 278.018 291.683 280.399C292.202 282.78 291.018 286.648 288.63 287.169C286.242 287.69 282.587 284.876 282.068 282.495Z" fill="#6A90D5" fill-opacity="0.43"/>
<path fill-rule="evenodd" clip-rule="evenodd" d="M262.159 286.834C261.64 284.453 264.143 281.885 266.531 281.365C268.919 280.844 271.276 282.353 271.795 284.734C272.314 287.115 271.129 290.983 268.741 291.504C266.353 292.025 262.678 289.216 262.159 286.834Z" fill="#6A90D5" fill-opacity="0.43"/>
<path fill-rule="evenodd" clip-rule="evenodd" d="M242.271 291.169C241.752 288.788 244.255 286.22 246.622 285.704C249.011 285.183 251.367 286.692 251.886 289.074C252.405 291.455 251.221 295.323 248.832 295.843C246.465 296.36 242.79 293.55 242.271 291.169Z" fill="#6A90D5" fill-opacity="0.43"/>
<path fill-rule="evenodd" clip-rule="evenodd" d="M222.382 295.504C221.863 293.123 224.346 290.56 226.734 290.039C229.122 289.518 231.478 291.027 231.997 293.409C232.516 295.79 231.332 299.658 228.944 300.178C226.556 300.699 222.901 297.885 222.382 295.504Z" fill="#6A90D5" fill-opacity="0.43"/>
<path fill-rule="evenodd" clip-rule="evenodd" d="M202.473 299.844C201.954 297.463 204.457 294.895 206.845 294.374C209.234 293.853 211.569 295.367 212.088 297.748C212.607 300.129 211.444 303.993 209.055 304.513C206.667 305.034 202.992 302.225 202.473 299.844Z" fill="#6A90D5" fill-opacity="0.43"/>
<path fill-rule="evenodd" clip-rule="evenodd" d="M182.585 304.179C182.066 301.798 184.569 299.23 186.936 298.713C189.325 298.193 191.681 299.702 192.2 302.083C192.719 304.464 191.535 308.332 189.146 308.853C186.779 309.369 183.104 306.56 182.585 304.179Z" fill="#6A90D5" fill-opacity="0.43"/>
<path fill-rule="evenodd" clip-rule="evenodd" d="M162.676 308.518C162.157 306.137 164.66 303.569 167.048 303.048C169.436 302.528 171.792 304.037 172.311 306.418C172.83 308.799 171.646 312.667 169.258 313.188C166.87 313.708 163.195 310.899 162.676 308.518Z" fill="#6A90D5" fill-opacity="0.43"/>
<path fill-rule="evenodd" clip-rule="evenodd" d="M142.788 312.853C142.269 310.472 144.771 307.904 147.159 307.383C149.527 306.867 151.883 308.376 152.402 310.758C152.921 313.139 151.737 317.007 149.37 317.523C146.981 318.043 143.307 315.234 142.788 312.853Z" fill="#6A90D5" fill-opacity="0.43"/>
<path fill-rule="evenodd" clip-rule="evenodd" d="M122.899 317.188C122.38 314.807 124.862 312.243 127.251 311.723C129.639 311.202 131.995 312.711 132.514 315.093C133.033 317.474 131.849 321.342 129.461 321.862C127.072 322.383 123.418 319.569 122.899 317.188Z" fill="#6A90D5" fill-opacity="0.43"/>
<path fill-rule="evenodd" clip-rule="evenodd" d="M636.222 186.183C635.703 183.802 638.198 181.236 640.582 180.716C642.966 180.196 645.32 181.706 645.839 184.087C646.358 186.468 645.176 190.336 642.792 190.855C640.408 191.375 636.741 188.564 636.222 186.183Z" fill="#6A90D5" fill-opacity="0.43"/>
<path fill-rule="evenodd" clip-rule="evenodd" d="M616.323 190.52C615.804 188.139 618.299 185.573 620.683 185.053C623.067 184.533 625.421 186.043 625.94 188.424C626.459 190.805 625.277 194.673 622.893 195.193C620.509 195.712 616.842 192.901 616.323 190.52Z" fill="#6A90D5" fill-opacity="0.43"/>
<path fill-rule="evenodd" clip-rule="evenodd" d="M596.429 194.857C595.91 192.475 598.404 189.909 600.788 189.389C603.173 188.87 605.527 190.379 606.046 192.76C606.565 195.142 605.383 199.009 602.998 199.529C600.614 200.049 596.948 197.238 596.429 194.857Z" fill="#6A90D5" fill-opacity="0.43"/>
<path fill-rule="evenodd" clip-rule="evenodd" d="M576.532 199.193C576.013 196.812 578.507 194.246 580.892 193.726C583.276 193.207 585.63 194.716 586.149 197.097C586.668 199.478 585.486 203.346 583.102 203.866C580.718 204.385 577.051 201.575 576.532 199.193Z" fill="#6A90D5" fill-opacity="0.43"/>
<path fill-rule="evenodd" clip-rule="evenodd" d="M556.635 203.53C556.116 201.149 558.611 198.583 560.995 198.063C563.379 197.543 565.733 199.053 566.252 201.434C566.771 203.815 565.589 207.683 563.205 208.203C560.821 208.722 557.154 205.911 556.635 203.53Z" fill="#6A90D5" fill-opacity="0.43"/>
<path fill-rule="evenodd" clip-rule="evenodd" d="M536.743 207.866C536.224 205.485 538.706 202.921 541.098 202.4C543.482 201.88 545.837 203.39 546.356 205.771C546.875 208.152 545.692 212.02 543.308 212.539C540.916 213.061 537.262 210.247 536.743 207.866Z" fill="#6A90D5" fill-opacity="0.43"/>
<path fill-rule="evenodd" clip-rule="evenodd" d="M516.834 212.205C516.315 209.824 518.818 207.256 521.206 206.736C523.594 206.215 525.93 207.729 526.449 210.11C526.968 212.491 525.804 216.355 523.416 216.875C521.028 217.396 517.353 214.587 516.834 212.205Z" fill="#6A90D5" fill-opacity="0.43"/>
<path fill-rule="evenodd" clip-rule="evenodd" d="M496.946 216.54C496.426 214.159 498.929 211.591 501.317 211.071C503.685 210.555 506.041 212.064 506.56 214.445C507.079 216.826 505.895 220.694 503.528 221.21C501.139 221.731 497.465 218.922 496.946 216.54Z" fill="#6A90D5" fill-opacity="0.43"/>
<path fill-rule="evenodd" clip-rule="evenodd" d="M477.057 220.875C476.538 218.494 479.02 215.931 481.408 215.41C483.797 214.89 486.153 216.399 486.672 218.78C487.191 221.161 486.007 225.029 483.618 225.55C481.23 226.07 477.576 223.257 477.057 220.875Z" fill="#6A90D5" fill-opacity="0.43"/>
<path fill-rule="evenodd" clip-rule="evenodd" d="M457.148 225.215C456.629 222.834 459.132 220.266 461.52 219.745C463.908 219.225 466.244 220.738 466.763 223.119C467.282 225.5 466.118 229.364 463.73 229.885C461.342 230.405 457.667 227.596 457.148 225.215Z" fill="#6A90D5" fill-opacity="0.43"/>
<path fill-rule="evenodd" clip-rule="evenodd" d="M437.259 229.55C436.74 227.169 439.243 224.601 441.611 224.085C443.999 223.564 446.355 225.073 446.874 227.454C447.393 229.835 446.209 233.704 443.821 234.224C441.453 234.74 437.778 231.931 437.259 229.55Z" fill="#6A90D5" fill-opacity="0.43"/>
<path fill-rule="evenodd" clip-rule="evenodd" d="M417.371 233.885C416.852 231.504 419.334 228.94 421.722 228.42C424.111 227.899 426.467 229.408 426.986 231.789C427.505 234.17 426.321 238.039 423.932 238.559C421.544 239.08 417.89 236.266 417.371 233.885Z" fill="#6A90D5" fill-opacity="0.43"/>
<path fill-rule="evenodd" clip-rule="evenodd" d="M397.462 238.224C396.943 235.843 399.446 233.275 401.834 232.755C404.202 232.239 406.558 233.748 407.077 236.129C407.596 238.51 406.412 242.378 404.044 242.894C401.656 243.415 397.981 240.606 397.462 238.224Z" fill="#6A90D5" fill-opacity="0.43"/>
<path fill-rule="evenodd" clip-rule="evenodd" d="M377.574 242.559C377.054 240.178 379.537 237.615 381.925 237.094C384.313 236.574 386.669 238.083 387.188 240.464C387.707 242.845 386.523 246.713 384.135 247.234C381.747 247.754 378.093 244.941 377.574 242.559Z" fill="#6A90D5" fill-opacity="0.43"/>
<path fill-rule="evenodd" clip-rule="evenodd" d="M357.665 246.899C357.145 244.518 359.648 241.95 362.036 241.429C364.425 240.909 366.76 242.422 367.279 244.803C367.798 247.184 366.635 251.048 364.247 251.569C361.858 252.089 358.184 249.28 357.665 246.899Z" fill="#6A90D5" fill-opacity="0.43"/>
<path fill-rule="evenodd" clip-rule="evenodd" d="M337.776 251.234C337.257 248.853 339.76 246.285 342.128 245.769C344.516 245.248 346.872 246.757 347.391 249.138C347.91 251.519 346.726 255.388 344.338 255.908C341.97 256.424 338.295 253.615 337.776 251.234Z" fill="#6A90D5" fill-opacity="0.43"/>
<path fill-rule="evenodd" clip-rule="evenodd" d="M317.888 255.569C317.369 253.188 319.851 250.624 322.239 250.104C324.627 249.583 326.984 251.092 327.503 253.473C328.022 255.854 326.837 259.723 324.449 260.243C322.061 260.764 318.407 257.95 317.888 255.569Z" fill="#6A90D5" fill-opacity="0.43"/>
<path fill-rule="evenodd" clip-rule="evenodd" d="M297.979 259.908C297.46 257.527 299.962 254.959 302.351 254.439C304.718 253.922 307.074 255.431 307.593 257.813C308.112 260.194 306.928 264.062 304.561 264.578C302.172 265.099 298.498 262.29 297.979 259.908Z" fill="#6A90D5" fill-opacity="0.43"/>
<path fill-rule="evenodd" clip-rule="evenodd" d="M278.09 264.243C277.571 261.862 280.053 259.299 282.442 258.778C284.83 258.257 287.186 259.766 287.705 262.148C288.224 264.529 287.04 268.397 284.652 268.918C282.263 269.438 278.609 266.624 278.09 264.243Z" fill="#6A90D5" fill-opacity="0.43"/>
<path fill-rule="evenodd" clip-rule="evenodd" d="M258.181 268.583C257.662 266.202 260.165 263.634 262.553 263.113C264.941 262.592 267.298 264.101 267.817 266.483C268.336 268.864 267.151 272.732 264.763 273.253C262.375 273.773 258.7 270.964 258.181 268.583Z" fill="#6A90D5" fill-opacity="0.43"/>
<path fill-rule="evenodd" clip-rule="evenodd" d="M238.293 272.918C237.774 270.537 240.276 267.969 242.644 267.453C245.032 266.932 247.389 268.441 247.908 270.822C248.427 273.203 247.242 277.071 244.854 277.592C242.487 278.108 238.812 275.299 238.293 272.918Z" fill="#6A90D5" fill-opacity="0.43"/>
<path fill-rule="evenodd" clip-rule="evenodd" d="M218.404 277.253C217.885 274.872 220.367 272.308 222.756 271.788C225.144 271.267 227.5 272.776 228.019 275.157C228.538 277.538 227.354 281.406 224.966 281.927C222.577 282.448 218.923 279.634 218.404 277.253Z" fill="#6A90D5" fill-opacity="0.43"/>
<path fill-rule="evenodd" clip-rule="evenodd" d="M198.495 281.592C197.976 279.211 200.479 276.643 202.867 276.122C205.255 275.602 207.591 277.115 208.11 279.497C208.629 281.878 207.466 285.741 205.077 286.262C202.689 286.783 199.014 283.973 198.495 281.592Z" fill="#6A90D5" fill-opacity="0.43"/>
<path fill-rule="evenodd" clip-rule="evenodd" d="M158.698 290.267C158.179 287.886 160.682 285.318 163.07 284.797C165.458 284.276 167.814 285.785 168.333 288.167C168.852 290.548 167.668 294.416 165.28 294.936C162.892 295.457 159.217 292.648 158.698 290.267Z" fill="#6A90D5" fill-opacity="0.43"/>
<path fill-rule="evenodd" clip-rule="evenodd" d="M138.809 294.602C138.29 292.221 140.793 289.652 143.181 289.132C145.549 288.616 147.905 290.125 148.424 292.506C148.943 294.887 147.759 298.755 145.391 299.271C143.003 299.792 139.328 296.983 138.809 294.602Z" fill="#6A90D5" fill-opacity="0.43"/>
<path fill-rule="evenodd" clip-rule="evenodd" d="M118.921 298.937C118.402 296.556 120.884 293.992 123.272 293.471C125.661 292.951 128.017 294.46 128.536 296.841C129.055 299.222 127.871 303.09 125.483 303.611C123.094 304.131 119.44 301.318 118.921 298.937Z" fill="#6A90D5" fill-opacity="0.43"/>
<path fill-rule="evenodd" clip-rule="evenodd" d="M632.244 167.932C631.725 165.55 634.219 162.984 636.604 162.464C638.988 161.945 641.342 163.454 641.861 165.835C642.38 168.217 641.198 172.084 638.814 172.604C636.429 173.124 632.763 170.313 632.244 167.932Z" fill="#6A90D5" fill-opacity="0.43"/>
<path fill-rule="evenodd" clip-rule="evenodd" d="M612.345 172.269C611.826 169.888 614.321 167.321 616.705 166.802C619.089 166.282 621.443 167.791 621.962 170.173C622.481 172.554 621.299 176.421 618.915 176.941C616.531 177.461 612.864 174.65 612.345 172.269Z" fill="#6A90D5" fill-opacity="0.43"/>
<path fill-rule="evenodd" clip-rule="evenodd" d="M592.451 176.605C591.932 174.224 594.426 171.658 596.81 171.138C599.194 170.618 601.548 172.128 602.067 174.509C602.586 176.89 601.404 180.758 599.02 181.277C596.636 181.797 592.97 178.986 592.451 176.605Z" fill="#6A90D5" fill-opacity="0.43"/>
<path fill-rule="evenodd" clip-rule="evenodd" d="M572.554 180.942C572.035 178.561 574.529 175.994 576.913 175.475C579.298 174.955 581.652 176.465 582.171 178.846C582.69 181.227 581.508 185.095 579.124 185.614C576.739 186.134 573.073 183.323 572.554 180.942Z" fill="#6A90D5" fill-opacity="0.43"/>
<path fill-rule="evenodd" clip-rule="evenodd" d="M552.657 185.279C552.138 182.897 554.633 180.331 557.017 179.812C559.401 179.292 561.755 180.801 562.274 183.182C562.793 185.564 561.611 189.431 559.227 189.951C556.843 190.471 553.176 187.66 552.657 185.279Z" fill="#6A90D5" fill-opacity="0.43"/>
<path fill-rule="evenodd" clip-rule="evenodd" d="M532.765 189.615C532.246 187.233 534.728 184.67 537.12 184.148C539.504 183.629 541.859 185.138 542.378 187.519C542.897 189.9 541.714 193.768 539.33 194.288C536.938 194.809 533.284 191.996 532.765 189.615Z" fill="#6A90D5" fill-opacity="0.43"/>
<path fill-rule="evenodd" clip-rule="evenodd" d="M512.856 193.954C512.337 191.573 514.839 189.005 517.228 188.484C519.616 187.964 521.952 189.477 522.471 191.858C522.99 194.24 521.826 198.103 519.438 198.624C517.049 199.144 513.375 196.335 512.856 193.954Z" fill="#6A90D5" fill-opacity="0.43"/>
<path fill-rule="evenodd" clip-rule="evenodd" d="M492.967 198.289C492.448 195.908 494.951 193.34 497.339 192.819C499.707 192.303 502.063 193.812 502.582 196.193C503.101 198.574 501.917 202.443 499.549 202.959C497.161 203.479 493.486 200.67 492.967 198.289Z" fill="#6A90D5" fill-opacity="0.43"/>
<path fill-rule="evenodd" clip-rule="evenodd" d="M473.079 202.624C472.56 200.243 475.042 197.679 477.43 197.159C479.818 196.638 482.175 198.147 482.694 200.528C483.213 202.909 482.028 206.778 479.64 207.298C477.252 207.819 473.598 205.005 473.079 202.624Z" fill="#6A90D5" fill-opacity="0.43"/>
<path fill-rule="evenodd" clip-rule="evenodd" d="M453.17 206.963C452.651 204.582 455.153 202.014 457.542 201.494C459.93 200.973 462.266 202.487 462.785 204.868C463.304 207.249 462.14 211.113 459.752 211.633C457.364 212.154 453.689 209.345 453.17 206.963Z" fill="#6A90D5" fill-opacity="0.43"/>
<path fill-rule="evenodd" clip-rule="evenodd" d="M449.028 187.964C448.509 185.582 451.012 183.014 453.4 182.494C455.789 181.973 458.124 183.487 458.643 185.868C459.162 188.249 457.999 192.113 455.61 192.633C453.222 193.154 449.547 190.345 449.028 187.964Z" fill="#6A90D5" fill-opacity="0.43"/>
<path fill-rule="evenodd" clip-rule="evenodd" d="M433.281 211.298C432.762 208.917 435.265 206.349 437.633 205.833C440.021 205.313 442.377 206.822 442.896 209.203C443.415 211.584 442.231 215.452 439.843 215.973C437.475 216.489 433.8 213.68 433.281 211.298Z" fill="#6A90D5" fill-opacity="0.43"/>
<path fill-rule="evenodd" clip-rule="evenodd" d="M413.393 215.633C412.874 213.252 415.356 210.689 417.744 210.168C420.133 209.648 422.489 211.157 423.008 213.538C423.527 215.919 422.343 219.787 419.954 220.308C417.566 220.828 413.912 218.015 413.393 215.633Z" fill="#6A90D5" fill-opacity="0.43"/>
<path fill-rule="evenodd" clip-rule="evenodd" d="M393.484 219.973C392.965 217.592 395.467 215.024 397.856 214.503C400.223 213.987 402.58 215.496 403.099 217.877C403.618 220.258 402.433 224.127 400.066 224.643C397.677 225.163 394.003 222.354 393.484 219.973Z" fill="#6A90D5" fill-opacity="0.43"/>
<path fill-rule="evenodd" clip-rule="evenodd" d="M373.595 224.308C373.076 221.927 375.558 219.363 377.947 218.843C380.335 218.322 382.691 219.831 383.21 222.212C383.729 224.593 382.545 228.462 380.157 228.982C377.769 229.503 374.114 226.689 373.595 224.308Z" fill="#6A90D5" fill-opacity="0.43"/>
<path fill-rule="evenodd" clip-rule="evenodd" d="M353.686 228.647C353.167 226.266 355.67 223.698 358.058 223.178C360.447 222.657 362.782 224.171 363.301 226.552C363.82 228.933 362.657 232.797 360.268 233.317C357.88 233.838 354.205 231.029 353.686 228.647Z" fill="#6A90D5" fill-opacity="0.43"/>
<path fill-rule="evenodd" clip-rule="evenodd" d="M333.798 232.982C333.279 230.601 335.782 228.033 338.149 227.517C340.538 226.997 342.894 228.506 343.413 230.887C343.932 233.268 342.748 237.136 340.359 237.657C337.992 238.173 334.317 235.364 333.798 232.982Z" fill="#6A90D5" fill-opacity="0.43"/>
<path fill-rule="evenodd" clip-rule="evenodd" d="M313.91 237.317C313.391 234.936 315.873 232.373 318.261 231.852C320.649 231.332 323.005 232.841 323.524 235.222C324.043 237.603 322.859 241.471 320.471 241.992C318.083 242.512 314.429 239.699 313.91 237.317Z" fill="#6A90D5" fill-opacity="0.43"/>
<path fill-rule="evenodd" clip-rule="evenodd" d="M294.001 241.657C293.482 239.276 295.984 236.708 298.373 236.187C300.74 235.671 303.096 237.18 303.615 239.561C304.134 241.942 302.95 245.81 300.583 246.327C298.194 246.847 294.52 244.038 294.001 241.657Z" fill="#6A90D5" fill-opacity="0.43"/>
<path fill-rule="evenodd" clip-rule="evenodd" d="M274.112 245.992C273.593 243.611 276.075 241.047 278.463 240.527C280.852 240.006 283.208 241.515 283.727 243.896C284.246 246.277 283.062 250.146 280.673 250.666C278.285 251.187 274.631 248.373 274.112 245.992Z" fill="#6A90D5" fill-opacity="0.43"/>
<path fill-rule="evenodd" clip-rule="evenodd" d="M254.203 250.331C253.684 247.95 256.187 245.382 258.575 244.862C260.963 244.341 263.319 245.85 263.838 248.231C264.357 250.612 263.173 254.48 260.785 255.001C258.397 255.522 254.722 252.713 254.203 250.331Z" fill="#6A90D5" fill-opacity="0.43"/>
<path fill-rule="evenodd" clip-rule="evenodd" d="M234.315 254.666C233.796 252.285 236.298 249.717 238.666 249.201C241.054 248.68 243.41 250.189 243.929 252.571C244.448 254.952 243.264 258.82 240.876 259.34C238.508 259.857 234.834 257.047 234.315 254.666Z" fill="#6A90D5" fill-opacity="0.43"/>
<path fill-rule="evenodd" clip-rule="evenodd" d="M214.426 259.001C213.907 256.62 216.389 254.057 218.777 253.536C221.166 253.015 223.522 254.524 224.041 256.906C224.56 259.287 223.376 263.155 220.987 263.675C218.599 264.196 214.945 261.382 214.426 259.001Z" fill="#6A90D5" fill-opacity="0.43"/>
<path fill-rule="evenodd" clip-rule="evenodd" d="M194.517 263.341C193.998 260.96 196.501 258.391 198.889 257.871C201.277 257.35 203.613 258.864 204.132 261.245C204.651 263.626 203.487 267.49 201.099 268.01C198.711 268.531 195.036 265.722 194.517 263.341Z" fill="#6A90D5" fill-opacity="0.43"/>
<path fill-rule="evenodd" clip-rule="evenodd" d="M174.629 267.676C174.11 265.295 176.612 262.727 178.98 262.21C181.368 261.69 183.725 263.199 184.244 265.58C184.763 267.961 183.578 271.829 181.19 272.35C178.822 272.866 175.148 270.057 174.629 267.676Z" fill="#6A90D5" fill-opacity="0.43"/>
<path fill-rule="evenodd" clip-rule="evenodd" d="M134.831 276.35C134.312 273.969 136.815 271.401 139.203 270.88C141.571 270.364 143.927 271.873 144.446 274.255C144.965 276.636 143.781 280.504 141.413 281.02C139.025 281.54 135.35 278.731 134.831 276.35Z" fill="#6A90D5" fill-opacity="0.43"/>
<path fill-rule="evenodd" clip-rule="evenodd" d="M114.943 280.685C114.424 278.304 116.906 275.741 119.294 275.22C121.683 274.699 124.039 276.208 124.558 278.59C125.077 280.971 123.893 284.839 121.504 285.359C119.116 285.88 115.462 283.066 114.943 280.685Z" fill="#6A90D5" fill-opacity="0.43"/>
<path fill-rule="evenodd" clip-rule="evenodd" d="M628.266 149.68C627.747 147.299 630.241 144.733 632.625 144.213C635.01 143.693 637.364 145.203 637.883 147.584C638.402 149.965 637.22 153.833 634.835 154.352C632.451 154.872 628.785 152.061 628.266 149.68Z" fill="#6A90D5" fill-opacity="0.43"/>
<path fill-rule="evenodd" clip-rule="evenodd" d="M608.367 154.017C607.848 151.636 610.342 149.07 612.727 148.55C615.111 148.03 617.465 149.54 617.984 151.921C618.503 154.302 617.321 158.17 614.937 158.69C612.552 159.209 608.886 156.398 608.367 154.017Z" fill="#6A90D5" fill-opacity="0.43"/>
<path fill-rule="evenodd" clip-rule="evenodd" d="M588.472 158.354C587.953 155.972 590.448 153.406 592.832 152.886C595.216 152.367 597.57 153.876 598.089 156.257C598.608 158.639 597.426 162.506 595.042 163.026C592.658 163.546 588.991 160.735 588.472 158.354Z" fill="#6A90D5" fill-opacity="0.43"/>
<path fill-rule="evenodd" clip-rule="evenodd" d="M568.576 162.69C568.057 160.309 570.551 157.743 572.935 157.223C575.32 156.704 577.674 158.213 578.193 160.594C578.712 162.975 577.53 166.843 575.145 167.363C572.761 167.882 569.095 165.072 568.576 162.69Z" fill="#6A90D5" fill-opacity="0.43"/>
<path fill-rule="evenodd" clip-rule="evenodd" d="M548.679 167.027C548.16 164.646 550.655 162.08 553.039 161.56C555.423 161.04 557.777 162.55 558.296 164.931C558.815 167.312 557.633 171.18 555.249 171.7C552.865 172.219 549.198 169.408 548.679 167.027Z" fill="#6A90D5" fill-opacity="0.43"/>
<path fill-rule="evenodd" clip-rule="evenodd" d="M528.787 171.363C528.267 168.982 530.75 166.418 533.142 165.897C535.526 165.377 537.88 166.887 538.399 169.268C538.918 171.649 537.736 175.517 535.352 176.036C532.96 176.558 529.306 173.744 528.787 171.363Z" fill="#6A90D5" fill-opacity="0.43"/>
<path fill-rule="evenodd" clip-rule="evenodd" d="M508.877 175.703C508.358 173.321 510.861 170.753 513.249 170.233C515.638 169.712 517.973 171.226 518.492 173.607C519.011 175.988 517.848 179.852 515.459 180.372C513.071 180.893 509.396 178.084 508.877 175.703Z" fill="#6A90D5" fill-opacity="0.43"/>
<path fill-rule="evenodd" clip-rule="evenodd" d="M488.989 180.038C488.47 177.656 490.973 175.088 493.361 174.568C495.729 174.052 498.085 175.561 498.604 177.942C499.123 180.323 497.939 184.191 495.571 184.707C493.183 185.228 489.508 182.419 488.989 180.038Z" fill="#6A90D5" fill-opacity="0.43"/>
<path fill-rule="evenodd" clip-rule="evenodd" d="M429.303 193.047C428.784 190.666 431.287 188.098 433.655 187.582C436.043 187.061 438.399 188.57 438.918 190.951C439.437 193.332 438.253 197.201 435.865 197.721C433.497 198.237 429.822 195.428 429.303 193.047Z" fill="#6A90D5" fill-opacity="0.43"/>
<path fill-rule="evenodd" clip-rule="evenodd" d="M389.506 201.721C388.987 199.34 391.489 196.772 393.878 196.252C396.245 195.736 398.601 197.245 399.12 199.626C399.639 202.007 398.455 205.875 396.088 206.391C393.699 206.912 390.025 204.103 389.506 201.721Z" fill="#6A90D5" fill-opacity="0.43"/>
<path fill-rule="evenodd" clip-rule="evenodd" d="M369.617 206.056C369.098 203.675 371.58 201.112 373.968 200.591C376.357 200.071 378.713 201.58 379.232 203.961C379.751 206.342 378.567 210.21 376.178 210.731C373.79 211.251 370.136 208.438 369.617 206.056Z" fill="#6A90D5" fill-opacity="0.43"/>
<path fill-rule="evenodd" clip-rule="evenodd" d="M309.931 219.066C309.412 216.685 311.894 214.121 314.283 213.601C316.671 213.08 319.027 214.589 319.546 216.97C320.065 219.351 318.881 223.22 316.493 223.74C314.104 224.261 310.45 221.447 309.931 219.066Z" fill="#6A90D5" fill-opacity="0.43"/>
<path fill-rule="evenodd" clip-rule="evenodd" d="M290.022 223.405C289.503 221.024 292.006 218.456 294.394 217.936C296.762 217.42 299.118 218.929 299.637 221.31C300.156 223.691 298.972 227.559 296.604 228.075C294.216 228.596 290.541 225.787 290.022 223.405Z" fill="#6A90D5" fill-opacity="0.43"/>
<path fill-rule="evenodd" clip-rule="evenodd" d="M270.134 227.74C269.615 225.359 272.097 222.796 274.485 222.275C276.873 221.754 279.23 223.263 279.749 225.645C280.268 228.026 279.084 231.894 276.695 232.415C274.307 232.935 270.653 230.121 270.134 227.74Z" fill="#6A90D5" fill-opacity="0.43"/>
<path fill-rule="evenodd" clip-rule="evenodd" d="M250.225 232.08C249.706 229.699 252.208 227.131 254.597 226.61C256.985 226.089 259.341 227.598 259.86 229.98C260.379 232.361 259.195 236.229 256.807 236.75C254.418 237.27 250.744 234.461 250.225 232.08Z" fill="#6A90D5" fill-opacity="0.43"/>
<path fill-rule="evenodd" clip-rule="evenodd" d="M230.336 236.415C229.817 234.034 232.32 231.466 234.688 230.95C237.076 230.429 239.432 231.938 239.951 234.319C240.47 236.7 239.286 240.568 236.898 241.089C234.53 241.605 230.855 238.796 230.336 236.415Z" fill="#6A90D5" fill-opacity="0.43"/>
<path fill-rule="evenodd" clip-rule="evenodd" d="M210.448 240.75C209.929 238.369 212.411 235.805 214.799 235.284C217.188 234.764 219.544 236.273 220.063 238.654C220.582 241.035 219.398 244.903 217.009 245.424C214.621 245.945 210.967 243.131 210.448 240.75Z" fill="#6A90D5" fill-opacity="0.43"/>
<path fill-rule="evenodd" clip-rule="evenodd" d="M190.539 245.089C190.02 242.708 192.523 240.14 194.911 239.619C197.299 239.099 199.635 240.612 200.154 242.994C200.673 245.375 199.509 249.238 197.121 249.759C194.733 250.28 191.058 247.47 190.539 245.089Z" fill="#6A90D5" fill-opacity="0.43"/>
<path fill-rule="evenodd" clip-rule="evenodd" d="M170.65 249.424C170.131 247.043 172.634 244.475 175.002 243.959C177.39 243.438 179.746 244.947 180.265 247.329C180.784 249.71 179.6 253.578 177.212 254.098C174.844 254.615 171.169 251.805 170.65 249.424Z" fill="#6A90D5" fill-opacity="0.43"/>
<path fill-rule="evenodd" clip-rule="evenodd" d="M150.742 253.764C150.223 251.383 152.725 248.814 155.114 248.294C157.502 247.773 159.858 249.282 160.377 251.664C160.896 254.045 159.712 257.913 157.324 258.433C154.935 258.954 151.261 256.145 150.742 253.764Z" fill="#6A90D5" fill-opacity="0.43"/>
<path fill-rule="evenodd" clip-rule="evenodd" d="M130.853 258.099C130.334 255.718 132.837 253.149 135.225 252.629C137.593 252.113 139.949 253.622 140.468 256.003C140.987 258.384 139.803 262.252 137.435 262.768C135.047 263.289 131.372 260.48 130.853 258.099Z" fill="#6A90D5" fill-opacity="0.43"/>
<path fill-rule="evenodd" clip-rule="evenodd" d="M110.965 262.434C110.446 260.053 112.928 257.489 115.316 256.968C117.704 256.448 120.06 257.957 120.579 260.338C121.098 262.719 119.914 266.587 117.526 267.108C115.138 267.629 111.484 264.815 110.965 262.434Z" fill="#6A90D5" fill-opacity="0.43"/>
<path fill-rule="evenodd" clip-rule="evenodd" d="M624.288 131.429C623.768 129.047 626.263 126.481 628.647 125.961C631.031 125.442 633.385 126.951 633.904 129.332C634.423 131.714 633.241 135.581 630.857 136.101C628.473 136.621 624.807 133.81 624.288 131.429Z" fill="#6A90D5" fill-opacity="0.43"/>
<path fill-rule="evenodd" clip-rule="evenodd" d="M604.389 135.766C603.87 133.385 606.364 130.818 608.748 130.299C611.133 129.779 613.487 131.288 614.006 133.67C614.525 136.051 613.343 139.919 610.959 140.438C608.574 140.958 604.908 138.147 604.389 135.766Z" fill="#6A90D5" fill-opacity="0.43"/>
<path fill-rule="evenodd" clip-rule="evenodd" d="M584.494 140.102C583.975 137.721 586.47 135.155 588.854 134.635C591.238 134.115 593.592 135.625 594.111 138.006C594.63 140.387 593.448 144.255 591.064 144.774C588.68 145.294 585.013 142.483 584.494 140.102Z" fill="#6A90D5" fill-opacity="0.43"/>
<path fill-rule="evenodd" clip-rule="evenodd" d="M564.598 144.439C564.078 142.058 566.573 139.491 568.957 138.972C571.341 138.452 573.695 139.962 574.214 142.343C574.733 144.724 573.551 148.592 571.167 149.111C568.783 149.631 565.117 146.82 564.598 144.439Z" fill="#6A90D5" fill-opacity="0.43"/>
<path fill-rule="evenodd" clip-rule="evenodd" d="M544.701 148.776C544.182 146.394 546.676 143.828 549.06 143.309C551.445 142.789 553.799 144.298 554.318 146.679C554.837 149.061 553.655 152.928 551.27 153.448C548.886 153.968 545.22 151.157 544.701 148.776Z" fill="#6A90D5" fill-opacity="0.43"/>
<path fill-rule="evenodd" clip-rule="evenodd" d="M524.808 153.112C524.289 150.73 526.772 148.167 529.164 147.645C531.548 147.126 533.902 148.635 534.421 151.016C534.94 153.397 533.758 157.265 531.374 157.785C528.982 158.306 525.327 155.493 524.808 153.112Z" fill="#6A90D5" fill-opacity="0.43"/>
<path fill-rule="evenodd" clip-rule="evenodd" d="M504.899 157.451C504.38 155.07 506.883 152.502 509.271 151.981C511.659 151.461 513.995 152.974 514.514 155.355C515.033 157.736 513.869 161.6 511.481 162.121C509.093 162.641 505.418 159.832 504.899 157.451Z" fill="#6A90D5" fill-opacity="0.43"/>
<path fill-rule="evenodd" clip-rule="evenodd" d="M465.122 166.121C464.603 163.74 467.085 161.176 469.474 160.656C471.862 160.135 474.218 161.644 474.737 164.025C475.256 166.406 474.072 170.275 471.684 170.795C469.296 171.316 465.641 168.502 465.122 166.121Z" fill="#6A90D5" fill-opacity="0.43"/>
<path fill-rule="evenodd" clip-rule="evenodd" d="M425.325 174.795C424.806 172.414 427.309 169.846 429.676 169.33C432.065 168.81 434.421 170.319 434.94 172.7C435.459 175.081 434.275 178.949 431.886 179.47C429.519 179.986 425.844 177.177 425.325 174.795Z" fill="#6A90D5" fill-opacity="0.43"/>
<path fill-rule="evenodd" clip-rule="evenodd" d="M405.437 179.13C404.918 176.749 407.4 174.186 409.788 173.665C412.176 173.145 414.532 174.654 415.051 177.035C415.57 179.416 414.386 183.284 411.998 183.805C409.61 184.325 405.956 181.512 405.437 179.13Z" fill="#6A90D5" fill-opacity="0.43"/>
<path fill-rule="evenodd" clip-rule="evenodd" d="M385.527 183.47C385.008 181.089 387.511 178.521 389.899 178C392.267 177.484 394.623 178.993 395.142 181.374C395.661 183.755 394.477 187.624 392.109 188.14C389.721 188.66 386.046 185.851 385.527 183.47Z" fill="#6A90D5" fill-opacity="0.43"/>
<path fill-rule="evenodd" clip-rule="evenodd" d="M365.639 187.805C365.12 185.424 367.602 182.86 369.99 182.34C372.379 181.819 374.735 183.328 375.254 185.709C375.773 188.09 374.589 191.959 372.2 192.479C369.812 193 366.158 190.186 365.639 187.805Z" fill="#6A90D5" fill-opacity="0.43"/>
<path fill-rule="evenodd" clip-rule="evenodd" d="M345.73 192.144C345.211 189.763 347.714 187.195 350.102 186.675C352.49 186.154 354.826 187.668 355.345 190.049C355.864 192.43 354.7 196.294 352.312 196.814C349.924 197.335 346.249 194.526 345.73 192.144Z" fill="#6A90D5" fill-opacity="0.43"/>
<path fill-rule="evenodd" clip-rule="evenodd" d="M325.842 196.479C325.323 194.098 327.825 191.53 330.193 191.014C332.581 190.494 334.937 192.003 335.456 194.384C335.976 196.765 334.791 200.633 332.403 201.154C330.035 201.67 326.361 198.861 325.842 196.479Z" fill="#6A90D5" fill-opacity="0.43"/>
<path fill-rule="evenodd" clip-rule="evenodd" d="M305.953 200.814C305.434 198.433 307.916 195.87 310.304 195.349C312.693 194.829 315.049 196.338 315.568 198.719C316.087 201.1 314.903 204.968 312.515 205.489C310.126 206.009 306.472 203.196 305.953 200.814Z" fill="#6A90D5" fill-opacity="0.43"/>
<path fill-rule="evenodd" clip-rule="evenodd" d="M246.247 213.828C245.728 211.447 248.23 208.879 250.618 208.359C253.007 207.838 255.363 209.347 255.882 211.728C256.401 214.109 255.217 217.978 252.829 218.498C250.44 219.019 246.766 216.21 246.247 213.828Z" fill="#6A90D5" fill-opacity="0.43"/>
<path fill-rule="evenodd" clip-rule="evenodd" d="M226.358 218.163C225.839 215.782 228.342 213.214 230.71 212.698C233.098 212.177 235.454 213.686 235.973 216.068C236.492 218.449 235.308 222.317 232.92 222.838C230.552 223.354 226.877 220.545 226.358 218.163Z" fill="#6A90D5" fill-opacity="0.43"/>
<path fill-rule="evenodd" clip-rule="evenodd" d="M206.47 222.498C205.951 220.117 208.433 217.554 210.821 217.033C213.209 216.512 215.565 218.021 216.084 220.403C216.603 222.784 215.419 226.652 213.031 227.172C210.643 227.693 206.989 224.879 206.47 222.498Z" fill="#6A90D5" fill-opacity="0.43"/>
<path fill-rule="evenodd" clip-rule="evenodd" d="M186.561 226.838C186.042 224.457 188.544 221.889 190.933 221.368C193.321 220.847 195.656 222.361 196.175 224.742C196.694 227.123 195.531 230.987 193.143 231.507C190.754 232.028 187.08 229.219 186.561 226.838Z" fill="#6A90D5" fill-opacity="0.43"/>
<path fill-rule="evenodd" clip-rule="evenodd" d="M166.672 231.173C166.153 228.792 168.656 226.224 171.024 225.707C173.412 225.187 175.768 226.696 176.287 229.077C176.806 231.458 175.622 235.326 173.234 235.847C170.866 236.363 167.191 233.554 166.672 231.173Z" fill="#6A90D5" fill-opacity="0.43"/>
<path fill-rule="evenodd" clip-rule="evenodd" d="M146.763 235.512C146.244 233.131 148.747 230.563 151.135 230.042C153.523 229.522 155.88 231.031 156.399 233.412C156.918 235.793 155.734 239.661 153.345 240.182C150.957 240.703 147.282 237.893 146.763 235.512Z" fill="#6A90D5" fill-opacity="0.43"/>
<path fill-rule="evenodd" clip-rule="evenodd" d="M126.875 239.847C126.356 237.466 128.858 234.898 131.247 234.377C133.614 233.861 135.971 235.37 136.49 237.752C137.009 240.133 135.824 244.001 133.457 244.517C131.069 245.038 127.394 242.228 126.875 239.847Z" fill="#6A90D5" fill-opacity="0.43"/>
<path fill-rule="evenodd" clip-rule="evenodd" d="M106.987 244.182C106.468 241.801 108.95 239.238 111.338 238.717C113.726 238.196 116.082 239.705 116.601 242.087C117.12 244.468 115.936 248.336 113.548 248.856C111.16 249.377 107.506 246.563 106.987 244.182Z" fill="#6A90D5" fill-opacity="0.43"/>
<path fill-rule="evenodd" clip-rule="evenodd" d="M620.31 113.179C619.791 110.798 622.285 108.232 624.669 107.712C627.053 107.192 629.408 108.702 629.927 111.083C630.446 113.464 629.264 117.332 626.879 117.852C624.495 118.371 620.829 115.56 620.31 113.179Z" fill="#6A90D5" fill-opacity="0.43"/>
<path fill-rule="evenodd" clip-rule="evenodd" d="M600.411 117.516C599.892 115.135 602.387 112.569 604.771 112.049C607.155 111.53 609.509 113.039 610.028 115.42C610.547 117.801 609.365 121.669 606.981 122.189C604.597 122.708 600.93 119.898 600.411 117.516Z" fill="#6A90D5" fill-opacity="0.43"/>
<path fill-rule="evenodd" clip-rule="evenodd" d="M580.516 121.853C579.997 119.472 582.492 116.905 584.876 116.386C587.26 115.866 589.614 117.375 590.133 119.757C590.652 122.138 589.47 126.005 587.086 126.525C584.702 127.045 581.035 124.234 580.516 121.853Z" fill="#6A90D5" fill-opacity="0.43"/>
<path fill-rule="evenodd" clip-rule="evenodd" d="M560.62 126.189C560.101 123.808 562.595 121.242 564.979 120.722C567.364 120.203 569.718 121.712 570.237 124.093C570.756 126.474 569.574 130.342 567.189 130.862C564.805 131.381 561.139 128.571 560.62 126.189Z" fill="#6A90D5" fill-opacity="0.43"/>
<path fill-rule="evenodd" clip-rule="evenodd" d="M540.723 130.526C540.204 128.145 542.699 125.579 545.083 125.059C547.467 124.539 549.821 126.049 550.34 128.43C550.859 130.811 549.677 134.679 547.293 135.199C544.909 135.718 541.242 132.907 540.723 130.526Z" fill="#6A90D5" fill-opacity="0.43"/>
<path fill-rule="evenodd" clip-rule="evenodd" d="M520.831 134.862C520.311 132.481 522.794 129.917 525.186 129.396C527.57 128.876 529.924 130.386 530.443 132.767C530.962 135.148 529.78 139.016 527.396 139.535C525.004 140.057 521.35 137.243 520.831 134.862Z" fill="#6A90D5" fill-opacity="0.43"/>
<path fill-rule="evenodd" clip-rule="evenodd" d="M481.033 143.537C480.514 141.155 483.017 138.587 485.405 138.067C487.773 137.551 490.129 139.06 490.648 141.441C491.167 143.822 489.983 147.69 487.615 148.206C485.227 148.727 481.552 145.918 481.033 143.537Z" fill="#6A90D5" fill-opacity="0.43"/>
<path fill-rule="evenodd" clip-rule="evenodd" d="M461.145 147.872C460.626 145.49 463.108 142.927 465.496 142.406C467.884 141.886 470.241 143.395 470.76 145.776C471.279 148.157 470.094 152.025 467.706 152.546C465.318 153.066 461.664 150.253 461.145 147.872Z" fill="#6A90D5" fill-opacity="0.43"/>
<path fill-rule="evenodd" clip-rule="evenodd" d="M441.236 152.211C440.717 149.83 443.219 147.262 445.608 146.741C447.996 146.221 450.331 147.734 450.85 150.115C451.369 152.497 450.206 156.36 447.818 156.881C445.429 157.401 441.755 154.592 441.236 152.211Z" fill="#6A90D5" fill-opacity="0.43"/>
<path fill-rule="evenodd" clip-rule="evenodd" d="M421.347 156.546C420.828 154.165 423.331 151.597 425.699 151.081C428.087 150.56 430.443 152.069 430.962 154.45C431.481 156.832 430.297 160.7 427.909 161.22C425.541 161.736 421.866 158.927 421.347 156.546Z" fill="#6A90D5" fill-opacity="0.43"/>
<path fill-rule="evenodd" clip-rule="evenodd" d="M401.459 160.881C400.94 158.5 403.422 155.936 405.81 155.416C408.198 154.895 410.555 156.404 411.074 158.785C411.593 161.167 410.409 165.035 408.02 165.555C405.632 166.076 401.978 163.262 401.459 160.881Z" fill="#6A90D5" fill-opacity="0.43"/>
<path fill-rule="evenodd" clip-rule="evenodd" d="M381.55 165.22C381.031 162.839 383.533 160.271 385.922 159.751C388.289 159.235 390.645 160.744 391.165 163.125C391.684 165.506 390.499 169.374 388.132 169.89C385.743 170.411 382.069 167.602 381.55 165.22Z" fill="#6A90D5" fill-opacity="0.43"/>
<path fill-rule="evenodd" clip-rule="evenodd" d="M361.661 169.556C361.142 167.174 363.624 164.611 366.013 164.09C368.401 163.57 370.757 165.079 371.276 167.46C371.795 169.841 370.611 173.709 368.223 174.23C365.834 174.75 362.18 171.937 361.661 169.556Z" fill="#6A90D5" fill-opacity="0.43"/>
<path fill-rule="evenodd" clip-rule="evenodd" d="M341.752 173.895C341.233 171.514 343.736 168.946 346.124 168.425C348.512 167.905 350.848 169.418 351.367 171.799C351.886 174.18 350.722 178.044 348.334 178.565C345.946 179.085 342.271 176.276 341.752 173.895Z" fill="#6A90D5" fill-opacity="0.43"/>
<path fill-rule="evenodd" clip-rule="evenodd" d="M321.864 178.23C321.345 175.849 323.848 173.281 326.215 172.765C328.604 172.244 330.96 173.753 331.479 176.134C331.998 178.515 330.814 182.384 328.425 182.904C326.058 183.42 322.383 180.611 321.864 178.23Z" fill="#6A90D5" fill-opacity="0.43"/>
<path fill-rule="evenodd" clip-rule="evenodd" d="M301.975 182.565C301.456 180.184 303.939 177.62 306.327 177.1C308.715 176.579 311.071 178.088 311.59 180.469C312.109 182.85 310.925 186.719 308.537 187.239C306.149 187.76 302.494 184.946 301.975 182.565Z" fill="#6A90D5" fill-opacity="0.43"/>
<path fill-rule="evenodd" clip-rule="evenodd" d="M282.066 186.904C281.547 184.523 284.05 181.955 286.438 181.435C288.806 180.919 291.162 182.428 291.681 184.809C292.2 187.19 291.016 191.058 288.648 191.574C286.26 192.095 282.585 189.286 282.066 186.904Z" fill="#6A90D5" fill-opacity="0.43"/>
<path fill-rule="evenodd" clip-rule="evenodd" d="M262.178 191.239C261.659 188.858 264.141 186.295 266.529 185.774C268.918 185.254 271.274 186.763 271.793 189.144C272.312 191.525 271.128 195.393 268.739 195.914C266.351 196.434 262.697 193.621 262.178 191.239Z" fill="#6A90D5" fill-opacity="0.43"/>
<path fill-rule="evenodd" clip-rule="evenodd" d="M222.38 199.914C221.861 197.533 224.364 194.965 226.732 194.449C229.12 193.928 231.476 195.437 231.995 197.818C232.514 200.199 231.33 204.068 228.942 204.588C226.574 205.104 222.899 202.295 222.38 199.914Z" fill="#6A90D5" fill-opacity="0.43"/>
<path fill-rule="evenodd" clip-rule="evenodd" d="M202.492 204.249C201.973 201.868 204.455 199.304 206.843 198.784C209.232 198.263 211.588 199.772 212.107 202.153C212.626 204.534 211.442 208.403 209.053 208.923C206.665 209.444 203.011 206.63 202.492 204.249Z" fill="#6A90D5" fill-opacity="0.43"/>
<path fill-rule="evenodd" clip-rule="evenodd" d="M182.583 208.588C182.064 206.207 184.567 203.639 186.955 203.119C189.343 202.598 191.679 204.111 192.198 206.493C192.717 208.874 191.553 212.737 189.165 213.258C186.777 213.779 183.102 210.97 182.583 208.588Z" fill="#6A90D5" fill-opacity="0.43"/>
<path fill-rule="evenodd" clip-rule="evenodd" d="M162.695 212.923C162.176 210.542 164.678 207.974 167.046 207.458C169.434 206.937 171.79 208.446 172.309 210.828C172.828 213.209 171.644 217.077 169.256 217.598C166.888 218.114 163.214 215.305 162.695 212.923Z" fill="#6A90D5" fill-opacity="0.43"/>
<path fill-rule="evenodd" clip-rule="evenodd" d="M142.786 217.263C142.267 214.882 144.769 212.314 147.158 211.793C149.546 211.272 151.902 212.781 152.421 215.163C152.94 217.544 151.756 221.412 149.368 221.933C146.979 222.453 143.305 219.644 142.786 217.263Z" fill="#6A90D5" fill-opacity="0.43"/>
<path fill-rule="evenodd" clip-rule="evenodd" d="M122.897 221.598C122.378 219.217 124.881 216.649 127.269 216.128C129.637 215.612 131.993 217.121 132.512 219.502C133.031 221.883 131.847 225.751 129.479 226.268C127.091 226.788 123.416 223.979 122.897 221.598Z" fill="#6A90D5" fill-opacity="0.43"/>
<path fill-rule="evenodd" clip-rule="evenodd" d="M616.331 94.9256C615.812 92.5444 618.307 89.9781 620.691 89.4584C623.075 88.9388 625.429 90.4483 625.948 92.8294C626.467 95.2106 625.285 99.0783 622.901 99.5979C620.517 100.118 616.85 97.3067 616.331 94.9256Z" fill="#6A90D5" fill-opacity="0.43"/>
<path fill-rule="evenodd" clip-rule="evenodd" d="M596.432 99.2628C595.913 96.8817 598.408 94.3154 600.792 93.7957C603.176 93.2761 605.53 94.7855 606.049 97.1667C606.568 99.5479 605.386 103.416 603.002 103.935C600.618 104.455 596.951 101.644 596.432 99.2628Z" fill="#6A90D5" fill-opacity="0.43"/>
<path fill-rule="evenodd" clip-rule="evenodd" d="M576.538 103.599C576.019 101.218 578.513 98.6517 580.897 98.132C583.282 97.6124 585.636 99.1218 586.155 101.503C586.674 103.884 585.492 107.752 583.107 108.272C580.723 108.791 577.057 105.98 576.538 103.599Z" fill="#6A90D5" fill-opacity="0.43"/>
<path fill-rule="evenodd" clip-rule="evenodd" d="M536.744 112.273C536.225 109.892 538.72 107.325 541.104 106.806C543.488 106.286 545.842 107.795 546.361 110.177C546.88 112.558 545.698 116.425 543.314 116.945C540.93 117.465 537.263 114.654 536.744 112.273Z" fill="#6A90D5" fill-opacity="0.43"/>
<path fill-rule="evenodd" clip-rule="evenodd" d="M516.852 116.609C516.333 114.227 518.815 111.664 521.207 111.142C523.592 110.623 525.946 112.132 526.465 114.513C526.984 116.895 525.802 120.762 523.417 121.282C521.025 121.803 517.371 118.99 516.852 116.609Z" fill="#6A90D5" fill-opacity="0.43"/>
<path fill-rule="evenodd" clip-rule="evenodd" d="M468.937 183.624C468.418 181.243 470.9 178.679 473.289 178.159C475.677 177.638 478.033 179.147 478.552 181.528C479.071 183.91 477.887 187.778 475.499 188.298C473.111 188.819 469.456 186.005 468.937 183.624Z" fill="#6A90D5" fill-opacity="0.43"/>
<path fill-rule="evenodd" clip-rule="evenodd" d="M484.848 161.038C484.329 158.656 486.832 156.088 489.22 155.568C491.587 155.052 493.944 156.561 494.463 158.942C494.982 161.323 493.798 165.191 491.43 165.707C489.042 166.228 485.367 163.419 484.848 161.038Z" fill="#6A90D5" fill-opacity="0.43"/>
<path fill-rule="evenodd" clip-rule="evenodd" d="M496.943 120.948C496.424 118.567 498.927 115.999 501.315 115.478C503.703 114.958 506.039 116.471 506.558 118.852C507.077 121.234 505.913 125.097 503.525 125.618C501.137 126.138 497.462 123.329 496.943 120.948Z" fill="#6A90D5" fill-opacity="0.43"/>
<path fill-rule="evenodd" clip-rule="evenodd" d="M477.054 125.283C476.535 122.902 479.038 120.334 481.426 119.813C483.794 119.297 486.15 120.806 486.669 123.187C487.188 125.569 486.004 129.437 483.636 129.953C481.248 130.473 477.573 127.664 477.054 125.283Z" fill="#6A90D5" fill-opacity="0.43"/>
<path fill-rule="evenodd" clip-rule="evenodd" d="M457.166 129.618C456.647 127.237 459.129 124.673 461.517 124.153C463.906 123.632 466.262 125.141 466.781 127.522C467.3 129.904 466.116 133.772 463.727 134.292C461.339 134.813 457.685 131.999 457.166 129.618Z" fill="#6A90D5" fill-opacity="0.43"/>
<path fill-rule="evenodd" clip-rule="evenodd" d="M437.257 133.958C436.738 131.576 439.241 129.008 441.629 128.488C444.017 127.967 446.353 129.481 446.872 131.862C447.391 134.243 446.227 138.107 443.839 138.627C441.451 139.148 437.776 136.339 437.257 133.958Z" fill="#6A90D5" fill-opacity="0.43"/>
<path fill-rule="evenodd" clip-rule="evenodd" d="M417.369 138.292C416.85 135.911 419.352 133.343 421.72 132.827C424.108 132.307 426.464 133.816 426.983 136.197C427.502 138.578 426.318 142.446 423.93 142.967C421.562 143.483 417.888 140.674 417.369 138.292Z" fill="#6A90D5" fill-opacity="0.43"/>
<path fill-rule="evenodd" clip-rule="evenodd" d="M397.48 142.628C396.961 140.246 399.443 137.683 401.831 137.162C404.22 136.642 406.576 138.151 407.095 140.532C407.614 142.913 406.43 146.781 404.042 147.302C401.653 147.822 397.999 145.009 397.48 142.628Z" fill="#6A90D5" fill-opacity="0.43"/>
<path fill-rule="evenodd" clip-rule="evenodd" d="M377.571 146.967C377.052 144.586 379.555 142.018 381.943 141.497C384.311 140.981 386.667 142.49 387.186 144.871C387.705 147.252 386.521 151.121 384.153 151.637C381.765 152.157 378.09 149.348 377.571 146.967Z" fill="#6A90D5" fill-opacity="0.43"/>
<path fill-rule="evenodd" clip-rule="evenodd" d="M357.683 151.302C357.164 148.921 359.646 146.357 362.034 145.837C364.422 145.316 366.778 146.825 367.297 149.206C367.816 151.587 366.632 155.456 364.244 155.976C361.856 156.497 358.202 153.683 357.683 151.302Z" fill="#6A90D5" fill-opacity="0.43"/>
<path fill-rule="evenodd" clip-rule="evenodd" d="M337.774 155.641C337.255 153.26 339.757 150.692 342.145 150.172C344.534 149.651 346.869 151.165 347.388 153.546C347.907 155.927 346.744 159.791 344.356 160.311C341.967 160.832 338.293 158.023 337.774 155.641Z" fill="#6A90D5" fill-opacity="0.43"/>
<path fill-rule="evenodd" clip-rule="evenodd" d="M317.885 159.976C317.366 157.595 319.869 155.027 322.236 154.511C324.625 153.991 326.981 155.5 327.5 157.881C328.019 160.262 326.835 164.13 324.446 164.651C322.079 165.167 318.404 162.358 317.885 159.976Z" fill="#6A90D5" fill-opacity="0.43"/>
<path fill-rule="evenodd" clip-rule="evenodd" d="M297.997 164.311C297.478 161.93 299.96 159.367 302.348 158.846C304.736 158.326 307.093 159.835 307.612 162.216C308.131 164.597 306.946 168.465 304.558 168.986C302.17 169.506 298.516 166.693 297.997 164.311Z" fill="#6A90D5" fill-opacity="0.43"/>
<path fill-rule="evenodd" clip-rule="evenodd" d="M278.088 168.651C277.569 166.27 280.072 163.702 282.46 163.181C284.827 162.665 287.184 164.174 287.703 166.555C288.222 168.936 287.038 172.805 284.67 173.321C282.282 173.841 278.607 171.032 278.088 168.651Z" fill="#6A90D5" fill-opacity="0.43"/>
<path fill-rule="evenodd" clip-rule="evenodd" d="M258.199 172.986C257.68 170.605 260.162 168.041 262.551 167.521C264.939 167 267.295 168.509 267.814 170.89C268.333 173.271 267.149 177.14 264.761 177.66C262.372 178.181 258.718 175.367 258.199 172.986Z" fill="#6A90D5" fill-opacity="0.43"/>
<path fill-rule="evenodd" clip-rule="evenodd" d="M238.29 177.325C237.771 174.944 240.274 172.376 242.662 171.856C245.05 171.335 247.407 172.844 247.926 175.225C248.445 177.606 247.26 181.475 244.872 181.995C242.484 182.516 238.809 179.707 238.29 177.325Z" fill="#6A90D5" fill-opacity="0.43"/>
<path fill-rule="evenodd" clip-rule="evenodd" d="M218.402 181.66C217.883 179.279 220.386 176.711 222.753 176.195C225.142 175.674 227.498 177.183 228.017 179.565C228.536 181.946 227.352 185.814 224.963 186.334C222.596 186.851 218.921 184.041 218.402 181.66Z" fill="#6A90D5" fill-opacity="0.43"/>
<path fill-rule="evenodd" clip-rule="evenodd" d="M178.604 190.335C178.085 187.954 180.588 185.386 182.976 184.865C185.364 184.345 187.7 185.858 188.219 188.239C188.738 190.62 187.575 194.484 185.186 195.005C182.798 195.525 179.123 192.716 178.604 190.335Z" fill="#6A90D5" fill-opacity="0.43"/>
<path fill-rule="evenodd" clip-rule="evenodd" d="M349.545 209.647C349.026 207.266 351.529 204.698 353.917 204.178C356.305 203.657 358.641 205.171 359.16 207.552C359.679 209.933 358.515 213.797 356.127 214.317C353.739 214.838 350.064 212.029 349.545 209.647Z" fill="#6A90D5" fill-opacity="0.43"/>
<path fill-rule="evenodd" clip-rule="evenodd" d="M329.657 213.982C329.138 211.601 331.64 209.033 334.008 208.517C336.396 207.997 338.752 209.506 339.271 211.887C339.79 214.268 338.606 218.136 336.218 218.657C333.85 219.173 330.176 216.364 329.657 213.982Z" fill="#6A90D5" fill-opacity="0.43"/>
<path fill-rule="evenodd" clip-rule="evenodd" d="M285.881 204.405C285.362 202.024 287.865 199.456 290.253 198.936C292.621 198.42 294.977 199.929 295.496 202.31C296.015 204.691 294.831 208.559 292.463 209.075C290.075 209.596 286.4 206.787 285.881 204.405Z" fill="#6A90D5" fill-opacity="0.43"/>
<path fill-rule="evenodd" clip-rule="evenodd" d="M265.993 208.74C265.474 206.359 267.956 203.796 270.344 203.275C272.732 202.755 275.088 204.264 275.607 206.645C276.126 209.026 274.942 212.894 272.554 213.415C270.166 213.935 266.512 211.122 265.993 208.74Z" fill="#6A90D5" fill-opacity="0.43"/>
<path fill-rule="evenodd" clip-rule="evenodd" d="M242.105 194.828C241.586 192.447 244.089 189.879 246.477 189.359C248.866 188.838 251.222 190.347 251.741 192.728C252.26 195.109 251.076 198.978 248.687 199.498C246.299 200.019 242.624 197.21 242.105 194.828Z" fill="#6A90D5" fill-opacity="0.43"/>
<path fill-rule="evenodd" clip-rule="evenodd" d="M198.351 185.249C197.832 182.868 200.314 180.304 202.702 179.784C205.09 179.263 207.446 180.772 207.965 183.153C208.484 185.534 207.3 189.403 204.912 189.923C202.524 190.444 198.87 187.63 198.351 185.249Z" fill="#6A90D5" fill-opacity="0.43"/>
<path fill-rule="evenodd" clip-rule="evenodd" d="M158.716 194.67C158.197 192.289 160.7 189.721 163.067 189.205C165.455 188.684 167.812 190.193 168.331 192.574C168.85 194.955 167.666 198.823 165.277 199.344C162.91 199.86 159.235 197.051 158.716 194.67Z" fill="#6A90D5" fill-opacity="0.43"/>
<path fill-rule="evenodd" clip-rule="evenodd" d="M138.807 199.009C138.288 196.628 140.79 194.06 143.179 193.54C145.567 193.019 147.923 194.528 148.442 196.909C148.961 199.29 147.777 203.158 145.389 203.679C143.001 204.2 139.326 201.39 138.807 199.009Z" fill="#6A90D5" fill-opacity="0.43"/>
<path fill-rule="evenodd" clip-rule="evenodd" d="M118.918 203.344C118.399 200.963 120.902 198.395 123.29 197.874C125.658 197.358 128.014 198.867 128.533 201.249C129.052 203.63 127.868 207.498 125.5 208.014C123.112 208.535 119.437 205.725 118.918 203.344Z" fill="#6A90D5" fill-opacity="0.43"/>
<path fill-rule="evenodd" clip-rule="evenodd" d="M612.353 76.674C611.834 74.2929 614.328 71.7266 616.713 71.2069C619.097 70.6873 621.451 72.1967 621.97 74.5779C622.489 76.9591 621.307 80.8267 618.923 81.3464C616.539 81.8661 612.872 79.0552 612.353 76.674Z" fill="#6A90D5" fill-opacity="0.43"/>
<path fill-rule="evenodd" clip-rule="evenodd" d="M572.56 85.3477C572.041 82.9665 574.535 80.4002 576.919 79.8805C579.303 79.3609 581.657 80.8703 582.176 83.2515C582.695 85.6327 581.513 89.5004 579.129 90.02C576.745 90.5397 573.079 87.7288 572.56 85.3477Z" fill="#6A90D5" fill-opacity="0.43"/>
<path fill-rule="evenodd" clip-rule="evenodd" d="M552.663 89.6844C552.144 87.3033 554.638 84.737 557.023 84.2173C559.407 83.6977 561.761 85.2071 562.28 87.5883C562.799 89.9695 561.617 93.8372 559.233 94.3568C556.849 94.8765 553.182 92.0656 552.663 89.6844Z" fill="#6A90D5" fill-opacity="0.43"/>
<path fill-rule="evenodd" clip-rule="evenodd" d="M532.766 94.0212C532.247 91.64 534.742 89.0737 537.126 88.5541C539.51 88.0344 541.864 89.5439 542.383 91.9251C542.902 94.3062 541.72 98.1739 539.336 98.6936C536.952 99.2132 533.285 96.4024 532.766 94.0212Z" fill="#6A90D5" fill-opacity="0.43"/>
<path fill-rule="evenodd" clip-rule="evenodd" d="M492.965 102.697C492.446 100.315 494.948 97.7473 497.337 97.2268C499.725 96.7062 502.061 98.2197 502.58 100.601C503.099 102.982 501.935 106.846 499.547 107.366C497.159 107.887 493.484 105.078 492.965 102.697Z" fill="#6A90D5" fill-opacity="0.43"/>
<path fill-rule="evenodd" clip-rule="evenodd" d="M473.076 107.032C472.557 104.65 475.06 102.082 477.448 101.562C479.816 101.046 482.172 102.555 482.691 104.936C483.21 107.317 482.026 111.185 479.658 111.701C477.27 112.222 473.595 109.413 473.076 107.032Z" fill="#6A90D5" fill-opacity="0.43"/>
<path fill-rule="evenodd" clip-rule="evenodd" d="M453.188 111.367C452.669 108.985 455.151 106.422 457.539 105.901C459.927 105.381 462.284 106.89 462.803 109.271C463.322 111.652 462.138 115.52 459.749 116.041C457.361 116.561 453.707 113.748 453.188 111.367Z" fill="#6A90D5" fill-opacity="0.43"/>
<path fill-rule="evenodd" clip-rule="evenodd" d="M433.279 115.706C432.76 113.325 435.262 110.757 437.651 110.236C440.039 109.716 442.375 111.229 442.894 113.61C443.413 115.991 442.249 119.855 439.861 120.376C437.473 120.896 433.798 118.087 433.279 115.706Z" fill="#6A90D5" fill-opacity="0.43"/>
<path fill-rule="evenodd" clip-rule="evenodd" d="M413.39 120.041C412.871 117.66 415.374 115.092 417.742 114.576C420.13 114.055 422.486 115.564 423.005 117.945C423.524 120.326 422.34 124.195 419.952 124.715C417.584 125.231 413.909 122.422 413.39 120.041Z" fill="#6A90D5" fill-opacity="0.43"/>
<path fill-rule="evenodd" clip-rule="evenodd" d="M393.502 124.376C392.983 121.995 395.465 119.431 397.853 118.911C400.241 118.39 402.598 119.899 403.117 122.28C403.636 124.661 402.452 128.53 400.063 129.05C397.675 129.571 394.021 126.757 393.502 124.376Z" fill="#6A90D5" fill-opacity="0.43"/>
<path fill-rule="evenodd" clip-rule="evenodd" d="M373.593 128.716C373.074 126.334 375.577 123.766 377.965 123.246C380.332 122.73 382.689 124.239 383.208 126.62C383.727 129.001 382.543 132.869 380.175 133.385C377.787 133.906 374.112 131.097 373.593 128.716Z" fill="#6A90D5" fill-opacity="0.43"/>
<path fill-rule="evenodd" clip-rule="evenodd" d="M353.704 133.051C353.185 130.669 355.667 128.106 358.056 127.585C360.444 127.065 362.8 128.574 363.319 130.955C363.838 133.336 362.654 137.204 360.266 137.725C357.878 138.245 354.223 135.432 353.704 133.051Z" fill="#6A90D5" fill-opacity="0.43"/>
<path fill-rule="evenodd" clip-rule="evenodd" d="M333.795 137.39C333.276 135.009 335.779 132.441 338.167 131.92C340.556 131.4 342.891 132.913 343.41 135.294C343.929 137.675 342.766 141.539 340.377 142.06C337.989 142.58 334.314 139.771 333.795 137.39Z" fill="#6A90D5" fill-opacity="0.43"/>
<path fill-rule="evenodd" clip-rule="evenodd" d="M313.907 141.725C313.388 139.344 315.891 136.776 318.258 136.26C320.647 135.739 323.003 137.248 323.522 139.629C324.041 142.01 322.857 145.879 320.468 146.399C318.101 146.915 314.426 144.106 313.907 141.725Z" fill="#6A90D5" fill-opacity="0.43"/>
<path fill-rule="evenodd" clip-rule="evenodd" d="M294.018 146.06C293.499 143.679 295.982 141.115 298.37 140.595C300.758 140.074 303.114 141.583 303.633 143.964C304.152 146.345 302.968 150.214 300.58 150.734C298.192 151.255 294.537 148.441 294.018 146.06Z" fill="#6A90D5" fill-opacity="0.43"/>
<path fill-rule="evenodd" clip-rule="evenodd" d="M274.109 150.399C273.59 148.018 276.093 145.45 278.481 144.93C280.849 144.413 283.205 145.922 283.724 148.304C284.243 150.685 283.059 154.553 280.691 155.069C278.303 155.59 274.628 152.781 274.109 150.399Z" fill="#6A90D5" fill-opacity="0.43"/>
<path fill-rule="evenodd" clip-rule="evenodd" d="M254.221 154.734C253.702 152.353 256.184 149.79 258.572 149.269C260.961 148.749 263.317 150.258 263.836 152.639C264.355 155.02 263.171 158.888 260.783 159.409C258.394 159.929 254.74 157.116 254.221 154.734Z" fill="#6A90D5" fill-opacity="0.43"/>
<path fill-rule="evenodd" clip-rule="evenodd" d="M234.312 159.074C233.793 156.693 236.296 154.125 238.684 153.604C241.072 153.084 243.428 154.593 243.947 156.974C244.466 159.355 243.282 163.223 240.894 163.744C238.506 164.264 234.831 161.455 234.312 159.074Z" fill="#6A90D5" fill-opacity="0.43"/>
<path fill-rule="evenodd" clip-rule="evenodd" d="M214.424 163.409C213.905 161.028 216.407 158.46 218.775 157.943C221.163 157.423 223.519 158.932 224.038 161.313C224.557 163.694 223.373 167.562 220.985 168.083C218.617 168.599 214.943 165.79 214.424 163.409Z" fill="#6A90D5" fill-opacity="0.43"/>
<path fill-rule="evenodd" clip-rule="evenodd" d="M194.535 167.744C194.016 165.363 196.498 162.799 198.887 162.278C201.275 161.758 203.631 163.267 204.15 165.648C204.669 168.029 203.485 171.897 201.097 172.418C198.708 172.939 195.054 170.125 194.535 167.744Z" fill="#6A90D5" fill-opacity="0.43"/>
<path fill-rule="evenodd" clip-rule="evenodd" d="M154.738 176.418C154.219 174.037 156.721 171.469 159.089 170.953C161.477 170.432 163.833 171.942 164.352 174.323C164.871 176.704 163.687 180.572 161.299 181.093C158.931 181.609 155.257 178.8 154.738 176.418Z" fill="#6A90D5" fill-opacity="0.43"/>
<path fill-rule="evenodd" clip-rule="evenodd" d="M134.829 180.758C134.31 178.377 136.812 175.808 139.201 175.288C141.589 174.767 143.945 176.276 144.464 178.658C144.983 181.039 143.799 184.907 141.411 185.427C139.022 185.948 135.348 183.139 134.829 180.758Z" fill="#6A90D5" fill-opacity="0.43"/>
<path fill-rule="evenodd" clip-rule="evenodd" d="M114.94 185.093C114.421 182.712 116.924 180.144 119.312 179.623C121.68 179.107 124.036 180.616 124.555 182.997C125.074 185.378 123.89 189.246 121.522 189.762C119.134 190.283 115.459 187.474 114.94 185.093Z" fill="#6A90D5" fill-opacity="0.43"/>
<path fill-rule="evenodd" clip-rule="evenodd" d="M95.052 189.428C94.533 187.047 97.0151 184.483 99.4034 183.963C101.792 183.442 104.148 184.951 104.667 187.332C105.186 189.713 104.002 193.581 101.613 194.102C99.2252 194.623 95.571 191.809 95.052 189.428Z" fill="#6A90D5" fill-opacity="0.43"/>
</g>
<defs>
<filter id="filter0_d" x="28.0001" y="-32" width="745.823" height="568.845" filterUnits="userSpaceOnUse" color-interpolation-filters="sRGB">
<feFlood flood-opacity="0" result="BackgroundImageFix"/>
<feColorMatrix in="SourceAlpha" type="matrix" values="0 0 0 0 0 0 0 0 0 0 0 0 0 0 0 0 0 0 127 0"/>
<feOffset dy="10"/>
<feGaussianBlur stdDeviation="4.5"/>
<feColorMatrix type="matrix" values="0 0 0 0 0.0237674 0 0 0 0 0.0706098 0 0 0 0 0.154167 0 0 0 0.14 0"/>
<feBlend mode="normal" in2="BackgroundImageFix" result="effect1_dropShadow"/>
<feBlend mode="normal" in="SourceGraphic" in2="effect1_dropShadow" result="shape"/>
</filter>
<clipPath id="clip0">
<rect width="810" height="852" fill="white"/>
</clipPath>
</defs>
</svg>
