<svg width="1440" height="600" viewBox="0 0 1440 600" fill="none" xmlns="http://www.w3.org/2000/svg">
<g clip-path="url(#clip0)">
<g filter="url(#filter0_d)">
<path d="M634.164 440.954C541.16 519.926 392.752 534.382 280.937 484.122C169.613 433.627 95.085 318.845 122.217 229.209C149.554 140.001 279.245 76.1338 409.268 54.67C539.494 33.6345 670.543 54.7683 717.022 137.196C763.991 219.39 726.677 362.215 634.164 440.954Z" fill="#093279" fill-opacity="0.67"/>
</g>
<path fill-rule="evenodd" clip-rule="evenodd" d="M690.125 307.781C689.632 305.518 692.002 303.08 694.267 302.586C696.532 302.093 698.769 303.527 699.262 305.789C699.755 308.051 698.632 311.726 696.367 312.22C694.102 312.713 690.618 310.043 690.125 307.781Z" fill="#6A90D5" fill-opacity="0.43"/>
<path fill-rule="evenodd" clip-rule="evenodd" d="M671.22 311.901C670.727 309.639 673.097 307.201 675.362 306.707C677.627 306.213 679.864 307.648 680.357 309.91C680.85 312.172 679.727 315.847 677.462 316.34C675.197 316.834 671.713 314.163 671.22 311.901Z" fill="#6A90D5" fill-opacity="0.43"/>
<path fill-rule="evenodd" clip-rule="evenodd" d="M652.319 316.021C651.826 313.759 654.196 311.321 656.461 310.827C658.726 310.333 660.963 311.767 661.456 314.03C661.949 316.292 660.826 319.966 658.561 320.46C656.296 320.954 652.812 318.283 652.319 316.021Z" fill="#6A90D5" fill-opacity="0.43"/>
<path fill-rule="evenodd" clip-rule="evenodd" d="M633.416 320.141C632.923 317.879 635.293 315.441 637.558 314.947C639.823 314.453 642.06 315.887 642.553 318.15C643.046 320.412 641.923 324.086 639.658 324.58C637.393 325.074 633.909 322.403 633.416 320.141Z" fill="#6A90D5" fill-opacity="0.43"/>
<path fill-rule="evenodd" clip-rule="evenodd" d="M614.513 324.261C614.02 321.999 616.39 319.561 618.655 319.067C620.92 318.574 623.157 320.008 623.65 322.27C624.143 324.532 623.02 328.207 620.755 328.7C618.49 329.194 615.006 326.524 614.513 324.261Z" fill="#6A90D5" fill-opacity="0.43"/>
<path fill-rule="evenodd" clip-rule="evenodd" d="M595.614 328.381C595.121 326.118 597.479 323.683 599.752 323.188C602.017 322.694 604.254 324.128 604.747 326.39C605.24 328.652 604.117 332.327 601.852 332.821C599.579 333.316 596.107 330.643 595.614 328.381Z" fill="#6A90D5" fill-opacity="0.43"/>
<path fill-rule="evenodd" clip-rule="evenodd" d="M576.699 332.503C576.206 330.241 578.584 327.801 580.853 327.307C583.122 326.812 585.341 328.25 585.834 330.512C586.327 332.775 585.222 336.445 582.953 336.94C580.684 337.434 577.193 334.766 576.699 332.503Z" fill="#6A90D5" fill-opacity="0.43"/>
<path fill-rule="evenodd" clip-rule="evenodd" d="M557.804 336.622C557.311 334.36 559.689 331.92 561.958 331.425C564.207 330.935 566.446 332.369 566.939 334.631C567.432 336.893 566.307 340.568 564.058 341.058C561.789 341.553 558.297 338.884 557.804 336.622Z" fill="#6A90D5" fill-opacity="0.43"/>
<path fill-rule="evenodd" clip-rule="evenodd" d="M538.909 340.74C538.416 338.478 540.774 336.043 543.043 335.548C545.312 335.054 547.551 336.487 548.044 338.749C548.537 341.012 547.412 344.687 545.143 345.181C542.874 345.676 539.402 343.003 538.909 340.74Z" fill="#6A90D5" fill-opacity="0.43"/>
<path fill-rule="evenodd" clip-rule="evenodd" d="M519.994 344.863C519.501 342.601 521.879 340.161 524.148 339.667C526.417 339.172 528.636 340.61 529.129 342.872C529.622 345.134 528.517 348.805 526.248 349.3C523.979 349.794 520.487 347.125 519.994 344.863Z" fill="#6A90D5" fill-opacity="0.43"/>
<path fill-rule="evenodd" clip-rule="evenodd" d="M501.099 348.982C500.606 346.719 502.984 344.28 505.233 343.789C507.502 343.295 509.741 344.728 510.234 346.991C510.727 349.253 509.602 352.928 507.333 353.422C505.083 353.913 501.592 351.244 501.099 348.982Z" fill="#6A90D5" fill-opacity="0.43"/>
<path fill-rule="evenodd" clip-rule="evenodd" d="M482.204 353.1C481.711 350.838 484.069 348.402 486.338 347.908C488.607 347.413 490.846 348.847 491.339 351.109C491.832 353.371 490.707 357.046 488.438 357.541C486.169 358.036 482.697 355.362 482.204 353.1Z" fill="#6A90D5" fill-opacity="0.43"/>
<path fill-rule="evenodd" clip-rule="evenodd" d="M463.289 357.223C462.796 354.961 465.174 352.521 467.443 352.026C469.692 351.536 471.931 352.97 472.424 355.232C472.917 357.494 471.792 361.169 469.543 361.659C467.274 362.154 463.782 359.485 463.289 357.223Z" fill="#6A90D5" fill-opacity="0.43"/>
<path fill-rule="evenodd" clip-rule="evenodd" d="M444.394 361.341C443.901 359.079 446.259 356.644 448.528 356.149C450.797 355.655 453.036 357.088 453.529 359.35C454.022 361.613 452.897 365.288 450.628 365.782C448.359 366.277 444.887 363.604 444.394 361.341Z" fill="#6A90D5" fill-opacity="0.43"/>
<path fill-rule="evenodd" clip-rule="evenodd" d="M425.479 365.464C424.986 363.202 427.364 360.762 429.633 360.268C431.902 359.773 434.121 361.211 434.614 363.473C435.107 365.735 434.002 369.406 431.733 369.901C429.464 370.395 425.973 367.726 425.479 365.464Z" fill="#6A90D5" fill-opacity="0.43"/>
<path fill-rule="evenodd" clip-rule="evenodd" d="M406.584 369.583C406.091 367.32 408.469 364.881 410.718 364.39C412.987 363.896 415.226 365.329 415.719 367.592C416.212 369.854 415.087 373.529 412.818 374.023C410.569 374.514 407.077 371.845 406.584 369.583Z" fill="#6A90D5" fill-opacity="0.43"/>
<path fill-rule="evenodd" clip-rule="evenodd" d="M387.689 373.701C387.196 371.439 389.554 369.003 391.823 368.509C394.092 368.014 396.331 369.448 396.824 371.71C397.317 373.972 396.192 377.647 393.923 378.142C391.654 378.636 388.182 375.963 387.689 373.701Z" fill="#6A90D5" fill-opacity="0.43"/>
<path fill-rule="evenodd" clip-rule="evenodd" d="M368.774 377.824C368.281 375.562 370.659 373.122 372.928 372.627C375.177 372.137 377.416 373.571 377.909 375.833C378.402 378.095 377.277 381.77 375.028 382.26C372.759 382.755 369.267 380.086 368.774 377.824Z" fill="#6A90D5" fill-opacity="0.43"/>
<path fill-rule="evenodd" clip-rule="evenodd" d="M312.069 390.184C311.576 387.921 313.954 385.482 316.203 384.991C318.472 384.497 320.711 385.93 321.204 388.193C321.697 390.455 320.572 394.13 318.303 394.624C316.053 395.115 312.562 392.446 312.069 390.184Z" fill="#6A90D5" fill-opacity="0.43"/>
<path fill-rule="evenodd" clip-rule="evenodd" d="M293.174 394.302C292.681 392.04 295.039 389.604 297.308 389.11C299.577 388.615 301.816 390.049 302.309 392.311C302.802 394.573 301.677 398.248 299.408 398.743C297.139 399.237 293.667 396.564 293.174 394.302Z" fill="#6A90D5" fill-opacity="0.43"/>
<path fill-rule="evenodd" clip-rule="evenodd" d="M274.259 398.425C273.766 396.163 276.144 393.723 278.413 393.228C280.682 392.734 282.901 394.172 283.394 396.434C283.887 398.696 282.782 402.367 280.513 402.861C278.244 403.356 274.752 400.687 274.259 398.425Z" fill="#6A90D5" fill-opacity="0.43"/>
<path fill-rule="evenodd" clip-rule="evenodd" d="M255.364 402.543C254.871 400.281 257.249 397.841 259.498 397.351C261.767 396.857 264.006 398.29 264.499 400.552C264.992 402.815 263.867 406.49 261.598 406.984C259.348 407.474 255.857 404.806 255.364 402.543Z" fill="#6A90D5" fill-opacity="0.43"/>
<path fill-rule="evenodd" clip-rule="evenodd" d="M236.449 406.666C235.956 404.404 238.334 401.964 240.603 401.47C242.872 400.975 245.11 402.409 245.604 404.671C246.097 406.933 244.972 410.608 242.703 411.103C240.434 411.597 236.942 408.928 236.449 406.666Z" fill="#6A90D5" fill-opacity="0.43"/>
<path fill-rule="evenodd" clip-rule="evenodd" d="M217.554 410.785C217.061 408.522 219.439 406.083 221.708 405.588C223.957 405.098 226.196 406.531 226.689 408.794C227.182 411.056 226.057 414.731 223.807 415.221C221.538 415.716 218.047 413.047 217.554 410.785Z" fill="#6A90D5" fill-opacity="0.43"/>
<path fill-rule="evenodd" clip-rule="evenodd" d="M198.659 414.903C198.166 412.641 200.524 410.205 202.793 409.711C205.062 409.216 207.301 410.65 207.794 412.912C208.287 415.174 207.162 418.849 204.893 419.344C202.624 419.838 199.152 417.165 198.659 414.903Z" fill="#6A90D5" fill-opacity="0.43"/>
<path fill-rule="evenodd" clip-rule="evenodd" d="M686.346 290.441C685.853 288.178 688.223 285.74 690.488 285.247C692.753 284.753 694.989 286.187 695.482 288.449C695.975 290.711 694.852 294.386 692.587 294.88C690.322 295.373 686.839 292.703 686.346 290.441Z" fill="#6A90D5" fill-opacity="0.43"/>
<path fill-rule="evenodd" clip-rule="evenodd" d="M667.441 294.561C666.948 292.299 669.318 289.861 671.583 289.367C673.848 288.873 676.084 290.308 676.577 292.57C677.07 294.832 675.947 298.507 673.682 299C671.417 299.494 667.934 296.823 667.441 294.561Z" fill="#6A90D5" fill-opacity="0.43"/>
<path fill-rule="evenodd" clip-rule="evenodd" d="M648.54 298.681C648.047 296.419 650.417 293.981 652.682 293.487C654.947 292.993 657.183 294.427 657.676 296.69C658.169 298.952 657.046 302.626 654.781 303.12C652.516 303.614 649.033 300.943 648.54 298.681Z" fill="#6A90D5" fill-opacity="0.43"/>
<path fill-rule="evenodd" clip-rule="evenodd" d="M629.637 302.801C629.144 300.539 631.514 298.101 633.779 297.607C636.044 297.113 638.28 298.547 638.773 300.81C639.266 303.072 638.143 306.747 635.878 307.24C633.613 307.734 630.13 305.063 629.637 302.801Z" fill="#6A90D5" fill-opacity="0.43"/>
<path fill-rule="evenodd" clip-rule="evenodd" d="M610.734 306.921C610.241 304.659 612.611 302.221 614.876 301.727C617.141 301.234 619.377 302.668 619.87 304.93C620.363 307.192 619.24 310.867 616.975 311.36C614.71 311.854 611.227 309.184 610.734 306.921Z" fill="#6A90D5" fill-opacity="0.43"/>
<path fill-rule="evenodd" clip-rule="evenodd" d="M591.835 311.041C591.342 308.778 593.7 306.343 595.973 305.848C598.238 305.354 600.474 306.788 600.967 309.05C601.46 311.312 600.337 314.987 598.072 315.481C595.799 315.976 592.328 313.303 591.835 311.041Z" fill="#6A90D5" fill-opacity="0.43"/>
<path fill-rule="evenodd" clip-rule="evenodd" d="M572.92 315.163C572.427 312.901 574.805 310.461 577.074 309.967C579.343 309.472 581.562 310.91 582.055 313.172C582.548 315.435 581.442 319.105 579.173 319.6C576.904 320.095 573.413 317.426 572.92 315.163Z" fill="#6A90D5" fill-opacity="0.43"/>
<path fill-rule="evenodd" clip-rule="evenodd" d="M554.025 319.282C553.532 317.02 555.909 314.58 558.178 314.085C560.428 313.595 562.666 315.029 563.159 317.291C563.652 319.553 562.527 323.228 560.278 323.718C558.009 324.213 554.518 321.544 554.025 319.282Z" fill="#6A90D5" fill-opacity="0.43"/>
<path fill-rule="evenodd" clip-rule="evenodd" d="M535.13 323.4C534.636 321.138 536.995 318.703 539.264 318.208C541.533 317.714 543.771 319.147 544.264 321.409C544.757 323.672 543.632 327.347 541.363 327.841C539.094 328.336 535.623 325.663 535.13 323.4Z" fill="#6A90D5" fill-opacity="0.43"/>
<path fill-rule="evenodd" clip-rule="evenodd" d="M516.215 327.523C515.722 325.261 518.099 322.821 520.368 322.327C522.637 321.832 524.856 323.27 525.349 325.532C525.842 327.794 524.737 331.465 522.468 331.96C520.199 332.454 516.708 329.785 516.215 327.523Z" fill="#6A90D5" fill-opacity="0.43"/>
<path fill-rule="evenodd" clip-rule="evenodd" d="M497.32 331.642C496.827 329.379 499.204 326.94 501.454 326.449C503.723 325.955 505.961 327.388 506.454 329.651C506.947 331.913 505.822 335.588 503.553 336.082C501.304 336.573 497.813 333.904 497.32 331.642Z" fill="#6A90D5" fill-opacity="0.43"/>
<path fill-rule="evenodd" clip-rule="evenodd" d="M478.424 335.76C477.931 333.498 480.29 331.062 482.558 330.568C484.827 330.073 487.066 331.507 487.559 333.769C488.052 336.031 486.927 339.706 484.658 340.201C482.389 340.696 478.918 338.022 478.424 335.76Z" fill="#6A90D5" fill-opacity="0.43"/>
<path fill-rule="evenodd" clip-rule="evenodd" d="M459.51 339.883C459.017 337.621 461.394 335.181 463.663 334.686C465.913 334.196 468.151 335.63 468.644 337.892C469.137 340.154 468.012 343.829 465.763 344.319C463.494 344.814 460.003 342.145 459.51 339.883Z" fill="#6A90D5" fill-opacity="0.43"/>
<path fill-rule="evenodd" clip-rule="evenodd" d="M440.615 344.001C440.121 341.739 442.48 339.304 444.749 338.809C447.018 338.315 449.256 339.748 449.749 342.01C450.242 344.273 449.117 347.948 446.848 348.442C444.579 348.937 441.108 346.264 440.615 344.001Z" fill="#6A90D5" fill-opacity="0.43"/>
<path fill-rule="evenodd" clip-rule="evenodd" d="M421.7 348.124C421.207 345.862 423.584 343.422 425.853 342.928C428.122 342.433 430.341 343.871 430.834 346.133C431.328 348.395 430.222 352.066 427.953 352.561C425.684 353.055 422.193 350.386 421.7 348.124Z" fill="#6A90D5" fill-opacity="0.43"/>
<path fill-rule="evenodd" clip-rule="evenodd" d="M402.805 352.243C402.311 349.98 404.689 347.541 406.939 347.05C409.208 346.556 411.446 347.989 411.939 350.252C412.432 352.514 411.307 356.189 409.038 356.683C406.789 357.174 403.298 354.505 402.805 352.243Z" fill="#6A90D5" fill-opacity="0.43"/>
<path fill-rule="evenodd" clip-rule="evenodd" d="M364.995 360.484C364.502 358.222 366.879 355.782 369.148 355.287C371.398 354.797 373.636 356.231 374.129 358.493C374.622 360.755 373.497 364.43 371.248 364.92C368.979 365.415 365.488 362.746 364.995 360.484Z" fill="#6A90D5" fill-opacity="0.43"/>
<path fill-rule="evenodd" clip-rule="evenodd" d="M346.1 364.602C345.606 362.34 347.965 359.905 350.234 359.41C352.503 358.916 354.741 360.349 355.234 362.611C355.727 364.874 354.602 368.549 352.333 369.043C350.064 369.538 346.593 366.865 346.1 364.602Z" fill="#6A90D5" fill-opacity="0.43"/>
<path fill-rule="evenodd" clip-rule="evenodd" d="M327.185 368.725C326.692 366.463 329.069 364.023 331.338 363.529C333.607 363.034 335.846 364.468 336.339 366.73C336.832 368.992 335.707 372.667 333.438 373.162C331.169 373.656 327.678 370.987 327.185 368.725Z" fill="#6A90D5" fill-opacity="0.43"/>
<path fill-rule="evenodd" clip-rule="evenodd" d="M308.29 372.844C307.797 370.581 310.174 368.142 312.424 367.651C314.693 367.157 316.931 368.59 317.424 370.853C317.917 373.115 316.792 376.79 314.523 377.284C312.274 377.775 308.783 375.106 308.29 372.844Z" fill="#6A90D5" fill-opacity="0.43"/>
<path fill-rule="evenodd" clip-rule="evenodd" d="M289.394 376.962C288.901 374.7 291.26 372.264 293.529 371.77C295.798 371.275 298.036 372.709 298.529 374.971C299.022 377.233 297.897 380.908 295.628 381.403C293.359 381.898 289.888 379.224 289.394 376.962Z" fill="#6A90D5" fill-opacity="0.43"/>
<path fill-rule="evenodd" clip-rule="evenodd" d="M270.48 381.085C269.987 378.823 272.364 376.383 274.633 375.888C276.902 375.394 279.121 376.832 279.614 379.094C280.107 381.356 279.002 385.027 276.733 385.521C274.464 386.016 270.973 383.347 270.48 381.085Z" fill="#6A90D5" fill-opacity="0.43"/>
<path fill-rule="evenodd" clip-rule="evenodd" d="M251.585 385.203C251.091 382.941 253.469 380.501 255.719 380.011C257.988 379.517 260.226 380.95 260.719 383.212C261.212 385.475 260.087 389.15 257.818 389.644C255.569 390.134 252.078 387.466 251.585 385.203Z" fill="#6A90D5" fill-opacity="0.43"/>
<path fill-rule="evenodd" clip-rule="evenodd" d="M232.67 389.326C232.177 387.064 234.554 384.624 236.823 384.13C239.092 383.635 241.331 385.069 241.824 387.331C242.317 389.593 241.192 393.268 238.923 393.763C236.654 394.257 233.163 391.588 232.67 389.326Z" fill="#6A90D5" fill-opacity="0.43"/>
<path fill-rule="evenodd" clip-rule="evenodd" d="M213.775 393.445C213.282 391.182 215.659 388.743 217.928 388.248C220.178 387.758 222.416 389.191 222.909 391.454C223.402 393.716 222.277 397.391 220.028 397.881C217.759 398.376 214.268 395.707 213.775 393.445Z" fill="#6A90D5" fill-opacity="0.43"/>
<path fill-rule="evenodd" clip-rule="evenodd" d="M194.88 397.563C194.386 395.301 196.745 392.865 199.014 392.371C201.283 391.876 203.521 393.31 204.014 395.572C204.507 397.834 203.382 401.509 201.113 402.004C198.844 402.498 195.373 399.825 194.88 397.563Z" fill="#6A90D5" fill-opacity="0.43"/>
<path fill-rule="evenodd" clip-rule="evenodd" d="M682.566 273.101C682.073 270.838 684.443 268.4 686.708 267.907C688.973 267.413 691.21 268.847 691.703 271.109C692.196 273.371 691.073 277.046 688.808 277.54C686.543 278.033 683.059 275.363 682.566 273.101Z" fill="#6A90D5" fill-opacity="0.43"/>
<path fill-rule="evenodd" clip-rule="evenodd" d="M663.661 277.221C663.168 274.959 665.538 272.521 667.803 272.027C670.068 271.533 672.305 272.968 672.798 275.23C673.291 277.492 672.168 281.167 669.903 281.66C667.638 282.154 664.154 279.484 663.661 277.221Z" fill="#6A90D5" fill-opacity="0.43"/>
<path fill-rule="evenodd" clip-rule="evenodd" d="M644.76 281.341C644.267 279.079 646.637 276.641 648.902 276.147C651.167 275.653 653.404 277.087 653.897 279.35C654.39 281.612 653.267 285.286 651.002 285.78C648.737 286.274 645.253 283.603 644.76 281.341Z" fill="#6A90D5" fill-opacity="0.43"/>
<path fill-rule="evenodd" clip-rule="evenodd" d="M625.857 285.461C625.364 283.199 627.734 280.761 629.999 280.267C632.264 279.773 634.501 281.208 634.994 283.47C635.487 285.732 634.364 289.407 632.099 289.9C629.834 290.394 626.35 287.723 625.857 285.461Z" fill="#6A90D5" fill-opacity="0.43"/>
<path fill-rule="evenodd" clip-rule="evenodd" d="M606.954 289.581C606.461 287.319 608.831 284.881 611.096 284.387C613.361 283.894 615.598 285.328 616.091 287.59C616.584 289.852 615.461 293.527 613.196 294.02C610.931 294.514 607.447 291.844 606.954 289.581Z" fill="#6A90D5" fill-opacity="0.43"/>
<path fill-rule="evenodd" clip-rule="evenodd" d="M588.055 293.701C587.562 291.438 589.92 289.003 592.193 288.508C594.458 288.014 596.695 289.448 597.188 291.71C597.681 293.972 596.558 297.647 594.293 298.141C592.02 298.636 588.548 295.963 588.055 293.701Z" fill="#6A90D5" fill-opacity="0.43"/>
<path fill-rule="evenodd" clip-rule="evenodd" d="M569.14 297.823C568.647 295.561 571.025 293.121 573.294 292.627C575.563 292.132 577.782 293.57 578.275 295.832C578.768 298.095 577.663 301.765 575.394 302.26C573.125 302.755 569.634 300.086 569.14 297.823Z" fill="#6A90D5" fill-opacity="0.43"/>
<path fill-rule="evenodd" clip-rule="evenodd" d="M550.245 301.942C549.752 299.68 552.13 297.24 554.399 296.745C556.648 296.255 558.887 297.689 559.38 299.951C559.873 302.213 558.748 305.888 556.499 306.378C554.23 306.873 550.738 304.204 550.245 301.942Z" fill="#6A90D5" fill-opacity="0.43"/>
<path fill-rule="evenodd" clip-rule="evenodd" d="M531.35 306.06C530.857 303.798 533.215 301.363 535.484 300.868C537.753 300.374 539.992 301.807 540.485 304.069C540.978 306.332 539.853 310.007 537.584 310.501C535.315 310.996 531.843 308.323 531.35 306.06Z" fill="#6A90D5" fill-opacity="0.43"/>
<path fill-rule="evenodd" clip-rule="evenodd" d="M512.435 310.183C511.942 307.921 514.32 305.481 516.589 304.987C518.858 304.492 521.077 305.93 521.57 308.192C522.063 310.454 520.958 314.125 518.689 314.62C516.42 315.114 512.928 312.445 512.435 310.183Z" fill="#6A90D5" fill-opacity="0.43"/>
<path fill-rule="evenodd" clip-rule="evenodd" d="M493.54 314.302C493.047 312.04 495.425 309.6 497.674 309.109C499.943 308.615 502.182 310.048 502.675 312.311C503.168 314.573 502.043 318.248 499.774 318.743C497.524 319.233 494.033 316.564 493.54 314.302Z" fill="#6A90D5" fill-opacity="0.43"/>
<path fill-rule="evenodd" clip-rule="evenodd" d="M474.645 318.42C474.152 316.158 476.51 313.722 478.779 313.228C481.048 312.733 483.286 314.167 483.78 316.429C484.273 318.691 483.148 322.366 480.879 322.861C478.61 323.356 475.138 320.682 474.645 318.42Z" fill="#6A90D5" fill-opacity="0.43"/>
<path fill-rule="evenodd" clip-rule="evenodd" d="M455.73 322.543C455.237 320.281 457.615 317.841 459.884 317.346C462.133 316.856 464.372 318.29 464.865 320.552C465.358 322.814 464.233 326.489 461.984 326.979C459.715 327.474 456.223 324.805 455.73 322.543Z" fill="#6A90D5" fill-opacity="0.43"/>
<path fill-rule="evenodd" clip-rule="evenodd" d="M436.835 326.661C436.342 324.399 438.7 321.964 440.969 321.469C443.238 320.975 445.477 322.408 445.97 324.67C446.463 326.933 445.338 330.608 443.069 331.102C440.8 331.597 437.328 328.924 436.835 326.661Z" fill="#6A90D5" fill-opacity="0.43"/>
<path fill-rule="evenodd" clip-rule="evenodd" d="M417.92 330.784C417.427 328.522 419.805 326.082 422.074 325.588C424.343 325.093 426.562 326.531 427.055 328.793C427.548 331.055 426.443 334.726 424.174 335.221C421.905 335.715 418.413 333.046 417.92 330.784Z" fill="#6A90D5" fill-opacity="0.43"/>
<path fill-rule="evenodd" clip-rule="evenodd" d="M380.13 339.021C379.637 336.759 381.995 334.323 384.264 333.829C386.533 333.334 388.771 334.768 389.265 337.03C389.758 339.292 388.633 342.967 386.364 343.462C384.095 343.957 380.623 341.283 380.13 339.021Z" fill="#6A90D5" fill-opacity="0.43"/>
<path fill-rule="evenodd" clip-rule="evenodd" d="M361.215 343.144C360.722 340.882 363.1 338.442 365.369 337.947C367.618 337.457 369.857 338.891 370.35 341.153C370.843 343.415 369.718 347.09 367.469 347.58C365.2 348.075 361.708 345.406 361.215 343.144Z" fill="#6A90D5" fill-opacity="0.43"/>
<path fill-rule="evenodd" clip-rule="evenodd" d="M342.32 347.262C341.827 345 344.185 342.565 346.454 342.07C348.723 341.576 350.962 343.009 351.455 345.271C351.948 347.534 350.823 351.209 348.554 351.703C346.285 352.198 342.813 349.525 342.32 347.262Z" fill="#6A90D5" fill-opacity="0.43"/>
<path fill-rule="evenodd" clip-rule="evenodd" d="M323.405 351.385C322.912 349.123 325.29 346.683 327.559 346.189C329.828 345.694 332.066 347.128 332.56 349.39C333.053 351.652 331.928 355.327 329.659 355.822C327.39 356.316 323.898 353.647 323.405 351.385Z" fill="#6A90D5" fill-opacity="0.43"/>
<path fill-rule="evenodd" clip-rule="evenodd" d="M304.51 355.504C304.017 353.241 306.395 350.802 308.644 350.311C310.913 349.817 313.152 351.25 313.645 353.513C314.138 355.775 313.013 359.45 310.744 359.944C308.494 360.435 305.003 357.766 304.51 355.504Z" fill="#6A90D5" fill-opacity="0.43"/>
<path fill-rule="evenodd" clip-rule="evenodd" d="M266.7 363.745C266.207 361.483 268.585 359.043 270.854 358.548C273.123 358.054 275.342 359.492 275.835 361.754C276.328 364.016 275.222 367.687 272.953 368.181C270.684 368.676 267.193 366.007 266.7 363.745Z" fill="#6A90D5" fill-opacity="0.43"/>
<path fill-rule="evenodd" clip-rule="evenodd" d="M247.805 367.863C247.312 365.601 249.69 363.161 251.939 362.671C254.208 362.177 256.447 363.61 256.94 365.872C257.433 368.135 256.308 371.81 254.039 372.304C251.789 372.795 248.298 370.126 247.805 367.863Z" fill="#6A90D5" fill-opacity="0.43"/>
<path fill-rule="evenodd" clip-rule="evenodd" d="M228.89 371.986C228.397 369.724 230.775 367.284 233.044 366.79C235.313 366.295 237.551 367.729 238.045 369.991C238.538 372.253 237.413 375.928 235.144 376.423C232.875 376.917 229.383 374.248 228.89 371.986Z" fill="#6A90D5" fill-opacity="0.43"/>
<path fill-rule="evenodd" clip-rule="evenodd" d="M209.995 376.105C209.502 373.842 211.88 371.403 214.149 370.908C216.398 370.418 218.637 371.851 219.13 374.114C219.623 376.376 218.498 380.051 216.248 380.541C213.979 381.036 210.488 378.367 209.995 376.105Z" fill="#6A90D5" fill-opacity="0.43"/>
<path fill-rule="evenodd" clip-rule="evenodd" d="M191.1 380.223C190.607 377.961 192.965 375.525 195.234 375.031C197.503 374.536 199.742 375.97 200.235 378.232C200.728 380.494 199.603 384.169 197.334 384.664C195.065 385.159 191.593 382.485 191.1 380.223Z" fill="#6A90D5" fill-opacity="0.43"/>
<path fill-rule="evenodd" clip-rule="evenodd" d="M678.787 255.761C678.294 253.498 680.664 251.06 682.929 250.567C685.194 250.073 687.43 251.507 687.923 253.769C688.416 256.031 687.293 259.706 685.028 260.2C682.763 260.693 679.28 258.023 678.787 255.761Z" fill="#6A90D5" fill-opacity="0.43"/>
<path fill-rule="evenodd" clip-rule="evenodd" d="M659.882 259.881C659.389 257.619 661.759 255.181 664.024 254.687C666.289 254.193 668.525 255.628 669.018 257.89C669.511 260.152 668.388 263.827 666.123 264.32C663.858 264.814 660.375 262.144 659.882 259.881Z" fill="#6A90D5" fill-opacity="0.43"/>
<path fill-rule="evenodd" clip-rule="evenodd" d="M640.981 264.001C640.488 261.739 642.858 259.301 645.123 258.807C647.388 258.313 649.624 259.747 650.117 262.01C650.61 264.272 649.487 267.946 647.222 268.44C644.957 268.934 641.474 266.263 640.981 264.001Z" fill="#6A90D5" fill-opacity="0.43"/>
<path fill-rule="evenodd" clip-rule="evenodd" d="M622.078 268.121C621.585 265.859 623.955 263.421 626.22 262.927C628.485 262.433 630.721 263.868 631.214 266.13C631.707 268.392 630.584 272.067 628.319 272.56C626.054 273.054 622.571 270.383 622.078 268.121Z" fill="#6A90D5" fill-opacity="0.43"/>
<path fill-rule="evenodd" clip-rule="evenodd" d="M603.175 272.241C602.682 269.979 605.052 267.541 607.317 267.047C609.582 266.554 611.818 267.988 612.311 270.25C612.804 272.512 611.681 276.187 609.416 276.68C607.151 277.174 603.668 274.504 603.175 272.241Z" fill="#6A90D5" fill-opacity="0.43"/>
<path fill-rule="evenodd" clip-rule="evenodd" d="M584.276 276.361C583.783 274.099 586.141 271.663 588.414 271.168C590.679 270.674 592.915 272.108 593.408 274.37C593.901 276.632 592.778 280.307 590.513 280.801C588.24 281.296 584.769 278.623 584.276 276.361Z" fill="#6A90D5" fill-opacity="0.43"/>
<path fill-rule="evenodd" clip-rule="evenodd" d="M565.361 280.484C564.868 278.221 567.246 275.781 569.515 275.287C571.784 274.792 574.002 276.23 574.496 278.493C574.989 280.755 573.883 284.425 571.614 284.92C569.345 285.415 565.854 282.746 565.361 280.484Z" fill="#6A90D5" fill-opacity="0.43"/>
<path fill-rule="evenodd" clip-rule="evenodd" d="M546.466 284.602C545.973 282.34 548.35 279.9 550.619 279.405C552.869 278.915 555.107 280.349 555.6 282.611C556.093 284.873 554.968 288.548 552.719 289.039C550.45 289.533 546.959 286.864 546.466 284.602Z" fill="#6A90D5" fill-opacity="0.43"/>
<path fill-rule="evenodd" clip-rule="evenodd" d="M527.571 288.721C527.077 286.458 529.436 284.023 531.705 283.528C533.974 283.034 536.212 284.467 536.705 286.73C537.198 288.992 536.073 292.667 533.804 293.161C531.535 293.656 528.064 290.983 527.571 288.721Z" fill="#6A90D5" fill-opacity="0.43"/>
<path fill-rule="evenodd" clip-rule="evenodd" d="M508.656 292.843C508.163 290.581 510.54 288.141 512.809 287.647C515.078 287.152 517.297 288.59 517.79 290.852C518.284 293.115 517.178 296.785 514.909 297.28C512.64 297.774 509.149 295.106 508.656 292.843Z" fill="#6A90D5" fill-opacity="0.43"/>
<path fill-rule="evenodd" clip-rule="evenodd" d="M489.761 296.962C489.268 294.7 491.645 292.26 493.895 291.769C496.164 291.275 498.402 292.708 498.895 294.971C499.388 297.233 498.263 300.908 495.994 301.403C493.745 301.893 490.254 299.224 489.761 296.962Z" fill="#6A90D5" fill-opacity="0.43"/>
<path fill-rule="evenodd" clip-rule="evenodd" d="M470.865 301.08C470.372 298.818 472.73 296.382 474.999 295.888C477.268 295.393 479.507 296.827 480 299.089C480.493 301.351 479.368 305.026 477.099 305.521C474.83 306.016 471.359 303.343 470.865 301.08Z" fill="#6A90D5" fill-opacity="0.43"/>
<path fill-rule="evenodd" clip-rule="evenodd" d="M451.951 305.203C451.458 302.941 453.835 300.501 456.104 300.006C458.354 299.516 460.592 300.95 461.085 303.212C461.579 305.474 460.454 309.149 458.204 309.64C455.935 310.134 452.444 307.465 451.951 305.203Z" fill="#6A90D5" fill-opacity="0.43"/>
<path fill-rule="evenodd" clip-rule="evenodd" d="M433.056 309.322C432.562 307.059 434.921 304.624 437.19 304.129C439.459 303.635 441.697 305.068 442.19 307.331C442.683 309.593 441.558 313.268 439.289 313.762C437.02 314.257 433.549 311.584 433.056 309.322Z" fill="#6A90D5" fill-opacity="0.43"/>
<path fill-rule="evenodd" clip-rule="evenodd" d="M414.141 313.444C413.648 311.182 416.025 308.742 418.294 308.248C420.563 307.753 422.782 309.191 423.275 311.453C423.769 313.715 422.663 317.386 420.394 317.881C418.125 318.375 414.634 315.707 414.141 313.444Z" fill="#6A90D5" fill-opacity="0.43"/>
<path fill-rule="evenodd" clip-rule="evenodd" d="M395.246 317.563C394.753 315.301 397.13 312.861 399.38 312.37C401.649 311.876 403.887 313.31 404.38 315.572C404.873 317.834 403.748 321.509 401.479 322.004C399.23 322.494 395.739 319.825 395.246 317.563Z" fill="#6A90D5" fill-opacity="0.43"/>
<path fill-rule="evenodd" clip-rule="evenodd" d="M376.35 321.681C375.857 319.419 378.216 316.983 380.484 316.489C382.753 315.994 384.992 317.428 385.485 319.69C385.978 321.952 384.853 325.627 382.584 326.122C380.315 326.617 376.844 323.944 376.35 321.681Z" fill="#6A90D5" fill-opacity="0.43"/>
<path fill-rule="evenodd" clip-rule="evenodd" d="M357.436 325.804C356.943 323.542 359.32 321.102 361.589 320.607C363.839 320.117 366.077 321.551 366.57 323.813C367.063 326.075 365.938 329.75 363.689 330.241C361.42 330.735 357.929 328.066 357.436 325.804Z" fill="#6A90D5" fill-opacity="0.43"/>
<path fill-rule="evenodd" clip-rule="evenodd" d="M338.541 329.923C338.047 327.66 340.406 325.225 342.675 324.73C344.944 324.236 347.182 325.669 347.675 327.931C348.168 330.194 347.043 333.869 344.774 334.363C342.505 334.858 339.034 332.185 338.541 329.923Z" fill="#6A90D5" fill-opacity="0.43"/>
<path fill-rule="evenodd" clip-rule="evenodd" d="M319.626 334.045C319.133 331.783 321.51 329.343 323.779 328.849C326.048 328.354 328.287 329.788 328.78 332.05C329.273 334.312 328.148 337.987 325.879 338.482C323.61 338.976 320.119 336.308 319.626 334.045Z" fill="#6A90D5" fill-opacity="0.43"/>
<path fill-rule="evenodd" clip-rule="evenodd" d="M300.731 338.164C300.238 335.902 302.615 333.462 304.865 332.971C307.134 332.477 309.372 333.91 309.865 336.173C310.358 338.435 309.233 342.11 306.964 342.605C304.715 343.095 301.224 340.426 300.731 338.164Z" fill="#6A90D5" fill-opacity="0.43"/>
<path fill-rule="evenodd" clip-rule="evenodd" d="M281.835 342.282C281.342 340.02 283.701 337.584 285.969 337.09C288.238 336.595 290.477 338.029 290.97 340.291C291.463 342.553 290.338 346.228 288.069 346.723C285.8 347.218 282.329 344.545 281.835 342.282Z" fill="#6A90D5" fill-opacity="0.43"/>
<path fill-rule="evenodd" clip-rule="evenodd" d="M262.921 346.405C262.428 344.143 264.805 341.703 267.074 341.208C269.343 340.714 271.562 342.152 272.055 344.414C272.548 346.676 271.443 350.347 269.174 350.842C266.905 351.336 263.414 348.667 262.921 346.405Z" fill="#6A90D5" fill-opacity="0.43"/>
<path fill-rule="evenodd" clip-rule="evenodd" d="M244.025 350.524C243.532 348.261 245.91 345.821 248.159 345.331C250.428 344.837 252.667 346.27 253.16 348.532C253.653 350.795 252.528 354.47 250.259 354.964C248.01 355.455 244.519 352.786 244.025 350.524Z" fill="#6A90D5" fill-opacity="0.43"/>
<path fill-rule="evenodd" clip-rule="evenodd" d="M225.111 354.646C224.618 352.384 226.995 349.944 229.264 349.45C231.533 348.955 233.772 350.389 234.265 352.651C234.758 354.913 233.633 358.588 231.364 359.083C229.095 359.577 225.604 356.909 225.111 354.646Z" fill="#6A90D5" fill-opacity="0.43"/>
<path fill-rule="evenodd" clip-rule="evenodd" d="M206.216 358.765C205.723 356.503 208.1 354.063 210.369 353.568C212.619 353.078 214.857 354.511 215.35 356.774C215.843 359.036 214.718 362.711 212.469 363.201C210.2 363.696 206.709 361.027 206.216 358.765Z" fill="#6A90D5" fill-opacity="0.43"/>
<path fill-rule="evenodd" clip-rule="evenodd" d="M187.32 362.883C186.827 360.621 189.185 358.185 191.454 357.691C193.723 357.196 195.962 358.63 196.455 360.892C196.948 363.154 195.823 366.829 193.554 367.324C191.285 367.819 187.814 365.146 187.32 362.883Z" fill="#6A90D5" fill-opacity="0.43"/>
<path fill-rule="evenodd" clip-rule="evenodd" d="M675.007 238.421C674.514 236.158 676.884 233.72 679.149 233.227C681.414 232.733 683.651 234.167 684.144 236.429C684.637 238.691 683.514 242.366 681.249 242.86C678.984 243.353 675.5 240.683 675.007 238.421Z" fill="#6A90D5" fill-opacity="0.43"/>
<path fill-rule="evenodd" clip-rule="evenodd" d="M656.102 242.541C655.609 240.279 657.979 237.841 660.244 237.347C662.509 236.854 664.746 238.288 665.239 240.55C665.732 242.812 664.609 246.487 662.344 246.98C660.079 247.474 656.595 244.804 656.102 242.541Z" fill="#6A90D5" fill-opacity="0.43"/>
<path fill-rule="evenodd" clip-rule="evenodd" d="M637.201 246.661C636.708 244.399 639.078 241.961 641.343 241.467C643.608 240.973 645.845 242.407 646.338 244.67C646.831 246.932 645.708 250.606 643.443 251.1C641.178 251.594 637.694 248.923 637.201 246.661Z" fill="#6A90D5" fill-opacity="0.43"/>
<path fill-rule="evenodd" clip-rule="evenodd" d="M618.298 250.781C617.805 248.519 620.175 246.081 622.44 245.587C624.705 245.093 626.942 246.528 627.435 248.79C627.928 251.052 626.805 254.727 624.54 255.22C622.275 255.714 618.791 253.043 618.298 250.781Z" fill="#6A90D5" fill-opacity="0.43"/>
<path fill-rule="evenodd" clip-rule="evenodd" d="M599.395 254.901C598.902 252.639 601.272 250.201 603.537 249.707C605.802 249.214 608.039 250.648 608.532 252.91C609.025 255.172 607.902 258.847 605.637 259.341C603.372 259.834 599.888 257.164 599.395 254.901Z" fill="#6A90D5" fill-opacity="0.43"/>
<path fill-rule="evenodd" clip-rule="evenodd" d="M580.496 259.021C580.003 256.759 582.361 254.323 584.634 253.828C586.899 253.334 589.136 254.768 589.629 257.03C590.122 259.292 588.999 262.967 586.734 263.461C584.461 263.956 580.989 261.283 580.496 259.021Z" fill="#6A90D5" fill-opacity="0.43"/>
<path fill-rule="evenodd" clip-rule="evenodd" d="M561.581 263.144C561.088 260.881 563.466 258.441 565.735 257.947C568.004 257.452 570.223 258.89 570.716 261.153C571.209 263.415 570.104 267.085 567.835 267.58C565.566 268.075 562.074 265.406 561.581 263.144Z" fill="#6A90D5" fill-opacity="0.43"/>
<path fill-rule="evenodd" clip-rule="evenodd" d="M542.686 267.262C542.193 265 544.571 262.56 546.84 262.065C549.089 261.575 551.328 263.009 551.821 265.271C552.314 267.533 551.189 271.208 548.939 271.699C546.671 272.193 543.179 269.524 542.686 267.262Z" fill="#6A90D5" fill-opacity="0.43"/>
<path fill-rule="evenodd" clip-rule="evenodd" d="M523.791 271.381C523.298 269.118 525.656 266.683 527.925 266.188C530.194 265.694 532.433 267.127 532.926 269.39C533.419 271.652 532.294 275.327 530.025 275.821C527.756 276.316 524.284 273.643 523.791 271.381Z" fill="#6A90D5" fill-opacity="0.43"/>
<path fill-rule="evenodd" clip-rule="evenodd" d="M504.876 275.503C504.383 273.241 506.761 270.801 509.03 270.307C511.299 269.812 513.518 271.25 514.011 273.512C514.504 275.775 513.399 279.445 511.13 279.94C508.861 280.434 505.369 277.766 504.876 275.503Z" fill="#6A90D5" fill-opacity="0.43"/>
<path fill-rule="evenodd" clip-rule="evenodd" d="M485.981 279.622C485.488 277.36 487.866 274.92 490.115 274.429C492.384 273.935 494.623 275.369 495.116 277.631C495.609 279.893 494.484 283.568 492.215 284.063C489.965 284.553 486.474 281.884 485.981 279.622Z" fill="#6A90D5" fill-opacity="0.43"/>
<path fill-rule="evenodd" clip-rule="evenodd" d="M467.086 283.74C466.593 281.478 468.951 279.042 471.22 278.548C473.489 278.053 475.727 279.487 476.221 281.749C476.714 284.012 475.589 287.686 473.32 288.181C471.051 288.676 467.579 286.003 467.086 283.74Z" fill="#6A90D5" fill-opacity="0.43"/>
<path fill-rule="evenodd" clip-rule="evenodd" d="M448.171 287.863C447.678 285.601 450.056 283.161 452.325 282.666C454.574 282.176 456.813 283.61 457.306 285.872C457.799 288.134 456.674 291.809 454.424 292.3C452.155 292.794 448.664 290.125 448.171 287.863Z" fill="#6A90D5" fill-opacity="0.43"/>
<path fill-rule="evenodd" clip-rule="evenodd" d="M429.276 291.982C428.783 289.719 431.141 287.284 433.41 286.789C435.679 286.295 437.918 287.728 438.411 289.991C438.904 292.253 437.779 295.928 435.51 296.422C433.241 296.917 429.769 294.244 429.276 291.982Z" fill="#6A90D5" fill-opacity="0.43"/>
<path fill-rule="evenodd" clip-rule="evenodd" d="M410.361 296.104C409.868 293.842 412.246 291.402 414.515 290.908C416.784 290.413 419.003 291.851 419.496 294.113C419.989 296.376 418.883 300.046 416.614 300.541C414.345 301.035 410.854 298.367 410.361 296.104Z" fill="#6A90D5" fill-opacity="0.43"/>
<path fill-rule="evenodd" clip-rule="evenodd" d="M391.466 300.223C390.973 297.961 393.351 295.521 395.6 295.03C397.869 294.536 400.108 295.97 400.601 298.232C401.094 300.494 399.969 304.169 397.7 304.664C395.45 305.154 391.959 302.485 391.466 300.223Z" fill="#6A90D5" fill-opacity="0.43"/>
<path fill-rule="evenodd" clip-rule="evenodd" d="M372.571 304.341C372.078 302.079 374.436 299.643 376.705 299.149C378.974 298.654 381.212 300.088 381.705 302.35C382.199 304.613 381.074 308.287 378.805 308.782C376.536 309.277 373.064 306.604 372.571 304.341Z" fill="#6A90D5" fill-opacity="0.43"/>
<path fill-rule="evenodd" clip-rule="evenodd" d="M353.656 308.464C353.163 306.202 355.541 303.762 357.81 303.267C360.059 302.777 362.298 304.211 362.791 306.473C363.284 308.735 362.159 312.41 359.91 312.901C357.641 313.395 354.149 310.726 353.656 308.464Z" fill="#6A90D5" fill-opacity="0.43"/>
<path fill-rule="evenodd" clip-rule="evenodd" d="M334.761 312.583C334.268 310.32 336.626 307.885 338.895 307.39C341.164 306.896 343.403 308.329 343.896 310.591C344.389 312.854 343.264 316.529 340.995 317.023C338.726 317.518 335.254 314.845 334.761 312.583Z" fill="#6A90D5" fill-opacity="0.43"/>
<path fill-rule="evenodd" clip-rule="evenodd" d="M315.846 316.705C315.353 314.443 317.731 312.003 320 311.509C322.269 311.014 324.507 312.448 325 314.71C325.494 316.972 324.369 320.647 322.1 321.142C319.831 321.636 316.339 318.968 315.846 316.705Z" fill="#6A90D5" fill-opacity="0.43"/>
<path fill-rule="evenodd" clip-rule="evenodd" d="M296.951 320.824C296.458 318.562 298.836 316.122 301.085 315.631C303.354 315.137 305.593 316.571 306.086 318.833C306.579 321.095 305.454 324.77 303.185 325.265C300.935 325.755 297.444 323.086 296.951 320.824Z" fill="#6A90D5" fill-opacity="0.43"/>
<path fill-rule="evenodd" clip-rule="evenodd" d="M278.056 324.942C277.563 322.68 279.921 320.244 282.19 319.75C284.459 319.255 286.697 320.689 287.191 322.951C287.684 325.214 286.559 328.888 284.29 329.383C282.021 329.878 278.549 327.205 278.056 324.942Z" fill="#6A90D5" fill-opacity="0.43"/>
<path fill-rule="evenodd" clip-rule="evenodd" d="M240.246 333.184C239.753 330.921 242.131 328.481 244.38 327.991C246.649 327.497 248.888 328.93 249.381 331.192C249.874 333.455 248.749 337.13 246.48 337.624C244.23 338.115 240.739 335.446 240.246 333.184Z" fill="#6A90D5" fill-opacity="0.43"/>
<path fill-rule="evenodd" clip-rule="evenodd" d="M221.331 337.306C220.838 335.044 223.216 332.604 225.485 332.11C227.754 331.615 229.992 333.049 230.486 335.311C230.979 337.573 229.854 341.248 227.585 341.743C225.316 342.237 221.824 339.569 221.331 337.306Z" fill="#6A90D5" fill-opacity="0.43"/>
<path fill-rule="evenodd" clip-rule="evenodd" d="M202.436 341.425C201.943 339.163 204.321 336.723 206.59 336.228C208.839 335.738 211.078 337.172 211.571 339.434C212.064 341.696 210.939 345.371 208.689 345.861C206.42 346.356 202.929 343.687 202.436 341.425Z" fill="#6A90D5" fill-opacity="0.43"/>
<path fill-rule="evenodd" clip-rule="evenodd" d="M183.541 345.543C183.048 343.281 185.406 340.845 187.675 340.351C189.944 339.856 192.182 341.29 192.676 343.552C193.169 345.814 192.044 349.489 189.775 349.984C187.506 350.479 184.034 347.806 183.541 345.543Z" fill="#6A90D5" fill-opacity="0.43"/>
<path fill-rule="evenodd" clip-rule="evenodd" d="M671.228 221.081C670.735 218.818 673.105 216.38 675.37 215.887C677.635 215.393 679.871 216.827 680.364 219.089C680.857 221.351 679.734 225.026 677.469 225.52C675.204 226.013 671.721 223.343 671.228 221.081Z" fill="#6A90D5" fill-opacity="0.43"/>
<path fill-rule="evenodd" clip-rule="evenodd" d="M652.323 225.201C651.83 222.939 654.2 220.501 656.465 220.007C658.73 219.514 660.966 220.948 661.459 223.21C661.952 225.472 660.829 229.147 658.564 229.64C656.299 230.134 652.816 227.464 652.323 225.201Z" fill="#6A90D5" fill-opacity="0.43"/>
<path fill-rule="evenodd" clip-rule="evenodd" d="M633.422 229.321C632.929 227.059 635.299 224.621 637.564 224.127C639.829 223.633 642.065 225.067 642.558 227.33C643.051 229.592 641.928 233.266 639.663 233.76C637.398 234.254 633.915 231.583 633.422 229.321Z" fill="#6A90D5" fill-opacity="0.43"/>
<path fill-rule="evenodd" clip-rule="evenodd" d="M614.519 233.441C614.026 231.179 616.395 228.741 618.661 228.247C620.926 227.754 623.162 229.188 623.655 231.45C624.148 233.712 623.025 237.387 620.76 237.88C618.495 238.374 615.012 235.704 614.519 233.441Z" fill="#6A90D5" fill-opacity="0.43"/>
<path fill-rule="evenodd" clip-rule="evenodd" d="M595.616 237.561C595.123 235.299 597.493 232.861 599.758 232.367C602.023 231.874 604.259 233.308 604.752 235.57C605.245 237.832 604.122 241.507 601.857 242.001C599.592 242.494 596.109 239.824 595.616 237.561Z" fill="#6A90D5" fill-opacity="0.43"/>
<path fill-rule="evenodd" clip-rule="evenodd" d="M576.717 241.681C576.224 239.419 578.582 236.983 580.855 236.488C583.12 235.994 585.356 237.428 585.849 239.69C586.342 241.952 585.219 245.627 582.954 246.121C580.681 246.616 577.21 243.943 576.717 241.681Z" fill="#6A90D5" fill-opacity="0.43"/>
<path fill-rule="evenodd" clip-rule="evenodd" d="M557.802 245.804C557.309 243.541 559.687 241.101 561.956 240.607C564.225 240.112 566.444 241.55 566.937 243.813C567.43 246.075 566.324 249.745 564.055 250.24C561.786 250.735 558.295 248.066 557.802 245.804Z" fill="#6A90D5" fill-opacity="0.43"/>
<path fill-rule="evenodd" clip-rule="evenodd" d="M538.907 249.922C538.414 247.66 540.791 245.22 543.06 244.725C545.31 244.235 547.548 245.669 548.041 247.931C548.535 250.193 547.41 253.868 545.16 254.359C542.891 254.853 539.4 252.184 538.907 249.922Z" fill="#6A90D5" fill-opacity="0.43"/>
<path fill-rule="evenodd" clip-rule="evenodd" d="M520.011 254.041C519.518 251.778 521.877 249.343 524.146 248.848C526.415 248.354 528.653 249.787 529.146 252.05C529.639 254.312 528.514 257.987 526.245 258.481C523.976 258.976 520.505 256.303 520.011 254.041Z" fill="#6A90D5" fill-opacity="0.43"/>
<path fill-rule="evenodd" clip-rule="evenodd" d="M501.097 258.163C500.604 255.901 502.981 253.461 505.25 252.967C507.519 252.472 509.738 253.91 510.231 256.172C510.724 258.435 509.619 262.105 507.35 262.6C505.081 263.094 501.59 260.426 501.097 258.163Z" fill="#6A90D5" fill-opacity="0.43"/>
<path fill-rule="evenodd" clip-rule="evenodd" d="M482.202 262.282C481.709 260.02 484.086 257.58 486.336 257.089C488.605 256.595 490.843 258.029 491.336 260.291C491.829 262.553 490.704 266.228 488.435 266.723C486.186 267.213 482.695 264.544 482.202 262.282Z" fill="#6A90D5" fill-opacity="0.43"/>
<path fill-rule="evenodd" clip-rule="evenodd" d="M463.306 266.4C462.813 264.138 465.171 261.703 467.44 261.208C469.709 260.713 471.948 262.147 472.441 264.409C472.934 266.672 471.809 270.346 469.54 270.841C467.271 271.336 463.799 268.663 463.306 266.4Z" fill="#6A90D5" fill-opacity="0.43"/>
<path fill-rule="evenodd" clip-rule="evenodd" d="M444.392 270.523C443.899 268.261 446.276 265.821 448.545 265.326C450.795 264.836 453.033 266.27 453.526 268.532C454.019 270.794 452.894 274.469 450.645 274.96C448.376 275.454 444.885 272.785 444.392 270.523Z" fill="#6A90D5" fill-opacity="0.43"/>
<path fill-rule="evenodd" clip-rule="evenodd" d="M406.582 278.764C406.089 276.502 408.466 274.062 410.735 273.568C413.004 273.073 415.223 274.511 415.716 276.773C416.209 279.036 415.104 282.706 412.835 283.201C410.566 283.695 407.075 281.027 406.582 278.764Z" fill="#6A90D5" fill-opacity="0.43"/>
<path fill-rule="evenodd" clip-rule="evenodd" d="M387.687 282.883C387.193 280.621 389.571 278.181 391.821 277.69C394.09 277.196 396.328 278.63 396.821 280.892C397.314 283.154 396.189 286.829 393.92 287.324C391.671 287.814 388.18 285.145 387.687 282.883Z" fill="#6A90D5" fill-opacity="0.43"/>
<path fill-rule="evenodd" clip-rule="evenodd" d="M368.791 287.001C368.298 284.739 370.656 282.303 372.925 281.809C375.194 281.314 377.433 282.748 377.926 285.01C378.419 287.273 377.294 290.947 375.025 291.442C372.756 291.937 369.284 289.264 368.791 287.001Z" fill="#6A90D5" fill-opacity="0.43"/>
<path fill-rule="evenodd" clip-rule="evenodd" d="M349.877 291.124C349.384 288.862 351.761 286.422 354.03 285.927C356.28 285.437 358.518 286.871 359.011 289.133C359.504 291.395 358.379 295.07 356.13 295.561C353.861 296.055 350.37 293.386 349.877 291.124Z" fill="#6A90D5" fill-opacity="0.43"/>
<path fill-rule="evenodd" clip-rule="evenodd" d="M330.982 295.243C330.488 292.98 332.847 290.545 335.116 290.05C337.385 289.556 339.623 290.989 340.116 293.252C340.609 295.514 339.484 299.189 337.215 299.683C334.946 300.178 331.475 297.505 330.982 295.243Z" fill="#6A90D5" fill-opacity="0.43"/>
<path fill-rule="evenodd" clip-rule="evenodd" d="M312.067 299.365C311.574 297.103 313.951 294.663 316.22 294.169C318.489 293.674 320.728 295.108 321.221 297.37C321.714 299.632 320.589 303.307 318.32 303.802C316.051 304.296 312.56 301.628 312.067 299.365Z" fill="#6A90D5" fill-opacity="0.43"/>
<path fill-rule="evenodd" clip-rule="evenodd" d="M293.172 303.484C292.679 301.222 295.056 298.782 297.306 298.291C299.575 297.797 301.813 299.231 302.306 301.493C302.799 303.755 301.674 307.43 299.405 307.925C297.156 308.415 293.665 305.746 293.172 303.484Z" fill="#6A90D5" fill-opacity="0.43"/>
<path fill-rule="evenodd" clip-rule="evenodd" d="M274.276 307.602C273.783 305.34 276.141 302.904 278.41 302.41C280.679 301.915 282.918 303.349 283.411 305.611C283.904 307.874 282.779 311.548 280.51 312.043C278.241 312.538 274.769 309.865 274.276 307.602Z" fill="#6A90D5" fill-opacity="0.43"/>
<path fill-rule="evenodd" clip-rule="evenodd" d="M255.362 311.725C254.869 309.463 257.246 307.023 259.515 306.528C261.784 306.034 264.003 307.472 264.496 309.734C264.989 311.996 263.884 315.667 261.615 316.162C259.346 316.656 255.855 313.987 255.362 311.725Z" fill="#6A90D5" fill-opacity="0.43"/>
<path fill-rule="evenodd" clip-rule="evenodd" d="M236.466 315.844C235.973 313.581 238.351 311.142 240.601 310.651C242.869 310.157 245.108 311.59 245.601 313.853C246.094 316.115 244.969 319.79 242.7 320.284C240.451 320.775 236.96 318.106 236.466 315.844Z" fill="#6A90D5" fill-opacity="0.43"/>
<path fill-rule="evenodd" clip-rule="evenodd" d="M217.552 319.966C217.059 317.704 219.436 315.264 221.705 314.77C223.974 314.275 226.213 315.709 226.706 317.971C227.199 320.233 226.074 323.908 223.805 324.403C221.536 324.897 218.045 322.229 217.552 319.966Z" fill="#6A90D5" fill-opacity="0.43"/>
<path fill-rule="evenodd" clip-rule="evenodd" d="M198.657 324.085C198.163 321.823 200.541 319.383 202.81 318.888C205.06 318.398 207.298 319.832 207.791 322.094C208.284 324.356 207.159 328.031 204.91 328.521C202.641 329.016 199.15 326.347 198.657 324.085Z" fill="#6A90D5" fill-opacity="0.43"/>
<path fill-rule="evenodd" clip-rule="evenodd" d="M179.761 328.203C179.268 325.941 181.626 323.505 183.895 323.011C186.164 322.516 188.403 323.95 188.896 326.212C189.389 328.475 188.264 332.149 185.995 332.644C183.726 333.139 180.255 330.466 179.761 328.203Z" fill="#6A90D5" fill-opacity="0.43"/>
<path fill-rule="evenodd" clip-rule="evenodd" d="M667.448 203.741C666.955 201.478 669.325 199.04 671.59 198.547C673.855 198.053 676.092 199.487 676.585 201.749C677.078 204.012 675.955 207.686 673.69 208.18C671.425 208.673 667.941 206.003 667.448 203.741Z" fill="#6A90D5" fill-opacity="0.43"/>
<path fill-rule="evenodd" clip-rule="evenodd" d="M648.543 207.861C648.05 205.599 650.42 203.161 652.685 202.667C654.95 202.174 657.187 203.608 657.68 205.87C658.173 208.132 657.05 211.807 654.785 212.3C652.52 212.794 649.036 210.124 648.543 207.861Z" fill="#6A90D5" fill-opacity="0.43"/>
<path fill-rule="evenodd" clip-rule="evenodd" d="M629.642 211.981C629.149 209.719 631.519 207.281 633.784 206.787C636.049 206.293 638.286 207.727 638.779 209.99C639.272 212.252 638.149 215.926 635.884 216.42C633.619 216.914 630.135 214.243 629.642 211.981Z" fill="#6A90D5" fill-opacity="0.43"/>
<path fill-rule="evenodd" clip-rule="evenodd" d="M610.739 216.101C610.246 213.839 612.616 211.401 614.881 210.907C617.146 210.414 619.383 211.848 619.876 214.11C620.369 216.372 619.246 220.047 616.981 220.54C614.716 221.034 611.232 218.364 610.739 216.101Z" fill="#6A90D5" fill-opacity="0.43"/>
<path fill-rule="evenodd" clip-rule="evenodd" d="M591.836 220.222C591.343 217.959 593.713 215.521 595.978 215.027C598.243 214.534 600.48 215.968 600.973 218.23C601.466 220.492 600.343 224.167 598.078 224.661C595.813 225.154 592.329 222.484 591.836 220.222Z" fill="#6A90D5" fill-opacity="0.43"/>
<path fill-rule="evenodd" clip-rule="evenodd" d="M572.937 224.341C572.444 222.079 574.802 219.643 577.075 219.148C579.34 218.654 581.577 220.088 582.07 222.35C582.563 224.612 581.44 228.287 579.175 228.781C576.902 229.276 573.43 226.603 572.937 224.341Z" fill="#6A90D5" fill-opacity="0.43"/>
<path fill-rule="evenodd" clip-rule="evenodd" d="M554.022 228.464C553.529 226.201 555.907 223.762 558.176 223.267C560.445 222.772 562.664 224.21 563.157 226.473C563.65 228.735 562.545 232.406 560.276 232.9C558.007 233.395 554.516 230.726 554.022 228.464Z" fill="#6A90D5" fill-opacity="0.43"/>
<path fill-rule="evenodd" clip-rule="evenodd" d="M535.127 232.582C534.634 230.32 537.012 227.88 539.281 227.385C541.53 226.895 543.769 228.329 544.262 230.591C544.755 232.853 543.63 236.528 541.381 237.019C539.112 237.513 535.62 234.844 535.127 232.582Z" fill="#6A90D5" fill-opacity="0.43"/>
<path fill-rule="evenodd" clip-rule="evenodd" d="M516.232 236.701C515.739 234.438 518.097 232.003 520.366 231.508C522.635 231.014 524.874 232.447 525.367 234.71C525.86 236.972 524.735 240.647 522.466 241.141C520.197 241.636 516.725 238.963 516.232 236.701Z" fill="#6A90D5" fill-opacity="0.43"/>
<path fill-rule="evenodd" clip-rule="evenodd" d="M497.317 240.823C496.824 238.561 499.202 236.121 501.471 235.627C503.74 235.132 505.959 236.57 506.452 238.832C506.945 241.095 505.84 244.765 503.571 245.26C501.302 245.754 497.81 243.086 497.317 240.823Z" fill="#6A90D5" fill-opacity="0.43"/>
<path fill-rule="evenodd" clip-rule="evenodd" d="M478.422 244.942C477.929 242.68 480.307 240.24 482.556 239.749C484.825 239.255 487.064 240.689 487.557 242.951C488.05 245.213 486.925 248.888 484.656 249.383C482.406 249.873 478.915 247.204 478.422 244.942Z" fill="#6A90D5" fill-opacity="0.43"/>
<path fill-rule="evenodd" clip-rule="evenodd" d="M459.527 249.06C459.034 246.798 461.392 244.363 463.661 243.868C465.93 243.373 468.168 244.807 468.662 247.069C469.155 249.332 468.03 253.007 465.761 253.501C463.492 253.996 460.02 251.323 459.527 249.06Z" fill="#6A90D5" fill-opacity="0.43"/>
<path fill-rule="evenodd" clip-rule="evenodd" d="M440.612 253.183C440.119 250.921 442.497 248.481 444.766 247.986C447.015 247.496 449.254 248.93 449.747 251.192C450.24 253.454 449.115 257.129 446.866 257.62C444.597 258.114 441.105 255.445 440.612 253.183Z" fill="#6A90D5" fill-opacity="0.43"/>
<path fill-rule="evenodd" clip-rule="evenodd" d="M421.717 257.302C421.224 255.039 423.582 252.604 425.851 252.109C428.12 251.615 430.359 253.048 430.852 255.311C431.345 257.573 430.22 261.248 427.951 261.742C425.682 262.237 422.21 259.564 421.717 257.302Z" fill="#6A90D5" fill-opacity="0.43"/>
<path fill-rule="evenodd" clip-rule="evenodd" d="M402.802 261.424C402.309 259.162 404.687 256.722 406.956 256.228C409.225 255.733 411.444 257.171 411.937 259.433C412.43 261.696 411.325 265.366 409.056 265.861C406.787 266.355 403.295 263.687 402.802 261.424Z" fill="#6A90D5" fill-opacity="0.43"/>
<path fill-rule="evenodd" clip-rule="evenodd" d="M383.907 265.543C383.414 263.281 385.792 260.841 388.041 260.35C390.31 259.856 392.549 261.29 393.042 263.552C393.535 265.814 392.41 269.489 390.141 269.984C387.891 270.474 384.4 267.805 383.907 265.543Z" fill="#6A90D5" fill-opacity="0.43"/>
<path fill-rule="evenodd" clip-rule="evenodd" d="M365.012 269.661C364.519 267.399 366.877 264.964 369.146 264.469C371.415 263.974 373.653 265.408 374.147 267.67C374.64 269.933 373.515 273.608 371.246 274.102C368.977 274.597 365.505 271.924 365.012 269.661Z" fill="#6A90D5" fill-opacity="0.43"/>
<path fill-rule="evenodd" clip-rule="evenodd" d="M346.097 273.784C345.604 271.522 347.982 269.082 350.251 268.587C352.5 268.097 354.739 269.531 355.232 271.793C355.725 274.055 354.6 277.73 352.351 278.221C350.082 278.715 346.59 276.046 346.097 273.784Z" fill="#6A90D5" fill-opacity="0.43"/>
<path fill-rule="evenodd" clip-rule="evenodd" d="M327.202 277.903C326.709 275.64 329.067 273.205 331.336 272.71C333.605 272.216 335.844 273.649 336.337 275.912C336.83 278.174 335.705 281.849 333.436 282.343C331.167 282.838 327.695 280.165 327.202 277.903Z" fill="#6A90D5" fill-opacity="0.43"/>
<path fill-rule="evenodd" clip-rule="evenodd" d="M308.287 282.025C307.794 279.763 310.172 277.323 312.441 276.829C314.71 276.334 316.948 277.768 317.441 280.03C317.935 282.292 316.81 285.967 314.541 286.462C312.272 286.956 308.78 284.288 308.287 282.025Z" fill="#6A90D5" fill-opacity="0.43"/>
<path fill-rule="evenodd" clip-rule="evenodd" d="M289.392 286.144C288.899 283.882 291.277 281.442 293.526 280.951C295.795 280.457 298.034 281.891 298.527 284.153C299.02 286.415 297.895 290.09 295.626 290.585C293.376 291.075 289.885 288.406 289.392 286.144Z" fill="#6A90D5" fill-opacity="0.43"/>
<path fill-rule="evenodd" clip-rule="evenodd" d="M270.497 290.262C270.004 288 272.362 285.565 274.631 285.07C276.9 284.575 279.138 286.009 279.632 288.271C280.125 290.534 279 294.209 276.731 294.703C274.462 295.198 270.99 292.525 270.497 290.262Z" fill="#6A90D5" fill-opacity="0.43"/>
<path fill-rule="evenodd" clip-rule="evenodd" d="M251.582 294.385C251.089 292.123 253.467 289.683 255.736 289.188C258.005 288.694 260.224 290.132 260.717 292.394C261.21 294.656 260.104 298.327 257.835 298.822C255.566 299.316 252.075 296.647 251.582 294.385Z" fill="#6A90D5" fill-opacity="0.43"/>
<path fill-rule="evenodd" clip-rule="evenodd" d="M213.772 302.626C213.279 300.364 215.657 297.924 217.926 297.43C220.195 296.935 222.433 298.369 222.926 300.631C223.42 302.893 222.295 306.568 220.026 307.063C217.757 307.557 214.265 304.889 213.772 302.626Z" fill="#6A90D5" fill-opacity="0.43"/>
<path fill-rule="evenodd" clip-rule="evenodd" d="M194.877 306.745C194.384 304.483 196.762 302.043 199.031 301.548C201.28 301.058 203.519 302.492 204.012 304.754C204.505 307.016 203.38 310.691 201.13 311.181C198.861 311.676 195.37 309.007 194.877 306.745Z" fill="#6A90D5" fill-opacity="0.43"/>
<path fill-rule="evenodd" clip-rule="evenodd" d="M175.982 310.863C175.489 308.601 177.847 306.166 180.116 305.671C182.385 305.176 184.623 306.61 185.117 308.872C185.61 311.135 184.485 314.809 182.216 315.304C179.947 315.799 176.475 313.126 175.982 310.863Z" fill="#6A90D5" fill-opacity="0.43"/>
<path fill-rule="evenodd" clip-rule="evenodd" d="M663.669 186.401C663.176 184.139 665.545 181.7 667.811 181.207C670.076 180.713 672.312 182.147 672.805 184.409C673.298 186.672 672.175 190.346 669.91 190.84C667.645 191.333 664.162 188.663 663.669 186.401Z" fill="#6A90D5" fill-opacity="0.43"/>
<path fill-rule="evenodd" clip-rule="evenodd" d="M644.764 190.521C644.271 188.259 646.641 185.821 648.906 185.327C651.171 184.834 653.407 186.268 653.9 188.53C654.393 190.792 653.27 194.467 651.005 194.96C648.74 195.454 645.257 192.784 644.764 190.521Z" fill="#6A90D5" fill-opacity="0.43"/>
<path fill-rule="evenodd" clip-rule="evenodd" d="M625.863 194.641C625.37 192.379 627.739 189.941 630.005 189.447C632.27 188.953 634.506 190.387 634.999 192.65C635.492 194.912 634.369 198.586 632.104 199.08C629.839 199.574 626.356 196.903 625.863 194.641Z" fill="#6A90D5" fill-opacity="0.43"/>
<path fill-rule="evenodd" clip-rule="evenodd" d="M606.96 198.761C606.467 196.499 608.836 194.061 611.102 193.567C613.367 193.074 615.603 194.508 616.096 196.77C616.589 199.032 615.466 202.707 613.201 203.2C610.936 203.694 607.453 201.024 606.96 198.761Z" fill="#6A90D5" fill-opacity="0.43"/>
<path fill-rule="evenodd" clip-rule="evenodd" d="M588.057 202.882C587.564 200.619 589.933 198.181 592.199 197.687C594.464 197.194 596.7 198.628 597.193 200.89C597.686 203.152 596.563 206.827 594.298 207.321C592.033 207.814 588.55 205.144 588.057 202.882Z" fill="#6A90D5" fill-opacity="0.43"/>
<path fill-rule="evenodd" clip-rule="evenodd" d="M569.158 207.001C568.664 204.739 571.023 202.303 573.296 201.808C575.561 201.314 577.797 202.748 578.29 205.01C578.783 207.273 577.66 210.947 575.395 211.441C573.122 211.936 569.651 209.263 569.158 207.001Z" fill="#6A90D5" fill-opacity="0.43"/>
<path fill-rule="evenodd" clip-rule="evenodd" d="M550.243 211.124C549.75 208.861 552.128 206.422 554.397 205.927C556.666 205.432 558.884 206.87 559.378 209.133C559.871 211.395 558.765 215.066 556.496 215.56C554.227 216.055 550.736 213.386 550.243 211.124Z" fill="#6A90D5" fill-opacity="0.43"/>
<path fill-rule="evenodd" clip-rule="evenodd" d="M531.348 215.242C530.855 212.98 533.232 210.54 535.501 210.045C537.751 209.555 539.989 210.989 540.482 213.251C540.975 215.513 539.85 219.188 537.601 219.679C535.332 220.173 531.841 217.504 531.348 215.242Z" fill="#6A90D5" fill-opacity="0.43"/>
<path fill-rule="evenodd" clip-rule="evenodd" d="M512.453 219.361C511.959 217.098 514.318 214.663 516.587 214.168C518.856 213.674 521.094 215.107 521.587 217.37C522.08 219.632 520.955 223.307 518.686 223.801C516.417 224.296 512.946 221.623 512.453 219.361Z" fill="#6A90D5" fill-opacity="0.43"/>
<path fill-rule="evenodd" clip-rule="evenodd" d="M493.538 223.483C493.045 221.221 495.422 218.781 497.691 218.287C499.96 217.792 502.179 219.23 502.672 221.492C503.165 223.755 502.06 227.425 499.791 227.92C497.522 228.414 494.031 225.746 493.538 223.483Z" fill="#6A90D5" fill-opacity="0.43"/>
<path fill-rule="evenodd" clip-rule="evenodd" d="M489.603 205.432C489.11 203.17 491.488 200.73 493.757 200.236C496.026 199.741 498.245 201.179 498.738 203.441C499.231 205.704 498.125 209.374 495.857 209.869C493.588 210.363 490.096 207.695 489.603 205.432Z" fill="#6A90D5" fill-opacity="0.43"/>
<path fill-rule="evenodd" clip-rule="evenodd" d="M474.643 227.602C474.15 225.34 476.527 222.9 478.777 222.41C481.046 221.915 483.284 223.349 483.777 225.611C484.27 227.873 483.145 231.548 480.876 232.043C478.627 232.533 475.136 229.864 474.643 227.602Z" fill="#6A90D5" fill-opacity="0.43"/>
<path fill-rule="evenodd" clip-rule="evenodd" d="M455.747 231.72C455.254 229.458 457.613 227.023 459.881 226.528C462.15 226.033 464.389 227.467 464.882 229.729C465.375 231.992 464.25 235.667 461.981 236.161C459.712 236.656 456.241 233.983 455.747 231.72Z" fill="#6A90D5" fill-opacity="0.43"/>
<path fill-rule="evenodd" clip-rule="evenodd" d="M436.833 235.843C436.339 233.581 438.717 231.141 440.986 230.646C443.236 230.156 445.474 231.59 445.967 233.852C446.46 236.114 445.335 239.789 443.086 240.28C440.817 240.774 437.326 238.105 436.833 235.843Z" fill="#6A90D5" fill-opacity="0.43"/>
<path fill-rule="evenodd" clip-rule="evenodd" d="M417.937 239.962C417.444 237.699 419.802 235.264 422.071 234.769C424.34 234.275 426.579 235.708 427.072 237.971C427.565 240.233 426.44 243.908 424.171 244.402C421.902 244.897 418.431 242.224 417.937 239.962Z" fill="#6A90D5" fill-opacity="0.43"/>
<path fill-rule="evenodd" clip-rule="evenodd" d="M399.023 244.084C398.53 241.822 400.907 239.382 403.176 238.888C405.445 238.393 407.664 239.831 408.157 242.093C408.651 244.356 407.545 248.026 405.276 248.521C403.007 249.015 399.516 246.347 399.023 244.084Z" fill="#6A90D5" fill-opacity="0.43"/>
<path fill-rule="evenodd" clip-rule="evenodd" d="M380.128 248.203C379.634 245.941 382.012 243.501 384.262 243.011C386.531 242.516 388.769 243.95 389.262 246.212C389.755 248.474 388.63 252.149 386.361 252.644C384.112 253.134 380.621 250.465 380.128 248.203Z" fill="#6A90D5" fill-opacity="0.43"/>
<path fill-rule="evenodd" clip-rule="evenodd" d="M361.232 252.321C360.739 250.059 363.098 247.624 365.367 247.129C367.635 246.634 369.874 248.068 370.367 250.33C370.86 252.593 369.735 256.268 367.466 256.762C365.197 257.257 361.726 254.584 361.232 252.321Z" fill="#6A90D5" fill-opacity="0.43"/>
<path fill-rule="evenodd" clip-rule="evenodd" d="M342.318 256.444C341.825 254.182 344.202 251.742 346.471 251.247C348.721 250.757 350.959 252.191 351.452 254.453C351.945 256.715 350.82 260.39 348.571 260.881C346.302 261.375 342.811 258.706 342.318 256.444Z" fill="#6A90D5" fill-opacity="0.43"/>
<path fill-rule="evenodd" clip-rule="evenodd" d="M323.422 260.563C322.929 258.3 325.288 255.865 327.557 255.37C329.826 254.876 332.064 256.309 332.557 258.572C333.05 260.834 331.925 264.509 329.656 265.003C327.387 265.498 323.916 262.825 323.422 260.563Z" fill="#6A90D5" fill-opacity="0.43"/>
<path fill-rule="evenodd" clip-rule="evenodd" d="M304.508 264.685C304.015 262.423 306.392 259.983 308.661 259.489C310.93 258.994 313.169 260.428 313.662 262.69C314.155 264.952 313.03 268.627 310.761 269.122C308.492 269.616 305.001 266.948 304.508 264.685Z" fill="#6A90D5" fill-opacity="0.43"/>
<path fill-rule="evenodd" clip-rule="evenodd" d="M285.613 268.804C285.12 266.542 287.497 264.102 289.747 263.611C292.016 263.117 294.254 264.551 294.747 266.813C295.24 269.075 294.115 272.75 291.846 273.245C289.597 273.735 286.106 271.066 285.613 268.804Z" fill="#6A90D5" fill-opacity="0.43"/>
<path fill-rule="evenodd" clip-rule="evenodd" d="M266.717 272.922C266.224 270.66 268.582 268.225 270.851 267.73C273.12 267.235 275.359 268.669 275.852 270.931C276.345 273.194 275.22 276.869 272.951 277.363C270.682 277.858 267.21 275.185 266.717 272.922Z" fill="#6A90D5" fill-opacity="0.43"/>
<path fill-rule="evenodd" clip-rule="evenodd" d="M247.803 277.045C247.31 274.783 249.687 272.343 251.956 271.848C254.225 271.354 256.444 272.792 256.937 275.054C257.43 277.316 256.325 280.987 254.056 281.482C251.787 281.976 248.296 279.307 247.803 277.045Z" fill="#6A90D5" fill-opacity="0.43"/>
<path fill-rule="evenodd" clip-rule="evenodd" d="M228.908 281.164C228.414 278.901 230.792 276.462 233.042 275.971C235.311 275.477 237.549 276.91 238.042 279.173C238.535 281.435 237.41 285.11 235.141 285.604C232.892 286.095 229.401 283.426 228.908 281.164Z" fill="#6A90D5" fill-opacity="0.43"/>
<path fill-rule="evenodd" clip-rule="evenodd" d="M191.098 289.405C190.604 287.143 192.982 284.703 195.251 284.208C197.501 283.718 199.739 285.152 200.232 287.414C200.725 289.676 199.6 293.351 197.351 293.841C195.082 294.336 191.591 291.667 191.098 289.405Z" fill="#6A90D5" fill-opacity="0.43"/>
<path fill-rule="evenodd" clip-rule="evenodd" d="M172.203 293.523C171.709 291.261 174.068 288.826 176.337 288.331C178.606 287.836 180.844 289.27 181.337 291.532C181.83 293.795 180.705 297.47 178.436 297.964C176.167 298.459 172.696 295.786 172.203 293.523Z" fill="#6A90D5" fill-opacity="0.43"/>
<path fill-rule="evenodd" clip-rule="evenodd" d="M659.889 169.061C659.396 166.799 661.766 164.36 664.031 163.867C666.296 163.373 668.533 164.807 669.026 167.069C669.519 169.332 668.396 173.006 666.131 173.5C663.866 173.994 660.382 171.323 659.889 169.061Z" fill="#6A90D5" fill-opacity="0.43"/>
<path fill-rule="evenodd" clip-rule="evenodd" d="M640.984 173.181C640.491 170.919 642.861 168.481 645.126 167.987C647.391 167.494 649.628 168.928 650.121 171.19C650.614 173.452 649.491 177.127 647.226 177.62C644.961 178.114 641.477 175.444 640.984 173.181Z" fill="#6A90D5" fill-opacity="0.43"/>
<path fill-rule="evenodd" clip-rule="evenodd" d="M622.083 177.301C621.59 175.039 623.96 172.601 626.225 172.107C628.49 171.613 630.727 173.047 631.22 175.31C631.713 177.572 630.59 181.246 628.325 181.74C626.06 182.234 622.576 179.563 622.083 177.301Z" fill="#6A90D5" fill-opacity="0.43"/>
<path fill-rule="evenodd" clip-rule="evenodd" d="M603.18 181.421C602.687 179.159 605.057 176.721 607.322 176.227C609.587 175.734 611.824 177.168 612.317 179.43C612.81 181.692 611.687 185.367 609.422 185.86C607.157 186.354 603.673 183.684 603.18 181.421Z" fill="#6A90D5" fill-opacity="0.43"/>
<path fill-rule="evenodd" clip-rule="evenodd" d="M584.277 185.542C583.784 183.279 586.154 180.841 588.419 180.347C590.684 179.854 592.921 181.288 593.414 183.55C593.907 185.812 592.784 189.487 590.519 189.981C588.254 190.474 584.77 187.804 584.277 185.542Z" fill="#6A90D5" fill-opacity="0.43"/>
<path fill-rule="evenodd" clip-rule="evenodd" d="M565.378 189.661C564.885 187.399 567.243 184.963 569.516 184.468C571.781 183.974 574.018 185.408 574.511 187.67C575.004 189.933 573.881 193.607 571.616 194.101C569.343 194.596 565.871 191.923 565.378 189.661Z" fill="#6A90D5" fill-opacity="0.43"/>
<path fill-rule="evenodd" clip-rule="evenodd" d="M546.463 193.784C545.97 191.521 548.348 189.082 550.617 188.587C552.886 188.092 555.105 189.53 555.598 191.793C556.091 194.055 554.986 197.726 552.717 198.22C550.448 198.715 546.956 196.046 546.463 193.784Z" fill="#6A90D5" fill-opacity="0.43"/>
<path fill-rule="evenodd" clip-rule="evenodd" d="M527.568 197.902C527.075 195.64 529.453 193.2 531.722 192.706C533.971 192.215 536.21 193.649 536.703 195.911C537.196 198.173 536.071 201.848 533.822 202.339C531.553 202.833 528.061 200.164 527.568 197.902Z" fill="#6A90D5" fill-opacity="0.43"/>
<path fill-rule="evenodd" clip-rule="evenodd" d="M470.863 210.262C470.37 208 472.748 205.56 474.997 205.07C477.266 204.575 479.505 206.009 479.998 208.271C480.491 210.533 479.366 214.208 477.097 214.703C474.847 215.193 471.356 212.524 470.863 210.262Z" fill="#6A90D5" fill-opacity="0.43"/>
<path fill-rule="evenodd" clip-rule="evenodd" d="M433.053 218.503C432.56 216.241 434.938 213.801 437.207 213.307C439.456 212.816 441.695 214.25 442.188 216.512C442.681 218.774 441.556 222.449 439.306 222.94C437.037 223.434 433.546 220.765 433.053 218.503Z" fill="#6A90D5" fill-opacity="0.43"/>
<path fill-rule="evenodd" clip-rule="evenodd" d="M414.158 222.622C413.665 220.359 416.023 217.924 418.292 217.429C420.561 216.935 422.799 218.368 423.293 220.631C423.786 222.893 422.661 226.568 420.392 227.062C418.123 227.557 414.651 224.884 414.158 222.622Z" fill="#6A90D5" fill-opacity="0.43"/>
<path fill-rule="evenodd" clip-rule="evenodd" d="M357.453 234.981C356.96 232.719 359.318 230.284 361.587 229.789C363.856 229.294 366.094 230.728 366.588 232.99C367.081 235.253 365.956 238.928 363.687 239.422C361.418 239.917 357.946 237.244 357.453 234.981Z" fill="#6A90D5" fill-opacity="0.43"/>
<path fill-rule="evenodd" clip-rule="evenodd" d="M338.538 239.104C338.045 236.842 340.423 234.402 342.692 233.907C344.941 233.417 347.18 234.851 347.673 237.113C348.166 239.375 347.041 243.05 344.792 243.541C342.523 244.035 339.031 241.366 338.538 239.104Z" fill="#6A90D5" fill-opacity="0.43"/>
<path fill-rule="evenodd" clip-rule="evenodd" d="M319.643 243.223C319.15 240.96 321.508 238.525 323.777 238.03C326.046 237.536 328.285 238.969 328.778 241.232C329.271 243.494 328.146 247.169 325.877 247.663C323.608 248.158 320.136 245.485 319.643 243.223Z" fill="#6A90D5" fill-opacity="0.43"/>
<path fill-rule="evenodd" clip-rule="evenodd" d="M300.728 247.345C300.235 245.083 302.613 242.643 304.882 242.149C307.151 241.654 309.389 243.088 309.882 245.35C310.376 247.612 309.25 251.287 306.981 251.782C304.713 252.276 301.221 249.608 300.728 247.345Z" fill="#6A90D5" fill-opacity="0.43"/>
<path fill-rule="evenodd" clip-rule="evenodd" d="M281.833 251.464C281.34 249.202 283.718 246.762 285.967 246.271C288.236 245.777 290.475 247.211 290.968 249.473C291.461 251.735 290.336 255.41 288.067 255.905C285.817 256.395 282.326 253.726 281.833 251.464Z" fill="#6A90D5" fill-opacity="0.43"/>
<path fill-rule="evenodd" clip-rule="evenodd" d="M262.938 255.582C262.445 253.32 264.803 250.885 267.072 250.39C269.341 249.895 271.579 251.329 272.073 253.591C272.566 255.854 271.441 259.529 269.172 260.023C266.903 260.518 263.431 257.845 262.938 255.582Z" fill="#6A90D5" fill-opacity="0.43"/>
<path fill-rule="evenodd" clip-rule="evenodd" d="M244.023 259.705C243.53 257.443 245.908 255.003 248.177 254.508C250.446 254.014 252.665 255.452 253.158 257.714C253.651 259.976 252.546 263.647 250.277 264.142C248.008 264.636 244.516 261.967 244.023 259.705Z" fill="#6A90D5" fill-opacity="0.43"/>
<path fill-rule="evenodd" clip-rule="evenodd" d="M225.128 263.824C224.635 261.561 227.013 259.122 229.262 258.631C231.531 258.137 233.77 259.57 234.263 261.833C234.756 264.095 233.631 267.77 231.362 268.264C229.112 268.755 225.621 266.086 225.128 263.824Z" fill="#6A90D5" fill-opacity="0.43"/>
<path fill-rule="evenodd" clip-rule="evenodd" d="M206.213 267.946C205.72 265.684 208.098 263.244 210.367 262.75C212.636 262.255 214.874 263.689 215.368 265.951C215.861 268.213 214.736 271.888 212.467 272.383C210.198 272.877 206.706 270.209 206.213 267.946Z" fill="#6A90D5" fill-opacity="0.43"/>
<path fill-rule="evenodd" clip-rule="evenodd" d="M187.318 272.065C186.825 269.803 189.203 267.363 191.472 266.868C193.721 266.378 195.96 267.812 196.453 270.074C196.946 272.336 195.821 276.011 193.571 276.501C191.302 276.996 187.811 274.327 187.318 272.065Z" fill="#6A90D5" fill-opacity="0.43"/>
<path fill-rule="evenodd" clip-rule="evenodd" d="M168.423 276.183C167.93 273.921 170.288 271.486 172.557 270.991C174.826 270.496 177.064 271.93 177.558 274.192C178.051 276.455 176.926 280.13 174.657 280.624C172.388 281.119 168.916 278.446 168.423 276.183Z" fill="#6A90D5" fill-opacity="0.43"/>
<path fill-rule="evenodd" clip-rule="evenodd" d="M656.11 151.721C655.617 149.459 657.986 147.02 660.252 146.527C662.517 146.033 664.753 147.467 665.246 149.729C665.739 151.992 664.616 155.666 662.351 156.16C660.086 156.654 656.603 153.983 656.11 151.721Z" fill="#6A90D5" fill-opacity="0.43"/>
<path fill-rule="evenodd" clip-rule="evenodd" d="M637.205 155.841C636.712 153.579 639.081 151.141 641.347 150.647C643.612 150.154 645.848 151.588 646.341 153.85C646.834 156.112 645.711 159.787 643.446 160.28C641.181 160.774 637.698 158.104 637.205 155.841Z" fill="#6A90D5" fill-opacity="0.43"/>
<path fill-rule="evenodd" clip-rule="evenodd" d="M618.304 159.961C617.811 157.699 620.18 155.261 622.446 154.767C624.711 154.273 626.947 155.707 627.44 157.97C627.933 160.232 626.81 163.907 624.545 164.4C622.28 164.894 618.797 162.223 618.304 159.961Z" fill="#6A90D5" fill-opacity="0.43"/>
<path fill-rule="evenodd" clip-rule="evenodd" d="M599.401 164.081C598.908 161.819 601.277 159.381 603.543 158.887C605.808 158.394 608.044 159.828 608.537 162.09C609.03 164.352 607.907 168.027 605.642 168.52C603.377 169.014 599.894 166.344 599.401 164.081Z" fill="#6A90D5" fill-opacity="0.43"/>
<path fill-rule="evenodd" clip-rule="evenodd" d="M580.498 168.202C580.005 165.939 582.374 163.501 584.64 163.007C586.905 162.514 589.141 163.948 589.634 166.21C590.127 168.472 589.004 172.147 586.739 172.641C584.474 173.134 580.991 170.464 580.498 168.202Z" fill="#6A90D5" fill-opacity="0.43"/>
<path fill-rule="evenodd" clip-rule="evenodd" d="M561.599 172.321C561.106 170.059 563.464 167.623 565.737 167.128C568.002 166.634 570.238 168.068 570.731 170.33C571.224 172.593 570.101 176.267 567.836 176.761C565.563 177.256 562.092 174.583 561.599 172.321Z" fill="#6A90D5" fill-opacity="0.43"/>
<path fill-rule="evenodd" clip-rule="evenodd" d="M542.684 176.444C542.191 174.181 544.568 171.742 546.837 171.247C549.106 170.752 551.325 172.19 551.818 174.453C552.311 176.715 551.206 180.386 548.937 180.88C546.668 181.375 543.177 178.706 542.684 176.444Z" fill="#6A90D5" fill-opacity="0.43"/>
<path fill-rule="evenodd" clip-rule="evenodd" d="M504.893 184.681C504.4 182.418 506.759 179.983 509.028 179.488C511.297 178.994 513.535 180.427 514.028 182.69C514.521 184.952 513.396 188.627 511.127 189.121C508.858 189.616 505.387 186.943 504.893 184.681Z" fill="#6A90D5" fill-opacity="0.43"/>
<path fill-rule="evenodd" clip-rule="evenodd" d="M467.084 192.922C466.59 190.66 468.968 188.22 471.218 187.73C473.487 187.235 475.725 188.669 476.218 190.931C476.711 193.193 475.586 196.868 473.317 197.363C471.068 197.853 467.577 195.184 467.084 192.922Z" fill="#6A90D5" fill-opacity="0.43"/>
<path fill-rule="evenodd" clip-rule="evenodd" d="M448.188 197.04C447.695 194.778 450.053 192.343 452.322 191.848C454.591 191.353 456.83 192.787 457.323 195.049C457.816 197.312 456.691 200.987 454.422 201.481C452.153 201.976 448.681 199.303 448.188 197.04Z" fill="#6A90D5" fill-opacity="0.43"/>
<path fill-rule="evenodd" clip-rule="evenodd" d="M429.274 201.163C428.781 198.901 431.158 196.461 433.427 195.967C435.677 195.476 437.915 196.91 438.408 199.172C438.901 201.434 437.776 205.109 435.527 205.6C433.258 206.094 429.767 203.425 429.274 201.163Z" fill="#6A90D5" fill-opacity="0.43"/>
<path fill-rule="evenodd" clip-rule="evenodd" d="M410.378 205.282C409.885 203.019 412.243 200.584 414.512 200.089C416.781 199.595 419.02 201.028 419.513 203.291C420.006 205.553 418.881 209.228 416.612 209.722C414.343 210.217 410.872 207.544 410.378 205.282Z" fill="#6A90D5" fill-opacity="0.43"/>
<path fill-rule="evenodd" clip-rule="evenodd" d="M391.464 209.404C390.971 207.142 393.348 204.702 395.617 204.208C397.886 203.713 400.105 205.151 400.598 207.413C401.091 209.676 399.986 213.346 397.717 213.841C395.448 214.335 391.957 211.667 391.464 209.404Z" fill="#6A90D5" fill-opacity="0.43"/>
<path fill-rule="evenodd" clip-rule="evenodd" d="M372.569 213.523C372.076 211.261 374.453 208.821 376.703 208.331C378.972 207.836 381.21 209.27 381.703 211.532C382.196 213.794 381.071 217.469 378.802 217.964C376.553 218.454 373.062 215.785 372.569 213.523Z" fill="#6A90D5" fill-opacity="0.43"/>
<path fill-rule="evenodd" clip-rule="evenodd" d="M353.673 217.641C353.18 215.379 355.538 212.944 357.807 212.449C360.076 211.954 362.315 213.388 362.808 215.65C363.301 217.913 362.176 221.588 359.907 222.082C357.638 222.577 354.166 219.904 353.673 217.641Z" fill="#6A90D5" fill-opacity="0.43"/>
<path fill-rule="evenodd" clip-rule="evenodd" d="M296.949 230.005C296.456 227.743 298.833 225.303 301.102 224.809C303.371 224.314 305.61 225.748 306.103 228.01C306.596 230.272 305.471 233.947 303.202 234.442C300.933 234.936 297.442 232.268 296.949 230.005Z" fill="#6A90D5" fill-opacity="0.43"/>
<path fill-rule="evenodd" clip-rule="evenodd" d="M278.054 234.124C277.561 231.862 279.938 229.422 282.188 228.932C284.457 228.437 286.695 229.871 287.188 232.133C287.681 234.395 286.556 238.07 284.287 238.565C282.038 239.055 278.547 236.386 278.054 234.124Z" fill="#6A90D5" fill-opacity="0.43"/>
<path fill-rule="evenodd" clip-rule="evenodd" d="M259.158 238.242C258.665 235.98 261.023 233.545 263.292 233.05C265.561 232.555 267.8 233.989 268.293 236.251C268.786 238.514 267.661 242.189 265.392 242.683C263.123 243.178 259.651 240.505 259.158 238.242Z" fill="#6A90D5" fill-opacity="0.43"/>
<path fill-rule="evenodd" clip-rule="evenodd" d="M240.244 242.365C239.751 240.103 242.128 237.663 244.397 237.169C246.666 236.674 248.885 238.112 249.378 240.374C249.871 242.636 248.766 246.307 246.497 246.802C244.228 247.296 240.737 244.627 240.244 242.365Z" fill="#6A90D5" fill-opacity="0.43"/>
<path fill-rule="evenodd" clip-rule="evenodd" d="M221.348 246.484C220.855 244.221 223.233 241.782 225.482 241.291C227.751 240.797 229.99 242.23 230.483 244.493C230.976 246.755 229.851 250.43 227.582 250.924C225.333 251.415 221.842 248.746 221.348 246.484Z" fill="#6A90D5" fill-opacity="0.43"/>
<path fill-rule="evenodd" clip-rule="evenodd" d="M202.434 250.606C201.941 248.344 204.318 245.904 206.587 245.41C208.856 244.915 211.095 246.349 211.588 248.611C212.081 250.873 210.956 254.548 208.687 255.043C206.418 255.537 202.927 252.869 202.434 250.606Z" fill="#6A90D5" fill-opacity="0.43"/>
<path fill-rule="evenodd" clip-rule="evenodd" d="M183.539 254.725C183.045 252.463 185.423 250.023 187.692 249.528C189.942 249.038 192.18 250.472 192.673 252.734C193.166 254.996 192.041 258.671 189.792 259.161C187.523 259.656 184.032 256.987 183.539 254.725Z" fill="#6A90D5" fill-opacity="0.43"/>
<path fill-rule="evenodd" clip-rule="evenodd" d="M164.643 258.843C164.15 256.581 166.508 254.146 168.777 253.651C171.046 253.156 173.285 254.59 173.778 256.852C174.271 259.115 173.146 262.79 170.877 263.284C168.608 263.779 165.136 261.106 164.643 258.843Z" fill="#6A90D5" fill-opacity="0.43"/>
<path fill-rule="evenodd" clip-rule="evenodd" d="M652.331 134.383C651.837 132.121 654.207 129.682 656.472 129.189C658.738 128.695 660.974 130.129 661.467 132.391C661.96 134.654 660.837 138.328 658.572 138.822C656.307 139.316 652.824 136.645 652.331 134.383Z" fill="#6A90D5" fill-opacity="0.43"/>
<path fill-rule="evenodd" clip-rule="evenodd" d="M633.426 138.503C632.932 136.241 635.302 133.803 637.567 133.309C639.833 132.816 642.069 134.25 642.562 136.512C643.055 138.774 641.932 142.449 639.667 142.942C637.402 143.436 633.919 140.766 633.426 138.503Z" fill="#6A90D5" fill-opacity="0.43"/>
<path fill-rule="evenodd" clip-rule="evenodd" d="M614.525 142.623C614.031 140.361 616.401 137.923 618.666 137.429C620.931 136.935 623.168 138.369 623.661 140.632C624.154 142.894 623.031 146.568 620.766 147.062C618.501 147.556 615.018 144.885 614.525 142.623Z" fill="#6A90D5" fill-opacity="0.43"/>
<path fill-rule="evenodd" clip-rule="evenodd" d="M595.622 146.743C595.129 144.481 597.498 142.043 599.764 141.549C602.029 141.056 604.265 142.49 604.758 144.752C605.251 147.014 604.128 150.689 601.863 151.182C599.598 151.676 596.115 149.006 595.622 146.743Z" fill="#6A90D5" fill-opacity="0.43"/>
<path fill-rule="evenodd" clip-rule="evenodd" d="M576.719 150.864C576.225 148.601 578.595 146.163 580.86 145.669C583.125 145.176 585.362 146.61 585.855 148.872C586.348 151.134 585.225 154.809 582.96 155.303C580.695 155.796 577.212 153.126 576.719 150.864Z" fill="#6A90D5" fill-opacity="0.43"/>
<path fill-rule="evenodd" clip-rule="evenodd" d="M557.819 154.983C557.326 152.721 559.685 150.285 561.957 149.79C564.222 149.296 566.459 150.73 566.952 152.992C567.445 155.255 566.322 158.929 564.057 159.423C561.784 159.918 558.313 157.245 557.819 154.983Z" fill="#6A90D5" fill-opacity="0.43"/>
<path fill-rule="evenodd" clip-rule="evenodd" d="M520.01 163.224C519.517 160.962 521.894 158.522 524.163 158.028C526.413 157.537 528.651 158.971 529.144 161.233C529.637 163.495 528.512 167.17 526.263 167.661C523.994 168.155 520.503 165.486 520.01 163.224Z" fill="#6A90D5" fill-opacity="0.43"/>
<path fill-rule="evenodd" clip-rule="evenodd" d="M501.114 167.343C500.621 165.08 502.979 162.645 505.248 162.15C507.517 161.656 509.756 163.089 510.249 165.352C510.742 167.614 509.617 171.289 507.348 171.783C505.079 172.278 501.607 169.605 501.114 167.343Z" fill="#6A90D5" fill-opacity="0.43"/>
<path fill-rule="evenodd" clip-rule="evenodd" d="M482.2 171.465C481.707 169.203 484.084 166.763 486.353 166.269C488.622 165.774 490.841 167.212 491.334 169.474C491.827 171.737 490.722 175.407 488.453 175.902C486.184 176.396 482.693 173.728 482.2 171.465Z" fill="#6A90D5" fill-opacity="0.43"/>
<path fill-rule="evenodd" clip-rule="evenodd" d="M463.304 175.584C462.811 173.322 465.189 170.882 467.439 170.392C469.708 169.897 471.946 171.331 472.439 173.593C472.932 175.855 471.807 179.53 469.538 180.025C467.289 180.515 463.798 177.846 463.304 175.584Z" fill="#6A90D5" fill-opacity="0.43"/>
<path fill-rule="evenodd" clip-rule="evenodd" d="M444.409 179.702C443.916 177.44 446.274 175.005 448.543 174.51C450.812 174.015 453.051 175.449 453.544 177.711C454.037 179.974 452.912 183.649 450.643 184.143C448.374 184.638 444.902 181.965 444.409 179.702Z" fill="#6A90D5" fill-opacity="0.43"/>
<path fill-rule="evenodd" clip-rule="evenodd" d="M425.495 183.825C425.001 181.563 427.379 179.123 429.648 178.629C431.898 178.138 434.136 179.572 434.629 181.834C435.122 184.096 433.997 187.771 431.748 188.262C429.479 188.756 425.988 186.087 425.495 183.825Z" fill="#6A90D5" fill-opacity="0.43"/>
<path fill-rule="evenodd" clip-rule="evenodd" d="M406.599 187.944C406.106 185.681 408.464 183.246 410.733 182.751C413.002 182.257 415.241 183.69 415.734 185.953C416.227 188.215 415.102 191.89 412.833 192.384C410.564 192.879 407.093 190.206 406.599 187.944Z" fill="#6A90D5" fill-opacity="0.43"/>
<path fill-rule="evenodd" clip-rule="evenodd" d="M387.685 192.066C387.192 189.804 389.569 187.364 391.838 186.87C394.107 186.375 396.326 187.813 396.819 190.075C397.312 192.338 396.207 196.008 393.938 196.503C391.669 196.997 388.178 194.329 387.685 192.066Z" fill="#6A90D5" fill-opacity="0.43"/>
<path fill-rule="evenodd" clip-rule="evenodd" d="M368.789 196.185C368.296 193.923 370.674 191.483 372.924 190.993C375.193 190.498 377.431 191.932 377.924 194.194C378.417 196.456 377.292 200.131 375.023 200.626C372.774 201.116 369.283 198.447 368.789 196.185Z" fill="#6A90D5" fill-opacity="0.43"/>
<path fill-rule="evenodd" clip-rule="evenodd" d="M349.894 200.303C349.401 198.041 351.759 195.606 354.028 195.111C356.297 194.616 358.536 196.05 359.029 198.312C359.522 200.575 358.397 204.25 356.128 204.744C353.859 205.239 350.387 202.566 349.894 200.303Z" fill="#6A90D5" fill-opacity="0.43"/>
<path fill-rule="evenodd" clip-rule="evenodd" d="M330.98 204.426C330.486 202.164 332.864 199.724 335.133 199.23C337.383 198.739 339.621 200.173 340.114 202.435C340.607 204.697 339.482 208.372 337.233 208.863C334.964 209.357 331.473 206.688 330.98 204.426Z" fill="#6A90D5" fill-opacity="0.43"/>
<path fill-rule="evenodd" clip-rule="evenodd" d="M312.084 208.545C311.591 206.282 313.949 203.847 316.218 203.352C318.487 202.858 320.726 204.291 321.219 206.554C321.712 208.816 320.587 212.491 318.318 212.985C316.049 213.48 312.577 210.807 312.084 208.545Z" fill="#6A90D5" fill-opacity="0.43"/>
<path fill-rule="evenodd" clip-rule="evenodd" d="M274.274 216.786C273.781 214.524 276.159 212.084 278.408 211.593C280.677 211.099 282.916 212.533 283.409 214.795C283.902 217.057 282.777 220.732 280.508 221.227C278.259 221.717 274.768 219.048 274.274 216.786Z" fill="#6A90D5" fill-opacity="0.43"/>
<path fill-rule="evenodd" clip-rule="evenodd" d="M255.379 220.904C254.886 218.642 257.244 216.207 259.513 215.712C261.782 215.217 264.021 216.651 264.514 218.913C265.007 221.176 263.882 224.851 261.613 225.345C259.344 225.84 255.872 223.167 255.379 220.904Z" fill="#6A90D5" fill-opacity="0.43"/>
<path fill-rule="evenodd" clip-rule="evenodd" d="M236.465 225.027C235.971 222.765 238.349 220.325 240.618 219.83C242.887 219.336 245.106 220.774 245.599 223.036C246.092 225.298 244.987 228.969 242.718 229.464C240.449 229.958 236.958 227.289 236.465 225.027Z" fill="#6A90D5" fill-opacity="0.43"/>
<path fill-rule="evenodd" clip-rule="evenodd" d="M217.57 229.146C217.076 226.883 219.454 224.444 221.704 223.953C223.973 223.459 226.211 224.892 226.704 227.155C227.197 229.417 226.072 233.092 223.803 233.586C221.554 234.077 218.063 231.408 217.57 229.146Z" fill="#6A90D5" fill-opacity="0.43"/>
<path fill-rule="evenodd" clip-rule="evenodd" d="M198.655 233.268C198.162 231.006 200.539 228.566 202.808 228.072C205.077 227.577 207.316 229.011 207.809 231.273C208.302 233.535 207.177 237.21 204.908 237.705C202.639 238.199 199.148 235.531 198.655 233.268Z" fill="#6A90D5" fill-opacity="0.43"/>
<path fill-rule="evenodd" clip-rule="evenodd" d="M179.759 237.387C179.266 235.125 181.644 232.685 183.913 232.19C186.162 231.7 188.401 233.134 188.894 235.396C189.387 237.658 188.262 241.333 186.013 241.823C183.744 242.318 180.253 239.649 179.759 237.387Z" fill="#6A90D5" fill-opacity="0.43"/>
<path fill-rule="evenodd" clip-rule="evenodd" d="M648.551 117.041C648.058 114.779 650.427 112.34 652.692 111.847C654.958 111.353 657.194 112.787 657.687 115.049C658.18 117.312 657.057 120.986 654.792 121.48C652.527 121.974 649.044 119.303 648.551 117.041Z" fill="#6A90D5" fill-opacity="0.43"/>
<path fill-rule="evenodd" clip-rule="evenodd" d="M629.646 121.161C629.153 118.899 631.522 116.461 633.787 115.967C636.053 115.474 638.289 116.908 638.782 119.17C639.275 121.432 638.152 125.107 635.887 125.6C633.622 126.094 630.139 123.424 629.646 121.161Z" fill="#6A90D5" fill-opacity="0.43"/>
<path fill-rule="evenodd" clip-rule="evenodd" d="M610.745 125.281C610.252 123.019 612.621 120.581 614.886 120.087C617.152 119.593 619.388 121.028 619.881 123.29C620.374 125.552 619.251 129.227 616.986 129.72C614.721 130.214 611.238 127.544 610.745 125.281Z" fill="#6A90D5" fill-opacity="0.43"/>
<path fill-rule="evenodd" clip-rule="evenodd" d="M572.939 133.522C572.445 131.259 574.815 128.821 577.08 128.328C579.346 127.834 581.582 129.268 582.075 131.53C582.568 133.792 581.445 137.467 579.18 137.961C576.915 138.454 573.432 135.784 572.939 133.522Z" fill="#6A90D5" fill-opacity="0.43"/>
<path fill-rule="evenodd" clip-rule="evenodd" d="M554.04 137.641C553.546 135.379 555.905 132.943 558.178 132.448C560.443 131.954 562.679 133.388 563.172 135.65C563.665 137.913 562.542 141.587 560.277 142.081C558.004 142.576 554.533 139.903 554.04 137.641Z" fill="#6A90D5" fill-opacity="0.43"/>
<path fill-rule="evenodd" clip-rule="evenodd" d="M508.518 201.31C508.025 199.047 510.383 196.612 512.652 196.117C514.921 195.623 517.159 197.056 517.653 199.319C518.146 201.581 517.021 205.256 514.752 205.75C512.483 206.245 509.011 203.572 508.518 201.31Z" fill="#6A90D5" fill-opacity="0.43"/>
<path fill-rule="evenodd" clip-rule="evenodd" d="M523.634 179.851C523.141 177.589 525.518 175.149 527.787 174.654C530.037 174.164 532.275 175.598 532.768 177.86C533.261 180.122 532.136 183.797 529.887 184.288C527.618 184.782 524.127 182.113 523.634 179.851Z" fill="#6A90D5" fill-opacity="0.43"/>
<path fill-rule="evenodd" clip-rule="evenodd" d="M535.125 141.764C534.632 139.501 537.009 137.062 539.278 136.567C541.547 136.073 543.766 137.51 544.259 139.773C544.753 142.035 543.647 145.706 541.378 146.2C539.109 146.695 535.618 144.026 535.125 141.764Z" fill="#6A90D5" fill-opacity="0.43"/>
<path fill-rule="evenodd" clip-rule="evenodd" d="M516.23 145.882C515.737 143.62 518.114 141.18 520.383 140.686C522.633 140.195 524.871 141.629 525.364 143.891C525.857 146.153 524.732 149.828 522.483 150.319C520.214 150.813 516.723 148.144 516.23 145.882Z" fill="#6A90D5" fill-opacity="0.43"/>
<path fill-rule="evenodd" clip-rule="evenodd" d="M497.334 150.001C496.841 147.738 499.199 145.303 501.468 144.808C503.737 144.314 505.976 145.747 506.469 148.01C506.962 150.272 505.837 153.947 503.568 154.441C501.299 154.936 497.827 152.263 497.334 150.001Z" fill="#6A90D5" fill-opacity="0.43"/>
<path fill-rule="evenodd" clip-rule="evenodd" d="M478.42 154.123C477.927 151.861 480.304 149.421 482.573 148.927C484.842 148.432 487.061 149.87 487.554 152.132C488.047 154.395 486.942 158.065 484.673 158.56C482.404 159.055 478.913 156.386 478.42 154.123Z" fill="#6A90D5" fill-opacity="0.43"/>
<path fill-rule="evenodd" clip-rule="evenodd" d="M459.525 158.242C459.031 155.98 461.409 153.54 463.659 153.05C465.928 152.555 468.166 153.989 468.659 156.251C469.152 158.513 468.027 162.188 465.758 162.683C463.509 163.173 460.018 160.504 459.525 158.242Z" fill="#6A90D5" fill-opacity="0.43"/>
<path fill-rule="evenodd" clip-rule="evenodd" d="M440.629 162.36C440.136 160.098 442.494 157.663 444.763 157.168C447.032 156.674 449.271 158.107 449.764 160.369C450.257 162.632 449.132 166.307 446.863 166.801C444.594 167.296 441.122 164.623 440.629 162.36Z" fill="#6A90D5" fill-opacity="0.43"/>
<path fill-rule="evenodd" clip-rule="evenodd" d="M421.715 166.483C421.222 164.221 423.599 161.781 425.868 161.287C428.118 160.796 430.356 162.23 430.849 164.492C431.342 166.754 430.217 170.429 427.968 170.92C425.699 171.414 422.208 168.745 421.715 166.483Z" fill="#6A90D5" fill-opacity="0.43"/>
<path fill-rule="evenodd" clip-rule="evenodd" d="M402.819 170.602C402.326 168.339 404.684 165.904 406.953 165.409C409.222 164.915 411.461 166.348 411.954 168.611C412.447 170.873 411.322 174.548 409.053 175.042C406.784 175.537 403.312 172.864 402.819 170.602Z" fill="#6A90D5" fill-opacity="0.43"/>
<path fill-rule="evenodd" clip-rule="evenodd" d="M383.905 174.724C383.412 172.462 385.789 170.022 388.058 169.528C390.327 169.033 392.546 170.471 393.039 172.733C393.532 174.996 392.427 178.666 390.158 179.161C387.889 179.656 384.398 176.987 383.905 174.724Z" fill="#6A90D5" fill-opacity="0.43"/>
<path fill-rule="evenodd" clip-rule="evenodd" d="M365.009 178.843C364.516 176.581 366.894 174.141 369.143 173.651C371.412 173.156 373.651 174.59 374.144 176.852C374.637 179.114 373.512 182.789 371.243 183.284C368.994 183.774 365.503 181.105 365.009 178.843Z" fill="#6A90D5" fill-opacity="0.43"/>
<path fill-rule="evenodd" clip-rule="evenodd" d="M346.114 182.961C345.621 180.699 347.979 178.264 350.248 177.769C352.517 177.274 354.756 178.708 355.249 180.97C355.742 183.233 354.617 186.908 352.348 187.402C350.079 187.897 346.607 185.224 346.114 182.961Z" fill="#6A90D5" fill-opacity="0.43"/>
<path fill-rule="evenodd" clip-rule="evenodd" d="M327.2 187.084C326.707 184.822 329.084 182.382 331.353 181.888C333.603 181.397 335.841 182.831 336.334 185.093C336.827 187.355 335.702 191.03 333.453 191.521C331.184 192.015 327.693 189.346 327.2 187.084Z" fill="#6A90D5" fill-opacity="0.43"/>
<path fill-rule="evenodd" clip-rule="evenodd" d="M308.304 191.203C307.811 188.94 310.17 186.505 312.439 186.01C314.708 185.516 316.946 186.949 317.439 189.212C317.932 191.474 316.807 195.149 314.538 195.643C312.269 196.138 308.798 193.465 308.304 191.203Z" fill="#6A90D5" fill-opacity="0.43"/>
<path fill-rule="evenodd" clip-rule="evenodd" d="M289.39 195.325C288.897 193.063 291.274 190.623 293.543 190.129C295.812 189.634 298.051 191.068 298.544 193.33C299.037 195.592 297.912 199.267 295.643 199.762C293.374 200.256 289.883 197.588 289.39 195.325Z" fill="#6A90D5" fill-opacity="0.43"/>
<path fill-rule="evenodd" clip-rule="evenodd" d="M270.495 199.444C270.001 197.182 272.379 194.742 274.629 194.252C276.898 193.757 279.136 195.191 279.629 197.453C280.122 199.715 278.997 203.39 276.728 203.885C274.479 204.375 270.988 201.706 270.495 199.444Z" fill="#6A90D5" fill-opacity="0.43"/>
<path fill-rule="evenodd" clip-rule="evenodd" d="M232.685 207.685C232.191 205.423 234.569 202.983 236.838 202.489C239.107 201.994 241.326 203.432 241.819 205.694C242.312 207.956 241.207 211.627 238.938 212.122C236.669 212.616 233.178 209.947 232.685 207.685Z" fill="#6A90D5" fill-opacity="0.43"/>
<path fill-rule="evenodd" clip-rule="evenodd" d="M395.088 226.033C394.595 223.771 396.973 221.331 399.242 220.837C401.511 220.342 403.73 221.78 404.223 224.042C404.716 226.305 403.611 229.975 401.342 230.47C399.073 230.964 395.581 228.296 395.088 226.033Z" fill="#6A90D5" fill-opacity="0.43"/>
<path fill-rule="evenodd" clip-rule="evenodd" d="M376.193 230.152C375.7 227.89 378.078 225.45 380.327 224.959C382.596 224.465 384.835 225.899 385.328 228.161C385.821 230.423 384.696 234.098 382.427 234.593C380.177 235.083 376.686 232.414 376.193 230.152Z" fill="#6A90D5" fill-opacity="0.43"/>
<path fill-rule="evenodd" clip-rule="evenodd" d="M334.604 221.053C334.111 218.791 336.488 216.351 338.757 215.856C341.007 215.366 343.245 216.8 343.738 219.062C344.231 221.324 343.106 224.999 340.857 225.49C338.588 225.984 335.097 223.315 334.604 221.053Z" fill="#6A90D5" fill-opacity="0.43"/>
<path fill-rule="evenodd" clip-rule="evenodd" d="M315.709 225.172C315.215 222.909 317.574 220.474 319.843 219.979C322.112 219.485 324.35 220.918 324.843 223.181C325.336 225.443 324.211 229.118 321.942 229.612C319.673 230.107 316.202 227.434 315.709 225.172Z" fill="#6A90D5" fill-opacity="0.43"/>
<path fill-rule="evenodd" clip-rule="evenodd" d="M293.014 211.954C292.521 209.692 294.899 207.252 297.168 206.758C299.437 206.263 301.675 207.697 302.168 209.959C302.661 212.221 301.536 215.896 299.267 216.391C296.998 216.885 293.507 214.217 293.014 211.954Z" fill="#6A90D5" fill-opacity="0.43"/>
<path fill-rule="evenodd" clip-rule="evenodd" d="M251.445 202.853C250.952 200.591 253.31 198.156 255.579 197.661C257.848 197.166 260.086 198.6 260.579 200.862C261.072 203.125 259.947 206.8 257.678 207.294C255.41 207.789 251.938 205.116 251.445 202.853Z" fill="#6A90D5" fill-opacity="0.43"/>
<path fill-rule="evenodd" clip-rule="evenodd" d="M213.789 211.804C213.296 209.541 215.674 207.102 217.923 206.611C220.192 206.117 222.431 207.55 222.924 209.813C223.417 212.075 222.292 215.75 220.023 216.244C217.774 216.735 214.283 214.066 213.789 211.804Z" fill="#6A90D5" fill-opacity="0.43"/>
<path fill-rule="evenodd" clip-rule="evenodd" d="M194.875 215.926C194.382 213.664 196.759 211.224 199.028 210.73C201.297 210.235 203.536 211.669 204.029 213.931C204.522 216.193 203.397 219.868 201.128 220.363C198.859 220.857 195.368 218.189 194.875 215.926Z" fill="#6A90D5" fill-opacity="0.43"/>
<path fill-rule="evenodd" clip-rule="evenodd" d="M175.979 220.045C175.486 217.783 177.864 215.343 180.133 214.848C182.383 214.358 184.621 215.792 185.114 218.054C185.607 220.316 184.482 223.991 182.233 224.481C179.964 224.976 176.473 222.307 175.979 220.045Z" fill="#6A90D5" fill-opacity="0.43"/>
<path fill-rule="evenodd" clip-rule="evenodd" d="M644.771 99.7008C644.278 97.4386 646.648 95.0005 648.913 94.5068C651.178 94.0131 653.415 95.4471 653.908 97.7094C654.401 99.9716 653.278 103.646 651.013 104.14C648.748 104.634 645.264 101.963 644.771 99.7008Z" fill="#6A90D5" fill-opacity="0.43"/>
<path fill-rule="evenodd" clip-rule="evenodd" d="M606.965 107.941C606.472 105.679 608.842 103.241 611.107 102.747C613.372 102.253 615.609 103.688 616.102 105.95C616.595 108.212 615.472 111.887 613.207 112.38C610.942 112.874 607.458 110.204 606.965 107.941Z" fill="#6A90D5" fill-opacity="0.43"/>
<path fill-rule="evenodd" clip-rule="evenodd" d="M588.062 112.061C587.569 109.799 589.939 107.361 592.204 106.867C594.469 106.374 596.706 107.808 597.199 110.07C597.692 112.332 596.569 116.007 594.304 116.5C592.039 116.994 588.555 114.324 588.062 112.061Z" fill="#6A90D5" fill-opacity="0.43"/>
<path fill-rule="evenodd" clip-rule="evenodd" d="M569.159 116.182C568.666 113.919 571.036 111.481 573.301 110.988C575.566 110.494 577.803 111.928 578.296 114.19C578.789 116.452 577.666 120.127 575.401 120.621C573.136 121.114 569.652 118.444 569.159 116.182Z" fill="#6A90D5" fill-opacity="0.43"/>
<path fill-rule="evenodd" clip-rule="evenodd" d="M531.345 124.424C530.852 122.161 533.23 119.722 535.499 119.227C537.768 118.733 539.987 120.17 540.48 122.433C540.973 124.695 539.868 128.366 537.599 128.86C535.33 129.355 531.838 126.686 531.345 124.424Z" fill="#6A90D5" fill-opacity="0.43"/>
<path fill-rule="evenodd" clip-rule="evenodd" d="M512.45 128.542C511.957 126.28 514.335 123.84 516.604 123.346C518.853 122.855 521.092 124.289 521.585 126.551C522.078 128.813 520.953 132.488 518.703 132.979C516.434 133.473 512.943 130.804 512.45 128.542Z" fill="#6A90D5" fill-opacity="0.43"/>
<path fill-rule="evenodd" clip-rule="evenodd" d="M493.555 132.661C493.062 130.398 495.42 127.963 497.689 127.468C499.958 126.974 502.196 128.407 502.69 130.67C503.183 132.932 502.058 136.607 499.789 137.101C497.52 137.596 494.048 134.923 493.555 132.661Z" fill="#6A90D5" fill-opacity="0.43"/>
<path fill-rule="evenodd" clip-rule="evenodd" d="M474.64 136.783C474.147 134.521 476.525 132.081 478.794 131.587C481.063 131.092 483.282 132.53 483.775 134.792C484.268 137.055 483.162 140.725 480.893 141.22C478.624 141.715 475.133 139.046 474.64 136.783Z" fill="#6A90D5" fill-opacity="0.43"/>
<path fill-rule="evenodd" clip-rule="evenodd" d="M455.745 140.902C455.252 138.64 457.63 136.2 459.879 135.71C462.148 135.215 464.387 136.649 464.88 138.911C465.373 141.173 464.248 144.848 461.979 145.343C459.729 145.833 456.238 143.164 455.745 140.902Z" fill="#6A90D5" fill-opacity="0.43"/>
<path fill-rule="evenodd" clip-rule="evenodd" d="M436.85 145.02C436.357 142.758 438.715 140.323 440.984 139.828C443.253 139.334 445.491 140.767 445.984 143.029C446.478 145.292 445.353 148.967 443.084 149.461C440.815 149.956 437.343 147.283 436.85 145.02Z" fill="#6A90D5" fill-opacity="0.43"/>
<path fill-rule="evenodd" clip-rule="evenodd" d="M417.935 149.143C417.442 146.881 419.82 144.441 422.089 143.947C424.338 143.456 426.577 144.89 427.07 147.152C427.563 149.414 426.438 153.089 424.188 153.58C421.919 154.074 418.428 151.405 417.935 149.143Z" fill="#6A90D5" fill-opacity="0.43"/>
<path fill-rule="evenodd" clip-rule="evenodd" d="M399.04 153.262C398.547 150.999 400.905 148.564 403.174 148.069C405.443 147.575 407.681 149.008 408.175 151.271C408.668 153.533 407.543 157.208 405.274 157.702C403.005 158.197 399.533 155.524 399.04 153.262Z" fill="#6A90D5" fill-opacity="0.43"/>
<path fill-rule="evenodd" clip-rule="evenodd" d="M380.125 157.384C379.632 155.122 382.01 152.682 384.279 152.188C386.548 151.693 388.767 153.131 389.26 155.393C389.753 157.656 388.647 161.326 386.378 161.821C384.109 162.315 380.618 159.647 380.125 157.384Z" fill="#6A90D5" fill-opacity="0.43"/>
<path fill-rule="evenodd" clip-rule="evenodd" d="M361.23 161.503C360.737 159.241 363.115 156.801 365.364 156.311C367.633 155.816 369.872 157.25 370.365 159.512C370.858 161.774 369.733 165.449 367.464 165.944C365.214 166.434 361.723 163.765 361.23 161.503Z" fill="#6A90D5" fill-opacity="0.43"/>
<path fill-rule="evenodd" clip-rule="evenodd" d="M342.335 165.621C341.842 163.359 344.2 160.924 346.469 160.429C348.738 159.935 350.976 161.368 351.469 163.63C351.963 165.893 350.838 169.568 348.569 170.062C346.3 170.557 342.828 167.884 342.335 165.621Z" fill="#6A90D5" fill-opacity="0.43"/>
<path fill-rule="evenodd" clip-rule="evenodd" d="M323.42 169.744C322.927 167.482 325.305 165.042 327.574 164.548C329.823 164.057 332.062 165.491 332.555 167.753C333.048 170.015 331.923 173.69 329.673 174.181C327.404 174.675 323.913 172.006 323.42 169.744Z" fill="#6A90D5" fill-opacity="0.43"/>
<path fill-rule="evenodd" clip-rule="evenodd" d="M304.525 173.863C304.032 171.6 306.39 169.165 308.659 168.67C310.928 168.176 313.166 169.609 313.66 171.872C314.153 174.134 313.028 177.809 310.759 178.303C308.49 178.798 305.018 176.125 304.525 173.863Z" fill="#6A90D5" fill-opacity="0.43"/>
<path fill-rule="evenodd" clip-rule="evenodd" d="M285.61 177.986C285.117 175.723 287.495 173.283 289.764 172.789C292.033 172.294 294.271 173.728 294.764 175.99C295.257 178.252 294.132 181.927 291.863 182.422C289.594 182.917 286.103 180.248 285.61 177.986Z" fill="#6A90D5" fill-opacity="0.43"/>
<path fill-rule="evenodd" clip-rule="evenodd" d="M266.715 182.104C266.222 179.842 268.6 177.402 270.849 176.912C273.118 176.417 275.357 177.851 275.85 180.113C276.343 182.375 275.218 186.05 272.949 186.545C270.699 187.035 267.208 184.366 266.715 182.104Z" fill="#6A90D5" fill-opacity="0.43"/>
<path fill-rule="evenodd" clip-rule="evenodd" d="M247.82 186.222C247.327 183.96 249.685 181.525 251.954 181.03C254.223 180.536 256.461 181.969 256.954 184.231C257.448 186.494 256.323 190.169 254.054 190.663C251.785 191.158 248.313 188.485 247.82 186.222Z" fill="#6A90D5" fill-opacity="0.43"/>
<path fill-rule="evenodd" clip-rule="evenodd" d="M210.01 194.464C209.517 192.201 211.894 189.762 214.144 189.271C216.413 188.777 218.651 190.21 219.145 192.473C219.638 194.735 218.513 198.41 216.244 198.904C213.994 199.395 210.503 196.726 210.01 194.464Z" fill="#6A90D5" fill-opacity="0.43"/>
<path fill-rule="evenodd" clip-rule="evenodd" d="M191.095 198.586C190.602 196.324 192.98 193.884 195.249 193.39C197.518 192.895 199.756 194.329 200.249 196.591C200.742 198.853 199.617 202.528 197.348 203.023C195.079 203.517 191.588 200.849 191.095 198.586Z" fill="#6A90D5" fill-opacity="0.43"/>
<path fill-rule="evenodd" clip-rule="evenodd" d="M172.2 202.705C171.707 200.443 174.085 198.003 176.354 197.508C178.603 197.018 180.842 198.452 181.335 200.714C181.828 202.976 180.703 206.651 178.453 207.141C176.184 207.636 172.693 204.967 172.2 202.705Z" fill="#6A90D5" fill-opacity="0.43"/>
<path fill-rule="evenodd" clip-rule="evenodd" d="M153.305 206.823C152.812 204.561 155.17 202.126 157.439 201.631C159.708 201.137 161.946 202.57 162.44 204.832C162.933 207.095 161.808 210.77 159.539 211.264C157.27 211.759 153.798 209.086 153.305 206.823Z" fill="#6A90D5" fill-opacity="0.43"/>
</g>
<defs>
<filter id="filter0_d" x="54" y="-71" width="778.934" height="715.274" filterUnits="userSpaceOnUse" color-interpolation-filters="sRGB">
<feFlood flood-opacity="0" result="BackgroundImageFix"/>
<feColorMatrix in="SourceAlpha" type="matrix" values="0 0 0 0 0 0 0 0 0 0 0 0 0 0 0 0 0 0 127 0"/>
<feOffset dy="10"/>
<feGaussianBlur stdDeviation="4.5"/>
<feColorMatrix type="matrix" values="0 0 0 0 0.0237674 0 0 0 0 0.0706098 0 0 0 0 0.154167 0 0 0 0.14 0"/>
<feBlend mode="normal" in2="BackgroundImageFix" result="effect1_dropShadow"/>
<feBlend mode="normal" in="SourceGraphic" in2="effect1_dropShadow" result="shape"/>
</filter>
<clipPath id="clip0">
<rect width="1440" height="600" fill="white"/>
</clipPath>
</defs>
</svg>
