<svg width="1440" height="694" viewBox="0 0 1440 694" fill="none" xmlns="http://www.w3.org/2000/svg">
<g clip-path="url(#clip0)">
<path fill-rule="evenodd" clip-rule="evenodd" d="M0 65.8364L40 50.1424C80 34.4484 160 3.60157 240 11.178C282.014 15.1569 324.029 30.0321 366.043 44.9073C404.029 58.3561 442.014 71.8048 480 77.201C540.465 86.1996 600.93 75.1036 661.395 64.0075C680.93 60.4227 700.465 56.8378 720 53.9306C800 42.566 880 42.566 960 62.0482C988.515 68.9923 1017.03 78.4116 1045.54 87.8309C1097.03 104.838 1148.51 121.845 1200 124.283C1277.68 127.961 1355.35 98.4761 1396.42 82.8899C1397.64 82.4239 1398.84 81.9703 1400 81.5304L1440 65.8364V184V206V490V648.039L1406 640.713C1404.07 640.31 1402.05 639.883 1399.93 639.437C1363.52 631.763 1299.21 618.211 1234 618.211C1200 618.211 1165.75 622.005 1131.5 625.799C1097.25 629.593 1063 633.387 1029 633.387C1001.14 633.387 973.285 630.913 945.494 628.445C904.448 624.8 863.546 621.168 823 625.537C785.408 629.814 748.113 640.614 710.791 651.422C679.609 660.452 648.408 669.487 617 674.728C549 685.717 480 678.391 411 663.215C392.254 659.031 373.431 654.291 354.575 649.542C305.032 637.064 255.254 624.527 206 621.874C140.124 618.376 75.1595 632.051 38.9539 639.672C37.2369 640.033 35.5847 640.381 34 640.713L0 648.039V490V206V184V65.8364Z" fill="#133166"/>
<path opacity="0.73" fill-rule="evenodd" clip-rule="evenodd" d="M1478.91 209.199C1484.78 300.096 1568.84 290.492 1543.12 342.053C1521.92 384.55 1379.37 581.988 1317.02 495.189C1285.72 451.61 1308.31 411.728 1303.34 358.191C1297.48 295.062 1214.01 223.58 1259.52 179.717C1307.35 133.626 1474.62 142.709 1478.91 209.199Z" fill="#274B8A"/>
<g opacity="0.3">
<mask id="mask0" mask-type="alpha" maskUnits="userSpaceOnUse" x="-126" y="160" width="540" height="404">
<path d="M-126 160H414V564H-126V160Z" fill="white"/>
</mask>
<g mask="url(#mask0)">
<path d="M262.125 383.21C215.712 383.21 178.088 345.678 178.088 299.38C178.088 253.082 215.712 215.55 262.125 215.55C308.538 215.55 346.162 253.082 346.162 299.38C346.162 345.678 308.538 383.21 262.125 383.21Z" fill="#C6DAFE"/>
<path d="M-79.2152 200.321L92.5668 299.597L79.0057 322.946L-92.7763 223.671L-79.2152 200.321Z" fill="#4366A5"/>
<path fill-rule="evenodd" clip-rule="evenodd" d="M119.289 461.765L188.782 376.429L205.53 387.525L135.995 475.048L119.289 461.765Z" fill="#86A6DF"/>
<path fill-rule="evenodd" clip-rule="evenodd" d="M356.212 491.042L274.135 431.226L281.675 420.403L364.87 474.076L356.212 491.042Z" fill="#EAE8E4"/>
<path d="M176.845 484.561L207.476 439.097L214.538 443.831L183.908 489.296L176.845 484.561Z" fill="#33538C"/>
<path fill-rule="evenodd" clip-rule="evenodd" d="M135.021 392.973L166.946 354.194L180.54 362L149.43 404.387L135.021 392.973Z" fill="#3A8EAA"/>
<path fill-rule="evenodd" clip-rule="evenodd" d="M-89.733 101.988L241.366 333.015L225.042 354.294L-118.225 137.285L-89.733 101.988Z" fill="#A4BEEE"/>
<path fill-rule="evenodd" clip-rule="evenodd" d="M220.486 358.426L105.913 295.924L97.6611 310.748L210.867 372.637L220.486 358.426Z" fill="#678AC9"/>
<path d="M277.258 450.543L375.525 532.917L364.589 545.898L266.322 463.525L277.258 450.543Z" fill="#EAE8E4"/>
<path fill-rule="evenodd" clip-rule="evenodd" d="M307.401 466.196L266.433 433.559L258.646 442.107L299.614 474.744L307.401 466.196Z" fill="#678AC9"/>
<path d="M37.2367 312.381L-76.4008 250.147L-80.7692 258.668L32.8683 320.902L37.2367 312.381Z" fill="#28203D"/>
<path fill-rule="evenodd" clip-rule="evenodd" d="M27.5536 241.167L-82.228 175.143L-87.1816 183.339L22.6 249.363L27.5536 241.167Z" fill="#BFCBBA"/>
<path d="M-58.9674 280.549L55.1885 338.785L54.0844 340.939L-60.0715 282.702L-58.9674 280.549Z" fill="#849C9B"/>
<path d="M134.4 484.658L333.381 234.74L339.033 239.218L140.052 489.136L134.4 484.658Z" fill="#28203D"/>
<path fill-rule="evenodd" clip-rule="evenodd" d="M203.179 420.27L336.96 258.431L357.905 272.031L226.258 437.553L203.179 420.27Z" fill="#678AC9"/>
<path d="M76.0306 415.899C68.9148 414.197 64.5225 407.093 66.2202 400.033C67.9178 392.973 75.0625 388.63 82.1783 390.333C89.2941 392.035 93.6864 399.139 91.9887 406.199C90.2911 413.259 83.1464 417.602 76.0306 415.899Z" fill="#849C9B"/>
<path d="M350.701 413.594C337.886 410.528 329.976 397.735 333.034 385.021C336.091 372.307 348.957 364.486 361.772 367.552C374.587 370.618 382.497 383.411 379.439 396.125C376.382 408.839 363.515 416.66 350.701 413.594Z" fill="#EAE8E4"/>
<path d="M247.59 312.4C242.015 311.066 238.574 305.5 239.904 299.969C241.234 294.437 246.832 291.035 252.407 292.369C257.982 293.703 261.423 299.268 260.093 304.8C258.763 310.331 253.165 313.734 247.59 312.4Z" fill="#195BD0"/>
<path d="M303.974 413.126C298.426 411.798 295.002 406.26 296.325 400.755C297.649 395.25 303.219 391.864 308.767 393.192C314.316 394.519 317.74 400.058 316.416 405.562C315.093 411.067 309.522 414.453 303.974 413.126Z" fill="#BFCBBA"/>
<path d="M242.507 323.338L148.072 258.293L148.873 257.137L243.308 322.182L242.507 323.338Z" fill="#28203D"/>
<path d="M51.0737 466.897L2.23234 524.018L0.434874 522.489L49.2763 465.368L51.0737 466.897Z" fill="#28203D"/>
<path d="M358.525 183.773L309.657 244.646L308.557 243.768L357.425 182.895L358.525 183.773Z" fill="#28203D"/>
<path d="M325.536 478.421L387.617 528.494L386.731 529.587L324.65 479.513L325.536 478.421Z" fill="#28203D"/>
<path fill-rule="evenodd" clip-rule="evenodd" d="M7.44978 417.418L20.5435 402.393L19.3725 401.378L6.27882 416.403L-8.78377 403.342L-9.80166 404.51L5.26093 417.571L-7.8328 432.597L-6.66183 433.612L6.43189 418.587L21.4945 431.648L22.5124 430.48L7.44978 417.418Z" fill="#DC4618"/>
<path fill-rule="evenodd" clip-rule="evenodd" d="M356.638 389.106L363.381 381.369L362.778 380.846L356.035 388.584L348.278 381.857L347.754 382.459L355.511 389.185L348.768 396.923L349.371 397.445L356.114 389.708L363.871 396.434L364.395 395.832L356.638 389.106Z" fill="#DC4618"/>
</g>
</g>
</g>
<defs>
<clipPath id="clip0">
<rect width="1440" height="694" fill="white"/>
</clipPath>
</defs>
</svg>
