<svg width="800" height="355" viewBox="0 0 800 355" fill="none" xmlns="http://www.w3.org/2000/svg">
<g clip-path="url(#clip0)">
<rect width="800" height="355" fill="#133166"/>
<path d="M715.727 242.987C678.901 296.525 612.567 328.927 549.354 313.973C486.295 299.22 426.048 236.71 428.223 183.988C430.243 131.065 494.53 87.7296 561.578 65.3683C628.272 42.961 697.727 41.5292 728.697 78.2278C759.866 114.772 752.552 189.448 715.727 242.987Z" fill="#183975"/>
<path d="M708.931 239.089C674.288 289.454 611.885 319.934 552.419 305.866C493.099 291.988 436.423 233.184 438.47 183.587C440.37 133.802 500.846 93.0346 563.921 71.9988C626.66 50.9208 691.998 49.5726 721.132 84.0958C750.454 118.474 743.573 188.723 708.931 239.089Z" fill="#1B3F7D"/>
<path d="M701.684 234.932C669.37 281.913 611.16 310.346 555.689 297.224C500.354 284.277 447.486 229.424 449.395 183.16C451.167 136.72 507.581 98.6921 566.417 79.0693C624.941 59.4075 685.888 58.1497 713.065 90.3536C740.418 122.422 733.998 187.951 701.684 234.932Z" fill="#1F4486"/>
<path d="M694.38 230.743C664.411 274.313 610.428 300.682 558.984 288.512C507.667 276.506 458.636 225.635 460.406 182.729C462.051 139.66 514.368 104.394 568.933 86.1959C623.209 67.9609 679.732 66.7946 704.936 96.6606C730.301 126.401 724.349 187.172 694.38 230.743Z" fill="#224A91"/>
<path d="M686.508 226.228C659.068 266.122 609.639 290.267 562.536 279.123C515.548 268.13 470.655 221.551 472.276 182.265C473.78 142.83 521.684 110.539 571.646 93.8765C621.342 77.1793 673.096 76.1125 696.173 103.458C719.399 130.689 713.948 186.333 686.508 226.228Z" fill="#28519A"/>
<path d="M678.765 221.787C653.812 258.066 608.863 280.021 566.028 269.888C523.301 259.892 482.476 217.534 483.95 181.809C485.318 145.948 528.88 116.583 574.313 101.431C619.505 86.2485 666.569 85.2766 687.555 110.145C708.675 134.908 703.719 185.509 678.765 221.787Z" fill="#2C57A3"/>
<path d="M671.059 217.367C648.58 250.046 608.091 269.823 569.506 260.696C531.016 251.691 494.242 213.536 495.571 181.355C496.803 149.052 536.043 122.6 576.968 108.952C617.677 95.2746 660.071 94.3994 678.974 116.8C698.001 139.106 693.535 184.688 671.059 217.367Z" fill="#3260AF"/>
<g opacity="0.08" clip-path="url(#clip1)">
<mask id="mask0" mask-type="alpha" maskUnits="userSpaceOnUse" x="-58" y="37" width="372" height="308">
<path d="M-58 101.14L265.707 37L313.909 280.27L-9.79759 344.411L-58 101.14Z" fill="white"/>
</mask>
<g mask="url(#mask0)">
<path d="M201.296 189.446C173.474 194.959 146.441 176.828 140.917 148.95C135.393 121.071 153.47 94.002 181.292 88.4892C209.114 82.9763 236.147 101.107 241.671 128.986C247.195 156.865 229.118 183.934 201.296 189.446Z" fill="#C6DAFE"/>
<path d="M-25.1437 119.863L89.677 159.238L84.3337 174.909L-30.487 135.534L-25.1437 119.863Z" fill="#4366A5"/>
<path fill-rule="evenodd" clip-rule="evenodd" d="M125.044 253.715L156.521 194.075L167.885 198.767L136.644 259.728L125.044 253.715Z" fill="#86A6DF"/>
<path fill-rule="evenodd" clip-rule="evenodd" d="M270.563 243.203L214.225 216.933L217.453 209.52L273.729 231.958L270.563 243.203Z" fill="#EAE8E4"/>
<path d="M162.267 260.605L175.204 229.59L180.002 231.602L167.065 262.617L162.267 260.605Z" fill="#33538C"/>
<path fill-rule="evenodd" clip-rule="evenodd" d="M126.268 210.423L140.778 183.279L149.858 186.365L136.267 215.584L126.268 210.423Z" fill="#3A8EAA"/>
<path fill-rule="evenodd" clip-rule="evenodd" d="M-43.1811 61.9001L182.863 161.687L175.616 176.439L-56.0492 86.5391L-43.1811 61.9001Z" fill="#A4BEEE"/>
<path fill-rule="evenodd" clip-rule="evenodd" d="M173.378 179.468L97.2393 155.441L94.0614 165.348L169.308 189.168L173.378 179.468Z" fill="#678AC9"/>
<path d="M218.401 228.194L287.136 266.124L282.13 275.239L213.395 237.31L218.401 228.194Z" fill="#EAE8E4"/>
<path fill-rule="evenodd" clip-rule="evenodd" d="M238.339 234.039L209.886 219.252L206.238 225.325L234.69 240.111L238.339 234.039Z" fill="#678AC9"/>
<path d="M58.0344 173.508L-17.5117 149.531L-19.1137 155.181L56.4324 179.158L58.0344 173.508Z" fill="#28203D"/>
<path fill-rule="evenodd" clip-rule="evenodd" d="M43.733 131.776L-29.9538 105.06L-31.9454 110.583L41.7414 137.3L43.733 131.776Z" fill="#BFCBBA"/>
<path d="M-3.43384 165.767L71.9461 187.275L71.5412 188.703L-3.83876 167.195L-3.43384 165.767Z" fill="#849C9B"/>
<path d="M136.834 265.705L226.297 91.5808L230.219 93.6059L140.757 267.73L136.834 265.705Z" fill="#28203D"/>
<path fill-rule="evenodd" clip-rule="evenodd" d="M170.382 218.764L231.268 105.421L245.447 111.123L186.279 226.429L170.382 218.764Z" fill="#678AC9"/>
<path d="M93.6407 231.234C89.1719 231.054 85.6914 227.299 85.8668 222.846C86.0421 218.393 89.8068 214.929 94.2756 215.109C98.7443 215.289 102.225 219.045 102.05 223.498C101.874 227.951 98.1094 231.414 93.6407 231.234Z" fill="#849C9B"/>
<path d="M258.019 197.221C249.971 196.897 243.703 190.134 244.019 182.114C244.334 174.095 251.114 167.858 259.162 168.182C267.21 168.506 273.478 175.27 273.162 183.289C272.846 191.308 266.066 197.545 258.019 197.221Z" fill="#EAE8E4"/>
<path d="M184.135 148.534C180.633 148.393 177.906 145.45 178.044 141.962C178.181 138.473 181.131 135.759 184.632 135.9C188.133 136.041 190.86 138.984 190.723 142.473C190.585 145.961 187.636 148.675 184.135 148.534Z" fill="#195BD0"/>
<path d="M229.952 202.489C226.468 202.349 223.754 199.421 223.891 195.949C224.028 192.477 226.963 189.776 230.447 189.917C233.931 190.057 236.645 192.985 236.508 196.457C236.372 199.929 233.436 202.63 229.952 202.489Z" fill="#BFCBBA"/>
<path d="M182.392 155.725L118.022 127.774L118.364 126.983L182.734 154.933L182.392 155.725Z" fill="#28203D"/>
<path d="M84.7648 264.907L62.3018 305.104L61.0418 304.397L83.5049 264.2L84.7648 264.907Z" fill="#28203D"/>
<path d="M235.288 57.9045L213.257 100.364L212.493 99.9654L234.524 57.5061L235.288 57.9045Z" fill="#28203D"/>
<path d="M250.668 239.246L293.857 262.024L293.457 262.788L250.267 240.009L250.668 239.246Z" fill="#28203D"/>
<path fill-rule="evenodd" clip-rule="evenodd" d="M52.7107 240.295L58.7671 229.692L57.944 229.22L51.8876 239.823L41.2998 233.747L40.829 234.571L51.4168 240.647L45.3604 251.25L46.1835 251.722L52.2399 241.119L62.8277 247.195L63.2985 246.371L52.7107 240.295Z" fill="#DC4618"/>
<path fill-rule="evenodd" clip-rule="evenodd" d="M258.656 181.771L261.775 176.311L261.351 176.068L258.232 181.528L252.78 178.399L252.538 178.823L257.99 181.952L254.871 187.412L255.295 187.655L258.414 182.195L263.866 185.324L264.108 184.9L258.656 181.771Z" fill="#DC4618"/>
</g>
</g>
</g>
<defs>
<clipPath id="clip0">
<rect width="800" height="355" fill="white"/>
</clipPath>
<clipPath id="clip1">
<rect width="330" height="248" fill="white" transform="matrix(-0.980929 0.194365 0.194365 0.980929 265.707 37)"/>
</clipPath>
</defs>
</svg>
