<svg width="1440" height="450" viewBox="0 0 1440 450" fill="none" xmlns="http://www.w3.org/2000/svg">
<g clip-path="url(#clip0)">
<g filter="url(#filter0_d)">
<path fill-rule="evenodd" clip-rule="evenodd" d="M0 40.6704L34 37.6134C35.045 37.5222 36.1194 37.4278 37.2224 37.3309L37.2255 37.3306C73.0652 34.1821 139.062 28.3843 206 40.6704C231.327 45.3874 256.792 52.7093 282.293 60.0415C325.26 72.3954 368.327 84.7782 411 84.7782C460.556 84.7782 510.112 68.5595 559.297 52.4619L559.298 52.4617C578.596 46.1456 597.838 39.8482 617 34.5565C686 15.3412 754 9.22723 823 24.9488C852.54 31.7785 882.269 42.7288 912.104 53.7184C950.949 68.0265 989.974 82.4012 1029 87.8352C1083.96 95.6011 1139.58 84.5354 1194.8 73.5498L1194.8 73.5496C1207.89 70.9443 1220.97 68.3436 1234 65.9997C1303 53.335 1371 46.7844 1406 43.7274L1440 40.6704V116V135V187V284V412.726L1360 400.524C1280 387.451 1120 363.049 960 375.25C890.98 380.513 821.961 392.912 752.941 405.311C661.961 421.656 570.98 438 480 438C325.172 438 170.344 390.666 88.0057 365.494C85.2554 364.654 82.5859 363.837 80 363.049L0 337.774V284V187V135V116V40.6704Z" fill="#133166"/>
</g>
</g>
<defs>
<filter id="filter0_d" x="-5" y="15" width="1450" height="432" filterUnits="userSpaceOnUse" color-interpolation-filters="sRGB">
<feFlood flood-opacity="0" result="BackgroundImageFix"/>
<feColorMatrix in="SourceAlpha" type="matrix" values="0 0 0 0 0 0 0 0 0 0 0 0 0 0 0 0 0 0 127 0"/>
<feOffset dy="4"/>
<feGaussianBlur stdDeviation="2.5"/>
<feColorMatrix type="matrix" values="0 0 0 0 0 0 0 0 0 0 0 0 0 0 0 0 0 0 0.25 0"/>
<feBlend mode="normal" in2="BackgroundImageFix" result="effect1_dropShadow"/>
<feBlend mode="normal" in="SourceGraphic" in2="effect1_dropShadow" result="shape"/>
</filter>
<clipPath id="clip0">
<rect width="1440" height="450" fill="white"/>
</clipPath>
</defs>
</svg>
