<svg width="1440" height="500" viewBox="0 0 1440 500" fill="none" xmlns="http://www.w3.org/2000/svg">
<g clip-path="url(#clip0)">
<g filter="url(#filter0_d)">
<path fill-rule="evenodd" clip-rule="evenodd" d="M0 371.774L80 397.049C160 421.451 320 472 480 472C640 472 800 421.451 960 409.25C1120 397.049 1280 421.451 1360 434.524L1440 446.726V221H1360C1280 221 1120 221 960 221C800 221 640 221 480 221C320 221 160 221 80 221H0V371.774Z" fill="url(#paint0_linear)"/>
</g>
<g filter="url(#filter1_d)">
<path fill-rule="evenodd" clip-rule="evenodd" d="M0 50.6704L34 47.6134C69 44.5565 137 38.0058 206 50.6704C274 63.335 343 94.7782 411 94.7782C480 94.7782 549 63.335 617 44.5565C686 25.3412 754 19.2272 823 34.9488C891 50.6704 960 88.2276 1029 97.8352C1097 107.443 1166 88.2276 1234 75.9997C1303 63.335 1371 56.7844 1406 53.7274L1440 50.6704V145H1406C1371 145 1303 145 1234 145C1166 145 1097 145 1029 145C960 145 891 145 823 145C754 145 686 145 617 145C549 145 480 145 411 145C343 145 274 145 206 145C137 145 69 145 34 145H0V50.6704Z" fill="url(#paint1_linear)"/>
</g>
<path fill-rule="evenodd" clip-rule="evenodd" d="M34 59.6134L0 62.6704V138V157V209V306V359.774L80 385.049C82.5859 385.837 85.2554 386.654 88.0057 387.494C170.344 412.666 325.172 460 480 460C570.98 460 661.961 443.656 752.941 427.311C821.961 414.912 890.98 402.513 960 397.25C1120 385.049 1280 409.451 1360 422.524L1440 434.726V306V209V157V138V62.6704L1406 65.7274C1371 68.7844 1303 75.335 1234 87.9997C1220.96 90.3437 1207.89 92.9445 1194.8 95.5498C1139.58 106.535 1083.96 117.601 1029 109.835C989.974 104.401 950.949 90.0265 912.104 75.7184C882.269 64.7288 852.54 53.7785 823 46.9488C754 31.2272 686 37.3412 617 56.5565C597.838 61.8483 578.596 68.1458 559.297 74.4619C510.112 90.5595 460.556 106.778 411 106.778C368.327 106.778 325.26 94.3954 282.293 82.0415C256.792 74.7093 231.327 67.3874 206 62.6704C139.062 50.3843 73.0652 56.1821 37.2255 59.3306C36.1214 59.4276 35.046 59.5221 34 59.6134Z" fill="#133166"/>
<path d="M827.716 280.293C829.037 333.76 800.483 387.396 751.134 407.966C701.985 428.595 631.64 416.041 607.622 379.856C583.403 343.612 605.311 283.679 639.191 236.389C672.812 189.24 718.406 154.735 756.772 164.231C795.196 173.528 826.394 226.826 827.716 280.293Z" fill="#183975"/>
<path d="M821.304 280.978C822.547 331.276 795.685 381.732 749.261 401.083C703.026 420.489 636.851 408.679 614.257 374.639C591.474 340.544 612.083 284.163 643.955 239.676C675.583 195.323 718.473 162.863 754.565 171.796C790.712 180.542 820.06 230.68 821.304 280.978Z" fill="#1B3F7D"/>
<path d="M814.467 281.709C815.627 328.627 790.57 375.693 747.265 393.744C704.136 411.846 642.407 400.83 621.331 369.077C600.079 337.273 619.304 284.68 649.034 243.182C678.537 201.809 718.545 171.53 752.212 179.863C785.931 188.021 813.307 234.791 814.467 281.709Z" fill="#1F4486"/>
<path d="M807.576 282.445C808.651 325.957 785.414 369.607 745.253 386.347C705.255 403.135 648.007 392.919 628.461 363.471C608.752 333.975 626.581 285.201 654.153 246.716C681.514 208.346 718.618 180.265 749.841 187.993C781.111 195.559 806.5 238.933 807.576 282.445Z" fill="#224A91"/>
<path d="M800.149 283.239C801.134 323.08 779.857 363.047 743.084 378.374C706.461 393.746 654.044 384.391 636.147 357.428C618.1 330.421 634.425 285.762 659.671 250.524C684.723 215.391 718.697 189.68 747.285 196.756C775.917 203.683 799.164 243.398 800.149 283.239Z" fill="#28519A"/>
<path d="M792.844 284.02C793.74 320.25 774.391 356.594 740.951 370.533C707.648 384.511 659.981 376.004 643.706 351.485C627.295 326.926 642.14 286.314 665.098 254.27C687.88 222.322 718.774 198.94 744.772 205.375C770.809 211.675 791.949 247.79 792.844 284.02Z" fill="#2C57A3"/>
<path d="M785.573 284.797C786.379 317.433 768.95 350.171 738.828 362.727C708.828 375.319 665.891 367.656 651.231 345.569C636.448 323.446 649.82 286.864 670.5 257.999C691.022 229.22 718.851 208.158 742.269 213.955C765.723 219.629 784.766 252.162 785.573 284.797Z" fill="#3260AF"/>
<path d="M148.716 201.293C150.037 254.76 121.483 308.396 72.1337 328.966C22.9848 349.595 -47.3601 337.041 -71.3781 300.856C-95.5966 264.612 -73.6887 204.679 -39.8086 157.389C-6.18762 110.24 39.4055 75.7348 77.7715 85.2314C116.196 94.5276 147.394 147.826 148.716 201.293Z" fill="#183975"/>
<path d="M142.304 201.978C143.547 252.276 116.685 302.732 70.2614 322.083C24.026 341.489 -42.149 329.679 -64.7433 295.639C-87.5262 261.544 -66.9169 205.163 -35.0451 160.676C-3.41716 116.323 39.4733 83.8628 75.5651 92.7965C111.712 101.542 141.06 151.68 142.304 201.978Z" fill="#1B3F7D"/>
<path d="M135.467 202.709C136.627 249.627 111.57 296.693 68.2649 314.744C25.136 332.846 -36.5927 321.83 -57.6689 290.077C-78.921 258.273 -59.6965 205.68 -29.9661 164.182C-0.463237 122.809 39.5454 92.5298 73.2122 100.863C106.931 109.021 134.307 155.791 135.467 202.709Z" fill="#1F4486"/>
<path d="M128.576 203.445C129.651 246.957 106.414 290.607 66.2527 307.347C26.2548 324.135 -30.9927 313.919 -50.5388 284.471C-70.2481 254.975 -52.4192 206.201 -24.8472 167.716C2.51393 129.346 39.6181 101.265 70.8408 108.993C102.111 116.559 127.5 159.933 128.576 203.445Z" fill="#224A91"/>
<path d="M121.149 204.239C122.134 244.08 100.857 284.047 64.0842 299.374C27.4611 314.746 -24.9563 305.391 -42.8532 278.428C-60.8996 251.421 -44.5749 206.762 -19.3293 171.524C5.72329 136.391 39.6969 110.68 68.2852 117.756C96.9173 124.683 120.164 164.398 121.149 204.239Z" fill="#28519A"/>
<path d="M113.844 205.02C114.74 241.25 95.3911 277.594 61.9514 291.533C28.6475 305.511 -19.019 297.004 -35.2939 272.485C-51.7047 247.926 -36.8596 207.314 -13.902 175.27C8.87993 143.322 39.7744 119.94 65.7717 126.375C91.8087 132.675 112.949 168.79 113.844 205.02Z" fill="#2C57A3"/>
<path d="M106.573 205.797C107.379 238.433 89.9502 271.171 59.8281 283.727C29.8284 296.319 -13.1091 288.656 -27.7694 266.569C-42.552 244.446 -29.1797 207.864 -8.49978 178.999C12.0219 150.22 39.8513 129.158 63.2694 134.955C86.7233 140.629 105.766 173.162 106.573 205.797Z" fill="#3260AF"/>
<path d="M1539.57 223.422C1541.22 290.166 1505.58 357.12 1443.98 382.799C1382.62 408.55 1294.81 392.879 1264.83 347.708C1234.6 302.465 1261.94 227.649 1304.24 168.616C1346.21 109.759 1403.12 66.6858 1451.01 78.5405C1498.98 90.1452 1537.92 156.678 1539.57 223.422Z" fill="#183975"/>
<path d="M1531.57 224.277C1533.12 287.065 1499.59 350.05 1441.64 374.206C1383.92 398.432 1301.32 383.689 1273.11 341.196C1244.67 298.635 1270.4 228.254 1310.18 172.72C1349.67 117.352 1403.21 76.8321 1448.26 87.9842C1493.38 98.9009 1530.02 161.49 1531.57 224.277Z" fill="#1B3F7D"/>
<path d="M1523.04 225.19C1524.48 283.758 1493.2 342.512 1439.15 365.045C1385.31 387.642 1308.25 373.89 1281.94 334.253C1255.41 294.551 1279.41 228.899 1316.52 177.096C1353.35 125.449 1403.3 87.6512 1445.32 98.0539C1487.41 108.237 1521.59 166.621 1523.04 225.19Z" fill="#1F4486"/>
<path d="M1514.43 226.109C1515.78 280.426 1486.77 334.914 1436.63 355.811C1386.7 376.768 1315.24 364.015 1290.84 327.255C1266.24 290.435 1288.49 229.549 1322.91 181.507C1357.07 133.609 1403.39 98.5553 1442.36 108.203C1481.4 117.647 1513.09 171.792 1514.43 226.109Z" fill="#224A91"/>
<path d="M1505.16 227.1C1506.39 276.834 1479.83 326.725 1433.93 345.859C1388.21 365.048 1322.78 353.37 1300.44 319.712C1277.91 285.998 1298.29 230.25 1329.8 186.261C1361.07 142.405 1403.48 110.309 1439.17 119.142C1474.91 127.789 1503.93 177.366 1505.16 227.1Z" fill="#28519A"/>
<path d="M1496.04 228.075C1497.16 273.301 1473.01 318.67 1431.27 336.07C1389.69 353.52 1330.19 342.9 1309.87 312.293C1289.39 281.635 1307.92 230.939 1336.58 190.937C1365.02 151.056 1403.58 121.868 1436.03 129.901C1468.54 137.765 1494.93 182.848 1496.04 228.075Z" fill="#2C57A3"/>
<path d="M1486.97 229.045C1487.97 269.784 1466.22 310.652 1428.62 326.326C1391.17 342.044 1337.57 332.479 1319.27 304.907C1300.81 277.291 1317.51 231.625 1343.32 195.592C1368.94 159.667 1403.68 133.375 1432.91 140.611C1462.19 147.695 1485.96 188.305 1486.97 229.045Z" fill="#3260AF"/>
</g>
<defs>
<filter id="filter0_d" x="-5" y="220" width="1450" height="261" filterUnits="userSpaceOnUse" color-interpolation-filters="sRGB">
<feFlood flood-opacity="0" result="BackgroundImageFix"/>
<feColorMatrix in="SourceAlpha" type="matrix" values="0 0 0 0 0 0 0 0 0 0 0 0 0 0 0 0 0 0 127 0"/>
<feOffset dy="4"/>
<feGaussianBlur stdDeviation="2.5"/>
<feColorMatrix type="matrix" values="0 0 0 0 0.0901961 0 0 0 0 0.2 0 0 0 0 0.396078 0 0 0 0.3 0"/>
<feBlend mode="normal" in2="BackgroundImageFix" result="effect1_dropShadow"/>
<feBlend mode="normal" in="SourceGraphic" in2="effect1_dropShadow" result="shape"/>
</filter>
<filter id="filter1_d" x="-6" y="17" width="1452" height="131" filterUnits="userSpaceOnUse" color-interpolation-filters="sRGB">
<feFlood flood-opacity="0" result="BackgroundImageFix"/>
<feColorMatrix in="SourceAlpha" type="matrix" values="0 0 0 0 0 0 0 0 0 0 0 0 0 0 0 0 0 0 127 0"/>
<feOffset dy="-3"/>
<feGaussianBlur stdDeviation="3"/>
<feColorMatrix type="matrix" values="0 0 0 0 0.0907118 0 0 0 0 0.200997 0 0 0 0 0.395833 0 0 0 0.3 0"/>
<feBlend mode="normal" in2="BackgroundImageFix" result="effect1_dropShadow"/>
<feBlend mode="normal" in="SourceGraphic" in2="effect1_dropShadow" result="shape"/>
</filter>
<linearGradient id="paint0_linear" x1="566" y1="221" x2="720" y2="472" gradientUnits="userSpaceOnUse">
<stop stop-color="#2E5396"/>
<stop offset="1" stop-color="#0A2350"/>
</linearGradient>
<linearGradient id="paint1_linear" x1="550" y1="-35.9999" x2="930" y2="250" gradientUnits="userSpaceOnUse">
<stop stop-color="#2E5396"/>
<stop offset="1" stop-color="#0A2350"/>
</linearGradient>
<clipPath id="clip0">
<rect width="1440" height="500" fill="white"/>
</clipPath>
</defs>
</svg>
