<svg width="1366" height="700" viewBox="0 0 1366 700" fill="none" xmlns="http://www.w3.org/2000/svg">
<g clip-path="url(#clip0)">
<rect width="1366" height="700" fill="url(#paint0_linear)"/>
<g opacity="0.68">
<path d="M327.916 226.479C380.882 323.522 379.284 449.137 308.337 533.636C237.813 618.054 97.0948 661.519 18.8941 617.717C-59.7294 573.997 -76.2584 443.092 -58.9058 324.105C-41.8941 205.624 8.99903 99.0596 88.2512 80.2248C167.422 60.9661 274.951 129.437 327.916 226.479Z" fill="#071E48"/>
<path d="M309.875 238.389C357.736 326.079 356.292 439.588 292.182 515.943C228.455 592.225 101.299 631.501 30.6352 591.921C-40.4109 552.414 -55.3468 434.126 -39.6666 326.606C-24.2945 219.543 21.6938 123.25 93.3079 106.23C164.848 88.8275 262.014 150.699 309.875 238.389Z" fill="#092353"/>
<path d="M294.427 248.586C337.918 328.269 336.605 431.412 278.351 500.794C220.443 570.11 104.899 605.799 40.688 569.833C-23.8701 533.935 -37.4421 426.448 -23.1938 328.747C-9.22547 231.462 32.5631 143.962 97.6374 128.496C162.644 112.683 250.937 168.904 294.427 248.586Z" fill="#0B285C"/>
<path d="M277.174 259.976C315.783 330.714 314.618 422.279 262.902 483.874C211.494 545.409 108.92 577.092 51.9163 545.164C-5.39527 513.295 -17.4438 417.873 -4.79491 331.139C7.60553 244.774 44.7035 167.095 102.473 153.366C160.184 139.327 238.566 189.238 277.174 259.976Z" fill="#0F2E67"/>
<path d="M261.242 270.494C295.342 332.972 294.313 413.847 248.636 468.249C203.231 522.6 112.633 550.583 62.285 522.383C11.6651 494.235 1.02334 409.955 12.1954 333.348C23.1479 257.066 55.9143 188.458 106.939 176.331C157.911 163.932 227.141 208.015 261.242 270.494Z" fill="#113473"/>
<path d="M247.814 279.358C278.116 334.876 277.201 406.74 236.613 455.081C196.266 503.376 115.762 528.242 71.0235 503.184C26.0432 478.172 16.587 403.281 26.5144 335.209C36.2467 267.426 65.3625 206.461 110.702 195.686C155.996 184.668 217.513 223.84 247.814 279.358Z" fill="#143879"/>
<path d="M234.847 287.918C261.479 336.714 260.676 399.876 225.002 442.364C189.54 484.812 118.784 506.667 79.4623 484.643C39.9283 462.659 31.6171 396.837 40.3425 337.007C48.8964 277.431 74.4868 223.848 114.337 214.377C154.146 204.694 208.214 239.122 234.847 287.918Z" fill="#183D81"/>
<path d="M221.02 297.045C243.741 338.673 243.055 392.558 212.621 428.805C182.369 465.017 122.006 483.662 88.4605 464.873C54.7337 446.118 47.6434 389.965 55.087 338.923C62.3844 288.099 84.2158 242.387 118.212 234.307C152.174 226.046 198.3 255.417 221.02 297.045Z" fill="#1D4389"/>
</g>
<path d="M1434.05 207.176C1409.31 297.982 1334.15 374.037 1240.62 383.882C1147.4 393.927 1035.2 337.362 1012.98 264.27C990.447 190.978 1057.59 100.961 1138.52 38.2834C1218.95 -24.2855 1313.18 -59.514 1373.04 -24.1961C1433.09 10.8135 1458.78 116.37 1434.05 207.176Z" fill="#231B63"/>
<path d="M1418.3 204.249C1395.63 287.451 1326.76 357.137 1241.07 366.158C1155.66 375.361 1052.85 323.533 1032.49 256.562C1011.85 189.408 1073.36 106.929 1147.52 49.5009C1221.21 -7.8281 1307.55 -40.1065 1362.39 -7.74625C1417.42 24.3315 1440.96 121.048 1418.3 204.249Z" fill="#29206F"/>
<path d="M1399.88 200.827C1379.63 275.135 1318.13 337.373 1241.59 345.43C1165.31 353.65 1073.49 307.361 1055.31 247.548C1036.87 187.572 1091.81 113.909 1158.04 62.6192C1223.86 11.4178 1300.96 -17.4104 1349.95 11.4909C1399.09 40.14 1420.12 126.519 1399.88 200.827Z" fill="#2D2477"/>
<path d="M1381.98 197.503C1364.09 263.171 1309.74 318.173 1242.1 325.292C1174.69 332.557 1093.54 291.65 1077.47 238.792C1061.18 185.789 1109.73 120.691 1168.26 75.3642C1226.43 30.116 1294.57 4.63965 1337.86 30.1806C1381.29 55.4987 1399.87 131.834 1381.98 197.503Z" fill="#31287E"/>
<path d="M1363.65 194.098C1348.18 250.92 1301.14 298.512 1242.62 304.672C1184.29 310.958 1114.08 275.562 1100.17 229.825C1086.07 183.963 1128.08 127.634 1178.73 88.4141C1229.06 49.2617 1288.02 27.2175 1325.48 49.3176C1363.06 71.2249 1379.13 137.276 1363.65 194.098Z" fill="#382F88"/>
<path d="M1346.48 190.907C1333.26 239.435 1293.09 280.08 1243.11 285.341C1193.29 290.709 1133.33 260.48 1121.45 221.419C1109.41 182.251 1145.29 134.144 1188.54 100.649C1231.53 67.211 1281.88 48.3844 1313.87 67.2588C1345.97 85.9684 1359.7 142.379 1346.48 190.907Z" fill="#3E358F"/>
</g>
<defs>
<linearGradient id="paint0_linear" x1="199.208" y1="144.613" x2="644.651" y2="729.22" gradientUnits="userSpaceOnUse">
<stop stop-color="#020E24"/>
<stop offset="1" stop-color="#2A0954"/>
</linearGradient>
<clipPath id="clip0">
<rect width="1366" height="700" fill="white"/>
</clipPath>
</defs>
</svg>
