<svg width="832" height="902" viewBox="0 0 832 902" fill="none" xmlns="http://www.w3.org/2000/svg">
<g clip-path="url(#clip0)">
<rect width="832" height="902" fill="url(#paint0_linear)"/>
<g opacity="0.68">
<path d="M221.859 269.631C265.313 349.245 264.002 452.301 205.796 521.625C147.937 590.882 32.4907 626.542 -31.6661 590.606C-96.1697 554.738 -109.73 447.342 -95.494 349.724C-81.5374 252.52 -39.7841 165.094 25.2353 149.642C90.1875 133.842 178.406 190.016 221.859 269.631Z" fill="#071E48"/>
<path d="M207.058 279.401C246.323 351.343 245.139 444.467 192.543 507.11C140.26 569.692 35.94 601.915 -22.0335 569.443C-80.3205 537.031 -92.5741 439.986 -79.7099 351.776C-67.0984 263.94 -29.3691 184.94 29.3839 170.977C88.0762 156.699 167.792 207.46 207.058 279.401Z" fill="#092353"/>
<path d="M194.385 287.768C230.064 353.14 228.988 437.759 181.195 494.682C133.687 551.549 38.8933 580.829 -13.7861 551.322C-66.7502 521.87 -77.8848 433.687 -66.1954 353.533C-54.7356 273.718 -20.4518 201.932 32.9359 189.244C86.2684 176.271 158.705 222.395 194.385 287.768Z" fill="#0B285C"/>
<path d="M180.23 297.112C211.905 355.146 210.949 430.267 168.521 480.8C126.345 531.284 42.1919 557.278 -4.57428 531.083C-51.5934 504.937 -61.4781 426.652 -51.1008 355.495C-40.9274 284.639 -10.4918 220.911 36.9032 209.647C84.2493 198.13 148.555 239.077 180.23 297.112Z" fill="#0F2E67"/>
<path d="M167.159 305.74C195.135 356.999 194.291 423.349 156.817 467.981C119.566 512.571 45.2381 535.529 3.93226 512.393C-37.5969 489.3 -46.3275 420.156 -37.1618 357.307C-28.1762 294.724 -1.29433 238.437 40.5669 228.488C82.3848 218.316 139.182 254.482 167.159 305.74Z" fill="#113473"/>
<path d="M156.143 313.013C181.002 358.56 180.252 417.518 146.953 457.178C113.852 496.8 47.8053 517.2 11.1014 496.642C-25.8009 476.122 -33.5588 414.681 -25.4143 358.834C-17.4298 303.224 6.45714 253.208 43.6545 244.367C80.8135 235.328 131.283 267.465 156.143 313.013Z" fill="#143879"/>
<path d="M145.504 320.035C167.353 360.068 166.694 411.887 137.427 446.745C108.334 481.569 50.2845 499.5 18.0248 481.431C-14.4093 463.395 -21.2279 409.394 -14.0695 360.309C-7.05179 311.432 13.9429 267.472 46.6363 259.702C79.296 251.757 123.654 280.003 145.504 320.035Z" fill="#183D81"/>
<path d="M134.16 327.524C152.801 361.676 152.238 405.883 127.27 435.621C102.451 465.329 52.9279 480.626 25.4069 465.211C-2.26288 449.825 -8.07987 403.756 -1.97302 361.881C4.01386 320.184 21.9246 282.681 49.8156 276.053C77.6779 269.275 115.52 293.372 134.16 327.524Z" fill="#1D4389"/>
</g>
<path d="M880.931 116.583C860.532 191.467 798.548 254.188 721.419 262.307C644.545 270.59 552.016 223.942 533.69 163.666C515.109 103.225 570.476 28.991 637.222 -22.6966C703.548 -74.295 781.253 -103.347 830.616 -74.2213C880.143 -45.3501 901.33 41.6983 880.931 116.583Z" fill="#231B63"/>
<path d="M867.941 114.17C849.251 182.783 792.458 240.251 721.788 247.69C651.351 255.28 566.571 212.538 549.78 157.31C532.755 101.931 583.485 33.9131 644.641 -13.446C705.413 -60.7232 776.61 -87.342 821.839 -60.6557C867.22 -34.2023 886.632 45.5562 867.941 114.17Z" fill="#29206F"/>
<path d="M852.75 111.347C836.057 172.627 785.335 223.952 722.219 230.596C659.31 237.375 583.593 199.202 568.596 149.877C553.391 100.417 598.699 39.6693 653.318 -2.62776C707.594 -44.8517 771.181 -68.6253 811.576 -44.7914C852.106 -21.1655 869.443 50.0679 852.75 111.347Z" fill="#2D2477"/>
<path d="M837.992 108.606C823.24 162.76 778.415 208.118 722.637 213.99C667.043 219.98 600.129 186.246 586.876 142.655C573.439 98.946 613.479 45.2617 661.748 7.88257C709.713 -29.432 765.907 -50.4415 801.605 -29.3787C837.422 -8.49982 852.744 54.4513 837.992 108.606Z" fill="#31287E"/>
<path d="M822.88 105.798C810.115 152.657 771.329 191.905 723.066 196.985C674.962 202.168 617.062 172.979 605.594 135.261C593.967 97.4399 628.613 50.9879 670.379 18.6444C711.883 -13.6432 760.506 -31.8223 791.395 -13.5971C822.387 4.46905 835.644 58.9395 822.88 105.798Z" fill="#382F88"/>
<path d="M808.713 103.166C797.811 143.186 764.686 176.704 723.468 181.043C682.385 185.47 632.936 160.541 623.142 128.328C613.213 96.028 642.802 56.3563 678.471 28.7337C713.917 1.15893 755.443 -14.3667 781.823 1.1983C808.292 16.6274 819.614 63.1472 808.713 103.166Z" fill="#3E358F"/>
</g>
<defs>
<linearGradient id="paint0_linear" x1="121.333" y1="186.345" x2="654.699" y2="517.217" gradientUnits="userSpaceOnUse">
<stop stop-color="#020E24"/>
<stop offset="1" stop-color="#2A0954"/>
</linearGradient>
<clipPath id="clip0">
<rect width="832" height="902" fill="white"/>
</clipPath>
</defs>
</svg>
